<svg xmlns="http://www.w3.org/2000/svg" viewBox="0 0 100 100" role="img" aria-label="StockSharp">
<path d="M0 0 C1.337 -0.008 1.337 -0.008 2.701 -0.016 C5.648 -0.029 8.593 -0.012 11.539 0.006 C13.586 0.005 15.634 0.004 17.681 0.001 C21.972 -0 26.262 0.012 30.553 0.035 C36.054 0.064 41.555 0.061 47.057 0.048 C51.284 0.041 55.512 0.049 59.74 0.061 C61.768 0.066 63.797 0.066 65.825 0.062 C68.66 0.059 71.494 0.076 74.328 0.098 C75.168 0.093 76.007 0.089 76.872 0.084 C80.063 0.125 82.726 0.318 85.684 1.561 C87.923 4.497 87.722 7.411 87.682 10.955 C87.689 11.711 87.696 12.468 87.703 13.247 C87.72 15.749 87.709 18.25 87.695 20.752 C87.698 22.489 87.702 24.226 87.707 25.964 C87.713 29.605 87.704 33.247 87.686 36.888 C87.663 41.56 87.676 46.23 87.7 50.901 C87.714 54.489 87.71 58.076 87.699 61.664 C87.697 63.386 87.7 65.109 87.709 66.831 C87.719 69.237 87.704 71.642 87.682 74.049 C87.69 74.762 87.698 75.476 87.706 76.212 C87.655 79.162 87.498 81.064 85.684 83.442 C81.948 85.013 78.313 84.927 74.328 84.906 C72.991 84.916 72.991 84.916 71.627 84.927 C68.681 84.945 65.735 84.941 62.789 84.935 C60.742 84.94 58.694 84.945 56.647 84.951 C52.356 84.96 48.066 84.958 43.775 84.948 C38.274 84.936 32.773 84.956 27.271 84.986 C23.044 85.004 18.816 85.004 14.589 84.998 C12.56 84.998 10.531 85.004 8.503 85.016 C5.668 85.031 2.835 85.021 0 85.003 C-0.84 85.013 -1.679 85.023 -2.544 85.033 C-6.006 84.989 -8.388 84.781 -11.356 82.931 C-13.339 79.676 -13.397 76.837 -13.354 73.135 C-13.361 72.399 -13.368 71.664 -13.375 70.906 C-13.392 68.479 -13.381 66.054 -13.367 63.627 C-13.37 61.938 -13.374 60.249 -13.379 58.561 C-13.385 55.023 -13.376 51.486 -13.357 47.949 C-13.335 43.416 -13.348 38.884 -13.372 34.35 C-13.386 30.864 -13.382 27.378 -13.371 23.891 C-13.369 22.22 -13.372 20.549 -13.381 18.877 C-13.391 16.541 -13.376 14.205 -13.354 11.869 C-13.362 11.179 -13.37 10.489 -13.378 9.778 C-13.324 6.701 -12.966 4.714 -11.356 2.073 C-7.686 -0.215 -4.192 -0.048 0 0 Z" fill="#0493D4" transform="translate(12.8359375,7.498291015625)"/>
<path d="M0 0 C0.101 6.354 0.171 12.707 0.22 19.061 C0.24 21.223 0.267 23.386 0.302 25.548 C0.35 28.653 0.373 31.758 0.391 34.863 C0.411 35.832 0.432 36.801 0.453 37.799 C0.454 39.15 0.454 39.15 0.454 40.529 C0.463 41.321 0.472 42.114 0.481 42.931 C0 45 0 45 -1.476 46.754 C-5.183 48.584 -8.79 48.426 -12.836 48.404 C-14.173 48.414 -14.173 48.414 -15.537 48.425 C-18.483 48.443 -21.429 48.439 -24.375 48.434 C-26.422 48.438 -28.47 48.443 -30.517 48.449 C-34.808 48.458 -39.098 48.456 -43.389 48.446 C-48.89 48.435 -54.391 48.455 -59.893 48.484 C-64.12 48.502 -68.348 48.502 -72.576 48.496 C-74.604 48.496 -76.633 48.502 -78.661 48.515 C-81.496 48.529 -84.329 48.519 -87.164 48.502 C-88.004 48.511 -88.843 48.521 -89.708 48.531 C-93.292 48.485 -95.547 48.317 -98.524 46.238 C-100.15 43.772 -100.489 42.611 -100.454 39.69 C-100.454 38.85 -100.453 38.009 -100.453 37.143 C-100.433 36.245 -100.412 35.347 -100.391 34.422 C-100.385 33.495 -100.379 32.569 -100.373 31.614 C-100.351 28.659 -100.301 25.705 -100.25 22.75 C-100.23 20.745 -100.212 18.74 -100.195 16.734 C-100.151 11.822 -100.082 6.911 -100 2 C-94.839 0.28 -89.904 3.046 -85 5 C-83.833 5.696 -82.683 6.42 -81.562 7.188 C-76.97 9.524 -72.988 9.572 -67.891 9.727 C-65 10 -65 10 -62 12 C-61.625 14.5 -61.625 14.5 -62 17 C-65.399 19.266 -66.563 19.237 -70.543 19.195 C-72.153 19.186 -72.153 19.186 -73.795 19.176 C-75.474 19.151 -75.474 19.151 -77.188 19.125 C-78.319 19.116 -79.45 19.107 -80.615 19.098 C-83.41 19.074 -86.205 19.041 -89 19 C-88.979 19.949 -88.959 20.898 -88.938 21.875 C-89 25 -89 25 -90 27 C-85.791 26.919 -81.583 26.806 -77.375 26.688 C-75.59 26.654 -75.59 26.654 -73.77 26.619 C-66.013 26.381 -60.594 25.571 -54.625 20.312 C-53.759 19.549 -52.892 18.786 -52 18 C-52 18.66 -52 19.32 -52 20 C-50.68 20 -49.36 20 -48 20 C-48 22.31 -48 24.62 -48 27 C-45.03 27 -42.06 27 -39 27 C-38.67 24.03 -38.34 21.06 -38 18 C-35.36 18 -32.72 18 -30 18 C-30.33 20.97 -30.66 23.94 -31 27 C-28.36 27 -25.72 27 -23 27 C-22.01 22.545 -22.01 22.545 -21 18 C-18.69 18 -16.38 18 -14 18 C-14 15.69 -14 13.38 -14 11 C-15.65 11 -17.3 11 -19 11 C-18.67 8.36 -18.34 5.72 -18 3 C-17.505 3.99 -17.505 3.99 -17 5 C-11.758 3.473 -5.36 0 0 0 Z" fill="#0471B8" transform="translate(100,44)"/>
<path d="M0 0 C2.051 0.033 4.102 0.065 6.152 0.098 C5.492 3.068 4.832 6.038 4.152 9.098 C6.792 8.768 9.432 8.438 12.152 8.098 C12.812 5.458 13.472 2.818 14.152 0.098 C16.792 0.098 19.432 0.098 22.152 0.098 C21.822 3.068 21.492 6.038 21.152 9.098 C22.802 9.098 24.452 9.098 26.152 9.098 C26.152 11.408 26.152 13.718 26.152 16.098 C23.842 16.098 21.532 16.098 19.152 16.098 C18.822 19.068 18.492 22.038 18.152 25.098 C19.802 25.098 21.452 25.098 23.152 25.098 C23.152 27.408 23.152 29.718 23.152 32.098 C20.842 32.098 18.532 32.098 16.152 32.098 C15.492 35.068 14.832 38.038 14.152 41.098 C11.512 41.098 8.872 41.098 6.152 41.098 C6.482 38.128 6.812 35.158 7.152 32.098 C4.512 32.098 1.872 32.098 -0.848 32.098 C-1.178 35.068 -1.508 38.038 -1.848 41.098 C-4.488 41.098 -7.128 41.098 -9.848 41.098 C-9.518 38.128 -9.188 35.158 -8.848 32.098 C-10.168 32.098 -11.488 32.098 -12.848 32.098 C-12.848 29.788 -12.848 27.478 -12.848 25.098 C-10.868 25.098 -8.888 25.098 -6.848 25.098 C-6.518 22.458 -6.188 19.818 -5.848 17.098 C-7.498 16.768 -9.148 16.438 -10.848 16.098 C-10.848 13.788 -10.848 11.478 -10.848 9.098 C-8.538 9.098 -6.228 9.098 -3.848 9.098 C-3.703 7.798 -3.559 6.499 -3.41 5.16 C-2.854 0.151 -2.854 0.151 0 0 Z" fill="#FCFDFE" transform="translate(62.84765625,29.90234375)"/>
<path d="M0 0 C1.213 0.018 2.426 0.036 3.676 0.055 C6.66 0.102 9.642 0.167 12.625 0.25 C11.965 2.89 11.305 5.53 10.625 8.25 C3.365 8.58 -3.895 8.91 -11.375 9.25 C-11.705 10.9 -12.035 12.55 -12.375 14.25 C-10.627 15.998 -8.066 15.502 -5.688 15.625 C0.503 16.11 4.365 17.168 9 21.438 C11.155 25.168 11.334 28.038 10.625 32.25 C8.975 35.962 7.06 38.103 3.625 40.25 C0.387 41.329 -1.953 41.364 -5.355 41.348 C-6.519 41.344 -7.682 41.341 -8.881 41.338 C-10.096 41.33 -11.311 41.321 -12.562 41.312 C-13.789 41.308 -15.016 41.303 -16.279 41.299 C-19.311 41.287 -22.343 41.271 -25.375 41.25 C-25.045 38.61 -24.715 35.97 -24.375 33.25 C-23.658 33.225 -22.942 33.2 -22.204 33.174 C-18.969 33.058 -15.734 32.935 -12.5 32.812 C-11.372 32.773 -10.244 32.734 -9.082 32.693 C-8.006 32.651 -6.929 32.61 -5.82 32.566 C-4.328 32.511 -4.328 32.511 -2.805 32.455 C-0.367 32.4 -0.367 32.4 1.625 31.25 C1.625 29.6 1.625 27.95 1.625 26.25 C-1.13 24.872 -3.552 25.06 -6.625 24.938 C-12.177 24.545 -15.321 24.085 -19.375 20.25 C-22.121 16.756 -21.779 12.499 -21.375 8.25 C-20.436 4.87 -18.429 3.007 -15.501 1.097 C-10.652 -0.834 -5.13 -0.145 0 0 Z" fill="#FAFCFD" transform="translate(35.375,29.75)"/>
<path d="M0 0 C2.051 0.033 4.102 0.065 6.152 0.098 C5.277 7.973 5.277 7.973 4.152 9.098 C1.482 9.239 -1.172 9.14 -3.848 9.098 C-2.854 0.151 -2.854 0.151 0 0 Z" fill="#219BD6" transform="translate(67.84765625,45.90234375)"/>
<path d="M0 0 C3.63 0.33 7.26 0.66 11 1 C11 1.66 11 2.32 11 3 C9.02 3 7.04 3 5 3 C5 5.31 5 7.62 5 10 C6.32 10 7.64 10 9 10 C8.67 12.97 8.34 15.94 8 19 C7.67 19 7.34 19 7 19 C7 16.69 7 14.38 7 12 C3.417 10.998 3.417 10.998 0 12 C0 8.04 0 4.08 0 0 Z" fill="#0B78BD" transform="translate(45,52)"/>
<path d="M0 0 C0.33 0 0.66 0 1 0 C1 2.31 1 4.62 1 7 C2.32 7 3.64 7 5 7 C4.67 9.97 4.34 12.94 4 16 C3.67 16 3.34 16 3 16 C3 13.69 3 11.38 3 9 C1.68 9 0.36 9 -1 9 C-1.125 2.25 -1.125 2.25 0 0 Z" fill="#5BA8D5" transform="translate(49,55)"/>
<path d="M0 0 C2.31 0 4.62 0 7 0 C7 1.32 7 2.64 7 4 C4.36 4 1.72 4 -1 4 C-0.67 2.68 -0.34 1.36 0 0 Z" fill="#107CBE" transform="translate(65,51)"/>
<path d="M0 0 C1.937 0.688 1.937 0.688 4 2 C4.75 4.625 4.75 4.625 5 7 C3.35 7 1.7 7 0 7 C0 4.69 0 2.38 0 0 Z" fill="#10B6E8" transform="translate(0,39)"/>
<path d="M0 0 C1.65 0 3.3 0 5 0 C4.67 0.99 4.34 1.98 4 3 C3.01 3 2.02 3 1 3 C0.67 2.01 0.34 1.02 0 0 Z" fill="#0E91D0" transform="translate(82,46)"/>
</svg>
