<?xml version="1.0" encoding="UTF-8"?>
<svg id="Layer_1" xmlns="http://www.w3.org/2000/svg" version="1.1" viewBox="0 0 128 128">
  <!-- Generator: Adobe Illustrator 29.3.0, SVG Export Plug-In . SVG Version: 2.1.0 Build 146)  -->
  <defs>
    <style>
      .st0 {
        fill: #9cadff;
      }

      .st1 {
        fill: #0433ff;
      }

      .st2 {
        fill: #f5f3e6;
      }

      .st3 {
        fill: #0c0d1d;
      }

      .st4 {
        fill: #f10;
      }
    </style>
  </defs>
  <path class="st3" d="M29.5,54.6s0-.1,0-.1c1.4-5.5,11.8-11.2,16.7-13.8,14.7-7,30.5-11.3,46.3-14.7,3.6-.8,7.3-1.5,11-2.1,6.7-1.5,3.2-9.7-2.9-7.6-6.5,1.1-12.9,2.5-19.3,4-14.8,3.7-29.6,8.1-43.1,15.4-6.9,3.9-15.6,9.2-17.5,17.4,0,.4-.2.9-.1,1.4v1c0,.3,0,.7.1,1,3.6,15.9,45.5,20.9,59.6,22.3,6.6.8,13.3,1.1,19.9,1.5,2,.6,3.1-2,.8-2.3-1,0-2-.2-3.1-.3,0,0-.2,0-.2,0,0,0-.2,0-.2,0,0,0-.2,0-.3,0-17-1.6-34.2-4-50.4-9.8-3.8-1.3-7.5-2.9-10.9-5.1-2.2-1.4-4.4-2.9-5.9-5.1-.2-.3-.3-.6-.5-.9,0,0,0,0,0,0,0-.1,0-.3-.1-.4,0,0,0-.1,0-.2v-1.2c0,0,0-.1,0-.2Z"/>
  <path class="st1" d="M29.5,62.6s0-.1,0-.1c1.4-5.5,11.8-11.2,16.7-13.8,14.7-7,30.5-11.3,46.3-14.7,3.6-.8,7.3-1.5,11-2.1,6.7-1.5,3.2-9.7-2.9-7.6-6.5,1.1-12.9,2.5-19.3,4-14.8,3.7-29.6,8.1-43.1,15.4-6.9,3.9-15.6,9.2-17.5,17.4,0,.4-.2.9-.1,1.4v1c0,.3,0,.7.1,1,3.6,15.9,45.5,20.9,59.6,22.3,6.6.8,13.3,1.1,19.9,1.5,2,.6,3.1-2,.8-2.3-1,0-2-.2-3.1-.3,0,0-.2,0-.2,0,0,0-.2,0-.2,0,0,0-.2,0-.3,0-17-1.6-34.2-4-50.4-9.8-3.8-1.3-7.5-2.9-10.9-5.1-2.2-1.4-4.4-2.9-5.9-5.1-.2-.3-.3-.6-.5-.9,0,0,0,0,0,0,0-.1,0-.3-.1-.4,0,0,0-.1,0-.2v-1.2c0,0,0-.1,0-.2Z"/>
  <path class="st0" d="M29.5,70.5s0-.1,0-.1c1.4-5.5,11.8-11.2,16.7-13.8,14.7-7,30.5-11.3,46.3-14.7,3.6-.8,7.3-1.5,11-2.1,6.7-1.5,3.2-9.7-2.9-7.6-6.5,1.1-12.9,2.5-19.3,4-14.8,3.7-29.6,8.1-43.1,15.4-6.9,3.9-15.6,9.2-17.5,17.4,0,.4-.2.9-.1,1.4v1c0,.3,0,.7.1,1,3.6,15.9,45.5,20.9,59.6,22.3,6.6.8,13.3,1.1,19.9,1.5,2,.6,3.1-2,.8-2.3-1,0-2-.2-3.1-.3,0,0-.2,0-.2,0,0,0-.2,0-.2,0,0,0-.2,0-.3,0-17-1.6-34.2-4-50.4-9.8-3.8-1.3-7.5-2.9-10.9-5.1-2.2-1.4-4.4-2.9-5.9-5.1-.2-.3-.3-.6-.5-.9,0,0,0,0,0,0,0-.1,0-.3-.1-.4,0,0,0-.1,0-.2v-1.2c0,0,0-.1,0-.2Z"/>
  <path class="st2" d="M29.5,78.4s0-.1,0-.1c1.4-5.5,11.8-11.2,16.7-13.8,14.7-7,30.5-11.3,46.3-14.7,3.6-.8,7.3-1.5,11-2.1,6.7-1.5,3.2-9.7-2.9-7.6-6.5,1.1-12.9,2.5-19.3,4-14.8,3.7-29.6,8.1-43.1,15.4-6.9,3.9-15.6,9.2-17.5,17.4,0,.4-.2.9-.1,1.4v1c0,.3,0,.7.1,1,3.6,15.9,45.5,20.9,59.6,22.3,6.6.7,13.2,1.1,19.7,1.5.3,0,.6,0,.9,0,1.7,0,1.7-2.4,0-2.4-1,0-2-.2-3.1-.3,0,0-.2,0-.2,0,0,0-.2,0-.2,0,0,0-.2,0-.3,0-17-1.6-34.2-4-50.4-9.8-3.8-1.3-7.5-2.9-10.9-5.1-2.2-1.4-4.4-2.9-5.9-5.1-.2-.3-.3-.6-.5-.9,0,0,0,0,0,0,0-.1,0-.3-.1-.4,0,0,0-.1,0-.2v-1.2c0,0,0-.1,0-.2Z"/>
  <path class="st4" d="M29.5,86.4s0-.1,0-.1c1.4-5.5,11.8-11.2,16.7-13.8,14.7-7,30.5-11.3,46.3-14.7,3.6-.8,7.3-1.5,11-2.1,6.7-1.5,3.2-9.7-2.9-7.6-6.5,1.1-12.9,2.5-19.3,4-14.8,3.7-29.6,8.1-43.1,15.4-6.9,3.9-15.6,9.2-17.5,17.4,0,.4-.2.9-.1,1.4v1c0,.3,0,.7.1,1,3.6,15.9,45.5,20.9,59.6,22.3,6.6.7,13.2,1.1,19.7,1.5.3,0,.6,0,.9,0,1.7,0,1.7-2.4,0-2.4-1,0-2-.2-3.1-.3,0,0-.2,0-.2,0,0,0-.2,0-.2,0,0,0-.2,0-.3,0-17-1.6-34.2-4-50.4-9.8-3.8-1.3-7.5-2.9-10.9-5.1-2.2-1.4-4.4-2.9-5.9-5.1-.2-.3-.3-.6-.5-.9,0,0,0,0,0,0,0-.1,0-.3-.1-.4,0,0,0-.1,0-.2v-1.2c0,0,0-.1,0-.2Z"/>
</svg>
