<svg width="60" height="60" xmlns="http://www.w3.org/2000/svg"><path d="M55.06 10H40.51a10.72 10.72 0 00-10.46 8.36A10.72 10.72 0 0019.59 10H5.05a5 5 0 00-5 5v25.6a5 5 0 005 5h9.34c10.64 0 13.82 2.56 15.34 7.83a.28.28 0 00.28.21h.06a.28.28 0 00.28-.21c1.53-5.27 4.71-7.83 15.34-7.83h9.34a5 5 0 005-5V15a5 5 0 00-4.97-5zM25.25 37.63a.36.36 0 01-.36.36H8.19a.36.36 0 01-.36-.36v-2.38a.36.36 0 01.36-.36h16.7a.36.36 0 01.36.36v2.38zm0-6.34a.36.36 0 01-.36.36H8.19a.36.36 0 01-.36-.36v-2.38a.36.36 0 01.36-.36h16.7a.36.36 0 01.36.36v2.38zm0-6.34a.36.36 0 01-.36.36H8.19a.36.36 0 01-.36-.36v-2.38a.36.36 0 01.36-.36h16.7a.36.36 0 01.36.36v2.38zm27 12.67a.36.36 0 01-.36.36h-16.7a.36.36 0 01-.36-.36v-2.38a.36.36 0 01.36-.36h16.7a.36.36 0 01.36.36v2.38zm0-6.34a.36.36 0 01-.36.36h-16.7a.36.36 0 01-.36-.36V28.9a.36.36 0 01.36-.36h16.7a.36.36 0 01.36.36v2.38zm0-6.34a.36.36 0 01-.36.36h-16.7a.36.36 0 01-.36-.36v-2.37a.36.36 0 01.36-.36h16.7a.36.36 0 01.36.36v2.38-.01z" fill="#048EF5" fill-rule="nonzero"/></svg>
