<svg width="1024" height="1024" viewBox="0 0 1024 1024" fill="none" xmlns="http://www.w3.org/2000/svg">
<g clip-path="url(#clip0)">
<path d="M656 0H368C239.188 0 174.782 0 125.582 25.0685C82.3049 47.1194 47.1194 82.3049 25.0685 125.582C0 174.782 0 239.188 0 368V656C0 784.812 0 849.218 25.0685 898.418C47.1194 941.695 82.3049 976.881 125.582 998.932C174.782 1024 239.188 1024 368 1024H656C784.812 1024 849.218 1024 898.418 998.932C941.695 976.881 976.881 941.695 998.932 898.418C1024 849.218 1024 784.812 1024 656V368C1024 239.188 1024 174.782 998.932 125.582C976.881 82.3049 941.695 47.1194 898.418 25.0685C849.218 0 784.812 0 656 0Z" fill="#EF3124"/>
<path fill-rule="evenodd" clip-rule="evenodd" d="M312 810H713V730H312V810Z" fill="white"/>
<path fill-rule="evenodd" clip-rule="evenodd" d="M457.918 465.334L511.997 304.6H513.998L565.076 465.334H457.918ZM583.078 274.929C572.087 242.144 559.417 216.248 516.002 216.248C472.586 216.248 459.104 242.038 447.53 274.929L328.23 614.001H407.344L434.884 534.001H587.107L612.644 614.001H696.765L583.078 274.929Z" fill="white"/>
</g>
<defs>
<clipPath id="clip0">
<rect width="1024" height="1024" fill="white"/>
</clipPath>
</defs>
</svg>
