<?xml version="1.0" encoding="UTF-8" standalone="no"?>
<!-- Created with Inkscape (http://www.inkscape.org/) -->

<svg
   xmlns:dc="http://purl.org/dc/elements/1.1/"
   xmlns:cc="http://creativecommons.org/ns#"
   xmlns:rdf="http://www.w3.org/1999/02/22-rdf-syntax-ns#"
   xmlns:svg="http://www.w3.org/2000/svg"
   xmlns="http://www.w3.org/2000/svg"
   xmlns:sodipodi="http://sodipodi.sourceforge.net/DTD/sodipodi-0.dtd"
   xmlns:inkscape="http://www.inkscape.org/namespaces/inkscape"
   width="8.6484575mm"
   height="8.7753468mm"
   viewBox="0 0 8.6484575 8.7753468"
   version="1.1"
   id="svg3725"
   inkscape:version="0.92.3 (2405546, 2018-03-11)"
   sodipodi:docname="logo-padding.svg">
  <defs
     id="defs3719" />
  <sodipodi:namedview
     id="base"
     pagecolor="#ffffff"
     bordercolor="#666666"
     borderopacity="1.0"
     inkscape:pageopacity="0.0"
     inkscape:pageshadow="2"
     inkscape:zoom="22.4"
     inkscape:cx="3.0649944"
     inkscape:cy="15.154751"
     inkscape:document-units="mm"
     inkscape:current-layer="layer1"
     showgrid="false"
     fit-margin-top="1"
     fit-margin-left="1"
     fit-margin-right="1"
     fit-margin-bottom="1"
     inkscape:window-width="1849"
     inkscape:window-height="1015"
     inkscape:window-x="71"
     inkscape:window-y="31"
     inkscape:window-maximized="1" />
  <metadata
     id="metadata3722">
    <rdf:RDF>
      <cc:Work
         rdf:about="">
        <dc:format>image/svg+xml</dc:format>
        <dc:type
           rdf:resource="http://purl.org/dc/dcmitype/StillImage" />
        <dc:title></dc:title>
      </cc:Work>
    </rdf:RDF>
  </metadata>
  <g
     inkscape:label="Layer 1"
     inkscape:groupmode="layer"
     id="layer1"
     transform="translate(-62.263027,-123.279)">
    <g
       id="g3833"
       transform="translate(0.06344648,2.8798324e-6)">
      <g
         transform="matrix(0.35277777,0,0,-0.35277777,66.198905,125.1572)"
         id="g204">
        <path
           inkscape:connector-curvature="0"
           id="path206"
           style="fill:#59a745;fill-opacity:1;fill-rule:evenodd;stroke:none"
           d="m 0,0 c 0,0.131 -0.104,0.232 -0.235,0.232 -0.135,0 -0.237,-0.103 -0.236,-0.238 0.001,-0.131 0.104,-0.232 0.236,-0.232 C -0.101,-0.238 0,-0.136 0,0 m 4.431,-2.346 c 0.001,0.133 -0.1,0.237 -0.229,0.238 C 4.065,-2.106 3.96,-2.207 3.96,-2.34 c 0,-0.133 0.1,-0.237 0.229,-0.239 0.137,-10e-4 0.242,0.1 0.242,0.233 m 4.902,-4.013 c 0.132,0 0.234,0.102 0.235,0.232 0.001,0.136 -0.101,0.239 -0.235,0.239 -0.132,0 -0.235,-0.101 -0.236,-0.232 0,-0.136 0.101,-0.239 0.236,-0.239 M 7.94,-2.191 C 7.807,-2.189 7.7,-2.289 7.699,-2.417 7.697,-2.554 7.796,-2.66 7.928,-2.662 8.062,-2.663 8.167,-2.564 8.169,-2.436 8.172,-2.298 8.072,-2.192 7.94,-2.191 M -5.195,-12.493 c -0.131,-10e-4 -0.233,-0.103 -0.233,-0.234 -0.001,-0.135 0.102,-0.237 0.238,-0.237 0.131,0.001 0.232,0.103 0.232,0.235 0.001,0.135 -0.101,0.237 -0.237,0.236 m 11.98,4.831 c 0,0.132 -0.101,0.236 -0.231,0.237 -0.136,10e-4 -0.24,-0.1 -0.24,-0.234 -0.001,-0.132 0.101,-0.236 0.231,-0.237 0.136,-0.001 0.239,0.1 0.24,0.234 m 1.142,-2.435 c -0.159,0 -0.283,-0.124 -0.283,-0.282 0,-0.161 0.122,-0.286 0.28,-0.286 0.163,-0.001 0.287,0.123 0.287,0.286 0,0.158 -0.125,0.282 -0.284,0.282 m -1.654,1.406 c -10e-4,-0.16 0.123,-0.284 0.281,-0.285 0.16,0 0.285,0.122 0.286,0.28 0.001,0.164 -0.122,0.288 -0.284,0.288 -0.159,0 -0.283,-0.124 -0.283,-0.283 m 3.35,1.534 c 0.001,0.16 -0.123,0.285 -0.28,0.286 -0.16,0 -0.287,-0.122 -0.287,-0.278 -10e-4,-0.165 0.121,-0.29 0.283,-0.29 0.16,0 0.284,0.124 0.284,0.282 m -9.29,-5.37 c -0.001,0.159 -0.125,0.283 -0.284,0.283 -0.159,10e-4 -0.284,-0.123 -0.284,-0.281 -0.001,-0.163 0.123,-0.287 0.286,-0.287 0.157,10e-4 0.282,0.126 0.282,0.285 m 7.607,8.785 c 0.16,0 0.285,0.123 0.285,0.281 0,0.161 -0.122,0.287 -0.279,0.287 -0.164,10e-4 -0.289,-0.122 -0.289,-0.284 0,-0.159 0.124,-0.284 0.283,-0.284 m -4.819,1.718 c 0.16,-10e-4 0.285,0.122 0.285,0.28 10e-4,0.161 -0.121,0.286 -0.279,0.287 -0.164,0.001 -0.288,-0.122 -0.288,-0.284 0,-0.159 0.123,-0.283 0.282,-0.283 M 2.293,-13.573 c -0.159,0 -0.285,-0.123 -0.286,-0.281 0,-0.16 0.122,-0.286 0.279,-0.287 0.165,-10e-4 0.289,0.122 0.289,0.284 0,0.159 -0.123,0.284 -0.282,0.284 M -1.38,-0.571 c 0.16,0 0.285,0.123 0.286,0.28 0,0.162 -0.121,0.288 -0.279,0.288 -0.164,0.001 -0.289,-0.122 -0.289,-0.284 0,-0.159 0.124,-0.283 0.282,-0.284 m -4.824,-11.263 c 0,-0.16 0.124,-0.285 0.282,-0.285 0.16,-10e-4 0.286,0.122 0.286,0.279 0.001,0.164 -0.122,0.289 -0.284,0.289 -0.159,0 -0.284,-0.125 -0.284,-0.283 m 7.305,-2.5 c 0.189,0 0.335,0.149 0.34,0.337 0.005,0.186 -0.167,0.346 -0.337,0.342 -0.193,-0.004 -0.343,-0.15 -0.343,-0.342 0,-0.188 0.151,-0.337 0.34,-0.337 m 6.825,9.388 c 0.173,-0.011 0.345,0.154 0.342,0.336 -0.004,0.19 -0.15,0.342 -0.336,0.342 -0.194,0 -0.344,-0.148 -0.344,-0.34 0,-0.188 0.15,-0.338 0.338,-0.338 M 9.321,-8.643 C 9.497,-8.656 9.664,-8.489 9.667,-8.311 9.67,-8.121 9.5,-7.967 9.334,-7.963 9.152,-7.958 8.982,-8.122 8.986,-8.301 8.989,-8.49 9.135,-8.643 9.321,-8.643 M 6.542,-10.18 c 0.189,0 0.34,0.149 0.34,0.336 0,0.19 -0.149,0.342 -0.336,0.342 -0.193,0 -0.343,-0.148 -0.343,-0.34 0,-0.188 0.151,-0.338 0.339,-0.338 m -13.155,-0.194 c -0.188,0 -0.335,-0.15 -0.34,-0.338 -0.004,-0.184 0.166,-0.345 0.338,-0.342 0.193,0.004 0.339,0.15 0.343,0.343 0.004,0.181 -0.167,0.347 -0.341,0.337 m 8.392,8.682 c 0.189,0 0.336,0.149 0.341,0.337 0.005,0.186 -0.168,0.346 -0.337,0.342 C 1.589,-1.017 1.44,-1.162 1.44,-1.354 c 0,-0.188 0.15,-0.338 0.339,-0.338 m -3.967,0.883 c 0,0.187 -0.152,0.335 -0.341,0.335 -0.188,0 -0.334,-0.151 -0.338,-0.339 -0.005,-0.182 0.166,-0.347 0.346,-0.34 0.185,0.006 0.333,0.153 0.333,0.344 M 7.928,-11.316 c -0.189,0 -0.336,-0.149 -0.342,-0.336 -0.004,-0.185 0.166,-0.347 0.337,-0.344 0.194,0.004 0.344,0.15 0.344,0.342 0,0.188 -0.15,0.338 -0.339,0.338 m -8.773,-0.852 c 0.001,0.189 -0.15,0.34 -0.336,0.34 -0.191,0 -0.341,-0.149 -0.342,-0.335 0,-0.194 0.148,-0.344 0.34,-0.344 0.188,0 0.338,0.15 0.338,0.339 m 0.583,-3.45 c 0,0.003 0.001,0.006 0.002,0.01 0.009,0 0.018,0 0.027,0 0.151,-0.011 0.311,0.108 0.342,0.284 0.031,0.17 -0.076,0.333 -0.249,0.38 -0.074,0.021 -0.152,0.031 -0.228,0.041 -0.301,0.041 -0.6,0.098 -0.891,0.189 -0.205,0.063 -0.408,0.134 -0.614,0.193 -0.197,0.055 -0.407,-0.115 -0.413,-0.319 -0.005,-0.155 0.098,-0.293 0.275,-0.355 0.409,-0.143 0.825,-0.256 1.25,-0.34 0.166,-0.032 0.333,-0.055 0.499,-0.083 M 1.685,0.394 C 1.685,0.391 1.684,0.39 1.684,0.387 1.654,0.385 1.623,0.386 1.595,0.378 1.418,0.332 1.318,0.19 1.329,0.008 1.338,-0.141 1.49,-0.288 1.653,-0.308 c 0.113,-0.013 0.226,-0.027 0.34,-0.041 0.3,-0.036 0.593,-0.105 0.88,-0.201 0.195,-0.066 0.387,-0.14 0.582,-0.201 0.138,-0.043 0.284,0.012 0.362,0.13 0.079,0.12 0.085,0.246 0.011,0.373 -0.063,0.105 -0.17,0.147 -0.275,0.189 C 3.147,0.102 2.727,0.216 2.3,0.299 2.097,0.338 1.89,0.362 1.685,0.394 m 5.903,-8.076 v -1.557 c 0,-0.192 0.15,-0.345 0.339,-0.346 0.2,0 0.353,0.148 0.353,0.347 0,1.038 0.001,2.076 0,3.114 0,0.196 -0.152,0.347 -0.347,0.347 -0.195,0 -0.345,-0.152 -0.345,-0.348 z m -7.989,-6.537 c 0.235,-0.015 0.396,0.12 0.414,0.292 0.02,0.195 -0.11,0.353 -0.3,0.383 -0.108,0.017 -0.215,0.037 -0.321,0.063 -0.501,0.121 -0.981,0.302 -1.442,0.531 -0.54,0.268 -1.04,0.593 -1.484,1.003 -0.049,0.045 -0.11,0.079 -0.17,0.107 -0.147,0.064 -0.322,0.008 -0.409,-0.125 -0.089,-0.137 -0.073,-0.311 0.043,-0.425 0.057,-0.057 0.116,-0.111 0.177,-0.164 0.346,-0.304 0.722,-0.567 1.12,-0.797 0.62,-0.358 1.278,-0.62 1.974,-0.786 0.154,-0.037 0.31,-0.064 0.398,-0.082 m 10.745,-1.459 c -0.022,-0.039 -0.04,-0.081 -0.065,-0.118 -0.081,-0.121 -0.227,-0.171 -0.37,-0.131 -0.135,0.038 -0.239,0.17 -0.244,0.31 0,0.019 0,0.037 0,0.055 v 5.671 c 0,0.187 -0.126,0.34 -0.298,0.361 C 9.185,-9.508 9.027,-9.617 8.98,-9.801 8.973,-9.827 8.973,-9.856 8.973,-9.883 c 0,-1.323 0,-2.645 -0.001,-3.967 0,-0.183 -0.102,-0.321 -0.265,-0.36 -0.219,-0.052 -0.425,0.107 -0.426,0.333 -0.002,0.307 0,0.613 -0.001,0.92 0,0.202 -0.15,0.351 -0.348,0.354 -0.186,0.003 -0.352,-0.165 -0.346,-0.355 0.005,-0.122 0.009,-0.247 -0.015,-0.365 -0.041,-0.201 -0.229,-0.281 -0.365,-0.261 -0.19,0.026 -0.308,0.16 -0.309,0.353 -0.004,0.722 -0.001,1.444 -0.002,2.167 0,0.183 -0.124,0.333 -0.294,0.357 -0.183,0.026 -0.347,-0.089 -0.393,-0.274 -0.005,-0.025 -0.005,-0.05 -0.005,-0.076 0,-1.02 0,-2.04 0,-3.06 0,-0.181 -0.105,-0.311 -0.269,-0.358 -0.172,-0.049 -0.409,0.076 -0.423,0.324 -0.001,0.019 0,0.037 0,0.056 0,2.418 0.004,4.837 -0.003,7.255 -0.001,0.722 -0.19,1.404 -0.528,2.042 -0.25,0.474 -0.574,0.892 -0.971,1.254 -0.595,0.542 -1.285,0.903 -2.068,1.085 -0.23,0.054 -0.468,0.076 -0.703,0.101 -0.153,0.016 -0.309,0.018 -0.463,0.014 -0.582,-0.015 -1.142,-0.138 -1.677,-0.367 -0.407,-0.173 -0.783,-0.4 -1.122,-0.683 -0.754,-0.63 -1.265,-1.419 -1.52,-2.37 -0.076,-0.282 -0.133,-0.569 -0.139,-0.862 -0.005,-0.247 -0.019,-0.495 0.003,-0.739 0.076,-0.835 0.36,-1.597 0.851,-2.277 0.485,-0.669 1.105,-1.173 1.859,-1.511 0.374,-0.169 0.763,-0.291 1.172,-0.342 0.231,-0.028 0.465,-0.048 0.698,-0.054 0.523,-0.014 1.001,-0.153 1.425,-0.463 0.402,-0.294 0.69,-0.676 0.858,-1.145 0.071,-0.2 0.111,-0.406 0.128,-0.619 0.052,-0.646 -0.131,-1.22 -0.536,-1.72 -0.355,-0.439 -0.816,-0.713 -1.37,-0.833 -0.279,-0.061 -0.561,-0.066 -0.843,-0.046 -0.311,0.021 -0.622,0.039 -0.93,0.078 -0.487,0.061 -0.966,0.169 -1.438,0.31 -1.183,0.354 -2.256,0.918 -3.213,1.696 -1.55,1.263 -2.606,2.856 -3.156,4.781 -0.073,0.253 -0.132,0.51 -0.183,0.769 -0.04,0.202 0.059,0.389 0.267,0.434 0.172,0.036 0.348,-0.072 0.393,-0.246 0.091,-0.36 0.181,-0.719 0.279,-1.078 0.039,-0.146 0.18,-0.269 0.358,-0.26 0.14,0.008 0.274,0.111 0.308,0.266 0.013,0.066 0.007,0.144 -0.015,0.208 -0.127,0.375 -0.222,0.757 -0.277,1.148 -0.033,0.232 -0.057,0.465 -0.071,0.697 -0.017,0.29 -0.02,0.58 -0.029,0.871 -0.005,0.171 0.116,0.316 0.271,0.347 0.166,0.032 0.344,-0.065 0.391,-0.231 0.011,-0.039 0.015,-0.081 0.016,-0.121 0.006,-0.261 -0.002,-0.522 0.017,-0.781 0.052,-0.717 0.201,-1.413 0.46,-2.084 0.08,-0.205 0.17,-0.406 0.258,-0.607 0.068,-0.155 0.259,-0.236 0.42,-0.181 0.166,0.056 0.271,0.236 0.218,0.403 -0.056,0.173 -0.138,0.338 -0.201,0.51 -0.076,0.208 -0.153,0.416 -0.215,0.629 -0.049,0.166 0.047,0.327 0.21,0.386 0.162,0.059 0.339,-0.004 0.41,-0.162 0.07,-0.154 0.121,-0.316 0.18,-0.475 0.213,-0.573 0.513,-1.097 0.889,-1.579 0.351,-0.452 0.763,-0.84 1.223,-1.178 0.132,-0.096 0.329,-0.087 0.461,0.068 0.103,0.12 0.103,0.327 -0.013,0.437 -0.136,0.127 -0.285,0.239 -0.42,0.365 -0.174,0.162 -0.35,0.321 -0.506,0.498 -0.164,0.187 -0.318,0.386 -0.455,0.594 -0.344,0.518 -0.591,1.084 -0.743,1.687 -0.057,0.229 -0.078,0.468 -0.1,0.704 -0.02,0.218 -0.029,0.437 -0.027,0.656 0.006,0.968 0.295,1.854 0.797,2.675 0.187,0.305 0.411,0.578 0.654,0.839 0.677,0.728 1.504,1.205 2.45,1.483 0.202,0.059 0.413,0.09 0.621,0.126 0.305,0.053 0.417,0.329 0.28,0.54 -0.083,0.128 -0.212,0.179 -0.356,0.15 -0.302,-0.06 -0.607,-0.121 -0.902,-0.207 -0.684,-0.2 -1.306,-0.528 -1.873,-0.96 -0.299,-0.229 -0.574,-0.483 -0.828,-0.761 -0.045,-0.048 -0.087,-0.104 -0.14,-0.141 -0.144,-0.1 -0.343,-0.068 -0.449,0.065 -0.108,0.136 -0.098,0.328 0.024,0.454 0.165,0.169 0.327,0.338 0.493,0.505 0.065,0.064 0.139,0.119 0.207,0.182 0.101,0.095 0.167,0.211 0.138,0.354 -0.029,0.14 -0.118,0.234 -0.26,0.269 -0.132,0.033 -0.245,-0.015 -0.338,-0.104 -0.235,-0.224 -0.471,-0.447 -0.696,-0.682 -0.301,-0.315 -0.554,-0.668 -0.783,-1.039 -0.061,-0.099 -0.13,-0.188 -0.252,-0.218 -0.142,-0.035 -0.258,0.01 -0.349,0.118 -0.092,0.109 -0.102,0.259 -0.023,0.382 0.14,0.22 0.278,0.442 0.433,0.652 0.247,0.334 0.526,0.643 0.822,0.936 0.929,0.918 2.029,1.553 3.268,1.957 0.343,0.112 0.694,0.195 1.052,0.246 C -0.18,1.039 0.053,1.062 0.286,1.076 0.564,1.093 0.843,1.095 1.122,1.104 1.191,1.106 1.264,1.103 1.331,1.12 1.499,1.164 1.599,1.315 1.577,1.489 1.558,1.642 1.437,1.774 1.272,1.781 1.013,1.791 0.753,1.785 0.493,1.787 0.393,1.788 0.29,1.782 0.191,1.799 c -0.155,0.027 -0.26,0.168 -0.26,0.324 0,0.157 0.105,0.298 0.261,0.323 C 0.347,2.471 0.504,2.483 0.66,2.487 2.328,2.522 3.9,2.155 5.373,1.368 5.502,1.298 5.628,1.224 5.755,1.152 5.831,1.271 5.9,1.396 5.986,1.509 6.39,2.043 6.922,2.366 7.588,2.464 8.812,2.643 9.965,1.858 10.267,0.672 10.299,0.546 10.311,0.415 10.332,0.286 10.334,0.268 10.339,0.25 10.344,0.232 Z" />
      </g>
      <g
         transform="matrix(0.35277777,0,0,-0.35277777,63.988893,125.75473)"
         id="g208">
        <path
           inkscape:connector-curvature="0"
           id="path210"
           style="fill:#59a745;fill-opacity:1;fill-rule:evenodd;stroke:none"
           d="m 0,0 c -0.13,0.012 -0.233,0.062 -0.296,0.177 -0.062,0.112 -0.067,0.232 0.007,0.336 0.103,0.144 0.215,0.282 0.331,0.416 C 0.648,1.625 1.339,2.223 2.119,2.718 2.582,3.011 3.064,3.264 3.571,3.471 3.8,3.565 4.027,3.454 4.071,3.218 4.098,3.074 4.026,2.912 3.857,2.843 3.233,2.585 2.646,2.262 2.098,1.87 1.636,1.54 1.206,1.175 0.822,0.756 0.658,0.577 0.504,0.387 0.339,0.208 0.261,0.123 0.187,0.023 0.057,0.009 0.037,0.007 0.017,0.002 0,0" />
      </g>
      <g
         transform="matrix(0.35277777,0,0,-0.35277777,64.191283,127.24667)"
         id="g212">
        <path
           inkscape:connector-curvature="0"
           id="path214"
           style="fill:#59a745;fill-opacity:1;fill-rule:evenodd;stroke:none"
           d="M 0,0 C 0.014,0.273 0.086,0.558 0.172,0.84 0.314,1.299 0.5,1.741 0.729,2.165 0.786,2.271 0.854,2.368 0.979,2.402 1.113,2.438 1.265,2.391 1.341,2.284 1.427,2.162 1.433,2.036 1.361,1.9 1.252,1.692 1.143,1.483 1.05,1.268 0.873,0.864 0.761,0.439 0.678,0.007 0.665,-0.065 0.655,-0.143 0.621,-0.206 0.547,-0.342 0.386,-0.396 0.236,-0.351 0.1,-0.309 -0.001,-0.168 0,0" />
      </g>
      <g
         transform="matrix(0.35277777,0,0,-0.35277777,63.851064,126.94624)"
         id="g216">
        <path
           inkscape:connector-curvature="0"
           id="path218"
           style="fill:#59a745;fill-opacity:1;fill-rule:evenodd;stroke:none"
           d="M 0,0 C 0.184,0.001 0.341,-0.155 0.341,-0.339 0.341,-0.523 0.184,-0.679 0,-0.678 -0.182,-0.677 -0.335,-0.523 -0.337,-0.342 -0.339,-0.158 -0.184,0 0,0" />
      </g>
      <g
         transform="matrix(0.35277777,0,0,-0.35277777,63.318121,127.23443)"
         id="g220">
        <path
           inkscape:connector-curvature="0"
           id="path222"
           style="fill:#59a745;fill-opacity:1;fill-rule:evenodd;stroke:none"
           d="m 0,0 c 0.184,0.002 0.341,-0.153 0.342,-0.338 0.001,-0.183 -0.155,-0.34 -0.339,-0.34 -0.182,0 -0.336,0.153 -0.339,0.334 C -0.338,-0.16 -0.184,-0.001 0,0" />
      </g>
      <g
         transform="matrix(0.35277777,0,0,-0.35277777,63.318476,127.92791)"
         id="g224">
        <path
           inkscape:connector-curvature="0"
           id="path226"
           style="fill:#59a745;fill-opacity:1;fill-rule:evenodd;stroke:none"
           d="m 0,0 c -0.184,0.001 -0.339,0.159 -0.337,0.343 0.002,0.184 0.16,0.338 0.344,0.335 C 0.189,0.675 0.342,0.521 0.341,0.339 0.341,0.154 0.185,-0.001 0,0" />
      </g>
      <g
         transform="matrix(0.35277777,0,0,-0.35277777,64.406088,127.74052)"
         id="g228">
        <path
           inkscape:connector-curvature="0"
           id="path230"
           style="fill:#59a745;fill-opacity:1;fill-rule:evenodd;stroke:none"
           d="m 0,0 c -0.001,-0.184 -0.158,-0.339 -0.342,-0.337 -0.182,0.001 -0.335,0.155 -0.337,0.337 0,0.184 0.155,0.341 0.34,0.341 C -0.155,0.341 0.001,0.185 0,0" />
      </g>
      <g
         transform="matrix(0.35277777,0,0,-0.35277777,68.262514,130.74171)"
         id="g232">
        <path
           inkscape:connector-curvature="0"
           id="path234"
           style="fill:#59a745;fill-opacity:1;fill-rule:evenodd;stroke:none"
           d="M 0,0 C -0.185,0 -0.34,0.158 -0.338,0.342 -0.337,0.526 -0.179,0.681 0.005,0.679 0.187,0.676 0.339,0.521 0.34,0.34 0.34,0.156 0.184,0 0,0" />
      </g>
      <g
         transform="matrix(0.35277777,0,0,-0.35277777,69.238509,130.53156)"
         id="g236">
        <path
           inkscape:connector-curvature="0"
           id="path238"
           style="fill:#59a745;fill-opacity:1;fill-rule:evenodd;stroke:none"
           d="m 0,0 c -0.184,0.001 -0.338,0.16 -0.336,0.344 0.003,0.181 0.158,0.334 0.339,0.334 0.184,0 0.34,-0.157 0.34,-0.341 C 0.342,0.153 0.185,-0.002 0,0" />
      </g>
      <g
         transform="matrix(0.35277777,0,0,-0.35277777,68.750335,130.11641)"
         id="g240">
        <path
           inkscape:connector-curvature="0"
           id="path242"
           style="fill:#59a745;fill-opacity:1;fill-rule:evenodd;stroke:none"
           d="m 0,0 c 0.185,0.001 0.342,-0.154 0.342,-0.338 0,-0.184 -0.157,-0.341 -0.34,-0.34 -0.182,0 -0.343,0.153 -0.337,0.334 0.006,0.197 0.13,0.33 0.335,0.344" />
      </g>
      <g
         transform="matrix(0.35277777,0,0,-0.35277777,66.062134,124.44889)"
         id="g244">
        <path
           inkscape:connector-curvature="0"
           id="path246"
           style="fill:#59a745;fill-opacity:1;fill-rule:evenodd;stroke:none"
           d="m 0,0 c -0.002,-0.15 -0.138,-0.282 -0.289,-0.28 -0.149,0.003 -0.282,0.138 -0.278,0.288 0.002,0.15 0.138,0.282 0.287,0.28 C -0.129,0.286 0.002,0.15 0,0" />
      </g>
      <g
         transform="matrix(0.35277777,0,0,-0.35277777,63.487809,126.9049)"
         id="g248">
        <path
           inkscape:connector-curvature="0"
           id="path250"
           style="fill:#59a745;fill-opacity:1;fill-rule:evenodd;stroke:none"
           d="m 0,0 c -0.001,-0.151 -0.134,-0.284 -0.285,-0.283 -0.151,0.001 -0.283,0.134 -0.282,0.285 0,0.151 0.133,0.283 0.284,0.283 C -0.132,0.284 0,0.15 0,0" />
      </g>
      <g
         transform="matrix(0.35277777,0,0,-0.35277777,68.851477,130.64335)"
         id="g252">
        <path
           inkscape:connector-curvature="0"
           id="path254"
           style="fill:#59a745;fill-opacity:1;fill-rule:evenodd;stroke:none"
           d="m 0,0 c -0.003,-0.15 -0.139,-0.281 -0.289,-0.279 -0.15,0.003 -0.281,0.139 -0.279,0.289 0.003,0.151 0.139,0.282 0.289,0.279 C -0.129,0.286 0.002,0.15 0,0" />
      </g>
      <g
         transform="matrix(0.35277777,0,0,-0.35277777,64.068974,126.66219)"
         id="g256">
        <path
           inkscape:connector-curvature="0"
           id="path258"
           style="fill:#59a745;fill-opacity:1;fill-rule:evenodd;stroke:none"
           d="M 0,0 C -0.003,-0.151 -0.139,-0.282 -0.289,-0.278 -0.44,-0.275 -0.57,-0.14 -0.567,0.01 -0.564,0.161 -0.429,0.292 -0.278,0.289 -0.127,0.286 0.003,0.15 0,0" />
      </g>
      <g
         transform="matrix(0.35277777,0,0,-0.35277777,65.661837,124.43044)"
         id="g260">
        <path
           inkscape:connector-curvature="0"
           id="path262"
           style="fill:#59a745;fill-opacity:1;fill-rule:evenodd;stroke:none"
           d="M 0,0 C 0.125,0 0.236,-0.113 0.234,-0.238 0.233,-0.362 0.119,-0.473 -0.005,-0.471 -0.127,-0.468 -0.236,-0.358 -0.236,-0.236 -0.237,-0.112 -0.125,0 0,0" />
      </g>
      <g
         transform="matrix(0.35277777,0,0,-0.35277777,63.501567,126.60415)"
         id="g264">
        <path
           inkscape:connector-curvature="0"
           id="path266"
           style="fill:#59a745;fill-opacity:1;fill-rule:evenodd;stroke:none"
           d="M 0,0 C -0.125,0.001 -0.236,0.116 -0.233,0.239 -0.23,0.364 -0.116,0.475 0.008,0.471 0.13,0.467 0.238,0.356 0.238,0.235 0.237,0.109 0.125,-0.001 0,0" />
      </g>
      <g
         transform="matrix(0.35277777,0,0,-0.35277777,68.748112,131.05434)"
         id="g268">
        <path
           inkscape:connector-curvature="0"
           id="path270"
           style="fill:#59a745;fill-opacity:1;fill-rule:evenodd;stroke:none"
           d="M 0,0 C -0.125,0.001 -0.236,0.115 -0.233,0.239 -0.231,0.361 -0.122,0.47 0,0.471 0.125,0.472 0.237,0.36 0.237,0.235 0.237,0.111 0.125,-0.001 0,0" />
      </g>
    </g>
  </g>
</svg>
