<svg xmlns="http://www.w3.org/2000/svg" viewBox="0 0 32 32">
<path d="M0 0 C2.062 2 2.062 2 2.812 5.75 C2.505 10.264 0.497 12.541 -2.816 15.461 C-8.823 19.819 -15.476 22.176 -22.938 22 C-25.417 21.539 -27.554 20.862 -29.938 20 C-30.715 12.069 -30.715 12.069 -27.938 8.25 C-19.618 2.01 -10.773 -3.667 0 0 Z M-13.938 7 C-14.598 8.98 -15.258 10.96 -15.938 13 C-13.155 12.624 -11.35 12.327 -9.125 10.562 C-7.736 9.062 -7.736 9.062 -7.938 7 C-9.918 7 -11.898 7 -13.938 7 Z" fill="#53A658" transform="translate(29.9375,6)"/>
<path d="M0 0 C2.062 2 2.062 2 2.812 5.75 C2.506 10.263 0.497 12.538 -2.812 15.461 C-8.762 19.77 -14.683 21.472 -21.938 22 C-21.562 19.688 -21.562 19.688 -19.938 17 C-17.469 16.028 -14.985 15.401 -12.418 14.734 C-9.16 13.77 -7.228 12.506 -4.938 10 C-3.59 6.879 -3.59 6.879 -2.938 4 C-8.952 3.499 -12.946 4.005 -18.113 7.223 C-20.43 8.21 -21.607 7.818 -23.938 7 C-22.938 4 -22.938 4 -21.012 2.867 C-20.224 2.54 -19.436 2.212 -18.625 1.875 C-17.845 1.542 -17.065 1.21 -16.262 0.867 C-10.765 -1.184 -5.69 -1.937 0 0 Z" fill="#2473B2" transform="translate(29.9375,6)"/>
<path d="M0 0 C0.66 0.33 1.32 0.66 2 1 C1.67 3.97 1.34 6.94 1 10 C1.66 10.33 2.32 10.66 3 11 C2.67 12.65 2.34 14.3 2 16 C-0.31 15.34 -2.62 14.68 -5 14 C-5.788 5.965 -5.788 5.965 -2.5 1.938 C-1.262 0.978 -1.262 0.978 0 0 Z" fill="#57AB51" transform="translate(5,12)"/>
<path d="M0 0 C2.018 0.065 4.036 0.13 6.055 0.195 C4.564 3.991 2.298 5.806 -0.945 8.195 C-2.265 7.535 -3.585 6.875 -4.945 6.195 C-3.782 0.38 -3.782 0.38 0 0 Z" fill="#2E5588" transform="translate(9.9453125,14.8046875)"/>
<path d="M0 0 C0.33 0.66 0.66 1.32 1 2 C-1.64 2.33 -4.28 2.66 -7 3 C-6.67 2.01 -6.34 1.02 -6 0 C-3 -1 -3 -1 0 0 Z" fill="#4D9B61" transform="translate(14,13)"/>
</svg>
