<svg width="160" height="160" viewBox="0 0 160 160" fill="none" xmlns="http://www.w3.org/2000/svg">
<g clip-path="url(#clip0)">
<rect width="160" height="160" rx="6" fill="#97D700"/>
<path d="M62.647 137.447C68.1372 139.105 74.0105 139.997 80.0115 139.997C92.5242 139.997 104.271 136.172 113.847 129.541L62.647 68.5865V137.447Z" fill="white"/>
<path d="M19.9907 79.9321C19.9907 96.2545 26.5024 111.047 37.2276 121.886V37.9782C26.6301 48.8174 19.9907 63.6096 19.9907 79.9321Z" fill="white"/>
<path d="M62.6239 29.564L131.188 111.176C136.806 102.122 139.998 91.4108 139.998 79.9341C139.998 47.5442 114.334 21.1477 82.159 20H77.6902C66.582 20.3826 56.2399 23.8256 47.5576 29.4364H62.6239V29.564Z" fill="white"/>
<rect width="160" height="160" rx="6" fill="#1288C9"/>
<path fill-rule="evenodd" clip-rule="evenodd" d="M64.0277 101.34L86.521 39.473L87.264 37.5004H37.5264L30 58.0607H54.4598C53.9477 59.1238 53.4802 60.2147 53.0717 61.339C47.8869 75.5974 52.3966 91.7895 64.0277 101.34ZM83.4009 66.4027L60.252 129.997C60.3915 129.999 60.6699 130 60.6699 130C75.6723 130 89.1997 120.517 94.3298 106.404C99.5153 92.1454 95.0321 75.9533 83.4009 66.4027ZM104.508 58.0615C115.826 58.0615 124.999 48.8299 124.999 37.5012H93.9093L86.426 58.0615H104.508Z" fill="white"/>
<rect width="160" height="160" rx="6" fill="#00B557"/>
<path fill-rule="evenodd" clip-rule="evenodd" d="M25 80.3139C25 48.2483 46.562 27.5 79.9158 27.5C109.555 27.5 129.197 42.6152 133.905 67.5231L150 67.4999L145 77.4999H134.967C134.989 78.222 135 78.9504 135 79.6852C135 81.4939 134.932 83.2659 134.796 84.9997H150L145 94.9318H133.2C127.352 118.259 107.653 132.499 79.9158 132.499C45.8882 132.656 25 112.694 25 80.3139ZM101.76 67.5695L92.5 67.5829L87.5 77.4999H102.475C102.492 78.3249 102.5 79.1583 102.5 79.9995C102.5 81.6999 102.467 83.3686 102.397 84.9997H90L85 94.9318H101.404C99.1261 108.397 92.9743 117.5 80 117.5C62.8178 117.5 57.5 101.062 57.5 79.9995C57.5 58.9368 62.6493 42.6572 80 42.5C93.6292 42.5 99.7934 52.7429 101.76 67.5695Z" fill="white"/>
<rect width="160" height="160" rx="6" fill="#2CA7E3"/>
<path d="M135.726 81.8245C135.169 81.7172 134.724 81.7172 134.39 81.7172H133.945C133.723 81.7172 133.611 81.7172 133.611 81.7172H132.944C130.718 81.7172 122.929 81.7172 113.359 81.7172C109.242 81.7172 104.791 81.7172 100.34 81.7172L104.68 91.0543H113.359C119.368 91.0543 124.709 91.0543 128.381 91.0543C121.594 103.289 103.011 113.163 80.5334 113.056C66.0677 113.056 53.0485 109.085 43.924 102.86C34.7995 96.6351 29.6809 88.5859 29.6809 80C29.6809 71.4141 34.7995 63.3649 43.924 57.0328C53.0485 50.8081 66.0677 46.8371 80.5334 46.8371C93.7751 46.8371 105.793 50.1641 114.806 55.5303C117.031 56.9255 120.036 56.2816 121.482 54.0278C122.929 51.8813 122.15 48.9836 119.925 47.5884C109.131 41.2563 95.4442 37.5 80.5334 37.5C64.2873 37.5 49.3765 42.0076 38.3603 49.4129C27.3441 56.9255 20 67.6578 20 80C20 92.3422 27.3441 103.074 38.3603 110.587C49.3765 118.1 64.176 122.5 80.5334 122.5C109.353 122.393 134.168 108.655 139.954 88.0492C140.51 82.5758 135.837 81.9318 135.726 81.8245Z" fill="white"/>
<path d="M70.9575 81.8244L79.3031 62.8282L79.7482 61.8623V62.2916L79.8594 62.0769L79.9707 62.2916V61.8623L80.4158 62.8282L88.7614 81.8244C81.306 81.7171 74.7408 81.8244 70.9575 81.8244ZM86.8697 54.2423C85.8683 52.0959 83.1977 50.9153 80.4158 50.7007C80.3045 50.7007 80.082 50.7007 79.9707 50.7007H79.8594C79.8594 50.7007 79.8594 50.7007 79.7482 50.7007C79.6369 50.7007 79.4143 50.7007 79.3031 50.7007C76.5212 50.9153 73.8506 51.9886 72.8491 54.2423L58.606 83.3269L54.8226 91.1615L50.8167 99.2108C48.2574 104.362 59.4962 107.689 61.1653 103.718L66.729 91.1615H92.9898L98.4423 103.611C100.223 107.582 111.461 104.255 108.791 99.1034L86.8697 54.2423Z" fill="white"/>
</g>
<defs>
<clipPath id="clip0">
<rect width="160" height="160" fill="white"/>
</clipPath>
</defs>
</svg>
