<svg width="190" height="190" xmlns="http://www.w3.org/2000/svg" xml:space="preserve" version="1.1">

 <g>
  <path id="svg_2" fill="#FCD72B" d="m93.3,178c47.3,0 85.6,-38.3 85.6,-85.6c0,-47.3 -38.3,-85.6 -85.6,-85.6c-47.3,0 -85.6,38.3 -85.6,85.6c0,47.3 38.3,85.6 85.6,85.6z" class="st0"/>
  <path id="svg_3" fill="#FFFFFF" d="m126.3,168.8c-1.3,0 -2.5,-0.5 -3.4,-1.4c-0.9,-0.9 -1.4,-2.1 -1.4,-3.4l0,-86c0,-4.1 -1,-8.1 -3,-11.8c-2,-3.6 -4.8,-6.7 -8.2,-8.9c1.1,-1.7 1.6,-3.7 1.7,-5.7c0,-2 -0.5,-4 -1.5,-5.8c-1,-1.8 -2.4,-3.2 -4.2,-4.3c-1.7,-1 -3.7,-1.6 -5.8,-1.6l0,9.5l-0.2,0c-0.4,-2.7 -1.8,-5.1 -3.9,-6.8c-2.1,-1.7 -4.7,-2.7 -7.4,-2.7l0,13.3l-3.8,0l0,0c-5.6,0.2 -11,2.7 -14.8,6.7c-3.9,4.1 -6.1,9.5 -6.1,15.1c0,0 0,0.1 0,0.1l-12.8,8.3c0.9,5.4 3.6,10.2 7.7,13.8c4.1,3.5 8.6,5.5 14,5.5c0.2,0 0.4,0 0.6,0l-7.7,81l54.7,3.8l2.9,-7.1l54.7,-1.9l0,-9.7l-52.1,0z" class="st1"/>
  <path id="svg_4" fill="#FCD72B" d="m76.6,79.2c0,-0.7 0.3,-1.4 0.8,-1.8c0.5,-0.5 1.2,-0.8 1.8,-0.8l7.6,0c0,1.4 -0.6,2.7 -1.5,3.7c-1,1 -2.3,1.5 -3.7,1.5l-5.2,0l0.2,-2.6z" class="st0"/>
 </g>
</svg>