<?xml version="1.0" encoding="utf-8"?>
<svg version="1.1" id="Layer_1" x="0px" y="0px" width="100%" viewBox="0 0 182 84" enable-background="new 0 0 225 225" xmlns="http://www.w3.org/2000/svg">
  <g transform="matrix(1, 0, 0, 1, -34.359604, -73.15271)">
    <path fill="#606060" opacity="1.000000" stroke="none" d="M 105.389 103.588 C 102.801 100.345 100.508 97.317 97.98 94.501 C 95.417 91.645 92.448 91.507 89.998 94.536 C 84.52 101.311 79.167 108.19 73.905 115.135 C 65.662 126.015 57.58 137.017 49.336 147.896 C 46.863 151.16 42.159 151.574 38.675 149.141 C 35.712 147.072 34.772 141.911 37.254 138.446 C 43.862 129.218 50.671 120.133 57.482 111.052 C 63.907 102.486 70.848 94.277 76.821 85.411 C 85.693 72.244 103.21 74.249 111.687 85.411 C 124.123 101.783 136.215 118.416 148.478 134.92 C 151.257 138.658 154.712 139.119 158.052 135.295 C 163.678 128.857 168.814 121.982 174.001 115.173 C 182.078 104.57 190.009 93.855 198.039 83.217 C 200.599 79.825 205.481 78.886 208.464 81.089 C 212.285 83.912 213.316 88.012 210.577 91.808 C 203.075 102.205 195.359 112.448 187.708 122.738 C 182.698 129.477 177.359 135.992 172.688 142.957 C 163.126 157.213 145.823 158.423 134.256 142.429 C 124.875 129.456 115.152 116.731 105.389 103.588 Z"/>
  </g>
  <path fill="#31BA80" opacity="1.000000" stroke="none" d="M 51.875 60.376 C 56.731 57.548 60.57 58.477 64.105 62.217 C 67.159 65.448 67.994 68.962 66.255 73.018 C 64.185 77.847 60.195 79.459 55.363 78.626 C 51.519 77.963 48.518 75.881 47.502 71.661 C 46.384 67.014 47.535 63.316 51.875 60.376 Z"/>
</svg>