<svg xmlns="http://www.w3.org/2000/svg" viewBox="0 0 256 256">
<path d="M0 0 C6.2 6.472 8.105 12.721 8.438 21.582 C8.208 30.52 5.458 37.83 -1 44.145 C-9.468 50.779 -17.271 53.07 -28 52.145 C-37.889 50.488 -44.955 43.74 -51 36.145 C-52.655 34.628 -52.655 34.628 -54.375 33.457 C-54.919 33.061 -55.463 32.666 -56.023 32.258 C-60.992 29.459 -65.667 28.828 -71.312 28.77 C-72.546 28.741 -73.78 28.713 -75.051 28.684 C-83.853 29.711 -89.257 33.714 -95.062 40.145 C-100.945 46.615 -107.138 51.571 -116.152 52.453 C-125.387 52.768 -132.323 51.86 -140 46.145 C-142.534 43.708 -144.84 41.086 -147.12 38.414 C-151.559 33.264 -155.611 31.274 -162 29.145 C-172.955 28.365 -180.421 29.628 -189.066 36.402 C-191.078 38.215 -192.769 40.127 -194.5 42.207 C-199.973 48.712 -206.547 52.346 -215.051 53.398 C-223.873 53.884 -232.387 50.493 -239.211 44.988 C-246.8 37.167 -248.396 29.272 -248.266 18.75 C-247.612 9.882 -243.95 4.05 -237.492 -1.941 C-230.507 -7.306 -222.259 -9.237 -213.566 -8.707 C-202.791 -7.194 -195.661 -0.106 -189.018 7.968 C-184.758 12.977 -179.686 15.304 -173.188 15.957 C-165.172 16.517 -158.495 15.343 -152.195 10.191 C-148.825 7.049 -145.65 3.718 -142.44 0.413 C-135.997 -6.082 -129.482 -8.94 -120.375 -9.168 C-111.259 -9.057 -104.632 -6.094 -97.996 0.074 C-95.724 2.431 -93.624 4.904 -91.5 7.395 C-86.476 13.007 -83.135 14.767 -75.703 15.445 C-67.426 15.756 -60.553 14.987 -54.04 9.49 C-52.154 7.611 -50.352 5.678 -48.562 3.707 C-42.172 -2.993 -36.69 -7.245 -27.688 -9.793 C-16.358 -9.985 -8.306 -7.706 0 0 Z" fill="#1B3563" transform="translate(248,161.85546875)"/>
<path d="M0 0 C3.449 2.865 6.267 6.212 9.188 9.602 C13.335 14.155 17.512 16.692 23.773 17.117 C25.165 17.148 26.557 17.172 27.949 17.191 C28.632 17.22 29.314 17.249 30.018 17.279 C36.47 17.359 41.301 15.475 46.167 11.208 C48.083 9.308 49.932 7.363 51.762 5.379 C57.871 -1.244 64.143 -6.602 73.484 -7.395 C81.895 -7.617 88.136 -6.97 95.262 -2.121 C95.844 -1.737 96.427 -1.353 97.027 -0.957 C102.818 3.342 106.565 9.739 107.977 16.754 C109.3 26.614 107.409 34.339 101.949 42.691 C97.196 48.831 90.834 52.367 83.262 53.879 C72.791 54.887 65.736 52.968 57.262 46.879 C55.431 45.085 53.639 43.25 51.887 41.379 C45.325 34.569 38.831 30.785 29.199 30.566 C19.054 30.768 13.751 33.158 6.662 40.33 C5.381 41.667 4.119 43.021 2.877 44.395 C-3.34 51.114 -10.108 54.333 -19.262 54.914 C-28.06 54.789 -36.065 51.628 -42.488 45.629 C-49.259 38.441 -51.129 30.7 -51.012 21.043 C-50.262 12.371 -46.076 5.675 -39.738 -0.121 C-27.21 -9.988 -12.723 -8.86 0 0 Z" fill="#89BED9" transform="translate(98.73828125,103.12109375)"/>
<path d="M0 0 C7.713 6.204 12.97 13.26 14.254 23.266 C14.631 32.765 12.178 39.883 6.125 47.188 C-0.74 54.343 -8.299 56.663 -18.125 57.312 C-26.278 57.056 -32.921 53.455 -39.125 48.312 C-45.833 40.6 -47.607 32.93 -47.438 22.855 C-46.8 15.632 -44.041 9.258 -39.102 3.914 C-27.021 -5.874 -13.488 -7.283 0 0 Z" fill="#F26623" transform="translate(144.125,45.6875)"/>
</svg>
