<svg xmlns="http://www.w3.org/2000/svg" viewBox="0 0 58 54">
	<title>Angel One</title>
	<path fill="#11af4b" fill-rule="evenodd" d="M20.7866 8.68398c-.1517.25517-.1517.56951 0 .82468l26.0827 43.63024c.1442.2441.4068.392.6916.392h8.746c.6249 0 1.0095-.6805.6915-1.2167L26.2154.810714c-.1627-.27366-.5584-.27366-.7211 0L20.7866 8.68398Z"/>
	<path fill="#ff7300" fill-rule="evenodd" d="M20.487 18h4.4044c.3107 0 .503.3365.3476.6028l-2.204 3.8164-2.2004 3.8165c-.1553.2662-.54.2662-.6953 0l-2.204-3.8165-2.2041-3.8164C15.5759 18.3365 15.7682 18 16.0788 18h4.4082ZM15.2285 26.8481h4.4044c.3106 0 .5029.3366.3476.6028l-2.204 3.8165-2.2041 3.8164c-.1553.2663-.5399.2663-.6953 0l-2.204-3.8164-2.2041-3.8165c-.1553-.2662.037-.6028.3476-.6028h4.4119ZM9.93256 35.835H14.337c.3106 0 .5029.3365.3476.6028l-2.204 3.8164-2.2041 3.8164c-.1553.2663-.53994.2663-.69526 0l-2.20407-3.8164-2.20407-3.8164C5.01778 36.1715 5.21008 35.835 5.52072 35.835h4.41184ZM4.8107 45.0605h4.40445c.31064 0 .50294.3366.34762.6028l-2.20407 3.8165-2.20407 3.8164c-.15532.2663-.53993.2663-.69525 0l-2.20037-3.8164-2.2040716-3.8165C-.100382 45.3971.0919194 45.0605.40256 45.0605H4.8107ZM15.2617 45.0605h4.4044c.3106 0 .503.3366.3476.6028l-2.204 3.8165-2.2041 3.8164c-.1553.2663-.5399.2663-.6953 0l-2.2041-3.8164-2.2041-3.8165c-.1553-.2662.037-.6028.3476-.6028h4.4119ZM25.8527 45.0605h4.4044c.3107 0 .503.3366.3477.6028l-2.2041 3.8165-2.2041 3.8164c-.1553.2663-.5399.2663-.6952 0l-2.2004-3.8164-2.2041-3.8165c-.1553-.2662.037-.6028.3477-.6028h4.4081ZM36.4443 45.0605h4.4044c.3107 0 .503.3366.3476.6028l-2.204 3.8165-2.2041 3.8164c-.1553.2663-.5399.2663-.6952 0l-2.2041-3.8164-2.2041-3.8165c-.1553-.2662.037-.6028.3476-.6028h4.4119ZM20.6274 35.835h4.4044c.3107 0 .503.3365.3477.6028l-2.2041 3.8164-2.2041 3.8164c-.1553.2663-.5399.2663-.6952 0l-2.2041-3.8164-2.2041-3.8164c-.1553-.2663.037-.6028.3476-.6028h4.4119ZM30.9379 35.835h4.4044c.3106 0 .5029.3365.3476.6028l-2.204 3.8164-2.2041 3.8164c-.1553.2663-.5399.2663-.6953 0l-2.204-3.8164-2.1967-3.8164c-.1553-.2663.037-.6028.3475-.6028h4.4045ZM25.9936 26.8481h4.4044c.3107 0 .503.3366.3477.6028l-2.2041 3.8165-2.2041 3.8164c-.1553.2663-.5399.2663-.6952 0l-2.2041-3.8164-2.2041-3.8165c-.1553-.2662.037-.6028.3477-.6028h4.4118Z"/>
</svg>
