<svg xmlns="http://www.w3.org/2000/svg" viewBox="11.5 15.5 21.2 29">
  <path d="M23.2228 34.0301C23.2097 34.0301 23.1985 34.032 23.1854 34.0378C22.8412 34.1867 22.4632 34.2688 22.0665 34.2688C21.6699 34.2688 21.2919 34.1867 20.9495 34.0378C20.856 33.9977 20.7792 34.118 20.8485 34.1925C21.1572 34.519 21.5875 34.7214 22.0684 34.7214C22.5474 34.7214 22.9796 34.519 23.2883 34.1925C23.3482 34.1275 23.2977 34.0301 23.2228 34.0301Z" fill="#FED702"/>
  <path d="M32.0285 33.1554C32.0135 33.0905 31.9948 33.0275 31.9742 32.9663L27.287 19.6553C26.7519 18.1943 25.6479 17.0255 24.2371 16.4278C23.5598 16.1432 22.8431 16 22.1246 16C21.4099 16 20.6951 16.1413 20.0215 16.4259L20.014 16.4297C18.5976 17.0255 17.488 18.1981 16.9547 19.6648L12.3611 32.3476C12.1291 32.8919 12 33.4953 12 34.1275C12 35.5732 12.6736 36.8584 13.7177 37.6758C13.7907 37.7331 13.8599 37.7942 13.9235 37.863C13.9553 37.8973 13.989 37.9298 14.0227 37.9623L19.1645 42.7883C19.7109 43.3211 20.3845 43.6973 21.118 43.8768C21.7822 44.0411 22.4764 44.0411 23.1406 43.8768C23.8741 43.6954 24.5496 43.3192 25.0941 42.7883L30.2341 37.9623C30.3837 37.8152 30.5185 37.6739 30.6625 37.5039C30.6831 37.4791 30.7056 37.4543 30.728 37.4314C31.5551 36.5739 32.1314 35.4318 32.1314 34.1275C32.1332 33.7933 32.0958 33.4686 32.0285 33.1554ZM24.6039 40.2234C23.9115 40.7964 23.0284 41.1401 22.0685 41.1401C21.1086 41.1401 20.2254 40.7964 19.5331 40.2234C19.3292 40.0554 19.3292 39.7384 19.5331 39.5684C20.2254 38.9955 21.1086 38.6517 22.0685 38.6517C23.0284 38.6517 23.9115 38.9955 24.6039 39.5684C24.8059 39.7365 24.8059 40.0535 24.6039 40.2234ZM28.4715 36.4135L25.9436 38.9936C25.7321 39.2094 25.3897 39.2342 25.1577 39.0413C24.2858 38.3194 23.2061 37.9279 22.0666 37.9279C20.9271 37.9279 19.8493 38.3194 18.9755 39.0413C18.8689 39.1291 18.7416 39.1731 18.6125 39.1731C18.461 39.1731 18.3057 39.112 18.1915 38.9936L15.6637 36.4135C15.4223 36.1671 15.4298 35.7641 15.6842 35.535C17.4506 33.946 19.694 33.079 22.0685 33.079C24.4429 33.079 26.6864 33.946 28.4528 35.535C28.7054 35.7641 28.711 36.1671 28.4715 36.4135ZM28.4509 29.6128C26.6845 31.2017 24.4411 32.0688 22.0666 32.0688C19.6922 32.0688 17.4487 31.2017 15.6824 29.6128C15.4279 29.3836 15.4204 28.9788 15.6618 28.7343L18.1897 26.1542C18.4011 25.9384 18.7435 25.9136 18.9755 26.1065C19.8475 26.8284 20.9271 27.2199 22.0666 27.2199C23.2043 27.2199 24.2839 26.8284 25.1558 26.1065C25.3897 25.9136 25.7303 25.9384 25.9417 26.1542L28.4696 28.7343C28.7128 28.9788 28.7054 29.3836 28.4509 29.6128Z" fill="#FED702"/>
</svg>
