<svg width="121" height="32" viewBox="0 0 121 32" fill="none" xmlns="http://www.w3.org/2000/svg">
<path d="M9.13309 30.4398L9.88315 26.9871C10.7197 23.1362 7.77521 19.4988 3.82118 19.4988H0.385363C1.4689 24.3374 4.75127 28.3496 9.13309 30.4398Z" fill="url(#paint0_linear_428_3535)"/>
<path d="M10.64 31.0663C12.3326 31.6707 14.1567 32 16.0579 32C23.7199 32 30.1285 26.6527 31.7305 19.4988H21.249C16.5244 19.4988 12.4396 22.7824 11.44 27.3838L10.64 31.0663Z" fill="url(#paint1_linear_428_3535)"/>
<path d="M32.0038 17.8987C32.0778 17.2756 32.1159 16.6415 32.1159 15.9985C32.1159 7.60402 25.629 0.719287 17.3779 0.0503251L15.1273 10.4105C14.2907 14.2614 17.2352 17.8987 21.1892 17.8987H32.0038Z" fill="url(#paint2_linear_428_3535)"/>
<path d="M15.7459 0C7.02134 0.165717 0 7.26504 0 15.9985C0 16.6415 0.0380539 17.2756 0.112041 17.8987H3.76146C8.48603 17.8987 12.5709 14.6151 13.5705 10.0137L15.7459 0Z" fill="url(#paint3_linear_428_3535)"/>
<path fill-rule="evenodd" clip-rule="evenodd" d="M70.3554 10.8312C70.1543 10.5981 69.8861 10.3734 69.5508 10.157C69.2156 9.9406 68.8384 9.74916 68.4193 9.5827C68.0002 9.39958 67.5392 9.25809 67.0363 9.15821C66.5502 9.04168 66.0389 8.98342 65.5025 8.98342C64.1279 8.98342 63.1137 9.24144 62.46 9.75748C61.8062 10.2735 61.4793 10.981 61.4793 11.8799C61.4793 12.5125 61.647 13.0119 61.9822 13.3781C62.3175 13.7443 62.8288 14.044 63.5161 14.277C64.2201 14.5101 65.1086 14.7514 66.1814 15.0011C67.4219 15.2675 68.4947 15.5921 69.3999 15.975C70.3052 16.3578 71.0008 16.8739 71.487 17.5231C71.9731 18.1556 72.2162 19.0046 72.2162 20.07C72.2162 20.919 72.0485 21.6597 71.7133 22.2923C71.3948 22.9082 70.9422 23.4243 70.3554 23.8404C69.7687 24.2399 69.0814 24.5396 68.2936 24.7393C67.5057 24.9225 66.6508 25.014 65.7288 25.014C64.8236 25.014 63.9351 24.9225 63.0635 24.7393C62.2085 24.5396 61.3955 24.2566 60.6244 23.8904C59.8533 23.5241 59.1325 23.0664 58.462 22.517L59.5432 20.6193C59.8114 20.9023 60.155 21.1853 60.5741 21.4683C61.01 21.7346 61.4961 21.9843 62.0325 22.2174C62.5857 22.4504 63.1808 22.6419 63.8178 22.7917C64.4548 22.9249 65.1086 22.9915 65.7791 22.9915C67.0531 22.9915 68.0421 22.7667 68.7462 22.3173C69.4502 21.8512 69.8023 21.177 69.8023 20.2947C69.8023 19.6289 69.6011 19.0962 69.1988 18.6967C68.8132 18.2971 68.2349 17.9642 67.4638 17.6979C66.6927 17.4315 65.754 17.1652 64.6476 16.8988C63.4406 16.5992 62.4265 16.2746 61.6051 15.925C60.7837 15.5588 60.1634 15.0844 59.7443 14.5017C59.342 13.9191 59.1409 13.1617 59.1409 12.2295C59.1409 11.0975 59.4175 10.1404 59.9706 9.35797C60.5238 8.57558 61.2866 7.98463 62.2588 7.58511C63.2311 7.1856 64.3291 6.98584 65.5528 6.98584C66.3574 6.98584 67.1034 7.06907 67.7907 7.23554C68.4947 7.402 69.1485 7.63505 69.752 7.93469C70.3555 8.23433 70.9086 8.59223 71.4115 9.00839L70.3554 10.8312ZM82.4093 9.10828H88.5697V7.1107H73.9858V9.10828H80.1462V24.8392H82.4093V9.10828ZM103.764 22.8417V24.8392H91.6439V7.1107H103.537V9.10828H93.9069V14.8513H102.28V16.7241H93.9069V22.8417H103.764ZM107.371 24.8392V7.1107H115.015C115.803 7.1107 116.524 7.27717 117.178 7.6101C117.831 7.92638 118.401 8.35919 118.888 8.90853C119.374 9.44121 119.751 10.0488 120.019 10.7313C120.287 11.3972 120.421 12.0797 120.421 12.7788C120.421 13.5945 120.262 14.3686 119.944 15.101C119.642 15.8335 119.206 16.4577 118.636 16.9738C118.083 17.4898 117.429 17.8477 116.675 18.0475L121 24.8392H118.435L114.361 18.4719H109.634V24.8392H107.371ZM109.634 16.4744H115.04C115.661 16.4744 116.197 16.3079 116.65 15.975C117.119 15.6254 117.479 15.1676 117.731 14.6016C117.999 14.0356 118.133 13.4281 118.133 12.7788C118.133 12.113 117.982 11.5054 117.681 10.956C117.379 10.3901 116.985 9.94061 116.499 9.60768C116.013 9.27475 115.476 9.10828 114.89 9.10828H109.634V16.4744ZM49.9381 7.1107H48.0271L40.71 24.8392H43.1239L45.2109 19.6455H52.704L54.8162 24.8392H57.2301L49.9381 7.1107ZM48.9826 9.70756L52.2011 17.8976H45.6635L48.9826 9.70756Z" fill="white"/>
<defs>
<linearGradient id="paint0_linear_428_3535" x1="18.9416" y1="4.14314e-07" x2="12.6408" y2="32.0507" gradientUnits="userSpaceOnUse">
<stop stop-color="#F4D5B1"/>
<stop offset="1" stop-color="#FFD29F"/>
</linearGradient>
<linearGradient id="paint1_linear_428_3535" x1="18.9416" y1="4.14314e-07" x2="12.6408" y2="32.0507" gradientUnits="userSpaceOnUse">
<stop stop-color="#F4D5B1"/>
<stop offset="1" stop-color="#FFD29F"/>
</linearGradient>
<linearGradient id="paint2_linear_428_3535" x1="18.9416" y1="4.14314e-07" x2="12.6408" y2="32.0507" gradientUnits="userSpaceOnUse">
<stop stop-color="#F4D5B1"/>
<stop offset="1" stop-color="#FFD29F"/>
</linearGradient>
<linearGradient id="paint3_linear_428_3535" x1="18.9416" y1="4.14314e-07" x2="12.6408" y2="32.0507" gradientUnits="userSpaceOnUse">
<stop stop-color="#F4D5B1"/>
<stop offset="1" stop-color="#FFD29F"/>
</linearGradient>
</defs>
</svg>
