<svg xmlns="http://www.w3.org/2000/svg" viewBox="0 0 1080 1080">
<path d="M0 0 C1.036 -0.002 2.072 -0.003 3.139 -0.005 C6.619 -0.008 10.099 0.003 13.579 0.013 C16.113 0.014 18.647 0.014 21.181 0.013 C27.281 0.012 33.382 0.021 39.482 0.034 C46.54 0.048 53.598 0.05 60.656 0.051 C79.287 0.062 97.918 0.09 116.549 0.116 C178.98 0.177 178.98 0.177 242.674 0.241 C242.674 99.241 242.674 198.241 242.674 300.241 C256.719 299.51 256.719 299.51 270.486 297.553 C271.867 297.291 271.867 297.291 273.275 297.024 C310.497 289.648 342.589 271.07 371.674 247.241 C372.48 246.59 372.48 246.59 373.303 245.927 C383.021 238.052 391.837 229.26 400.674 220.428 C401.264 219.838 401.855 219.249 402.463 218.641 C408.751 212.352 414.938 206.044 420.674 199.241 C421.682 198.076 422.691 196.911 423.701 195.748 C429.5 189.019 435.198 182.238 440.674 175.241 C441.16 174.623 441.647 174.005 442.148 173.368 C449.425 164.125 456.535 154.779 463.486 145.289 C469.43 137.181 475.522 129.191 481.674 121.241 C482.154 120.618 482.635 119.996 483.13 119.354 C492.276 107.531 501.807 96.115 511.978 85.158 C514.64 82.277 517.25 79.355 519.861 76.428 C523.296 72.647 526.808 69.17 530.72 65.889 C532.009 64.802 533.271 63.682 534.502 62.53 C547.674 50.239 562.682 40.415 578.674 32.241 C579.318 31.899 579.963 31.557 580.628 31.204 C616.571 12.206 658.627 5.994 698.611 2.553 C699.318 2.492 700.024 2.431 700.752 2.368 C728.133 0.046 755.108 0.241 782.674 0.241 C782.674 99.241 782.674 198.241 782.674 300.241 C773.764 300.901 764.854 301.561 755.674 302.241 C703.751 309.43 658.304 331.927 620.674 368.241 C620.085 368.807 619.497 369.374 618.89 369.957 C611.276 377.327 604.16 384.841 597.674 393.241 C596.657 394.529 595.64 395.816 594.623 397.104 C555.266 447.312 532.212 507.814 519.283 569.815 C519.071 570.815 518.859 571.815 518.64 572.845 C518.264 574.645 517.906 576.449 517.571 578.257 C515.687 587.389 510.48 595.086 502.674 600.241 C496.215 603.212 490.082 603.666 483.062 603.601 C482.032 603.604 481.002 603.606 479.941 603.609 C476.497 603.614 473.054 603.597 469.611 603.581 C467.097 603.58 464.582 603.581 462.068 603.582 C456.027 603.583 449.985 603.57 443.944 603.551 C436.95 603.529 429.957 603.527 422.964 603.524 C404.513 603.509 386.062 603.467 367.611 603.428 C326.382 603.366 285.152 603.304 242.674 603.241 C242.674 503.911 242.674 404.581 242.674 302.241 C195.915 307.436 157.318 320.513 120.674 350.241 C119.721 351.001 118.768 351.762 117.787 352.545 C112.419 356.873 107.225 361.357 102.131 366.002 C100.514 367.475 98.886 368.936 97.248 370.385 C88.488 378.139 80.029 386.278 72.439 395.194 C70.279 397.698 68.039 400.12 65.799 402.553 C60.877 407.955 56.259 413.553 51.674 419.241 C50.664 420.471 49.654 421.7 48.642 422.928 C39.838 433.644 31.499 444.653 23.303 455.838 C12.475 470.607 1.414 485.181 -10.326 499.241 C-10.739 499.738 -11.152 500.236 -11.577 500.749 C-25.707 517.771 -40.683 534.788 -58.326 548.241 C-58.884 548.669 -59.442 549.098 -60.016 549.54 C-113.232 590.272 -179.14 599.331 -244.326 602.428 C-245.194 602.471 -246.061 602.514 -246.955 602.558 C-263.769 603.37 -280.462 603.241 -297.326 603.241 C-297.326 504.241 -297.326 405.241 -297.326 303.241 C-287.096 302.251 -276.866 301.261 -266.326 300.241 C-220.205 293.05 -178.084 274.085 -143.596 242.326 C-141.499 240.399 -139.363 238.533 -137.201 236.678 C-130.358 230.703 -124.175 224.182 -118.326 217.241 C-117.903 216.752 -117.48 216.264 -117.044 215.762 C-72.047 163.721 -44.033 94.001 -32.743 26.629 C-31.083 17.367 -26.924 9.762 -19.389 3.991 C-12.882 0.272 -7.318 -0.044 0 0 Z" fill="#000000" transform="translate(297.3263854980469,238.75949096679688)"/>
</svg>
