<svg xmlns="http://www.w3.org/2000/svg" viewBox="0 0 64 64">
<path d="M0 0 C1.185 -0.037 1.185 -0.037 2.395 -0.074 C7.79 -0.101 10.852 0.792 15.125 4.375 C18.854 9.518 19.264 13.804 19.25 20.062 C19.254 21.801 19.254 21.801 19.258 23.574 C19.125 26.375 19.125 26.375 18.125 27.375 C15.543 27.476 12.989 27.515 10.406 27.508 C9.247 27.509 9.247 27.509 8.064 27.511 C6.426 27.511 4.788 27.51 3.151 27.505 C0.636 27.5 -1.879 27.505 -4.395 27.512 C-5.982 27.511 -7.569 27.51 -9.156 27.508 C-9.914 27.51 -10.671 27.512 -11.451 27.514 C-16.76 27.49 -16.76 27.49 -17.875 26.375 C-19.191 10.409 -19.191 10.409 -14.359 3.758 C-10.066 -0.242 -5.594 0.009 0 0 Z M-4.875 7.375 C-5.375 10.333 -5.375 10.333 -4.875 13.375 C-3.375 15.542 -3.375 15.542 -0.875 16.375 C2.347 15.663 2.347 15.663 5.125 14.375 C6.035 11.397 6.385 9.94 5.062 7.062 C3.162 5.089 3.162 5.089 0.062 5 C-2.994 5.086 -2.994 5.086 -4.875 7.375 Z" fill="#E33E3F" transform="translate(31.875,12.625)"/>
<path d="M0 0 C5.109 -0.025 10.217 -0.043 15.326 -0.055 C17.065 -0.06 18.804 -0.067 20.544 -0.075 C23.038 -0.088 25.533 -0.093 28.027 -0.098 C28.81 -0.103 29.592 -0.108 30.398 -0.113 C32.266 -0.113 34.133 -0.062 36 0 C37.807 1.807 37.173 4.504 37.188 6.938 C37.202 8.019 37.216 9.101 37.23 10.215 C37 13 37 13 35 15 C32.514 15.187 30.142 15.256 27.656 15.23 C26.931 15.23 26.206 15.23 25.46 15.229 C23.926 15.226 22.393 15.218 20.86 15.206 C18.509 15.188 16.159 15.185 13.809 15.186 C12.32 15.181 10.832 15.175 9.344 15.168 C8.639 15.167 7.933 15.166 7.207 15.165 C2.232 15.116 2.232 15.116 0 14 C0 9.38 0 4.76 0 0 Z" fill="#E33E3F" transform="translate(14,43)"/>
<path d="M0 0 C1.268 0.046 1.268 0.046 2.562 0.094 C3.408 0.104 4.254 0.114 5.125 0.125 C7.991 0.676 9.452 1.6 11.562 3.594 C11.562 4.254 11.562 4.914 11.562 5.594 C5.623 5.594 -0.318 5.594 -6.438 5.594 C-2.438 0.594 -2.438 0.594 0 0 Z" fill="#E23E3F" transform="translate(29.4375,4.40625)"/>
</svg>
