<svg width="512" height="512" viewBox="0 0 512 512" fill="none" xmlns="http://www.w3.org/2000/svg">
<rect x="2" y="2" width="508" height="508" rx="254" fill="white"/>
<path d="M375.644 126.065C375.644 148.144 322.077 166.043 255.999 166.043C189.921 166.043 136.355 148.144 136.355 126.065C136.355 103.985 189.921 86.0862 255.999 86.0862C322.077 86.0862 375.644 103.985 375.644 126.065Z" fill="black"/>
<path d="M455.407 343.283C455.407 316.07 406.59 292.669 336.623 282.322L334.811 282.69C311.212 287.346 284.413 289.978 256 289.978C226.856 289.978 199.409 287.208 175.376 282.322C105.409 292.669 56.5918 316.07 56.5918 343.283C56.5918 380.082 145.869 409.914 256 409.914C366.13 409.914 455.407 380.082 455.407 343.283Z" fill="black"/>
<path d="M415.526 223.347C415.526 199.799 369.838 179.82 306.468 172.762L304.833 173.026C289.752 175.398 273.267 176.704 256 176.704C238.105 176.704 221.053 175.302 205.531 172.764C142.161 179.819 96.4734 199.801 96.4734 223.347C96.4734 252.786 167.895 276.652 256 276.652C344.104 276.652 415.526 252.786 415.526 223.347Z" fill="black"/>
<rect x="2" y="2" width="508" height="508" rx="254" stroke="#E5E7EB" stroke-width="4"/>
</svg>
