<?xml version="1.0" encoding="UTF-8" standalone="no" ?>
<svg xmlns="http://www.w3.org/2000/svg" xmlns:xlink="http://www.w3.org/1999/xlink" version="1.1" width="200" height="200" viewBox="0 0 200 200" xml:space="preserve">
<g transform="matrix(1.43 0 0 1.43 100 100)">
<path style="stroke: rgb(0,0,0); stroke-width: 0; fill: rgb(0,79,136); fill-rule: nonzero; opacity: 1;" transform="translate(-62.7, -321.3)" d="M 40.6 263.7 L 40.6 304.2 C 44.5 300.7 48.5 297.8 52.400000000000006 295.8 C 56.900000000000006 293.8 61.300000000000004 292.90000000000003 66.2 292.90000000000003 C 77.10000000000001 292.90000000000003 86 296.8 93.4 304.70000000000005 C 100.80000000000001 312.6 104.80000000000001 322.90000000000003 104.80000000000001 335.90000000000003 C 104.80000000000001 348.3 100.9 358.20000000000005 93.4 366.50000000000006 C 85.5 374.90000000000003 76.5 378.90000000000003 66.2 378.90000000000003 C 61.2 378.90000000000003 57.300000000000004 377.90000000000003 52.800000000000004 376.40000000000003 C 48.900000000000006 374.90000000000003 44.900000000000006 371.90000000000003 41 368.00000000000006 L 41 376.40000000000003 L 20.6 376.40000000000003 L 20.6 263.7 L 40.6 263.7 z M 61.9 312.2 C 55.5 312.2 50.099999999999994 314.2 45.599999999999994 318.59999999999997 C 41.099999999999994 322.99999999999994 39.199999999999996 328.99999999999994 39.199999999999996 335.9 C 39.199999999999996 343.29999999999995 41.199999999999996 349.29999999999995 45.599999999999994 353.7 C 49.99999999999999 358.1 54.89999999999999 360.7 61.89999999999999 360.7 C 68.3 360.7 73.3 358.2 77.8 353.7 C 82.3 349.2 84.2 343.3 84.2 336.4 C 84.2 329.4 82.2 323.59999999999997 77.8 319.09999999999997 C 73.7 314.3 68.3 312.2 61.9 312.2 z" stroke-linecap="round" />
</g>
</svg>