<?xml version="1.0" encoding="UTF-8"?>
<!DOCTYPE svg PUBLIC "-//W3C//DTD SVG 1.1//EN" "http://www.w3.org/Graphics/SVG/1.1/DTD/svg11.dtd">
<svg xmlns="http://www.w3.org/2000/svg" version="1.1" width="512px" height="512px" style="shape-rendering:geometricPrecision; text-rendering:geometricPrecision; image-rendering:optimizeQuality; fill-rule:evenodd; clip-rule:evenodd" xmlns:xlink="http://www.w3.org/1999/xlink">
<g><path style="opacity:0.994" fill="#f7b016" d="M 236.5,19.5 C 325.902,15.4582 397.068,49.1249 450,120.5C 494.272,188.679 503.272,261.345 477,338.5C 450.921,404.245 405.088,450.412 339.5,477C 254.605,505.615 176.605,492.948 105.5,439C 28.4536,369.498 3.28689,284.332 30,183.5C 65.601,87.0727 134.434,32.4061 236.5,19.5 Z"/></g>
<g><path style="opacity:0.999" fill="#fffefd" d="M 303.5,90.5 C 324.056,89.2589 343.723,92.7589 362.5,101C 385.997,116.515 395.497,138.348 391,166.5C 388.289,181.967 383.956,196.967 378,211.5C 370.697,226.958 363.197,242.291 355.5,257.5C 368.847,280.428 370.014,304.094 359,328.5C 345.942,355.557 326.109,376.057 299.5,390C 272.23,403.98 243.563,413.646 213.5,419C 235.016,405.744 256.016,391.744 276.5,377C 290.286,366.214 303.12,354.381 315,341.5C 322.153,332.863 327.486,323.197 331,312.5C 332.439,307.238 332.772,301.904 332,296.5C 329.76,290.956 325.594,288.29 319.5,288.5C 305.293,290.848 291.959,295.681 279.5,303C 244.068,325.213 206.401,342.88 166.5,356C 162.216,357.326 157.883,357.992 153.5,358C 201.606,322.903 248.272,285.903 293.5,247C 310.786,231.391 324.62,213.224 335,192.5C 338.857,184.217 340.523,175.551 340,166.5C 339.265,160.852 336.432,156.686 331.5,154C 323.5,153.333 315.5,153.333 307.5,154C 292.261,157.857 277.928,163.857 264.5,172C 197.473,214.36 146.64,271.193 112,342.5C 107.367,352.759 103.034,363.092 99,373.5C 96.6201,371.573 95.4534,369.073 95.5,366C 98.8166,338.899 105.65,312.733 116,287.5C 132.345,245.466 153.345,206.132 179,169.5C 201.443,138.864 229.943,115.698 264.5,100C 277.222,95.0948 290.222,91.9282 303.5,90.5 Z"/></g>
</svg>
