<svg viewBox="0 0 523.53 364.36" xmlns="http://www.w3.org/2000/svg"><g fill="#3c9dd0"><path d="m417.08 203c-57.7 13.67-110.17 38.3-154.94 78.09-48.25-36.36-100.73-63.72-158.93-79.09 6-72.12 70.64-146 163.9-142 89.79 3.92 145.5 78.28 149.97 143zm-162.65-86.8v-14.98h-16.17v15.42h-24.62v11.94c11.19 1.49 11.19 1.49 11.19 13.18v44c0 11.45 0 11.45-11.19 12.94v12.43h24.87v14.93h15.92v-15.16c3.73 0 7-.49 10.69.5v14.68h15.88v-16.42c12.68-3 22.88-9.2 24.62-23.13 1.74-14.42-7.21-22.13-20.89-25.62 3.23-1.74 5.72-2.73 7.71-4.22 5.72-4 9.45-9.21 9.7-16.17.5-10.45-5.47-18.65-16.66-21.89-3.73-1-5-2.73-4.73-6.46s0-7.46 0-11.19h-15.88v14.92a29.64 29.64 0 0 1 -10.44.25z"/><g fill-rule="evenodd"><path d="m262.14 320.09c50-44.27 108.43-69.39 173.35-81.58a282.71 282.71 0 0 1 46-5c4.72 0 8.7 1 12.18 4.72 8.71 9.45 17.91 18.16 26.87 27.36 1 1 2.48 2 3 4-10.94 4.48-21.64 9.2-32.58 13.68-63.42 26.61-126.84 53-190.26 79.58a17.25 17.25 0 0 1 -6.22 1.25c-21.14 0-42-.25-63.17.25-8 0-14.18-4-21.14-6.72-68.9-28.63-137.55-57.44-206.44-86.04-1.24-.5-2.74-.75-3.73-2.24 10-12.68 20.15-25.12 30.09-38.05 1.74-2 3.49-1.25 5.48-1.25 26.11 1.25 51.48 7 76.35 14.18 54.22 15.67 103.21 41.54 148.23 75.11.5-.25.99.25 1.99.75z"/><path d="m260.15 2c-12.15 12.18-24.62 24.11-36.81 36.3-1.24 1.24-3.23 1.24-4.73 1.74-73.86 19.4-118.61 67.65-138.77 140.27-1 3.73-2.49 6.22-6.47 7.46-4.23 1.5-8.21 3.24-12.69 2.74-7.21-1-11.19-5.72-13.67-11.94-6.72-15.67-13.19-31.09-19.9-46.75-3.23-7.47-6.47-14.93-9.45-22.39-4.23-10.2-.75-20.14 8.21-24.12 9.2-4 19.15.25 23.62 10.44l11.19 26.12c.5 1.24.75 3 2 4q61.92-119.78 196.22-125.87a23.12 23.12 0 0 1 1.25 2z"/><path d="m264.13 33.82c10.19-9.7 20.39-19.15 30.34-28.85 1.24-1.24 2.74-1 4.48-.74 40.29 7.71 75.85 24.87 106.19 52.23a211.82 211.82 0 0 1 49.25 65.41c.75 1.74 1.74 3.23 2.73 5.47 4.73-11.19 9.21-21.89 13.93-32.58 5-11 17.91-14.18 26.86-6.72 6.22 5 8 13.18 4.48 21.14-7 16.42-14.18 32.83-21.14 49.25q-4.49 10.44-8.95 20.89c-4.48 10.2-12.44 13.18-22.89 9.7-5.47-2-8.2-5-9.94-11-20.65-71.57-65.66-119.08-138.78-138.02a141.86 141.86 0 0 0 -17.41-3.23c-6-.75-11.69-1-17.66-1.49z"/><path d="m248.46 168.38c7.71.24 15.17-.75 22.38 1 6.72 1.49 10.45 5.47 10.7 11.69a13.88 13.88 0 0 1 -9.7 13.93c-6.47 2-13.18 1.49-19.9 1.24-2 0-3-1-3-3.23-.94-8.22-.48-16.18-.48-24.63z"/><path d="m248.46 143c0-11.94 0-11.94 11.94-11.69a64.76 64.76 0 0 1 9.7.74c5.72.75 8.95 4.48 9.45 9.95a10.7 10.7 0 0 1 -7.46 11.19c-7 2.49-14.43 1.74-21.64 1.74-2 0-2-1.49-2-3z"/></g></g></svg>