<svg width="816" height="961" viewBox="0 0 816 961" fill="none" xmlns="http://www.w3.org/2000/svg">
<path d="M407.819 961C407.819 961 815.113 767.819 815.113 545.919C815.113 373.825 815.113 262.033 815.113 89.9384C556.548 -28.5422 259.121 -28.665 0.494629 89.68C0.729156 261.86 0.519624 373.739 0.519624 545.919C0.519624 767.819 407.819 961 407.819 961Z" fill="#1647DB"/>
<path fill-rule="evenodd" clip-rule="evenodd" d="M323.468 159.505H376.023V211.628H428.577V159.505H481.132V215.982C540.77 229.029 576.607 270.6 576.607 329.884C576.607 371.549 551.561 408.926 507.89 421.793C557.341 434.66 586.24 475.1 586.24 519.829C586.24 583.845 547.906 626.962 481.132 641.041V698.188H428.577V646.051H376.023V698.188H323.468V646.051H270.914V211.628H323.468V159.505ZM492.477 334.173C492.477 299.86 466.789 279.64 422.476 279.64H353.117V388.706H426.972C468.073 388.706 492.477 368.486 492.477 334.173ZM502.111 515.54C502.111 475.1 477.064 454.88 427.614 454.88H353.117V574.974H423.118C471.927 574.974 502.111 552.304 502.111 515.54Z" fill="white"/>
</svg>
