<svg viewBox="0 0 120.98 158.84" xmlns="http://www.w3.org/2000/svg" xmlns:xlink="http://www.w3.org/1999/xlink"><linearGradient id="a" gradientUnits="userSpaceOnUse" x1="115.47" x2="70.16" y1="113.94" y2="44.41"><stop offset=".41" stop-color="#f47320"/><stop offset=".5" stop-color="#f16d21"/><stop offset=".62" stop-color="#e95c22"/><stop offset=".75" stop-color="#dc4125"/><stop offset=".81" stop-color="#d53127"/></linearGradient><path d="m7.59 37.83h22.61l-17.58 43s-9.19-.15-12-8.18a12.76 12.76 0 0 1 -.19-7.37z" fill="#d53127"/><path d="m95.28 38.75-28.75-.5 6.47-21.34a13.09 13.09 0 0 0 -12.48-16.91h-26.24l-30 107.75s-10.75 46.08 30 50.25c0 0 64.42 13.17 85.09-64.67 0 0 10.91-47.08-24.09-54.58zm-19.65 53.44s-1.15 19.88-16.15 23.37a9.72 9.72 0 0 1 -6.61-.68c-2.35-1.2-4.78-3.69-4.72-8.91a16.82 16.82 0 0 1 .72-4.45l5.54-20.69h15.12s6.85 2.23 6.1 11.36z" fill="#f47320"/><path d="m120.75 71.63c-2.75-31.63-25.47-32.88-25.47-32.88l-28.75-.5-12.35 42.83h15.08c2.77.15 7.82 4.72 6.18 12.81" fill="url(#a)"/></svg>