<?xml version="1.0" encoding="UTF-8"?>
<svg xmlns="http://www.w3.org/2000/svg" viewBox="0 0 90.58 58.08" role="img" aria-label="Bitkub">
  <g fill="#02d767">
    <path d="m24.55,24.94.06-.06c2.29-2.26,5.95-2.26,8.24.03l.06.06c2.26,2.29,2.26,5.95-.03,8.24l-.06.06c-2.29,2.26-5.95,2.26-8.24-.03l-.06-.06c-2.26-2.29-2.26-5.98.03-8.24Z"/>
    <path d="m28.98.06-6.25,6.19.03.03L6.19,22.86l-.03-.03L0,28.96l.03.03-.03.03,6.1,6.13h0l22.71,22.91s5.36-7.08.09-12.38c-3.24-3.24-11.04-11.1-16.61-16.69L28.92,12.44l8.39,8.42c7.17,7.2,12.26-.15,12.26-.15L28.98.06Z"/>
    <path d="m90.49,29.11.09-.09L61.9.24s-5.27,6.87-.27,11.9l16.96,17.02-16.58,16.52-7.8-7.83c-5.56-5.59-12.92-.54-12.92-.54l20.44,20.53,6.22-6.19h0l22.59-22.5-.06-.06Z"/>
    <path d="m57.73,25,.06-.06c2.29-2.26,5.95-2.26,8.24.03l.06.06c2.26,2.29,2.26,5.95-.03,8.24l-.06.06c-2.29,2.26-5.95,2.26-8.24-.03l-.06-.06c-2.26-2.29-2.26-5.98.03-8.24Z"/>
  </g>
</svg>
