<svg xmlns="http://www.w3.org/2000/svg" viewBox="0 0 96 96">
<path d="M0 0 C31.68 0 63.36 0 96 0 C96 31.68 96 63.36 96 96 C64.32 96 32.64 96 0 96 C0 64.32 0 32.64 0 0 Z" fill="#113E36" transform="translate(0,0)"/>
<path d="M0 0 C0.99 0.66 1.98 1.32 3 2 C3 2.66 3 3.32 3 4 C3.578 4.062 4.155 4.124 4.75 4.188 C8.062 5.383 9.184 7.016 11 10 C11.527 14.828 10.756 18.501 9 23 C9.485 23.375 9.969 23.75 10.469 24.137 C12.588 26.715 12.467 28.507 12.5 31.812 C12.531 32.83 12.562 33.847 12.594 34.895 C11.804 39.025 10.277 41.471 7 44 C3.26 45.873 -0.593 47.197 -4.562 48.5 C-5.603 48.871 -6.644 49.243 -7.717 49.625 C-15.365 52.222 -15.365 52.222 -18.265 51.209 C-20 50 -20 50 -21 48 C-20.294 47.784 -19.588 47.568 -18.86 47.345 C-15.651 46.352 -12.451 45.332 -9.25 44.312 C-8.139 43.973 -7.028 43.633 -5.883 43.283 C-4.278 42.766 -4.278 42.766 -2.641 42.238 C-1.656 41.929 -0.672 41.62 0.343 41.302 C3.594 39.709 5.053 38.031 7 35 C7.418 31.332 7.418 31.332 7 28 C6.67 27.67 6.34 27.34 6 27 C-0.101 27.177 -6.093 28.562 -12 30 C-12 32.64 -12 35.28 -12 38 C-7.71 37.01 -3.42 36.02 1 35 C1.33 32.36 1.66 29.72 2 27 C3.32 27.33 4.64 27.66 6 28 C6.494 35.411 6.494 35.411 4.31 38.014 C1.757 40.209 -0.137 40.981 -3.352 41.922 C-4.367 42.225 -5.383 42.528 -6.43 42.84 C-7.484 43.14 -8.539 43.441 -9.625 43.75 C-10.687 44.066 -11.749 44.382 -12.844 44.707 C-20.646 47 -20.646 47 -23 47 C-23 33.47 -23 19.94 -23 6 C-22.34 6 -21.68 6 -21 6 C-21 5.34 -21 4.68 -21 4 C-18.816 3.322 -16.628 2.658 -14.438 2 C-13.219 1.629 -12.001 1.258 -10.746 0.875 C-6.973 -0.006 -3.857 -0.299 0 0 Z" fill="#F4F6F6" transform="translate(53,22)"/>
<path d="M0 0 C1.98 0.99 1.98 0.99 4 2 C4 12.56 4 23.12 4 34 C9.506 32.029 9.506 32.029 15.009 30.051 C16.037 29.685 16.037 29.685 17.086 29.312 C17.788 29.061 18.489 28.81 19.212 28.551 C21 28 21 28 23 28 C23.33 25.36 23.66 22.72 24 20 C25.32 20.33 26.64 20.66 28 21 C28.494 28.411 28.494 28.411 26.312 31.014 C23.748 33.216 21.843 33.983 18.613 34.922 C17.593 35.225 16.573 35.528 15.521 35.84 C14.463 36.14 13.404 36.441 12.312 36.75 C11.242 37.066 10.171 37.382 9.068 37.707 C1.241 40 1.241 40 0 40 C0 26.8 0 13.6 0 0 Z" fill="#FAFBFB" transform="translate(31,29)"/>
<path d="M0 0 C1 1 1 1 1.312 4.812 C1.251 7.7 1.121 8.805 -0.438 11.312 C-5.709 14.784 -10.721 16 -17 16 C-17 11.71 -17 7.42 -17 3 C-4.668 -1.472 -4.668 -1.472 0 0 Z" fill="#29524B" transform="translate(58,31)"/>
<path d="M0 0 C0.99 0.66 1.98 1.32 3 2 C3 2.66 3 3.32 3 4 C0.231 4.838 -2.54 5.671 -5.312 6.5 C-6.098 6.738 -6.884 6.977 -7.693 7.223 C-8.451 7.448 -9.208 7.674 -9.988 7.906 C-10.685 8.116 -11.381 8.325 -12.099 8.541 C-14 9 -14 9 -17 9 C-17 18.9 -17 28.8 -17 39 C-13.535 38.505 -13.535 38.505 -10 38 C-12.918 39.945 -14.625 40.453 -18 41 C-18.015 40.041 -18.029 39.082 -18.044 38.094 C-18.102 34.542 -18.179 30.99 -18.262 27.438 C-18.296 25.9 -18.324 24.361 -18.346 22.823 C-18.38 20.613 -18.432 18.405 -18.488 16.195 C-18.495 15.506 -18.501 14.816 -18.508 14.105 C-18.54 11.953 -18.54 11.953 -19 9 C-19.99 8.34 -20.98 7.68 -22 7 C-22 20.2 -22 33.4 -22 47 C-22.33 47 -22.66 47 -23 47 C-23 33.47 -23 19.94 -23 6 C-22.34 6 -21.68 6 -21 6 C-21 5.34 -21 4.68 -21 4 C-18.816 3.322 -16.628 2.658 -14.438 2 C-13.219 1.629 -12.001 1.258 -10.746 0.875 C-6.973 -0.006 -3.857 -0.299 0 0 Z" fill="#587872" transform="translate(53,22)"/>
<path d="M0 0 C2 2 2 2 2.438 5.25 C1.909 9.782 0.497 12.196 -3 15 C-6.664 16.684 -10.436 17.784 -14.312 18.875 C-15.853 19.335 -15.853 19.335 -17.424 19.805 C-19.944 20.555 -22.469 21.286 -25 22 C-25.66 21.34 -26.32 20.68 -27 20 C-26.319 19.804 -25.638 19.607 -24.936 19.405 C-21.85 18.509 -18.769 17.599 -15.688 16.688 C-14.616 16.379 -13.544 16.07 -12.439 15.752 C-10.897 15.293 -10.897 15.293 -9.324 14.824 C-8.376 14.547 -7.428 14.269 -6.452 13.983 C-3.938 12.975 -2.659 12.118 -1 10 C-0.639 7.946 -0.639 7.946 -0.812 5.812 C-0.874 4.554 -0.936 3.296 -1 2 C-1.99 1.67 -2.98 1.34 -4 1 C-3.938 1.928 -3.876 2.856 -3.812 3.812 C-4 7 -4 7 -5.125 8.75 C-9.168 11.445 -13.197 12.283 -18 12 C-18 9.36 -18 6.72 -18 4 C-15.94 3.325 -13.877 2.66 -11.812 2 C-10.664 1.629 -9.515 1.258 -8.332 0.875 C-5.327 0.086 -3.073 -0.349 0 0 Z" fill="#2F5750" transform="translate(59,48)"/>
<path d="M0 0 C1.65 0.33 3.3 0.66 5 1 C5.25 6.625 5.25 6.625 3 10 C0.25 11.168 0.25 11.168 -3 12.188 C-4.072 12.532 -5.145 12.876 -6.25 13.23 C-9 14 -9 14 -11 14 C-11 12.35 -11 10.7 -11 9 C-10.29 8.769 -9.579 8.539 -8.848 8.301 C-7.929 7.975 -7.009 7.649 -6.062 7.312 C-5.146 6.999 -4.229 6.686 -3.285 6.363 C-0.735 5.187 -0.735 5.187 -0.184 2.355 C-0.123 1.578 -0.062 0.801 0 0 Z" fill="#EFF2F1" transform="translate(53,32)"/>
<path d="M0 0 C0.66 0.66 1.32 1.32 2 2 C-0.746 3.034 -3.495 4.053 -6.25 5.062 C-7.027 5.357 -7.805 5.652 -8.605 5.955 C-9.36 6.229 -10.114 6.503 -10.891 6.785 C-11.582 7.042 -12.273 7.298 -12.985 7.563 C-16.093 8.237 -18.215 7.392 -21 6 C-21 5.34 -21 4.68 -21 4 C-18.816 3.322 -16.628 2.658 -14.438 2 C-13.219 1.629 -12.001 1.258 -10.746 0.875 C-6.982 -0.004 -3.848 -0.304 0 0 Z" fill="#F2F5F4" transform="translate(53,22)"/>
<path d="M0 0 C0.33 0 0.66 0 1 0 C1 4.29 1 8.58 1 13 C-3.62 13 -8.24 13 -13 13 C-11.061 11.708 -9.083 10.473 -7.062 9.312 C-3.341 6.502 -2.065 4.129 0 0 Z" fill="#F7F8F8" transform="translate(95,83)"/>
<path d="M0 0 C4.62 0 9.24 0 14 0 C14 4.29 14 8.58 14 13 C12.38 10.84 10.773 8.667 9.25 6.438 C6.378 3.327 3.948 2.443 0 1 C0 0.67 0 0.34 0 0 Z" fill="#F6F8F8" transform="translate(82,0)"/>
<path d="M0 0 C1.628 2.17 3.246 4.348 4.812 6.562 C7.29 9.324 9.619 10.54 13 12 C13 12.33 13 12.66 13 13 C8.71 13 4.42 13 0 13 C0 8.71 0 4.42 0 0 Z" fill="#F8F9F9" transform="translate(0,83)"/>
<path d="M0 0 C4.29 0 8.58 0 13 0 C10.83 1.628 8.652 3.246 6.438 4.812 C3.676 7.29 2.46 9.619 1 13 C0.67 13 0.34 13 0 13 C0 8.71 0 4.42 0 0 Z" fill="#F8F9F9" transform="translate(0,0)"/>
</svg>
