<svg xmlns="http://www.w3.org/2000/svg" viewBox="0 0 460 460">
<path d="M0 0 C151.8 0 303.6 0 460 0 C460 151.8 460 303.6 460 460 C308.2 460 156.4 460 0 460 C0 308.2 0 156.4 0 0 Z" fill="#2D2568" transform="translate(0,0)"/>
<path d="M0 0 C0.33 33.99 0.66 67.98 1 103 C5.95 105.64 10.9 108.28 16 111 C20.5 113.938 20.5 113.938 22.582 115.375 C30.318 120.574 38.347 125.283 46.75 129.312 C53.46 132.573 59.628 136.484 65.895 140.52 C72.466 144.727 79.201 148.421 86.12 152.013 C95.071 156.714 103.72 161.636 111.91 167.578 C114.775 169.528 117.781 170.735 121 172 C127.359 174.872 133.041 178.235 138.676 182.352 C141.05 184.035 143.488 185.533 146 187 C143.349 190.074 140.185 191.677 136.625 193.562 C135.504 194.162 134.382 194.761 133.227 195.379 C129.601 197.201 126.343 198.813 122.312 199.375 C121.549 199.581 120.786 199.788 120 200 C119.563 200.934 119.563 200.934 119.117 201.887 C117.721 204.527 116.461 205.12 113.812 206.438 C110.765 208.012 108.07 209.63 105.375 211.75 C101.882 214.252 99.416 215.225 95 215 C91.433 213.337 88.275 211.17 85 209 C76.87 203.938 68.467 199.429 60.01 194.943 C53.128 191.257 46.551 187.243 40 183 C37.431 181.393 34.845 179.816 32.25 178.25 C31.643 177.877 31.036 177.505 30.41 177.121 C27.484 175.355 24.683 173.866 21.523 172.527 C17.528 170.795 14.028 168.662 10.375 166.312 C8.956 165.415 7.537 164.518 6.117 163.621 C3.62 162.033 1.126 160.441 -1.367 158.848 C-7.743 154.833 -14.203 151.359 -20.971 148.076 C-26.844 145.181 -32.267 141.795 -37.719 138.176 C-40.719 136.073 -40.719 136.073 -43.031 135.042 C-48.533 132.272 -48.533 132.272 -49.762 128.925 C-50.08 126.291 -50.138 123.757 -50.115 121.104 C-50.137 120.112 -50.159 119.119 -50.181 118.097 C-50.242 114.817 -50.243 111.541 -50.238 108.262 C-50.256 105.979 -50.276 103.696 -50.297 101.413 C-50.332 96.627 -50.335 91.842 -50.318 87.056 C-50.3 80.931 -50.378 74.811 -50.482 68.687 C-50.549 63.97 -50.555 59.256 -50.545 54.539 C-50.549 52.282 -50.573 50.025 -50.619 47.768 C-50.927 30.602 -50.927 30.602 -47.75 26.313 C-44.281 23.205 -40.304 21.711 -36 20 C-33.831 18.68 -31.816 17.234 -29.75 15.75 C-25.669 12.999 -21.708 10.797 -17.164 8.93 C-12.483 6.919 -7.897 4.467 -3.863 1.348 C-2 0 -2 0 0 0 Z" fill="#EBCD41" transform="translate(133,184)"/>
<path d="M0 0 C3.706 1.482 6.75 2.771 10 5 C10 5.66 10 6.32 10 7 C10.928 7.021 11.856 7.041 12.812 7.062 C18.669 7.889 23.203 11.782 28 15 C29.659 16.012 31.326 17.013 33 18 C34.137 18.704 34.137 18.704 35.296 19.423 C37.97 21.049 37.97 21.049 40.839 22.261 C44.103 23.878 46.449 25.385 49 28 C50.699 33.301 50.6 38.523 50.566 44.026 C50.596 45.663 50.63 47.3 50.668 48.936 C50.757 53.371 50.775 57.803 50.774 62.239 C50.778 65.949 50.814 69.658 50.848 73.368 C50.928 82.128 50.946 90.886 50.928 99.646 C50.912 108.663 51.011 117.673 51.164 126.689 C51.291 134.445 51.34 142.2 51.329 149.958 C51.324 154.585 51.348 159.206 51.451 163.832 C52.024 191.797 52.024 191.797 47.086 198.661 C42.498 202.809 37.455 205.044 31.645 206.995 C27.89 208.422 24.643 210.481 21.265 212.634 C19.042 213.975 16.834 215.011 14.438 216 C10.545 217.66 7.269 219.744 3.801 222.152 C-0.703 225.124 -5.388 227.788 -10.061 230.485 C-13.538 232.503 -16.784 234.583 -20 237 C-21.356 237.646 -22.732 238.25 -24.125 238.812 C-28.637 240.719 -32.586 243.19 -36.641 245.926 C-39.699 247.318 -40.824 247.059 -44 246 C-46.55 244.869 -49.019 243.703 -51.5 242.438 C-52.205 242.081 -52.91 241.725 -53.636 241.357 C-60.325 237.924 -66.655 234.033 -73 230 C-75.37 228.534 -77.748 227.08 -80.125 225.625 C-83.116 223.789 -86.08 221.947 -89 220 C-89 219.34 -89 218.68 -89 218 C-84.888 215.57 -80.743 213.382 -76.438 211.312 C-71.104 208.676 -66.183 205.648 -61.217 202.395 C-53.735 197.495 -46.105 192.984 -38.062 189.062 C-29.702 184.959 -21.881 179.985 -14.188 174.75 C-4.192 168 -4.192 168 0 168 C0 112.56 0 57.12 0 0 Z" fill="#ECCD41" transform="translate(328,119)"/>
<path d="M0 0 C5.71 1.603 10.658 5.039 15.477 8.418 C19.971 11.482 24.713 13.931 29.539 16.418 C41.314 22.501 52.53 29.391 63.602 36.668 C66.882 38.786 70.003 40.378 73.664 41.73 C79.304 43.895 84.439 46.239 88.602 50.73 C89.96 55.065 89.774 59.157 89.578 63.664 C89.564 64.897 89.55 66.13 89.535 67.401 C89.479 71.326 89.354 75.245 89.227 79.168 C89.171 81.834 89.131 84.5 89.09 87.166 C88.98 93.689 88.813 100.21 88.602 106.73 C84.619 106.023 82.097 104.998 78.727 102.73 C69.587 96.744 60.38 90.996 50.539 86.23 C43.149 82.632 36.452 78.24 29.602 73.73 C22.89 69.46 15.946 65.824 8.801 62.344 C5.602 60.73 5.602 60.73 2.855 58.992 C0.619 57.426 0.619 57.426 -2.148 58.23 C-5.507 59.781 -8.71 61.478 -11.918 63.316 C-14.512 64.795 -17.139 66.2 -19.773 67.605 C-24.471 70.16 -28.948 72.966 -33.438 75.867 C-40.165 80.101 -47.071 84.122 -54.215 87.609 C-59.01 89.983 -63.571 92.715 -68.148 95.48 C-69.027 96.008 -69.905 96.535 -70.81 97.078 C-76.583 100.566 -82.202 104.192 -87.695 108.109 C-90.432 109.75 -93.164 110.728 -96.159 111.795 C-100.63 113.663 -104.634 116.385 -108.711 118.98 C-109.639 119.562 -110.568 120.144 -111.524 120.744 C-115.332 123.135 -119.128 125.544 -122.895 128 C-127.631 131.084 -132.232 133.718 -137.457 135.887 C-139.907 136.952 -142.117 138.348 -144.398 139.73 C-145.058 139.73 -145.718 139.73 -146.398 139.73 C-146.883 131.959 -147.214 124.192 -147.442 116.409 C-147.537 113.767 -147.667 111.125 -147.832 108.486 C-149.132 87.14 -149.132 87.14 -144.617 81.509 C-140.167 77.865 -135.244 75.77 -129.891 73.788 C-126.39 72.303 -123.418 70.247 -120.322 68.058 C-117.771 66.297 -115.087 65.023 -112.273 63.73 C-100.442 57.97 -89.042 50.94 -78.172 43.531 C-74.92 41.42 -71.517 39.766 -68.023 38.105 C-60.032 34.213 -52.595 29.635 -45.123 24.836 C-38.492 20.584 -31.732 16.868 -24.658 13.412 C-18.308 10.267 -12.254 6.594 -6.562 2.367 C-2.914 -0.327 -2.914 -0.327 0 0 Z" fill="#EDCE41" transform="translate(230.3984375,62.26953125)"/>
<path d="M0 0 C0.33 22.77 0.66 45.54 1 69 C4.3 67.02 7.6 65.04 11 63 C21.63 58.511 33.165 60.493 43.57 64.531 C59.12 71.191 69.876 81.807 77 97 C77.286 97.603 77.571 98.206 77.865 98.828 C80.277 104.452 80.466 109.686 80.375 115.75 C80.365 116.724 80.355 117.697 80.344 118.7 C79.971 136.014 73.78 146.654 62 159 C61.362 159.736 60.724 160.472 60.066 161.23 C50.446 171.891 37.443 173.294 23.766 174.219 C17.696 174.407 12.444 173.652 6.652 171.832 C4.037 170.967 4.037 170.967 1.441 170.449 C-9.193 168.01 -16.445 159.283 -23 151 C-23.785 150.024 -23.785 150.024 -24.586 149.027 C-34.985 134.906 -34.905 118.839 -35.086 102.043 C-35.103 100.867 -35.119 99.69 -35.136 98.478 C-35.222 92.268 -35.279 86.059 -35.311 79.848 C-35.35 73.456 -35.491 67.07 -35.655 60.68 C-35.764 55.737 -35.796 50.796 -35.808 45.853 C-35.826 43.496 -35.874 41.14 -35.95 38.785 C-36.494 20.927 -36.494 20.927 -32.323 16.032 C-27.723 12.263 -22.559 9.993 -17 8 C-12.375 6.184 -8.415 3.88 -4.207 1.242 C-2 0 -2 0 0 0 Z" fill="#EBCC41" transform="translate(207,142)"/>
<path d="M0 0 C3.978 3.094 6.224 6.422 7.812 11.188 C8.452 18.847 8.768 25.954 3.812 32.188 C-0.967 37.19 -5.542 41.621 -12.652 42.488 C-20.431 42.525 -25.403 40.527 -31.188 35.188 C-36.458 28.805 -38.694 23.312 -38.492 14.965 C-37.689 7.641 -33.791 3.12 -28.188 -1.402 C-19.052 -7.843 -8.967 -5.099 0 0 Z" fill="#29235B" transform="translate(245.1875,241.8125)"/>
<path d="M0 0 C0.66 0.33 1.32 0.66 2 1 C1.34 1.66 0.68 2.32 0 3 C-0.331 5.263 -0.331 5.263 -0.319 7.909 C-0.339 8.93 -0.359 9.951 -0.379 11.002 C-0.391 12.108 -0.402 13.213 -0.414 14.352 C-0.433 15.481 -0.453 16.61 -0.473 17.773 C-0.533 21.39 -0.579 25.008 -0.625 28.625 C-0.663 31.073 -0.702 33.521 -0.742 35.969 C-0.838 41.979 -0.923 47.989 -1 54 C0.65 54 2.3 54 4 54 C3.67 54.66 3.34 55.32 3 56 C0.525 56.495 0.525 56.495 -2 57 C-2 38.52 -2 20.04 -2 1 C-1.34 0.67 -0.68 0.34 0 0 Z" fill="#B18B34" transform="translate(86,145)"/>
<path d="M0 0 C1.98 0.495 1.98 0.495 4 1 C2.35 1.66 0.7 2.32 -1 3 C-0.67 2.01 -0.34 1.02 0 0 Z" fill="#E4BE4F" transform="translate(155,159)"/>
<path d="M0 0 C0.99 0.33 1.98 0.66 3 1 C2.67 1.66 2.34 2.32 2 3 C1.34 3 0.68 3 0 3 C0 2.01 0 1.02 0 0 Z" fill="#B18A33" transform="translate(276,370)"/>
<path d="M0 0 C0.99 0.99 1.98 1.98 3 3 C2.01 3 1.02 3 0 3 C0 2.01 0 1.02 0 0 Z" fill="#3C315A" transform="translate(214,274)"/>
<path d="M0 0 C0.99 0.33 1.98 0.66 3 1 C3 1.66 3 2.32 3 3 C2.01 2.67 1.02 2.34 0 2 C0 1.34 0 0.68 0 0 Z" fill="#E4BF4E" transform="translate(275,227)"/>
</svg>
