<svg xmlns="http://www.w3.org/2000/svg" viewBox="0 0 96 96">
<path d="M0 0 C1.175 -0.013 2.35 -0.026 3.561 -0.039 C5.469 -0.05 5.469 -0.05 7.415 -0.061 C8.724 -0.069 10.032 -0.077 11.381 -0.086 C14.154 -0.101 16.927 -0.111 19.7 -0.118 C23.236 -0.129 26.772 -0.164 30.308 -0.203 C33.698 -0.236 37.088 -0.24 40.478 -0.249 C41.74 -0.266 43.001 -0.284 44.301 -0.302 C52.95 -0.281 58.339 0.775 65.029 6.552 C69.871 12.201 72.385 16.445 72.456 23.898 C72.475 25.661 72.475 25.661 72.494 27.46 C72.502 28.731 72.509 30.003 72.517 31.314 C72.525 32.622 72.533 33.931 72.541 35.279 C72.556 38.052 72.566 40.825 72.574 43.599 C72.585 47.135 72.619 50.67 72.659 54.206 C72.691 57.596 72.696 60.986 72.704 64.376 C72.722 65.638 72.739 66.9 72.757 68.2 C72.736 76.848 71.681 82.238 65.904 88.927 C60.254 93.769 56.01 96.283 48.557 96.354 C47.382 96.367 46.207 96.38 44.996 96.393 C43.724 96.4 42.452 96.408 41.142 96.415 C39.833 96.423 38.525 96.431 37.177 96.44 C34.403 96.455 31.63 96.465 28.857 96.472 C25.321 96.483 21.785 96.518 18.249 96.557 C14.859 96.59 11.469 96.594 8.079 96.603 C6.818 96.62 5.556 96.638 4.256 96.656 C-4.393 96.635 -9.782 95.579 -16.471 89.802 C-21.314 84.153 -23.828 79.909 -23.898 72.456 C-23.911 71.28 -23.924 70.105 -23.937 68.894 C-23.945 67.623 -23.952 66.351 -23.96 65.04 C-23.968 63.732 -23.976 62.423 -23.984 61.075 C-23.999 58.302 -24.009 55.529 -24.017 52.755 C-24.028 49.219 -24.062 45.684 -24.102 42.148 C-24.134 38.758 -24.139 35.368 -24.147 31.978 C-24.165 30.716 -24.182 29.454 -24.2 28.154 C-24.179 19.506 -23.123 14.116 -17.346 7.427 C-11.697 2.585 -7.453 0.071 0 0 Z" fill="#5463FF" transform="translate(23.721435546875,-0.177001953125)"/>
<path d="M0 0 C4.95 0 9.9 0 15 0 C15.037 2.035 15.075 4.071 15.113 6.168 C15.162 8.15 15.211 10.133 15.262 12.115 C15.296 13.488 15.324 14.86 15.346 16.233 C15.38 18.211 15.434 20.19 15.488 22.168 C15.514 23.357 15.541 24.545 15.568 25.77 C16.039 29.291 16.875 31.179 19 34 C23.484 36.989 27.653 36.623 33 37 C33 41.95 33 46.9 33 52 C23.224 52.333 16.639 52.078 8.812 46 C2.847 40.232 -0.167 33.531 -0.471 25.194 C-0.5 21.73 -0.419 18.275 -0.312 14.812 C-0.287 13.369 -0.265 11.926 -0.244 10.482 C-0.194 6.986 -0.096 3.496 0 0 Z" fill="#FBFBFF" transform="translate(22,22)"/>
<path d="M0 0 C9.904 -0.527 17.216 -0.159 24.844 6.645 C30.685 12.987 32.587 19.394 32.352 27.934 C31.491 35.441 28.385 41.746 23 47 C21.354 47.716 19.689 48.391 18 49 C17.985 48.208 17.971 47.417 17.956 46.601 C17.881 43.004 17.785 39.409 17.688 35.812 C17.665 34.567 17.642 33.321 17.619 32.037 C17.584 30.835 17.548 29.633 17.512 28.395 C17.486 27.29 17.459 26.185 17.432 25.046 C16.952 21.66 16.014 19.741 14 17 C9.725 14.485 4.848 14.434 0 14 C0 9.38 0 4.76 0 0 Z" fill="#FCFCFF" transform="translate(42,22)"/>
</svg>
