<svg width="24" height="24" viewBox="0 0 24 24" fill="none" xmlns="http://www.w3.org/2000/svg">
  <path d="M21.8073 3.17743C22.1029 3.17743 22.3252 3.44681 22.2692 3.737L20.3571 13.5876C20.0811 15.0081 19.2591 16.2055 18.1354 16.9811C18.1592 16.8887 18.1824 16.7956 18.2008 16.7009L18.8678 13.2614C19.7666 8.62457 16.214 4.31805 11.4908 4.31805H7.86389C8.78193 3.59962 9.93427 3.17743 11.1705 3.17743H21.8073Z" fill="#B9F641"/>
  <path d="M2.34949 10.1378C2.83362 7.64055 5.02029 5.8371 7.56405 5.8371L11.4747 5.8371C15.228 5.8371 18.0504 9.25924 17.336 12.9439L16.6057 16.7114C16.1797 18.9088 14.2555 20.4958 12.0171 20.4958L0.908139 20.4958C0.614317 20.4958 0.393367 20.2279 0.449288 19.9394L2.34949 10.1378Z" fill="#B9F641"/>
</svg>
