<svg xmlns="http://www.w3.org/2000/svg" viewBox="0 0 512 512">
<path d="M0 0 C168.96 0 337.92 0 512 0 C512 168.96 512 337.92 512 512 C343.04 512 174.08 512 0 512 C0 343.04 0 174.08 0 0 Z" fill="#0051FF" transform="translate(0,0)"/>
<path d="M0 0 C0.966 -0.001 1.933 -0.002 2.928 -0.003 C6.116 0.002 9.301 0.056 12.489 0.111 C14.701 0.124 16.914 0.134 19.126 0.141 C24.945 0.168 30.762 0.237 36.58 0.314 C42.519 0.386 48.458 0.418 54.397 0.453 C66.047 0.528 77.696 0.647 89.344 0.795 C86.121 6.743 82.886 12.674 79.462 18.51 C79.126 19.083 78.79 19.656 78.444 20.247 C77.371 22.076 76.295 23.904 75.219 25.732 C74.458 27.029 73.696 28.326 72.934 29.624 C68.357 37.409 63.745 45.171 59.084 52.906 C54.301 60.847 49.573 68.821 44.844 76.795 C39.697 85.473 34.547 94.149 29.344 102.795 C24.205 111.336 19.117 119.908 14.032 128.482 C8.327 138.101 2.608 147.71 -3.156 157.295 C-8.856 166.775 -14.513 176.28 -20.156 185.795 C-30.366 203.01 -40.616 220.202 -51.031 237.295 C-51.489 238.049 -51.948 238.804 -52.421 239.581 C-55.535 244.674 -55.535 244.674 -56.656 245.795 C-59.73 245.89 -62.782 245.92 -65.857 245.908 C-67.306 245.908 -67.306 245.908 -68.783 245.909 C-71.992 245.908 -75.201 245.9 -78.409 245.892 C-80.628 245.89 -82.846 245.889 -85.064 245.888 C-90.915 245.884 -96.766 245.874 -102.617 245.863 C-108.582 245.853 -114.548 245.849 -120.513 245.844 C-132.227 245.833 -143.941 245.816 -155.656 245.795 C-152.969 240.311 -150.257 234.914 -147.046 229.713 C-146.383 228.631 -145.72 227.55 -145.036 226.435 C-144.69 225.874 -144.343 225.313 -143.986 224.734 C-142.09 221.66 -140.208 218.577 -138.327 215.494 C-137.939 214.857 -137.551 214.221 -137.15 213.565 C-133.068 206.857 -129.107 200.08 -125.156 193.295 C-119.242 183.147 -113.214 173.078 -107.093 163.055 C-101.682 154.191 -96.385 145.267 -91.156 136.295 C-85.241 126.148 -79.214 116.078 -73.093 106.055 C-67.682 97.191 -62.385 88.267 -57.156 79.295 C-51.245 69.155 -45.226 59.09 -39.105 49.076 C-35.005 42.364 -30.95 35.63 -26.984 28.838 C-26.406 27.848 -26.406 27.848 -25.816 26.839 C-23.963 23.662 -22.115 20.481 -20.275 17.297 C-19.605 16.144 -18.935 14.991 -18.265 13.838 C-17.398 12.338 -17.398 12.338 -16.514 10.807 C-15.901 9.813 -15.287 8.819 -14.656 7.795 C-14.192 6.905 -14.192 6.905 -13.72 5.997 C-10.18 -0.055 -6.671 -0.185 0 0 Z" fill="#FEFEFF" transform="translate(243.655517578125,126.205322265625)"/>
<path d="M0 0 C0.922 0.004 1.844 0.007 2.794 0.011 C4.243 0.011 4.243 0.011 5.721 0.01 C8.93 0.011 12.138 0.019 15.347 0.027 C17.565 0.029 19.783 0.03 22.001 0.031 C27.852 0.035 33.703 0.045 39.554 0.056 C45.52 0.066 51.485 0.071 57.45 0.076 C69.165 0.086 80.879 0.103 92.593 0.124 C91.636 2.052 90.677 3.979 89.717 5.905 C88.917 7.515 88.917 7.515 88.1 9.157 C86.432 12.441 84.649 15.551 82.718 18.687 C81.94 19.964 81.162 21.241 80.386 22.519 C79.951 23.234 79.515 23.949 79.067 24.685 C76.02 29.727 73.03 34.804 70.03 39.874 C69.337 41.045 68.644 42.216 67.951 43.386 C66.536 45.776 65.121 48.166 63.706 50.556 C59.676 57.362 55.643 64.166 51.61 70.97 C48.544 76.144 45.478 81.318 42.414 86.493 C41.001 88.881 39.587 91.268 38.173 93.655 C37.201 95.297 36.23 96.938 35.259 98.579 C34.059 100.606 32.838 102.621 31.594 104.621 C30.156 107.014 29.055 109.381 28.044 111.981 C26.218 116.278 24.266 120.132 20.593 123.124 C13.544 125.826 5.453 124.865 -1.942 124.589 C-4.149 124.561 -6.356 124.54 -8.562 124.525 C-14.35 124.468 -20.132 124.321 -25.918 124.154 C-31.829 124 -37.742 123.932 -43.655 123.857 C-55.242 123.696 -66.824 123.441 -78.407 123.124 C-77.243 119.544 -76.125 116.323 -74.149 113.113 C-73.697 112.369 -73.245 111.625 -72.778 110.859 C-72.285 110.06 -71.791 109.261 -71.282 108.437 C-70.194 106.65 -69.107 104.862 -68.02 103.074 C-67.437 102.116 -66.854 101.159 -66.253 100.173 C-62.952 94.722 -59.713 89.234 -56.47 83.749 C-55.781 82.586 -55.092 81.422 -54.403 80.258 C-50.233 73.216 -46.07 66.171 -41.907 59.124 C-22.032 25.481 -22.032 25.481 -12.47 9.499 C-11.716 8.238 -11.716 8.238 -10.948 6.95 C-10.492 6.19 -10.037 5.431 -9.567 4.648 C-8.974 3.657 -8.974 3.657 -8.368 2.645 C-6.208 -0.772 -3.849 0.006 0 0 Z" fill="#FEFEFF" transform="translate(331.40708923339844,248.87557983398438)"/>
</svg>
