<svg xmlns="http://www.w3.org/2000/svg" viewBox="0 0 512 512">
<path d="M0 0 C168.96 0 337.92 0 512 0 C512 168.96 512 337.92 512 512 C343.04 512 174.08 512 0 512 C0 343.04 0 174.08 0 0 Z" fill="#000000" transform="translate(0,0)"/>
<path d="M0 0 C25.575 -0.021 51.15 -0.041 77.5 -0.062 C85.551 -0.072 93.602 -0.081 101.896 -0.09 C111.79 -0.095 111.79 -0.095 116.434 -0.095 C119.651 -0.096 122.867 -0.1 126.084 -0.106 C130.206 -0.113 134.329 -0.114 138.451 -0.113 C139.952 -0.113 141.453 -0.115 142.954 -0.119 C157.46 -0.155 171.647 0.334 185.875 3.375 C186.911 3.584 187.948 3.793 189.016 4.008 C205.492 7.411 220.381 12.9 234 23 C234.728 23.531 235.457 24.062 236.207 24.609 C249.72 35.377 255.998 51.324 258 68 C258.12 68.75 258.24 69.5 258.364 70.273 C258.701 73.726 258.814 76.007 256.552 78.766 C254.391 80.536 252.162 82.052 249.812 83.562 C248.057 84.77 246.303 85.979 244.551 87.191 C243.177 88.124 243.177 88.124 241.776 89.075 C237.231 92.227 232.875 95.618 228.5 99 C221.117 104.657 213.668 110.215 206.164 115.711 C200.223 120.073 194.352 124.521 188.5 129 C181.114 134.654 173.668 140.215 166.164 145.711 C160.223 150.073 154.353 154.521 148.5 159 C141.621 164.26 134.715 169.48 127.75 174.625 C127 175.181 126.251 175.736 125.479 176.309 C121.785 179.026 118.053 181.658 114.231 184.193 C113.435 184.722 112.638 185.251 111.818 185.796 C111.218 186.193 110.618 186.591 110 187 C109.509 179.587 109.138 172.177 108.912 164.751 C108.803 161.3 108.657 157.859 108.416 154.415 C106.912 132.339 106.912 132.339 111.976 125.223 C116.821 120.387 122.332 116.89 128.287 113.573 C132.616 111.063 136.525 108.029 140.5 105 C142.046 103.862 143.594 102.726 145.145 101.594 C152.261 96.35 159.273 90.966 166.293 85.594 C170.508 82.369 174.747 79.175 179 76 C178.543 71.083 177.552 68.463 174 65 C165.671 59.225 157.058 57.709 147.084 57.681 C145.803 57.666 145.803 57.666 144.497 57.65 C141.768 57.62 139.038 57.603 136.309 57.586 C134.61 57.569 132.912 57.551 131.213 57.532 C124.955 57.47 118.696 57.423 112.438 57.375 C98.433 57.251 84.429 57.127 70 57 C70 113.76 70 170.52 70 229 C85.077 228.897 100.154 228.794 115.688 228.688 C122.793 228.65 122.793 228.65 130.042 228.612 C134.338 228.575 134.338 228.575 138.634 228.535 C140.528 228.519 142.421 228.509 144.315 228.503 C166.51 228.647 166.51 228.647 186 219 C191.832 212.131 192.343 205.139 192.293 196.367 C191.862 191.416 190.22 187.4 188 183 C187.333 181.667 186.666 180.334 186 179 C187.163 178.143 188.326 177.286 189.488 176.43 C190.629 175.589 190.629 175.589 191.792 174.732 C193.489 173.482 195.186 172.231 196.884 170.981 C201.339 167.698 205.794 164.415 210.246 161.129 C211.505 160.2 211.505 160.2 212.79 159.252 C214.391 158.072 215.991 156.89 217.591 155.708 C219.045 154.636 220.5 153.567 221.958 152.501 C223.314 151.504 224.662 150.497 226.001 149.478 C230.694 145.966 230.694 145.966 233.812 146.312 C234.864 146.869 235.916 147.426 237 148 C238.112 148.58 238.112 148.58 239.246 149.172 C252.799 156.699 262.217 167.395 267.5 182.062 C272.483 201.552 270.388 225.043 260.504 242.668 C245.422 265.417 220.146 276.392 194.25 281.688 C191.835 282.136 189.419 282.574 187 283 C185.442 283.292 185.442 283.292 183.852 283.59 C171.172 285.87 158.502 286.146 145.653 286.114 C144.029 286.113 142.406 286.113 140.782 286.114 C136.474 286.114 132.165 286.108 127.856 286.101 C123.798 286.096 119.74 286.095 115.682 286.095 C103.851 286.089 92.019 286.075 80.188 286.062 C53.726 286.042 27.264 286.021 0 286 C0 191.62 0 97.24 0 0 Z" fill="#FEFEFE" transform="translate(127,113)"/>
<path d="M0 0 C9.024 7.93 14.607 19.166 16.688 30.875 C16.817 31.531 16.947 32.187 17.08 32.863 C17.456 34.905 17.741 36.94 18 39 C18.122 39.753 18.243 40.506 18.368 41.282 C18.704 44.734 18.813 47.009 16.552 49.766 C14.391 51.536 12.162 53.052 9.812 54.562 C8.057 55.77 6.303 56.979 4.551 58.191 C3.177 59.124 3.177 59.124 1.776 60.075 C-2.769 63.227 -7.125 66.618 -11.5 70 C-18.883 75.657 -26.332 81.215 -33.836 86.711 C-39.777 91.073 -45.648 95.521 -51.5 100 C-58.886 105.654 -66.332 111.215 -73.836 116.711 C-79.777 121.073 -85.647 125.521 -91.5 130 C-98.379 135.26 -105.285 140.48 -112.25 145.625 C-113 146.181 -113.749 146.736 -114.521 147.309 C-118.215 150.026 -121.947 152.658 -125.769 155.193 C-126.565 155.722 -127.362 156.251 -128.182 156.796 C-128.782 157.193 -129.382 157.591 -130 158 C-130.491 150.587 -130.862 143.177 -131.088 135.751 C-131.197 132.3 -131.343 128.859 -131.584 125.415 C-133.088 103.339 -133.088 103.339 -128.024 96.223 C-123.179 91.387 -117.668 87.89 -111.713 84.573 C-107.384 82.063 -103.475 79.029 -99.5 76 C-97.954 74.862 -96.406 73.726 -94.855 72.594 C-86.93 66.754 -79.13 60.747 -71.315 54.762 C-68.428 52.565 -65.518 50.4 -62.6 48.244 C-60.867 46.95 -60.867 46.95 -59 45 C-57.678 44.094 -56.339 43.212 -54.992 42.344 C-49.854 38.955 -44.994 35.261 -40.125 31.5 C-32.31 25.501 -24.439 19.59 -16.481 13.781 C-12.631 10.965 -8.806 8.119 -5.016 5.223 C-4.271 4.654 -3.526 4.086 -2.759 3.5 C-0.889 2.103 -0.889 2.103 0 0 Z" fill="#FD8700" transform="translate(367,142)"/>
</svg>
