<svg width="24" height="24" viewBox="0 0 24 24" fill="none" xmlns="http://www.w3.org/2000/svg">
<path d="M24 11.543C24 12.5903 23.5721 13.5404 22.8769 14.2372L17.3812 19.5788C17.0701 19.8753 16.7093 20.1225 16.3119 20.3076C15.7915 20.5501 15.2085 20.6859 14.5928 20.6859C13.977 20.6859 13.4206 20.5296 12.9001 20.2871C12.4915 20.0967 12.0897 19.8564 11.7729 19.5487L10.6129 18.4212L7.25706 15.1596C7.69462 14.6204 8.37283 14.2742 9.13423 14.2742C9.70115 14.2742 10.222 14.4661 10.6317 14.7867L13.504 17.5785C13.7891 17.8392 14.1701 17.9962 14.5925 17.9962C15.015 17.9962 15.399 17.8363 15.6841 17.5755L20.8137 12.5899C21.074 12.3143 21.233 11.9467 21.233 11.543C21.233 11.1394 21.0741 10.7719 20.8138 10.4963L15.67 5.49675C15.3864 5.24369 15.0082 5.08921 14.5929 5.08921C14.1776 5.08921 13.7994 5.24366 13.5159 5.49668L10.9996 7.94235L7.29468 11.5433L5.41558 13.3697L0.677295 17.9751C0.521725 18.1257 0.26996 18.1256 0.114608 17.9746C0.0471351 17.909 0.00893398 17.8257 4.87778e-06 17.7401L4.87519e-06 15.3004C4.87498e-06 15.0978 0.0800601 14.9134 0.211099 14.7754L2.4522 12.5972C2.71517 12.3211 2.87589 11.9516 2.87589 11.5457C2.87589 11.1183 2.70042 10.7309 2.41228 10.4507L0.227361 8.32705C0.213344 8.31313 0.199863 8.29867 0.18695 8.28372C0.0708495 8.14929 0.00067624 7.97478 4.86721e-06 7.78603L5.71572e-09 7.7833L4.86721e-06 7.78056L4.86462e-06 5.34687C0.00893397 5.26127 0.0471351 5.17802 0.114608 5.11244C0.270135 4.96127 0.522637 4.96127 0.678165 5.11244L4.30359 8.63615C4.5907 8.9085 4.98271 9.07342 5.41559 9.07342C5.84839 9.07342 6.24115 8.90776 6.52826 8.6355L11.8125 3.49947L11.8126 3.49943C12.1217 3.2065 12.4795 2.96199 12.8733 2.77853C13.3938 2.53599 13.977 2.40015 14.5928 2.40015C15.2086 2.40015 15.7918 2.53602 16.3124 2.77859C16.7095 2.96367 17.0702 3.21085 17.3811 3.5072L22.8769 8.84874C23.1747 9.14726 23.4234 9.49227 23.6105 9.87148C23.8601 10.3775 24 10.9444 24 11.543L24 11.5431L24 11.543Z" fill="#3B82F6"/>
</svg>
