<svg width="35" height="30" viewBox="0 0 35 30" fill="none" xmlns="http://www.w3.org/2000/svg">
<path d="M15.1264 21.5549H10.5402V17.7346H15.1264C16.1724 17.7346 17.0172 18.5791 17.0172 19.6246C17.0172 20.6702 16.1724 21.5549 15.1264 21.5549ZM10.5402 10.8177H14.7241C15.7701 10.8177 16.6149 11.6622 16.6149 12.7077C16.6149 13.7533 15.7701 14.5978 14.7241 14.5978H10.5402V10.8177ZM19.5517 15.764C20.1953 14.9195 20.5976 13.874 20.5976 12.7077C20.5976 9.93295 18.3448 7.68094 15.5689 7.68094H6.35626V14.5978V17.7346V24.6514H11.0632H16.3735C19.1494 24.6514 21.4022 22.3994 21.4022 19.6246C21.4022 18.0563 20.6781 16.689 19.5517 15.764Z" fill="#002C63"/>
<path d="M35 4.62467C35 5.22788 34.7586 5.75067 34.2759 6.15282C33.7931 6.55496 33.1897 6.75603 32.4655 6.75603C31.7816 6.75603 31.1782 6.55496 30.6954 6.19303C30.2127 5.8311 29.931 5.34853 29.8506 4.70509H31.7414C31.9023 5.06702 32.1437 5.2681 32.5058 5.2681C32.7471 5.2681 32.9081 5.22788 33.069 5.10724C33.2299 4.9866 33.2701 4.82574 33.2701 4.62467C33.2701 4.42359 33.1897 4.30295 33.069 4.18231C32.9081 4.06166 32.7471 4.02145 32.4655 4.02145H31.8219V2.69437H32.4253C32.6667 2.69437 32.8678 2.65416 32.9885 2.53351C33.1092 2.41287 33.1897 2.29223 33.1897 2.13137C33.1897 1.9303 33.1092 1.76944 32.9885 1.64879C32.8678 1.52815 32.6667 1.48794 32.4655 1.48794C32.2242 1.48794 32.0632 1.56836 31.9023 1.72922C31.8219 1.80965 31.7414 1.93029 31.7012 2.09115H29.931C30.0517 1.44772 30.2931 0.924933 30.7759 0.563003C31.2184 0.201072 31.7816 0 32.4655 0C33.1897 0 33.7529 0.201072 34.2357 0.563003C34.6782 0.965147 34.9196 1.44772 34.9196 2.05094C34.9196 2.61394 34.6782 3.01609 34.2357 3.29759C34.7586 3.57909 35 4.06166 35 4.62467Z" fill="#002C63"/>
<path d="M6.39655 4.42358V2.33243H0V30H6.39655V27.949H2.09195V4.42358H6.39655Z" fill="#002C63"/>
<path d="M21.2816 27.949V30H27.6781V2.33243H21.2816V4.42358H25.6264V27.949H21.2816Z" fill="#002C63"/>
</svg>
