<svg xmlns="http://www.w3.org/2000/svg" viewBox="3 4 25 26">
  <path d="M10.62 9.895C4.794 15.597 2.353 23.429 5.172 27.339c.939 1.232 2.254 2.016 3.946 2.126 1.124.112 2.066-1.228 2.818-2.908.753-1.678 1.219-3.357 1.598-4.808.56-2.345.56-4.138.279-4.472-.473-.559-1.501-.448-2.722.224-.562.336-1.314.11-.375-1.007.841-1.006 4.503-3.688 5.729-4.024 1.502-.451 3.106.111 2.54 1.677-.379 1.116-5.357 14.09-1.696 12.748 1.221-.786 2.351-1.678 3.482-2.797 5.817-5.706 8.263-13.531 5.447-17.444-1.037-1.45-2.729-2.123-4.604-2.123-3.289 0-7.327 1.9-10.994 5.364zm10.808-3.131c.659.675.283 2.126-.947 3.242-1.122 1.123-2.626 1.57-3.287.894-.653-.665-.276-2.123.852-3.242 1.218-1.226 2.725-1.563 3.382-.894z" fill="#E3530F"/>
  <path d="M14.474 6.879c-.659.56-1.317 1.001-1.974 1.678-5.072 4.917-7.136 11.741-4.606 15.208.946 1.337 2.541 1.898 4.42 1.898.562-1.455.937-2.683 1.221-3.914.56-2.345.56-4.138.28-4.473-.473-.558-1.501-.447-2.722.225-.562.335-1.314.11-.375-1.008.841-1.006 4.503-3.688 5.729-4.023 1.5-.453 3.105.11 2.539 1.677-.284.782-2.73 7.154-3.01 10.62 1.971-.78 3.947-2.127 5.823-3.915 2.82-2.68 4.699-5.811 5.453-8.719.282-2.127-.088-4.025-1.032-5.48-2.258-3.017-6.954-2.791-11.746.226zm6.955-.116c.659.676.282 2.126-.946 3.243-1.123 1.122-2.626 1.57-3.288.894-.652-.666-.276-2.124.852-3.242 1.219-1.227 2.726-1.563 3.382-.895z" fill="#97291E"/>
</svg>
