<svg xmlns="http://www.w3.org/2000/svg" viewBox="0 0 57 22">
<path d="M0 0 C18.81 0 37.62 0 57 0 C57 7.26 57 14.52 57 22 C38.19 22 19.38 22 0 22 C0 14.74 0 7.48 0 0 Z" fill="#EBEAEC" transform="translate(0,0)"/>
<path d="M0 0 C17.49 0 34.98 0 53 0 C51.02 2.64 49.04 5.28 47 8 C45.68 8 44.36 8 43 8 C41.265 6.059 39.595 4.057 38 2 C37.34 1.67 36.68 1.34 36 1 C35.818 1.568 35.636 2.137 35.449 2.723 C33.859 7.607 32.095 12.31 30 17 C26.718 13.718 26.246 9.417 25 5 C20.38 5 15.76 5 11 5 C11 7.97 11 10.94 11 14 C10.34 13.67 9.68 13.34 9 13 C9.031 11.546 9.031 11.546 9.062 10.062 C9.356 7.125 9.356 7.125 8 6 C6.653 5.769 5.296 5.588 3.938 5.438 C2.638 5.293 1.339 5.149 0 5 C0 3.35 0 1.7 0 0 Z" fill="#FAF9F8" transform="translate(0,0)"/>
<path d="M0 0 C0 6.93 0 13.86 0 21 C-9.57 21 -19.14 21 -29 21 C-28.01 20.34 -27.02 19.68 -26 19 C-24.831 16.629 -23.793 14.32 -22.812 11.875 C-22.54 11.216 -22.267 10.558 -21.986 9.879 C-21.316 8.256 -20.657 6.628 -20 5 C-17.092 7.219 -15.047 8.93 -13 12 C-10.637 12.23 -10.637 12.23 -8.375 9.5 C-7.591 8.675 -6.808 7.85 -6 7 C-6 11.29 -6 15.58 -6 20 C-5.01 20 -4.02 20 -3 20 C-3.107 18.808 -3.214 17.615 -3.324 16.387 C-3.446 14.82 -3.567 13.254 -3.688 11.688 C-3.76 10.902 -3.833 10.116 -3.908 9.307 C-3.963 8.549 -4.018 7.792 -4.074 7.012 C-4.161 5.967 -4.161 5.967 -4.249 4.901 C-3.953 2.642 -2.615 0 0 0 Z" fill="#F8F7F6" transform="translate(57,1)"/>
<path d="M0 0 C1.32 0.33 2.64 0.66 4 1 C3.509 1.49 3.018 1.98 2.512 2.484 C0.397 6.004 0.676 9.277 0.812 13.25 C0.826 13.995 0.84 14.74 0.854 15.508 C0.889 17.339 0.943 19.17 1 21 C0.01 21 -0.98 21 -2 21 C-2.33 17.04 -2.66 13.08 -3 9 C-4.32 10.65 -5.64 12.3 -7 14 C-11.205 12.348 -11.81 10.988 -15 7 C-17.31 11.62 -19.62 16.24 -22 21 C-23.32 20.67 -24.64 20.34 -26 20 C-27.484 17.383 -27.484 17.383 -28.75 14.125 C-29.178 13.055 -29.606 11.985 -30.047 10.883 C-31 8 -31 8 -31 5 C-30.01 5 -29.02 5 -28 5 C-26.68 8.3 -25.36 11.6 -24 15 C-21.69 10.38 -19.38 5.76 -17 1 C-12.992 3.004 -11.586 4.491 -9 8 C-5.703 6.901 -4.953 6.054 -2.812 3.438 C-2.283 2.797 -1.753 2.156 -1.207 1.496 C-0.809 1.002 -0.41 0.509 0 0 Z" fill="#F2B445" transform="translate(53,0)"/>
<path d="M0 0 C2.64 0 5.28 0 8 0 C10 2 10 2 10.062 4.875 C10.042 5.906 10.021 6.938 10 8 C10.34 9.052 10.34 9.052 10.688 10.125 C11 12 11 12 10.062 14.25 C8 16 8 16 0 16 C0 10.72 0 5.44 0 0 Z" fill="#3E344F" transform="translate(0,5)"/>
<path d="M0 0 C2.31 0 4.62 0 7 0 C9 2 9 2 9.188 4.5 C9 7 9 7 8 9 C8.936 11.36 9.933 13.696 11 16 C9.68 16 8.36 16 7 16 C6.546 15.031 6.093 14.061 5.625 13.062 C4.342 9.929 4.342 9.929 2 9 C2 11.31 2 13.62 2 16 C1.34 16 0.68 16 0 16 C0 10.72 0 5.44 0 0 Z" fill="#423953" transform="translate(12,5)"/>
<path d="M0 0 C0.99 0 1.98 0 3 0 C4.32 3.3 5.64 6.6 7 10 C7.99 8.68 8.98 7.36 10 6 C10.99 6 11.98 6 13 6 C12.604 7.485 12.182 8.963 11.75 10.438 C11.402 11.673 11.402 11.673 11.047 12.934 C10 15 10 15 7.891 15.785 C7.267 15.856 6.643 15.927 6 16 C0 4.262 0 4.262 0 0 Z" fill="#3E3450" transform="translate(22,5)"/>
<path d="M0 0 C0 6.93 0 13.86 0 21 C-0.99 21 -1.98 21 -3 21 C-3.248 18.063 -3.474 15.127 -3.688 12.188 C-3.76 11.354 -3.833 10.521 -3.908 9.662 C-3.99 8.458 -3.99 8.458 -4.074 7.23 C-4.132 6.492 -4.189 5.754 -4.249 4.993 C-3.962 2.696 -2.684 0 0 0 Z" fill="#FEFDFB" transform="translate(57,1)"/>
<path d="M0 0 C0.33 0 0.66 0 1 0 C1 5.28 1 10.56 1 16 C0.01 16 -0.98 16 -2 16 C-2.054 13.896 -2.093 11.792 -2.125 9.688 C-2.148 8.516 -2.171 7.344 -2.195 6.137 C-2 3 -2 3 0 0 Z" fill="#504660" transform="translate(53,5)"/>
<path d="M0 0 C1.98 0 3.96 0 6 0 C6 0.66 6 1.32 6 2 C4.68 2 3.36 2 2 2 C2.186 2.825 2.371 3.65 2.562 4.5 C3.077 8.619 2.635 11.908 2 16 C1.34 16 0.68 16 0 16 C0 10.72 0 5.44 0 0 Z" fill="#322846" transform="translate(12,5)"/>
<path d="M0 0 C0.33 0 0.66 0 1 0 C1 5.28 1 10.56 1 16 C1.66 16.33 2.32 16.66 3 17 C-1.62 17 -6.24 17 -11 17 C-11 16.67 -11 16.34 -11 16 C-8.36 15.67 -5.72 15.34 -3 15 C-0.598 10.196 -0.389 5.269 0 0 Z" fill="#D5D2D8" transform="translate(11,5)"/>
<path d="M0 0 C2.737 4.105 2.737 4.105 3 7 C1.688 9.25 1.688 9.25 0 11 C-0.66 11 -1.32 11 -2 11 C-2 10.34 -2 9.68 -2 9 C-2.99 8.67 -3.98 8.34 -5 8 C-3.68 7.67 -2.36 7.34 -1 7 C-1 6.34 -1 5.68 -1 5 C-2.32 4.34 -3.64 3.68 -5 3 C-3.35 2.01 -1.7 1.02 0 0 Z" fill="#483F5A" transform="translate(8,10)"/>
<path d="M0 0 C1.938 0.688 1.938 0.688 4 2 C4.75 4.625 4.75 4.625 5 7 C5.99 7.33 6.98 7.66 8 8 C5.36 8 2.72 8 0 8 C0 5.36 0 2.72 0 0 Z" fill="#E4E3E6" transform="translate(14,14)"/>
<path d="M0 0 C0.66 0 1.32 0 2 0 C1.542 3.469 1.109 6.674 0 10 C-1.32 9.67 -2.64 9.34 -4 9 C-2.68 6.03 -1.36 3.06 0 0 Z" fill="#F2B23F" transform="translate(36,1)"/>
<path d="M0 0 C1.32 0 2.64 0 4 0 C3.67 1.65 3.34 3.3 3 5 C2.01 5 1.02 5 0 5 C0 3.35 0 1.7 0 0 Z" fill="#9E9AA5" transform="translate(14,7)"/>
<path d="M0 0 C2.475 0.495 2.475 0.495 5 1 C4.67 1.99 4.34 2.98 4 4 C2.68 4 1.36 4 0 4 C0 2.68 0 1.36 0 0 Z" fill="#F4F3F4" transform="translate(3,14)"/>
<path d="M0 0 C2.31 0 4.62 0 7 0 C6.67 0.66 6.34 1.32 6 2 C4.68 2 3.36 2 2 2 C1.67 2.99 1.34 3.98 1 5 C0.67 5 0.34 5 0 5 C0 3.35 0 1.7 0 0 Z" fill="#312844" transform="translate(0,5)"/>
<path d="M0 0 C1.32 0.33 2.64 0.66 4 1 C4 1.99 4 2.98 4 4 C2.68 4 1.36 4 0 4 C0 2.68 0 1.36 0 0 Z" fill="#ECEBED" transform="translate(3,7)"/>
<path d="M0 0 C0.99 0 1.98 0 3 0 C2.188 1.937 2.188 1.937 1 4 C0.01 4.33 -0.98 4.66 -2 5 C-1.34 3.35 -0.68 1.7 0 0 Z" fill="#4C445C" transform="translate(32,11)"/>
<path d="M0 0 C2 3 2 3 2 5 C1.01 5.33 0.02 5.66 -1 6 C-1.33 4.68 -1.66 3.36 -2 2 C-1.34 2 -0.68 2 0 2 C0 1.34 0 0.68 0 0 Z" fill="#49415A" transform="translate(27,12)"/>
<path d="M0 0 C0.66 0 1.32 0 2 0 C2 1.32 2 2.64 2 4 C0.68 3.67 -0.64 3.34 -2 3 C-1.34 2.01 -0.68 1.02 0 0 Z" fill="#DEAD57" transform="translate(34,7)"/>
<path d="M0 0 C0.99 0.99 1.98 1.98 3 3 C1.02 3.99 1.02 3.99 -1 5 C-0.67 3.35 -0.34 1.7 0 0 Z" fill="#FAF6E7" transform="translate(37,6)"/>
<path d="M0 0 C0.99 0 1.98 0 3 0 C3 0.99 3 1.98 3 3 C2.01 3 1.02 3 0 3 C0 2.01 0 1.02 0 0 Z" fill="#FEFDFC" transform="translate(15,8)"/>
<path d="M0 0 C0.66 0 1.32 0 2 0 C2 1.32 2 2.64 2 4 C1.01 3.67 0.02 3.34 -1 3 C-0.67 2.01 -0.34 1.02 0 0 Z" fill="#E6AC44" transform="translate(50,4)"/>
<path d="M0 0 C1.485 0.99 1.485 0.99 3 2 C1.68 2 0.36 2 -1 2 C-0.67 1.34 -0.34 0.68 0 0 Z" fill="#F1B84F" transform="translate(44,11)"/>
</svg>
