<svg xmlns="http://www.w3.org/2000/svg" viewBox="0 0 80 22">
<path d="M0 0 C13.396 -0.372 13.396 -0.372 16.453 1.512 C16.964 2.003 17.474 2.494 18 3 C17.691 4.671 17.691 4.671 17.375 6.375 C17.251 7.571 17.128 8.768 17 10 C17.66 10.66 18.32 11.32 19 12 C18.545 17.455 18.545 17.455 16 20 C13.247 20.146 10.622 20.186 7.875 20.125 C5.276 20.084 2.677 20.043 0 20 C0 13.4 0 6.8 0 0 Z M6 5 C6.33 5.99 6.66 6.98 7 8 C8.32 8 9.64 8 11 8 C11 7.01 11 6.02 11 5 C9.35 5 7.7 5 6 5 Z M7 12 C7 13.32 7 14.64 7 16 C8.65 15.67 10.3 15.34 12 15 C11.67 14.01 11.34 13.02 11 12 C9.68 12 8.36 12 7 12 Z" fill="#6C83B5" transform="translate(1,1)"/>
<path d="M0 0 C2.562 2 2.562 2 4 4 C3.67 4.99 3.34 5.98 3 7 C1.062 7.812 1.062 7.812 -1 8 C-1.66 7.34 -2.32 6.68 -3 6 C-4.32 6 -5.64 6 -7 6 C-7 8.64 -7 11.28 -7 14 C-5.35 14.33 -3.7 14.66 -2 15 C-1.67 14.01 -1.34 13.02 -1 12 C0.65 12.33 2.3 12.66 4 13 C3.25 17.75 3.25 17.75 1 20 C-7.69 21.709 -7.69 21.709 -12 19 C-14.969 15.519 -15.523 12.374 -15.363 7.934 C-14.786 4.859 -13.199 3.134 -11 1 C-7.558 -0.721 -3.764 -0.515 0 0 Z" fill="#7B90C1" transform="translate(56,1)"/>
<path d="M0 0 C5.94 0 11.88 0 18 0 C18.33 1.65 18.66 3.3 19 5 C16.69 5.33 14.38 5.66 12 6 C12 10.62 12 15.24 12 20 C9.69 20 7.38 20 5 20 C4.67 15.38 4.34 10.76 4 6 C2.35 5.67 0.7 5.34 -1 5 C-0.67 3.35 -0.34 1.7 0 0 Z" fill="#6983B7" transform="translate(22,1)"/>
<path d="M0 0 C2.648 1.045 3.847 1.525 5.375 3.938 C5.74 7.347 5.989 9.818 4.312 12.875 C1.172 14.597 -1.123 14.429 -4.625 13.938 C-7.125 11.75 -7.125 11.75 -8.625 8.938 C-8.714 5.306 -7.877 4.203 -5.375 1.562 C-2.625 -0.062 -2.625 -0.062 0 0 Z" fill="#858585" transform="translate(73.625,4.0625)"/>
<path d="M0 0 C0.33 0 0.66 0 1 0 C1.66 2.64 2.32 5.28 3 8 C4.65 8.33 6.3 8.66 8 9 C8.33 8.01 8.66 7.02 9 6 C10.65 6.33 12.3 6.66 14 7 C13.25 11.75 13.25 11.75 11 14 C5.996 14.984 2.602 15.572 -2 13 C-4 11 -4 11 -4.125 7.875 C-4.084 6.926 -4.042 5.977 -4 5 C-3.67 5.99 -3.34 6.98 -3 8 C-2.01 8 -1.02 8 0 8 C0 5.36 0 2.72 0 0 Z" fill="#6C7EA1" transform="translate(46,7)"/>
<path d="M0 0 C1.65 0 3.3 0 5 0 C5.33 0.99 5.66 1.98 6 3 C9.433 4.171 9.433 4.171 13 5 C13.66 5.33 14.32 5.66 15 6 C14.67 5.01 14.34 4.02 14 3 C14.66 2.34 15.32 1.68 16 1 C16.625 3.375 16.625 3.375 17 6 C15 8 15 8 11.523 8.195 C10.14 8.182 8.758 8.158 7.375 8.125 C6.669 8.116 5.962 8.107 5.234 8.098 C3.489 8.074 1.745 8.038 0 8 C0 5.36 0 2.72 0 0 Z" fill="#68779F" transform="translate(2,13)"/>
<path d="M0 0 C5.94 0 11.88 0 18 0 C18.33 1.65 18.66 3.3 19 5 C16.69 5.33 14.38 5.66 12 6 C11.67 4.68 11.34 3.36 11 2 C12.98 2.66 14.96 3.32 17 4 C16.67 3.34 16.34 2.68 16 2 C11.05 2 6.1 2 1 2 C0.67 2.66 0.34 3.32 0 4 C0.969 3.979 1.939 3.959 2.938 3.938 C6 4 6 4 7 5 C6.909 7.535 6.763 10.036 6.562 12.562 C6.51 13.273 6.458 13.984 6.404 14.717 C6.274 16.478 6.138 18.239 6 20 C5.67 20 5.34 20 5 20 C4.67 15.38 4.34 10.76 4 6 C2.35 5.67 0.7 5.34 -1 5 C-0.67 3.35 -0.34 1.7 0 0 Z" fill="#8394BB" transform="translate(22,1)"/>
<path d="M0 0 C2.249 -0.081 4.5 -0.139 6.75 -0.188 C8.003 -0.222 9.256 -0.257 10.547 -0.293 C14.141 0.012 15.447 0.544 18 3 C17.67 5.64 17.34 8.28 17 11 C16.01 11 15.02 11 14 11 C13.67 10.34 13.34 9.68 13 9 C10.69 9 8.38 9 6 9 C6.33 8.34 6.66 7.68 7 7 C8.32 7.33 9.64 7.66 11 8 C11 7.01 11 6.02 11 5 C9.35 5 7.7 5 6 5 C6 4.67 6 4.34 6 4 C11.625 3.75 11.625 3.75 15 6 C15.33 5.01 15.66 4.02 16 3 C8.575 2.01 8.575 2.01 1 1 C1 3.64 1 6.28 1 9 C0.67 9 0.34 9 0 9 C0 6.03 0 3.06 0 0 Z" fill="#8294BF" transform="translate(1,1)"/>
<path d="M0 0 C-0.99 0.495 -0.99 0.495 -2 1 C-1.67 3.64 -1.34 6.28 -1 9 C-2.32 9.33 -3.64 9.66 -5 10 C-5.99 8.35 -6.98 6.7 -8 5 C-9.485 5.99 -9.485 5.99 -11 7 C-9.024 0.906 -6.52 -1.992 0 0 Z" fill="#A3A3A3" transform="translate(76,5)"/>
<path d="M0 0 C4.824 -0.193 8.496 0.243 13 2 C12.67 3.32 12.34 4.64 12 6 C11.34 6 10.68 6 10 6 C9.67 5.34 9.34 4.68 9 4 C5.971 3.342 5.971 3.342 3 3 C3 3.66 3 4.32 3 5 C1.68 5 0.36 5 -1 5 C-0.67 3.35 -0.34 1.7 0 0 Z" fill="#6F89C7" transform="translate(4,2)"/>
<path d="M0 0 C3.441 0.095 4.314 0.244 7.125 2.438 C7.599 3.098 8.074 3.758 8.562 4.438 C8.233 5.428 7.903 6.418 7.562 7.438 C5.5 8.125 5.5 8.125 3.562 8.438 C2.572 7.117 1.582 5.797 0.562 4.438 C2.543 5.098 4.523 5.758 6.562 6.438 C6.233 5.447 5.903 4.457 5.562 3.438 C1.273 3.438 -3.017 3.438 -7.438 3.438 C-4.007 0.007 -4.007 0.007 0 0 Z" fill="#8696C4" transform="translate(51.4375,0.5625)"/>
<path d="M0 0 C0.33 0 0.66 0 1 0 C1 4.62 1 9.24 1 14 C-0.65 14 -2.3 14 -4 14 C-4 12.68 -4 11.36 -4 10 C-3.34 10 -2.68 10 -2 10 C-1.34 6.7 -0.68 3.4 0 0 Z" fill="#5F7298" transform="translate(33,7)"/>
<path d="M0 0 C2.475 0.495 2.475 0.495 5 1 C5 3.31 5 5.62 5 8 C3.35 8 1.7 8 0 8 C0 5.36 0 2.72 0 0 Z" fill="#7084B6" transform="translate(41,7)"/>
<path d="M0 0 C0.722 0.186 1.444 0.371 2.188 0.562 C5.128 1.02 7.141 0.735 10 0 C10.33 1.32 10.66 2.64 11 4 C6.589 5.026 4.074 5.037 0 3 C0 2.01 0 1.02 0 0 Z" fill="#68779A" transform="translate(44,17)"/>
<path d="M0 0 C1.32 0 2.64 0 4 0 C5.478 2.957 5.06 5.742 5 9 C4.67 8.34 4.34 7.68 4 7 C3.01 7.33 2.02 7.66 1 8 C0.67 5.36 0.34 2.72 0 0 Z" fill="#999999" transform="translate(74,6)"/>
<path d="M0 0 C4.95 0 9.9 0 15 0 C15.33 0.99 15.66 1.98 16 3 C14.35 3 12.7 3 11 3 C11 2.67 11 2.34 11 2 C8.36 1.67 5.72 1.34 3 1 C3 1.66 3 2.32 3 3 C1.68 3 0.36 3 -1 3 C-0.67 2.01 -0.34 1.02 0 0 Z" fill="#708CC6" transform="translate(23,2)"/>
<path d="M0 0 C2.062 0.438 2.062 0.438 4 1 C4 2.65 4 4.3 4 6 C2.062 6.562 2.062 6.562 0 7 C-1 6 -1 6 -1.125 3.5 C-1 1 -1 1 0 0 Z" fill="#D7D7D7" transform="translate(71,8)"/>
<path d="M0 0 C1.675 0.286 3.344 0.618 5 1 C4.67 2.32 4.34 3.64 4 5 C3.34 5 2.68 5 2 5 C2 5.66 2 6.32 2 7 C1.01 6.67 0.02 6.34 -1 6 C-1.043 4.334 -1.041 2.666 -1 1 C-0.67 0.67 -0.34 0.34 0 0 Z" fill="#707FA8" transform="translate(15,12)"/>
<path d="M0 0 C2.97 0 5.94 0 9 0 C9.33 1.32 9.66 2.64 10 4 C6.37 3.34 2.74 2.68 -1 2 C-0.67 1.34 -0.34 0.68 0 0 Z" fill="#6B89C6" transform="translate(48,3)"/>
<path d="M0 0 C1.32 0.33 2.64 0.66 4 1 C6.331 1.35 8.664 1.686 11 2 C7.865 3.858 5.625 4.201 2 4 C1.67 6.31 1.34 8.62 1 11 C0.67 11 0.34 11 0 11 C0 7.37 0 3.74 0 0 Z" fill="#7485AA" transform="translate(1,10)"/>
<path d="M0 0 C0.33 0 0.66 0 1 0 C1 1.65 1 3.3 1 5 C2.32 4.67 3.64 4.34 5 4 C5.33 5.32 5.66 6.64 6 8 C4.02 8 2.04 8 0 8 C0 5.36 0 2.72 0 0 Z" fill="#627191" transform="translate(2,13)"/>
<path d="M0 0 C0.66 0.33 1.32 0.66 2 1 C1.67 1.99 1.34 2.98 1 4 C-1.062 4.688 -1.062 4.688 -3 5 C-3.99 3.68 -4.98 2.36 -6 1 C-4.02 1.66 -2.04 2.32 0 3 C0 2.01 0 1.02 0 0 Z" fill="#7F91B6" transform="translate(58,4)"/>
<path d="M0 0 C0.66 1.32 1.32 2.64 2 4 C0.02 4.99 0.02 4.99 -2 6 C-2.33 5.01 -2.66 4.02 -3 3 C-2.01 2.01 -1.02 1.02 0 0 Z" fill="#8F8F8F" transform="translate(68,9)"/>
<path d="M0 0 C0.66 0.33 1.32 0.66 2 1 C2 1.66 2 2.32 2 3 C0.35 2.67 -1.3 2.34 -3 2 C-2.01 1.34 -1.02 0.68 0 0 Z" fill="#5A719A" transform="translate(6,17)"/>
<path d="M0 0 C1.32 0.99 2.64 1.98 4 3 C2.35 3 0.7 3 -1 3 C-0.67 2.01 -0.34 1.02 0 0 Z" fill="#5D7095" transform="translate(13,17)"/>
<path d="M0 0 C0.99 0.33 1.98 0.66 3 1 C3 1.66 3 2.32 3 3 C2.01 2.67 1.02 2.34 0 2 C0 1.34 0 0.68 0 0 Z" fill="#6173A2" transform="translate(14,16)"/>
</svg>
