<svg xmlns="http://www.w3.org/2000/svg" viewBox="0 0 48 48">
<path d="M0 0 C4.187 -0.082 8.374 -0.165 12.688 -0.25 C13.999 -0.286 15.311 -0.323 16.663 -0.36 C17.706 -0.37 18.749 -0.38 19.824 -0.391 C20.887 -0.412 21.95 -0.433 23.046 -0.454 C26.721 0.111 28.353 1.445 31 4 C32.433 6.866 32.306 8.813 32 12 C30 15.375 30 15.375 28 18 C28.619 18.247 29.237 18.495 29.875 18.75 C32.494 20.291 33.135 21.09 34 24 C33.859 27.96 33.602 30.237 31.125 33.375 C27.487 36.157 24.454 36.119 20.02 36.098 C18.971 36.095 17.923 36.093 16.843 36.09 C15.513 36.081 14.183 36.072 12.812 36.062 C8.584 36.042 4.356 36.021 0 36 C0 24.12 0 12.24 0 0 Z M11 8 C11 9.65 11 11.3 11 13 C13.97 13 16.94 13 20 13 C20.33 11.68 20.66 10.36 21 9 C19.992 7.767 19.992 7.767 17.934 7.902 C16.698 7.92 16.698 7.92 15.438 7.938 C14.198 7.951 14.198 7.951 12.934 7.965 C11.976 7.982 11.976 7.982 11 8 Z M11 22 C11 23.98 11 25.96 11 28 C14.3 28 17.6 28 21 28 C21.66 26.68 22.32 25.36 23 24 C21.188 21.757 21.188 21.757 18.617 21.805 C17.712 21.828 16.807 21.851 15.875 21.875 C14.965 21.893 14.055 21.911 13.117 21.93 C12.419 21.953 11.72 21.976 11 22 Z" fill="#106CC8" transform="translate(7,6)"/>
</svg>
