<svg xmlns="http://www.w3.org/2000/svg" viewBox="0 0 2640 1452">
<path d="M0 0 C1.466 1.915 1.466 1.915 3.273 4.738 C3.99 5.84 4.706 6.942 5.444 8.077 C5.849 8.7 6.253 9.324 6.669 9.966 C9.186 13.813 11.774 17.612 14.352 21.418 C15.533 23.167 16.714 24.915 17.895 26.664 C18.502 27.564 19.11 28.464 19.737 29.392 C29.198 43.401 38.64 57.423 48 71.5 C57.193 85.325 66.468 99.094 75.759 112.853 C85.223 126.869 94.653 140.906 104 155 C102.636 158.188 101.254 159.861 98.457 161.891 C97.359 162.695 97.359 162.695 96.238 163.516 C95.438 164.088 94.637 164.66 93.812 165.25 C92.975 165.857 92.138 166.464 91.276 167.089 C75.105 178.759 58.672 190.06 42 201 C41.313 201.451 40.626 201.903 39.918 202.368 C14.593 218.981 -11.405 234.507 -38 249 C-38.989 249.542 -39.977 250.084 -40.996 250.643 C-111.22 289.083 -186.122 317.837 -432.09 371.121 C-517.925 383.115 -601.804 400.442 -685.98 429.307 C-687.9 429.966 -689.821 430.621 -691.743 431.276 C-777.998 460.796 -860.586 504.254 -981.504 599.723 C-983.724 601.748 -985.974 603.726 -988.25 605.688 C-991.397 608.419 -994.327 611.306 -997.246 614.277 C-998.959 615.96 -1000.731 617.511 -1002.562 619.062 C-1011.121 626.451 -1019.19 634.653 -1026.496 643.277 C-1028.091 645.104 -1029.77 646.801 -1031.5 648.5 C-1035.212 652.163 -1038.608 656.041 -1042 660 C-1042.864 660.998 -1043.727 661.995 -1044.617 663.023 C-1057.38 677.792 -1069.637 692.851 -1081.212 708.573 C-1082.355 710.124 -1083.501 711.674 -1084.651 713.22 C-1107.028 743.32 -1126.808 775.684 -1144 809 C-1144.332 809.642 -1144.663 810.283 -1145.005 810.944 C-1172.802 864.766 -1194.424 921.452 -1210 980 C-1210.208 980.78 -1210.416 981.56 -1210.63 982.363 C-1220.439 1019.311 -1227.728 1056.545 -1233.555 1094.316 C-1233.672 1095.074 -1233.789 1095.832 -1233.91 1096.613 C-1235.045 1104.064 -1236.003 1111.525 -1237 1119 C-1186.84 1118.67 -1136.68 1118.34 -1085 1118 C-1083.02 1105.79 -1081.04 1093.58 -1079 1081 C-1077.777 1074.659 -1076.543 1068.357 -1075.125 1062.062 C-1074.96 1061.316 -1074.795 1060.569 -1074.624 1059.799 C-1061.524 1000.598 -1041.021 944.242 -1014 890 C-1013.468 888.927 -1012.936 887.853 -1012.388 886.747 C-1004.365 870.646 -995.359 855.28 -985.871 840.015 C-984.296 837.478 -982.737 834.932 -981.188 832.379 C-971.144 815.909 -959.749 800.288 -948 785 C-947.535 784.395 -947.07 783.789 -946.591 783.166 C-941.215 776.193 -935.697 769.364 -929.973 762.674 C-927.185 759.416 -924.481 756.107 -921.812 752.75 C-910.348 738.766 -897.258 726.161 -884.5 713.375 C-883.796 712.669 -883.093 711.962 -882.368 711.235 C-880.321 709.182 -878.271 707.133 -876.219 705.086 C-875.307 704.171 -875.307 704.171 -874.376 703.238 C-870.079 698.963 -865.598 694.948 -861 691 C-859.918 690.061 -858.836 689.123 -857.754 688.184 C-820.424 656 -820.424 656 -816 656 C-816 655.34 -816 654.68 -816 654 C-813.947 652.419 -813.947 652.419 -811.051 650.543 C-809.453 649.502 -809.453 649.502 -807.824 648.441 C-806.654 647.689 -805.483 646.938 -804.312 646.188 C-803.116 645.414 -801.919 644.64 -800.723 643.866 C-790.24 637.097 -779.688 630.443 -769 624 C-768.102 623.458 -767.205 622.917 -766.28 622.359 C-705.036 585.604 -639.079 557.272 -570 539 C-568.877 538.703 -567.755 538.406 -566.598 538.1 C-510.031 523.349 -453.54 518 -395 518 C-395 579.38 -395 640.76 -395 704 C-405.56 704.33 -416.12 704.66 -427 705 C-498.914 709.249 -565.886 729.911 -630 762 C-631.072 762.532 -632.144 763.064 -633.249 763.612 C-650.42 772.167 -666.73 781.872 -683 792 C-684.821 793.122 -686.643 794.243 -688.465 795.363 C-716.218 812.537 -740.91 833.722 -763.947 856.761 C-765.691 858.504 -767.444 860.238 -769.197 861.973 C-775.197 867.944 -780.855 873.977 -786.096 880.635 C-788.009 883.011 -790.027 885.225 -792.125 887.438 C-798.684 894.647 -804.342 902.585 -810.11 910.429 C-811.321 912.077 -812.535 913.722 -813.753 915.364 C-827.361 933.708 -839.006 952.993 -850 973 C-850.709 974.279 -850.709 974.279 -851.433 975.583 C-883.776 1034.15 -901.201 1100.634 -907 1167 C-907.088 1167.962 -907.175 1168.924 -907.265 1169.916 C-908.28 1182.767 -908.206 1195.643 -908.27 1208.527 C-908.289 1211.959 -908.313 1215.391 -908.337 1218.824 C-908.407 1228.99 -908.467 1239.157 -908.526 1249.324 C-908.573 1257.268 -908.622 1265.212 -908.678 1273.156 C-908.701 1276.567 -908.723 1279.978 -908.74 1283.388 C-908.759 1287.173 -908.784 1290.957 -908.811 1294.742 C-908.815 1295.874 -908.819 1297.006 -908.823 1298.173 C-908.832 1299.196 -908.84 1300.219 -908.849 1301.273 C-908.854 1302.167 -908.859 1303.061 -908.864 1303.982 C-909 1306 -909 1306 -910 1307 C-912.767 1307.099 -915.508 1307.132 -918.275 1307.123 C-919.599 1307.125 -919.599 1307.125 -920.95 1307.127 C-923.945 1307.129 -926.941 1307.125 -929.937 1307.12 C-932.091 1307.121 -934.245 1307.122 -936.399 1307.123 C-942.349 1307.125 -948.298 1307.121 -954.248 1307.116 C-960.652 1307.112 -967.056 1307.113 -973.46 1307.114 C-984.566 1307.114 -995.672 1307.111 -1006.778 1307.106 C-1018.43 1307.1 -1030.082 1307.096 -1041.734 1307.095 C-1042.819 1307.095 -1042.819 1307.095 -1043.927 1307.095 C-1047.601 1307.094 -1051.276 1307.094 -1054.95 1307.094 C-1081 1307.092 -1107.049 1307.085 -1133.098 1307.075 C-1158.409 1307.066 -1183.721 1307.059 -1209.032 1307.055 C-1209.812 1307.055 -1210.592 1307.055 -1211.395 1307.055 C-1219.226 1307.053 -1227.056 1307.052 -1234.887 1307.051 C-1250.84 1307.048 -1266.792 1307.045 -1282.745 1307.042 C-1283.478 1307.042 -1284.212 1307.042 -1284.968 1307.042 C-1333.978 1307.033 -1382.989 1307.017 -1432 1307 C-1432.071 1289.706 -1432.123 1272.411 -1432.155 1255.117 C-1432.171 1247.081 -1432.191 1239.045 -1432.226 1231.008 C-1432.384 1193.898 -1432.186 1157.008 -1429 1120 C-1428.926 1119.137 -1428.852 1118.275 -1428.775 1117.386 C-1421.174 1029.647 -1402.847 942.887 -1327 749 C-1326.407 747.787 -1325.814 746.574 -1325.222 745.361 C-1317.538 729.657 -1309.587 714.172 -1300.782 699.06 C-1299.514 696.882 -1298.25 694.702 -1296.991 692.519 C-1288.507 677.802 -1279.855 663.249 -1270.414 649.118 C-1269.09 647.134 -1267.777 645.143 -1266.469 643.148 C-1246.469 612.751 -1224.664 583.536 -1201.079 555.83 C-1198.224 552.472 -1195.441 549.068 -1192.688 545.625 C-1187.82 539.635 -1182.531 534.067 -1177.238 528.457 C-1174.239 525.273 -1171.356 522.004 -1168.504 518.688 C-1166.38 516.305 -1164.103 514.091 -1161.825 511.857 C-1160.137 510.139 -1158.581 508.373 -1157.027 506.535 C-1152.474 501.3 -1147.57 496.42 -1142.657 491.527 C-1141.065 489.94 -1139.479 488.348 -1137.893 486.756 C-1132.938 481.798 -1127.938 476.947 -1122.607 472.389 C-1120.636 470.686 -1118.809 468.873 -1117 467 C-1113.829 463.786 -1110.544 460.782 -1107.121 457.84 C-1104.775 455.805 -1102.483 453.717 -1100.188 451.625 C-1095.894 447.75 -1091.469 444.078 -1086.973 440.441 C-1083.662 437.723 -1080.425 434.929 -1077.188 432.125 C-1071.437 427.161 -1065.542 422.424 -1059.543 417.766 C-1056.566 415.452 -1053.628 413.094 -1050.698 410.723 C-1044.288 405.543 -1037.778 400.511 -1031.188 395.562 C-1030.443 395.003 -1029.698 394.443 -1028.931 393.866 C-1026.297 391.898 -1023.651 389.947 -1021 388 C-1020.375 387.541 -1019.749 387.081 -1019.105 386.608 C-1007.497 378.1 -995.68 369.956 -983.688 362 C-982.835 361.433 -981.982 360.866 -981.104 360.282 C-968.55 351.94 -955.963 343.697 -943 336 C-942.079 335.45 -941.157 334.9 -940.208 334.334 C-925.35 325.491 -910.276 317.097 -895 309 C-893.896 308.411 -892.792 307.822 -891.654 307.215 C-873.076 297.33 -854.181 288.345 -834.929 279.852 C-833.099 279.044 -831.272 278.232 -829.445 277.419 C-744.906 239.934 -655.055 215.055 -478.015 184.581 C-475.448 184.2 -472.88 183.819 -470.312 183.438 C-469.049 183.25 -467.786 183.062 -466.485 182.869 C-401.091 173.138 -335.934 160.562 -273 140 C-272.223 139.746 -271.445 139.493 -270.645 139.231 C-210.995 119.707 -153.134 94.054 -99.187 61.889 C-95.69 59.816 -92.177 57.771 -88.66 55.73 C-86.749 54.619 -84.838 53.507 -82.927 52.396 C-81.719 51.694 -80.511 50.993 -79.302 50.294 C-69.319 44.514 -59.641 38.329 -50 32 C-49.129 31.429 -48.257 30.858 -47.359 30.269 C-41.614 26.502 -35.874 22.726 -30.138 18.945 C-27.147 16.973 -24.155 15.004 -21.162 13.035 C-19.247 11.774 -17.333 10.512 -15.418 9.25 C-14.529 8.666 -13.641 8.081 -12.726 7.479 C-11.9 6.934 -11.074 6.39 -10.223 5.828 C-9.502 5.353 -8.78 4.877 -8.037 4.388 C-6.61 3.416 -5.22 2.388 -3.861 1.323 C-2 0 -2 0 0 0 Z" fill="#000000" transform="translate(2477,67)"/>
<path d="M0 0 C5.003 1.642 8.926 4.564 13.188 7.562 C88.03 59.478 168.425 104.004 254.646 133.838 C256.816 134.59 258.985 135.347 261.151 136.111 C336.472 162.634 415.767 175.466 494.474 187.154 C527.784 192.103 560.991 197.272 594 204 C594.944 204.192 595.888 204.384 596.86 204.582 C668.535 219.222 739.34 238.98 807 267 C808.199 267.496 809.399 267.991 810.634 268.502 C845.137 282.849 879.031 298.869 911.415 317.526 C914.514 319.293 917.644 320.998 920.78 322.7 C932.845 329.269 944.416 336.624 956 344 C956.783 344.496 957.565 344.993 958.372 345.504 C984.481 362.092 1009.505 380.127 1034 399 C1034.745 399.572 1035.49 400.143 1036.257 400.732 C1038.238 402.253 1040.214 403.781 1042.188 405.312 C1042.758 405.75 1043.328 406.188 1043.915 406.639 C1046.475 408.641 1048.175 410.263 1050 413 C1041.515 421.658 1041.515 421.658 1037.375 425.062 C1034.231 427.689 1031.663 430.612 1029.016 433.73 C1026.617 436.431 1024.072 438.966 1021.5 441.5 C1017.752 445.203 1014.156 448.976 1010.734 452.984 C1008.741 455.301 1006.684 457.554 1004.625 459.812 C1000.73 464.129 997.031 468.574 993.375 473.094 C991.284 475.653 989.159 478.176 987.012 480.688 C980.796 487.966 974.842 495.419 969 503 C968.092 504.177 968.092 504.177 967.167 505.377 C950.255 527.342 934.258 549.86 919 573 C918.594 573.613 918.188 574.226 917.769 574.857 C898.536 603.93 881.426 634.274 865 665 C864.496 665.938 863.992 666.876 863.473 667.842 C855.352 682.989 847.951 698.42 840.87 714.078 C839.986 716.031 839.097 717.983 838.207 719.934 C817.251 765.942 800.327 813.543 786 862 C781.698 862 779.733 859.429 776.688 856.688 C775.413 855.569 774.137 854.454 772.859 853.34 C772.212 852.775 771.564 852.21 770.896 851.628 C766.41 847.776 761.722 844.18 757.038 840.574 C754.782 838.831 752.538 837.073 750.293 835.316 C737.286 825.203 723.805 815.985 710 807 C708.41 805.956 706.82 804.912 705.23 803.867 C696.291 798.011 687.249 792.356 678 787 C677.14 786.502 676.28 786.003 675.394 785.49 C608.129 746.72 534.908 719.535 402.148 705.29 C397.193 705.097 397.193 705.097 395 704 C395 642.62 395 581.24 395 518 C434.843 518 434.843 518 450.062 519.188 C450.943 519.253 451.823 519.318 452.729 519.385 C529.747 525.131 606.441 540.974 677 573 C677.891 573.398 678.781 573.796 679.699 574.206 C692.607 579.985 704.822 586.82 717 594 C718.009 591.839 719.018 589.677 720.027 587.516 C720.343 586.84 720.658 586.165 720.983 585.469 C722.61 581.984 724.234 578.498 725.852 575.01 C741.583 541.104 758.337 508.325 779.402 477.357 C781.958 473.587 784.479 469.794 787 466 C786.174 465.758 785.347 465.515 784.496 465.266 C780.426 463.792 776.844 461.834 773.062 459.75 C698.106 419.515 613.842 398.77 471.011 376.659 C379.83 363.069 289.524 346.385 32.805 245.569 C29.702 243.833 26.584 242.124 23.465 240.418 C8.726 232.335 -5.757 223.927 -20 215 C-20.997 214.375 -21.994 213.75 -23.021 213.106 C-44.085 199.857 -64.781 185.998 -84.977 171.455 C-86.403 170.429 -87.833 169.409 -89.266 168.393 C-91.541 166.776 -93.803 165.14 -96.062 163.5 C-96.761 163.007 -97.459 162.514 -98.178 162.007 C-100.098 160.594 -100.098 160.594 -103 158 C-103 153.882 -102.783 153.174 -100.639 149.951 C-100.119 149.16 -99.599 148.368 -99.064 147.553 C-98.49 146.7 -97.916 145.847 -97.324 144.969 C-96.732 144.074 -96.141 143.18 -95.531 142.258 C-93.592 139.333 -91.64 136.416 -89.688 133.5 C-88.339 131.473 -86.992 129.445 -85.645 127.416 C-76.807 114.126 -67.885 100.893 -58.888 87.71 C-52.789 78.766 -46.741 69.788 -40.688 60.812 C-40.069 59.895 -39.45 58.978 -38.812 58.033 C-27.822 41.736 -16.894 25.398 -6.013 9.028 C-4.011 6.017 -2.006 3.008 0 0 Z" fill="#000000" transform="translate(154,67)"/>
</svg>
