<svg xmlns="http://www.w3.org/2000/svg" viewBox="0 0 61 99"><defs><style>.cls-1{fill:#f9520c;}.cls-2{fill:#c5c5c5;}</style></defs><g id="Layer_2" data-name="Layer 2"><g id="Layer_2-2" data-name="Layer 2"><path class="cls-1" d="M.86,55.09,30.89,0H44.83c-.66.23-8,3.6-10.08,6.17C25.53,17.43,24.58,22.08.86,55.09Z"/><polyline class="cls-2" points="1.44 60.22 49.22 0 61 0 61 1.89 4.99 64.52"/><polygon class="cls-2" points="13.02 60.25 19.52 53.02 37.42 99 25.11 99 13.02 60.25"/><polygon class="cls-2" points="0 99 5.87 68.19 9.89 63.72 14.33 99 0 99"/><polygon class="cls-2" points="23.98 48.07 29.39 42.05 59.89 73.11 59.89 99 50.22 99 23.98 48.07"/><polygon class="cls-2" points="34.74 36.11 42.81 27.14 61 29.67 61 56.22 34.74 36.11"/></g></g></svg>