<?xml version="1.0" encoding="utf-8"?>
<svg viewBox="0 0 420 420" height="420" width="420" id="svg2" version="1.1" xmlns="http://www.w3.org/2000/svg">
  <g transform="matrix(1.3333333,0,0,-1.3333333,0,1000)" id="g10">
    <g id="g12">
      <g clip-path="url(#clipPath18)" id="g14">
        <g transform="translate(133.1084,303.5889)" id="g20">
          <path id="path22" style="fill:#e60012;fill-opacity:1;fill-rule:nonzero;stroke:none" d="M -22.5 215.25 C -21.804 216.09 -20.356 216.324 -19.628 215.395 C -15.063 210.814 -10.479 206.253 -5.917 201.673 C -5.15 201.018 -5.352 199.969 -5.762 199.176 C -15.891 199.201 -26.02 199.205 -36.146 199.172 C -36.545 199.973 -36.563 200.978 -35.9 201.645 C -31.443 206.185 -26.946 210.695 -22.5 215.25 M -21.919 272.673 C -21.181 273.084 -20.211 272.925 -19.664 272.273 C -15.16 267.769 -10.659 263.265 -6.151 258.761 C -5.344 258.104 -5.197 256.768 -6.022 256.062 C -10.519 251.543 -15.044 247.05 -19.538 242.527 C -20.075 241.757 -21.307 241.454 -21.995 242.186 C -26.727 246.935 -31.642 251.521 -36.318 256.311 C -36.928 257.341 -36.236 258.501 -35.432 259.175 C -30.867 263.607 -26.557 268.335 -21.919 272.673 M -21.913 330.65 C -21.188 330.95 -20.356 330.719 -19.858 330.125 C -15.297 325.548 -10.713 320.99 -6.159 316.41 C -5.449 315.787 -5.647 314.616 -6.321 314.039 C -10.709 309.528 -15.146 305.067 -19.578 300.595 C -20.219 299.781 -21.57 299.377 -22.359 300.203 C -26.943 304.757 -31.501 309.337 -36.07 313.902 C -36.834 314.515 -37.036 315.841 -36.218 316.489 C -31.703 320.99 -27.195 325.498 -22.691 330.013 C -22.46 330.261 -22.201 330.474 -21.913 330.65 M 1.538 373.93 C 18.539 374.096 35.546 374.092 52.547 373.934 C 66.297 373.39 79.723 367.351 89.315 357.502 C 94.118 352.479 97.931 346.44 99.981 339.781 C 103.71 327.833 101.545 314.421 95.026 303.834 C 90.659 296.732 84.35 290.834 76.959 286.964 C 87.427 282.092 96.057 273.274 100.287 262.493 C 105.246 250.033 104.492 235.396 98.158 223.56 C 92.63 212.97 82.75 204.761 71.324 201.28 C 67.346 200.066 63.206 199.381 59.047 199.28 C 47.632 199.276 36.22 199.288 24.805 199.276 C 17.144 199.489 9.476 199.284 1.815 199.403 C 0.814 199.72 1.16 201.169 1.855 201.677 C 9.7 209.467 17.411 217.387 25.262 225.17 C 25.951 225.92 27.197 225.747 27.803 224.979 C 33.06 219.653 38.461 214.476 43.711 209.15 C 44.558 208.274 45.837 207.547 47.084 207.95 C 48.302 208.285 49.019 209.398 49.873 210.238 C 54.86 215.229 59.851 220.22 64.841 225.206 C 65.62 225.999 66.546 226.741 66.895 227.837 C 67.263 228.893 67 230.14 66.236 230.95 C 60.24 236.982 54.204 242.975 48.14 248.935 C 46.835 250.026 44.724 249.867 43.61 248.577 C 38.735 243.602 33.81 238.676 28.887 233.75 C 28.322 233.234 27.813 232.445 26.952 232.496 C 26.225 232.539 25.713 233.094 25.237 233.569 C 17.594 241.306 9.811 248.902 2.136 256.599 C 1.397 257.229 1.361 258.462 2.089 259.113 C 9.768 266.814 17.472 274.496 25.158 282.193 C 25.907 283.101 27.403 283.26 28.159 282.275 C 33.355 277.022 38.656 271.877 43.881 266.655 C 44.929 265.563 46.872 265.441 47.931 266.587 C 53.203 271.891 58.583 277.083 63.836 282.405 C 64.711 283.339 65.742 284.143 66.466 285.205 C 67.273 286.495 66.899 288.272 65.778 289.255 C 59.887 295.136 53.938 300.956 48.018 306.807 C 46.81 308.025 44.684 307.885 43.636 306.534 C 38.238 301.139 32.934 295.651 27.489 290.304 C 26.596 289.367 25.144 289.882 24.43 290.772 C 16.957 298.325 9.35 305.737 1.852 313.265 C 1.105 313.877 0.958 315.063 1.65 315.772 C 9.613 323.779 17.559 331.807 25.504 339.832 C 26.207 340.754 27.684 340.661 28.426 339.839 C 33.741 334.564 39.045 329.281 44.407 324.053 C 45.538 322.828 47.56 323.123 48.655 324.248 C 54.554 330.135 60.449 336.03 66.336 341.929 C 67.598 343.194 67.49 345.414 66.21 346.631 C 60.37 352.436 54.475 358.187 48.659 364.018 C 47.967 364.687 47.059 365.235 46.064 365.134 C 44.706 365.127 43.877 363.924 42.991 363.084 C 39.892 360.05 36.937 356.879 33.845 353.842 C 32.055 352.022 30.199 350.271 28.484 348.379 C 27.976 347.864 27.421 347.237 26.625 347.266 C 25.529 347.248 24.866 348.213 24.152 348.887 C 16.668 356.421 9.04 363.812 1.596 371.386 C 0.958 372.114 1.232 373.126 1.538 373.93 M -36.052 373.959 C -25.995 373.93 -15.935 373.988 -5.877 373.93 C -5.182 373.469 -5.049 372.363 -5.741 371.826 C -10.303 367.142 -14.904 362.49 -19.52 357.859 C -20.201 356.998 -21.621 357.081 -22.276 357.924 C -26.834 362.515 -31.433 367.062 -35.983 371.656 C -36.628 372.276 -36.539 373.278 -36.052 373.959 M 22.373 408.875 C 1.026 408.245 -20.122 401.885 -38.243 390.574 C -59.729 377.26 -76.946 357.164 -86.697 333.833 C -92.801 319.336 -96.037 303.64 -96.173 287.912 C -96.422 268.623 -91.986 249.291 -83.324 232.049 C -71.483 208.281 -51.698 188.557 -27.843 176.871 C -1.143 163.528 30.548 160.707 59.245 168.843 C 72.992 172.702 86.032 179.029 97.599 187.4 C 118.927 202.736 135.121 225.095 142.911 250.191 C 152.38 280.251 149.624 313.981 135.149 342.001 C 122.704 366.586 101.667 386.679 76.563 398.029 C 59.652 405.748 40.948 409.441 22.373 408.875 M 22.535 429.533 L 29.694 429.533 C 47.809 429.021 65.854 425.209 82.508 418.021 C 106.615 407.726 127.734 390.603 142.854 369.195 C 159.627 345.629 168.927 316.835 169.039 287.904 C 169.229 272.641 166.917 257.348 162.253 242.812 C 154.755 219.322 140.979 197.907 122.804 181.253 C 105.851 165.661 85.07 154.242 62.784 148.397 C 53.008 145.789 42.951 144.33 32.854 143.789 L 19.346 143.789 C 4.01 144.571 -11.221 147.691 -25.541 153.266 C -48.588 162.155 -69.206 177.192 -84.783 196.361 C -93.687 207.28 -100.952 219.531 -106.273 232.575 C -112.828 248.566 -116.309 265.766 -116.799 283.029 L -116.799 290.214 C -116.478 299.882 -115.343 309.535 -113.142 318.961 C -109.841 333.295 -104.288 347.107 -96.75 359.737 C -86.726 376.597 -73.177 391.341 -57.239 402.775 C -44.105 412.223 -29.35 419.411 -13.809 423.905 C -2 427.346 10.251 429.155 22.535 429.533"/>
        </g>
        <g transform="translate(638.2227,329.8936)" id="g24"/>
      </g>
    </g>
  </g>
</svg>