<svg xmlns="http://www.w3.org/2000/svg" viewBox="8 -15 55 55" role="img" aria-label="Capital Futures">
  <path d="M50.536,4.756a7.382,7.382,0,0,1-3.948,1.022H45.7a11.332,11.332,0,0,1-2.248-.186,23.9,23.9,0,0,0-2.432-.157s-1.883-.052-2.146.837c0,0-.288.655,1.491.6l1.152-.056.679-.024a.308.308,0,0,1,.158,0,.054.054,0,0,1,.05.052c0,.028,0,.028-.025.053a.283.283,0,0,1-.052.156.556.556,0,0,1-.105.131c-.053.051-.1.105-.131.131a.777.777,0,0,1-.157.1l-.157.1a1.558,1.558,0,0,1-.837.107A5.089,5.089,0,0,1,40,7.346l-.342-.132a3.552,3.552,0,0,0-.967-.236,4.831,4.831,0,0,0-3.06.627s-1.751,1.02-1.411,2.406l.026.08s.052.1.157-.054a3.1,3.1,0,0,1,2.694-1.019,3.5,3.5,0,0,1,2.483.81,5.3,5.3,0,0,1,1.805,2.3,13.235,13.235,0,0,1,.734,3.19s.366,2.8.366,4.368c0,0-.052,5.151-.08,5.806l-.025.757.025.106s-.076.077.132.051h17.13s.157-.051,0-.183a12.294,12.294,0,0,1-3.818-3.27,5.9,5.9,0,0,1-.6-.888,13.981,13.981,0,0,1-1.332-2.824s-.419-1.541-.5-2.064c0,0-.261-1.359-.287-1.44a19.345,19.345,0,0,0-.941-2.823s-.262-.55-.576-1.151c-.288-.5-.6-1.048-.759-1.256a14.487,14.487,0,0,0-1.333-1.832,2.4,2.4,0,0,0-.21-.233,8.907,8.907,0,0,0-.679-.708.168.168,0,0,1,0-.233A3.761,3.761,0,0,0,49.8,6.3s.627-1.046.732-1.334l.08-.183s.026-.1-.08-.025" transform="translate(-17.087 -2.364)" fill="#a30027"/>
  <path d="M33.194,25.8c0-.025-.1,0-.159,0,0,0-1.8.208-4.367.235,0,0-3.3.157-5.466.026,0,0-2.9-.13-3.975-.157l-1.1-.077s-.182,0-.157.1A9.179,9.179,0,0,0,18,28.389a13.4,13.4,0,0,0,.888,2.745,11.6,11.6,0,0,0,1.83,2.641,9.829,9.829,0,0,0,2.85,2.1,7.833,7.833,0,0,0,2.616.887,11.844,11.844,0,0,0,1.569.183s1.882.053,2.249,0h3.113s.1.027.1-.1c0,0,.026-.079-.13-.079H31.232s-.105,0-1.1-.181a10.571,10.571,0,0,1-1.857-.655,9.225,9.225,0,0,1-1.832-1.308,8.141,8.141,0,0,1-1.385-2.144,3.794,3.794,0,0,1-.1-.759,2.422,2.422,0,0,1,.287-1.019,2.467,2.467,0,0,1,1.178-1.02,1.044,1.044,0,0,1,.234-.08c.1-.05.262-.1.236-.077a1.732,1.732,0,0,1,.418-.132,10.174,10.174,0,0,0,2.249-.94,19.324,19.324,0,0,0,1.778-1.074s1.387-1.047,1.545-1.229l.234-.236a.524.524,0,0,0,.08-.1" transform="translate(-8.949 -12.894)" fill="#a30027"/>
  <path d="M99.041,1.177s-4.133,2.431-5.152,2.85c0,0-3.243,1.621-5.729,2.694,0,0-5.177,2.2-7.034,2.667,0,0-3.688,1.176-5.178,1.543a20.488,20.488,0,0,1-2.354.524.078.078,0,0,0-.1.051s.653,2.249.733,2.745A10.484,10.484,0,0,1,74.38,15.3a2.752,2.752,0,0,0,.079.418s.026.158.078.446a10.573,10.573,0,0,0,2.275,4.6,13.517,13.517,0,0,0,2.668,2.3,8.083,8.083,0,0,0,3.347,1.306c.209.053.6.106.837.159,0,0,.209,0,.549.024a21.043,21.043,0,0,0,2.8-.13,10.767,10.767,0,0,0,4.027-1.647,10.463,10.463,0,0,0,2.406-2.2s.182-.261.314-.47c.078-.106.105-.157.105-.185,0,0,.052-.1.1-.184.027-.1.078-.183.105-.289-.027.055-.131.132-.209.238,0,0-.105.077-.131.1A9.065,9.065,0,0,1,90.7,21.548l-.312.08s-.08.023-.21.055c-.1.024-.183.051-.338.076a2.992,2.992,0,0,0-.446.053l-.629.024H87.9l-.417-.024a1.537,1.537,0,0,1-.366-.077,9.23,9.23,0,0,1-2.433-.866,11.921,11.921,0,0,1-1.019-.652,3.121,3.121,0,0,1-.55-.473,2.667,2.667,0,0,1-.6-1.516,2.157,2.157,0,0,1,1.175-2.145s2.59-1.176,3.138-1.542a33.256,33.256,0,0,0,4.03-2.67A29.925,29.925,0,0,0,94.2,8.734a32.043,32.043,0,0,0,2.2-2.773s1.517-2.3,1.647-2.587c0,0,.837-1.57,1.02-1.988" transform="translate(-36.745 -0.588)" fill="#a30027"/>
</svg>
