<svg xmlns="http://www.w3.org/2000/svg" viewBox="0 0 256 256">
<path d="M0 0 C25.804 -0.609 45.672 8.545 64.125 25.828 C66.195 27.895 68.235 29.979 70.23 32.117 C67.936 37.365 63.796 40.881 59.793 44.867 C59.016 45.66 58.24 46.453 57.439 47.27 C56.691 48.018 55.943 48.767 55.172 49.539 C54.488 50.226 53.804 50.913 53.1 51.62 C51.23 53.117 51.23 53.117 48.23 53.117 C46.828 51.684 46.828 51.684 45.293 49.68 C36.176 38.897 25.133 33.015 11.23 31.117 C-5.458 30.123 -19.61 32.981 -32.503 43.958 C-43.443 53.724 -50.415 67.589 -52.77 82.117 C-52.985 86.437 -52.998 90.756 -53.01 95.08 C-53.019 97.149 -53.05 99.218 -53.082 101.287 C-53.204 116.47 -49.861 131.709 -39.906 143.594 C-38.77 145.117 -38.77 145.117 -38.77 147.117 C-38.13 147.385 -37.491 147.653 -36.832 147.93 C-34.77 149.117 -34.77 149.117 -33.77 152.117 C-32.086 153.155 -32.086 153.155 -29.77 154.117 C-28.587 154.736 -27.407 155.362 -26.23 155.992 C-10.969 164.002 3.826 166.538 20.855 161.867 C32.34 157.727 41.083 149.958 50.23 142.117 C56.83 148.717 63.43 155.317 70.23 162.117 C62.574 177.429 45.693 186.375 30.25 191.891 C11.937 197.774 -10.667 197.68 -28.77 191.117 C-29.837 190.743 -30.904 190.37 -32.004 189.984 C-52.964 181.951 -68.026 166.016 -77.77 146.117 C-90.052 118.556 -90.541 85.541 -80.52 57.242 C-71.01 34.589 -54.632 15.967 -31.77 6.117 C-28.68 5.066 -25.559 4.224 -22.395 3.43 C-21.555 3.215 -20.716 3.001 -19.851 2.781 C-13.176 1.124 -6.858 0.29 0 0 Z" fill="#062454" transform="translate(98.76953125,37.8828125)"/>
<path d="M0 0 C3.363 1.457 5.545 3.311 8.109 5.914 C8.863 6.675 9.618 7.435 10.395 8.219 C11.172 9.013 11.949 9.807 12.75 10.625 C13.543 11.427 14.336 12.229 15.152 13.055 C17.106 15.032 19.055 17.014 21 19 C18.764 24.043 14.963 27.444 11.125 31.312 C10.404 32.066 9.684 32.819 8.941 33.596 C8.241 34.303 7.541 35.01 6.82 35.738 C6.184 36.388 5.547 37.038 4.891 37.708 C3 39 3 39 0.937 38.833 C-4.638 36.436 -8.479 31.445 -12.32 26.938 C-14.436 24.497 -16.682 22.248 -19 20 C-13.082 12.915 -6.569 6.472 0 0 Z" fill="#08A833" transform="translate(176,23)"/>
<path d="M0 0 C3.363 1.457 5.545 3.311 8.109 5.914 C8.863 6.675 9.618 7.435 10.395 8.219 C11.172 9.013 11.949 9.807 12.75 10.625 C13.543 11.427 14.336 12.229 15.152 13.055 C17.106 15.032 19.055 17.014 21 19 C16.953 23.836 12.751 28.458 8.312 32.938 C7.745 33.526 7.177 34.114 6.592 34.721 C5.119 36.207 3.565 37.611 2 39 C-1 39 -1 39 -2.438 37.637 C-2.953 36.993 -3.469 36.35 -4 35.688 C-7.14 31.926 -10.46 28.444 -13.938 25 C-14.434 24.507 -14.931 24.014 -15.443 23.507 C-16.627 22.336 -17.813 21.168 -19 20 C-16.655 16.286 -14.459 13.228 -11.062 10.438 C-7.871 7.751 -4.906 4.991 -2 2 C-1.34 1.34 -0.68 0.68 0 0 Z" fill="#04A72F" transform="translate(205,52)"/>
<path d="M0 0 C3.363 1.457 5.545 3.311 8.109 5.914 C8.863 6.675 9.618 7.435 10.395 8.219 C11.172 9.013 11.949 9.807 12.75 10.625 C13.543 11.427 14.336 12.229 15.152 13.055 C17.106 15.032 19.055 17.014 21 19 C18.764 24.043 14.963 27.444 11.125 31.312 C10.404 32.066 9.684 32.819 8.941 33.596 C8.241 34.303 7.541 35.01 6.82 35.738 C6.184 36.388 5.547 37.038 4.891 37.708 C3 39 3 39 1.018 38.942 C-1.558 37.74 -3.122 36.217 -5.109 34.184 C-5.863 33.42 -6.618 32.656 -7.395 31.869 C-8.172 31.067 -8.949 30.264 -9.75 29.438 C-10.543 28.631 -11.336 27.825 -12.152 26.994 C-14.108 25.003 -16.057 23.005 -18 21 C-16.614 17.866 -15.009 15.782 -12.559 13.398 C-11.56 12.416 -11.56 12.416 -10.541 11.414 C-9.847 10.741 -9.153 10.068 -8.438 9.375 C-7.059 8.031 -5.683 6.685 -4.309 5.336 C-3.393 4.447 -3.393 4.447 -2.459 3.541 C-0.902 2.046 -0.902 2.046 0 0 Z" fill="#05A730" transform="translate(176,80)"/>
<path d="M0 0 C0.66 0.33 1.32 0.66 2 1 C1.34 2.32 0.68 3.64 0 5 C-0.66 5 -1.32 5 -2 5 C-2.268 5.639 -2.536 6.279 -2.812 6.938 C-4 9 -4 9 -7 10 C-7.309 10.928 -7.619 11.856 -7.938 12.812 C-9.076 16.227 -10.319 17.676 -13 20 C-13.99 19.67 -14.98 19.34 -16 19 C-11.081 12.207 -6.218 5.678 0 0 Z" fill="#35496B" transform="translate(43,59)"/>
<path d="M0 0 C3.363 1.457 5.545 3.311 8.109 5.914 C8.863 6.675 9.618 7.435 10.395 8.219 C11.172 9.013 11.949 9.807 12.75 10.625 C13.543 11.427 14.336 12.229 15.152 13.055 C17.106 15.032 19.055 17.014 21 19 C20.67 19.99 20.34 20.98 20 22 C19.452 21.295 18.904 20.59 18.34 19.863 C15.87 16.841 13.278 13.986 10.562 11.188 C10.098 10.685 9.633 10.183 9.154 9.666 C6.826 7.279 5.523 6.059 2.152 5.676 C1.087 5.836 1.087 5.836 0 6 C0 5.34 0 4.68 0 4 C-0.66 3.67 -1.32 3.34 -2 3 C-1.34 2.01 -0.68 1.02 0 0 Z" fill="#1BA042" transform="translate(176,80)"/>
<path d="M0 0 C0.99 0.33 1.98 0.66 3 1 C2.01 1.495 2.01 1.495 1 2 C1 2.66 1 3.32 1 4 C-0.679 5.496 -2.42 6.923 -4.188 8.312 C-8.04 11.35 -11.586 14.473 -15 18 C-15.66 17.67 -16.32 17.34 -17 17 C-16.319 16.34 -15.639 15.68 -14.938 15 C-12.667 12.743 -10.579 10.371 -8.5 7.938 C-5.882 4.933 -3.386 2.163 0 0 Z" fill="#14A73D" transform="translate(205,52)"/>
<path d="M0 0 C6.411 5.271 12.186 11.091 18 17 C16.35 18.98 14.7 20.96 13 23 C13 20 13 20 13.727 18.059 C14.262 15.871 14.262 15.871 12.523 14.035 C11.814 13.384 11.105 12.733 10.375 12.062 C9.639 11.369 8.903 10.675 8.145 9.961 C7.437 9.314 6.729 8.667 6 8 C1.135 3.406 1.135 3.406 0 0 Z" fill="#16A140" transform="translate(208,54)"/>
<path d="M0 0 C0.784 0.474 1.567 0.949 2.375 1.438 C3.889 2.339 5.424 3.212 7 4 C5.75 5.562 5.75 5.562 4 7 C2.062 7 2.062 7 0 6 C-2.25 3.438 -2.25 3.438 -4 1 C-2.68 1.33 -1.36 1.66 0 2 C0 1.34 0 0.68 0 0 Z" fill="#14A33A" transform="translate(175,55)"/>
<path d="M0 0 C0.99 0.66 1.98 1.32 3 2 C0.03 4.97 -2.94 7.94 -6 11 C-6 7.796 -5.257 5.906 -4 3 C-3.01 3 -2.02 3 -1 3 C-0.67 2.01 -0.34 1.02 0 0 Z" fill="#20A346" transform="translate(192,44)"/>
<path d="M0 0 C0.66 0.33 1.32 0.66 2 1 C1.34 2.32 0.68 3.64 0 5 C-0.66 5 -1.32 5 -2 5 C-2.66 6.32 -3.32 7.64 -4 9 C-4.66 8.67 -5.32 8.34 -6 8 C-4.264 4.942 -2.615 2.366 0 0 Z" fill="#2B4066" transform="translate(43,59)"/>
<path d="M0 0 C0.99 0.33 1.98 0.66 3 1 C3.688 3.062 3.688 3.062 4 5 C2.68 5.33 1.36 5.66 0 6 C0 5.34 0 4.68 0 4 C-0.66 3.67 -1.32 3.34 -2 3 C-1.34 2.01 -0.68 1.02 0 0 Z" fill="#12A339" transform="translate(176,80)"/>
<path d="M0 0 C1.5 1.062 1.5 1.062 3 3 C3.188 6.688 3.188 6.688 3 10 C0.704 6.555 0.46 4.062 0 0 Z" fill="#374C6A" transform="translate(16,166)"/>
<path d="M0 0 C0.99 0.33 1.98 0.66 3 1 C3 3 3 5 3 7 C1.35 5.02 -0.3 3.04 -2 1 C-1.34 0.67 -0.68 0.34 0 0 Z" fill="#15A43A" transform="translate(166,105)"/>
<path d="M0 0 C1.32 1.32 2.64 2.64 4 4 C1.69 4 -0.62 4 -3 4 C-2.01 2.68 -1.02 1.36 0 0 Z" fill="#2E4364" transform="translate(148,180)"/>
<path d="M0 0 C0.99 0.33 1.98 0.66 3 1 C1.35 2.98 -0.3 4.96 -2 7 C-2 3.894 -1.461 2.647 0 0 Z" fill="#1F9942" transform="translate(223,70)"/>
<path d="M0 0 C1.32 0.33 2.64 0.66 4 1 C2.68 2.32 1.36 3.64 0 5 C0 3.35 0 1.7 0 0 Z" fill="#294063" transform="translate(63,79)"/>
<path d="M0 0 C3 2 3 2 4 5 C3.01 5 2.02 5 1 5 C0.67 3.35 0.34 1.7 0 0 Z" fill="#394D70" transform="translate(21,181)"/>
<path d="M0 0 C0.33 0.66 0.66 1.32 1 2 C0.01 2.99 -0.98 3.98 -2 5 C-2.66 4.34 -3.32 3.68 -4 3 C-2.68 2.01 -1.36 1.02 0 0 Z" fill="#465A79" transform="translate(134,192)"/>
<path d="M0 0 C0.66 0 1.32 0 2 0 C1.67 1.32 1.34 2.64 1 4 C0.01 3.34 -0.98 2.68 -2 2 C-1.34 1.34 -0.68 0.68 0 0 Z" fill="#253A65" transform="translate(47,56)"/>
<path d="M0 0 C0.66 0.33 1.32 0.66 2 1 C1.01 1.99 0.02 2.98 -1 4 C-1.66 3.34 -2.32 2.68 -3 2 C-2.01 1.34 -1.02 0.68 0 0 Z" fill="#314569" transform="translate(56,50)"/>
</svg>
