<?xml version="1.0" encoding="UTF-8" standalone="no"?>
<!-- Created with Inkscape (http://www.inkscape.org/) -->

<svg
   xmlns:dc="http://purl.org/dc/elements/1.1/"
   xmlns:cc="http://creativecommons.org/ns#"
   xmlns:rdf="http://www.w3.org/1999/02/22-rdf-syntax-ns#"
   xmlns:svg="http://www.w3.org/2000/svg"
   xmlns="http://www.w3.org/2000/svg"
   xmlns:sodipodi="http://sodipodi.sourceforge.net/DTD/sodipodi-0.dtd"
   xmlns:inkscape="http://www.inkscape.org/namespaces/inkscape"
   width="365.58316"
   height="172.35066"
   id="svg2"
   version="1.1"
   inkscape:version="0.48.2 r9819"
   sodipodi:docname="New document 1">
  <defs
     id="defs4">
    <clipPath
       id="clipPath3051"
       clipPathUnits="userSpaceOnUse">
      <path
         inkscape:connector-curvature="0"
         id="path3053"
         clip-rule="evenodd"
         d="m 55.79,215.74 149.21,0 0,-59.49 -149.21,0 0,59.49 z" />
    </clipPath>
    <clipPath
       id="clipPath3057"
       clipPathUnits="userSpaceOnUse">
      <path
         inkscape:connector-curvature="0"
         id="path3059"
         d="M 0,792 522,792 522,0.06 0,0.06 0,792 z" />
    </clipPath>
  </defs>
  <sodipodi:namedview
     id="base"
     pagecolor="#ffffff"
     bordercolor="#666666"
     borderopacity="1.0"
     inkscape:pageopacity="0.0"
     inkscape:pageshadow="2"
     inkscape:zoom="1.0074671"
     inkscape:cx="355.15823"
     inkscape:cy="163.32511"
     inkscape:document-units="px"
     inkscape:current-layer="g3055"
     showgrid="false"
     fit-margin-top="0"
     fit-margin-left="0"
     fit-margin-right="0"
     fit-margin-bottom="0"
     inkscape:window-width="1440"
     inkscape:window-height="853"
     inkscape:window-x="-4"
     inkscape:window-y="-4"
     inkscape:window-maximized="1" />
  <metadata
     id="metadata7">
    <rdf:RDF>
      <cc:Work
         rdf:about="">
        <dc:format>image/svg+xml</dc:format>
        <dc:type
           rdf:resource="http://purl.org/dc/dcmitype/StillImage" />
        <dc:title></dc:title>
      </cc:Work>
    </rdf:RDF>
  </metadata>
  <g
     inkscape:label="Layer 1"
     inkscape:groupmode="layer"
     id="layer1"
     transform="translate(-19.841766,-642.44723)">
    <g
       transform="matrix(3.8266132,0,0,-3.8266132,-195.12971,1467.7329)"
       id="g3047"
       style="fill:#000000">
      <g
         clip-path="url(#clipPath3051)"
         id="g3049"
         style="fill:#000000">
        <g
           clip-path="url(#clipPath3057)"
           id="g3055"
           style="fill:#000000">
          <g
             id="g3070">
            <path
               inkscape:connector-curvature="0"
               d="m 80.689,180.918 13.834,0 c 6.749,0 11.153,3.638 11.153,9.382 0,4.499 -2.585,7.324 -7.037,8.425 l 0,0.096 c 3.543,0.765 6.415,3.829 6.415,8.041 0,4.691 -3.782,8.138 -10.005,8.138 l -14.36,0 0,-34.082 z m 8.616,14.839 3.159,0 c 2.777,0 4.309,-1.676 4.309,-4.213 0,-3.494 -2.442,-4.308 -4.309,-4.308 l -3.159,0 0,8.521 z m 0,13.211 3.016,0 c 1.962,0 4.117,-0.526 4.117,-3.781 0,-2.01 -1.197,-3.686 -4.309,-3.686 l -2.824,0 0,7.467"
               style="fill:#000000;fill-opacity:1;fill-rule:nonzero;stroke:none"
               id="path3061" />
            <path
               inkscape:connector-curvature="0"
               d="m 103.986,197.959 c 0,-8.712 3.111,-17.712 13.259,-17.712 10.148,0 13.26,9 13.26,17.712 0,8.712 -3.112,17.711 -13.26,17.711 -10.148,0 -13.259,-8.999 -13.259,-17.711 z m 9.286,0 c 0,6.701 0,11.393 3.973,11.393 3.973,0 3.973,-4.692 3.973,-11.393 0,-6.702 0,-11.393 -3.973,-11.393 -3.973,0 -3.973,4.691 -3.973,11.393"
               style="fill:#000000;fill-opacity:1;fill-rule:nonzero;stroke:none"
               id="path3063" />
            <path
               inkscape:connector-curvature="0"
               d="m 130.267,180.918 21.445,0 0,6.893 -12.829,0 0,7.084 8.616,0 0,6.606 -8.616,0 0,6.893 12.829,0 0,6.606 -21.445,0 0,-34.082"
               style="fill:#000000;fill-opacity:1;fill-rule:nonzero;stroke:none"
               id="path3065" />
            <path
               inkscape:connector-curvature="0"
               d="m 81.383,203.081 c 0,7.036 -3.686,12.589 -11.92,12.589 -10.483,0 -13.259,-9.526 -13.259,-17.711 0,-8.856 2.824,-17.712 13.259,-17.712 7.468,0 12.33,5.584 11.752,13.21 l -7.837,0.031 c -0.191,-4.26 -0.372,-6.922 -3.532,-6.922 -4.021,0 -4.356,4.356 -4.356,11.345 0,6.318 0.527,11.441 4.165,11.441 3.111,0 3.686,-3.973 3.686,-6.271 l 8.042,0"
               style="fill:#000000;fill-opacity:1;fill-rule:nonzero;stroke:none"
               id="path3067" />
            <path
               inkscape:connector-curvature="0"
               d="m 56.178,178.73 95.537,0 0,0.4 -95.537,0 0,-0.4 z"
               style="fill:#000000;fill-opacity:1;fill-rule:nonzero;stroke:none"
               id="path3069" />
            <path
               inkscape:connector-curvature="0"
               d="m 56.178,170.63 95.537,0 0,0.4 -95.537,0 0,-0.4 z"
               style="fill:#000000;fill-opacity:1;fill-rule:nonzero;stroke:none"
               id="path3071" />
            <path
               inkscape:connector-curvature="0"
               d="m 59.133,174.446 c -0.006,-0.086 -0.012,-0.179 -0.018,-0.266 -0.043,-0.847 -0.327,-1.496 -1.289,-1.496 -1.419,0 -1.511,0.903 -1.511,2.14 l 0,0.661 c 0.037,1.182 0.129,2.06 1.511,2.06 0.771,-0.012 1.202,-0.408 1.264,-1.2 0.013,-0.117 0.025,-0.235 0.019,-0.352 l -0.85,0 c -0.037,0.296 -0.006,0.853 -0.433,0.853 -0.679,0 -0.624,-0.81 -0.624,-1.169 l 0,-1.286 c 0,-0.384 0.031,-1.009 0.624,-1.009 0.476,0 0.42,0.767 0.439,1.064 l 0.868,0"
               style="fill:#000000;fill-opacity:1;fill-rule:nonzero;stroke:none"
               id="path3073" />
            <path
               inkscape:connector-curvature="0"
               d="m 59.783,172.796 0,4.636 0.862,0 0,-1.837 1.219,0 0,1.837 0.862,0 0,-4.636 -0.862,0 0,2.119 -1.219,0 0,-2.119 -0.862,0"
               style="fill:#000000;fill-opacity:1;fill-rule:nonzero;stroke:none"
               id="path3075" />
            <path
               inkscape:connector-curvature="0"
               d="m 63.521,177.432 0.863,0 0,-4.636 -0.863,0 0,4.636 z"
               style="fill:#000000;fill-opacity:1;fill-rule:nonzero;stroke:none"
               id="path3077" />
            <path
               inkscape:connector-curvature="0"
               d="m 67.934,174.446 c -0.007,-0.086 -0.013,-0.179 -0.019,-0.266 -0.043,-0.847 -0.326,-1.496 -1.289,-1.496 -1.418,0 -1.511,0.903 -1.511,2.14 l 0,0.661 c 0.037,1.182 0.129,2.06 1.511,2.06 0.772,-0.012 1.203,-0.408 1.264,-1.2 0.013,-0.117 0.025,-0.235 0.019,-0.352 l -0.85,0 c -0.037,0.296 -0.006,0.853 -0.433,0.853 -0.679,0 -0.623,-0.81 -0.623,-1.169 l 0,-1.286 c 0,-0.384 0.03,-1.009 0.623,-1.009 0.476,0 0.42,0.767 0.439,1.064 l 0.869,0"
               style="fill:#000000;fill-opacity:1;fill-rule:nonzero;stroke:none"
               id="path3079" />
            <path
               inkscape:connector-curvature="0"
               d="m 69.772,175.968 c 0.043,0.216 0.061,0.426 0.086,0.642 0.006,0.106 0.018,0.212 0.03,0.311 l 0.013,0 c 0.012,-0.099 0.024,-0.205 0.031,-0.31 0.024,-0.216 0.043,-0.426 0.086,-0.643 l 0.235,-1.317 -0.742,0 0.261,1.317 z m -0.625,-3.172 0.229,1.175 1.014,0 0.228,-1.175 0.927,0 -1.05,4.636 -1.168,0 -1.107,-4.636 0.927,0"
               style="fill:#000000;fill-opacity:1;fill-rule:nonzero;stroke:none"
               id="path3081" />
            <path
               inkscape:connector-curvature="0"
               d="m 71.901,175.487 c 0.037,1.18 0.129,2.058 1.512,2.058 0.742,-0.006 1.253,-0.198 1.45,-1.002 0.044,-0.185 0.037,-0.377 0.044,-0.562 l -0.863,0 c -0.012,0.47 -0.043,0.84 -0.631,0.865 -0.68,0 -0.625,-0.809 -0.625,-1.168 l 0,-1.286 c 0,-0.384 0.031,-1.01 0.625,-1.01 0.495,0 0.656,0.527 0.638,1.227 l -0.603,0 0,0.68 1.44,0 0,-2.493 -0.649,0 0,0.531 -0.013,0 c -0.173,-0.482 -0.5,-0.619 -0.815,-0.643 -1.418,0 -1.51,0.903 -1.51,2.141 l 0,0.662"
               style="fill:#000000;fill-opacity:1;fill-rule:nonzero;stroke:none"
               id="path3083" />
            <path
               inkscape:connector-curvature="0"
               d="m 76.558,175.677 c 0,0.359 -0.055,1.169 0.625,1.169 0.644,0 0.625,-0.823 0.625,-1.194 l 0,-1.187 c 0,-0.445 -0.006,-1.083 -0.625,-1.083 -0.594,0 -0.625,0.625 -0.625,1.009 l 0,1.286 z m -0.887,-0.853 c 0,-1.237 0.092,-2.14 1.512,-2.14 1.42,0 1.513,0.903 1.513,2.14 l 0,0.661 c -0.037,1.182 -0.13,2.06 -1.513,2.06 -1.383,0 -1.475,-0.878 -1.512,-2.06 l 0,-0.661"
               style="fill:#000000;fill-opacity:1;fill-rule:nonzero;stroke:none"
               id="path3085" />
            <path
               inkscape:connector-curvature="0"
               d="m 81.786,173.476 0,1.401 0.336,0 c 0.54,0 0.639,-0.209 0.639,-0.709 0,-0.235 -0.031,-0.538 -0.267,-0.642 -0.155,-0.068 -0.341,-0.05 -0.521,-0.05 l -0.187,0 z m 0,2.081 0,1.195 0.404,0 c 0.397,-0.012 0.471,-0.185 0.471,-0.532 0,-0.223 -0.012,-0.384 -0.092,-0.501 -0.136,-0.174 -0.408,-0.162 -0.618,-0.162 l -0.165,0 z m 0.665,-2.761 c 0.617,0 0.95,0.248 1.135,0.834 0.05,0.187 0.063,0.379 0.063,0.57 0,0.6 -0.185,1.007 -0.672,1.075 l 0,0.013 c 0.467,0.173 0.553,0.568 0.553,0.97 0,0.315 -0.031,0.581 -0.228,0.834 -0.246,0.316 -0.61,0.34 -0.982,0.34 l -1.396,0 0,-4.636 1.527,0"
               style="fill:#000000;fill-opacity:1;fill-rule:nonzero;stroke:none"
               id="path3087" />
            <path
               inkscape:connector-curvature="0"
               d="m 85.185,175.677 c 0,0.359 -0.055,1.169 0.625,1.169 0.644,0 0.625,-0.823 0.625,-1.194 l 0,-1.187 c 0,-0.445 -0.006,-1.083 -0.625,-1.083 -0.594,0 -0.625,0.625 -0.625,1.009 l 0,1.286 z m -0.887,-0.853 c 0,-1.237 0.092,-2.14 1.512,-2.14 1.42,0 1.513,0.903 1.513,2.14 l 0,0.661 c -0.037,1.182 -0.129,2.06 -1.513,2.06 -1.383,0 -1.475,-0.878 -1.512,-2.06 l 0,-0.661"
               style="fill:#000000;fill-opacity:1;fill-rule:nonzero;stroke:none"
               id="path3089" />
            <path
               inkscape:connector-curvature="0"
               d="m 89.257,175.968 c 0.043,0.216 0.062,0.426 0.086,0.642 0.006,0.106 0.018,0.212 0.031,0.311 l 0.012,0 c 0.012,-0.099 0.025,-0.205 0.031,-0.31 0.025,-0.216 0.043,-0.426 0.086,-0.643 l 0.235,-1.317 -0.741,0 0.26,1.317 z m -0.624,-3.172 0.228,1.175 1.014,0 0.228,-1.175 0.927,0 -1.05,4.636 -1.168,0 -1.106,-4.636 0.927,0"
               style="fill:#000000;fill-opacity:1;fill-rule:nonzero;stroke:none"
               id="path3091" />
            <path
               inkscape:connector-curvature="0"
               d="m 92.311,176.752 0.646,0 c 0.33,-0.006 0.548,-0.092 0.548,-0.613 0,-0.465 -0.224,-0.65 -0.51,-0.669 l -0.684,0 0,1.282 z m 0.155,-1.962 c 0.249,0 0.504,0.006 0.74,-0.062 0.299,-0.086 0.292,-0.475 0.299,-0.759 0.006,-0.309 -0.013,-0.876 0.092,-1.173 l 0.949,0 0,0.087 c -0.21,0.135 -0.185,1.271 -0.185,1.463 0,0.444 -0.154,0.772 -0.666,0.84 l 0,0.012 c 0.58,0.08 0.709,0.613 0.709,1.121 0,0.854 -0.567,1.113 -1.316,1.113 l -1.64,0 0,-4.636 0.863,0 0,1.994 0.155,0"
               style="fill:#000000;fill-opacity:1;fill-rule:nonzero;stroke:none"
               id="path3093" />
            <path
               inkscape:connector-curvature="0"
               d="m 96.081,173.476 0,3.276 0.572,0 c 0.522,0 0.634,-0.432 0.634,-1.526 0,-1.342 -0.05,-1.75 -0.827,-1.75 l -0.379,0 z m 0.74,-0.68 c 0.217,0 0.454,0.013 0.645,0.124 0.709,0.414 0.709,1.471 0.709,2.386 0,0.766 -0.056,1.28 -0.253,1.601 -0.265,0.433 -0.685,0.525 -0.896,0.525 l -1.807,0 0,-4.636 1.602,0"
               style="fill:#000000;fill-opacity:1;fill-rule:nonzero;stroke:none"
               id="path3095" />
            <path
               inkscape:connector-curvature="0"
               d="m 101.278,175.677 c 0,0.359 -0.056,1.169 0.625,1.169 0.643,0 0.625,-0.823 0.625,-1.194 l 0,-1.187 c 0,-0.445 -0.006,-1.083 -0.625,-1.083 -0.594,0 -0.625,0.625 -0.625,1.009 l 0,1.286 z m -0.888,-0.853 c 0,-1.237 0.093,-2.14 1.513,-2.14 1.42,0 1.512,0.903 1.512,2.14 l 0,0.661 c -0.037,1.182 -0.129,2.06 -1.512,2.06 -1.383,0 -1.476,-0.878 -1.513,-2.06 l 0,-0.661"
               style="fill:#000000;fill-opacity:1;fill-rule:nonzero;stroke:none"
               id="path3097" />
            <path
               inkscape:connector-curvature="0"
               d="m 105.023,176.752 0.398,0 c 0.491,0 0.702,-0.08 0.702,-0.613 0,-0.564 -0.255,-0.725 -0.634,-0.725 l -0.466,0 0,1.338 z m 0,-3.956 0,1.938 0.584,0 c 0.336,-0.006 0.701,0.062 0.972,0.278 0.327,0.259 0.432,0.705 0.432,1.102 0,0.651 -0.253,1.318 -1.081,1.318 l -1.769,0 0,-4.636 0.862,0"
               style="fill:#000000;fill-opacity:1;fill-rule:nonzero;stroke:none"
               id="path3099" />
            <path
               inkscape:connector-curvature="0"
               d="m 107.24,177.432 2.883,0 0,-0.68 -1.007,0 0,-3.956 -0.863,0 0,3.956 -1.013,0 0,0.68"
               style="fill:#000000;fill-opacity:1;fill-rule:nonzero;stroke:none"
               id="path3101" />
            <path
               inkscape:connector-curvature="0"
               d="m 110.606,177.432 0.863,0 0,-4.636 -0.863,0 0,4.636 z"
               style="fill:#000000;fill-opacity:1;fill-rule:nonzero;stroke:none"
               id="path3103" />
            <path
               inkscape:connector-curvature="0"
               d="m 113.125,175.677 c 0,0.359 -0.056,1.169 0.625,1.169 0.643,0 0.625,-0.823 0.625,-1.194 l 0,-1.187 c 0,-0.445 -0.006,-1.083 -0.625,-1.083 -0.594,0 -0.625,0.625 -0.625,1.009 l 0,1.286 z m -0.888,-0.853 c 0,-1.237 0.092,-2.14 1.513,-2.14 1.42,0 1.512,0.903 1.512,2.14 l 0,0.661 c -0.036,1.182 -0.129,2.06 -1.512,2.06 -1.383,0 -1.476,-0.878 -1.513,-2.06 l 0,-0.661"
               style="fill:#000000;fill-opacity:1;fill-rule:nonzero;stroke:none"
               id="path3105" />
            <path
               inkscape:connector-curvature="0"
               d="m 118.083,177.432 0.862,0 0,-4.636 -0.899,0 -0.679,1.651 c -0.23,0.55 -0.416,1.112 -0.621,1.842 l -0.012,0 c 0.031,-0.384 0.068,-0.853 0.093,-1.323 0.024,-0.464 0.043,-0.927 0.043,-1.298 l 0,-0.872 -0.862,0 0,4.636 0.893,0 0.678,-1.687 c 0.224,-0.538 0.41,-1.088 0.621,-1.842 l 0.012,0 c -0.031,0.42 -0.061,0.871 -0.086,1.316 -0.025,0.445 -0.043,0.89 -0.043,1.305 l 0,0.908"
               style="fill:#000000;fill-opacity:1;fill-rule:nonzero;stroke:none"
               id="path3107" />
            <path
               inkscape:connector-curvature="0"
               d="m 121.509,176.024 c 0.006,0.414 -0.031,0.822 -0.506,0.822 -0.29,0 -0.475,-0.117 -0.475,-0.433 0,-0.352 0.222,-0.488 0.493,-0.664 0.285,-0.179 0.809,-0.525 1.049,-0.76 0.296,-0.29 0.389,-0.568 0.389,-0.97 0,-0.878 -0.58,-1.335 -1.425,-1.335 -1.037,0 -1.406,0.581 -1.406,1.409 l 0,0.34 0.862,0 0,-0.272 c -0.018,-0.451 0.118,-0.779 0.544,-0.779 0.365,0 0.537,0.192 0.537,0.545 0,0.272 -0.123,0.458 -0.345,0.612 -0.452,0.353 -1.013,0.606 -1.364,1.07 -0.142,0.211 -0.222,0.464 -0.222,0.712 0,0.791 0.444,1.224 1.356,1.224 1.375,0 1.338,-1.064 1.344,-1.522 l -0.831,0.001"
               style="fill:#000000;fill-opacity:1;fill-rule:nonzero;stroke:none"
               id="path3109" />
            <path
               inkscape:connector-curvature="0"
               d="m 124.61,172.796 0,4.636 2.432,0 0,-0.68 -1.57,0 0,-1.17 1.446,0 0,-0.68 -1.446,0 0,-1.426 1.57,0 0,-0.68 -2.432,0"
               style="fill:#000000;fill-opacity:1;fill-rule:nonzero;stroke:none"
               id="path3111" />
            <path
               inkscape:connector-curvature="0"
               d="m 130.631,172.796 -0.989,0 -0.494,1.132 c -0.08,0.185 -0.142,0.383 -0.179,0.587 l -0.013,0 c -0.037,-0.309 -0.172,-0.587 -0.296,-0.866 l -0.383,-0.853 -0.946,0 1.137,2.349 -1.094,2.287 0.971,0 0.469,-1.051 c 0.081,-0.191 0.161,-0.37 0.167,-0.581 l 0.019,0 c 0.024,0.303 0.167,0.575 0.284,0.847 l 0.334,0.785 0.976,0 -1.112,-2.287 1.149,-2.349"
               style="fill:#000000;fill-opacity:1;fill-rule:nonzero;stroke:none"
               id="path3113" />
            <path
               inkscape:connector-curvature="0"
               d="m 133.817,174.446 c -0.006,-0.086 -0.012,-0.179 -0.018,-0.266 -0.043,-0.847 -0.327,-1.496 -1.288,-1.496 -1.419,0 -1.512,0.903 -1.512,2.14 l 0,0.661 c 0.037,1.182 0.129,2.06 1.512,2.06 0.77,-0.012 1.202,-0.408 1.263,-1.2 0.013,-0.117 0.025,-0.235 0.019,-0.352 l -0.85,0 c -0.037,0.296 -0.006,0.853 -0.432,0.853 -0.68,0 -0.624,-0.81 -0.624,-1.169 l 0,-1.286 c 0,-0.384 0.03,-1.009 0.624,-1.009 0.475,0 0.42,0.767 0.438,1.064 l 0.868,0"
               style="fill:#000000;fill-opacity:1;fill-rule:nonzero;stroke:none"
               id="path3115" />
            <path
               inkscape:connector-curvature="0"
               d="m 134.467,172.796 0,4.636 0.862,0 0,-1.837 1.219,0 0,1.837 0.863,0 0,-4.636 -0.863,0 0,2.119 -1.219,0 0,-2.119 -0.862,0"
               style="fill:#000000;fill-opacity:1;fill-rule:nonzero;stroke:none"
               id="path3117" />
            <path
               inkscape:connector-curvature="0"
               d="m 139.388,175.968 c 0.043,0.216 0.062,0.426 0.087,0.642 0.005,0.106 0.018,0.212 0.03,0.311 l 0.012,0 c 0.012,-0.099 0.025,-0.205 0.031,-0.31 0.025,-0.216 0.044,-0.426 0.087,-0.643 l 0.235,-1.317 -0.742,0 0.26,1.317 z m -0.624,-3.172 0.229,1.175 1.013,0 0.229,-1.175 0.927,0 -1.051,4.636 -1.168,0 -1.106,-4.636 0.927,0"
               style="fill:#000000;fill-opacity:1;fill-rule:nonzero;stroke:none"
               id="path3119" />
            <path
               inkscape:connector-curvature="0"
               d="m 143.667,177.432 0.863,0 0,-4.636 -0.9,0 -0.677,1.651 c -0.231,0.55 -0.417,1.112 -0.622,1.842 l -0.012,0 c 0.031,-0.384 0.068,-0.853 0.092,-1.323 0.025,-0.464 0.043,-0.927 0.043,-1.298 l 0,-0.872 -0.862,0 0,4.636 0.894,0 0.678,-1.687 c 0.224,-0.538 0.41,-1.088 0.621,-1.842 l 0.012,0 c -0.031,0.42 -0.062,0.871 -0.086,1.316 -0.025,0.445 -0.044,0.89 -0.044,1.305 l 0,0.908"
               style="fill:#000000;fill-opacity:1;fill-rule:nonzero;stroke:none"
               id="path3121" />
            <path
               inkscape:connector-curvature="0"
               d="m 145.25,175.487 c 0.037,1.18 0.129,2.058 1.513,2.058 0.741,-0.006 1.253,-0.198 1.45,-1.002 0.043,-0.185 0.037,-0.377 0.043,-0.562 l -0.862,0 c -0.013,0.47 -0.043,0.84 -0.631,0.865 -0.681,0 -0.625,-0.809 -0.625,-1.168 l 0,-1.286 c 0,-0.384 0.03,-1.01 0.625,-1.01 0.495,0 0.655,0.527 0.637,1.227 l -0.603,0 0,0.68 1.44,0 0,-2.493 -0.649,0 0,0.531 -0.012,0 c -0.173,-0.482 -0.5,-0.619 -0.815,-0.643 -1.419,0 -1.511,0.903 -1.511,2.141 l 0,0.662"
               style="fill:#000000;fill-opacity:1;fill-rule:nonzero;stroke:none"
               id="path3123" />
            <path
               inkscape:connector-curvature="0"
               d="m 149.033,172.796 0,4.636 2.432,0 0,-0.68 -1.57,0 0,-1.17 1.446,0 0,-0.68 -1.446,0 0,-1.426 1.57,0 0,-0.68 -2.432,0"
               style="fill:#000000;fill-opacity:1;fill-rule:nonzero;stroke:none"
               id="path3125" />
          </g>
        </g>
      </g>
    </g>
  </g>
</svg>
