<svg viewBox="0 0 393.76 393.76" xmlns="http://www.w3.org/2000/svg" xmlns:xlink="http://www.w3.org/1999/xlink"><linearGradient id="a" gradientUnits="userSpaceOnUse" x1="121.4" x2="432.78" y1="305.3" y2="64.29"><stop offset=".07" stop-color="#1ebcc4"/><stop offset=".97" stop-color="#02b6a1"/></linearGradient><path d="m190.07 0h203.69v49.44h-177.21c-6.82 0-13.63-.11-20.44.11a147.51 147.51 0 1 0 3 295h194.65v49.22h-211a196.28 196.28 0 0 1 -159.36-103.17 197.46 197.46 0 0 1 -23.4-85.37v-16.48a196.64 196.64 0 0 1 190.07-188.75zm-8.46 87.34c4.61-.66 9.23-.77 13.84-1.2h64.05c4.4 4.17 8.68 8.45 12.75 12.85 12.3 12.08 24.39 24.39 36.47 36.69h-93.72c-7.69 0-15.49-.22-23.18.33a61.16 61.16 0 0 0 -46.15 94.71 62.25 62.25 0 0 0 33.84 25.16c7 2.2 14.39 2.63 21.75 2.53h106.47c-16.37 16.58-33.17 32.74-49.43 49.43h-64.3a109.92 109.92 0 0 1 -55.37-16.48 110.77 110.77 0 0 1 -11.21-180.61 109.74 109.74 0 0 1 54.19-23.41zm126.45-1.2h85.7v49.54c-12.09 0-24.17.11-36.26 0-5.49-4.83-10.32-10.43-15.6-15.6-11.31-11.2-22.52-22.63-33.84-33.94zm-132.82 98.54a24.81 24.81 0 0 1 21.64-12.52h148.12c8 8.35 16.26 16.48 24.5 24.72l-24.94 24.94c-47.79-.11-95.47 0-143.27-.11a50.24 50.24 0 0 1 -8.13-.22 24.41 24.41 0 0 1 -17.48-11.49 25 25 0 0 1 -.44-25.32zm131.84 123.16c16.37-16.59 33.07-32.85 49.55-49.43h37.13v49.43z" fill="url(#a)"/></svg>