<svg xmlns="http://www.w3.org/2000/svg" viewBox="0 0 23 22">
<path d="M0 0 C4.29 0 8.58 0 13 0 C13 0.66 13 1.32 13 2 C15.64 2 18.28 2 21 2 C21 6.29 21 10.58 21 15 C19.68 15 18.36 15 17 15 C17 17.31 17 19.62 17 22 C11.72 22 6.44 22 1 22 C1 20.02 1 18.04 1 16 C0.01 16 -0.98 16 -2 16 C-2 11.71 -2 7.42 -2 3 C-1.34 3 -0.68 3 0 3 C0 2.01 0 1.02 0 0 Z" fill="#4EA1A3" transform="translate(2,0)"/>
<path d="M0 0 C2.64 0 5.28 0 8 0 C8 4.29 8 8.58 8 13 C6.68 13 5.36 13 4 13 C4 15.31 4 17.62 4 20 C-1.28 20 -6.56 20 -12 20 C-12 18.02 -12 16.04 -12 14 C-9.03 14 -6.06 14 -3 14 C-3 12.68 -3 11.36 -3 10 C-2.01 10 -1.02 10 0 10 C0 6.7 0 3.4 0 0 Z" fill="#182A40" transform="translate(15,2)"/>
<path d="M0 0 C2.64 0 5.28 0 8 0 C8 4.29 8 8.58 8 13 C6.68 13 5.36 13 4 13 C4 10.36 4 7.72 4 5 C2.68 5 1.36 5 0 5 C0 3.35 0 1.7 0 0 Z" fill="#769663" transform="translate(15,2)"/>
<path d="M0 0 C0 0.66 0 1.32 0 2 C0.99 1.67 1.98 1.34 3 1 C3.66 2.32 4.32 3.64 5 5 C3.417 5.027 1.833 5.046 0.25 5.062 C-1.073 5.08 -1.073 5.08 -2.422 5.098 C-4.782 5.008 -6.745 4.669 -9 4 C-9 3.01 -9 2.02 -9 1 C-5.927 0.089 -3.199 -0.089 0 0 Z" fill="#687382" transform="translate(14,17)"/>
<path d="M0 0 C1.65 0 3.3 0 5 0 C5 2.64 5 5.28 5 8 C5.99 8.33 6.98 8.66 8 9 C5.36 9 2.72 9 0 9 C0 6.03 0 3.06 0 0 Z" fill="#2C8EB1" transform="translate(4,7)"/>
<path d="M0 0 C0.99 0 1.98 0 3 0 C3.33 4.29 3.66 8.58 4 13 C2.68 13 1.36 13 0 13 C0 8.71 0 4.42 0 0 Z" fill="#557BAB" transform="translate(0,3)"/>
<path d="M0 0 C1.32 0 2.64 0 4 0 C4 2.64 4 5.28 4 8 C1.69 8 -0.62 8 -3 8 C-3 7.01 -3 6.02 -3 5 C-2.01 5 -1.02 5 0 5 C0 3.35 0 1.7 0 0 Z" fill="#33645F" transform="translate(15,7)"/>
<path d="M0 0 C1.98 0 3.96 0 6 0 C6 1.65 6 3.3 6 5 C5.01 5 4.02 5 3 5 C3 5.99 3 6.98 3 8 C2.01 8 1.02 8 0 8 C0 5.36 0 2.72 0 0 Z" fill="#4AA1B4" transform="translate(9,7)"/>
<path d="M0 0 C4.29 0 8.58 0 13 0 C13 0.66 13 1.32 13 2 C11.02 2 9.04 2 7 2 C7 2.66 7 3.32 7 4 C5.02 4 3.04 4 1 4 C0.67 2.68 0.34 1.36 0 0 Z" fill="#50B8D6" transform="translate(2,0)"/>
<path d="M0 0 C1.65 0 3.3 0 5 0 C5 0.99 5 1.98 5 3 C5.99 3.33 6.98 3.66 8 4 C5.36 4 2.72 4 0 4 C0 2.68 0 1.36 0 0 Z" fill="#275784" transform="translate(4,12)"/>
<path d="M0 0 C1.98 0 3.96 0 6 0 C6 0.99 6 1.98 6 3 C4.35 3 2.7 3 1 3 C1 4.65 1 6.3 1 8 C0.67 8 0.34 8 0 8 C0 5.36 0 2.72 0 0 Z" fill="#4599C1" transform="translate(3,4)"/>
<path d="M0 0 C0.99 0 1.98 0 3 0 C3 1.65 3 3.3 3 5 C2.01 5 1.02 5 0 5 C0 3.35 0 1.7 0 0 Z" fill="#3993A0" transform="translate(12,7)"/>
<path d="M0 0 C0.99 0 1.98 0 3 0 C3 0.99 3 1.98 3 3 C2.01 3 1.02 3 0 3 C0 2.01 0 1.02 0 0 Z" fill="#457F94" transform="translate(9,12)"/>
<path d="M0 0 C0.99 0 1.98 0 3 0 C3 0.99 3 1.98 3 3 C2.01 3 1.02 3 0 3 C0 2.01 0 1.02 0 0 Z" fill="#478FA5" transform="translate(9,4)"/>
<path d="M0 0 C0.99 0.33 1.98 0.66 3 1 C2.67 1.66 2.34 2.32 2 3 C1.34 3 0.68 3 0 3 C0 2.01 0 1.02 0 0 Z" fill="#213147" transform="translate(14,16)"/>
</svg>
