<svg xmlns="http://www.w3.org/2000/svg" viewBox="0 0 256 256">
<path d="M0 0 C0.33 0 0.66 0 1 0 C1 19.8 1 39.6 1 60 C18.82 60 36.64 60 55 60 C53.456 63.861 52.537 65.892 50.094 68.969 C49.52 69.698 48.946 70.427 48.355 71.178 C47.743 71.944 47.131 72.71 46.5 73.5 C45.218 75.125 43.937 76.75 42.656 78.375 C42.028 79.168 41.401 79.961 40.754 80.777 C38.475 83.665 36.235 86.579 34 89.5 C30.085 94.601 26.14 99.678 22.188 104.75 C17.053 111.34 11.961 117.961 6.895 124.604 C2.96 129.76 -1.012 134.885 -5 140 C-9.612 145.916 -14.197 151.851 -18.75 157.812 C-19.282 158.509 -19.814 159.205 -20.363 159.922 C-22.904 163.248 -25.439 166.579 -27.965 169.918 C-28.872 171.112 -29.78 172.306 -30.688 173.5 C-31.475 174.542 -32.263 175.583 -33.074 176.656 C-35 179 -35 179 -37 180 C-37 159.87 -37 139.74 -37 119 C-54.82 119 -72.64 119 -91 119 C-89.087 115.812 -87.39 113.075 -85.137 110.207 C-84.312 109.152 -84.312 109.152 -83.47 108.075 C-82.588 106.955 -82.588 106.955 -81.688 105.812 C-80.426 104.201 -79.164 102.589 -77.902 100.977 C-77.256 100.153 -76.61 99.33 -75.945 98.481 C-72.87 94.558 -69.81 90.623 -66.75 86.688 C-66.163 85.933 -65.576 85.179 -64.971 84.402 C-60.836 79.085 -56.727 73.749 -52.625 68.406 C-48.829 63.471 -44.997 58.565 -41.172 53.652 C-37.768 49.279 -34.375 44.896 -31 40.5 C-27.021 35.317 -23.015 30.156 -19 25 C-14.741 19.528 -10.484 14.054 -6.25 8.562 C-5.082 7.048 -5.082 7.048 -3.891 5.504 C-2.537 3.711 -1.246 1.869 0 0 Z M-14 41 C-14.924 42.073 -15.805 43.183 -16.668 44.305 C-17.502 45.384 -17.502 45.384 -18.354 46.484 C-18.959 47.273 -19.564 48.062 -20.188 48.875 C-21.473 50.539 -22.758 52.203 -24.043 53.867 C-24.702 54.723 -25.361 55.578 -26.041 56.46 C-29.015 60.316 -32.008 64.158 -35 68 C-36.158 69.488 -37.315 70.976 -38.473 72.465 C-43.23 78.582 -47.988 84.699 -52.746 90.816 C-53.533 91.83 -53.533 91.83 -54.335 92.864 C-55.54 94.41 -56.751 95.952 -57.965 97.492 C-58.928 98.716 -58.928 98.716 -59.91 99.965 C-60.501 100.712 -61.091 101.46 -61.699 102.23 C-63.099 103.768 -63.099 103.768 -63 105 C-43.695 105.495 -43.695 105.495 -24 106 C-23.67 116.89 -23.34 127.78 -23 139 C-18.966 135.008 -18.966 135.008 -15.309 130.793 C-14.845 130.215 -14.382 129.637 -13.904 129.041 C-13.42 128.429 -12.936 127.818 -12.438 127.188 C-11.919 126.537 -11.401 125.886 -10.867 125.215 C-6.624 119.855 -2.515 114.4 1.566 108.917 C7.084 101.515 12.809 94.281 18.548 87.049 C20.096 85.097 21.642 83.142 23.188 81.188 C23.67 80.582 24.152 79.977 24.649 79.353 C26.966 76.941 26.966 76.941 28 74 C14.47 74 0.94 74 -13 74 C-13 63.11 -13 52.22 -13 41 C-13.33 41 -13.66 41 -14 41 Z" fill="#6B7484" transform="translate(179,29)"/>
<path d="M0 0 C24.09 0 48.18 0 73 0 C73 4.62 73 9.24 73 14 C48.91 14 24.82 14 0 14 C0 9.38 0 4.76 0 0 Z" fill="#6C7485" transform="translate(31,67)"/>
<path d="M0 0 C18.15 0 36.3 0 55 0 C55 4.62 55 9.24 55 14 C36.85 14 18.7 14 0 14 C0 9.38 0 4.76 0 0 Z" fill="#6B7484" transform="translate(22,113)"/>
<path d="M0 0 C12.21 0 24.42 0 37 0 C37 4.62 37 9.24 37 14 C24.79 14 12.58 14 0 14 C0 9.38 0 4.76 0 0 Z" fill="#6B7484" transform="translate(31,158)"/>
</svg>
