<svg version="1.2" xmlns="http://www.w3.org/2000/svg" viewBox="0 0 1597 1605" width="1597" height="1605">
	<title>cmegroup-svg</title>
	<defs>
		<clipPath clipPathUnits="userSpaceOnUse" id="cp1">
			<path d="m0.01 0.99h1596.41v1603.04h-1596.41z"/>
		</clipPath>
	</defs>
	<style>
		.s0 { fill: #25a9e0 } 
	</style>
	<g id="Clip-Path" clip-path="url(#cp1)">
		<g id="Layer">
			<path id="Layer" fill-rule="evenodd" class="s0" d="m457.9 0.9h155.4c-93.2 87.1-167.9 200.3-220 332.1h-262.1zm311.4 332h-317.4c57.4-136.7 141-250.7 245.2-332h72.2zm374.5 0h-316.8v-332.1h72.1c104 81.4 187.4 195.4 244.7 332.1zm-11.4-332.1l331 332.1h-261c-51.9-131.8-126.4-245-219.5-332.1zm-823.7 769.9h-308.8v-304.6l74.1-75.2h298.2c-38.7 115.8-60.7 244-63.5 379.8zm460.6 0h-406c3-136.7 25.8-265.1 66.1-379.8h339.9zm57.7-379.9h339.1c40.1 114.8 62.8 243.2 65.5 379.9h-404.6zm396.4 0h297.9l75.1 75.2v304.6h-310.2c-2.6-135.8-24.4-264-62.8-379.8zm-1223.5 437.8h308.8c2.7 136.9 24.7 266 63.9 382.8h-300.6l-72.1-72.1zm363.4 0h406v382.7h-339.5c-40.9-115.6-63.8-245.2-66.5-382.7zm800.9 382.7h-337.2v-382.7h404.4c-3.1 137.5-26 267.1-67.2 382.7zm121.8-382.7h310.4v308.5l-74.1 74.2h-300.9c39.4-116.8 61.7-245.9 64.6-382.7zm-822.8 775.1l-333.5-334.4h264.2c52.9 132.5 128.6 246.7 223.5 334.4zm-10.9-334.4h317v334.4h-67.6c-106.2-82-191.1-196.8-249.4-334.4zm689.3 0c-58.6 137.6-143.7 252.4-249.9 334.4h-64.7v-334.4zm-10.5 334.4h-155.1c95.1-87.8 171-201.9 224.1-334.4h264.5z"/>
		</g>
	</g>
</svg>