<svg width="29" height="29" viewBox="0 0 29 29" fill="none" xmlns="http://www.w3.org/2000/svg">
<path fill="#000" d="M28.442 14.445v-.056C28.414 6.466 22.032 0 14.221 0S0 6.466 0 14.445c0 7.98 6.381 14.433 14.221 14.433a13.978 13.978 0 0 0 9.66-3.866 1.309 1.309 0 0 0-1.766-1.933l-.028.028a11.5 11.5 0 0 1-16.572-.755l6.075-9.742v4.508c0 2.154.84 2.855 1.546 3.051.706.196 1.765.054 2.912-1.765l3.333-5.412c.089-.158.192-.308.306-.449v2.745c0 2.015.812 3.639 2.211 4.422a4.071 4.071 0 0 0 4.173-.167c1.616-1.049 2.484-2.886 2.371-5.098Zm-3.696 2.835a1.529 1.529 0 0 1-1.546.111c-.56-.335-.897-1.09-.897-2.126v-3.173c0-1.51-.588-2.603-1.595-2.881-1.709-.516-2.995 1.595-3.472 2.379l-3.015 4.842V10.47c-.028-1.371-.477-2.183-1.317-2.436-.56-.167-1.4-.082-2.211 1.15L3.946 19.989a11.971 11.971 0 0 1-1.371-5.544c0-6.523 5.234-11.814 11.646-11.814 6.412 0 11.646 5.291 11.646 11.814v.057c.067 1.258-.337 2.268-1.12 2.77v.008Z"/>
</svg>
