<svg xmlns="http://www.w3.org/2000/svg" viewBox="0 0 256 256">
<path d="M0 0 C0.729 0.209 1.459 0.418 2.21 0.633 C34.112 10.136 62.214 32.818 78.139 62.093 C93.547 91.927 98.398 126.407 89 159 C88.687 160.094 88.687 160.094 88.367 161.21 C78.857 193.137 56.247 221.231 26.916 237.13 C-2.92 252.545 -37.401 257.399 -70 248 C-70.729 247.791 -71.459 247.582 -72.21 247.367 C-104.112 237.864 -132.214 215.182 -148.139 185.907 C-163.547 156.073 -168.398 121.593 -159 89 C-158.791 88.271 -158.582 87.541 -158.367 86.79 C-148.857 54.863 -126.247 26.769 -96.916 10.87 C-67.08 -4.545 -32.599 -9.399 0 0 Z M-125 34 C-125 93.4 -125 152.8 -125 214 C-65.6 214 -6.2 214 55 214 C55 154.6 55 95.2 55 34 C-4.4 34 -63.8 34 -125 34 Z" fill="#457DF5" transform="translate(163,4)"/>
<path d="M0 0 C-4.116 4.919 -8.404 9.526 -13 14 C-13.969 13.361 -14.939 12.721 -15.938 12.062 C-20.821 9.306 -25.59 8.409 -31.141 9.371 C-36.57 11.039 -39.913 14.3 -43 19 C-44.8 24.399 -44.701 29.936 -42.875 35.312 C-39.333 40.389 -36.142 42.984 -30.188 44.5 C-23.297 45.623 -18.021 43.078 -12 40 C-11.553 40.531 -11.105 41.062 -10.645 41.609 C-7.333 45.479 -4.144 48.986 0 52 C-1.706 57.119 -6.252 59.535 -10.781 61.949 C-20.747 66.278 -31.993 65.837 -42 62 C-52.016 57.039 -59.427 48.559 -63 38 C-65.99 28.424 -64.501 17.793 -60 9 C-54.177 -0.649 -45.687 -7.311 -34.812 -10.312 C-21.115 -12.938 -10.4 -8.501 0 0 Z" fill="#457DF5" transform="translate(160,101)"/>
</svg>
