<svg viewBox="0 0 190.57 102.88" xmlns="http://www.w3.org/2000/svg" xmlns:xlink="http://www.w3.org/1999/xlink"><linearGradient id="a" gradientTransform="matrix(1 0 0 -1 0 127)" gradientUnits="userSpaceOnUse" x1="33.34" x2="33.34" y1="49.84" y2="84.13"><stop offset="0" stop-color="#5061ac"/><stop offset=".75" stop-color="#6ccef5" stop-opacity="0"/></linearGradient><linearGradient id="b" x1="8.57" x2="8.57" xlink:href="#a" y1="66.99" y2="84.13"/><linearGradient id="c" x1="58.1" x2="58.1" xlink:href="#a" y1="24.12" y2="84.13"/><linearGradient id="d" x1="82.88" x2="82.88" xlink:href="#a" y1="49.84" y2="84.13"/><linearGradient id="e" gradientTransform="matrix(1 0 0 -1 0 127)" gradientUnits="userSpaceOnUse" x1="107.65" x2="107.65" y1="66.99" y2="101.28"><stop offset="0" stop-color="#40b981"/><stop offset="1" stop-color="#77c7a0" stop-opacity="0"/></linearGradient><linearGradient id="f" x1="132.41" x2="132.41" xlink:href="#e" y1="66.99" y2="127"/><linearGradient id="g" x1="157.17" x2="157.17" xlink:href="#e" y1="66.99" y2="101.28"/><linearGradient id="h" x1="181.95" x2="181.95" xlink:href="#e" y1="66.99" y2="84.13"/><g fill="#6ccef5"><rect height="34.29" rx="8.57" width="17.15" x="24.77" y="42.87"/><circle cx="8.58" cy="51.44" r="8.57"/><path d="m58.11 42.87a8.59 8.59 0 0 0 -8.57 8.57v42.87a8.57 8.57 0 0 0 17.14 0v-42.87a8.59 8.59 0 0 0 -8.57-8.57z"/><path d="m82.88 42.87a8.6 8.6 0 0 0 -8.58 8.57v17.15a8.58 8.58 0 0 0 17.15 0v-17.15a8.6 8.6 0 0 0 -8.57-8.57z"/></g><rect fill="url(#a)" height="34.29" rx="8.57" width="17.15" x="24.77" y="42.87"/><circle cx="8.57" cy="51.44" fill="url(#b)" r="8.57"/><path d="m58.11 42.87a8.6 8.6 0 0 0 -8.58 8.57v42.87a8.58 8.58 0 0 0 17.15 0v-42.87a8.6 8.6 0 0 0 -8.57-8.57z" fill="url(#c)"/><path d="m82.87 42.87a8.6 8.6 0 0 0 -8.57 8.57v17.15a8.58 8.58 0 0 0 17.15 0v-17.15a8.6 8.6 0 0 0 -8.58-8.57z" fill="url(#d)"/><path d="m107.64 25.72a8.6 8.6 0 0 0 -8.57 8.57v17.15a8.58 8.58 0 0 0 17.15 0v-17.15a8.6 8.6 0 0 0 -8.58-8.57z" fill="#64c3a4"/><rect fill="#64c3a4" height="60.01" rx="8.57" width="17.15" x="123.84"/><path d="m157.18 25.72a8.59 8.59 0 0 0 -8.57 8.57v17.15a8.57 8.57 0 0 0 17.14 0v-17.15a8.6 8.6 0 0 0 -8.57-8.57z" fill="#64c3a4"/><path d="m182 42.87a8.57 8.57 0 1 0 8.57 8.57 8.57 8.57 0 0 0 -8.57-8.57z" fill="#64c3a4"/><path d="m107.64 25.72a8.6 8.6 0 0 0 -8.57 8.57v17.15a8.58 8.58 0 0 0 17.15 0v-17.15a8.6 8.6 0 0 0 -8.58-8.57z" fill="url(#e)"/><rect fill="url(#f)" height="60.01" rx="8.57" width="17.15" x="123.84"/><path d="m157.18 25.72a8.6 8.6 0 0 0 -8.58 8.57v17.15a8.58 8.58 0 0 0 17.15 0v-17.15a8.6 8.6 0 0 0 -8.57-8.57z" fill="url(#g)"/><path d="m181.94 42.87a8.57 8.57 0 1 0 8.58 8.57 8.57 8.57 0 0 0 -8.58-8.57z" fill="url(#h)"/></svg>