<?xml version="1.0" encoding="utf-8"?><!-- Uploaded to: SVG Repo, www.svgrepo.com, Generator: SVG Repo Mixer Tools -->
<svg width="800px" height="800px" viewBox="0 0 1024 1024" xmlns="http://www.w3.org/2000/svg">
   <circle cx="512" cy="512" r="512" style="fill:#01abef"/>
   <path d="M716.1 503.3h24.7c1.8 0 2.2.5 2.2 2.2-.1 12.2-.1 24.5 0 36.7 0 2.1-.6 3.8-1.9 5.5-10.5 14.1-24.4 22.3-42.1 24.3-28 3.1-55.2-14.6-62.8-41.6-10.8-38.5 14.9-68.7 43.3-74.9 21-4.6 39 1.5 54.6 15.8 2.9 2.7 5.5 5.6 8 8.7.7.8.7 1.3-.3 2.1-5 3.4-9.8 6.6-14.5 10.2-1.1.8-1.6.4-2.3-.5-6.2-7.8-14-13.5-23.8-15.9-23.8-5.7-42.8 12.2-46.1 30-4.8 24.8 14.3 43 31 45.5 13.6 2.1 25.4-1.2 35.2-11.4.8-.9 1.3-1.9 1.3-3.2-.1-3.6-.1-7.4 0-11 0-1.5-.3-2-1.9-1.9-9.7.1-19.5 0-29.2.1-1.8 0-2.2-.5-2.2-2.2.1-5.5.1-11 0-16.5 0-1.5.4-1.9 1.9-1.9 8.2 0 16.6-.1 24.9-.1zm-223-6.9v71c0 2.1-.6 2.4-2.5 2.4-5.4-.1-10.7-.1-16.1 0-1.5 0-2-.3-2-1.9V458.5c0-1.6.4-1.9 2-1.9 5 .1 10.1.1 15 0 1.3 0 2.1.4 2.9 1.5 16.5 23.5 33.2 46.7 49.8 70.2.4.6.8 1.1 1.3 1.9.5-1 .3-1.8.3-2.4v-68.5c0-2.2.6-2.6 2.6-2.5 5.4.1 10.7.1 16.1 0 1.5 0 2 .3 2 1.9v109.4c0 1.6-.5 1.9-2 1.9-5-.1-10-.1-14.8 0-1.5 0-2.4-.4-3.2-1.7-16.6-23.6-33.2-46.9-49.8-70.3-.4-.4-.7-1.2-1.6-1.6zm-213.2 16.4c.1-33.1 26.3-58.8 59.5-59.2 31.9-.2 59.2 27.2 59.1 59.6-.1 31.6-27 59.3-59.8 59.1-31.9-.1-59.5-26.7-58.8-59.5zm97.7.4c0-21.4-17.1-38.5-38.4-38.5-21.1 0-38.7 17.4-38.7 38.4 0 21.1 17.5 38.7 38.7 38.7 21 0 38.4-17.3 38.4-38.6zm-151 59c-29 0-53.1-19.4-58.5-47.4-7.3-37.8 19.8-65.4 47.1-70.1 18.5-3.2 34.7 1.7 49.1 13.4 1.9 1.6 3.6 3.2 5.5 4.9.7.6.8 1 .1 1.9-4.5 4.2-8.8 8.3-13.1 12.6-1.2 1.1-1.8.3-2.4-.3-5.2-4.9-11.1-8.7-18-10.8-24.4-7.1-44.6 11.1-48.2 29.7-4.6 24.6 14.3 42.6 31 45.3 11.2 1.9 21.1-1 30.1-7.7 1.9-1.5 3.6-3 5.5-4.6.8-.7 1.3-.8 2 0 4.4 4.4 8.7 8.6 13.2 12.8.8.7.6 1.1-.1 1.9-9.7 9.7-21 16.3-34.8 18.2l-1.2.1c-2.8 0-5.3.3-7.3.1zm630.6-115.4c-6.1 8.6-11.9 16.9-17.9 25.2-7.8 11.1-15.6 22.1-23.5 33.1-.7 1-1 2.2-1 3.4v49.2c0 1.7-.4 2.2-2.2 2.2-5.4-.1-10.7-.1-16.1 0-2 0-2.6-.3-2.6-2.5.1-16.3 0-32.6.1-48.8 0-1.3-.3-2.4-1-3.4-13.3-18.7-26.5-37.4-39.6-56.2-.4-.7-1-1.2-1.3-2.4h23.5c1.3 0 2.1.4 2.9 1.5 8.1 11.7 16.4 23.4 24.6 35.1 1.3 2 1.3 2 2.8-.1 8.2-11.7 16.5-23.2 24.7-35.1.7-1 1.5-1.5 2.9-1.5 7.3.1 14.5 0 21.8 0 .4.3.9.3 1.9.3zM421.5 513v-54c0-1.9.6-2.4 2.4-2.3 5.5.1 10.8.1 16.4 0 1.3 0 1.9.2 1.9 1.8v109.7c0 1.3-.5 1.7-1.8 1.7-5.6 0-11.2-.1-16.9 0-1.6 0-1.9-.5-1.9-2 0-18.3-.1-36.6-.1-54.9zm171 .4v-54.3c0-1.8.5-2.2 2.2-2.1 5.6.1 11.2.1 16.7 0 1.3 0 1.8.3 1.8 1.8v109.7c0 1.3-.5 1.7-1.8 1.7-5.6 0-11.3-.1-16.9 0-1.6 0-1.9-.4-1.9-1.9 0-18.2-.1-36.6-.1-54.9zm9.8-129.7h-7c-3.6.1-5.6 2.2-5.7 5.8V402c0 3.6 2.2 5.7 5.7 5.7h13.5c2.9 0 4.5 1.5 4.5 4.4v12.5c0 2.9-1.6 4.5-4.5 4.5h-12.2c-2.9 0-4.5-1.7-4.5-4.6v-12.2c0-3.6-2.1-5.7-5.7-5.7h-12.9c-3.6 0-5.1-1.5-5.1-5V390c0-3.1 1.6-4.8 4.8-4.8h12.2c5 0 6.6-1.7 6.6-6.7v-11.1c0-3.2 1.6-4.8 4.8-4.8h11.8c2.9 0 4.5 1.6 4.6 4.5v12.2c0 2.9-1.6 4.5-4.6 4.5-2-.1-4.1-.1-6.3-.1z" style="fill:#fff"/>
</svg>