<?xml version="1.0" encoding="UTF-8"?>
<svg xmlns="http://www.w3.org/2000/svg" viewBox="0 0 1024 1024" role="img" aria-label="CoinDCX">
  <circle cx="512" cy="512" r="512" fill="#fa4b29"/>
  <path fill="#fff" d="M516.79 556.12v32.36a28.21 28.21 0 0 1-14 24.45l-27.5 15.94a24.74 24.74 0 0 0 9.39-9.7 26.66 26.66 0 0 1-6.6 7.73c13.25-10.35 15.3-35.63-1-45.07L433.3 556.5a526 526 0 0 1 38.53 36c10.22 11.72 3.45 36.29 3.45 36.29a21.77 21.77 0 0 0 2.51-1.67 22.48 22.48 0 0 1-2.25 1.54l-89.36 51.78a10.47 10.47 0 0 1-15.42-8.15 123.34 123.34 0 0 1 7.12-52.47 120.1 120.1 0 0 1 55.37-63.27l-65.9-38.15A237.77 237.77 0 0 1 251 321.54l245.74 141.79a45.91 45.91 0 0 1 20.5 38.07s-.48 54.15-.45 54.72zm-38.74 70.76-.32.22zM799 702.46 553.27 560.67a45.9 45.9 0 0 1-20.5-38.07s.48-54.14.44-54.72v-32.35a28.2 28.2 0 0 1 14-24.44l27.5-15.95a24.74 24.74 0 0 0-9.39 9.71 25.59 25.59 0 0 1 9.18-9.49l89.36-51.78a10.52 10.52 0 0 1 15.42 8.15 123.44 123.44 0 0 1-7.12 52.47 120.11 120.11 0 0 1-55.37 63.27l65.86 38.13A237.75 237.75 0 0 1 799 702.46zm-182.22-234.9a526.52 526.52 0 0 1-38.53-36c-10.22-11.72-3.45-36.29-3.45-36.29-15.73 8.73-19.23 36.85-1.79 47z"/>
</svg>
