<svg viewBox="0 0 281.5 281.5" xmlns="http://www.w3.org/2000/svg"><circle cx="140.75" cy="140.75" fill="#177aa5" r="140.75"/><path d="m210.29 186.83a11.62 11.62 0 0 0 -5.42 1.33l-33.87-33.87a21.72 21.72 0 0 0 -.7-26.29l34.6-34.61a11.72 11.72 0 1 0 -5.32-5.63l-35.15 35.16a21.73 21.73 0 0 0 -32.29 13.68h-66.83a15.08 15.08 0 1 0 -.57 11.4h67.76a21.78 21.78 0 0 0 32.94 11.68l34.13 34.13a11.59 11.59 0 0 0 -1 4.75 11.73 11.73 0 1 0 11.73-11.73z" fill="#fff"/><g fill="#31a0e7"><circle cx="153.32" cy="141.59" r="15.08"/><circle cx="51.11" cy="141.59" r="10.05"/><circle cx="210.29" cy="82.94" r="8.38"/><circle cx="210.29" cy="198.56" r="8.38"/></g><path d="m104.72 131.53h13.41s10.05-40.21 53.62-23.45l8.38-8.38s-20.49-12.81-44.67-4.84a41.37 41.37 0 0 0 -19 12.79 57.52 57.52 0 0 0 -11.74 23.88z" fill="none" stroke="#fff" stroke-miterlimit="10" stroke-width="3.351191"/><path d="m181.3 183.28-9.48-9.47s-33.82 21.32-52.82-21.33h-13.53s5.43 23.54 28.17 35a41.4 41.4 0 0 0 22.45 4.37 57.32 57.32 0 0 0 25.21-8.57z" fill="none" stroke="#fff" stroke-miterlimit="10" stroke-width="3.351191"/></svg>