<svg xmlns="http://www.w3.org/2000/svg" viewBox="0 0 52 48" role="img" aria-label="CoinJar">
  <path fill="#19191d" fill-rule="evenodd" d="M36.7121 34.5C33.9898 37.277 30.1961 39 26 39c-4.1961 0-7.9898-1.723-10.7122-4.5h21.4243zm2.2812-3H13.0067A14.925 14.925 0 0 1 11 24c0-8.2843 6.7157-15 15-15s15 6.7157 15 15c0 2.7322-.7305 5.2937-2.0067 7.5zM43.7511 27c.1637-.9756.2489-1.9779.2489-3 0-9.9411-8.0589-18-18-18S8 14.0589 8 24c0 1.0221.0852 2.0244.2489 3H5l-2.25 7.5h8.6281C14.6457 39.0422 19.9774 42 26 42s11.3543-2.9578 14.6219-7.5h8.6281L47 27h-3.2489z"/>
</svg>
