<svg xmlns="http://www.w3.org/2000/svg" viewBox="0 0 256 256">
<path d="M0 0 C4.62 0 9.24 0 14 0 C14 0.66 14 1.32 14 2 C15.32 2 16.64 2 18 2 C18 2.66 18 3.32 18 4 C19.32 4 20.64 4 22 4 C22 4.66 22 5.32 22 6 C23.32 6 24.64 6 26 6 C26 6.66 26 7.32 26 8 C27.32 8 28.64 8 30 8 C30 8.66 30 9.32 30 10 C31.32 10 32.64 10 34 10 C34 10.66 34 11.32 34 12 C35.32 12 36.64 12 38 12 C38 12.66 38 13.32 38 14 C39.32 14 40.64 14 42 14 C42 14.66 42 15.32 42 16 C43.32 16 44.64 16 46 16 C46 16.66 46 17.32 46 18 C46.66 18 47.32 18 48 18 C48 18.66 48 19.32 48 20 C49.32 20 50.64 20 52 20 C52 20.66 52 21.32 52 22 C53.32 22 54.64 22 56 22 C56 22.66 56 23.32 56 24 C57.32 24 58.64 24 60 24 C60 24.66 60 25.32 60 26 C61.32 26 62.64 26 64 26 C64 26.66 64 27.32 64 28 C65.32 28 66.64 28 68 28 C68 28.66 68 29.32 68 30 C69.32 30 70.64 30 72 30 C72 30.66 72 31.32 72 32 C73.32 32 74.64 32 76 32 C76 32.66 76 33.32 76 34 C77.32 34 78.64 34 80 34 C80 34.66 80 35.32 80 36 C81.32 36 82.64 36 84 36 C84 36.66 84 37.32 84 38 C85.32 38 86.64 38 88 38 C88 38.66 88 39.32 88 40 C89.32 40 90.64 40 92 40 C92 40.66 92 41.32 92 42 C92.66 42 93.32 42 94 42 C94 42.66 94 43.32 94 44 C95.32 44 96.64 44 98 44 C98 44.66 98 45.32 98 46 C99.32 46 100.64 46 102 46 C102 46.66 102 47.32 102 48 C103.32 48 104.64 48 106 48 C106 48.66 106 49.32 106 50 C107.32 50 108.64 50 110 50 C110 50.66 110 51.32 110 52 C111.32 52 112.64 52 114 52 C114 52.66 114 53.32 114 54 C115.32 54 116.64 54 118 54 C118 54.66 118 55.32 118 56 C119.32 56 120.64 56 122 56 C122 56.66 122 57.32 122 58 C122.66 58 123.32 58 124 58 C124 59.32 124 60.64 124 62 C124.66 62 125.32 62 126 62 C126 63.32 126 64.64 126 66 C125.34 66 124.68 66 124 66 C124 67.32 124 68.64 124 70 C123.34 70 122.68 70 122 70 C122 70.66 122 71.32 122 72 C121.34 72 120.68 72 120 72 C120 72.66 120 73.32 120 74 C118.68 74 117.36 74 116 74 C116 74.66 116 75.32 116 76 C114.68 76 113.36 76 112 76 C112 76.66 112 77.32 112 78 C110.68 78 109.36 78 108 78 C108 78.66 108 79.32 108 80 C106.68 80 105.36 80 104 80 C104 80.66 104 81.32 104 82 C102.68 82 101.36 82 100 82 C100 82.66 100 83.32 100 84 C98.68 84 97.36 84 96 84 C96 84.66 96 85.32 96 86 C95.34 86 94.68 86 94 86 C94 86.66 94 87.32 94 88 C92.68 88 91.36 88 90 88 C90 88.66 90 89.32 90 90 C88.68 90 87.36 90 86 90 C86 90.66 86 91.32 86 92 C84.68 92 83.36 92 82 92 C82 92.66 82 93.32 82 94 C80.68 94 79.36 94 78 94 C78 94.66 78 95.32 78 96 C76.68 96 75.36 96 74 96 C74 96.66 74 97.32 74 98 C72.68 98 71.36 98 70 98 C70 99.32 70 100.64 70 102 C71.32 102 72.64 102 74 102 C74 102.66 74 103.32 74 104 C75.32 104 76.64 104 78 104 C78 104.66 78 105.32 78 106 C79.32 106 80.64 106 82 106 C82 106.66 82 107.32 82 108 C83.32 108 84.64 108 86 108 C86 108.66 86 109.32 86 110 C87.32 110 88.64 110 90 110 C90 110.66 90 111.32 90 112 C90.66 112 91.32 112 92 112 C92 112.66 92 113.32 92 114 C93.32 114 94.64 114 96 114 C96 114.66 96 115.32 96 116 C97.32 116 98.64 116 100 116 C100 116.66 100 117.32 100 118 C101.32 118 102.64 118 104 118 C104 118.66 104 119.32 104 120 C105.32 120 106.64 120 108 120 C108 120.66 108 121.32 108 122 C109.32 122 110.64 122 112 122 C112 122.66 112 123.32 112 124 C113.32 124 114.64 124 116 124 C116 124.66 116 125.32 116 126 C116.66 126 117.32 126 118 126 C118 126.66 118 127.32 118 128 C118.66 128 119.32 128 120 128 C120 128.66 120 129.32 120 130 C119.34 130 118.68 130 118 130 C118 130.66 118 131.32 118 132 C116.68 132 115.36 132 114 132 C114 132.66 114 133.32 114 134 C113.34 134 112.68 134 112 134 C112 134.66 112 135.32 112 136 C110.68 136 109.36 136 108 136 C108 136.66 108 137.32 108 138 C106.68 138 105.36 138 104 138 C104 138.66 104 139.32 104 140 C102.68 140 101.36 140 100 140 C100 140.66 100 141.32 100 142 C98.68 142 97.36 142 96 142 C96 142.66 96 143.32 96 144 C94.68 144 93.36 144 92 144 C92 144.66 92 145.32 92 146 C90.68 146 89.36 146 88 146 C88 146.66 88 147.32 88 148 C86.68 148 85.36 148 84 148 C84 148.66 84 149.32 84 150 C83.34 150 82.68 150 82 150 C82 150.66 82 151.32 82 152 C80.68 152 79.36 152 78 152 C78 152.66 78 153.32 78 154 C76.68 154 75.36 154 74 154 C74 154.66 74 155.32 74 156 C75.32 156 76.64 156 78 156 C78 156.66 78 157.32 78 158 C79.32 158 80.64 158 82 158 C82 158.66 82 159.32 82 160 C83.32 160 84.64 160 86 160 C86 160.66 86 161.32 86 162 C87.32 162 88.64 162 90 162 C90 162.66 90 163.32 90 164 C91.32 164 92.64 164 94 164 C94 164.66 94 165.32 94 166 C95.32 166 96.64 166 98 166 C98 166.66 98 167.32 98 168 C99.32 168 100.64 168 102 168 C102 168.66 102 169.32 102 170 C103.32 170 104.64 170 106 170 C106 170.66 106 171.32 106 172 C107.32 172 108.64 172 110 172 C110 172.66 110 173.32 110 174 C111.32 174 112.64 174 114 174 C114 174.66 114 175.32 114 176 C114.66 176 115.32 176 116 176 C116 176.66 116 177.32 116 178 C117.32 178 118.64 178 120 178 C120 178.66 120 179.32 120 180 C120.66 180 121.32 180 122 180 C122 180.66 122 181.32 122 182 C122.66 182 123.32 182 124 182 C124 182.66 124 183.32 124 184 C124.66 184 125.32 184 126 184 C126 185.98 126 187.96 126 190 C125.34 190 124.68 190 124 190 C124 190.66 124 191.32 124 192 C123.34 192 122.68 192 122 192 C122 192.66 122 193.32 122 194 C121.34 194 120.68 194 120 194 C120 194.66 120 195.32 120 196 C118.68 196 117.36 196 116 196 C116 196.66 116 197.32 116 198 C114.68 198 113.36 198 112 198 C112 198.66 112 199.32 112 200 C110.68 200 109.36 200 108 200 C108 200.66 108 201.32 108 202 C107.34 202 106.68 202 106 202 C106 202.66 106 203.32 106 204 C104.68 204 103.36 204 102 204 C102 204.66 102 205.32 102 206 C100.68 206 99.36 206 98 206 C98 206.66 98 207.32 98 208 C96.68 208 95.36 208 94 208 C94 208.66 94 209.32 94 210 C92.68 210 91.36 210 90 210 C90 210.66 90 211.32 90 212 C88.68 212 87.36 212 86 212 C86 212.66 86 213.32 86 214 C84.68 214 83.36 214 82 214 C82 214.66 82 215.32 82 216 C80.68 216 79.36 216 78 216 C78 216.66 78 217.32 78 218 C77.34 218 76.68 218 76 218 C76 218.66 76 219.32 76 220 C74.68 220 73.36 220 72 220 C72 220.66 72 221.32 72 222 C70.68 222 69.36 222 68 222 C68 222.66 68 223.32 68 224 C66.68 224 65.36 224 64 224 C64 224.66 64 225.32 64 226 C62.68 226 61.36 226 60 226 C60 226.66 60 227.32 60 228 C58.68 228 57.36 228 56 228 C56 228.66 56 229.32 56 230 C54.68 230 53.36 230 52 230 C52 230.66 52 231.32 52 232 C50.68 232 49.36 232 48 232 C48 232.66 48 233.32 48 234 C47.34 234 46.68 234 46 234 C46 234.66 46 235.32 46 236 C44.68 236 43.36 236 42 236 C42 236.66 42 237.32 42 238 C40.68 238 39.36 238 38 238 C38 238.66 38 239.32 38 240 C36.68 240 35.36 240 34 240 C34 240.66 34 241.32 34 242 C32.68 242 31.36 242 30 242 C30 242.66 30 243.32 30 244 C28.68 244 27.36 244 26 244 C26 244.66 26 245.32 26 246 C24.68 246 23.36 246 22 246 C22 246.66 22 247.32 22 248 C20.68 248 19.36 248 18 248 C18 248.66 18 249.32 18 250 C17.34 250 16.68 250 16 250 C16 250.66 16 251.32 16 252 C14.68 252 13.36 252 12 252 C12 252.66 12 253.32 12 254 C10.68 254 9.36 254 8 254 C8 254.66 8 255.32 8 256 C3.38 256 -1.24 256 -6 256 C-6 255.34 -6 254.68 -6 254 C-7.32 254 -8.64 254 -10 254 C-10 253.34 -10 252.68 -10 252 C-11.32 252 -12.64 252 -14 252 C-14 251.34 -14 250.68 -14 250 C-15.32 250 -16.64 250 -18 250 C-18 249.34 -18 248.68 -18 248 C-19.32 248 -20.64 248 -22 248 C-22 247.34 -22 246.68 -22 246 C-23.32 246 -24.64 246 -26 246 C-26 245.34 -26 244.68 -26 244 C-27.32 244 -28.64 244 -30 244 C-30 243.34 -30 242.68 -30 242 C-31.32 242 -32.64 242 -34 242 C-34 241.34 -34 240.68 -34 240 C-35.32 240 -36.64 240 -38 240 C-38 239.34 -38 238.68 -38 238 C-39.32 238 -40.64 238 -42 238 C-42 237.34 -42 236.68 -42 236 C-43.32 236 -44.64 236 -46 236 C-46 235.34 -46 234.68 -46 234 C-47.32 234 -48.64 234 -50 234 C-50 233.34 -50 232.68 -50 232 C-51.32 232 -52.64 232 -54 232 C-54 231.34 -54 230.68 -54 230 C-55.32 230 -56.64 230 -58 230 C-58 229.34 -58 228.68 -58 228 C-59.32 228 -60.64 228 -62 228 C-62 227.34 -62 226.68 -62 226 C-63.32 226 -64.64 226 -66 226 C-66 225.34 -66 224.68 -66 224 C-67.32 224 -68.64 224 -70 224 C-70 223.34 -70 222.68 -70 222 C-71.32 222 -72.64 222 -74 222 C-74 221.34 -74 220.68 -74 220 C-75.32 220 -76.64 220 -78 220 C-78 219.34 -78 218.68 -78 218 C-79.32 218 -80.64 218 -82 218 C-82 217.34 -82 216.68 -82 216 C-83.32 216 -84.64 216 -86 216 C-86 215.34 -86 214.68 -86 214 C-87.32 214 -88.64 214 -90 214 C-90 213.34 -90 212.68 -90 212 C-91.32 212 -92.64 212 -94 212 C-94 211.34 -94 210.68 -94 210 C-95.32 210 -96.64 210 -98 210 C-98 209.34 -98 208.68 -98 208 C-99.32 208 -100.64 208 -102 208 C-102 207.34 -102 206.68 -102 206 C-103.32 206 -104.64 206 -106 206 C-106 205.34 -106 204.68 -106 204 C-107.32 204 -108.64 204 -110 204 C-110 203.34 -110 202.68 -110 202 C-111.32 202 -112.64 202 -114 202 C-114 201.34 -114 200.68 -114 200 C-115.32 200 -116.64 200 -118 200 C-118 199.34 -118 198.68 -118 198 C-118.66 198 -119.32 198 -120 198 C-120 197.34 -120 196.68 -120 196 C-120.66 196 -121.32 196 -122 196 C-122 195.34 -122 194.68 -122 194 C-122.66 194 -123.32 194 -124 194 C-124 190.7 -124 187.4 -124 184 C-123.34 184 -122.68 184 -122 184 C-122 183.34 -122 182.68 -122 182 C-121.34 182 -120.68 182 -120 182 C-120 181.34 -120 180.68 -120 180 C-118.02 180 -116.04 180 -114 180 C-114 179.34 -114 178.68 -114 178 C-112.68 178 -111.36 178 -110 178 C-110 177.34 -110 176.68 -110 176 C-108.68 176 -107.36 176 -106 176 C-106 175.34 -106 174.68 -106 174 C-104.68 174 -103.36 174 -102 174 C-102 173.34 -102 172.68 -102 172 C-100.68 172 -99.36 172 -98 172 C-98 171.34 -98 170.68 -98 170 C-96.68 170 -95.36 170 -94 170 C-94 169.34 -94 168.68 -94 168 C-92.68 168 -91.36 168 -90 168 C-90 167.34 -90 166.68 -90 166 C-88.68 166 -87.36 166 -86 166 C-86 165.34 -86 164.68 -86 164 C-84.68 164 -83.36 164 -82 164 C-82 163.34 -82 162.68 -82 162 C-80.68 162 -79.36 162 -78 162 C-78 161.34 -78 160.68 -78 160 C-76.68 160 -75.36 160 -74 160 C-74 159.34 -74 158.68 -74 158 C-73.34 158 -72.68 158 -72 158 C-72 157.34 -72 156.68 -72 156 C-73.32 156 -74.64 156 -76 156 C-76 155.34 -76 154.68 -76 154 C-77.32 154 -78.64 154 -80 154 C-80 153.34 -80 152.68 -80 152 C-81.32 152 -82.64 152 -84 152 C-84 151.34 -84 150.68 -84 150 C-85.32 150 -86.64 150 -88 150 C-88 149.34 -88 148.68 -88 148 C-89.32 148 -90.64 148 -92 148 C-92 147.34 -92 146.68 -92 146 C-93.32 146 -94.64 146 -96 146 C-96 145.34 -96 144.68 -96 144 C-97.32 144 -98.64 144 -100 144 C-100 143.34 -100 142.68 -100 142 C-101.32 142 -102.64 142 -104 142 C-104 141.34 -104 140.68 -104 140 C-105.32 140 -106.64 140 -108 140 C-108 139.34 -108 138.68 -108 138 C-109.32 138 -110.64 138 -112 138 C-112 137.34 -112 136.68 -112 136 C-113.32 136 -114.64 136 -116 136 C-116 135.34 -116 134.68 -116 134 C-116.66 134 -117.32 134 -118 134 C-118 133.34 -118 132.68 -118 132 C-118.66 132 -119.32 132 -120 132 C-120 131.34 -120 130.68 -120 130 C-119.34 130 -118.68 130 -118 130 C-118 129.34 -118 128.68 -118 128 C-116.68 128 -115.36 128 -114 128 C-114 127.34 -114 126.68 -114 126 C-112.68 126 -111.36 126 -110 126 C-110 125.34 -110 124.68 -110 124 C-108.68 124 -107.36 124 -106 124 C-106 123.34 -106 122.68 -106 122 C-104.68 122 -103.36 122 -102 122 C-102 121.34 -102 120.68 -102 120 C-100.68 120 -99.36 120 -98 120 C-98 119.34 -98 118.68 -98 118 C-96.68 118 -95.36 118 -94 118 C-94 117.34 -94 116.68 -94 116 C-92.02 116 -90.04 116 -88 116 C-88 115.34 -88 114.68 -88 114 C-86.68 114 -85.36 114 -84 114 C-84 113.34 -84 112.68 -84 112 C-82.68 112 -81.36 112 -80 112 C-80 111.34 -80 110.68 -80 110 C-78.68 110 -77.36 110 -76 110 C-76 109.34 -76 108.68 -76 108 C-74.68 108 -73.36 108 -72 108 C-72 107.34 -72 106.68 -72 106 C-70.68 106 -69.36 106 -68 106 C-68 105.34 -68 104.68 -68 104 C-66.68 104 -65.36 104 -64 104 C-64 103.34 -64 102.68 -64 102 C-65.32 102 -66.64 102 -68 102 C-68 101.34 -68 100.68 -68 100 C-69.32 100 -70.64 100 -72 100 C-72 99.34 -72 98.68 -72 98 C-73.32 98 -74.64 98 -76 98 C-76 97.34 -76 96.68 -76 96 C-77.32 96 -78.64 96 -80 96 C-80 95.34 -80 94.68 -80 94 C-81.32 94 -82.64 94 -84 94 C-84 93.34 -84 92.68 -84 92 C-85.32 92 -86.64 92 -88 92 C-88 91.34 -88 90.68 -88 90 C-89.32 90 -90.64 90 -92 90 C-92 89.34 -92 88.68 -92 88 C-93.32 88 -94.64 88 -96 88 C-96 87.34 -96 86.68 -96 86 C-97.32 86 -98.64 86 -100 86 C-100 85.34 -100 84.68 -100 84 C-101.32 84 -102.64 84 -104 84 C-104 83.34 -104 82.68 -104 82 C-105.32 82 -106.64 82 -108 82 C-108 81.34 -108 80.68 -108 80 C-109.32 80 -110.64 80 -112 80 C-112 79.34 -112 78.68 -112 78 C-113.32 78 -114.64 78 -116 78 C-116 77.34 -116 76.68 -116 76 C-117.32 76 -118.64 76 -120 76 C-120 75.34 -120 74.68 -120 74 C-120.66 74 -121.32 74 -122 74 C-122 73.34 -122 72.68 -122 72 C-122.66 72 -123.32 72 -124 72 C-124 68.7 -124 65.4 -124 62 C-123.34 62 -122.68 62 -122 62 C-122 61.34 -122 60.68 -122 60 C-121.34 60 -120.68 60 -120 60 C-120 59.34 -120 58.68 -120 58 C-118.68 58 -117.36 58 -116 58 C-116 57.34 -116 56.68 -116 56 C-114.68 56 -113.36 56 -112 56 C-112 55.34 -112 54.68 -112 54 C-110.68 54 -109.36 54 -108 54 C-108 53.34 -108 52.68 -108 52 C-106.68 52 -105.36 52 -104 52 C-104 51.34 -104 50.68 -104 50 C-102.68 50 -101.36 50 -100 50 C-100 49.34 -100 48.68 -100 48 C-98.02 48 -96.04 48 -94 48 C-94 47.34 -94 46.68 -94 46 C-92.68 46 -91.36 46 -90 46 C-90 45.34 -90 44.68 -90 44 C-88.68 44 -87.36 44 -86 44 C-86 43.34 -86 42.68 -86 42 C-84.68 42 -83.36 42 -82 42 C-82 41.34 -82 40.68 -82 40 C-80.68 40 -79.36 40 -78 40 C-78 39.34 -78 38.68 -78 38 C-76.68 38 -75.36 38 -74 38 C-74 37.34 -74 36.68 -74 36 C-72.68 36 -71.36 36 -70 36 C-70 35.34 -70 34.68 -70 34 C-68.68 34 -67.36 34 -66 34 C-66 33.34 -66 32.68 -66 32 C-64.68 32 -63.36 32 -62 32 C-62 31.34 -62 30.68 -62 30 C-60.68 30 -59.36 30 -58 30 C-58 29.34 -58 28.68 -58 28 C-56.68 28 -55.36 28 -54 28 C-54 27.34 -54 26.68 -54 26 C-52.68 26 -51.36 26 -50 26 C-50 25.34 -50 24.68 -50 24 C-48.68 24 -47.36 24 -46 24 C-46 23.34 -46 22.68 -46 22 C-44.68 22 -43.36 22 -42 22 C-42 21.34 -42 20.68 -42 20 C-40.02 20 -38.04 20 -36 20 C-36 19.34 -36 18.68 -36 18 C-34.68 18 -33.36 18 -32 18 C-32 17.34 -32 16.68 -32 16 C-30.68 16 -29.36 16 -28 16 C-28 15.34 -28 14.68 -28 14 C-26.68 14 -25.36 14 -24 14 C-24 13.34 -24 12.68 -24 12 C-22.68 12 -21.36 12 -20 12 C-20 11.34 -20 10.68 -20 10 C-18.68 10 -17.36 10 -16 10 C-16 9.34 -16 8.68 -16 8 C-14.68 8 -13.36 8 -12 8 C-12 7.34 -12 6.68 -12 6 C-10.68 6 -9.36 6 -8 6 C-8 5.34 -8 4.68 -8 4 C-6.68 4 -5.36 4 -4 4 C-4 3.34 -4 2.68 -4 2 C-2.68 2 -1.36 2 0 2 C0 1.34 0 0.68 0 0 Z M6 14 C6 14.66 6 15.32 6 16 C4.68 16 3.36 16 2 16 C2 16.66 2 17.32 2 18 C0.68 18 -0.64 18 -2 18 C-2 18.66 -2 19.32 -2 20 C-3.32 20 -4.64 20 -6 20 C-6 20.66 -6 21.32 -6 22 C-7.32 22 -8.64 22 -10 22 C-10 22.66 -10 23.32 -10 24 C-11.32 24 -12.64 24 -14 24 C-14 24.66 -14 25.32 -14 26 C-15.32 26 -16.64 26 -18 26 C-18 26.66 -18 27.32 -18 28 C-19.32 28 -20.64 28 -22 28 C-22 28.66 -22 29.32 -22 30 C-23.32 30 -24.64 30 -26 30 C-26 30.66 -26 31.32 -26 32 C-27.32 32 -28.64 32 -30 32 C-30 32.66 -30 33.32 -30 34 C-31.98 34 -33.96 34 -36 34 C-36 34.66 -36 35.32 -36 36 C-37.32 36 -38.64 36 -40 36 C-40 36.66 -40 37.32 -40 38 C-41.32 38 -42.64 38 -44 38 C-44 38.66 -44 39.32 -44 40 C-45.32 40 -46.64 40 -48 40 C-48 40.66 -48 41.32 -48 42 C-49.32 42 -50.64 42 -52 42 C-52 42.66 -52 43.32 -52 44 C-53.32 44 -54.64 44 -56 44 C-56 44.66 -56 45.32 -56 46 C-57.32 46 -58.64 46 -60 46 C-60 46.66 -60 47.32 -60 48 C-61.32 48 -62.64 48 -64 48 C-64 48.66 -64 49.32 -64 50 C-65.32 50 -66.64 50 -68 50 C-68 50.66 -68 51.32 -68 52 C-69.32 52 -70.64 52 -72 52 C-72 52.66 -72 53.32 -72 54 C-73.32 54 -74.64 54 -76 54 C-76 54.66 -76 55.32 -76 56 C-77.32 56 -78.64 56 -80 56 C-80 56.66 -80 57.32 -80 58 C-81.32 58 -82.64 58 -84 58 C-84 58.66 -84 59.32 -84 60 C-85.32 60 -86.64 60 -88 60 C-88 60.66 -88 61.32 -88 62 C-89.98 62 -91.96 62 -94 62 C-94 62.66 -94 63.32 -94 64 C-95.32 64 -96.64 64 -98 64 C-98 64.66 -98 65.32 -98 66 C-99.32 66 -100.64 66 -102 66 C-102 66.66 -102 67.32 -102 68 C-100.68 68 -99.36 68 -98 68 C-98 68.66 -98 69.32 -98 70 C-96.68 70 -95.36 70 -94 70 C-94 70.66 -94 71.32 -94 72 C-92.68 72 -91.36 72 -90 72 C-90 72.66 -90 73.32 -90 74 C-88.68 74 -87.36 74 -86 74 C-86 74.66 -86 75.32 -86 76 C-84.68 76 -83.36 76 -82 76 C-82 76.66 -82 77.32 -82 78 C-80.68 78 -79.36 78 -78 78 C-78 78.66 -78 79.32 -78 80 C-76.68 80 -75.36 80 -74 80 C-74 80.66 -74 81.32 -74 82 C-72.68 82 -71.36 82 -70 82 C-70 82.66 -70 83.32 -70 84 C-68.68 84 -67.36 84 -66 84 C-66 84.66 -66 85.32 -66 86 C-64.68 86 -63.36 86 -62 86 C-62 86.66 -62 87.32 -62 88 C-60.68 88 -59.36 88 -58 88 C-58 88.66 -58 89.32 -58 90 C-56.68 90 -55.36 90 -54 90 C-54 90.66 -54 91.32 -54 92 C-52.68 92 -51.36 92 -50 92 C-50 92.66 -50 93.32 -50 94 C-49.34 94 -48.68 94 -48 94 C-48 94.66 -48 95.32 -48 96 C-46.68 96 -45.36 96 -44 96 C-44 96.66 -44 97.32 -44 98 C-42.68 98 -41.36 98 -40 98 C-40 98.66 -40 99.32 -40 100 C-38.68 100 -37.36 100 -36 100 C-36 100.66 -36 101.32 -36 102 C-34.68 102 -33.36 102 -32 102 C-32 102.66 -32 103.32 -32 104 C-30.68 104 -29.36 104 -28 104 C-28 104.66 -28 105.32 -28 106 C-26.68 106 -25.36 106 -24 106 C-24 106.66 -24 107.32 -24 108 C-22.68 108 -21.36 108 -20 108 C-20 108.66 -20 109.32 -20 110 C-18.68 110 -17.36 110 -16 110 C-16 110.66 -16 111.32 -16 112 C-14.68 112 -13.36 112 -12 112 C-12 112.66 -12 113.32 -12 114 C-10.68 114 -9.36 114 -8 114 C-8 114.66 -8 115.32 -8 116 C-6.68 116 -5.36 116 -4 116 C-4 116.66 -4 117.32 -4 118 C-1.36 118 1.28 118 4 118 C4 117.34 4 116.68 4 116 C5.32 116 6.64 116 8 116 C8 115.34 8 114.68 8 114 C9.32 114 10.64 114 12 114 C12 113.34 12 112.68 12 112 C13.32 112 14.64 112 16 112 C16 111.34 16 110.68 16 110 C17.32 110 18.64 110 20 110 C20 109.34 20 108.68 20 108 C21.32 108 22.64 108 24 108 C24 107.34 24 106.68 24 106 C25.32 106 26.64 106 28 106 C28 105.34 28 104.68 28 104 C28.66 104 29.32 104 30 104 C30 103.34 30 102.68 30 102 C31.32 102 32.64 102 34 102 C34 101.34 34 100.68 34 100 C35.32 100 36.64 100 38 100 C38 99.34 38 98.68 38 98 C39.32 98 40.64 98 42 98 C42 97.34 42 96.68 42 96 C43.32 96 44.64 96 46 96 C46 95.34 46 94.68 46 94 C47.32 94 48.64 94 50 94 C50 93.34 50 92.68 50 92 C51.32 92 52.64 92 54 92 C54 91.34 54 90.68 54 90 C55.32 90 56.64 90 58 90 C58 89.34 58 88.68 58 88 C58.66 88 59.32 88 60 88 C60 87.34 60 86.68 60 86 C61.32 86 62.64 86 64 86 C64 85.34 64 84.68 64 84 C65.32 84 66.64 84 68 84 C68 83.34 68 82.68 68 82 C69.32 82 70.64 82 72 82 C72 81.34 72 80.68 72 80 C73.32 80 74.64 80 76 80 C76 79.34 76 78.68 76 78 C77.32 78 78.64 78 80 78 C80 77.34 80 76.68 80 76 C81.32 76 82.64 76 84 76 C84 75.34 84 74.68 84 74 C84.66 74 85.32 74 86 74 C86 73.34 86 72.68 86 72 C87.32 72 88.64 72 90 72 C90 71.34 90 70.68 90 70 C91.32 70 92.64 70 94 70 C94 69.34 94 68.68 94 68 C95.32 68 96.64 68 98 68 C98 67.34 98 66.68 98 66 C99.32 66 100.64 66 102 66 C102 65.34 102 64.68 102 64 C101.34 64 100.68 64 100 64 C100 63.34 100 62.68 100 62 C98.68 62 97.36 62 96 62 C96 61.34 96 60.68 96 60 C94.68 60 93.36 60 92 60 C92 59.34 92 58.68 92 58 C90.68 58 89.36 58 88 58 C88 57.34 88 56.68 88 56 C86.68 56 85.36 56 84 56 C84 55.34 84 54.68 84 54 C83.34 54 82.68 54 82 54 C82 53.34 82 52.68 82 52 C80.68 52 79.36 52 78 52 C78 51.34 78 50.68 78 50 C76.68 50 75.36 50 74 50 C74 49.34 74 48.68 74 48 C72.68 48 71.36 48 70 48 C70 47.34 70 46.68 70 46 C68.68 46 67.36 46 66 46 C66 45.34 66 44.68 66 44 C64.68 44 63.36 44 62 44 C62 43.34 62 42.68 62 42 C60.68 42 59.36 42 58 42 C58 41.34 58 40.68 58 40 C56.68 40 55.36 40 54 40 C54 39.34 54 38.68 54 38 C52.68 38 51.36 38 50 38 C50 37.34 50 36.68 50 36 C48.68 36 47.36 36 46 36 C46 35.34 46 34.68 46 34 C44.68 34 43.36 34 42 34 C42 33.34 42 32.68 42 32 C40.68 32 39.36 32 38 32 C38 31.34 38 30.68 38 30 C37.34 30 36.68 30 36 30 C36 29.34 36 28.68 36 28 C34.68 28 33.36 28 32 28 C32 27.34 32 26.68 32 26 C30.68 26 29.36 26 28 26 C28 25.34 28 24.68 28 24 C26.68 24 25.36 24 24 24 C24 23.34 24 22.68 24 22 C22.68 22 21.36 22 20 22 C20 21.34 20 20.68 20 20 C18.68 20 17.36 20 16 20 C16 19.34 16 18.68 16 18 C14.68 18 13.36 18 12 18 C12 17.34 12 16.68 12 16 C10.68 16 9.36 16 8 16 C8 15.34 8 14.68 8 14 C7.34 14 6.68 14 6 14 Z M58 164 C58 164.66 58 165.32 58 166 C56.68 166 55.36 166 54 166 C54 166.66 54 167.32 54 168 C52.68 168 51.36 168 50 168 C50 168.66 50 169.32 50 170 C49.34 170 48.68 170 48 170 C48 170.66 48 171.32 48 172 C46.68 172 45.36 172 44 172 C44 172.66 44 173.32 44 174 C42.68 174 41.36 174 40 174 C40 174.66 40 175.32 40 176 C38.68 176 37.36 176 36 176 C36 176.66 36 177.32 36 178 C34.68 178 33.36 178 32 178 C32 178.66 32 179.32 32 180 C30.68 180 29.36 180 28 180 C28 180.66 28 181.32 28 182 C26.68 182 25.36 182 24 182 C24 182.66 24 183.32 24 184 C22.68 184 21.36 184 20 184 C20 184.66 20 185.32 20 186 C19.34 186 18.68 186 18 186 C18 186.66 18 187.32 18 188 C16.68 188 15.36 188 14 188 C14 188.66 14 189.32 14 190 C12.68 190 11.36 190 10 190 C10 190.66 10 191.32 10 192 C8.68 192 7.36 192 6 192 C6 192.66 6 193.32 6 194 C2.7 194 -0.6 194 -4 194 C-4 193.34 -4 192.68 -4 192 C-5.32 192 -6.64 192 -8 192 C-8 191.34 -8 190.68 -8 190 C-9.32 190 -10.64 190 -12 190 C-12 189.34 -12 188.68 -12 188 C-13.32 188 -14.64 188 -16 188 C-16 187.34 -16 186.68 -16 186 C-17.32 186 -18.64 186 -20 186 C-20 185.34 -20 184.68 -20 184 C-21.32 184 -22.64 184 -24 184 C-24 183.34 -24 182.68 -24 182 C-25.32 182 -26.64 182 -28 182 C-28 181.34 -28 180.68 -28 180 C-29.32 180 -30.64 180 -32 180 C-32 179.34 -32 178.68 -32 178 C-33.32 178 -34.64 178 -36 178 C-36 177.34 -36 176.68 -36 176 C-37.32 176 -38.64 176 -40 176 C-40 175.34 -40 174.68 -40 174 C-41.32 174 -42.64 174 -44 174 C-44 173.34 -44 172.68 -44 172 C-45.32 172 -46.64 172 -48 172 C-48 171.34 -48 170.68 -48 170 C-49.32 170 -50.64 170 -52 170 C-52 169.34 -52 168.68 -52 168 C-54.64 168 -57.28 168 -60 168 C-60 168.66 -60 169.32 -60 170 C-61.32 170 -62.64 170 -64 170 C-64 170.66 -64 171.32 -64 172 C-65.32 172 -66.64 172 -68 172 C-68 172.66 -68 173.32 -68 174 C-69.32 174 -70.64 174 -72 174 C-72 174.66 -72 175.32 -72 176 C-73.32 176 -74.64 176 -76 176 C-76 176.66 -76 177.32 -76 178 C-77.32 178 -78.64 178 -80 178 C-80 178.66 -80 179.32 -80 180 C-81.32 180 -82.64 180 -84 180 C-84 180.66 -84 181.32 -84 182 C-85.32 182 -86.64 182 -88 182 C-88 182.66 -88 183.32 -88 184 C-89.32 184 -90.64 184 -92 184 C-92 184.66 -92 185.32 -92 186 C-93.32 186 -94.64 186 -96 186 C-96 186.66 -96 187.32 -96 188 C-97.32 188 -98.64 188 -100 188 C-100 189.32 -100 190.64 -100 192 C-98.68 192 -97.36 192 -96 192 C-96 192.66 -96 193.32 -96 194 C-94.68 194 -93.36 194 -92 194 C-92 194.66 -92 195.32 -92 196 C-90.68 196 -89.36 196 -88 196 C-88 196.66 -88 197.32 -88 198 C-86.68 198 -85.36 198 -84 198 C-84 198.66 -84 199.32 -84 200 C-82.68 200 -81.36 200 -80 200 C-80 200.66 -80 201.32 -80 202 C-78.68 202 -77.36 202 -76 202 C-76 202.66 -76 203.32 -76 204 C-74.68 204 -73.36 204 -72 204 C-72 204.66 -72 205.32 -72 206 C-70.68 206 -69.36 206 -68 206 C-68 206.66 -68 207.32 -68 208 C-66.68 208 -65.36 208 -64 208 C-64 208.66 -64 209.32 -64 210 C-62.68 210 -61.36 210 -60 210 C-60 210.66 -60 211.32 -60 212 C-58.68 212 -57.36 212 -56 212 C-56 212.66 -56 213.32 -56 214 C-54.68 214 -53.36 214 -52 214 C-52 214.66 -52 215.32 -52 216 C-50.68 216 -49.36 216 -48 216 C-48 216.66 -48 217.32 -48 218 C-46.68 218 -45.36 218 -44 218 C-44 218.66 -44 219.32 -44 220 C-42.68 220 -41.36 220 -40 220 C-40 220.66 -40 221.32 -40 222 C-38.68 222 -37.36 222 -36 222 C-36 222.66 -36 223.32 -36 224 C-34.68 224 -33.36 224 -32 224 C-32 224.66 -32 225.32 -32 226 C-30.68 226 -29.36 226 -28 226 C-28 226.66 -28 227.32 -28 228 C-26.68 228 -25.36 228 -24 228 C-24 228.66 -24 229.32 -24 230 C-22.68 230 -21.36 230 -20 230 C-20 230.66 -20 231.32 -20 232 C-18.68 232 -17.36 232 -16 232 C-16 232.66 -16 233.32 -16 234 C-14.68 234 -13.36 234 -12 234 C-12 234.66 -12 235.32 -12 236 C-10.68 236 -9.36 236 -8 236 C-8 236.66 -8 237.32 -8 238 C-6.68 238 -5.36 238 -4 238 C-4 238.66 -4 239.32 -4 240 C-2.68 240 -1.36 240 0 240 C0 240.66 0 241.32 0 242 C0.66 242 1.32 242 2 242 C2 241.34 2 240.68 2 240 C3.32 240 4.64 240 6 240 C6 239.34 6 238.68 6 238 C7.32 238 8.64 238 10 238 C10 237.34 10 236.68 10 236 C10.66 236 11.32 236 12 236 C12 235.34 12 234.68 12 234 C13.32 234 14.64 234 16 234 C16 233.34 16 232.68 16 232 C17.32 232 18.64 232 20 232 C20 231.34 20 230.68 20 230 C21.32 230 22.64 230 24 230 C24 229.34 24 228.68 24 228 C25.32 228 26.64 228 28 228 C28 227.34 28 226.68 28 226 C29.32 226 30.64 226 32 226 C32 225.34 32 224.68 32 224 C33.32 224 34.64 224 36 224 C36 223.34 36 222.68 36 222 C37.32 222 38.64 222 40 222 C40 221.34 40 220.68 40 220 C40.66 220 41.32 220 42 220 C42 219.34 42 218.68 42 218 C43.32 218 44.64 218 46 218 C46 217.34 46 216.68 46 216 C47.32 216 48.64 216 50 216 C50 215.34 50 214.68 50 214 C51.32 214 52.64 214 54 214 C54 213.34 54 212.68 54 212 C55.32 212 56.64 212 58 212 C58 211.34 58 210.68 58 210 C59.32 210 60.64 210 62 210 C62 209.34 62 208.68 62 208 C63.32 208 64.64 208 66 208 C66 207.34 66 206.68 66 206 C67.32 206 68.64 206 70 206 C70 205.34 70 204.68 70 204 C70.66 204 71.32 204 72 204 C72 203.34 72 202.68 72 202 C73.32 202 74.64 202 76 202 C76 201.34 76 200.68 76 200 C77.32 200 78.64 200 80 200 C80 199.34 80 198.68 80 198 C81.32 198 82.64 198 84 198 C84 197.34 84 196.68 84 196 C85.32 196 86.64 196 88 196 C88 195.34 88 194.68 88 194 C89.32 194 90.64 194 92 194 C92 193.34 92 192.68 92 192 C93.32 192 94.64 192 96 192 C96 191.34 96 190.68 96 190 C97.32 190 98.64 190 100 190 C100 189.34 100 188.68 100 188 C100.66 188 101.32 188 102 188 C102 187.34 102 186.68 102 186 C101.34 186 100.68 186 100 186 C100 185.34 100 184.68 100 184 C98.68 184 97.36 184 96 184 C96 183.34 96 182.68 96 182 C94.68 182 93.36 182 92 182 C92 181.34 92 180.68 92 180 C90.68 180 89.36 180 88 180 C88 179.34 88 178.68 88 178 C86.68 178 85.36 178 84 178 C84 177.34 84 176.68 84 176 C82.68 176 81.36 176 80 176 C80 175.34 80 174.68 80 174 C78.68 174 77.36 174 76 174 C76 173.34 76 172.68 76 172 C74.68 172 73.36 172 72 172 C72 171.34 72 170.68 72 170 C70.68 170 69.36 170 68 170 C68 169.34 68 168.68 68 168 C66.68 168 65.36 168 64 168 C64 167.34 64 166.68 64 166 C63.34 166 62.68 166 62 166 C62 165.34 62 164.68 62 164 C60.68 164 59.36 164 58 164 Z" fill="#6B4DFF" transform="translate(128,0)"/>
</svg>
