<svg xmlns="http://www.w3.org/2000/svg" viewBox="0 0 256 256">
<path d="M0 0 C2 1 2 1 2.881 3.589 C3.326 5.327 3.326 5.327 3.781 7.101 C3.947 7.741 4.114 8.382 4.286 9.042 C4.841 11.188 5.385 13.336 5.93 15.484 C6.32 16.998 6.71 18.512 7.102 20.025 C7.935 23.252 8.763 26.48 9.587 29.709 C10.873 34.745 12.168 39.778 13.467 44.81 C13.788 46.056 13.788 46.056 14.116 47.327 C14.548 49.001 14.98 50.675 15.412 52.349 C16.059 54.857 16.705 57.366 17.351 59.875 C21.255 75.04 25.276 90.172 29.345 105.294 C31.372 112.831 33.383 120.372 35.316 127.934 C35.642 129.201 35.968 130.469 36.303 131.775 C37 135 37 135 37 139 C31.06 139 25.12 139 19 139 C15.995 130.522 13.796 121.853 11.551 113.152 C11.129 111.528 10.708 109.905 10.286 108.281 C9.183 104.035 8.084 99.789 6.986 95.542 C5.862 91.197 4.735 86.854 3.607 82.51 C1.402 74.007 -0.801 65.504 -3 57 C-6.097 63.014 -8.801 69.115 -11.379 75.367 C-11.788 76.352 -12.197 77.338 -12.619 78.353 C-13.936 81.526 -15.249 84.7 -16.562 87.875 C-18.359 92.206 -20.158 96.537 -21.957 100.867 C-22.615 102.452 -22.615 102.452 -23.286 104.068 C-28.131 115.737 -33.047 127.376 -38 139 C-39.65 139 -41.3 139 -43 139 C-47.721 130.115 -51.489 120.856 -55.312 111.562 C-56.641 108.338 -57.97 105.114 -59.301 101.891 C-59.623 101.11 -59.945 100.329 -60.276 99.525 C-62.053 95.232 -63.88 90.969 -65.793 86.734 C-66.176 85.876 -66.559 85.018 -66.954 84.135 C-67.62 82.655 -68.303 81.182 -69.005 79.719 C-72.714 71.407 -69.75 63.286 -67.438 54.938 C-67.204 54.072 -66.97 53.206 -66.729 52.314 C-66.158 50.208 -65.58 48.104 -65 46 C-64.01 46 -63.02 46 -62 46 C-61.752 46.597 -61.503 47.194 -61.247 47.809 C-58.669 54.006 -56.09 60.202 -53.51 66.398 C-52.547 68.712 -51.583 71.027 -50.62 73.341 C-49.238 76.663 -47.856 79.984 -46.473 83.305 C-46.04 84.344 -45.608 85.384 -45.163 86.455 C-44.762 87.416 -44.362 88.377 -43.949 89.367 C-43.596 90.215 -43.243 91.063 -42.88 91.937 C-42.294 93.31 -41.667 94.665 -41 96 C-34.002 79.85 -27.164 63.64 -20.438 47.375 C-15.486 35.405 -10.533 23.436 -5.5 11.5 C-5.049 10.427 -4.599 9.353 -4.135 8.248 C-3.729 7.289 -3.324 6.331 -2.906 5.344 C-2.559 4.521 -2.211 3.698 -1.854 2.85 C-1 1 -1 1 0 0 Z" fill="#282C3D" transform="translate(209,60)"/>
<path d="M0 0 C-0.62 6.575 -2.149 12.667 -4 19 C-11.57 18.102 -11.57 18.102 -14.176 17.484 C-26.174 15.427 -38.783 16.288 -50 21 C-50.742 21.3 -51.485 21.601 -52.25 21.91 C-64.072 27.244 -71.974 36.514 -77.453 48.062 C-82.194 61.15 -81.865 77.355 -76 90 C-73.946 93.604 -71.651 96.813 -69 100 C-68.477 100.636 -67.953 101.271 -67.414 101.926 C-57.829 112.47 -44.565 116.593 -31 119 C-31.62 125.575 -33.149 131.667 -35 138 C-46.294 140.91 -58.462 133.554 -68 128 C-71.255 125.894 -74.14 123.613 -77 121 C-77.83 120.25 -78.66 119.5 -79.516 118.727 C-93.924 105.051 -101.156 87.844 -101.961 68.156 C-102.32 51.645 -96.872 37.061 -87 24 C-86.468 23.283 -85.935 22.567 -85.387 21.828 C-67.267 -0.653 -27.163 -13.582 0 0 Z" fill="#282C3D" transform="translate(111,60)"/>
<path d="M0 0 C3.797 3.424 5.242 7.614 7.188 12.25 C7.556 13.084 7.924 13.918 8.303 14.777 C8.65 15.598 8.998 16.42 9.355 17.266 C9.672 18.006 9.988 18.746 10.313 19.509 C12.15 26.17 10.384 32.351 8.661 38.816 C8.412 39.776 8.163 40.736 7.907 41.726 C7.086 44.888 6.252 48.048 5.418 51.207 C4.842 53.415 4.266 55.623 3.691 57.831 C2.484 62.457 1.273 67.081 0.056 71.703 C-1.497 77.609 -3.042 83.517 -4.584 89.426 C-6.06 95.083 -7.539 100.739 -9.02 106.395 C-9.299 107.465 -9.579 108.535 -9.868 109.637 C-10.667 112.691 -11.47 115.743 -12.273 118.796 C-12.505 119.684 -12.737 120.572 -12.977 121.487 C-14.527 127.366 -16.228 133.185 -18 139 C-23.94 139 -29.88 139 -36 139 C-34.875 130 -34.875 130 -33.947 126.443 C-33.634 125.23 -33.634 125.23 -33.314 123.992 C-33.087 123.133 -32.861 122.273 -32.627 121.388 C-32.386 120.46 -32.145 119.532 -31.897 118.575 C-31.101 115.515 -30.299 112.457 -29.496 109.398 C-28.933 107.24 -28.371 105.081 -27.809 102.922 C-26.326 97.228 -24.836 91.535 -23.345 85.843 C-21.858 80.161 -20.378 74.477 -18.896 68.793 C-15.853 57.119 -12.796 45.449 -9.731 33.782 C-9.036 31.139 -8.343 28.495 -7.65 25.852 C-6.682 22.165 -5.711 18.479 -4.736 14.795 C-4.238 12.91 -3.743 11.024 -3.248 9.139 C-2.96 8.055 -2.672 6.971 -2.375 5.854 C-2.131 4.929 -1.886 4.005 -1.635 3.052 C-1 1 -1 1 0 0 Z" fill="#757CA1" transform="translate(126,60)"/>
</svg>
