<svg xmlns="http://www.w3.org/2000/svg" viewBox="0 0 40 36">
  <defs>
    <linearGradient id="a" x1="32.634" y1="34.041" x2="6.567" y2="-1.467" gradientUnits="userSpaceOnUse">
      <stop stop-color="#B9775D"/>
      <stop offset=".218" stop-color="#E89077"/>
      <stop offset=".781" stop-color="#FDBDA4"/>
      <stop offset="1" stop-color="#B57359"/>
    </linearGradient>
  </defs>
  <path fill="url(#a)" d="M33.442 29.037c-1.7 1.973-3.596 2.984-4.885 3.484-3.598 1.392-7.231 1.335-10.798-.168-3.636-1.532-6.89-4.705-8.492-8.28-.713-1.593-1.096-3.269-1.137-4.981l-.026-1.1c0-.09.001-.18.002-.28.055-2.451.997-4.804 2.652-6.625a8.04 8.04 0 0 1 5.758-2.593 10.46 10.46 0 0 0-1.107 1.053c-1.986 2.185-3.079 5.187-3.079 8.454s1.093 6.268 3.079 8.453c1.142 1.258 2.509 2.176 4.061 2.729 1.103.393 2.29.592 3.529.592 2.081 0 5.08-.574 7.554-3.311a11.22 11.22 0 0 0 2.031-3.217h4.075a16.28 16.28 0 0 1-3.216 5.79ZM6.323 29.033c-2.639-2.873-4.093-6.796-4.093-11.047 0-4.263 1.458-8.215 4.105-11.129 2.677-2.947 6.366-4.569 10.388-4.569 1.003 0 1.996.1 2.951.299 5.089 1.057 9.089 4.89 10.709 10.153h-4.075a11.22 11.22 0 0 0-2.031-3.217c-1.131-1.251-2.487-2.166-4.029-2.718a10.39 10.39 0 0 0-3.525-.593c-1.521 0-2.959.301-4.274.895a10.4 10.4 0 0 0-3.316 2.425 12.59 12.59 0 0 0-.668.801c-1.34 1.516-2.197 3.512-2.478 5.998a12.9 12.9 0 0 0-.101 1.654l.027 1.163c.049 2.024.499 4.001 1.34 5.877 1.515 3.382 4.322 6.446 7.595 8.387-3.297-.415-6.273-1.934-8.521-4.38ZM32.18 5.61c2.161 1.856 3.66 4.301 4.385 7.13h-3.866c-1.181-4.412-3.801-8.018-7.315-10.251 2.547.404 4.864 1.462 6.796 3.121Zm-7.903 20.839a11.22 11.22 0 0 0 2.031-3.217h3.808a9.1 9.1 0 0 1-1.192 1.682c-1.856 2.054-4.11 2.546-5.737 2.58.382-.317.746-.665 1.09-1.045Zm14.965-5.497H24.769l-.263.758a9.44 9.44 0 0 1-1.858 3.189 7.86 7.86 0 0 1-2.81 1.991 7.92 7.92 0 0 1-2.804-1.99c-1.601-1.762-2.482-4.212-2.482-6.899s.881-5.138 2.482-6.899a8.04 8.04 0 0 1 2.844-2.003c1.047.436 1.978 1.099 2.77 1.974a9.44 9.44 0 0 1 1.858 3.19l.263.757h14.483c0-4.478-2.784-8.701-5.647-11.158C30.68 1.35 27.013.023 22.999.023c-1.044 0-2.087.098-3.102.288A16.4 16.4 0 0 0 16.723.008c-4.645 0-8.911 1.88-12.013 5.294C1.678 8.64.008 13.143.008 17.986c0 4.835 1.669 9.313 4.699 12.61 3.088 3.361 7.351 5.212 12.001 5.212 1.059 0 2.619 0 3.788-.263.95.176 1.903.264 2.857.264 1.997 0 3.997-.385 5.988-1.155 1.521-.589 3.751-1.775 5.743-4.082 2.012-2.27 3.929-5.59 4.158-9.62Z"/>
</svg>
