<?xml version="1.0" encoding="utf-8"?>
<svg version="1.0" width="100%" viewBox="200 0 592.209 464.989" xmlns="http://www.w3.org/2000/svg">
  <g>
    <g transform="matrix(0.1, 0, 0, -0.1, 199.561279, 460.247253)" fill="#000000" stroke="none">
      <g transform="matrix(1, 0, 0, 1, -13731.985352, 5.007634)" fill="#C41130">
        <path d="M 18160 3929 L 18160 3259 L 18222 3337 C 18320 3460 18574 3708 18677 3780 C 18968 3984 19206 4067 19583 4096 L 19660 4102 L 19660 4351 L 19660 4600 L 18910 4600 L 18160 4600 L 18160 3929 Z"/>
        <path d="M 13740 3701 C 13740 3465 13742 3431 13756 3426 C 13765 3423 13809 3420 13854 3420 C 14016 3420 14262 3377 14447 3315 C 14667 3243 14931 3093 15142 2921 C 15190 2882 15232 2850 15235 2850 C 15238 2850 15240 3102 15240 3410 L 15240 3970 L 14490 3970 L 13740 3970 L 13740 3701 Z"/>
        <path d="M 15990 3031 L 15990 2482 L 16058 2419 C 16202 2285 16370 2198 16545 2165 C 16653 2144 16913 2150 17023 2175 C 17170 2208 17315 2268 17438 2346 L 17490 2380 L 17490 2980 L 17490 3580 L 16740 3580 L 15990 3580 L 15990 3031 Z"/>
        <path d="M 19508 3419 C 19238 3380 19023 3247 18792 2977 C 18694 2863 18610 2750 18393 2445 C 18299 2313 18208 2188 18191 2166 L 18160 2127 L 18160 1684 L 18160 1240 L 18910 1240 L 19660 1240 L 19660 2335 L 19660 3430 L 19613 3429 C 19586 3428 19539 3424 19508 3419 Z"/>
        <path d="M 13740 2006 L 13740 1250 L 14493 1250 L 15245 1250 L 15241 1592 L 15238 1935 L 15031 2127 C 14786 2355 14696 2432 14575 2512 C 14354 2659 14123 2735 13833 2756 L 13740 2763 L 13740 2006 Z"/>
        <path d="M 17411 1619 C 17106 1478 16730 1444 16331 1521 C 16245 1538 16083 1585 16008 1615 C 15991 1622 15990 1580 15990 811 L 15990 0 L 16740 0 L 17490 0 L 17490 825 C 17490 1279 17487 1650 17483 1649 C 17478 1649 17446 1635 17411 1619 Z"/>
      </g>
    </g>
  </g>
</svg>