<svg width="55" height="64" viewBox="0 0 27.467 32" fill="none" xmlns="http://www.w3.org/2000/svg">
  <defs>
    <linearGradient id="right" x1="20.599" y1="31.8592" x2="20.599" y2="0.29307" gradientUnits="userSpaceOnUse">
      <stop stop-color="#111C4E"/>
      <stop offset="1" stop-color="#111C4E" stop-opacity="0"/>
    </linearGradient>
    <linearGradient id="left" x1="6.86553" y1="0.186954" x2="6.86553" y2="28.8139" gradientUnits="userSpaceOnUse">
      <stop stop-color="#111C4E"/>
      <stop offset="1" stop-color="#111C4E" stop-opacity="0"/>
    </linearGradient>
  </defs>
  <path d="M13.7335 0.145L0 8.07416V23.93L13.7335 31.8592L27.467 23.93V8.07416L13.7335 0.145ZM8.31168 6.8131H19.1183L20.4214 12.3238H7.05802L8.31168 6.8131ZM12.6526 23.318L10.3205 25.4897H8.34623L3.41055 16.9041L7.03334 14.2117L10.2341 16.2452V19.9074L12.6526 22.2272V23.318ZM11.0658 19.6829L11.4261 16.2328L10.2465 13.1554H17.2453L16.0928 16.2328L16.4284 19.6705L13.736 19.6829H11.0658ZM19.143 25.4675H17.1959L14.8638 23.3205V22.2297L17.2823 19.9099V16.2476L20.446 14.187L24.0565 16.9041L19.1406 25.4675H19.143Z" fill="#1199FA"/>
  <path d="M13.7335 0.145V6.8131H19.1183L20.4213 12.3238H13.7335V13.1554H17.2452L16.0927 16.2328L16.4284 19.6705L13.736 19.6829V31.8592L27.4695 23.93V8.07416L13.7335 0.145ZM19.143 25.4675H17.1959L14.8638 23.3205V22.2297L17.2822 19.9099V16.2476L20.446 14.187L24.0565 16.9041L19.1405 25.4675H19.143Z" fill="url(#right)"/>
  <path d="M11.0658 19.6829L11.4261 16.2328L10.2465 13.1554H13.7335V12.3238H7.05802L8.31168 6.8131H13.7335V0.145L0 8.07416V23.93L13.7335 31.8592V19.6829H11.0658ZM12.6526 23.318L10.3205 25.4897H8.34623L3.41055 16.9041L7.03334 14.2117L10.2341 16.2452V19.9074L12.6526 22.2272V23.318Z" fill="url(#left)"/>
</svg>
