<svg viewBox="0 0 115.99 114.88" xmlns="http://www.w3.org/2000/svg"><g fill="#4d4d4d"><path d="m96.21 5.9h-25.94l-12.97 22.46 12.97 22.47h25.94l12.97-22.47z"/><path d="m66.86 0-16.37 28.36 16.37 28.36h32.75l16.39-28.36-16.39-28.36zm-12.59 28.36 14.48-25.08h29l14.49 25.08-14.52 25.09h-29z"/><path d="m96.21 64.05h-25.94l-12.97 22.47 12.97 22.47h25.94l12.97-22.47z"/><path d="m66.86 58.16-16.37 28.36 16.37 28.36h32.75l16.39-28.36-16.39-28.36zm-12.59 28.36 14.48-25.09h29l14.49 25.09-14.52 25.09h-29z"/><path d="m45.72 34.97h-25.94l-12.97 22.47 12.97 22.47h25.94l12.97-22.47z"/><path d="m16.37 29.08-16.37 28.36 16.37 28.36h32.75l16.38-28.36-16.38-28.36zm-12.59 28.36 14.49-25.09h29l14.45 25.09-14.49 25.09h-29z"/></g></svg>