<svg xmlns="http://www.w3.org/2000/svg" viewBox="0 0 256 256">
<path d="M0 0 C84.48 0 168.96 0 256 0 C256 84.48 256 168.96 256 256 C171.52 256 87.04 256 0 256 C0 171.52 0 87.04 0 0 Z" fill="#321FA2" transform="translate(0,0)"/>
<path d="M0 0 C10.674 8.82 19.827 22.31 21.241 36.402 C22.057 52.717 20.24 65.699 10 79 C6.84 77.645 5.216 76.293 3.207 73.523 C-3.12 65.498 -3.12 65.498 -12.146 61.298 C-19.598 60.67 -26.457 61.388 -34 62 C-24.43 71.57 -14.86 81.14 -5 91 C-6.213 94.639 -6.925 94.827 -10.25 96.5 C-24.294 103.085 -40.302 104.463 -54.98 99.25 C-69.626 93.187 -81.314 83.674 -88 69 C-92.347 58.422 -93.967 48.433 -93 37 C-92.909 35.826 -92.909 35.826 -92.816 34.629 C-90.612 20.233 -80.497 6.608 -69.125 -1.812 C-47.116 -16.236 -21.498 -15.343 0 0 Z" fill="#FDFDFE" transform="translate(199,83)"/>
<path d="M0 0 C0 37.62 0 75.24 0 114 C-16.687 114 -28.716 108.578 -40.746 97.281 C-46.985 90.966 -50.72 84.224 -54 76 C-54.322 75.243 -54.645 74.487 -54.977 73.707 C-59.589 61.184 -57.885 46.115 -53 34 C-46.437 20.035 -34.353 8.699 -20 3 C-12.856 0.534 -7.826 0 0 0 Z" fill="#FDFCFE" transform="translate(93,71)"/>
</svg>
