<?xml version="1.0" encoding="utf-8"?>
<!-- Generator: Adobe Illustrator 22.1.0, SVG Export Plug-In . SVG Version: 6.00 Build 0)  -->
<svg version="1.1" id="Layer_1" xmlns="http://www.w3.org/2000/svg" xmlns:xlink="http://www.w3.org/1999/xlink" x="0px" y="0px"
	 viewBox="0 0 106.5 106.5" style="enable-background:new 0 0 106.5 106.5;" xml:space="preserve">
<style type="text/css">
	.st0{fill:#FFFFFF;}
	.st1{fill:#F58220;}
</style>
<path class="st0" d="M99.4,7.4L15.7,0.1c-4.2-0.4-8,2.8-8.3,7L0.1,90.7c-0.4,4.2,2.8,8,7,8.3l83.7,7.3c4.2,0.4,8-2.8,8.3-7l7.3-83.7
	C106.8,11.5,103.6,7.8,99.4,7.4"/>
<path class="st1" d="M92,36.2L81.9,69.5c-0.1,0.3-0.2,0.4-0.5,0.5l-7.5,0.7c-0.2,0-0.4-0.1-0.4-0.4l-7.8-31.6
	c-0.2-0.4,0.1-0.8,0.5-0.8l6.3-0.6c0.3,0,0.5,0.1,0.5,0.4l5.3,25.2l7-26.3c0.1-0.3,0.2-0.5,0.6-0.5l5.7-0.5
	C91.8,35.6,92.1,35.9,92,36.2 M63.4,40.4l-2.2,4.4c-0.1,0.3-0.4,0.5-0.8,0.4c-1.7-0.6-3.4-0.8-5.5-0.6c-2.8,0.2-4.3,1.6-4.1,4.2
	c0.1,1.1,0.6,2.1,5.1,3.6c5.5,2,6.8,4.6,7.1,7.7c0.7,7.9-4.6,12.2-11.3,12.8c-3.6,0.3-6.5,0.2-9.4-1.1c-0.2-0.1-0.4-0.3-0.3-0.5
	l2.2-5c0.2-0.4,0.3-0.5,0.8-0.4c1.8,0.7,3.3,1.2,6.3,1c2.6-0.2,4.5-1.6,4.3-4.3c-0.1-1.2-0.7-2.2-4.9-3.8c-5.4-2-7.1-4.7-7.4-8.3
	c-0.6-6.7,4.1-11.3,10.6-11.9c4.1-0.4,6-0.2,9.2,1C63.5,39.7,63.5,40,63.4,40.4 M39.9,42.7L37.7,47c-0.1,0.2-0.2,0.4-0.4,0.4
	c-0.1,0-0.3,0-0.4-0.1c-1.7-0.7-3.2-0.9-5.2-0.8c-3.6,0.3-9,4.3-8.1,14c0.5,5.5,3.6,8.2,7.4,7.8c1.5-0.1,3.2-0.5,5.2-1.7
	c0.4-0.2,0.6-0.1,0.8,0.1l2,4.1c0.2,0.4,0.1,0.7-0.3,1c-2.6,1.8-5,2.4-8.5,2.7c-7.9,0.7-13-3.8-13.7-12.3
	C15.3,49,22.4,41.4,31.4,40.6c3.7-0.3,6-0.1,8.3,1.2C40.1,41.9,40.1,42.3,39.9,42.7 M99.1,10.4L15.5,3.1c-2.6-0.2-4.8,1.7-5.1,4.2
	L3.1,91c-0.2,2.6,1.7,4.8,4.2,5.1l83.7,7.3c2.6,0.2,4.8-1.7,5.1-4.2l7.3-83.7C103.6,12.9,101.7,10.6,99.1,10.4"/>
</svg>
