<?xml version="1.0" encoding="utf-8"?>
<svg version="1.1" id="Layer_1" xmlns="http://www.w3.org/2000/svg" xmlns:xlink="http://www.w3.org/1999/xlink" x="0px" y="0px"
	 viewBox="0 0 460 460" style="enable-background:new 0 0 460 460;" xml:space="preserve">
<g>
	<path style="fill:#C2001B;" d="M230,0C102.974,0,0,102.974,0,230c0,127.025,102.974,230,230,230c7.51,0,14.936-0.36,22.261-1.063
		l195.793-302.292C417.434,65.587,331.376,0,230,0z"/>
	<path style="fill:#940030;" d="M460,230c0-25.65-4.203-50.317-11.951-73.356l-86.647-86.647l-131.069,367l21.927,21.927
		C368.84,447.726,460,349.514,460,230z"/>
	<polygon style="fill:#71E2F0;" points="361.402,69.997 426.936,203.734 354.014,223.955 295.868,203.734 306.831,140.096 	"/>
	<polygon style="fill:#C2FBFF;" points="426.936,203.734 230.333,436.996 249.59,296.482 295.868,203.734 	"/>
	<polygon style="fill:#38C6D9;" points="361.402,69.997 295.868,203.734 248.649,148.638 230.333,69.997 	"/>
	<polygon style="fill:#71E2F0;" points="230.333,69.997 295.868,203.734 220.223,213.844 	"/>
	<polygon style="fill:#38C6D9;" points="295.868,203.734 230.333,436.996 210.113,289.054 230.333,203.734 	"/>
	<polygon style="fill:#71E2F0;" points="230.333,203.734 230.333,436.996 169.436,292.212 164.799,203.734 	"/>
	<polygon style="fill:#C2FBFF;" points="230.333,69.997 230.333,203.734 164.799,203.734 174.23,143.224 	"/>
	<polygon style="fill:#71E2F0;" points="230.333,69.997 164.799,203.734 113.659,140.635 99.265,69.997 	"/>
	<polygon style="fill:#C2FBFF;" points="99.265,69.997 164.799,203.734 115.414,223.955 33.73,203.734 	"/>
	<polygon style="fill:#FFFFFF;" points="164.799,203.734 230.333,436.996 33.73,203.734 	"/>
</g>
</svg>