<?xml version="1.0" encoding="iso-8859-1"?>
<!-- Generator: Adobe Illustrator 19.0.0, SVG Export Plug-In . SVG Version: 6.00 Build 0)  -->
<!-- License: CC0. Made by SVG Repo: https://www.svgrepo.com/svg/100048/stock -->
<svg version="1.1" id="Layer_1" xmlns="http://www.w3.org/2000/svg" xmlns:xlink="http://www.w3.org/1999/xlink" x="0px" y="0px"
	 viewBox="0 0 307.206 307.206" style="enable-background:new 0 0 307.206 307.206;" xml:space="preserve">
<g>
	<g>
		<g id="XMLID_8_">
			<g>
				<path style="fill:#505967;" d="M254.001,226.547c6.19,0,11.193,4.971,11.193,11.129c0,6.126-5.003,11.129-11.193,11.129
					c-6.158,0-11.161-5.003-11.161-11.129C242.84,231.518,247.843,226.547,254.001,226.547z"/>
				<path style="fill:#505967;" d="M153.202,226.547c6.158,0,11.193,4.971,11.193,11.129c0,6.126-5.035,11.129-11.193,11.129
					s-11.193-5.003-11.193-11.129C142.009,231.518,147.045,226.547,153.202,226.547z"/>
				<path style="fill:#505967;" d="M53.205,226.547c6.158,0,11.161,4.971,11.161,11.129c0,6.126-5.003,11.129-11.161,11.129
					c-6.19,0-11.193-5.003-11.193-11.129C42.013,231.518,47.016,226.547,53.205,226.547z"/>
				<path style="fill:#505967;" d="M103.492,141.559c6.158,0,11.193,4.971,11.193,11.129c0,6.126-5.035,11.129-11.193,11.129
					S92.3,158.814,92.3,152.688C92.3,146.53,97.335,141.559,103.492,141.559z"/>
				<path style="fill:#505967;" d="M203.521,141.559c6.158,0,11.193,4.971,11.193,11.129c0,6.126-5.035,11.129-11.193,11.129
					c-6.158,0-11.193-5.003-11.193-11.129C192.329,146.53,197.364,141.559,203.521,141.559z"/>
				<path style="fill:#2D213F;" d="M167.121,152.688c0,19.98,16.324,36.24,36.4,36.24s36.4-16.26,36.4-36.24
					s-16.324-36.24-36.4-36.24S167.121,132.708,167.121,152.688z M217.6,237.676c0,19.98,16.324,36.208,36.4,36.208
					c20.108,0,36.432-16.228,36.432-36.208s-16.324-36.24-36.432-36.24C233.924,201.436,217.6,217.696,217.6,237.676z
					 M103.492,188.928c20.076,0,36.4-16.26,36.4-36.24s-16.324-36.24-36.4-36.24s-36.4,16.26-36.4,36.24
					S83.416,188.928,103.492,188.928z M116.802,237.676c0,19.98,16.324,36.208,36.4,36.208s36.4-16.228,36.4-36.208
					s-16.324-36.24-36.4-36.24S116.802,217.696,116.802,237.676z M118.502,69.528c0,19.98,16.324,36.24,36.4,36.24
					c20.108,0,36.432-16.26,36.432-36.24s-16.324-36.24-36.432-36.24C134.826,33.288,118.502,49.548,118.502,69.528z
					 M16.773,237.676c0,19.98,16.356,36.208,36.432,36.208s36.4-16.228,36.4-36.208s-16.324-36.24-36.4-36.24
					S16.773,217.696,16.773,237.676z M254.001,184.727c29.345,0,53.205,23.732,53.205,52.949c0,29.184-23.861,52.917-53.205,52.917
					c-23.412,0-43.296-15.17-50.383-36.112c-7.088,20.942-26.972,36.112-50.415,36.112c-23.027,0-42.622-14.656-49.998-35.053
					c-7.408,20.397-27.004,35.053-49.998,35.053C23.861,290.593,0,266.86,0,237.676c0-29.217,23.861-52.949,53.205-52.949
					c2.918,0,5.805,0.289,8.595,0.77c-7.184-9.044-11.513-20.429-11.513-32.808c0-29.184,23.861-52.949,53.205-52.949
					c2.854,0,5.612,0.289,8.338,0.706c-6.35-8.691-10.102-19.371-10.102-30.916c0-29.184,23.861-52.917,53.173-52.917
					c29.345,0,53.205,23.732,53.205,52.917c0,11.353-3.624,21.84-9.75,30.467c1.7-0.16,3.432-0.257,5.163-0.257
					c29.345,0,53.205,23.764,53.205,52.949c0,12.411-4.362,23.797-11.545,32.84C248.068,185.047,250.986,184.727,254.001,184.727z
					 M212.373,204.835c-2.886,0.481-5.837,0.802-8.852,0.802c-2.951,0-5.805-0.321-8.627-0.77
					c3.784,4.746,6.735,10.134,8.723,16.003C205.606,215.002,208.588,209.582,212.373,204.835z M160.097,122.221
					c-1.7,0.16-3.432,0.257-5.195,0.257c-2.822,0-5.58-0.289-8.306-0.706c2.886,3.977,5.195,8.338,6.895,13.053
					C155.126,130.303,157.339,126.069,160.097,122.221z M153.202,184.727c2.951,0,5.837,0.289,8.627,0.77
					c-3.528-4.458-6.35-9.493-8.338-14.945c-1.956,5.388-4.746,10.391-8.242,14.817
					C147.846,184.983,150.508,184.727,153.202,184.727z M111.446,204.963c-2.598,0.385-5.228,0.673-7.954,0.673
					c-2.951,0-5.805-0.321-8.627-0.77c3.56,4.458,6.35,9.461,8.338,14.913C105.16,214.392,107.95,209.389,111.446,204.963z"/>
				<path style="fill:#2D213F;" d="M226.035,237.676c0-15.362,12.572-27.837,27.966-27.837c15.426,0,27.998,12.476,27.998,27.837
					c0,15.33-12.572,27.837-27.998,27.837C238.607,265.513,226.035,253.006,226.035,237.676z M265.193,237.676
					c0-6.158-5.003-11.129-11.193-11.129c-6.158,0-11.161,4.971-11.161,11.129c0,6.126,5.003,11.129,11.161,11.129
					C260.19,248.804,265.193,243.801,265.193,237.676z"/>
				<path style="fill:#D6AA83;" d="M226.035,237.676c0,15.33,12.572,27.837,27.966,27.837c15.426,0,27.998-12.508,27.998-27.837
					c0-15.362-12.572-27.837-27.998-27.837C238.607,209.838,226.035,222.314,226.035,237.676z M217.6,237.676
					c0-19.98,16.324-36.24,36.4-36.24c20.108,0,36.432,16.26,36.432,36.24S274.108,273.884,254,273.884
					C233.924,273.884,217.6,257.656,217.6,237.676z"/>
				<path style="fill:#2D213F;" d="M203.521,124.851c15.426,0,27.966,12.476,27.966,27.837c0,15.33-12.54,27.837-27.966,27.837
					s-27.966-12.508-27.966-27.837C175.556,137.326,188.095,124.851,203.521,124.851z M214.714,152.688
					c0-6.158-5.035-11.129-11.193-11.129c-6.158,0-11.193,4.971-11.193,11.129c0,6.126,5.035,11.129,11.193,11.129
					S214.714,158.814,214.714,152.688z"/>
				<path style="fill:#D6AA83;" d="M231.487,152.688c0-15.362-12.54-27.837-27.966-27.837s-27.966,12.476-27.966,27.837
					c0,15.33,12.54,27.837,27.966,27.837S231.487,168.018,231.487,152.688z M203.521,116.448c20.076,0,36.4,16.26,36.4,36.24
					c0,19.98-16.324,36.24-36.4,36.24s-36.4-16.26-36.4-36.24S183.445,116.448,203.521,116.448z"/>
				<path style="fill:#2D213F;" d="M154.902,80.657c6.19,0,11.193-4.971,11.193-11.129c0-6.126-5.003-11.129-11.193-11.129
					c-6.158,0-11.161,5.003-11.161,11.129C143.741,75.686,148.744,80.657,154.902,80.657z M126.936,69.528
					c0-15.33,12.572-27.837,27.966-27.837c15.426,0,27.998,12.508,27.998,27.837c0,15.362-12.572,27.837-27.998,27.837
					C139.508,97.366,126.936,84.89,126.936,69.528z"/>
				<path style="fill:#505967;" d="M154.902,80.657c-6.158,0-11.161-4.971-11.161-11.129c0-6.126,5.003-11.129,11.161-11.129
					c6.19,0,11.193,5.003,11.193,11.129C166.095,75.686,161.092,80.657,154.902,80.657z"/>
				<path style="fill:#2D213F;" d="M181.168,237.676c0,15.33-12.54,27.837-27.966,27.837s-27.966-12.508-27.966-27.837
					c0-15.362,12.54-27.837,27.966-27.837S181.168,222.314,181.168,237.676z M164.395,237.676c0-6.158-5.035-11.129-11.193-11.129
					s-11.193,4.971-11.193,11.129c0,6.126,5.035,11.129,11.193,11.129C159.36,248.804,164.395,243.801,164.395,237.676z"/>
				<path style="fill:#D6AA83;" d="M126.936,69.528c0,15.362,12.572,27.837,27.966,27.837c15.426,0,27.998-12.476,27.998-27.837
					c0-15.33-12.572-27.837-27.998-27.837C139.508,41.691,126.936,54.199,126.936,69.528z M154.902,105.768
					c-20.076,0-36.4-16.26-36.4-36.24s16.324-36.24,36.4-36.24c20.108,0,36.432,16.26,36.432,36.24S175.01,105.768,154.902,105.768z
					"/>
				<path style="fill:#D6AA83;" d="M153.202,209.838c-15.426,0-27.966,12.476-27.966,27.837c0,15.33,12.54,27.837,27.966,27.837
					s27.966-12.508,27.966-27.837C181.168,222.314,168.628,209.838,153.202,209.838z M116.802,237.676
					c0-19.98,16.324-36.24,36.4-36.24s36.4,16.26,36.4,36.24s-16.324,36.208-36.4,36.208S116.802,257.656,116.802,237.676z"/>
				<path style="fill:#2D213F;" d="M103.492,124.851c15.426,0,27.966,12.476,27.966,27.837c0,15.33-12.54,27.837-27.966,27.837
					s-27.966-12.508-27.966-27.837C75.527,137.326,88.066,124.851,103.492,124.851z M114.685,152.688
					c0-6.158-5.035-11.129-11.193-11.129S92.3,146.53,92.3,152.688c0,6.126,5.035,11.129,11.193,11.129
					C109.65,163.817,114.685,158.814,114.685,152.688z"/>
				<path style="fill:#D6AA83;" d="M103.492,124.851c-15.426,0-27.966,12.476-27.966,27.837c0,15.33,12.54,27.837,27.966,27.837
					s27.966-12.508,27.966-27.837C131.458,137.326,118.919,124.851,103.492,124.851z M67.092,152.688
					c0-19.98,16.324-36.24,36.4-36.24s36.4,16.26,36.4,36.24s-16.324,36.24-36.4,36.24S67.092,172.668,67.092,152.688z"/>
				<path style="fill:#2D213F;" d="M25.208,237.676c0-15.362,12.572-27.837,27.998-27.837s27.966,12.476,27.966,27.837
					c0,15.33-12.54,27.837-27.966,27.837S25.208,253.006,25.208,237.676z M64.366,237.676c0-6.158-5.003-11.129-11.161-11.129
					c-6.19,0-11.193,4.971-11.193,11.129c0,6.126,5.003,11.129,11.193,11.129C59.363,248.804,64.366,243.801,64.366,237.676z"/>
				<path style="fill:#D6AA83;" d="M16.773,237.676c0-19.98,16.356-36.24,36.432-36.24s36.4,16.26,36.4,36.24
					s-16.324,36.208-36.4,36.208S16.773,257.656,16.773,237.676z M53.205,209.838c-15.426,0-27.998,12.476-27.998,27.837
					c0,15.33,12.572,27.837,27.998,27.837s27.966-12.508,27.966-27.837C81.171,222.314,68.632,209.838,53.205,209.838z"/>
			</g>
		</g>
	</g>
</g>
</svg>
