<svg xmlns="http://www.w3.org/2000/svg" width="96" height="96" fill="none" viewBox="0 0 96 96">
  <g clip-path="url(#a)">
    <mask id="b" width="96" height="96" x="0" y="0" maskUnits="userSpaceOnUse" style="mask-type:luminance">
      <path fill="#fff" d="M96 0H0v96h96z"/>
    </mask>
    <g mask="url(#b)">
      <path fill="#6165f0" d="M78 0H18C8.059 0 0 8.059 0 18v60c0 9.941 8.059 18 18 18h60c9.941 0 18-8.059 18-18V18c0-9.941-8.059-18-18-18"/>
      <path fill="#fff" fill-rule="evenodd" d="M20.977 25.205C20 27.244 20 29.913 20 35.25v25.5c0 5.338 0 8.007.977 10.046.859 1.794 2.23 3.252 3.915 4.166C26.81 76 29.318 76 34.336 76h27.328c5.018 0 7.527 0 9.444-1.04 1.686-.913 3.057-2.371 3.916-4.165C76 68.757 76 66.088 76 60.75v-25.5c0-5.338 0-8.007-.976-10.046-.86-1.794-2.23-3.252-3.916-4.166C69.191 20 66.682 20 61.664 20H34.336c-5.018 0-7.527 0-9.444 1.039-1.686.914-3.056 2.372-3.915 4.166m5.172 3.68c-.549 1.147-.549 2.649-.549 5.651v26.928c0 3.003 0 4.505.55 5.652a5.2 5.2 0 0 0 2.202 2.343c1.078.584 2.49.584 5.312.584h5.402v-19.09h-.044v-4.48h.044V25.959h-5.402c-2.823 0-4.234 0-5.312.584a5.2 5.2 0 0 0-2.203 2.343m17.397 22.069v19.09h18.79c2.823 0 4.234 0 5.312-.585a5.2 5.2 0 0 0 2.203-2.343c.55-1.147.55-2.649.55-5.652v-10.51zm26.854-4.48H43.546V25.958h18.79c2.823 0 4.234 0 5.312.584a5.2 5.2 0 0 1 2.203 2.343c.55 1.147.55 2.648.55 5.651z" clip-rule="evenodd"/>
    </g>
  </g>
  <defs><clipPath id="a"><path fill="#fff" d="M0 0h96v96H0z"/></clipPath></defs>
</svg>
