<svg xmlns="http://www.w3.org/2000/svg" viewBox="0 0 1024 1024">
<path d="M0 0 C337.92 0 675.84 0 1024 0 C1024 337.92 1024 675.84 1024 1024 C686.08 1024 348.16 1024 0 1024 C0 686.08 0 348.16 0 0 Z" fill="#FEFEFE" transform="translate(0,0)"/>
<path d="M0 0 C97.68 0 195.36 0 296 0 C296 97.68 296 195.36 296 296 C198.32 296 100.64 296 0 296 C0 198.32 0 100.64 0 0 Z" fill="#FE7701" transform="translate(220,543)"/>
<path d="M0 0 C97.68 0 195.36 0 296 0 C296 97.68 296 195.36 296 296 C198.32 296 100.64 296 0 296 C0 198.32 0 100.64 0 0 Z" fill="#FE7701" transform="translate(220,185)"/>
<path d="M0 0 C15.781 1.127 15.781 1.127 21.008 2.016 C22.168 2.212 23.328 2.408 24.523 2.61 C25.712 2.821 26.9 3.032 28.125 3.25 C29.394 3.475 30.663 3.699 31.971 3.931 C59.931 8.996 87.511 17.326 113 30 C113.972 30.478 114.945 30.956 115.947 31.449 C136.701 41.717 155.784 53.722 174 68 C175.473 69.152 175.473 69.152 176.977 70.328 C194.382 84.273 211.428 100.296 225 118 C226.084 119.358 227.17 120.715 228.258 122.07 C265.298 168.51 287.748 224.309 295.484 283.074 C295.585 283.833 295.685 284.592 295.788 285.374 C296.073 288.905 296 292.457 296 296 C198.32 296 100.64 296 0 296 C0 198.32 0 100.64 0 0 Z" fill="#FE7701" transform="translate(578,185)"/>
<path d="M0 0 C97.68 0 195.36 0 296 0 C295.36 10.241 294.625 19.768 292.75 29.75 C292.526 30.96 292.302 32.171 292.071 33.417 C278.275 106.412 238.212 178.057 179 224 C177.839 224.948 176.68 225.898 175.523 226.852 C167.032 233.821 158.288 240.136 149 246 C148.424 246.367 147.848 246.733 147.254 247.111 C108.758 271.433 66.287 287.109 21.318 293.599 C18.853 293.966 18.853 293.966 16 295 C10.72 295.33 5.44 295.66 0 296 C0 198.32 0 100.64 0 0 Z" fill="#FE7701" transform="translate(578,543)"/>
</svg>
