<svg viewBox="0 0 179.25 174.75" xmlns="http://www.w3.org/2000/svg"><path d="m131 59.39a30.73 30.73 0 0 0 -8.89-1.22l-64.26.16v58.17h64.09a28.37 28.37 0 0 0 17.56-5.86 28 28 0 0 0 7.58-9.22 31 31 0 0 0 -.3-29.26 26.43 26.43 0 0 0 -15.78-12.77z" fill="none"/><path d="m179.25 88c-.62-26.5-13.31-41.31-25.84-49.5a61.49 61.49 0 0 0 -33.67-9.75h-3v-28.75h-28.24v28.75h-30.75v-28.75h-28.25v28.75h-29.5l.13 29.5h29.25v58.13h-29.38v28.62h29.5v29.75h28.25v-29.75h30.75v29.75h28.25v-29.75h5a59.09 59.09 0 0 0 28.25-7c30-16.3 29.25-50 29.25-50zm-32.19 13.42a28 28 0 0 1 -7.58 9.22 28.37 28.37 0 0 1 -17.56 5.86h-64.09v-58.17l64.26-.16a30.73 30.73 0 0 1 8.91 1.22 26.43 26.43 0 0 1 15.78 12.77 31 31 0 0 1 .28 29.26z" fill="#2dae9a"/></svg>