<svg xmlns="http://www.w3.org/2000/svg" viewBox="0 0 890.57 405.91">
  <path fill="#FF444F" d="M227.43 90.37l-12.46 70.66h-43.25c-40.35 0-78.81 32.69-85.94 73.04l-3.02 17.17c-7.09 40.35 19.83 73.04 60.17 73.04H179c29.41 0 57.42-23.81 62.59-53.21l33.22-188.32-47.38 7.62zm-30.69 174.03c-1.59 9.08-9.77 16.48-18.85 16.48h-21.91c-18.14 0-30.27-14.72-27.09-32.89l1.89-10.71c3.22-18.14 20.52-32.89 38.66-32.89h37.89l-10.59 60.01zm363.77 59.87 28.38-161h44.89l-28.38 161h-44.89zm4.85-159.14-6.76 38.31c-21.27-6.61-43.21-4.5-49.95-3.16l-21.86 124.03h-44.92l26.94-152.72c14.61-6.05 50.49-18.33 96.55-6.46zM383.35 161h-34.94c-34.05 0-66.51 27.58-72.51 61.63l-7.06 40.02c-6 34.05 16.71 61.63 50.76 61.63h74.33l7.63-43.27H331.7c-11.34 0-18.93-9.18-16.91-20.56l.23-1.36h112.62l6.43-36.47c6-34.05-16.71-61.63-50.76-61.63h.04zm5.67 58.18-.26 2.32h-66.97l.36-2.06c2.02-11.34 12.37-21.32 23.74-21.32h26.16c11.24.01 18.83 9.82 16.97 21.06zm374.99-55.91h44.92c-15.3 40.69-50.37 109.89-84.34 161h-44.92c-15.59-48.64-25.66-116.4-27.58-161H697c.81 14.55 7.32 68.5 14.75 106.19 20.38-36.67 42.85-84.78 52.22-106.19h.04z"/>
</svg>
