<svg version="1.1" id="Layer_1" xmlns="http://www.w3.org/2000/svg" xmlns:xlink="http://www.w3.org/1999/xlink" x="0px" y="0px"
	 viewBox="0 0 257.7 205.6" style="enable-background:new 0 0 257.7 205.6;" xml:space="preserve">
<style type="text/css">
	.st0{fill:#F15A22;}
	.st1{clip-path:url(#SVGID_2_);fill:#FFFFFF;}
	.st2{fill:#FFFFFF;}
	.st3{clip-path:url(#SVGID_4_);fill:#FFFFFF;}
</style>
<rect class="st0" width="257.7" height="205.6"/>
<g>
	<defs>
		<rect id="SVGID_1_" x="0" width="257.7" height="205.6"/>
	</defs>
	<clipPath id="SVGID_2_">
		<use xlink:href="#SVGID_1_"  style="overflow:visible;"/>
	</clipPath>
	<path class="st1" d="M55.3,139.6c0,4.1-1.2,7.3-3.5,9.5c-2.4,2.2-5.8,3.3-10.2,3.3h-7.1v-25.1h7.9c4.1,0,7.3,1.1,9.6,3.3
		C54.2,132.7,55.3,135.7,55.3,139.6 M49.8,139.7c0-5.4-2.4-8.1-7.2-8.1h-2.8V148h2.3C47.2,148,49.8,145.2,49.8,139.7"/>
	<path class="st1" d="M67.8,152.7c-3.1,0-5.5-0.9-7.3-2.6c-1.7-1.7-2.6-4.1-2.6-7.3c0-3.2,0.8-5.7,2.4-7.5c1.6-1.8,3.8-2.6,6.7-2.6
		c2.7,0,4.8,0.8,6.3,2.3c1.5,1.5,2.3,3.7,2.3,6.4v2.5H63.3c0.1,1.5,0.5,2.7,1.3,3.5c0.8,0.8,2,1.3,3.5,1.3c1.2,0,2.3-0.1,3.3-0.4
		c1-0.2,2.1-0.6,3.2-1.2v4.1c-0.9,0.5-1.9,0.8-2.9,1C70.6,152.6,69.3,152.7,67.8,152.7 M67.1,136.5c-1.1,0-2,0.4-2.6,1.1
		c-0.6,0.7-1,1.7-1.1,3h7.4c0-1.3-0.4-2.3-1-3C69.1,136.9,68.2,136.5,67.1,136.5"/>
	<path class="st1" d="M83.6,152.4l-7.3-19.2h5.5l3.7,11c0.4,1.4,0.7,2.7,0.8,3.9h0.1c0.1-1.1,0.3-2.4,0.8-3.9l3.7-11h5.5L89,152.4
		H83.6z"/>
	<path class="st1" d="M106.9,152.7c-3.1,0-5.5-0.9-7.3-2.6c-1.7-1.7-2.6-4.1-2.6-7.3c0-3.2,0.8-5.7,2.4-7.5c1.6-1.8,3.8-2.6,6.7-2.6
		c2.7,0,4.8,0.8,6.3,2.3c1.5,1.5,2.3,3.7,2.3,6.4v2.5h-12.4c0.1,1.5,0.5,2.7,1.3,3.5c0.8,0.8,2,1.3,3.5,1.3c1.2,0,2.3-0.1,3.3-0.4
		c1-0.2,2.1-0.6,3.2-1.2v4.1c-0.9,0.5-1.9,0.8-2.9,1C109.7,152.6,108.4,152.7,106.9,152.7 M106.1,136.5c-1.1,0-2,0.4-2.6,1.1
		c-0.6,0.7-1,1.7-1.1,3h7.4c0-1.3-0.4-2.3-1-3C108.1,136.9,107.3,136.5,106.1,136.5"/>
</g>
<polygon class="st2" points="122.3,142.6 116.1,133.2 122.1,133.2 125.8,139.3 129.6,133.2 135.5,133.2 129.3,142.6 135.8,152.4
	129.8,152.4 125.8,145.8 121.7,152.4 115.8,152.4 "/>
<g>
	<defs>
		<rect id="SVGID_3_" x="0" width="257.7" height="205.6"/>
	</defs>
	<clipPath id="SVGID_4_">
		<use xlink:href="#SVGID_3_"  style="overflow:visible;"/>
	</clipPath>
	<path class="st3" d="M149,152.7c-2.3,0-4-0.8-5.3-2.5h-0.3c0.2,1.6,0.3,2.5,0.3,2.8v7.8h-5.2v-27.7h4.3l0.7,2.5h0.2
		c1.2-1.9,3-2.9,5.4-2.9c2.3,0,4,0.9,5.3,2.6c1.3,1.8,1.9,4.2,1.9,7.3c0,2.1-0.3,3.8-0.9,5.3c-0.6,1.5-1.5,2.7-2.6,3.5
		C151.8,152.3,150.5,152.7,149,152.7 M147.5,137c-1.3,0-2.2,0.4-2.8,1.2s-0.9,2.1-0.9,3.9v0.6c0,2.1,0.3,3.5,0.9,4.4
		c0.6,0.9,1.6,1.3,2.9,1.3c2.4,0,3.5-1.9,3.5-5.8c0-1.9-0.3-3.3-0.9-4.3C149.6,137.5,148.7,137,147.5,137"/>
	<path class="st3" d="M168.7,152.7c-3.1,0-5.5-0.9-7.3-2.6c-1.7-1.7-2.6-4.1-2.6-7.3c0-3.2,0.8-5.7,2.4-7.5c1.6-1.8,3.8-2.6,6.7-2.6
		c2.7,0,4.8,0.8,6.3,2.3c1.5,1.5,2.3,3.7,2.3,6.4v2.5h-12.4c0.1,1.5,0.5,2.7,1.3,3.5c0.8,0.8,2,1.3,3.5,1.3c1.2,0,2.3-0.1,3.3-0.4
		c1-0.2,2.1-0.6,3.2-1.2v4.1c-0.9,0.5-1.9,0.8-2.9,1C171.4,152.6,170.2,152.7,168.7,152.7 M167.9,136.5c-1.1,0-2,0.4-2.6,1.1
		c-0.6,0.7-1,1.7-1.1,3h7.4c0-1.3-0.4-2.3-1-3C169.9,136.9,169,136.5,167.9,136.5"/>
	<path class="st3" d="M190.1,132.8c0.7,0,1.3,0.1,1.8,0.2l-0.4,4.9c-0.4-0.1-0.9-0.2-1.5-0.2c-1.7,0-3,0.4-3.9,1.3
		c-0.9,0.9-1.4,2.1-1.4,3.6v9.8h-5.2v-19.2h4l0.8,3.2h0.3c0.6-1.1,1.4-1.9,2.4-2.6C187.8,133.1,188.9,132.8,190.1,132.8"/>
	<path class="st3" d="M203.8,148.6c0.9,0,2-0.2,3.3-0.6v3.9c-1.3,0.6-2.9,0.9-4.8,0.9c-2.1,0-3.6-0.5-4.6-1.6
		c-1-1.1-1.4-2.6-1.4-4.8v-9.3h-2.5v-2.2l2.9-1.8l1.5-4.1h3.4v4.1h5.4v3.9h-5.4v9.3c0,0.7,0.2,1.3,0.6,1.7
		C202.5,148.4,203.1,148.6,203.8,148.6"/>
	<path class="st3" d="M224.1,146.7c0,2-0.7,3.5-2.1,4.5c-1.4,1-3.4,1.5-6.1,1.5c-1.4,0-2.6-0.1-3.6-0.3c-1-0.2-1.9-0.5-2.8-0.8v-4.3
		c1,0.5,2.1,0.8,3.3,1.2c1.2,0.3,2.3,0.5,3.2,0.5c1.9,0,2.9-0.5,2.9-1.7c0-0.4-0.1-0.7-0.4-1c-0.3-0.3-0.7-0.6-1.3-0.9
		c-0.6-0.3-1.4-0.7-2.5-1.1c-1.5-0.6-2.6-1.2-3.3-1.7c-0.7-0.5-1.2-1.1-1.5-1.8c-0.3-0.7-0.5-1.5-0.5-2.5c0-1.7,0.7-3,2-4
		c1.3-0.9,3.2-1.4,5.6-1.4c2.3,0,4.6,0.5,6.8,1.5l-1.6,3.8c-1-0.4-1.9-0.8-2.7-1c-0.8-0.3-1.7-0.4-2.6-0.4c-1.5,0-2.3,0.4-2.3,1.3
		c0,0.5,0.2,0.9,0.7,1.2c0.5,0.3,1.6,0.9,3.3,1.5c1.5,0.6,2.6,1.2,3.3,1.7c0.7,0.5,1.2,1.1,1.5,1.8
		C223.9,144.9,224.1,145.7,224.1,146.7"/>
	<path class="st3" d="M133,93.6l21.4,11.9l1.9,0.9c-1-0.1-1.3-0.1-2.2-0.2H152h-1.9h-3.7h-1.9h-3.7h-1.9H133v7.6h5.8h1.9h3.7h1.9
		h3.7h1.9h3.7h1.9h3.7h1.9h3.7h1.9h5.7v-5.7v-1.9v-3.7v-1.9v-3.7v-1.9v-7.6h-7.6v0.1v7.5v1v1v3.7v1v1v1l-28.9-16.3H133V93.6z"/>
	<path class="st3" d="M125.4,93.6l-21.4,11.9l-1.9,0.9c1-0.1,1.3-0.1,2.2-0.2h2.1h1.9h3.7h1.9h3.7h1.9h5.8v7.6h-5.8h-1.9h-3.7H112
		h-3.7h-1.9h-3.7h-1.9h-3.7H95h-3.7h-1.9h-5.7v-5.7v-1.9v-3.7v-1.9v-3.7v-1.9v-7.6h7.6v0.1v7.5v1v1v3.7v1v1v1l28.9-16.3h5.2V93.6z"
		/>
	<path class="st3" d="M133,73.3l21.4-11.9l1.9-0.9c-1,0.1-1.3,0.1-2.2,0.2H152h-1.9h-3.7h-1.9h-3.7h-1.9H133v-7.6h5.8h1.9h3.7h1.9
		h3.7h1.9h3.7h1.9h3.7h1.9h3.7h1.9h5.7v5.7v1.9v3.7v1.9v3.7V72v7.6h-7.6v-0.1V72v-1v-1v-3.7v-1v-1v-1l-28.9,16.3H133V73.3z"/>
	<path class="st3" d="M125.4,73.3l-21.4-11.9l-1.9-0.9c1,0.1,1.3,0.1,2.2,0.2h2.1h1.9h3.7h1.9h3.7h1.9h5.8v-7.6h-5.8h-1.9h-3.7H112
		h-3.7h-1.9h-3.7h-1.9h-3.7H95h-3.7h-1.9h-5.7v5.7v1.9v3.7v1.9v3.7V72v7.6h7.6v-0.1V72v-1v-1v-3.7v-1v-1v-1l28.9,16.3h5.2V73.3z"/>
</g>
</svg>
