<svg xmlns="http://www.w3.org/2000/svg" width="45" height="45" viewBox="0 0 45 45">
	<title>Dhan</title>
	<path fill="url(#dhan-gradient)" d="M22.5 45C34.9263 45 45 34.9264 45 22.5C45 10.0736 34.9263 0 22.5 0C10.0736 0 0 10.0736 0 22.5C0 34.9264 10.0736 45 22.5 45Z"/>
	<path fill="#17875f" fill-rule="evenodd" d="M32.7051 42.5445 14.9963 28.8399l2.5006-6.3436-4.2313-5.767 1.7307-5.1902H32.881L44.9964 22.5524c-.0213 8.724-5.0116 16.2807-12.2913 19.9921Z"/>
	<path fill="#fff" d="M34.6073 14.6895h-5.1324v20.2628c-.837 0-1.6614-.1599-2.4737-.4798-.8124-.2953-1.2186-.6397-1.2186-1.0335v-4.392c-1.723 1.0827-3.5938 1.6239-5.6123 1.6239s-3.6676-.5167-4.9476-1.5502c-1.2553-1.058-1.8831-2.4236-1.8831-4.0968 0-1.2794.4431-2.4236 1.3292-3.4325-1.2553-.4675-2.2523-1.1565-2.9908-2.067-.7384-.9349-1.1077-2.0423-1.1077-3.3216 0-1.2795.517-2.4483 1.5508-3.5064 1.0585-1.058 2.4985-1.587 4.3201-1.587 1.3291 0 2.3506.2952 3.0646.8858.7384.5905 1.1077 1.3163 1.1077 2.1776 0 1.747-1.1325 2.9772-3.3969 3.6908-.3692-.2952-.6401-.7136-.8124-1.2548 1.0091-.6644 1.5139-1.3656 1.5139-2.1039 0-.4183-.1232-.7504-.3693-.9965-.2462-.2707-.6401-.406-1.1816-.406s-1.0708.2954-1.5877.8859c-.5169.5905-.7754 1.3655-.7754 2.3251 0 .9351.2585 1.7224.7754 2.3623.5415.615 1.2184 1.0457 2.0307 1.2917 1.083-.5412 2.3015-.9472 3.6555-1.218  .9353.8859 1.526 1.8085 1.7723 2.7681-1.5263.2953-2.8185.7628-3.8769 1.4027-1.0339.6151-1.5509 1.3287-1.5509 2.1406 0 .7874.2708 1.4271.8124 1.9193.5661.4921 1.3661.7381 2.3999.7381 1.0584 0 2.1047-.2952 3.1386-.8858 1.0338-.5906 1.9076-1.3656 2.6214-2.3253v-9.8176h-2.5477c-.8861-1.0335-1.3291-2.1284-1.3291-3.2849h11.5569c.763.9842 1.1446 2.0792 1.1446 3.2849Z"/>
	<defs><linearGradient id="dhan-gradient" x1="42.1875" y1="38.25" x2="26.1224" y2="-.6117" gradientUnits="userSpaceOnUse"><stop stop-color="#138c61"/><stop offset="1" stop-color="#4dba93" stop-opacity=".99"/></linearGradient></defs>
</svg>
