<svg width="256" height="256" viewBox="0 0 256 256" fill="none" xmlns="http://www.w3.org/2000/svg">
<path d="M0 64C0 28.6538 28.6538 0 64 0H192C227.346 0 256 28.6538 256 64V192C256 227.346 227.346 256 192 256H64C28.6538 256 0 227.346 0 192V64Z" fill="#08AA18"/>
<g clip-path="url(#clip0_354_3823)">
<path d="M32 62.9677C32 45.8647 45.8647 32 62.9677 32H193.032C210.135 32 224 45.8647 224 62.9677V193.032C224 210.135 210.135 224 193.032 224H62.9677C45.8647 224 32 210.135 32 193.032V62.9677Z" fill="#08AA18"/>
<path d="M105.764 71.4325C105.367 72.4792 106.14 73.599 107.259 73.5993H129.162C130.199 73.5993 130.962 74.5712 130.717 75.5786L116.825 132.535C116.424 134.18 118.518 135.239 119.606 133.941L169.692 74.1724C169.996 73.8097 170.446 73.5993 170.919 73.5993H203.043C204.411 73.5993 205.148 75.2066 204.256 76.2439L77.1854 224H65.261L92.329 110.773C92.5694 109.767 91.8069 108.8 90.7731 108.799H52.9722C51.6232 108.799 50.8805 107.233 51.7338 106.188L112.32 32H120.719L105.764 71.4325Z" fill="white"/>
</g>
<defs>
<clipPath id="clip0_354_3823">
<rect width="192" height="192" fill="white" transform="translate(32 32)"/>
</clipPath>
</defs>
</svg>
