<svg xmlns="http://www.w3.org/2000/svg" viewBox="130 0 200 200">
  <rect width="460" height="200" fill="#F4511E"/>
  <path d="M237.41 118.411L278.008 140.845L281.686 142.472C279.833 142.327 279.132 142.24 277.571 142.138C276.447 142.138 274.681 142.138 273.557 142.138C272.346 142.138 271.12 142.138 269.909 142.138H262.832H259.183H252.106H248.457H237.41V156.435H248.457H252.106H259.183H262.832H269.909H273.557H280.635H284.283H291.361H295.009H302.087H305.735H316.461V145.756V142.124V135.077V131.444V124.397V120.765V106.366H302.087V106.555V120.78V122.596V124.412V131.459V133.275V135.091V137.038L247.363 106.381H237.425V118.411H237.41Z" fill="white"/>
  <path d="M144.029 144.405L184.627 121.971L188.305 120.344C186.451 120.489 185.751 120.576 184.189 120.678C183.066 120.678 181.3 120.678 180.176 120.678C178.965 120.678 177.739 120.678 176.528 120.678H169.45H165.802H158.71H155.062H144.015V106.366H155.062H158.71H165.788H169.436H176.513H180.162H187.239H190.888H197.965H201.614H208.691H212.34H223.065V117.045V120.678V127.725V131.357V138.404V142.036V156.45H208.691V156.261V142.036V140.22V138.404V131.357V129.541V127.725V125.778L144.029 162V156.435V144.405Z" fill="#394755"/>
  <path d="M237.41 80.024L278.008 57.5903L281.686 55.9629C279.833 56.1082 279.132 56.1954 277.571 56.2971C276.447 56.2971 274.681 56.2971 273.557 56.2971C272.346 56.2971 271.12 56.2971 269.909 56.2971H262.832H259.183H252.106H248.457H237.41V42H248.457H252.106H259.183H262.832H269.909H273.557H280.635H284.283H291.361H295.009H302.087H305.735H316.461V52.6793V56.3117V63.3585V66.9909V74.0378V77.6702V92.0835H302.087V91.8947V77.6702V75.854V74.0378V66.9909V65.1747V63.3585V61.4116L247.363 92.069H237.425V80.024H237.41Z" fill="white"/>
  <path d="M223.051 80.024L182.453 57.5903L178.775 55.9629C180.629 56.1082 181.329 56.1954 182.891 56.2971C184.014 56.2971 185.78 56.2971 186.904 56.2971C188.115 56.2971 189.341 56.2971 190.552 56.2971H197.63H201.278H208.356H212.004H223.051V42H212.004H208.356H201.278H197.63H190.552H186.904H179.826H176.178H169.1H165.452H158.374H154.726H144V52.6793V56.3117V63.3585V66.9909V74.0378V77.6702V92.0835H158.374V91.8947V77.6702V75.854V74.0378V66.9909V65.1747V63.3585V61.4116L213.098 92.069H223.036V80.024H223.051Z" fill="white"/>
</svg>
