<svg xmlns="http://www.w3.org/2000/svg" viewBox="0 0 48 48"><path fill="#f05f40" fill-rule="evenodd" d="M24 48a24 24 0 1 0 0-48 24 24 0 0 0 0 48Zm-7.62-18.54c0-.4.32-.72.72-.72.4 0 .73-.33.73-.73v-9.3c0-.4-.33-.73-.73-.73a.72.72 0 0 1-.72-.72v-1.21a.7.7 0 1 0-1.39 0v1.19c0 .4-.32.72-.72.72-.4 0-.73.33-.73.72v9.33c0 .4.33.73.73.73.4 0 .72.32.72.72v5.52c0 .39.31.7.7.7a.7.7 0 0 0 .69-.7v-5.52ZM24 39c.42 0 .77-.34.77-.77V34.5c0-.41.33-.74.74-.74s.75-.34.75-.75v-17.1a.76.76 0 0 0-.76-.76.76.76 0 0 1-.75-.75V9.75a.75.75 0 0 0-1.51 0v4.65c0 .42-.34.75-.76.75a.75.75 0 0 0-.75.76v17.1c0 .4.33.75.75.75s.76.33.76.75v3.72c0 .43.34.77.76.77Zm9-13.85c0-.4.32-.72.72-.72.4 0 .73-.33.73-.73v-9.29c0-.4-.33-.72-.73-.72a.72.72 0 0 1-.72-.72v-1.29a.62.62 0 1 0-1.24 0v1.29c0 .4-.33.72-.73.72-.4 0-.72.32-.72.72v9.3c0 .4.32.72.72.72.4 0 .73.32.73.72v3.89a.62.62 0 0 0 1.24 0v-3.89Z" clip-rule="evenodd"/></svg>
