<svg viewBox="0 0 16 16" xmlns="http://www.w3.org/2000/svg">
  <rect width="16" height="16" fill="#13c636"/>
  <path fill="#fff" d="M11.409 6.022c-.121-.107-.185-.188-.088-.188.203 0 1.435.18 1.69-.743.255-.924-1.105-3.711-1.156-3.831-.05-.115.052-.26.201-.26s.255.157.27.177c1.387 1.726 3.323 3.881 3.572 4.809.631 2.353-1.809 3.306-3.347 3.48a.035.035 0 0 1-.041-.035v-.835c0-1.127-.425-1.971-1.101-2.574ZM4.591 6.022c-.674.603-1.1 1.447-1.1 2.574v.835a.035.035 0 0 1-.041.035C1.911 9.292-.529 8.339.102 5.987.352 5.058 2.287 2.903 3.674 1.177 3.69 1.158 3.797 1 3.944 1s.251.146.201.26c-.051.12-1.41 2.907-1.156 3.83.254.924 1.487.744 1.691.744.097 0 .032.08-.089.188Zm3.483-.389c1.644.016 3.383.986 3.383 2.942v1.636a.449.449 0 0 1-.45.45H6.361v.889c0 .806.957 1.266 1.714 1.266.557 0 1.35-.286 1.661-.803a.038.038 0 0 1 .052-.015c.568.321.901.503 1.475.832a.075.075 0 0 1 .031.101c-.651 1.053-2.018 1.55-3.219 1.562-1.676-.016-3.52-.954-3.52-2.942V8.576c0-1.957 1.845-2.927 3.52-2.943Zm1.612 3.458v-.516c0-.806-.906-1.184-1.613-1.184-.756 0-1.713.378-1.713 1.184v.591h3.251a.075.075 0 0 0 .075-.075Z"/>
</svg>
