<svg id="Layer_1" xmlns="http://www.w3.org/2000/svg" viewBox="0 0 142.2 142.2" width="2500" height="2500"><style>.st0{fill:#0c81c4}.st1{fill:#fff}</style><path class="st0" d="M60 .9C70.1-1 80.5.1 90.4 2.6c19.4 5.5 36.4 19.6 44.9 38 7.6 15.2 8.6 33.2 4.4 49.5-4.7 16.5-15.3 31.2-29.7 40.5-14.6 9.6-32.8 13.5-50 10.7-29.7-4.1-55.1-29.3-59.2-59-2.8-17 .9-35 10.3-49.5C22 15.9 40.2 3.8 60 .9"/><path class="st1" d="M34.5 41c4.6-3.4 10.7-3.6 16.2-3 1.8.1 3.2 1.2 4.6 2.3-.2 1.7-.3 3.6-1.8 4.7-3.2 2.9-7.9-.9-11.2 1.9-2.2 2.1-2.5 5.3-3.5 8 2.9.1 9.2-.4 8.2 4.3-1.2 4.5-6.5 4-10.2 4.1-2.1 8.9-4.5 17.8-6.7 26.8-.7 2.6-1.4 5.4-3.5 7.3-1.8 1.8-5 2.5-7.1.9-2-1.9-1.3-4.8-.7-7.1 2.3-9.3 4.6-18.6 6.9-27.8-2.7 0-8.1.1-7.1-4.1.9-4.1 5.8-4.1 9.1-4.1 1.5-5.1 2.6-10.8 6.8-14.2zM56.5 57.9c7.2-4.3 16-4.9 24.1-3.3 3.6.8 7.3 3.5 7.6 7.5.7 7.6-2.6 14.7-4 22-.5 3.3.1 6.7-.6 9.9-.6 3.2-3.9 5.2-6.9 5.3-2.8-.8-3.9-3.8-5-6.2-6.4 4-14 7.4-21.7 5.5-4-.8-7.3-4.4-7.5-8.5-.1-4.7 2.4-9.2 6.1-12 4-3.2 9.2-4 14-5.1 1.7-.2 3.4-.4 5-1 2.9-.6 5.8-1.3 8.7-1.8 0-2.2.2-4.5-.1-6.7-1.9-1.9-5-.9-7.5-1.2-5.7-.5-9.3 4.5-12.8 8-.8 0-2.5.1-3.3.1l-2.4-1.2c-1.3-4.8 2.5-8.9 6.3-11.3m3.4 22.8c-2.9.8-5.8 3.2-5.8 6.5-.3 1.9 1.3 3.6 3 4.3 4.8 1.1 10-.9 13.3-4.5 2.5-2.7 3.2-6.4 4.2-9.7-4.8 1.5-9.8 2.1-14.7 3.4zM106.2 41.8c2.1-3 8-3.8 9.3.4.2 4.4-1.6 8.7-2.5 13 2.4.3 5.5-.6 7.5 1.4 1 1.3.4 3-.3 4.2-2.1 2.8-6.1 2.2-9.1 2.6-1.8 7.3-3.7 14.6-5.4 21.9-.4 1.7-.9 4.3 1 5.2 2.4.2 4.7-.4 7-.4 1.9.1 2.9 2.5 2 4.1-1.6 3.8-6.2 4.7-9.9 5-3.8.1-8.5.5-11.1-2.8-2.1-3-1.1-6.7-.5-10 1.8-7.6 3.7-15.2 5.7-22.8-2.5.1-6.6-1.1-5.4-4.4 1.1-3.2 4.6-3.9 7.6-4.2 1.1-4.5 1.5-9.4 4.1-13.2z"/></svg>