<svg width="270" height="250" xmlns="http://www.w3.org/2000/svg" xml:space="preserve" enable-background="new 0 0 500 283" version="1.1">

 <g>
  <title>Layer 1</title>
  <g id="svg_1">
   <path id="svg_2" d="m41.249,193.467l13.801,10.739l13.806,10.715c0,0 2.304,-8.172 8.095,-18.911l-27.604,-21.456c-5.792,10.741 -8.098,18.913 -8.098,18.913l0,0z" fill="#C76300"/>
   <path id="svg_3" d="m51.094,171.436l27.604,21.455c3.001,-5.178 6.783,-10.798 11.457,-16.311l-27.595,-21.457c-4.684,5.507 -8.457,11.126 -11.466,16.313l0,0z" fill="#D18212"/>
   <path id="svg_4" d="m64.913,152.473l27.588,21.455c4.334,-4.749 9.366,-9.34 15.165,-13.415l-27.595,-21.463c-5.809,4.083 -10.849,8.666 -15.158,13.423l0,0z" fill="#D19429"/>
   <path id="svg_5" d="m172.873,87.973l27.595,21.456c4.628,-4.345 9.179,-9.177 13.615,-14.641l-27.604,-21.455c-4.437,5.456 -8.996,10.295 -13.606,14.64l0,0z" fill="#F5D145"/>
   <path id="svg_6" d="m106.939,125.782l27.6,21.449c6.598,-2.603 13.751,-5.383 21.208,-8.732l-27.604,-21.449c-7.457,3.342 -14.605,6.115 -21.204,8.732l0,0z" fill="#FADE6E"/>
   <path id="svg_7" d="m85.514,135.518c-0.795,0.486 -1.571,0.979 -2.358,1.467l27.612,21.463c0.775,-0.493 1.552,-1.003 2.346,-1.464c5.045,-2.996 11.011,-5.573 17.626,-8.24l-27.599,-21.448c-6.612,2.659 -12.587,5.234 -17.627,8.222l0,0z" fill="#FAAB00"/>
   <path id="svg_8" d="m212.51,29.713l27.596,21.457c2.644,-6.025 5.159,-12.47 7.547,-19.351l-27.604,-21.455c-2.388,6.881 -4.904,13.321 -7.539,19.349l0,0z" fill="#E39105"/>
   <path id="svg_9" d="m201.747,51.05l27.609,21.451c3.221,-5.547 6.314,-11.522 9.267,-18.011l-27.587,-21.454c-2.97,6.493 -6.072,12.463 -9.289,18.014l0,0z" fill="#E3A30A"/>
   <path id="svg_10" d="m131.757,115.389l27.602,21.463c6.222,-2.93 12.633,-6.321 19.08,-10.386l-27.596,-21.466c-6.446,4.067 -12.857,7.45 -19.086,10.389l0,0z" fill="#FFFABA"/>
   <path id="svg_11" d="m153.98,102.969l27.595,21.456c5.431,-3.621 10.879,-7.771 16.253,-12.585l-27.595,-21.446c-5.375,4.797 -10.824,8.952 -16.253,12.575l0,0z" fill="#FFDB7D"/>
   <path id="svg_12" d="m188.676,70.567l27.604,21.456c3.867,-4.981 7.645,-10.452 11.265,-16.46l-27.604,-21.449c-3.629,6.001 -7.398,11.474 -11.265,16.453l0,0z" fill="#EBB000"/>
   <path id="svg_13" d="m1.128,162.291l13.804,10.715l13.794,10.733c0,0 2.294,-8.165 8.104,-18.931l-27.596,-21.455c-5.818,10.767 -8.106,18.938 -8.106,18.938l0,0z" fill="#870012"/>
   <path id="svg_14" d="m10.972,140.243l27.604,21.455c3,-5.176 6.782,-10.798 11.456,-16.303l-27.596,-21.464c-4.682,5.514 -8.469,11.134 -11.464,16.312l0,0z" fill="#B20A1C"/>
   <path id="svg_15" d="m24.769,121.289l27.605,21.455c4.33,-4.755 9.369,-9.34 15.179,-13.421l-27.605,-21.463c-5.809,4.08 -10.849,8.664 -15.179,13.429l0,0z" fill="#BA001C"/>
   <path id="svg_16" d="m132.742,56.781l27.608,21.449c4.623,-4.337 9.174,-9.168 13.611,-14.624l-27.605,-21.462c-4.437,5.457 -8.995,10.3 -13.614,14.637l0,0z" fill="#D93636"/>
   <path id="svg_17" d="m66.814,94.589l27.607,21.45c6.59,-2.601 13.751,-5.375 21.204,-8.725l-27.604,-21.447c-7.465,3.349 -14.608,6.116 -21.207,8.722l0,0z" fill="#FA8C8C"/>
   <path id="svg_18" d="m45.392,104.327c-0.799,0.476 -1.573,0.971 -2.346,1.473l27.604,21.457c0.765,-0.496 1.538,-0.997 2.346,-1.467c5.031,-2.988 11.006,-5.57 17.614,-8.237l-27.604,-21.449c-6.604,2.668 -12.575,5.253 -17.614,8.223l0,0z" fill="#E50000"/>
   <path id="svg_19" d="m161.632,19.862l27.604,21.446c3.21,-5.545 6.303,-11.518 9.264,-18.006l-27.6,-21.448c-2.949,6.481 -6.06,12.456 -9.268,18.008l0,0z" fill="#BD001C"/>
   <path id="svg_20" d="m91.633,84.196l27.591,21.458c6.243,-2.932 12.638,-6.315 19.093,-10.388l-27.603,-21.456c-6.456,4.064 -12.85,7.455 -19.081,10.386l0,0z" fill="#FFCCCC"/>
   <path id="svg_21" d="m113.849,71.778l27.604,21.463c5.438,-3.629 10.878,-7.777 16.253,-12.583l-27.595,-21.457c-5.374,4.806 -10.822,8.963 -16.262,12.577l0,0z" fill="#EB8A96"/>
   <path id="svg_22" d="m148.553,39.376l27.596,21.455c3.871,-4.978 7.632,-10.451 11.269,-16.452l-27.588,-21.45c-3.653,6.002 -7.414,11.47 -11.277,16.447l0,0z" fill="#C90012"/>
   <path id="svg_23" d="m81.384,224.659l13.789,10.724l13.811,10.728c0,0 2.282,-8.162 8.087,-18.909l-27.596,-21.466c-5.805,10.759 -8.091,18.923 -8.091,18.923l0,0z" fill="#870012"/>
   <path id="svg_24" d="m91.218,202.636l27.607,21.44c2.992,-5.178 6.774,-10.798 11.456,-16.296l-27.6,-21.463c-4.686,5.512 -8.455,11.134 -11.463,16.319l0,0z" fill="#B20A1C"/>
   <path id="svg_25" d="m105.024,183.666l27.595,21.455c4.339,-4.749 9.368,-9.342 15.178,-13.415l-27.599,-21.456c-5.813,4.074 -10.84,8.658 -15.174,13.416l0,0z" fill="#BA001C"/>
   <path id="svg_26" d="m212.995,119.157l27.596,21.456c4.627,-4.337 9.178,-9.168 13.61,-14.634l-27.591,-21.455c-4.428,5.458 -8.987,10.297 -13.615,14.633l0,0z" fill="#D93636"/>
   <path id="svg_27" d="m147.065,156.975l27.596,21.447c6.59,-2.61 13.751,-5.374 21.217,-8.733l-27.595,-21.448c-7.475,3.353 -14.618,6.117 -21.218,8.734l0,0z" fill="#FA8C8C"/>
   <path id="svg_28" d="m125.641,166.711c-0.798,0.486 -1.58,0.988 -2.346,1.465l27.586,21.455c0.782,-0.492 1.555,-0.987 2.362,-1.457c5.033,-2.988 11.006,-5.571 17.615,-8.237l-27.596,-21.447c-6.606,2.667 -12.585,5.242 -17.621,8.221l0,0z" fill="#E50000"/>
   <path id="svg_29" d="m171.886,146.572l27.596,21.464c6.229,-2.938 12.633,-6.32 19.084,-10.387l-27.612,-21.455c-6.435,4.075 -12.855,7.457 -19.068,10.378l0,0z" fill="#FFCCCC"/>
   <path id="svg_30" d="m194.098,134.169l27.604,21.448c5.439,-3.622 10.874,-7.77 16.255,-12.585l-27.596,-21.455c-5.373,4.807 -10.82,8.963 -16.263,12.592l0,0z" fill="#EB8A96"/>
   <path id="svg_31" d="m228.807,101.758l27.596,21.457c3.867,-4.98 7.628,-10.452 11.265,-16.462l-27.605,-21.446c-3.629,6.009 -7.39,11.465 -11.256,16.451l0,0z" fill="#C90012"/>
  </g>
 </g>
</svg>