<?xml version="1.0" encoding="utf-8"?>
<!DOCTYPE svg PUBLIC "-//W3C//DTD SVG 1.1//EN" "http://www.w3.org/Graphics/SVG/1.1/DTD/svg11.dtd">
<svg version="1.1" id="Layer_1" xmlns="http://www.w3.org/2000/svg" xmlns:xlink="http://www.w3.org/1999/xlink" x="0px" y="0px"
	 width="354.431785464" height="282.141738132" viewBox="0 0 505 402" enable-background="new 0 0 505 402" xml:space="preserve">
<g>
	<path fill="#C76300" d="M156.249,200.467l13.801,10.739l13.806,10.715c0,0,2.304-8.172,8.095-18.911l-27.604-21.456
		C158.555,192.295,156.249,200.467,156.249,200.467L156.249,200.467z"/>
	<path fill="#D18212" d="M166.094,178.436l27.604,21.455c3.001-5.178,6.783-10.798,11.457-16.311l-27.595-21.457
		C172.876,167.63,169.103,173.249,166.094,178.436L166.094,178.436z"/>
	<path fill="#D19429" d="M179.913,159.473l27.588,21.455c4.334-4.749,9.366-9.34,15.165-13.415l-27.595-21.463
		C189.262,150.133,184.222,154.716,179.913,159.473L179.913,159.473z"/>
	<path fill="#F5D145" d="M287.873,94.973l27.595,21.456c4.628-4.345,9.179-9.177,13.615-14.641l-27.604-21.455
		C297.042,85.789,292.483,90.628,287.873,94.973L287.873,94.973z"/>
	<path fill="#FADE6E" d="M221.939,132.782l27.6,21.449c6.598-2.603,13.751-5.383,21.208-8.732l-27.604-21.449
		C235.686,127.392,228.538,130.165,221.939,132.782L221.939,132.782z"/>
	<path fill="#FAAB00" d="M200.514,142.518c-0.795,0.486-1.571,0.979-2.358,1.467l27.612,21.463c0.775-0.493,1.552-1.003,2.346-1.464
		c5.045-2.996,11.011-5.573,17.626-8.24l-27.599-21.448C211.529,136.955,205.554,139.53,200.514,142.518L200.514,142.518z"/>
	<path fill="#E39105" d="M327.51,36.713l27.596,21.457c2.644-6.025,5.159-12.47,7.547-19.351l-27.604-21.455
		C332.661,24.245,330.145,30.685,327.51,36.713L327.51,36.713z"/>
	<path fill="#E3A30A" d="M316.747,58.05l27.609,21.451c3.221-5.547,6.314-11.522,9.267-18.011l-27.587-21.454
		C323.066,46.529,319.964,52.499,316.747,58.05L316.747,58.05z"/>
	<path fill="#FFFABA" d="M246.757,122.389l27.602,21.463c6.222-2.93,12.633-6.321,19.08-10.386l-27.596-21.466
		C259.397,116.067,252.986,119.45,246.757,122.389L246.757,122.389z"/>
	<path fill="#FFDB7D" d="M268.98,109.969l27.595,21.456c5.431-3.621,10.879-7.771,16.253-12.585l-27.595-21.446
		C279.858,102.191,274.409,106.346,268.98,109.969L268.98,109.969z"/>
	<path fill="#EBB000" d="M303.676,77.567l27.604,21.456c3.867-4.981,7.645-10.452,11.265-16.46l-27.604-21.449
		C311.312,67.115,307.543,72.588,303.676,77.567L303.676,77.567z"/>
	<path fill="#870012" d="M116.128,169.291l13.804,10.715l13.794,10.733c0,0,2.294-8.165,8.104-18.931l-27.596-21.455
		C118.416,161.12,116.128,169.291,116.128,169.291L116.128,169.291z"/>
	<path fill="#B20A1C" d="M125.972,147.243l27.604,21.455c3-5.176,6.782-10.798,11.456-16.303l-27.596-21.464
		C132.754,136.445,128.967,142.065,125.972,147.243L125.972,147.243z"/>
	<path fill="#BA001C" d="M139.769,128.289l27.605,21.455c4.33-4.755,9.369-9.34,15.179-13.421l-27.605-21.463
		C149.139,118.94,144.099,123.524,139.769,128.289L139.769,128.289z"/>
	<path fill="#D93636" d="M247.742,63.781L275.35,85.23c4.623-4.337,9.174-9.168,13.611-14.624l-27.605-21.462
		C256.919,54.601,252.361,59.444,247.742,63.781L247.742,63.781z"/>
	<path fill="#FA8C8C" d="M181.814,101.589l27.607,21.45c6.59-2.601,13.751-5.375,21.204-8.725l-27.604-21.447
		C195.556,96.216,188.413,98.983,181.814,101.589L181.814,101.589z"/>
	<path fill="#E50000" d="M160.392,111.327c-0.799,0.476-1.573,0.971-2.346,1.473l27.604,21.457c0.765-0.496,1.538-0.997,2.346-1.467
		c5.031-2.988,11.006-5.57,17.614-8.237l-27.604-21.449C171.402,105.772,165.431,108.357,160.392,111.327L160.392,111.327z"/>
	<path fill="#BD001C" d="M276.632,26.862l27.604,21.446c3.21-5.545,6.303-11.518,9.264-18.006l-27.6-21.448
		C282.951,15.335,279.84,21.31,276.632,26.862L276.632,26.862z"/>
	<path fill="#FFCCCC" d="M206.633,91.196l27.591,21.458c6.243-2.932,12.638-6.315,19.093-10.388L225.714,80.81
		C219.258,84.874,212.864,88.265,206.633,91.196L206.633,91.196z"/>
	<path fill="#EB8A96" d="M228.849,78.778l27.604,21.463c5.438-3.629,10.878-7.777,16.253-12.583l-27.595-21.457
		C239.737,71.007,234.289,75.164,228.849,78.778L228.849,78.778z"/>
	<path fill="#C90012" d="M263.553,46.376l27.596,21.455c3.871-4.978,7.632-10.451,11.269-16.452l-27.588-21.45
		C271.177,35.931,267.416,41.399,263.553,46.376L263.553,46.376z"/>
	<path fill="#870012" d="M196.384,231.659l13.789,10.724l13.811,10.728c0,0,2.282-8.162,8.087-18.909l-27.596-21.466
		C198.67,223.495,196.384,231.659,196.384,231.659L196.384,231.659z"/>
	<path fill="#B20A1C" d="M206.218,209.636l27.607,21.44c2.992-5.178,6.774-10.798,11.456-16.296l-27.6-21.463
		C212.995,198.829,209.226,204.451,206.218,209.636L206.218,209.636z"/>
	<path fill="#BA001C" d="M220.024,190.666l27.595,21.455c4.339-4.749,9.368-9.342,15.178-13.415l-27.599-21.456
		C229.385,181.324,224.358,185.908,220.024,190.666L220.024,190.666z"/>
	<path fill="#D93636" d="M327.995,126.157l27.596,21.456c4.627-4.337,9.178-9.168,13.61-14.634l-27.591-21.455
		C337.182,116.982,332.623,121.821,327.995,126.157L327.995,126.157z"/>
	<path fill="#FA8C8C" d="M262.065,163.975l27.596,21.447c6.59-2.61,13.751-5.374,21.217-8.733l-27.595-21.448
		C275.808,158.594,268.665,161.358,262.065,163.975L262.065,163.975z"/>
	<path fill="#E50000" d="M240.641,173.711c-0.798,0.486-1.58,0.988-2.346,1.465l27.586,21.455c0.782-0.492,1.555-0.987,2.362-1.457
		c5.033-2.988,11.006-5.571,17.615-8.237l-27.596-21.447C251.656,168.157,245.677,170.732,240.641,173.711L240.641,173.711z"/>
	<path fill="#FFCCCC" d="M286.886,153.572l27.596,21.464c6.229-2.938,12.633-6.32,19.084-10.387l-27.612-21.455
		C299.519,147.269,293.099,150.651,286.886,153.572L286.886,153.572z"/>
	<path fill="#EB8A96" d="M309.098,141.169l27.604,21.448c5.439-3.622,10.874-7.77,16.255-12.585l-27.596-21.455
		C319.988,133.384,314.541,137.54,309.098,141.169L309.098,141.169z"/>
	<path fill="#C90012" d="M343.807,108.758l27.596,21.457c3.867-4.98,7.628-10.452,11.265-16.462l-27.605-21.446
		C351.434,98.316,347.673,103.772,343.807,108.758L343.807,108.758z"/>
</g>
</svg>
