<svg xmlns="http://www.w3.org/2000/svg" viewBox="0 0 736 608">
<path d="M0 0 C1.383 1.183 1.383 1.183 2.793 2.391 C9.282 8.083 14.742 14.168 20 21 C21.11 22.386 21.11 22.386 22.242 23.801 C30.712 34.629 37.049 46.325 42.438 58.938 C42.933 60.09 42.933 60.09 43.438 61.266 C43.746 62.012 44.054 62.758 44.371 63.527 C44.638 64.174 44.906 64.821 45.181 65.488 C46.41 69.259 47.186 73.122 48 77 C49.941 76.976 49.941 76.976 51.921 76.952 C56.817 76.897 61.713 76.863 66.61 76.835 C68.711 76.82 70.812 76.8 72.913 76.774 C115.704 76.252 152.045 89.396 182.938 119.5 C207.408 144.08 222.209 178.126 222.329 212.926 C222.326 214.346 222.32 215.767 222.312 217.188 C222.31 218.282 222.31 218.282 222.307 219.398 C222.261 230.225 221.754 240.478 219 251 C218.844 251.657 218.689 252.314 218.528 252.99 C214.443 270.162 206.648 286.915 196 301 C195.339 301.882 194.677 302.763 193.996 303.672 C169.71 334.622 136.087 353.064 97.258 358.526 C90.319 359.278 83.347 359.135 76.378 359.12 C74.79 359.121 73.202 359.122 71.615 359.123 C67.268 359.125 62.922 359.121 58.575 359.116 C53.882 359.112 49.189 359.113 44.496 359.114 C36.37 359.114 28.244 359.111 20.118 359.106 C8.37 359.098 -3.379 359.095 -15.127 359.094 C-34.19 359.092 -53.252 359.085 -72.314 359.075 C-90.829 359.066 -109.344 359.059 -127.859 359.055 C-129.001 359.055 -130.142 359.054 -131.319 359.054 C-137.046 359.053 -142.774 359.052 -148.501 359.05 C-196.001 359.04 -243.5 359.022 -291 359 C-291 342.17 -291 325.34 -291 308 C-272.25 307.25 -272.25 307.25 -266.411 307.044 C-250.848 306.393 -237.998 303.584 -226.898 291.762 C-217.858 280.625 -214.781 269.289 -216 255 C-218.329 243.223 -223.568 235.231 -232 227 C-232 226.34 -232 225.68 -232 225 C-230.937 224.982 -229.873 224.963 -228.778 224.944 C-218.715 224.768 -208.653 224.578 -198.592 224.373 C-193.42 224.268 -188.248 224.169 -183.076 224.081 C-178.076 223.996 -173.077 223.897 -168.078 223.789 C-166.179 223.75 -164.28 223.716 -162.381 223.688 C-145.379 223.424 -130.364 221.842 -117.188 209.812 C-105.924 197.503 -103.276 183.889 -103.723 167.816 C-104.335 154.738 -109.244 142.494 -119.07 133.52 C-129.979 124.93 -141.599 121.352 -155.379 121.574 C-156.555 121.577 -157.731 121.58 -158.942 121.583 C-162.816 121.598 -166.689 121.643 -170.562 121.688 C-172.621 121.702 -174.68 121.713 -176.739 121.724 C-199.359 121.84 -221.978 122.219 -244.595 122.606 C-265.794 122.966 -286.986 123.088 -308.188 123.062 C-308.9 123.062 -309.612 123.061 -310.345 123.06 C-318.897 123.049 -327.448 123.029 -336 123 C-332.935 99.908 -332.935 99.908 -330.375 91.5 C-330.122 90.649 -329.869 89.797 -329.608 88.92 C-320.94 60.875 -305.82 35.549 -285.427 14.479 C-283.944 12.942 -282.482 11.385 -281.02 9.828 C-269.311 -2.441 -255.795 -12.711 -241 -21 C-240.274 -21.415 -239.549 -21.829 -238.801 -22.256 C-218.163 -33.951 -196.335 -41.762 -173 -46 C-172.307 -46.13 -171.613 -46.26 -170.899 -46.394 C-112.596 -56.777 -44.404 -38.949 0 0 Z" fill="#55B143" transform="translate(471,145)"/>
<path d="M0 0 C4.639 -0.075 9.277 -0.13 13.916 -0.17 C15.625 -0.189 17.333 -0.214 19.042 -0.247 C31.757 -0.487 42.642 0.472 52.229 9.68 C57.288 15.742 60.945 23.13 61.24 31.09 C61.278 31.859 61.315 32.627 61.354 33.418 C61.676 44.468 59.12 53.521 51.607 61.915 C43.942 68.991 35.054 71.16 24.863 71.324 C24.129 71.338 23.395 71.351 22.638 71.364 C20.18 71.407 17.721 71.443 15.263 71.479 C13.496 71.509 11.728 71.538 9.961 71.568 C5.143 71.649 0.325 71.724 -4.493 71.797 C-8.563 71.86 -12.633 71.926 -16.703 71.991 C-26.383 72.148 -36.063 72.299 -45.743 72.447 C-54.48 72.581 -63.217 72.72 -71.954 72.863 C-99.639 73.317 -127.323 73.732 -155.01 74.058 C-157.705 74.09 -160.401 74.122 -163.096 74.155 C-172.6 74.268 -182.104 74.357 -191.609 74.405 C-194.367 74.42 -197.125 74.443 -199.883 74.475 C-203.601 74.513 -207.318 74.526 -211.036 74.531 C-212.092 74.548 -213.149 74.564 -214.237 74.58 C-224.469 74.536 -232.339 71.411 -239.779 64.379 C-248.235 54.606 -248.419 43.582 -247.93 31.325 C-247.256 22.488 -242.218 15.845 -235.76 10.09 C-222.166 0.738 -203.987 2.919 -188.149 2.701 C-186.221 2.672 -184.294 2.642 -182.366 2.612 C-177.166 2.532 -171.966 2.457 -166.766 2.383 C-161.271 2.304 -155.775 2.221 -150.279 2.139 C-141.026 2.001 -131.774 1.866 -122.522 1.733 C-111.936 1.581 -101.35 1.424 -90.764 1.264 C-80.48 1.109 -70.196 0.958 -59.912 0.808 C-55.588 0.745 -51.264 0.681 -46.94 0.615 C-36.028 0.452 -25.116 0.301 -14.203 0.186 C-9.468 0.135 -4.734 0.076 0 0 Z" fill="#56B142" transform="translate(290.7597541809082,281.90971755981445)"/>
<path d="M0 0 C6.134 7.536 9.583 14.199 9.125 24.062 C8.177 31.841 5.196 38.143 -0.5 43.562 C-9.822 50.72 -19.255 51.3 -30.625 51.375 C-32.28 51.4 -33.935 51.427 -35.59 51.455 C-39.413 51.516 -43.235 51.565 -47.058 51.606 C-54.074 51.686 -61.089 51.804 -68.105 51.924 C-85.034 52.212 -101.963 52.442 -118.893 52.641 C-122.525 52.684 -126.156 52.731 -129.788 52.779 C-134.688 52.842 -139.587 52.888 -144.487 52.919 C-146.177 52.931 -147.867 52.948 -149.558 52.971 C-160.676 53.115 -169.992 52.717 -178.953 45.566 C-185.13 39.324 -187.901 32.307 -188.25 23.688 C-188.166 15.332 -185.365 8.803 -179.914 2.488 C-169.495 -7.334 -156.124 -6.437 -142.627 -6.625 C-141.344 -6.647 -140.062 -6.668 -138.74 -6.69 C-135.251 -6.748 -131.761 -6.8 -128.271 -6.851 C-125.346 -6.894 -122.422 -6.94 -119.497 -6.985 C-112.593 -7.093 -105.688 -7.197 -98.784 -7.297 C-91.684 -7.401 -84.585 -7.512 -77.486 -7.626 C-71.367 -7.725 -65.247 -7.819 -59.128 -7.909 C-55.484 -7.963 -51.839 -8.019 -48.195 -8.078 C-44.13 -8.145 -40.064 -8.202 -35.998 -8.258 C-34.806 -8.279 -33.614 -8.3 -32.386 -8.321 C-19.999 -8.476 -9.924 -8.16 0 0 Z" fill="#57B143" transform="translate(230.8125,385.3125)"/>
<path d="M0 0 C4.497 -0.087 8.993 -0.15 13.491 -0.184 C14.908 -0.197 16.326 -0.214 17.743 -0.237 C29.591 -0.416 38.013 0.398 46.748 8.828 C52.515 15.379 53.425 22.006 53.146 30.605 C52.254 37.502 49.423 42.778 44.326 47.484 C37.342 52.847 29.973 54.154 21.364 54.208 C19.511 54.222 19.511 54.222 17.621 54.237 C16.286 54.242 14.95 54.246 13.615 54.25 C12.596 54.254 12.596 54.254 11.556 54.259 C7.961 54.273 4.366 54.283 0.771 54.287 C-2.923 54.293 -6.616 54.317 -10.31 54.345 C-13.169 54.364 -16.028 54.369 -18.886 54.37 C-20.905 54.375 -22.923 54.393 -24.941 54.412 C-34.259 54.39 -41.637 53.442 -48.694 46.902 C-54.048 40.714 -56.719 33.207 -56.299 25.047 C-55.179 18.027 -52.431 12.024 -47.299 7.047 C-41.025 2.668 -35.672 0.982 -28.069 0.73 C-26.175 0.667 -26.175 0.667 -24.243 0.602 C-22.866 0.562 -21.489 0.523 -20.112 0.484 C-19.414 0.464 -18.717 0.444 -17.998 0.423 C-11.999 0.253 -6 0.122 0 0 Z" fill="#57B143" transform="translate(102.299072265625,456.95318603515625)"/>
<path d="M0 0 C1.32 0.33 2.64 0.66 4 1 C3.34 1.66 2.68 2.32 2 3 C1.67 18.51 1.34 34.02 1 50 C127.06 50 253.12 50 383 50 C383 50.33 383 50.66 383 51 C256.61 51 130.22 51 0 51 C0 34.17 0 17.34 0 0 Z" fill="#60A656" transform="translate(180,453)"/>
<path d="M0 0 C1.32 0.33 2.64 0.66 4 1 C3.34 1.66 2.68 2.32 2 3 C1.67 18.51 1.34 34.02 1 50 C52.15 50 103.3 50 156 50 C156 50.33 156 50.66 156 51 C104.52 51 53.04 51 0 51 C0 34.17 0 17.34 0 0 Z" fill="#71AB4B" transform="translate(180,453)"/>
<path d="M0 0 C0.33 0 0.66 0 1 0 C0.979 1.114 0.959 2.228 0.938 3.375 C0.736 6.832 0.736 6.832 2 9 C1.67 9.66 1.34 10.32 1 11 C21.13 11 41.26 11 62 11 C62 11.33 62 11.66 62 12 C40.88 12 19.76 12 -2 12 C-1 2 -1 2 0 0 Z" fill="#74AD45" transform="translate(137,256)"/>
<path d="M0 0 C14.85 0 29.7 0 45 0 C45 0.33 45 0.66 45 1 C31.47 1.33 17.94 1.66 4 2 C4 2.66 4 3.32 4 4 C5.65 4 7.3 4 9 4 C8.67 5.65 8.34 7.3 8 9 C6.848 8.07 5.703 7.131 4.562 6.188 C3.605 5.404 3.605 5.404 2.629 4.605 C1 3 1 3 0 0 Z" fill="#73A84C" transform="translate(239,370)"/>
<path d="M0 0 C0.66 0.33 1.32 0.66 2 1 C0.63 4.161 0.011 4.993 -3 7 C-3.33 7.99 -3.66 8.98 -4 10 C-4.66 10 -5.32 10 -6 10 C-6.082 11.114 -6.165 12.228 -6.25 13.375 C-7 17 -7 17 -9.062 18.438 C-9.702 18.623 -10.341 18.809 -11 19 C-10.634 11.867 -6.326 6.51 -1.625 1.438 C-1.089 0.963 -0.553 0.489 0 0 Z" fill="#72B33A" transform="translate(55,292)"/>
<path d="M0 0 C-1.32 0.33 -2.64 0.66 -4 1 C-4 1.66 -4 2.32 -4 3 C-12.25 2.67 -20.5 2.34 -29 2 C-29 1.67 -29 1.34 -29 1 C-28.324 0.975 -27.648 0.95 -26.952 0.924 C-23.885 0.808 -20.817 0.685 -17.75 0.562 C-16.687 0.523 -15.623 0.484 -14.527 0.443 C-12.99 0.381 -12.99 0.381 -11.422 0.316 C-10.008 0.261 -10.008 0.261 -8.565 0.205 C-6.035 0.079 -6.035 0.079 -3.786 -0.582 C-2 -1 -2 -1 0 0 Z" fill="#6FAF41" transform="translate(225,451)"/>
<path d="M0 0 C0 3.961 -1.349 4.829 -4 7.688 C-4.742 8.496 -5.485 9.304 -6.25 10.137 C-6.827 10.752 -7.405 11.366 -8 12 C-8.33 11.34 -8.66 10.68 -9 10 C-7.718 7.607 -6.407 5.313 -5 3 C-4.67 2.34 -4.34 1.68 -4 1 C-1.938 0.375 -1.938 0.375 0 0 Z" fill="#40A95F" transform="translate(664,447)"/>
<path d="M0 0 C0.66 0.33 1.32 0.66 2 1 C-0.127 5.703 -2.621 9.164 -6 13 C-6.33 12.01 -6.66 11.02 -7 10 C-5.82 7.773 -5.82 7.773 -4.125 5.375 C-3.571 4.578 -3.016 3.782 -2.445 2.961 C-1 1 -1 1 0 0 Z" fill="#6FB237" transform="translate(55,464)"/>
<path d="M0 0 C1.965 7.494 0.371 12.228 -3 19 C-4.359 14.922 -3.145 11.823 -2.062 7.812 C-1.867 7.063 -1.672 6.313 -1.471 5.541 C-0.988 3.692 -0.495 1.846 0 0 Z" fill="#78B035" transform="translate(141,236)"/>
<path d="M0 0 C0.66 0.33 1.32 0.66 2 1 C0.377 2.709 -1.293 4.374 -3 6 C-3.66 6 -4.32 6 -5 6 C-5.66 7.32 -6.32 8.64 -7 10 C-7.99 10 -8.98 10 -10 10 C-9.655 7.116 -9.217 6.179 -6.934 4.297 C-6.11 3.786 -5.286 3.276 -4.438 2.75 C-3.611 2.229 -2.785 1.708 -1.934 1.172 C-1.296 0.785 -0.657 0.398 0 0 Z" fill="#6DAF3E" transform="translate(223,128)"/>
<path d="M0 0 C0.66 0 1.32 0 2 0 C0.417 4.274 -2.506 6.265 -6 9 C-6.66 8.67 -7.32 8.34 -8 8 C-7.312 5.625 -7.312 5.625 -6 3 C-3.438 1.75 -3.438 1.75 -1 1 C-0.67 0.67 -0.34 0.34 0 0 Z" fill="#38AF5E" transform="translate(232,423)"/>
<path d="M0 0 C0.99 0.33 1.98 0.66 3 1 C-0.3 3.97 -3.6 6.94 -7 10 C-7.66 9.67 -8.32 9.34 -9 9 C-8.67 8.34 -8.34 7.68 -8 7 C-7.34 7 -6.68 7 -6 7 C-5.753 6.402 -5.505 5.804 -5.25 5.188 C-3.805 2.659 -2.517 1.449 0 0 Z" fill="#45AA5D" transform="translate(646,465)"/>
<path d="M0 0 C1.65 0 3.3 0 5 0 C4.01 0.495 4.01 0.495 3 1 C3 1.66 3 2.32 3 3 C4.65 3 6.3 3 8 3 C7.67 4.65 7.34 6.3 7 8 C5.827 7.049 4.662 6.089 3.5 5.125 C2.85 4.591 2.201 4.058 1.531 3.508 C1.026 3.01 0.521 2.513 0 2 C0 1.34 0 0.68 0 0 Z" fill="#72AB41" transform="translate(240,371)"/>
<path d="M0 0 C0 0.66 0 1.32 0 2 C-3.371 3.498 -5.204 4 -9 4 C-9 3.34 -9 2.68 -9 2 C-5.565 -0.29 -4.015 -0.178 0 0 Z" fill="#4BAA51" transform="translate(141,506)"/>
<path d="M0 0 C0.66 0.33 1.32 0.66 2 1 C0.416 4.167 -0.453 5.733 -3.688 7.312 C-4.451 7.539 -5.214 7.766 -6 8 C-4.557 4.634 -2.667 2.49 0 0 Z" fill="#7BAC3D" transform="translate(54,385)"/>
<path d="M0 0 C1.32 0.33 2.64 0.66 4 1 C1.378 3.154 -0.644 4.401 -4 5 C-3.67 4.01 -3.34 3.02 -3 2 C-2.01 2 -1.02 2 0 2 C0 1.34 0 0.68 0 0 Z" fill="#48AA58" transform="translate(610,488)"/>
<path d="M0 0 C0.33 0 0.66 0 1 0 C1.33 3.3 1.66 6.6 2 10 C1.01 10.33 0.02 10.66 -1 11 C-0.67 7.37 -0.34 3.74 0 0 Z" fill="#4BA458" transform="translate(691,339)"/>
<path d="M0 0 C0.625 1.875 0.625 1.875 1 4 C0.34 4.66 -0.32 5.32 -1 6 C-3.125 5.625 -3.125 5.625 -5 5 C-3.35 3.35 -1.7 1.7 0 0 Z" fill="#76B22E" transform="translate(191,154)"/>
<path d="M0 0 C1.98 1.65 3.96 3.3 6 5 C5.01 5.33 4.02 5.66 3 6 C2.01 5.34 1.02 4.68 0 4 C0 2.68 0 1.36 0 0 Z" fill="#4AA463" transform="translate(338,288)"/>
<path d="M0 0 C2 1.375 2 1.375 4 3 C4 3.66 4 4.32 4 5 C2.68 5 1.36 5 0 5 C-0.562 3.062 -0.562 3.062 -1 1 C-0.67 0.67 -0.34 0.34 0 0 Z" fill="#45A85D" transform="translate(147,465)"/>
<path d="M0 0 C0.33 0.66 0.66 1.32 1 2 C1.66 2 2.32 2 3 2 C3 2.66 3 3.32 3 4 C0.509 4.687 -1.379 5 -4 5 C-2.68 3.35 -1.36 1.7 0 0 Z" fill="#72B336" transform="translate(173,174)"/>
<path d="M0 0 C1.32 0 2.64 0 4 0 C3.34 1.32 2.68 2.64 2 4 C1.01 4 0.02 4 -1 4 C-0.67 2.68 -0.34 1.36 0 0 Z" fill="#69B628" transform="translate(214,134)"/>
<path d="M0 0 C0.66 0.33 1.32 0.66 2 1 C1.288 1.65 1.288 1.65 0.562 2.312 C-1.237 4.023 -1.237 4.023 -2 7 C-2.99 6.67 -3.98 6.34 -5 6 C-3.35 4.02 -1.7 2.04 0 0 Z" fill="#70B03D" transform="translate(200,145)"/>
<path d="M0 0 C0.66 0 1.32 0 2 0 C0.63 3.161 0.011 3.993 -3 6 C-2.427 3.133 -2.139 2.139 0 0 Z" fill="#3FAA63" transform="translate(232,423)"/>
<path d="M0 0 C2.875 -0.125 2.875 -0.125 6 0 C6.66 0.66 7.32 1.32 8 2 C4.377 3.208 3.359 2.543 0 1 C0 0.67 0 0.34 0 0 Z" fill="#47AA58" transform="translate(212,378)"/>
<path d="M0 0 C1.65 1.65 3.3 3.3 5 5 C4.67 5.66 4.34 6.32 4 7 C1 5 1 5 0.312 2.375 C0.209 1.591 0.106 0.808 0 0 Z" fill="#48A75B" transform="translate(665,279)"/>
<path d="M0 0 C1.039 3.116 1.09 4.026 0 7 C-0.99 7.495 -0.99 7.495 -2 8 C-1.125 2.25 -1.125 2.25 0 0 Z" fill="#77B236" transform="translate(45,397)"/>
<path d="M0 0 C1.32 0 2.64 0 4 0 C3.67 1.65 3.34 3.3 3 5 C2.34 4.67 1.68 4.34 1 4 C0.375 1.938 0.375 1.938 0 0 Z" fill="#6CB038" transform="translate(244,374)"/>
<path d="M0 0 C0.33 1.32 0.66 2.64 1 4 C-0.32 4.99 -1.64 5.98 -3 7 C-1.125 2.25 -1.125 2.25 0 0 Z" fill="#72B036" transform="translate(157,198)"/>
<path d="M0 0 C0 0.66 0 1.32 0 2 C-0.99 2.33 -1.98 2.66 -3 3 C-3.99 2.34 -4.98 1.68 -6 1 C-4 0 -4 0 0 0 Z" fill="#66AE40" transform="translate(338,266)"/>
<path d="M0 0 C2.475 0.495 2.475 0.495 5 1 C4.67 1.99 4.34 2.98 4 4 C2.68 3.34 1.36 2.68 0 2 C0 1.34 0 0.68 0 0 Z" fill="#48AB51" transform="translate(608,234)"/>
<path d="M0 0 C0 0.99 0 1.98 0 3 C-1.98 3.99 -1.98 3.99 -4 5 C-2.25 1.125 -2.25 1.125 0 0 Z" fill="#6DAF3F" transform="translate(212,136)"/>
<path d="M0 0 C1.32 0 2.64 0 4 0 C3.67 0.99 3.34 1.98 3 3 C2.01 2.67 1.02 2.34 0 2 C0 1.34 0 0.68 0 0 Z" fill="#5CB438" transform="translate(356,352)"/>
<path d="M0 0 C0.66 0 1.32 0 2 0 C2 0.99 2 1.98 2 3 C1.01 3 0.02 3 -1 3 C-0.67 2.01 -0.34 1.02 0 0 Z" fill="#70B62C" transform="translate(49,299)"/>
<path d="M0 0 C1.32 1.32 2.64 2.64 4 4 C3.01 4 2.02 4 1 4 C0.67 2.68 0.34 1.36 0 0 Z" fill="#4EA45D" transform="translate(644,256)"/>
<path d="M0 0 C0.99 0 1.98 0 3 0 C2.67 0.99 2.34 1.98 2 3 C1.01 2.34 0.02 1.68 -1 1 C-0.67 0.67 -0.34 0.34 0 0 Z" fill="#4FA659" transform="translate(220,380)"/>
</svg>
