<svg xmlns="http://www.w3.org/2000/svg" viewBox="0 0 68 22">
<path d="M0 0 C6.128 1.226 6.482 2.276 10 7 C10.151 3.371 10.151 3.371 9 0 C12.63 0 16.26 0 20 0 C20.33 2.31 20.66 4.62 21 7 C22.106 4.609 22.106 4.609 23 2 C22.67 1.34 22.34 0.68 22 0 C25.96 0 29.92 0 34 0 C33.67 0.66 33.34 1.32 33 2 C32.775 3.537 32.592 5.08 32.438 6.625 C32.354 7.442 32.27 8.26 32.184 9.102 C32.093 10.041 32.093 10.041 32 11 C32.66 11 33.32 11 34 11 C34 11.66 34 12.32 34 13 C32.02 13 30.04 13 28 13 C27.67 12.34 27.34 11.68 27 11 C27.66 11 28.32 11 29 11 C28.67 8.03 28.34 5.06 28 2 C25.043 5.467 22.922 8.869 21 13 C17.19 10.229 16.932 6.371 16 2 C15.01 2 14.02 2 13 2 C13 5.3 13 8.6 13 12 C10 12 10 12 8.395 10.688 C7.872 10.131 7.35 9.574 6.812 9 C6.283 8.443 5.753 7.886 5.207 7.312 C4.61 6.663 4.61 6.663 4 6 C4 8.31 4 10.62 4 13 C2.68 13 1.36 13 0 13 C0 8.71 0 4.42 0 0 Z" fill="#437391" transform="translate(19,1)"/>
<path d="M0 0 C3.63 0.33 7.26 0.66 11 1 C5.125 9.875 5.125 9.875 4 11 C7.465 10.505 7.465 10.505 11 10 C10.67 11.32 10.34 12.64 10 14 C6.37 14 2.74 14 -1 14 C0.685 9.787 2.435 6.677 5 3 C3.68 3 2.36 3 1 3 C1 3.66 1 4.32 1 5 C0.34 5 -0.32 5 -1 5 C-0.67 3.35 -0.34 1.7 0 0 Z" fill="#2E6485" transform="translate(55,0)"/>
<path d="M0 0 C2.31 0 4.62 0 7 0 C6.67 0.99 6.34 1.98 6 3 C6.66 3 7.32 3 8 3 C8 2.01 8 1.02 8 0 C9.98 0 11.96 0 14 0 C13.67 0.99 13.34 1.98 13 3 C14.32 3 15.64 3 17 3 C17.33 2.01 17.66 1.02 18 0 C19.667 0 21.333 0 23 0 C23 0.99 23 1.98 23 3 C23.66 3 24.32 3 25 3 C25 3.66 25 4.32 25 5 C15 5 15 5 13 4.438 C10.655 3.924 9.274 4.318 7 5 C6.34 5 5.68 5 5 5 C4.67 4.34 4.34 3.68 4 3 C3.01 3.33 2.02 3.66 1 4 C0.67 2.68 0.34 1.36 0 0 Z" fill="#4C7A97" transform="translate(43,17)"/>
<path d="M0 0 C4.29 0 8.58 0 13 0 C13.33 0.66 13.66 1.32 14 2 C14.33 1.34 14.66 0.68 15 0 C15.66 0 16.32 0 17 0 C17 0.99 17 1.98 17 3 C17.66 3 18.32 3 19 3 C18.67 2.01 18.34 1.02 18 0 C19.32 0.33 20.64 0.66 22 1 C22.33 2.32 22.66 3.64 23 5 C22.01 5 21.02 5 20 5 C18.845 5.041 17.69 5.082 16.5 5.125 C13 5 13 5 10 3 C9.67 3.66 9.34 4.32 9 5 C7.68 5 6.36 5 5 5 C5 3.68 5 2.36 5 1 C3.68 2.32 2.36 3.64 1 5 C0.67 3.35 0.34 1.7 0 0 Z M7 1 C8 3 8 3 8 3 Z" fill="#527E9A" transform="translate(0,17)"/>
<path d="M0 0 C5.127 1.025 5.728 1.222 8.812 4.938 C9.417 5.648 10.022 6.358 10.645 7.09 C12 9 12 9 12 11 C8.204 10.458 6.528 8.799 4 6 C4 8.31 4 10.62 4 13 C2.68 13 1.36 13 0 13 C0 8.71 0 4.42 0 0 Z" fill="#2C6284" transform="translate(19,1)"/>
<path d="M0 0 C3.3 0 6.6 0 10 0 C10.33 1.32 10.66 2.64 11 4 C10.34 4 9.68 4 9 4 C9 5.65 9 7.3 9 9 C8.34 9 7.68 9 7 9 C7 8.34 7 7.68 7 7 C6.01 7 5.02 7 4 7 C4 8.32 4 9.64 4 11 C4.66 11 5.32 11 6 11 C6 11.66 6 12.32 6 13 C4.02 13 2.04 13 0 13 C0.66 9.37 1.32 5.74 2 2 C1.34 2 0.68 2 0 2 C0 1.34 0 0.68 0 0 Z M4 2 C4 3.32 4 4.64 4 6 C5.65 5.34 7.3 4.68 9 4 C8.67 3.34 8.34 2.68 8 2 C6.68 2 5.36 2 4 2 Z" fill="#245C7F" transform="translate(0,1)"/>
<path d="M0 0 C1.98 0 3.96 0 6 0 C5.01 0.33 4.02 0.66 3 1 C3 1.66 3 2.32 3 3 C4.32 3 5.64 3 7 3 C7 2.01 7 1.02 7 0 C7.99 0.33 8.98 0.66 10 1 C10.99 0.67 11.98 0.34 13 0 C13 0.99 13 1.98 13 3 C13.66 3 14.32 3 15 3 C14.67 2.01 14.34 1.02 14 0 C14.99 0.33 15.98 0.66 17 1 C16.67 1.66 16.34 2.32 16 3 C16.99 3 17.98 3 19 3 C19 3.66 19 4.32 19 5 C13.667 5 8.333 5 3 5 C2.876 4.361 2.753 3.721 2.625 3.062 C2.316 2.042 2.316 2.042 2 1 C1.34 0.67 0.68 0.34 0 0 Z" fill="#4A7895" transform="translate(22,17)"/>
<path d="M0 0 C2.31 0 4.62 0 7 0 C6.67 0.66 6.34 1.32 6 2 C5.775 3.537 5.592 5.08 5.438 6.625 C5.354 7.442 5.27 8.26 5.184 9.102 C5.123 9.728 5.062 10.355 5 11 C5.66 11.33 6.32 11.66 7 12 C6 13 6 13 3.438 13.062 C2.633 13.042 1.829 13.021 1 13 C0.67 12.34 0.34 11.68 0 11 C0.66 11 1.32 11 2 11 C1.859 9.541 1.712 8.083 1.562 6.625 C1.481 5.813 1.4 5.001 1.316 4.164 C1.109 1.957 1.109 1.957 0 0 Z" fill="#497895" transform="translate(11,1)"/>
<path d="M0 0 C1.65 0 3.3 0 5 0 C4.67 0.66 4.34 1.32 4 2 C3.775 3.537 3.592 5.08 3.438 6.625 C3.354 7.442 3.27 8.26 3.184 9.102 C3.123 9.728 3.062 10.355 3 11 C3.66 11 4.32 11 5 11 C5 11.66 5 12.32 5 13 C3.02 13 1.04 13 -1 13 C-1.33 12.34 -1.66 11.68 -2 11 C-1.34 11 -0.68 11 0 11 C0 7.37 0 3.74 0 0 Z" fill="#497895" transform="translate(48,1)"/>
<path d="M0 0 C0.33 0.66 0.66 1.32 1 2 C3.64 1.34 6.28 0.68 9 0 C8.67 1.32 8.34 2.64 8 4 C4.37 4 0.74 4 -3 4 C-2.67 3.01 -2.34 2.02 -2 1 C-1.34 0.67 -0.68 0.34 0 0 Z" fill="#4E7B98" transform="translate(57,10)"/>
<path d="M0 0 C0.66 0 1.32 0 2 0 C2 1.32 2 2.64 2 4 C2.66 4 3.32 4 4 4 C4 4.66 4 5.32 4 6 C2.02 6 0.04 6 -2 6 C-1.34 4.02 -0.68 2.04 0 0 Z" fill="#407190" transform="translate(2,8)"/>
<path d="M0 0 C4.875 2.625 4.875 2.625 6 6 C3.114 5.602 2.178 5.21 0.25 2.938 C-0.163 2.298 -0.575 1.659 -1 1 C-0.67 0.67 -0.34 0.34 0 0 Z" fill="#195479" transform="translate(25,6)"/>
<path d="M0 0 C1.98 0.495 1.98 0.495 4 1 C4.33 2.32 4.66 3.64 5 5 C2 5 2 5 -1 4 C-0.34 3.67 0.32 3.34 1 3 C0.67 2.01 0.34 1.02 0 0 Z" fill="#57829D" transform="translate(18,17)"/>
<path d="M0 0 C0.66 0 1.32 0 2 0 C2 0.99 2 1.98 2 3 C2.66 3 3.32 3 4 3 C4 3.66 4 4.32 4 5 C2.02 5 0.04 5 -2 5 C-2 4.34 -2 3.68 -2 3 C-1.34 3 -0.68 3 0 3 C0 2.01 0 1.02 0 0 Z" fill="#20597C" transform="translate(64,17)"/>
<path d="M0 0 C2.31 0.66 4.62 1.32 7 2 C6.34 2.66 5.68 3.32 5 4 C2.875 3.625 2.875 3.625 1 3 C1 3.66 1 4.32 1 5 C0.34 5 -0.32 5 -1 5 C-0.67 3.35 -0.34 1.7 0 0 Z" fill="#527E9A" transform="translate(55,0)"/>
<path d="M0 0 C0.598 0.206 1.196 0.413 1.812 0.625 C1.812 1.615 1.812 2.605 1.812 3.625 C-0.498 2.965 -2.808 2.305 -5.188 1.625 C-2.188 -0.375 -2.188 -0.375 0 0 Z" fill="#447492" transform="translate(9.1875,1.375)"/>
<path d="M0 0 C0 1.65 0 3.3 0 5 C-0.66 5 -1.32 5 -2 5 C-2 4.34 -2 3.68 -2 3 C-2.99 2.67 -3.98 2.34 -5 2 C-2 0 -2 0 0 0 Z" fill="#3F708F" transform="translate(9,5)"/>
<path d="M0 0 C0.99 0.33 1.98 0.66 3 1 C3 2.65 3 4.3 3 6 C2.01 5.34 1.02 4.68 0 4 C0 2.68 0 1.36 0 0 Z" fill="#2C6284" transform="translate(36,4)"/>
<path d="M0 0 C1.65 0 3.3 0 5 0 C4.01 1.65 3.02 3.3 2 5 C0 1.125 0 1.125 0 0 Z" fill="#3C6E8D" transform="translate(0,17)"/>
<path d="M0 0 C0.99 0.33 1.98 0.66 3 1 C3 1.66 3 2.32 3 3 C1.68 3 0.36 3 -1 3 C-0.67 2.01 -0.34 1.02 0 0 Z" fill="#59839E" transform="translate(20,11)"/>
<path d="M0 0 C0.66 0.99 1.32 1.98 2 3 C0.68 3.33 -0.64 3.66 -2 4 C-1.34 2.68 -0.68 1.36 0 0 Z" fill="#3E708F" transform="translate(58,7)"/>
<path d="M0 0 C0.66 0.33 1.32 0.66 2 1 C2 1.66 2 2.32 2 3 C0.68 2.67 -0.64 2.34 -2 2 C-1.34 1.34 -0.68 0.68 0 0 Z" fill="#326788" transform="translate(29,9)"/>
</svg>
