<svg xmlns="http://www.w3.org/2000/svg" viewBox="0 0 32 32">
<path d="M0 0 C4.29 0 8.58 0 13 0 C13.66 1.65 14.32 3.3 15 5 C15.66 5 16.32 5 17 5 C17.66 3.35 18.32 1.7 19 0 C23.29 0 27.58 0 32 0 C30.486 3.786 28.961 7.01 26.961 10.52 C26.381 11.541 25.801 12.563 25.203 13.615 C24.6 14.67 23.997 15.725 23.375 16.812 C22.764 17.887 22.153 18.961 21.523 20.068 C20.018 22.714 18.511 25.358 17 28 C16.34 28 15.68 28 15 28 C12.858 24.337 10.722 20.671 8.591 17.001 C7.865 15.753 7.138 14.506 6.409 13.259 C5.362 11.469 4.321 9.676 3.281 7.883 C2.339 6.265 2.339 6.265 1.377 4.614 C-0 2 -0 2 0 0 Z" fill="#40B582" transform="translate(0,2)"/>
<path d="M0 0 C1.98 0 3.96 0 6 0 C6.66 1.65 7.32 3.3 8 5 C8.66 5 9.32 5 10 5 C10.66 3.35 11.32 1.7 12 0 C13.98 0 15.96 0 18 0 C16.573 3.79 14.838 7.271 12.875 10.812 C12.336 11.788 11.797 12.764 11.242 13.77 C10.832 14.506 10.422 15.242 10 16 C9.34 16 8.68 16 8 16 C6.661 13.711 5.329 11.419 4 9.125 C3.618 8.474 3.237 7.823 2.844 7.152 C0 2.227 0 2.227 0 0 Z" fill="#354C5F" transform="translate(7,2)"/>
</svg>
