<svg width="200" height="200" viewBox="0 0 200 200" fill="none" xmlns="http://www.w3.org/2000/svg">
  <rect width="200" height="200" rx="100" fill="white"/>
  <path d="M160 97.4025C158.734 67.3918 135.622 43.0592 106.228 40.0298C102.817 39.6764 100.029 42.5037 100.029 45.9485V62.5797C100.029 66.0245 102.835 68.752 106.198 69.4319C117.74 71.7702 126.964 80.5357 130.006 91.8512C131.237 91.4283 132.638 91.1707 134.257 91.1643C139.844 91.1908 142.858 94.2914 145.207 96.7986C147.403 99.112 149.156 100.929 152.83 100.983C156.252 100.988 158.003 99.4368 160 97.4025Z" fill="#366FFF"/>
  <path d="M73.4793 45.9132C77.2658 44.0359 81.3991 47.0254 81.3991 51.2663V91.3289C75.8079 91.368 72.8256 94.4083 70.4686 96.8806L70.4193 96.9312C68.2186 99.1923 66.4706 100.988 62.789 100.983C59.1148 100.929 57.3623 99.112 55.1657 96.7986C52.8172 94.2914 49.8029 91.1908 44.2159 91.1643C42.8562 91.1697 41.6502 91.3522 40.5698 91.661C43.3427 71.5322 56.0092 54.5791 73.4793 45.9132Z" fill="#366FFF"/>
  <path d="M106.227 159.97C102.816 160.322 100.028 157.497 100.028 154.052V137.421C100.028 133.978 102.835 131.248 106.198 130.569C120.389 127.693 131.076 115.101 131.076 100C131.076 99.863 131.076 99.7259 131.074 99.5891C131.975 99.2239 133.007 99.0155 134.265 99.0174C137.939 99.0715 139.691 100.888 141.888 103.202C144.236 105.709 147.251 108.809 152.838 108.836C155.711 108.825 157.898 108.022 159.665 106.909C156.484 134.911 134.201 157.088 106.227 159.97Z" fill="#004FA5"/>
  <path d="M40 100.104C40.0396 123.784 53.672 144.262 73.4789 154.087C77.2655 155.964 81.3987 152.975 81.3987 148.734V99.1818C77.755 99.1944 76.0135 100.984 73.824 103.233L73.7747 103.284C71.411 105.763 68.4185 108.814 62.7966 108.836C57.2097 108.809 54.1953 105.709 51.8468 103.202C49.6502 100.888 47.8977 99.0715 44.2235 99.0174C42.4591 99.0148 41.1389 99.4259 40 100.104Z" fill="#004FA5"/>
</svg>
