<?xml version="1.0" encoding="utf-8"?>
<svg xmlns="http://www.w3.org/2000/svg" viewBox="0 0 500 500">
  <circle fill="#ED741A" cx="250" cy="250" r="233.1"/>
  <path fill="#FFFFFF" d="M354 227.9c-.3-.7-.3-1.6 0-2.3l27-80.3c1-3.1-2.3-5.8-5.1-4.1l-86.9 52c-.5.3-1.2.5-1.8.5h-73.7c-.6 0-1.2-.2-1.8-.5l-86.9-52c-2.8-1.7-6.1 1-5.1 4.1l27 80.3c.3.7.2 1.6 0 2.3L115.6 313c-.6 1.7.1 3.6 1.8 4.3l101.4 48.6c.3.1.5.3.8.5l28.6 24.9c1.3 1.1 3.3 1.1 4.6 0l28.6-24.9c.2-.2.5-.4.8-.5l101.4-48.6c1.6-.8 2.4-2.7 1.8-4.3L354 227.9zm-12.6-8.7L305 199.9l53.7-32.2-17.3 51.5zm-51.5-11.5 44.6 23.6-84.2 81.6-83.2-82 43.8-23.2h79zM142 167.7l53.8 32.2-36.5 19.3-17.3-51.5zm14.9 72.7 39.5 38.9 16.7 68.4-81.2-38.9 25-68.4zm93.4 134.4-20.7-18-14.3-58.8 34.9 34.4 35.4-34.3-14.9 59-20.4 17.7zm37.1-26.9 17.2-68.2 39.5-38.3 24.7 67.4-81.4 39.1z"/>
  <path fill="#FFFFFF" d="M63 179.7c-13.6 34.8-16.6 72.9-8.6 110.2 9 41.8 28.1 76.8 56.9 104.1 29.1 27.6 66.1 45.4 110 52.8l3.2.5 2.2.3c1.3.2 2.3 1.3 2.3 2.6v9.3c0 1.5-1.3 2.7-2.8 2.6l-1.6-.2-5.3-.5-.7-.1c-46.6-7.9-86-27.2-117.2-56.8C70.5 375.2 49.9 337.7 40.3 293c-8.6-40.1-5.4-81.1 9.2-118.5 13-33.1 34.2-63 61.3-86.5 27.9-24.2 61-40.4 95.6-46.9 4.4-.8 8.9-1.5 13.4-2.1l6.3-.6c1.5-.1 2.8 1.1 2.8 2.6v9.3c0 1.3-1 2.4-2.3 2.6-4.5.6-14.4 1.8-17.6 2.4-32.2 6.1-62.9 21.2-88.9 43.6-25.2 21.9-45 49.9-57.1 80.8z"/>
  <path fill="#FFFFFF" d="M437 179.6c13.6 34.8 16.6 72.9 8.6 110.2-9 41.8-28.1 76.8-56.9 104.1-29.1 27.6-66.1 45.4-110 52.8l-3.2.5-2.2.3c-1.3.2-2.3 1.3-2.3 2.6v9.3c0 1.5 1.3 2.7 2.8 2.6l1.6-.2 5.3-.5.7-.1c46.6-7.9 86-27.2 117.2-56.8 30.9-29.3 51.4-66.8 61.1-111.6 8.6-40.1 5.4-81.1-9.2-118.5-13-33.1-34.2-63-61.3-86.5-27.9-24.2-61-40.4-95.6-46.9-4.4-.8-8.9-1.5-13.4-2.1l-6.3-.6c-1.5-.1-2.8 1.1-2.8 2.6v9.3c0 1.3 1 2.4 2.3 2.6 4.5.6 14.4 1.8 17.6 2.4 32.2 6.1 62.9 21.2 88.9 43.6 25.2 21.8 45 49.7 57.1 80.7z"/>
</svg>
