<svg xmlns="http://www.w3.org/2000/svg" viewBox="0 0 1523 1582">
<path d="M0 0 C0 78.21 0 156.42 0 237 C-22.44 237.99 -44.88 238.98 -68 240 C-126.458 245.846 -178.805 258.521 -222 300 C-222.555 300.526 -223.111 301.051 -223.683 301.593 C-228.105 305.87 -231.806 310.433 -235.375 315.438 C-235.937 316.222 -236.498 317.007 -237.077 317.816 C-242.311 325.249 -246.848 332.92 -251 341 C-251.516 341.986 -251.516 341.986 -252.042 342.993 C-261.45 361.178 -267.116 380.765 -270 401 C-270.168 402.121 -270.335 403.243 -270.508 404.398 C-272.736 421.025 -272.293 437.833 -272.279 454.572 C-272.278 459.313 -272.288 464.055 -272.296 468.796 C-272.309 477.092 -272.315 485.387 -272.316 493.682 C-272.317 506.017 -272.33 518.352 -272.345 530.687 C-272.37 551.439 -272.386 572.192 -272.397 592.945 C-272.407 613.485 -272.422 634.026 -272.442 654.567 C-272.443 655.845 -272.444 657.123 -272.446 658.44 C-272.452 664.932 -272.459 671.424 -272.465 677.917 C-272.478 691.116 -272.491 704.315 -272.503 717.514 C-272.503 718.174 -272.504 718.834 -272.505 719.515 C-272.534 751.604 -272.556 783.693 -272.578 815.781 C-272.586 826.912 -272.593 838.042 -272.601 849.172 C-272.601 849.863 -272.602 850.553 -272.602 851.264 C-272.625 883.379 -272.652 915.494 -272.681 947.609 C-272.683 949.695 -272.684 951.781 -272.686 953.867 C-272.699 967.691 -272.711 981.514 -272.724 995.338 C-272.749 1023.498 -272.774 1051.657 -272.799 1079.817 C-272.8 1081.111 -272.801 1082.406 -272.802 1083.74 C-272.837 1123.414 -272.869 1163.088 -272.899 1202.761 C-272.9 1204.451 -272.9 1204.451 -272.901 1206.174 C-272.936 1251.783 -272.968 1297.391 -273 1343 C-183.9 1343 -94.8 1343 -3 1343 C-3 1200.77 -3 1058.54 -3 912 C153.42 912 309.84 912 471 912 C471 991.86 471 1071.72 471 1154 C393.12 1154 315.24 1154 235 1154 C235 1294.91 235 1435.82 235 1581 C-11.18 1581 -257.36 1581 -511 1581 C-511.04 1307.224 -511.04 1307.224 -511.048 1202.098 C-511.048 1200.625 -511.048 1199.151 -511.048 1197.678 C-511.049 1196.939 -511.049 1196.2 -511.049 1195.439 C-511.051 1169.339 -511.053 1143.239 -511.055 1117.139 C-511.055 1114.649 -511.055 1112.158 -511.055 1109.667 C-511.058 1071.59 -511.062 1033.514 -511.069 995.437 C-511.069 994.62 -511.069 993.803 -511.069 992.962 C-511.071 979.793 -511.074 966.624 -511.076 953.456 C-511.082 915.46 -511.089 877.464 -511.091 839.469 C-511.091 838.685 -511.091 837.901 -511.091 837.094 C-511.092 819.877 -511.093 802.66 -511.094 785.443 C-511.094 778.512 -511.095 771.582 -511.095 764.651 C-511.095 763.513 -511.095 763.513 -511.095 762.353 C-511.096 738.038 -511.1 713.724 -511.106 689.41 C-511.112 664.856 -511.115 640.301 -511.114 615.746 C-511.113 612.329 -511.113 608.912 -511.113 605.495 C-511.113 604.826 -511.113 604.156 -511.113 603.466 C-511.113 593.627 -511.115 583.788 -511.119 573.949 C-511.202 366.909 -511.202 366.909 -495 298 C-494.76 296.975 -494.52 295.95 -494.273 294.894 C-480.275 235.987 -448.629 183.844 -408.16 139.379 C-406.739 137.814 -405.33 136.239 -403.934 134.652 C-399.424 129.545 -394.743 124.639 -389.938 119.812 C-389.089 118.957 -389.089 118.957 -388.224 118.085 C-383.981 113.858 -379.552 109.891 -375 106 C-374.356 105.449 -373.711 104.898 -373.047 104.33 C-301.499 43.623 -209.55 12.31 0 0 Z" fill="#0095B8" transform="translate(511,0)"/>
<path d="M0 0 C242.22 0 484.44 0 734 0 C734.021 100.361 734.041 200.722 734.062 304.125 C734.072 335.803 734.081 367.48 734.09 400.118 C734.095 438.83 734.095 438.83 734.095 456.958 C734.096 470.438 734.101 483.918 734.107 497.398 C734.113 511.171 734.115 524.944 734.113 538.718 C734.113 546.181 734.114 553.644 734.119 561.107 C734.17 631.737 734.17 631.737 731.625 661.125 C731.56 661.9 731.494 662.675 731.427 663.474 C727.766 706.657 715.749 742.744 686.609 775.871 C684.458 778.647 684.458 778.647 684 782 C685.261 784.287 686.543 786.27 688.062 788.375 C688.998 789.728 689.932 791.082 690.863 792.438 C691.371 793.171 691.878 793.904 692.401 794.66 C748.679 877.006 780.537 976.059 781.25 1086.5 C781.251 1088.331 781.251 1088.331 781.252 1090.199 C781.235 1109.317 780.69 1128.051 778 1147 C777.823 1148.248 777.646 1149.497 777.464 1150.783 C766.855 1223.156 740.515 1293.233 698 1353 C697.224 1354.102 697.224 1354.102 696.433 1355.227 C690.135 1364.175 683.677 1372.842 676.496 1381.102 C674.168 1383.805 671.948 1386.565 669.75 1389.375 C666.96 1392.898 664.032 1396.092 660.794 1399.205 C659.107 1400.893 657.571 1402.634 656.031 1404.457 C651.478 1409.696 646.572 1414.578 641.657 1419.473 C640.065 1421.06 638.479 1422.652 636.893 1424.244 C631.433 1429.707 625.881 1434.989 620 1440 C618.392 1441.454 616.788 1442.912 615.188 1444.375 C609.932 1449.1 604.546 1453.62 599 1458 C598.306 1458.55 597.612 1459.1 596.897 1459.667 C568.84 1481.788 538.601 1500.398 507 1517 C505.562 1517.758 505.562 1517.758 504.095 1518.531 C479.36 1531.483 453.466 1542.132 427 1551 C425.912 1551.365 424.823 1551.731 423.702 1552.107 C362.842 1572.295 299.052 1582 235 1582 C235 1505.77 235 1429.54 235 1351 C254.8 1349.515 254.8 1349.515 275 1348 C340.019 1338.748 402.01 1313.915 450.773 1269.043 C452.814 1267.17 454.895 1265.362 457 1263.562 C465.549 1256.08 472.942 1247.88 480 1239 C480.946 1237.854 481.894 1236.709 482.844 1235.566 C490.334 1226.49 496.853 1217.028 503 1207 C503.452 1206.274 503.905 1205.547 504.371 1204.799 C515.723 1186.471 524.552 1166.57 531 1146 C531.376 1144.811 531.376 1144.811 531.76 1143.598 C535.93 1130.243 538.905 1116.83 541 1103 C541.113 1102.253 541.227 1101.505 541.343 1100.735 C546.781 1063.133 544.368 1023.335 538 986 C537.88 985.26 537.761 984.52 537.638 983.758 C536.936 979.459 536.036 975.228 535 971 C534.67 969.64 534.67 969.64 534.333 968.252 C525.403 932.026 511.088 900.011 489 870 C488.567 869.407 488.134 868.814 487.688 868.203 C481.758 860.124 475.265 852.763 468.39 845.487 C466.384 843.341 464.445 841.139 462.5 838.938 C454.761 830.332 446.706 822.343 437.637 815.137 C435.062 813.05 432.624 810.871 430.188 808.625 C426.211 804.992 422.071 801.664 417.812 798.375 C404.045 787.694 404.045 787.694 403 782 C403.883 781.371 404.766 780.742 405.676 780.094 C408.838 777.84 411.996 775.581 415.153 773.321 C416.765 772.168 418.378 771.019 419.992 769.871 C461.585 740.033 491.721 695.761 500.132 644.752 C500.944 639.089 501.339 633.464 501.567 627.75 C501.629 626.209 501.629 626.209 501.692 624.637 C502.223 609.742 502.134 594.836 502.116 579.934 C502.112 575.41 502.113 570.887 502.114 566.364 C502.114 558.556 502.111 550.748 502.106 542.94 C502.098 531.651 502.095 520.363 502.094 509.074 C502.092 490.752 502.085 472.43 502.075 454.108 C502.066 436.326 502.059 418.545 502.055 400.763 C502.055 399.653 502.054 398.543 502.054 397.399 C502.052 388.716 502.05 380.032 502.048 371.349 C502.039 328.899 502.019 286.45 502 244 C415.54 244 329.08 244 240 244 C240 384.91 240 525.82 240 671 C83.58 671 -72.84 671 -234 671 C-234 592.13 -234 513.26 -234 432 C-156.78 432 -79.56 432 0 432 C0 289.44 0 146.88 0 0 Z" fill="#00A29D" transform="translate(742,0)"/>
</svg>
