<svg xmlns="http://www.w3.org/2000/svg" viewBox="0 0 64 64">
<path d="M0 0 C-0.27 5.944 -0.755 11.509 -5 16 C-10.443 19.49 -16.707 20.869 -23 22 C-21.271 21.858 -19.541 21.711 -17.812 21.562 C-16.85 21.481 -15.887 21.4 -14.895 21.316 C-12.214 21.023 -9.634 20.573 -7 20 C-8.807 26.474 -11.306 30.196 -17.125 33.562 C-20.391 35.309 -23.621 36.569 -27.125 37.75 C-32.11 39.653 -34.342 42.4 -37.363 46.695 C-42.072 53.326 -48.147 57.758 -55 62 C-55.66 61.67 -56.32 61.34 -57 61 C-56.446 59.949 -55.891 58.899 -55.32 57.816 C-50.912 49.333 -47.72 42.101 -46.594 32.559 C-45.041 20.147 -45.041 20.147 -41 16 C-34.915 11.294 -28.352 9.371 -21 7.438 C-15.216 5.895 -5.477 0 0 0 Z" fill="#F4AF1C" transform="translate(60,1)"/>
<path d="M0 0 C0.66 0.33 1.32 0.66 2 1 C2 1.66 2 2.32 2 3 C0.577 3.34 0.577 3.34 -0.875 3.688 C-4.149 4.673 -4.149 4.673 -5.25 7.375 C-5.621 8.674 -5.621 8.674 -6 10 C-6.652 11.341 -7.314 12.677 -8 14 C-8.33 14 -8.66 14 -9 14 C-9.34 12.422 -9.34 12.422 -9.688 10.812 C-10.794 6.84 -12.886 4.704 -16 2 C-10.555 -1.582 -6.148 -1.194 0 0 Z" fill="#F4AF1C" transform="translate(20,10)"/>
</svg>
