<?xml version="1.0" encoding="utf-8"?>
<svg height="190" width="180" version="1.1" viewBox="0 0 180 190" xmlns="http://www.w3.org/2000/svg">
  <path d="M 78.366 186.46 C 56.9 184.70000000000002 35.981 174.9 20.380000000000003 159.3 C 15.405000000000003 154.33 10.427000000000003 148.23000000000002 10.544000000000002 147.24 C 10.628000000000002 146.52 81.541 65.221 82.079 65.221 L 82.079 131.207 L 171.52499999999998 131.207 C 171.96381999999997 131.64582 167.83839999999998 139.6471 164.54739999999998 144.58499999999998 C 160.71339999999998 150.33669999999998 157.05949999999999 154.808 152.39039999999997 159.462 C 132.81339999999997 178.976 106.05039999999997 188.738 78.36639999999997 186.462 L 78.366 186.46 Z" stroke-width="0.32" fill="#38508e" style=""/>
  <path d="M 91.976 120.522 L 91.976 58.17000000000001 L -0.007000000000005002 58.17000000000001 C -0.22971000000000502 57.504810000000006 5.326699999999995 46.74300000000001 8.124399999999994 42.50000000000001 C 22.697399999999995 20.395000000000007 45.49739999999999 5.499000000000009 71.2524 1.257000000000005 C 96.66839999999999 -2.9295999999999953 122.1484 3.404800000000005 142.9324 19.077000000000005 C 149.4316 23.977700000000006 158.5934 33.467000000000006 162.7854 39.63900000000001 C 163.48249 40.66550000000001 164.05280000000002 41.64780000000001 164.05280000000002 41.82180000000001 L 91.97580000000002 120.73680000000002 L 91.97580000000002 120.52114000000002 L 91.976 120.522 Z" stroke-width="0.32" fill="#38508e" style=""/>
  <path d="M 78.353 186.619 C 56.86 184.852 35.891 175.029 20.267 159.413 C 15.286 154.437 10.286 148.272 10.385 147.221 C 10.449 146.815 28.214 126.27 46.021 105.855 C 63.827 85.44 81.75 65.088 82.079 65.061 L 82.239 65.048 L 82.239 131.047 L 171.607 131.047 L 171.638 131.094 C 171.716 131.213 171.721 131.465 171.64 131.749 C 171.561 132.026 171.42 132.403 171.23 132.85 C 170.852 133.743 170.272 134.944 169.577 136.283 C 168.187 138.958 166.329 142.2 164.681 144.674 C 160.842 150.432 157.178 154.915 152.503 159.575 C 132.897 179.108 106.071 188.893 78.353 186.621 L 78.233 186.612 L 78.233 186.61 Z M 78.499 186.31 L 78.5 186.312 C 106.107 188.555 132.758 178.816 152.277 159.349 C 156.941 154.701 160.585 150.242 164.414 144.496 C 166.057 142.032 167.907 138.805 169.293 136.135 C 169.986 134.801 170.56 133.611 170.935 132.726 C 171.122 132.284 171.257 131.926 171.332 131.661 C 171.406 131.405 171.406 131.418 171.418 131.367 L 81.919 131.367 L 81.919 65.526 C 80.097 67.376 64.068 85.651 46.262 106.066 C 28.456 126.48 10.726 146.942 10.703 147.259 C 10.568 148.189 15.524 154.223 20.493 159.187 C 36.071 174.771 56.94 184.548 78.379 186.301 Z M 203.983 92.728 C 203.947 69.789 203.93 59.206 204.224 53.695 C 204.522 48.125 205.165 47.663 206.35 45.044 C 208.654 40.013 211.907 36.52 216.313 34.342 C 218.658 33.187 219.787 32.63 224.399 32.451 L 301.766 32.451 L 301.766 56.178 L 245.313 56.482 C 240.972 56.653 240.006 57.013 238.373 57.73 C 236.616 58.497 235.687 59.346 234.819 60.978 C 234.525 61.521 234.432 61.94 234.337 62.711 L 234.337 70.663 L 301.766 70.663 L 301.766 95.622 L 234.337 95.942 L 234.337 133.693 L 204.084 133.693 L 204.046 133.554 Z M 204.366 133.373 L 234.017 133.373 L 234.017 95.624 L 301.446 95.304 L 301.446 70.983 L 234.017 70.983 L 234.017 62.691 L 234.018 62.681 C 234.116 61.888 234.228 61.41 234.537 60.827 C 235.438 59.153 236.444 58.232 238.244 57.437 C 239.886 56.716 240.911 56.343 245.303 56.163 L 301.446 55.86 L 301.446 32.771 L 224.402 32.771 C 219.858 32.934 218.8 33.474 216.455 34.63 C 212.095 36.772 208.917 40.189 206.641 45.178 C 205.403 47.86 204.835 48.267 204.544 53.712 C 204.25 59.214 204.267 69.789 204.303 92.728 Z M 530.137 133.589 C 530.043 133.33 530.007 115.98 530.058 94.165 L 530.15 54.479 L 531.033 51.259 C 533.638 41.784 539.053 35.242 546.412 32.673 L 546.43 32.667 L 548.536 32.452 L 548.545 32.452 L 650.319 32.452 L 652.632 32.665 L 652.649 32.67 C 656.875 34.005 660.595 36.958 663.406 40.999 C 666.216 45.037 668.149 50.194 668.846 55.924 C 669.11 58.108 669.188 69.705 669.12 96.741 L 669.024 133.692 L 640.065 133.692 L 640.064 133.533 C 639.954 110.815 640.169 88.126 640.065 65.424 L 639.038 63.654 C 637.079 59.644 632.716 56.708 627.753 56.06 C 626.377 55.876 623.378 55.996 620.587 55.996 L 614.897 55.996 L 614.897 133.693 L 614.736 133.692 C 605.302 133.636 594.9 133.748 585.463 133.692 L 585.304 133.691 L 585.304 55.998 L 577.664 55.998 C 571.521 55.998 570.792 56.001 568.91 56.656 C 565.058 57.979 562.436 60.636 560.61 63.887 L 559.744 65.425 C 559.641 88.127 559.852 110.817 559.744 133.535 L 559.743 133.694 L 530.054 133.694 L 530.115 133.531 Z M 530.458 133.529 L 530.516 133.374 L 559.425 133.374 C 559.531 110.711 559.321 88.101 559.424 65.382 L 559.424 65.341 L 560.331 63.73 C 562.183 60.445 564.892 57.716 568.805 56.354 C 570.738 55.689 571.52 55.678 577.664 55.678 L 585.624 55.678 L 585.624 133.373 C 595.014 133.426 605.183 133.318 614.577 133.371 L 614.577 55.676 L 620.587 55.676 C 623.372 55.676 626.392 55.558 627.795 55.742 C 632.826 56.417 637.309 59.439 639.322 63.508 L 640.384 65.338 L 640.384 65.38 C 640.489 88.098 640.275 110.709 640.384 133.372 L 668.705 133.372 L 668.8 96.741 C 668.868 69.705 668.791 58.128 668.528 55.962 C 667.84 50.27 665.931 45.188 663.144 41.182 C 660.358 37.178 656.737 34.29 652.569 32.981 L 650.297 32.772 L 548.553 32.772 L 546.499 32.981 C 539.22 35.506 533.916 41.928 531.342 51.343 L 530.47 54.523 L 530.378 94.165 C 530.327 115.98 530.352 133.273 530.435 133.475 Z M 305.693 133.443 C 317.783 115.352 327.08 101.721 340.176 82.366 L 305.635 32.453 L 336.461 32.453 L 360.639 66.466 L 384.623 32.453 L 414.025 32.453 L 380.355 82.521 L 414.925 133.694 L 384.696 133.694 L 360.382 98.152 L 335.471 133.694 L 305.438 133.694 L 305.702 133.43 Z M 306.21 133.374 L 335.305 133.374 L 360.386 97.59 L 384.864 133.374 L 414.323 133.374 L 379.969 82.521 L 413.425 32.773 L 384.789 32.773 L 360.641 67.02 L 336.295 32.773 L 306.245 32.773 L 340.564 82.364 L 340.503 82.455 C 327.373 101.858 306.21 133.374 306.21 133.374 Z M 432.207 133.689 C 428.376 132.984 424.773 130.98 421.949 128.188 C 419.124 125.396 417.044 121.784 416.225 117.893 C 415.499 114.411 415.517 51.873 416.246 48.337 C 417.771 41.002 422.329 35.383 429.918 32.462 L 429.945 32.451 L 506.334 32.451 L 506.351 32.455 C 512.314 33.782 517.602 38.093 520.182 43.529 C 521.823 47.006 522.054 48.509 522.218 56.919 C 522.356 63.993 522.293 64.436 521.787 64.967 L 521.742 65.014 L 496.7 65.014 L 496.702 64.854 C 496.711 63.898 495.131 60.918 493.655 59.544 C 492.157 58.139 491.666 57.34 488.882 57.05 L 451.293 57.05 L 449.844 57.624 C 447.47 58.802 445.909 60.352 444.779 62.657 L 443.742 64.763 L 443.742 102.465 L 444.57 104.231 C 445.699 106.647 447.372 108.417 449.521 109.467 L 451.299 110.34 L 489.625 110.34 L 491.107 109.604 C 494.292 108.032 496.663 104.63 496.95 101.221 C 497.037 100.252 497.334 99.434 497.658 99.163 L 497.7 99.128 L 521.741 99.128 L 521.786 99.175 C 522.292 99.711 522.353 100.751 522.215 108.559 C 522.044 118.159 521.902 119.024 519.841 123.204 C 517.584 127.76 512.604 132.088 507.308 133.684 L 507.286 133.691 L 432.493 133.691 L 432.521 133.747 Z M 432.245 133.371 L 507.239 133.371 C 512.467 131.802 517.335 127.569 519.554 123.062 C 521.6 118.928 521.726 118.131 521.895 108.553 C 522.033 100.755 522.019 99.903 521.606 99.448 L 497.815 99.448 C 497.561 99.685 497.348 100.319 497.269 101.249 C 496.954 104.736 494.494 108.267 491.249 109.89 L 489.7 110.66 L 451.225 110.66 L 449.38 109.754 C 447.185 108.671 445.438 106.825 444.28 104.367 L 443.422 102.536 L 443.422 64.689 L 444.492 62.516 C 445.653 60.168 447.289 58.542 449.707 57.335 L 451.203 56.741 L 451.232 56.73 L 488.9 56.73 L 488.908 56.731 C 491.816 57.091 492.4 57.934 493.874 59.31 C 495.382 60.726 496.858 63.534 497.01 64.694 L 521.609 64.694 C 522.022 64.274 522.037 63.98 521.899 56.925 C 521.736 48.536 521.52 47.099 519.892 43.665 C 517.356 38.286 512.188 34.07 506.299 32.771 L 430.005 32.771 C 422.5 35.647 418.051 41.135 416.56 48.401 C 415.834 51.905 415.815 114.378 416.539 117.827 C 417.339 121.671 419.379 125.199 422.174 127.961 C 424.963 130.718 428.471 132.68 432.245 133.371 Z M 91.816 58.33 L -0.126 58.33 L -0.159 58.221 C -0.377 57.494 5.189 46.662 7.991 42.412 C 22.587 20.284 45.441 5.353 71.226 1.099 C 96.675 -3.086 122.216 3.263 143.029 18.949 C 149.537 23.858 158.717 33.367 162.918 39.549 C 163.618 40.58 164.202 41.608 164.213 41.822 L 164.216 41.881 L 91.816 121.149 L 91.816 119.127 L 91.816 119.128 Z M 92.136 120.324 L 163.883 41.77 C 163.807 41.527 163.347 40.751 162.653 39.729 C 158.47 33.568 149.326 24.097 142.836 19.205 C 122.081 3.546 96.662 -2.773 71.278 1.415 C 45.554 5.645 22.808 20.506 8.258 42.588 C 5.465 46.824 0.329 56.725 0.143 58.01 L 92.136 58.01 Z" style="fill: none;"/>
</svg>