<?xml version="1.0" encoding="utf-8"?>
<svg xmlns="http://www.w3.org/2000/svg" viewBox="0 0 180 190" role="img" aria-label="FXCM">
  <path fill="#38508e" d="M78.366 186.46C56.9 184.7 35.981 174.9 20.38 159.3c-4.975-4.97-9.953-11.07-9.836-12.06.084-.72 70.997-82.019 71.535-82.019v65.986h89.446c.439.439-3.687 8.44-6.978 13.378-3.834 5.752-7.488 10.223-12.157 14.877-19.577 19.514-46.34 29.276-74.024 26.998Z"/>
  <path fill="#38508e" d="M91.976 120.522V58.17H-.007c-.223-.665 5.334-11.427 8.131-15.67C22.697 20.395 45.497 5.499 71.252 1.257c25.416-4.187 50.896 2.148 71.68 17.82 6.5 4.901 15.661 14.39 19.853 20.562.697 1.027 1.268 2.009 1.268 2.183l-72.077 78.915v-.215Z"/>
</svg>
