<svg xmlns="http://www.w3.org/2000/svg" viewBox="0 0 41 40">
  <path fill="#FF5500" d="M5.48067 2.8625C5.19076 3.355 4.91345 3.75875 5.20336 4.33C5.36218 4.64375 5.8563 4.96375 5.96849 5.02125C6.37815 5.2225 6.76261 5.415 6.48529 5.415C5.63571 5.415 6.6416 6.18375 5.39118 5.31125C5.18193 5.16625 4.76092 4.77375 4.72311 4.18625C4.68151 3.51625 5.29286 2.97125 5.48067 2.86125V2.8625ZM6.20924 7.1875C6.2042 6.785 6.20924 6.33875 6.41849 6.04875C6.44118 6.0175 6.46261 5.98375 6.48782 5.94375C6.61134 5.74875 6.76134 5.51125 7.20126 5.1975C6.16008 4.8275 5.57899 4.33625 5.49832 3.86C5.28277 2.59125 8.72521 1.42625 8.67983 1.315C8.63571 1.2025 7.23025 1.35875 6.8458 1.47125C4.89832 1.92125 3.51807 3.13875 3.51807 4.67125C3.51807 5.95875 5.06849 6.78375 6.20924 7.1875V7.1875ZM18.5332 6.09C17.7857 6.835 16.6639 6.73125 16.6639 6.73125C17.9546 6.225 17.0042 5.81875 17.3092 5.88875C17.6168 5.95375 17.8525 5.85375 18.7714 5.54875C19.6891 5.245 19.2819 5.34625 18.5319 6.09H18.5332ZM19.3147 4.67C18.8382 4.73875 18.7387 4.77125 18.329 4.77125C18.1992 4.77125 17.9319 4.84625 17.6357 4.94875C17.3937 5.27 17.1303 5.55375 16.8416 5.795C16.4496 6.12625 16.0109 6.3775 15.5332 6.55C15.6655 6.655 15.8382 6.77125 16.055 6.9C16.8353 7.375 17.5815 7.5775 18.8735 6.52875C20.1643 5.48125 20.5714 4.67 20.3685 4.535C20.1643 4.40125 19.7912 4.60375 19.3147 4.67V4.67ZM14.4353 1.50125C12.087 2.2225 9.93529 3.375 8.05336 4.85625C7.77227 4.86875 7.45084 4.82 7.17605 4.75625C9.08193 3.1625 11.2815 1.9025 13.6929 1.0875C13.945 1.19625 14.2034 1.34625 14.4353 1.5V1.50125ZM23.0307 11.6575C22.2164 16.53 15.3214 18.5138 13.8971 20.225C12.963 19.6375 18.387 14.6937 19.2038 12.96C20.3483 10.5238 19.0676 8.885 20.4769 8.0875C21.6643 7.41625 23.5437 8.57875 23.0307 11.6575ZM11.5966 13.2012C10.7382 12.2975 11.1706 11.5638 10.8996 11.3388C10.5794 11.0738 10.4647 10.6712 11.1252 10.775C11.7769 10.8775 12.2357 10.755 12.6441 10.4825C13.2819 10.0562 13.1193 8.88375 14.342 8.7025C15.5647 8.5225 16.4899 8.8575 16.2416 10.3638C15.9164 12.3363 12.7752 14.445 11.5954 13.2012H11.5966ZM11.0912 8.91875C11.8361 8.31625 12.3592 8.335 12.5735 8.60125C12.9567 9.07625 12.5458 9.94375 11.7668 10.1538C11.5513 10.2113 10.5643 10.3362 10.3639 10.0962C10.1622 9.855 10.4168 9.4625 11.0912 8.91875V8.91875ZM10.1521 12.195C9.85714 12.3537 9.29244 11.7675 8.90672 11.5412C8.52101 11.3162 8.18067 11.43 7.61471 11.4988C7.04874 11.565 6.2395 11.5112 6.16513 11.2937C6.03025 10.8887 6.50546 10.7763 7.16092 10.6638C7.81891 10.5513 8.22731 10.8888 8.49832 10.8888C8.76933 10.8888 9.06807 10.6963 9.76765 11.0913C10.4017 11.4525 10.4458 12.0375 10.1521 12.195V12.195ZM8.81471 15.3825C8.27269 15.7887 7.15084 15.5075 7.15084 15.115C7.15084 14.7063 7.67143 14.945 8.03319 14.945C8.39622 14.945 8.85 14.6625 8.6458 14.1C8.55 13.8375 8.55504 13.2875 8.98614 13.7625C9.41471 14.2338 9.49286 14.8775 8.81471 15.3838V15.3825ZM6.68571 13.705C6.53445 13.9675 6.07437 14.4488 5.66723 14.3575C5.25756 14.2688 4.91975 14.3575 4.64874 14.5162C4.37647 14.6737 3.35672 15.1238 3.31261 14.6063C3.26471 14.065 3.62773 13.255 4.37647 12.9613C5.12395 12.6688 5.84748 12.4887 6.23319 12.5787C6.61891 12.6687 7.13824 12.9163 6.68697 13.7038L6.68571 13.705ZM7.34244 8.14C7.8416 7.96 7.72815 8.365 7.45588 8.725C7.18487 9.08625 7.32101 9.69625 7.16219 9.875C7.00462 10.0563 6.32521 9.89 6.11975 9.60375C5.77941 9.13125 6.84454 8.32 7.34244 8.14ZM7.56933 5.9775C8.04454 5.6175 9.38193 5.18875 9.6542 5.0775C9.92521 4.96375 10.7861 4.5125 11.0798 4.7825C11.3748 5.05375 10.7395 5.345 10.5592 5.73C10.3777 6.1125 10.2189 7.17 10.2643 7.73625C10.3097 8.2975 9.51681 7.50875 9.33656 7.05875C9.15378 6.60875 9.22311 6.47125 8.67857 6.63C8.13656 6.7875 7.09412 6.3375 7.56933 5.9775ZM19.2832 6.7675C17.7429 7.8325 16.6639 7.68625 15.7689 7.1675C15.5597 7.05 15.387 6.9425 15.2458 6.84125C15.0971 6.88125 14.9471 6.91375 14.792 6.94125C14.5739 6.97875 14.3672 6.9975 14.1744 6.9975C12.987 6.9975 12.4979 6.26 12.4399 5.63125C12.3517 4.66 12.8256 4.28125 13.471 3.9C12.3454 3.6525 10.3261 4.0675 8.88277 4.71625C7.02605 5.54875 6.95672 5.95375 6.73235 6.26875C6.50546 6.58625 6.64034 7.44125 6.57353 7.66875C6.50546 7.89375 6.2105 8.2525 5.84748 8.7025C5.48571 9.155 5.39496 9.6275 5.41639 9.8975C5.4416 10.1675 5.71261 10.5287 5.84748 10.6412C5.71261 10.8887 5.23613 12.1288 5.14664 12.2175C4.94118 12.2175 4.73824 12.5112 4.64874 12.6C4.35252 12.645 2.97227 13.2088 3.06303 14.65C3.15126 16.0675 4.12689 16.3875 4.78361 16.475C5.35084 17.2413 6.46008 17.4 7.79622 17.3775C8.4542 17.365 9.12227 17.1587 9.61765 16.9662C4.89202 24.1763 11.4038 31.3113 13.9702 32.7588C13.3941 31.8425 7.83277 24.555 19.0853 18.5687C28.113 13.7662 24.7487 6.31875 20.9748 5.2875C20.7202 5.6825 20.1113 6.19625 19.2832 6.7675V6.7675ZM29.1782 28.1763C29.1492 27.6813 29.7882 27.7388 29.9294 27.8238C30.0706 27.9075 30.1563 28.1337 29.9849 28.1337C29.816 28.1337 29.5185 28.3587 29.8866 28.5987C29.9836 28.6612 29.2059 28.6675 29.1782 28.1763ZM32.6319 34.9537C32.8878 35.0437 33.1387 35.1125 33.3744 35.15C29.8336 38.165 25.2403 40 20.2147 40C9.06555 40 0 31.0287 0 20C0 15.1625 1.75336 10.7312 4.6563 7.27125C4.87059 7.36625 5.09622 7.44125 5.29916 7.49625C2.4 10.8713 0.642857 15.2325 0.642857 20C0.642857 30.6788 9.42101 39.3625 20.2134 39.3625C24.9239 39.3625 29.2513 37.7075 32.6307 34.9537H32.6319ZM29.8626 21.4825C29.8626 21.5675 29.7189 21.5075 29.7 21.4237C29.6849 21.34 29.6597 21.1788 29.6597 21.1788C29.6597 21.1788 29.9987 20.7825 30.0845 20.7825C30.1324 20.7825 30.2105 21.0012 30.2105 21.12C30.2105 21.24 30.1601 21.305 29.966 21.2963C29.7693 21.2888 29.8626 21.3988 29.8626 21.4825V21.4825ZM36.4714 23.9775C36.4034 24.1012 36.2244 23.8875 36.1538 23.9225C36.0857 23.9563 35.9395 23.91 35.9395 23.81C35.9395 23.7088 36.0857 23.63 36.2672 23.6413C36.4475 23.6525 36.5395 23.8537 36.4714 23.9775V23.9775ZM36.5597 25.1612C36.3908 25.1375 36.2571 25.1375 36.0416 25.1725C35.8248 25.205 35.8828 25.1725 35.6219 25.1612C35.3609 25.1487 35.2059 24.8575 35.2601 24.7325C35.3824 24.4512 35.6345 24.4725 35.8021 24.52C35.9735 24.5637 36.2559 24.8012 36.3567 24.87C36.4588 24.9362 36.5282 24.9138 36.8105 25.0025C37.0941 25.0925 36.7311 25.185 36.5609 25.1612H36.5597ZM37.0475 23.8112C37.2076 23.755 37.321 23.9563 37.321 24.035C37.321 24.115 37.1975 24.09 37.1496 24.0575C36.9807 23.9325 37.0487 23.81 37.0487 23.81L37.0475 23.8112ZM35.4857 23.595C35.2815 23.7887 34.2933 24.185 34.2756 24.6762C34.258 25.1662 35.129 25.7925 36.1664 25.6225C37.2 25.4537 37.5366 24.7512 37.5239 24.4412C37.5076 23.9837 36.9466 22.9537 35.9962 22.5975C36.0139 22.835 35.7529 23.3412 35.4845 23.595H35.4857ZM34.524 31.9925C34.7672 32.2125 34.8643 32.8988 34.7849 33.1363C34.7143 33.3388 34.4307 33.4487 34.3084 33.3512C34.0462 33.1362 33.7223 32.6425 33.8219 32.6025C34.2 32.4488 34.2807 31.7725 34.524 31.9925ZM33.6416 26.6925C33.5937 26.4113 33.6164 25.825 33.9794 26.0413C34.3424 26.2538 34.6021 26.1063 34.5794 26.2188C34.558 26.3325 34.4571 26.3775 34.3424 26.4563C34.2542 26.5188 33.9454 26.8275 33.8887 26.9625C33.8319 27.1 33.6845 26.975 33.6403 26.6937L33.6416 26.6925ZM32.2588 24.2712C31.9903 22.8187 35.463 23.0437 34.5782 23.5162C34.5782 23.5162 33.9227 23.8413 33.7979 24.2038C33.4626 25.1663 32.4013 25.0462 32.2588 24.2712ZM31.2933 31.3337C30.6807 31.5375 29.7643 31.5875 29.2525 31.3862C28.3903 31.0425 29.966 31.0312 30.9353 30.1187C31.4912 29.5937 31.65 28.6488 32.5664 29.2563C33.4147 29.8188 31.9034 31.1312 31.2933 31.3337ZM28.3853 28.765C28.2303 28.49 28.2933 28.1112 28.4861 27.9212C28.6866 27.7237 29.0559 27.5037 29.8349 27.4487C30.4891 27.4037 30.8269 27.1812 30.9744 27.1112C31.1231 27.0425 31.2819 28.5913 29.913 28.9788C29.1719 29.1875 28.5492 29.0538 28.3853 28.7663V28.765ZM27.6618 23.1463C27.6971 23.7138 27.0618 24.1088 26.7681 23.9013C26.4744 23.6913 26.5941 22.4312 26.8424 21.5512C27.5861 18.905 29.8588 17.9237 30.4891 18.01C30.4462 18.345 28.8845 18.6887 28.2643 19.9662C27.4676 21.6062 27.6265 22.5775 27.6618 23.1463ZM24.7626 26.1337C22.5744 28.8987 18.2105 24.75 23.4945 21.3088C25.137 20.24 26.2172 18.74 26.7466 18C26.9168 18.9775 25.2882 21.1075 24.9 22.2875C24.213 24.3675 25.8 24.8237 24.7639 26.1337H24.7626ZM17.9761 34.2062C16.0059 32.9687 16.8681 30.2987 17.0735 31.26C17.5248 33.3625 20.2185 33.2062 21.2887 33.7587C22.2416 34.2487 20.255 35.6375 17.9761 34.2062V34.2062ZM32.2071 18.3738C32.7681 18.5263 32.4794 18.9663 32.2916 18.865C32.1063 18.7625 31.5441 18.8475 31.1029 19.0988C30.6618 19.3563 29.8626 20.1825 29.6937 20.4187C29.5223 20.6537 29.4038 21.1113 29.4391 21.4488C29.3029 21.28 29.2601 20.8813 29.3534 20.52C29.4895 19.9975 30.1172 19.22 30.8319 18.7287C31.5441 18.2387 32.2084 18.3738 32.2084 18.3738H32.2071ZM30.934 22.6163C31.3777 22.4863 31.8845 22.16 31.6651 22.5312C31.442 22.9037 30.8849 23.3912 30.1021 23.3262C29.4378 23.2712 28.6235 22.7163 28.6563 22.1425C28.6866 21.6175 29.0471 21.585 29.2172 21.7188C29.3874 21.855 29.8097 22.9438 30.934 22.6163V22.6163ZM34.1609 25.3737C34.3084 25.5112 34.3424 25.735 34.8403 25.825C35.5878 25.9612 35.2702 26.005 35.1013 26.0413C34.9311 26.0725 34.3765 26.05 34.0929 25.9288C33.8433 25.8175 33.5887 25.5088 33.6403 25.3988C33.7538 25.1488 34.0134 25.24 34.1609 25.3737ZM34.7723 30.1325C35.0622 29.16 34.3311 27.87 34.229 27.7C34.1269 27.5325 34.0071 27.415 34.0261 27.21C34.0412 27.01 34.7559 26.2825 34.9261 26.1287C35.4013 26.2137 35.666 26.0413 35.7794 25.8938C36.1752 25.8813 36.4034 25.7238 36.4034 25.7238C36.4235 25.715 36.4462 25.7013 36.4664 25.6888C36.2899 25.7513 35.8651 25.815 35.8134 25.815C35.2185 25.815 34.6286 25.6213 34.2832 25.2675C34.1029 25.0825 34.0147 24.8813 34.0185 24.6875C34.0374 23.9 34.7824 23.6838 35.1567 23.3588C35.5487 23.0213 35.7819 22.315 35.7819 22.315C35.7819 22.315 36.3303 22.2263 37.0261 23.2763C37.0261 22.6663 36.6958 22.3413 36.421 22.1088C36.0807 21.8213 35.4517 21.9563 35.4517 21.9563C34.5176 21.095 33.7702 21.28 33.4475 21.2963C33.0391 21.3188 32.5475 21.585 32.037 21.7188L32.2878 21.2812C32.2487 21.2912 32.2034 21.2987 32.1466 21.2987C32.129 21.2987 32.1088 21.2913 32.0899 21.2838C32.0962 21.2863 32.0962 21.2913 32.1013 21.2925C32.013 21.4125 31.9324 21.5087 31.8668 21.5675C31.5101 21.8875 31.4937 21.89 31.0021 22.04C30.5105 22.1912 29.642 21.8213 29.5903 21.2963C29.5399 20.775 30.0328 20.3513 30.8319 19.5913C31.6298 18.83 32.3445 19.0675 32.5992 19.1688C32.5992 19.1688 33.0164 19.4 33.0113 19.6487C33.0303 19.65 33.0655 19.6613 33.0807 19.665C33.1008 19.6713 33.1235 19.68 33.1462 19.69C33.3101 18.6687 32.6496 18.095 32.2084 17.8838C31.7496 17.6638 31.2731 18.205 31.2895 18.0862C31.3071 17.9687 31.7647 15.9075 31.0185 13.5738C29.9307 10.5175 27.4866 8.00125 23.7076 6.49625C25.6084 7.65625 30.9983 15.605 20.2134 21.2162C10.3147 26.3662 13.437 32.6225 16.6109 34.53C10.0097 32.9225 5.11387 27.0425 5.11387 20.03C5.11387 19.2463 5.17437 18.4775 5.2916 17.7262C4.99034 17.6737 4.50252 17.0025 4.16975 17.0913C3.99076 18.0438 3.89874 19.0263 3.89874 20.03C3.89874 28.9425 11.2172 36.1675 20.245 36.1675C21.5622 36.1675 22.8429 36.0125 24.0693 35.7225C23.7214 35.3787 23.4983 35.0175 23.2941 34.68L23.2374 34.5712C22.3336 32.7212 23.6912 30.1525 23.6912 30.1525C23.6912 30.1525 26.4492 32.1675 27.7286 32.0775C27.8672 32.2588 28.6109 33.4487 28.2618 34.7112C29.4252 34.4062 30.7601 33.9863 31.6752 33.475C32.0357 33.7488 32.7769 34.1837 33.1071 34.3412C34.0588 34.7975 34.6878 34.6125 34.9437 34.3088C35.1618 34.0463 35.4164 32.3113 34.2681 31.2138C34.4924 30.8638 34.6613 30.5038 34.7723 30.1325V30.1325ZM26.1945 34.9837C24.8861 35.0525 24.6479 34.0212 24.5294 33.5825C24.4097 33.1425 24.9025 32.4 24.9025 32.4C24.987 32.06 25.616 32.4325 25.8706 32.5837C26.1252 32.7362 27.0769 32.9062 27.0429 33.0575C27.0088 33.21 25.5492 33.1762 25.5151 33.3612C25.4798 33.5487 26.6004 33.665 26.9408 33.6488C27.2811 33.6313 27.5004 34.9162 26.1945 34.9837ZM27.5521 32.3487C26.1429 32.415 23.9849 31.1488 23.9849 31.1488C23.9345 31.2325 23.0004 32.99 23.5941 34.4275C24.1891 35.8612 25.8542 36.1325 26.6357 35.8775C27.5055 35.5987 28.6399 34.46 27.5521 32.3487V32.3487ZM11.1265 9.2125C11.1265 9.05 11.6471 8.8025 11.8525 9.2325C12.0328 9.6175 11.7391 9.8425 11.5349 9.8425C11.3962 9.8425 11.105 9.73 11.1504 9.57125C11.1769 9.47375 11.5059 9.64 11.4655 9.36875C11.4441 9.2125 11.1252 9.325 11.1252 9.2125H11.1265ZM40.4307 20C40.4307 24.9025 38.6319 29.3925 35.6622 32.875C35.6282 32.5625 35.5866 32.2588 35.5462 32C38.1933 28.6975 39.7853 24.5325 39.7853 20C39.7853 9.32375 31.0059 0.6375 20.216 0.6375C19.5832 0.6375 18.9567 0.67375 18.3378 0.7325C18.1147 0.5575 17.8134 0.37 17.516 0.19875C18.3996 0.0825 19.2983 0 20.2147 0C31.3613 0 40.4294 8.97 40.4294 20H40.4307ZM16.6903 2.9175C16.5605 3.69125 15.7739 4.285 15.3895 4.57C13.4672 6.00125 14.6294 4.50625 13.8454 4.9125C13.5945 4.74375 15.1185 3.74625 15.1689 3.64625C15.5218 3.79375 16.9235 2.3675 15.3933 1.025C15.595 1.21 16.8668 1.87875 16.6916 2.9175H16.6903ZM15.6567 1.87625C15.8496 2.48125 15.3845 3.20625 14.3433 3.83875C13.3021 4.46625 12.7172 4.7575 12.8256 5.5925C12.8723 5.94875 13.1433 6.835 14.7277 6.56375C16.3147 6.2925 17.3546 5.25625 18.0126 3.9725C18.6706 2.68875 18.7185 0.715 15.6845 0.1725C13.2139 -0.23125 11.429 0.64375 11.429 0.7325C11.4744 0.91375 15.1525 0.29875 15.6567 1.87625V1.87625ZM32.724 20.5638L32.6483 20.6825C32.6231 20.6375 32.5966 20.5988 32.5639 20.5675L32.5916 20.5212C32.6307 20.54 32.6786 20.555 32.7227 20.5638H32.724ZM35.3445 21.0575C35.3483 20.995 35.3798 20.31 35.3798 20.03C35.3798 12.0487 29.0395 5.53 21.0592 5.11375C21.242 4.84125 21.4122 4.38 21.542 3.94375C29.9647 4.595 36.5937 11.5487 36.5937 20.0312C36.5937 20.4325 36.5357 21.4112 36.5269 21.5025C36.2559 21.2362 35.7202 21.43 35.3445 21.0575V21.0575ZM32.4958 20.8675C32.5803 20.9175 32.6748 21.1112 32.6672 21.1462L32.3912 20.9588C32.3332 20.8825 32.4492 20.8388 32.4971 20.8675H32.4958ZM32.1479 21.205C32.2929 21.205 32.3597 21.1375 32.4718 21.1375C32.5828 21.1375 32.8122 21.38 32.7088 21.095C32.608 20.8075 32.5134 20.47 32.3269 20.705C32.2866 20.7587 32.0055 21.205 32.1479 21.205ZM30.8672 20.5238C30.8017 20.5175 30.5332 20.4825 30.5332 20.4825C30.4475 20.4412 30.5319 20.3475 30.5861 20.3513C30.6845 20.3588 30.8559 20.4888 30.8672 20.5238ZM30.7134 20.1562C30.6378 20.1313 30.4676 20.25 30.3227 20.3513C30.1777 20.4513 30.2307 20.6725 30.2307 20.6725C30.2307 20.6725 30.3971 20.6225 30.4916 20.605C30.6277 20.58 30.9429 20.6638 30.9769 20.5888C31.045 20.47 30.7828 20.18 30.7122 20.1562H30.7134ZM33.6038 20.3688C33.7374 20.475 33.8408 20.705 33.8168 20.7275C33.7286 20.6588 33.3794 20.365 33.3794 20.365C33.3 20.2575 33.5282 20.3113 33.6038 20.3688ZM33.958 20.9262C34.0689 20.8675 33.7803 20.4025 33.6693 20.2325C33.5584 20.0638 33.2017 19.795 33.058 19.76C32.8878 19.7175 32.6294 20.0762 32.608 20.14C32.463 20.57 32.8122 20.435 33.271 20.5363C33.7286 20.6363 33.8471 20.9837 33.958 20.9262V20.9262ZM32.2273 19.4975C32.1744 19.49 32.0723 19.3562 32.0723 19.3562C32.0811 19.3125 32.1076 19.295 32.1744 19.2438C32.2424 19.1938 32.3029 19.3025 32.3357 19.2862C32.3697 19.2687 32.4126 19.2537 32.5134 19.2862C32.6155 19.32 32.6244 19.38 32.6584 19.38C32.6912 19.38 32.7429 19.38 32.8021 19.3963C32.8626 19.4138 32.8613 19.4562 32.9055 19.5475C32.9496 19.645 32.8172 19.6388 32.8021 19.665C32.7857 19.7013 32.7429 19.7275 32.7013 19.665C32.6584 19.6088 32.6004 19.54 32.6004 19.54C32.6004 19.54 32.5311 19.6 32.4882 19.5738C32.4466 19.5488 32.3798 19.4813 32.3534 19.4638C32.3269 19.4463 32.2765 19.5062 32.2273 19.4975ZM31.8101 19.6763C32.0055 19.7763 32.2273 20.1638 32.2097 20.2325C32.0811 20.165 31.5643 19.8612 31.5643 19.8612C31.4282 19.7087 31.7004 19.6188 31.8101 19.6763ZM31.2227 19.9612C31.3336 19.955 31.6059 20.0338 31.7332 20.0988C31.8529 20.1563 32.3181 20.47 32.3597 20.4525C32.4038 20.435 32.3697 19.97 32.0319 19.6088C31.6248 19.1738 31.3424 19.3887 31.2403 19.4562C31.1382 19.5225 30.9857 19.7338 30.9857 19.8275C30.9857 19.93 31.1118 19.97 31.2227 19.9612"/>
</svg>
