<svg id="svg" version="1.1" xmlns="http://www.w3.org/2000/svg" xmlns:xlink="http://www.w3.org/1999/xlink" width="400" height="290.2173913043478" viewBox="0, 0, 400,290.2173913043478"><g id="svgg"><path id="path0" d="M392.377 124.117 L 391.440 125.136 392.459 124.199 C 393.020 123.684,393.478 123.226,393.478 123.180 C 393.478 122.973,393.248 123.168,392.377 124.117 M113.859 200.679 C 114.366 201.202,114.842 201.630,114.916 201.630 C 114.991 201.630,114.637 201.202,114.130 200.679 C 113.623 200.156,113.147 199.728,113.073 199.728 C 112.998 199.728,113.352 200.156,113.859 200.679 M30.571 240.127 C 8.594 241.949,-0.513 250.094,0.086 267.391 C 0.540 280.546,7.042 287.018,22.283 289.487 L 25.951 290.082 200.679 290.082 L 375.408 290.082 378.860 289.457 C 392.154 287.053,397.978 280.729,398.554 268.071 C 399.354 250.484,389.791 241.965,367.284 240.218 C 364.098 239.970,33.534 239.881,30.571 240.127 " stroke="none" fill="#4c94cc" fill-rule="evenodd"></path><path id="path1" d="M245.380 83.147 C 233.855 83.359,232.137 83.552,227.403 85.160 C 216.188 88.970,210.954 98.342,212.895 111.141 C 214.666 122.821,221.455 129.367,234.511 131.982 C 237.357 132.552,363.362 132.891,371.196 132.350 C 388.345 131.164,398.597 122.171,399.613 107.422 C 400.517 94.300,392.494 85.694,377.346 83.535 C 373.998 83.058,267.270 82.745,245.380 83.147 M145.652 155.715 C 118.538 156.400,107.555 164.102,107.491 182.473 C 107.436 198.659,116.633 207.265,136.413 209.537 C 141.311 210.099,368.221 209.981,372.062 209.414 C 390.111 206.750,399.013 197.905,399.040 182.609 C 399.059 171.917,395.208 165.583,385.910 161.008 C 378.769 157.495,372.469 156.458,355.299 155.971 C 343.693 155.642,157.543 155.414,145.652 155.715 " stroke="none" fill="#5494cc" fill-rule="evenodd"></path><path id="path2" d="M344.831 0.288 C 320.976 1.374,311.176 8.672,310.669 25.730 C 310.096 45.011,320.110 53.475,344.840 54.611 C 384.920 56.453,399.728 49.090,399.728 27.315 C 399.728 5.020,386.284 -1.599,344.831 0.288 " stroke="none" fill="#649cd4" fill-rule="evenodd"></path><path id="path3" d="" stroke="none" fill="#4c9cd0" fill-rule="evenodd"></path><path id="path4" d="" stroke="none" fill="#5c98d0" fill-rule="evenodd"></path></g></svg>