<svg xmlns="http://www.w3.org/2000/svg" width="59" height="63" viewBox="0 0 59 63" fill="none"><path fill="url(#a)" d="M40.8 24.1c-2.3-1.6-5.2-.3-5.2-.3L12.4 36.9c-9 4.4-16.5-9.7-4-13.7 0 0 25.8-9.4 32.4.9Z"/><path fill="url(#b)" d="M42.7 27.4c0-.8-.5-2.3-1.9-3.3-5-4.3-17.3-5.5-33.6-.5l18.5-10.5c13.5-2 17 6.4 17 14.3Z"/><path fill="url(#c)" d="m57.1 12.6-.3 40.8c0 9.5-14.2 9.8-14.2 0l.1-26.4c-.4-7.6-3.5-15.7-17-13.9l16-9c7-4 15.4-1 15.4 8.5Z"/><path fill="url(#d)" d="M26 43.8c1.5-1 3.5 0 3.5 1.8v11.2c0 2.2-1.6 2.8-3.3 2.4a21.4 21.4 0 0 1-10.7-6c-1.1-1-1.3-2.5.2-3.5l10.2-5.9Z"/><defs><linearGradient id="a" x1="18.8" x2="12.9" y1="7.9" y2="47.3" gradientUnits="userSpaceOnUse"><stop offset=".2" stop-color="#00456D"/><stop offset=".9" stop-color="#5FFEAE"/></linearGradient><linearGradient id="b" x1="28.6" x2="25.5" y1="10.9" y2="23.8" gradientUnits="userSpaceOnUse"><stop offset=".1" stop-color="#005E95"/><stop offset="1" stop-color="#5FFEAE"/></linearGradient><linearGradient id="c" x1="39.6" x2="51.8" y1="4.2" y2="56.1" gradientUnits="userSpaceOnUse"><stop offset=".1" stop-color="#4DFC8D"/><stop offset="1" stop-color="#1FC3F1"/></linearGradient><linearGradient id="d" x1="-6.8" x2="42.7" y1="31.3" y2="64.2" gradientUnits="userSpaceOnUse"><stop offset=".1" stop-color="#3EFE99"/><stop offset="1" stop-color="#2AABF0"/></linearGradient></defs></svg>
