<svg xmlns="http://www.w3.org/2000/svg" viewBox="0 0 256 256">
<path d="M0 0 C84.48 0 168.96 0 256 0 C256 84.48 256 168.96 256 256 C171.52 256 87.04 256 0 256 C0 171.52 0 87.04 0 0 Z" fill="#000000" transform="translate(0,0)"/>
<path d="M0 0 C2.012 1.867 2.012 1.867 3.012 4.867 C3.672 4.867 4.332 4.867 5.012 4.867 C5.012 1.897 5.012 -1.073 5.012 -4.133 C7.594 -4.805 10.177 -5.471 12.762 -6.133 C13.491 -6.324 14.221 -6.514 14.973 -6.711 C18.457 -7.598 21.393 -8.133 25.012 -8.133 C25.081 5.481 25.135 19.094 25.167 32.707 C25.183 39.03 25.204 45.352 25.238 51.674 C25.271 57.782 25.289 63.889 25.296 69.997 C25.302 72.321 25.313 74.644 25.329 76.968 C25.453 95.442 25.055 110.202 12.012 124.555 C-0.133 136.067 -16.171 139.419 -32.393 139.357 C-46.128 138.931 -59.437 134.307 -69.367 124.523 C-76.988 116.125 -76.988 116.125 -76.988 111.867 C-73.004 110.795 -69.006 109.806 -64.988 108.867 C-63.724 108.554 -63.724 108.554 -62.434 108.234 C-57.012 107.203 -57.012 107.203 -54.23 109.008 C-53.079 110.069 -51.94 111.144 -50.812 112.23 C-43.152 119.104 -32.798 118.651 -23.086 118.312 C-15.027 117.782 -8.079 115.508 -2.426 109.555 C3.593 101.259 3.994 91.732 5.012 81.867 C4.357 82.459 3.702 83.051 3.027 83.66 C-7.339 92.636 -17.437 97.042 -31.051 97.117 C-31.955 97.138 -32.859 97.158 -33.791 97.18 C-47.791 97.26 -58.576 91.71 -68.633 82.246 C-79.294 71.479 -85.408 57.916 -85.363 42.68 C-85.254 27.24 -79.023 14.408 -68.801 2.992 C-48.869 -15.186 -21.257 -15.951 0 0 Z" fill="#FBFBFB" transform="translate(157.98828125,64.1328125)"/>
<path d="M0 0 C7.732 5.308 13.428 11.887 16 21 C17.533 31.01 17.105 40.691 11.836 49.547 C6.479 56.704 -1.066 62.335 -10 64 C-21.578 64.78 -30.992 64.365 -40.312 56.688 C-48.838 48.557 -52.022 40.22 -52.438 28.375 C-52.276 22.425 -51.091 18.065 -48 13 C-47.576 12.301 -47.152 11.603 -46.715 10.883 C-43.064 5.492 -38.665 2.13 -33 -1 C-32.385 -1.342 -31.77 -1.683 -31.137 -2.035 C-21.502 -6.471 -9.083 -5.04 0 0 Z" fill="#010101" transform="translate(146,77)"/>
</svg>
