<svg width="884" height="884" viewBox="0 0 884 884" fill="none" xmlns="http://www.w3.org/2000/svg">
<rect width="884" height="884" rx="200" fill="#FA7B4E"/>
<path d="M413.685 549.591L348.502 708.263C340.224 728.39 355.041 750.487 376.792 750.487H507.135C528.909 750.487 543.703 728.413 535.425 708.263L470.242 549.591C459.854 524.294 424.027 524.294 413.639 549.591H413.685Z" fill="white"/>
<path d="M332.039 471.868L159.934 495.728C138.322 498.719 126.705 522.718 137.766 541.547L202.786 652.127C213.662 670.631 239.726 672.463 253.082 655.675L360.167 521.234C377.373 499.624 359.402 468.089 332.039 471.868Z" fill="white"/>
<path d="M360.167 362.793L253.082 228.353C239.702 211.565 213.662 213.397 202.786 231.9L137.766 342.481C126.705 361.286 138.322 385.285 159.934 388.3L332.039 412.159C359.402 415.962 377.373 384.404 360.167 362.793Z" fill="white"/>
<path d="M470.289 334.411L535.472 175.739C543.75 155.612 528.933 133.515 507.182 133.515H376.839C355.065 133.515 340.271 155.589 348.549 175.739L413.732 334.411C424.121 359.708 459.947 359.708 470.336 334.411H470.289Z" fill="white"/>
<path d="M551.961 412.157L724.066 388.297C745.678 385.306 757.296 361.307 746.235 342.479L681.214 231.898C670.339 213.394 644.275 211.562 630.918 228.35L523.833 362.791C506.627 384.402 524.599 415.937 551.961 412.157Z" fill="white"/>
<path d="M523.812 521.238L630.897 655.679C644.276 672.466 670.317 670.634 681.192 652.131L746.213 541.55C757.274 522.745 745.657 498.746 724.045 495.732L551.94 471.872C524.577 468.069 506.606 499.627 523.812 521.238Z" fill="white"/>
</svg>
