<svg xmlns="http://www.w3.org/2000/svg" viewBox="0 0 173 101">
<path d="M0 0 C4.017 0.524 5.591 2.377 8.188 5.375 C9.371 6.734 9.371 6.734 10.578 8.121 C13.659 11.783 16.675 15.494 19.684 19.215 C22.842 23.013 26.19 26.621 29.535 30.254 C31.927 32.919 34.193 35.648 36.438 38.438 C39.659 42.432 43.007 46.246 46.5 50 C50.79 54.61 54.804 59.378 58.754 64.285 C61.088 67.107 63.52 69.806 66 72.5 C70.122 76.979 73.994 81.605 77.816 86.34 C81.093 90.332 84.532 94.173 88 98 C87.67 98.99 87.34 99.98 87 101 C82.392 101.124 77.785 101.214 73.176 101.275 C71.609 101.3 70.042 101.334 68.476 101.377 C66.22 101.438 63.964 101.466 61.707 101.488 C61.011 101.514 60.315 101.54 59.598 101.566 C55.75 101.569 54.183 101.153 51.193 98.654 C50.108 97.34 50.108 97.34 49 96 C48.496 95.476 47.993 94.953 47.474 94.414 C41.463 87.985 35.659 81.479 30.145 74.613 C28.001 72.002 25.776 69.496 23.5 67 C19.533 62.645 15.792 58.14 12.086 53.562 C9.449 50.323 6.736 47.157 4 44 C0.032 45.563 -2.416 48.321 -5.188 51.438 C-5.67 51.972 -6.153 52.506 -6.65 53.056 C-10.487 57.338 -14.121 61.769 -17.723 66.25 C-21.017 70.229 -24.515 74.003 -28.031 77.785 C-30.027 79.837 -30.027 79.837 -31 82 C-21.438 82.604 -21.438 82.604 -13.023 78.801 C-10.478 75.976 -8.21 73.093 -6 70 C-4.693 68.267 -3.381 66.537 -2.062 64.812 C-1.538 64.076 -1.013 63.34 -0.473 62.582 C0.256 61.799 0.256 61.799 1 61 C1.99 61 2.98 61 4 61 C5.91 63.02 5.91 63.02 8.062 65.812 C11.253 69.851 14.502 73.718 18 77.5 C22.192 82.052 26.132 86.754 29.992 91.59 C31.951 94.039 31.951 94.039 34.258 96.129 C36 98 36 98 36 101 C-3.6 101 -43.2 101 -84 101 C-84 96.022 -82.939 95.427 -79.562 91.938 C-78.633 90.958 -77.706 89.976 -76.781 88.992 C-76.312 88.494 -75.843 87.996 -75.359 87.483 C-73.322 85.26 -71.446 82.917 -69.562 80.562 C-66.341 76.568 -62.993 72.755 -59.5 69 C-55.289 64.47 -51.324 59.794 -47.441 54.98 C-40.791 46.862 -33.849 38.978 -26.75 31.25 C-22.754 26.893 -19.015 22.378 -15.305 17.777 C-12.056 13.863 -8.624 10.139 -5.164 6.41 C-3.308 4.343 -1.621 2.254 0 0 Z" fill="#15B694" transform="translate(85,0)"/>
</svg>
