<svg xmlns="http://www.w3.org/2000/svg" viewBox="0 0 48 48">
<path d="M0 0 C15.84 0 31.68 0 48 0 C48 15.84 48 31.68 48 48 C32.16 48 16.32 48 0 48 C0 32.16 0 16.32 0 0 Z" fill="#FBFBFB" transform="translate(0,0)"/>
<path d="M0 0 C0 2.97 0 5.94 0 9 C-3 6 -3 6 -5 3 C-7.584 2.75 -7.584 2.75 -10 3 C-11.241 5.482 -11.129 7.164 -11.133 9.938 C-11.134 10.915 -11.135 11.892 -11.137 12.898 C-11.133 13.922 -11.129 14.945 -11.125 16 C-11.129 17.024 -11.133 18.047 -11.137 19.102 C-11.135 20.079 -11.134 21.056 -11.133 22.062 C-11.132 22.961 -11.131 23.859 -11.129 24.785 C-11.144 27.041 -11.144 27.041 -10 29 C-8.35 29 -6.7 29 -5 29 C-5 25.37 -5 21.74 -5 18 C-5.99 17.67 -6.98 17.34 -8 17 C-8 16.34 -8 15.68 -8 15 C-4.37 15 -0.74 15 3 15 C3.163 17.474 3.326 19.948 3.488 22.422 C4.078 25.393 4.869 26.859 7 29 C10.584 29.417 10.584 29.417 14 29 C15.234 27.957 15.234 27.957 15.402 25.703 C15.26 22.779 15.26 22.779 12.629 20.859 C11.617 20.163 10.605 19.467 9.562 18.75 C3.241 13.871 3.241 13.871 2.562 9.188 C2.585 6.005 2.885 5.159 4.812 2.5 C8.505 -0.032 10.652 -0.11 15.125 -0.062 C16.221 -0.053 17.316 -0.044 18.445 -0.035 C19.71 -0.018 19.71 -0.018 21 0 C21 2.97 21 5.94 21 9 C20.34 9 19.68 9 19 9 C18.34 7.02 17.68 5.04 17 3 C14.36 3 11.72 3 9 3 C8.597 5.326 8.597 5.326 9 8 C11.074 10.243 11.074 10.243 13.812 12.125 C20.311 16.945 20.311 16.945 22 19 C22.5 22.375 22.5 22.375 22 26 C19.459 29.16 17.854 30.715 14 32 C9.713 32.261 5.419 32.231 1.125 32.25 C-0.06 32.271 -1.244 32.291 -2.465 32.312 C-3.608 32.318 -4.752 32.323 -5.93 32.328 C-7.496 32.342 -7.496 32.342 -9.093 32.356 C-12.446 31.945 -14.286 30.978 -17 29 C-21.226 23.463 -20.608 16.634 -20 10 C-18.744 6.021 -17.499 4.474 -14.5 1.625 C-9.629 -0.637 -5.284 -0.338 0 0 Z" fill="#1F1F1F" transform="translate(23,8)"/>
<path d="M0 0 C1.096 0.009 2.191 0.018 3.32 0.027 C4.163 0.039 5.006 0.051 5.875 0.062 C5.875 3.033 5.875 6.003 5.875 9.062 C5.215 9.062 4.555 9.062 3.875 9.062 C3.215 7.082 2.555 5.102 1.875 3.062 C-0.765 3.062 -3.405 3.062 -6.125 3.062 C-6.528 5.388 -6.528 5.388 -6.125 8.062 C-4.051 10.306 -4.051 10.306 -1.312 12.188 C5.186 17.008 5.186 17.008 6.875 19.062 C7.375 22.437 7.375 22.437 6.875 26.062 C4.688 29 4.688 29 1.875 31.062 C-0.937 31.375 -0.937 31.375 -3.125 31.062 C-2.63 30.671 -2.135 30.279 -1.625 29.875 C0.057 28.142 0.057 28.142 0.309 25.715 C0.122 22.837 0.122 22.837 -2.496 20.922 C-3.508 20.226 -4.52 19.53 -5.562 18.812 C-11.884 13.933 -11.884 13.933 -12.562 9.25 C-12.54 6.068 -12.24 5.222 -10.312 2.562 C-6.62 0.03 -4.473 -0.048 0 0 Z" fill="#161616" transform="translate(38.125,7.9375)"/>
<path d="M0 0 C3.63 0 7.26 0 11 0 C11.163 2.474 11.326 4.948 11.488 7.422 C12.079 10.399 12.901 11.824 15 14 C18.591 15.288 18.591 15.288 22 16 C22 16.33 22 16.66 22 17 C13.42 17 4.84 17 -4 17 C-1 15 -1 15 3 14 C3 10.37 3 6.74 3 3 C2.01 2.67 1.02 2.34 0 2 C0 1.34 0 0.68 0 0 Z" fill="#262626" transform="translate(15,23)"/>
<path d="M0 0 C3.96 0 7.92 0 12 0 C12 2.97 12 5.94 12 9 C11.34 9 10.68 9 10 9 C9.835 8.051 9.67 7.102 9.5 6.125 C8.378 2.919 8.378 2.919 6.086 2.156 C4.078 1.674 2.039 1.329 0 1 C0 0.67 0 0.34 0 0 Z" fill="#4A4A4A" transform="translate(32,8)"/>
<path d="M0 0 C1.32 0 2.64 0 4 0 C4 2.64 4 5.28 4 8 C1.101 5.605 0.498 3.688 0 0 Z" fill="#191919" transform="translate(19,9)"/>
<path d="M0 0 C1.32 0 2.64 0 4 0 C4 2.31 4 4.62 4 7 C1.5 4.826 0.564 3.27 0 0 Z" fill="#151515" transform="translate(39,9)"/>
</svg>
