<?xml version="1.0" encoding="utf-8"?>
<svg version="1.1" id="Layer_1" width="100%" viewBox="0 0 435 435" enable-background="new 0 0 1200 600" xmlns="http://www.w3.org/2000/svg">
  <g transform="matrix(1, 0, 0, 1, -383.251251, -83.743843)">
    <path fill="#2C2B2A" opacity="1.000000" stroke="none" d="M 421.698 493.209 C 404.765 479.913 394.307 462.468 390.229 441.546 C 388.176 431.013 387.173 420.113 387.135 409.374 C 386.876 336.388 386.937 263.401 387.039 190.414 C 387.068 169.531 390.305 149.299 401.716 131.21 C 416.819 107.267 438.585 93.219 466.469 89.176 C 477.277 87.609 488.321 87.13 499.26 87.103 C 570.247 86.927 641.234 86.899 712.221 87.085 C 732.38 87.138 752.037 90.267 769.649 101.046 C 794.11 116.018 808.585 137.854 812.866 166.134 C 814.327 175.787 814.889 185.66 814.911 195.434 C 815.076 267.587 815.083 339.741 814.951 411.895 C 814.911 434.016 811.134 455.329 798.213 474.007 C 780.951 498.96 756.583 511.504 726.757 514.028 C 718.649 514.713 710.482 514.939 702.342 514.948 C 634.521 515.018 566.7 515.036 498.879 514.93 C 489.748 514.916 480.618 514.128 471.36 513.122 C 479.231 501.265 481.373 499.412 489.678 487.948 C 502.046 470.99 519.961 444.787 532.305 427.835 C 536.007 422.952 539.448 418.262 542.839 413.537 C 556.59 394.376 570.325 375.204 584.351 355.862 C 626.222 298.197 667.821 240.714 709.335 183.171 C 710.473 181.594 711.807 178.458 711.131 177.646 C 709.931 176.205 707.265 175.383 705.201 175.36 C 689.541 175.183 673.876 175.406 658.217 175.181 C 653.358 175.111 650.205 176.824 647.388 180.754 C 626.036 210.534 604.485 240.17 583.048 269.89 C 571.589 285.778 560.234 301.741 548.547 317.864 C 545.135 322.352 541.982 326.629 538.884 330.946 C 524.849 350.494 510.83 370.053 496.52 389.804 C 483.801 407.335 471.367 424.669 458.652 442.182 C 446.146 459.31 433.922 476.26 421.698 493.209 M 672.57 427.073 C 687.066 427.073 701.562 427.142 716.056 426.992 C 718 426.972 720.94 426.363 721.587 425.093 C 722.247 423.799 721.093 421.033 719.967 419.459 C 707.181 401.58 694.248 383.805 681.353 366.003 C 669.446 349.564 657.537 333.126 645.496 316.504 C 644.835 317.133 644.291 317.515 643.922 318.023 C 634.337 331.231 624.837 344.503 615.138 357.626 C 613.371 360.016 614.345 361.388 615.69 363.238 C 629.31 381.954 643.108 400.548 656.32 419.549 C 660.328 425.315 664.728 428.158 672.57 427.073 M 539.773 175.314 C 523.108 175.306 506.443 175.234 489.78 175.372 C 487.648 175.39 485.525 176.504 483.399 177.11 C 484.138 179.315 484.393 181.869 485.69 183.673 C 505.918 211.797 526.279 239.827 546.62 267.871 C 547.534 269.131 548.549 270.318 549.75 271.834 C 559.98 257.706 569.997 244.001 579.766 230.122 C 580.497 229.083 580.031 226.388 579.152 225.153 C 568.34 209.952 557.407 194.836 546.327 179.829 C 544.948 177.963 542.539 176.858 539.773 175.314 Z"/>
    <path fill="#FDB732" opacity="1.000000" stroke="none" d="M 421.734 493.131 C 433.135 477.201 571.589 285.778 583.048 269.89 C 604.485 240.17 626.036 210.534 647.388 180.754 C 650.205 176.824 653.358 175.111 658.217 175.181 C 673.876 175.406 689.541 175.183 705.201 175.36 C 707.265 175.383 709.931 176.205 711.131 177.646 C 711.807 178.458 710.473 181.594 709.335 183.171 C 667.821 240.714 513.457 455.742 471.324 513.176 C 466.718 511.707 460.501 510.297 455.892 508.714 C 445.012 504.977 449.278 506.614 444.407 504.781 C 436.098 501.654 426.22 497.074 421.734 493.131 Z"/>
    <path fill="#FEFEFE" opacity="1.000000" stroke="none" d="M 672.084 427.073 C 664.728 428.158 660.328 425.315 656.32 419.549 C 643.108 400.548 629.31 381.954 615.69 363.238 C 614.345 361.388 613.371 360.016 615.138 357.626 C 624.837 344.503 634.337 331.231 643.922 318.023 C 644.291 317.515 644.835 317.133 645.496 316.504 C 657.537 333.126 669.446 349.564 681.353 366.003 C 694.248 383.805 707.181 401.58 719.967 419.459 C 721.093 421.033 722.247 423.799 721.587 425.093 C 720.94 426.363 718 426.972 716.056 426.992 C 701.562 427.142 687.066 427.073 672.084 427.073 Z"/>
    <path fill="#FDFDFD" opacity="1.000000" stroke="none" d="M 540.19 175.357 C 542.539 176.858 544.948 177.963 546.327 179.829 C 557.407 194.836 568.34 209.952 579.152 225.153 C 580.031 226.388 580.497 229.083 579.766 230.122 C 569.997 244.001 559.98 257.706 549.75 271.834 C 548.549 270.318 547.534 269.131 546.62 267.871 C 526.279 239.827 505.918 211.797 485.69 183.673 C 484.393 181.869 484.138 179.315 483.399 177.11 C 485.525 176.504 487.648 175.39 489.78 175.372 C 506.443 175.234 523.108 175.306 540.19 175.357 Z"/>
  </g>
</svg>