<svg viewBox="0 5 40 40" xmlns="http://www.w3.org/2000/svg">
  <path d="M23.8946 44.3924C34.3365 41.9238 40.8029 31.4454 38.3379 20.9887C35.8728 10.5319 25.4092 4.05626 14.9674 6.52484C4.52551 8.99343 -1.94098 19.4719 0.524099 29.9286C2.98918 40.3853 13.4527 46.861 23.8946 44.3924Z" fill="#5367FF"/>
  <path d="M38.3377 20.9891C37.9862 19.4941 37.4698 18.0816 36.8144 16.7604L36.8101 16.7647L24.5758 28.0906C23.812 28.799 22.675 28.9207 21.7766 28.3949L16.5774 25.3439C15.7354 24.8528 14.6808 24.9267 13.917 25.5308C10.6968 28.0819 2.45091 34.6141 2.33373 34.7097C6.40024 42.2633 15.1539 46.4616 23.8945 44.3928C34.3363 41.9243 40.8028 31.4458 38.3377 20.9891Z" fill="#00F3BB"/>
</svg>
