<svg xmlns="http://www.w3.org/2000/svg" viewBox="0 0 96 96">
<path d="M0 0 C31.68 0 63.36 0 96 0 C96 31.68 96 63.36 96 96 C64.32 96 32.64 96 0 96 C0 64.32 0 32.64 0 0 Z" fill="#191731" transform="translate(0,0)"/>
<path d="M0 0 C0 21.45 0 42.9 0 65 C-12 64 -12 64 -17 62 C-17 42.86 -17 23.72 -17 4 C-4 0 -4 0 0 0 Z" fill="#FDFDFE" transform="translate(79,15)"/>
<path d="M0 0 C12 2 12 2 17 4 C17 23.14 17 42.28 17 62 C7 65 7 65 0 65 C0 43.55 0 22.1 0 0 Z" fill="#FDFDFE" transform="translate(17,15)"/>
<path d="M0 0 C5.94 0 11.88 0 18 0 C18 5.61 18 11.22 18 17 C12.06 17 6.12 17 0 17 C0 11.39 0 5.78 0 0 Z" fill="#8A57ED" transform="translate(39,39)"/>
<path d="M0 0 C5.28 0 10.56 0 16 0 C11.316 5.644 6.379 11.006 1 16 C0.67 16 0.34 16 0 16 C0 10.72 0 5.44 0 0 Z" fill="#A67BFD" transform="translate(40,39)"/>
<path d="M0 0 C0.33 0 0.66 0 1 0 C1 4.95 1 9.9 1 15 C-3.95 15 -8.9 15 -14 15 C-12.456 13.971 -10.908 12.945 -9.316 11.992 C-4.348 8.828 -2.168 5.428 0 0 Z" fill="#F9F8F9" transform="translate(95,81)"/>
<path d="M0 0 C5.28 0 10.56 0 16 0 C16 4.95 16 9.9 16 15 C14.909 13.364 13.825 11.724 12.773 10.062 C9.112 4.663 6.288 2.735 0 1 C0 0.67 0 0.34 0 0 Z" fill="#F9F9F9" transform="translate(80,0)"/>
<path d="M0 0 C1.029 1.544 2.055 3.092 3.008 4.684 C6.172 9.652 9.572 11.832 15 14 C15 14.33 15 14.66 15 15 C10.05 15 5.1 15 0 15 C0 10.05 0 5.1 0 0 Z" fill="#FAFAFA" transform="translate(0,81)"/>
<path d="M0 0 C4.95 0 9.9 0 15 0 C13.052 1.298 11.074 2.552 9.062 3.75 C5.739 6.191 4.096 8.482 2 12 C1.34 12.99 0.68 13.98 0 15 C0 10.05 0 5.1 0 0 Z" fill="#FBFBFB" transform="translate(0,0)"/>
</svg>
