<svg viewBox="0 0 52.77 48.28" xmlns="http://www.w3.org/2000/svg"><path d="m19.09 10.08-2.48 9.47-16.61 2.16z" fill="#57bae5"/><path d="m23.6 48.28 4.14-17.2-5.38-2.22z" fill="#005472"/><path d="m16.61 19.54-4.38 9-12.23-6.83z" fill="#34afe4"/><path d="m23.6 48.28-1.23-19.42-10.14-.35z" fill="#0076a7"/><path d="m16.61 19.54 5.76 9.31-10.14-.34z" fill="#009de2"/><g fill="#7acdf2"><path d="m19.09 10.08 13.79 1.73-16.27 7.74z"/><path d="m48 5.77-8.71 10.08.61-9.32z"/><path d="m52.77 0-4.77 5.77 3.76.46z"/></g><path d="m43.29 11 8.43-4.78-3.72-.45z" fill="#00abe7"/><path d="m27.74 31.08.41-11.57-5.79 9.35z" fill="#0076a7"/><path d="m28.15 19.51-5.79 9.35-5.75-9.31z" fill="#008dbe"/><path d="m32.88 11.81-4.74 7.7h-11.53z" fill="#57bae5"/><path d="m28.14 19.51-.4 11.57 10.58 10.82z" fill="#00698d"/><path d="m43.85 35.85-5.59-13.85.06 19.91z" fill="#09a1cb"/><path d="m39.29 15.85-1 6.14-10.15-2.48z" fill="#09a1cb"/><path d="m44.41 24.19-6.15-2.19 1-6.14z" fill="#8bdaff"/><path d="m46.61 35.47-6.7-10.74h3.83z" fill="#7acdf2"/><path d="m34.14 9.52 5.15 6.33.61-9.32z" fill="#57bae5"/><path d="m38.26 22-10.12-2.49 10.18 22.39z" fill="#008dbe"/><path d="m43.85 35.85 2.23 1.25-7.74 4.8z" fill="#0076a7"/><path d="m46.61 35.34-8.35-13.34 5.59 13.86z" fill="#57bae5"/><path d="m34.14 9.52-6 10 11.15-3.66z" fill="#7acdf2"/></svg>