<svg xmlns="http://www.w3.org/2000/svg" viewBox="0 0 1000 984"><path fill="#28B294" d="M499.77,0h.48C667.07,93.29,833,188.08,999.74,281.57c-.55,72.27.41,144.55.24,216.83V608.88c-1,31.22.28,62.46-.76,93.67-150.58,85.6-301.65,170.32-452.36,255.7-15.37,8.24-29.9,18.15-46,25l.7.79h-1.82v-.84c-8.67-2.87-16.54-7.57-24.4-12.11C317.15,881.23,158.32,792.58.38,702.36-.31,562.1.18,421.8,0,281.54,166.79,188,332.67,92.91,499.77,0M470.24,132.46C346.79,203.34,221.74,271.43,99,343.59c100.12,56.13,199.45,113.62,300.25,168.47,31.36-34.39,60.3-70.87,90.83-106-57.35-33.58-115.67-65.49-173.45-98.33,37.14-21.56,73.6-44.28,111-65.48Q662.88,375.82,899.44,507.15c.81-55,.13-109.95.41-164.92-123-70-246.47-139.31-369.6-209.16-9.88-5.7-19.39-13.15-31-14.92-10.76,2.21-19.67,9-29.05,14.31M498,569.08c55.5,30.65,110.91,61.49,165.62,93.51-32.51,19.16-63.68,40.51-95.94,60.08-3.06,1.79-5.92,4-9.26,5.28-6.7,1.23-12.43-3.17-18.05-6.05C398,640.86,255,561,112.53,480c-4.39-2.93-10.31-4.11-14.52-.24.12,10.45.19,20.89-.27,31.34,0,34.46-.19,68.93.35,103.37.45,7.34-2,15.45,2.45,22,3.47,6.11,10.12,9,16,12.11,127.78,72,255.32,144.53,383.23,216.33C633.4,789,768.05,715,900.67,637.36,797.3,578.58,693.9,519.85,589.86,462.27,558.32,497.05,529.23,534,498,569.08Z"/></svg>
