<svg width="60" height="39" xmlns="http://www.w3.org/2000/svg" xmlns:xlink="http://www.w3.org/1999/xlink"><defs><path id="a" d="M0 0h18v18.773H0z"/><path id="c" d="M0 0h19v18.773H0z"/></defs><g fill="none" fill-rule="evenodd"><path fill="#FFD26E" fill-rule="nonzero" d="M45.73 10.965h3.567v3.566h7.137V3.832H45.73z"/><path d="M42.164 18.102H60V.262H42.164v17.84zm3.566-14.27h10.704v10.7h-7.137v-3.567H45.73V3.832z" fill="#FFA200" fill-rule="nonzero"/><path d="M.39 18.102h4.813v-3.965H.391v3.965zm0 20.234h4.813V20.813H.391v17.523z" fill="#222" fill-rule="nonzero"/><g transform="translate(7 20)"><mask id="b" fill="#fff"><use xlink:href="#a"/></mask><path d="M11.734 4.914c-.574-.633-1.453-.95-2.625-.95-.77 0-1.406.13-1.914.391a3.609 3.609 0 0 0-1.222.965c-.305.383-.52.79-.645 1.22a5.543 5.543 0 0 0-.219 1.151h7.829c-.227-1.218-.63-2.144-1.204-2.777m-5.441 9.219c.723.699 1.766 1.05 3.121 1.05.969 0 1.805-.245 2.508-.73.7-.484 1.129-1 1.285-1.543h4.238c-.68 2.102-1.718 3.606-3.117 4.508-1.402.906-3.098 1.355-5.086 1.355-1.375 0-2.62-.218-3.726-.66-1.106-.441-2.047-1.066-2.813-1.879-.77-.816-1.363-1.785-1.781-2.918-.418-1.129-.625-2.37-.625-3.726 0-1.309.215-2.531.644-3.66A8.667 8.667 0 0 1 2.77 2.996a8.615 8.615 0 0 1 2.832-1.945C6.695.574 7.91.34 9.242.34c1.492 0 2.793.285 3.899.863a7.793 7.793 0 0 1 2.73 2.32c.711.973 1.223 2.079 1.54 3.32.316 1.247.429 2.544.339 3.9H5.11c.066 1.558.46 2.687 1.183 3.39" fill="#222" fill-rule="nonzero" mask="url(#b)"/></g><g transform="translate(24 20)"><mask id="d" fill="#fff"><use xlink:href="#c"/></mask><path fill="#222" fill-rule="nonzero" mask="url(#d)" d="M1.168.813h5.488l3.086 4.574L12.793.813h5.32l-5.761 8.203 6.472 9.32h-5.492l-3.66-5.527-3.66 5.527H.625l6.3-9.223z"/></g></g></svg>