<svg xmlns="http://www.w3.org/2000/svg" width="153" height="35" fill="none" viewBox="0 0 128 35"> <path fill="#404040" d="M0 35V13.826h7.35V35z"></path> <path fill="#404040" fill-rule="evenodd" d="M0 12.292l3.884-5.008H0V0h7.285v7.296l-3.899 4.996H0z" clip-rule="evenodd"></path> <path fill="#5BA6FF" d="M35.466 20.708l3.441 7.846 6.475-14.73h.172V0h-.988l-9.1 20.708z"></path> <path fill="#5BA6FF" d="M45.383 34.991V0h7.35v34.991zM14.7 34.99V0h7.35v34.99z"></path> <path fill="#5BA6FF" d="M37.158 32.55L22.866 0h-1.978l.287 13.825h.875l9.303 21.174h4.725l1.08-2.45zM60.082 0h23.893v7.35H60.082zm.011 27.649h23.893v7.35H60.093zm-.01-13.824h23.893v7.35H60.083zM118.286 35h9.333l-13.445-17.5L127.619 0h-9.333l-13.445 17.5L118.286 35z"></path> <path fill="#404040" d="M91.394 13.825h13.475v7.35H91.394z"></path> <path fill="#404040" d="M100.669 35h-9.333l13.504-17.5L91.336 0h9.333l13.504 17.5L100.669 35z"></path> </svg>