<svg viewBox="152 0 28 22.01" fill="none" xmlns="http://www.w3.org/2000/svg">
  <path fill-rule="evenodd" clip-rule="evenodd" d="M175.808 0.00180758L167.823 7.9384H162.069L158.35 4.29552C158.35 4.29552 158.352 4.28106 158.352 4.27202C158.352 3.61576 157.817 3.08605 157.158 3.08605C156.499 3.08605 155.965 3.61757 155.965 4.27202C155.965 4.87766 156.424 5.37302 157.014 5.44352L161.296 9.69927H168.516L175.808 2.47679L177.662 4.31902L169.378 12.5232L174.553 17.6955C174.593 18.3156 175.106 18.8092 175.739 18.8092C176.373 18.8092 176.933 18.2777 176.933 17.6232C176.933 16.9688 176.422 16.4644 175.783 16.4409L171.871 12.5521L180 4.4745V4.16535L175.81 0L175.808 0.00180758Z" fill="#0084B5"/>
  <path fill-rule="evenodd" clip-rule="evenodd" d="M173.797 11.4695C173.138 11.4695 172.604 12.001 172.604 12.6554C172.604 13.3099 173.122 13.8233 173.768 13.8396L177.658 17.6795L175.806 19.52L168.512 12.2993H164.419L157.154 19.52L155.302 17.6795L162.909 10.119H161.136L155.302 4.32112L157.154 2.4807L161.285 6.61351C161.296 7.25893 161.825 7.7796 162.477 7.7796C163.129 7.7796 163.67 7.24808 163.67 6.59363C163.67 5.98076 163.202 5.48359 162.603 5.42031L157.153 0.00390625L152.806 4.32293L159.527 11.0012L152.806 17.6814L157.153 22.0004L165.137 14.0656H167.819L175.804 22.0004L179.994 17.835V17.5277L174.976 12.5397C174.915 11.9413 174.413 11.4713 173.793 11.4713L173.797 11.4695Z" fill="#0084B5"/>
  <path fill-rule="evenodd" clip-rule="evenodd" d="M155.965 17.6177C155.965 18.274 156.499 18.8037 157.158 18.8037C157.776 18.8037 158.278 18.3354 158.339 17.7388L164.205 11.8831H169.472L175.819 5.54649C176.432 5.49768 176.917 4.99147 176.917 4.36956C176.917 3.71511 176.382 3.18359 175.723 3.18359C175.064 3.18359 174.542 3.70426 174.532 4.34968L168.698 10.1204H163.514L157.164 16.4317H157.16C156.501 16.4317 155.967 16.9633 155.967 17.6177H155.965Z" fill="#0084B5"/>
</svg>
