<svg width="48" height="48" viewBox="0 0 48 48" fill="none" xmlns="http://www.w3.org/2000/svg">
<g clip-path="url(#clip0_7302_1834)">
<path d="M29.04 0.572266L28.896 0.860266C33.888 3.02027 36.72 7.48427 36.72 12.3803C36.72 17.6603 33.264 22.4603 26.544 26.5403L25.44 27.2123C20.4 30.2843 17.856 33.7403 17.856 37.9163C17.856 43.2923 22.08 47.2283 27.888 47.2283C37.2 47.2283 48 37.2923 48 24.0443C48 21.8843 47.712 19.7723 47.184 17.7563L46.848 17.8523C46.992 18.9563 47.04 19.7723 47.04 20.5403C47.04 28.3643 42.624 35.0843 35.232 39.5483L34.512 39.9803C32.928 40.8923 31.584 41.4203 30.24 41.4203C28.464 41.4203 27.12 40.2683 27.12 38.5883C27.12 37.1483 28.08 35.7083 31.2 33.8843L32.112 33.3563C39.024 29.3243 42.864 23.6603 42.864 17.3723C42.864 9.40427 36.912 2.82827 29.04 0.572266ZM18.96 47.4683L19.104 47.1803C14.112 45.0203 11.28 40.5563 11.28 35.6603C11.28 30.3803 14.736 25.5803 21.456 21.5003L22.56 20.8283C27.6 17.7563 30.144 14.3003 30.144 10.1243C30.144 4.74827 25.92 0.812266 20.112 0.812266C10.8 0.812266 0 10.7483 0 23.9963C0 26.1563 0.288 28.2683 0.816 30.2843L1.152 30.1883C1.008 29.0843 0.96 28.2683 0.96 27.5003C0.96 19.6763 5.376 12.9563 12.768 8.49227L13.488 8.06027C15.072 7.14827 16.416 6.62027 17.76 6.62027C19.536 6.62027 20.88 7.77227 20.88 9.45227C20.88 10.8923 19.92 12.3323 16.8 14.1563L15.888 14.6843C8.976 18.7163 5.136 24.3803 5.136 30.6683C5.136 38.6363 11.088 45.2123 18.96 47.4683Z" fill="#4D3DFF"/>
</g>
<defs>
<clipPath id="clip0_7302_1834">
<rect width="48" height="48" fill="white"/>
</clipPath>
</defs>
</svg>
