<svg xmlns="http://www.w3.org/2000/svg" viewBox="0 0 180 180">
<path d="M0 0 C1.834 -0.004 3.668 -0.008 5.502 -0.013 C9.332 -0.02 13.162 -0.02 16.992 -0.015 C21.864 -0.009 26.735 -0.026 31.606 -0.049 C35.391 -0.064 39.175 -0.065 42.96 -0.062 C44.754 -0.062 46.548 -0.067 48.343 -0.078 C66.862 -0.17 84.036 1.882 98.043 15.301 C111.953 31.185 113.362 47.035 113.344 67.258 C113.348 69.092 113.352 70.926 113.357 72.76 C113.364 76.59 113.364 80.42 113.359 84.25 C113.353 89.122 113.37 93.993 113.393 98.864 C113.408 102.649 113.409 106.433 113.405 110.218 C113.406 112.012 113.411 113.806 113.421 115.6 C113.509 133.348 111.546 149 100.043 163.301 C99.383 163.301 98.723 163.301 98.043 163.301 C98.043 163.961 98.043 164.621 98.043 165.301 C82.406 179.218 66.139 180.619 46.086 180.602 C44.252 180.605 42.418 180.61 40.584 180.615 C36.754 180.622 32.924 180.622 29.094 180.616 C24.222 180.611 19.351 180.628 14.48 180.651 C10.695 180.666 6.911 180.666 3.126 180.663 C1.332 180.664 -0.462 180.669 -2.257 180.679 C-20.004 180.767 -35.656 178.804 -49.957 167.301 C-49.957 166.641 -49.957 165.981 -49.957 165.301 C-50.617 165.301 -51.277 165.301 -51.957 165.301 C-65.875 149.664 -67.276 133.397 -67.258 113.344 C-67.262 111.51 -67.266 109.676 -67.271 107.842 C-67.278 104.011 -67.278 100.181 -67.273 96.351 C-67.267 91.48 -67.284 86.609 -67.307 81.737 C-67.322 77.953 -67.323 74.169 -67.32 70.384 C-67.32 68.59 -67.325 66.795 -67.335 65.001 C-67.424 47.254 -65.46 31.602 -53.957 17.301 C-53.297 17.301 -52.637 17.301 -51.957 17.301 C-51.957 16.641 -51.957 15.981 -51.957 15.301 C-36.32 1.383 -20.053 -0.018 0 0 Z" fill="#00333A" transform="translate(66.95703125,-0.30078125)"/>
<path d="M0 0 C0.799 0.009 1.598 0.018 2.422 0.027 C3.025 0.039 3.628 0.051 4.25 0.062 C4.325 5.558 4.379 11.053 4.415 16.548 C4.43 18.413 4.45 20.278 4.476 22.143 C4.689 37.685 4.325 49.422 -6.754 61.191 C-14.157 68.382 -21.497 71.177 -31.75 71.062 C-31.9 64.874 -32.008 58.686 -32.08 52.496 C-32.11 50.395 -32.15 48.294 -32.203 46.194 C-32.561 31.399 -32.25 21.074 -21.938 9.625 C-15.606 3.791 -8.712 -0.128 0 0 Z" fill="#FBFCFC" transform="translate(101.75,72.9375)"/>
<path d="M0 0 C4.756 2.02 8.017 4.659 11.062 8.812 C12.783 14.662 12.881 19.705 10.312 25.312 C7.474 30.34 3.579 33.443 -2 35 C-7.879 35.675 -11.322 34.972 -16.168 31.531 C-20.194 28.167 -22.559 25.444 -23.512 20.164 C-23.878 13.699 -22.953 9.61 -18.801 4.621 C-13.017 -0.585 -7.541 -1.176 0 0 Z" fill="#F9FAFA" transform="translate(95,30)"/>
</svg>
