<svg viewBox="0 0 420 230" xmlns="http://www.w3.org/2000/svg">
 <g>
  <g>
   <g clip-path="url(#clip-path)">
    <path d="m110.81,38.26l0,13.09a6.37,6.37 0 0 0 6.37,6.37l28.92,0l0,87.25a6.37,6.37 0 0 0 6.37,6.37l15.66,0a6.37,6.37 0 0 0 6.37,-6.37l0,-87.25l28.92,0a6.37,6.37 0 0 0 6.37,-6.37l0,-13.09a6.38,6.38 0 0 0 -6.37,-6.38l-86.2,0a6.38,6.38 0 0 0 -6.37,6.38"/>
    <path d="m46.59,31.88l-40.65,0a5.94,5.94 0 0 0 -5.94,5.95l0,107.62a5.94,5.94 0 0 0 5.94,5.94l40.65,0c37.54,0 63.48,-26.11 63.48,-59.73l0,-0.34c0,-33.62 -25.94,-59.39 -63.48,-59.39m33.89,60.07c0,20.07 -13.62,33.55 -33.89,33.55l-18.22,0l0,-67.83l18.22,0c9.93,0 18.43,3.27 24.56,9.45s9.33,14.59 9.33,24.44l0,0.39z"/>
    <path fill="#62bb46" d="m369.14,45.25a13.37,13.37 0 0 1 -13.37,-13.37l-18.55,0a31.89,31.89 0 1 0 63.78,0l-18.5,0a13.36,13.36 0 0 1 -13.36,13.37" />
    <path fill="#008fd5" d="m369.14,0a31.88,31.88 0 0 0 -31.92,31.88l18.52,0a13.37,13.37 0 0 1 26.73,0l18.53,0a31.88,31.88 0 0 0 -31.89,-31.88" />
   </g>
   <g clip-path="url(#clip-path-2)">
    <path d="m289.32,28.95c-15.31,0 -27,6.27 -36.78,19.73l0,-10.39a6.41,6.41 0 0 0 -6.41,-6.41l-15.58,0a6.41,6.41 0 0 0 -6.41,6.41l0,106.68a6.37,6.37 0 0 0 6.37,6.37l15.71,0a6.37,6.37 0 0 0 6.37,-6.37l0,-14l0,0l0,-47c0,-17.69 10.37,-29.12 26.41,-29.12s25.05,10.44 25.05,28.67l0,47.47l0,0l0,14a6.37,6.37 0 0 0 6.37,6.37l15.66,0a6.37,6.37 0 0 0 6.37,-6.37l0,-69.86c0,-28.49 -16.48,-46.18 -43,-46.18"/>
   </g>
  </g>
 </g>
</svg>