<svg xmlns="http://www.w3.org/2000/svg" width="216" height="97" viewBox="0 0 216 97" fill="none">
<rect width="216" height="97" fill="#3B4B80"/>
<g clip-path="url(#clip0_435_9)">
<path d="M73.8026 61.857H69.5092V40.4678H73.7666V61.857H73.8026ZM73.8026 37.7794H69.5092V35.9521L73.7666 34.4116V37.7794H73.8026ZM85.1327 40.4673C85.2048 41.0048 85.2409 41.6138 85.277 42.2946C85.313 42.9752 85.313 43.5485 85.313 43.9784H85.4574C85.746 43.4052 86.1068 42.8677 86.5759 42.3662C87.0449 41.8646 87.5861 41.4346 88.1994 41.0406C88.8127 40.6823 89.4622 40.3598 90.1838 40.1448C90.9053 39.9299 91.663 39.8224 92.4568 39.8224C93.8639 39.8224 95.0544 40.0732 96.0647 40.539C97.0749 41.0048 97.9048 41.6137 98.5541 42.4021C99.2036 43.1902 99.7087 44.0859 100.033 45.1607C100.358 46.1997 100.502 47.3462 100.502 48.5286V61.7848H96.209V49.9974C96.209 49.1376 96.1368 48.3136 95.9925 47.5253C95.8483 46.7372 95.5956 46.0564 95.2349 45.4473C94.8741 44.8383 94.369 44.3725 93.7195 44.0142C93.0701 43.6559 92.2764 43.4769 91.2662 43.4769C89.5704 43.4769 88.1994 44.1217 87.117 45.4115C86.0347 46.7014 85.4935 48.3852 85.4935 50.5349V61.8923H81.2361V45.0891C81.2361 44.5159 81.2361 43.7635 81.2 42.8677C81.1639 41.972 81.1279 41.1838 81.0557 40.4673H85.1327V40.4673ZM117.063 61.857H112.445L103.678 40.4678H108.404L114.718 57.3069H114.826L121.176 40.4678H125.722L117.063 61.857V61.857ZM149.211 50.9984V51.715C149.211 51.9658 149.211 52.1808 149.175 52.4315H132.037C132.073 53.3273 132.29 54.1871 132.65 54.9753C133.011 55.7635 133.552 56.4443 134.166 57.0533C134.815 57.6266 135.537 58.0923 136.366 58.4148C137.217 58.7461 138.123 58.9162 139.036 58.9164C140.479 58.9164 141.742 58.5939 142.825 57.9849C143.871 57.34 144.701 56.5876 145.314 55.6919L148.309 58.0923C147.154 59.5971 145.783 60.7078 144.232 61.4243C142.681 62.1409 140.949 62.4991 139.036 62.4991C137.413 62.4991 135.897 62.2125 134.49 61.6751C133.083 61.1377 131.893 60.3853 130.883 59.3822C129.872 58.4148 129.078 57.2325 128.501 55.8352C127.924 54.4379 127.636 52.9332 127.636 51.2493C127.636 49.6011 127.924 48.0606 128.465 46.6633C129.043 45.266 129.8 44.0837 130.81 43.0806C131.82 42.0773 133.011 41.325 134.346 40.7517C135.717 40.1785 137.196 39.9277 138.747 39.9277C140.335 39.9277 141.778 40.1785 143.041 40.68C144.34 41.1817 145.423 41.934 146.324 42.9014C147.227 43.8687 147.912 45.0152 148.381 46.4125C148.959 47.7382 149.211 49.2787 149.211 50.9984V50.9984ZM144.846 49.2787C144.809 48.4189 144.665 47.6307 144.413 46.9141C144.159 46.1617 143.763 45.5527 143.294 44.9794C142.789 44.442 142.175 44.012 141.418 43.6896C140.66 43.3672 139.794 43.2238 138.82 43.2238C137.918 43.2238 137.052 43.3672 136.258 43.6896C135.465 44.012 134.743 44.442 134.166 44.9794C133.589 45.5168 133.083 46.1617 132.723 46.9141C132.361 47.6665 132.109 48.4547 132.073 49.2787H144.846ZM166.744 45.8765C166.275 45.0883 165.59 44.4433 164.687 43.9418C163.821 43.4402 162.811 43.1894 161.729 43.1894C161.26 43.1894 160.755 43.2253 160.286 43.3327C159.817 43.4402 159.384 43.6194 158.987 43.8343C158.59 44.0493 158.301 44.3359 158.085 44.6942C157.868 45.0525 157.76 45.4824 157.76 45.984C157.76 46.8797 158.157 47.5604 158.987 47.9903C159.817 48.4202 161.044 48.8144 162.667 49.1726C163.713 49.4234 164.652 49.7101 165.517 50.0325C166.383 50.355 167.177 50.7849 167.826 51.2865C168.476 51.7881 168.981 52.3613 169.342 53.0778C169.703 53.7586 169.883 54.5826 169.883 55.5141C169.883 56.7681 169.63 57.843 169.162 58.7028C168.692 59.5627 168.043 60.2792 167.213 60.8524C166.419 61.4258 165.482 61.8199 164.471 62.0348C163.425 62.2856 162.379 62.3931 161.296 62.3931C159.673 62.3931 158.049 62.0706 156.498 61.4616C154.946 60.8166 153.647 59.8493 152.601 58.5595L155.632 55.9799C156.209 56.8398 157.002 57.5205 158.013 58.0937C159.023 58.667 160.141 58.9536 161.369 58.9536C161.91 58.9536 162.451 58.9178 162.92 58.8103C163.425 58.7028 163.858 58.5237 164.291 58.3087C164.687 58.0579 165.012 57.7355 165.265 57.3772C165.517 56.9831 165.626 56.4815 165.626 55.8724C165.626 54.8692 165.157 54.1527 164.183 53.6511C163.244 53.1854 161.837 52.7196 159.961 52.2896C159.24 52.1105 158.482 51.8955 157.76 51.6447C157.002 51.394 156.353 51.0357 155.74 50.5699C155.127 50.1042 154.658 49.5667 154.261 48.886C153.863 48.2053 153.684 47.3812 153.684 46.3781C153.684 45.2316 153.9 44.2643 154.405 43.4043C154.874 42.5804 155.487 41.8996 156.245 41.3622C157.002 40.8248 157.868 40.4307 158.842 40.1799C159.817 39.9291 160.827 39.7857 161.837 39.7857C163.388 39.7857 164.868 40.0724 166.311 40.6815C167.755 41.2905 168.873 42.1504 169.666 43.2969L166.744 45.8765V45.8765ZM185.83 43.941H180.093V55.0476C180.093 56.3374 180.345 57.2689 180.815 57.8063C181.284 58.3438 182.077 58.6304 183.124 58.6304C183.52 58.6304 183.953 58.5945 184.386 58.5229C184.856 58.4512 185.252 58.3079 185.613 58.1646L185.757 61.6399C185.252 61.819 184.675 61.9624 184.061 62.0698C183.448 62.1773 182.799 62.2132 182.114 62.2132C180.093 62.2132 178.542 61.6399 177.459 60.5293C176.377 59.4186 175.836 57.7346 175.836 55.5134V43.941H171.686V40.4657H175.836V35.9156L180.057 34.375V40.4657H185.793V43.941H185.83ZM32.4203 61.8559H38.5899V41.8641L32.4203 46.1274V61.8558V61.8559ZM38.5899 34.375H32.4203V40.5016L38.5899 38.2443V34.375Z" fill="white"/>
<path d="M40.1406 34.375V37.707L49.3408 34.375H40.1405H40.1406Z" fill="#6AA666"/>
<path d="M55.5094 34.375H49.3399L40.5726 40.4657H49.3399V61.8549H55.5094V40.4657H64.7458V34.375H55.5094Z" fill="#6AA666"/>
</g>
<defs>
<clipPath id="clip0_435_9">
<rect width="153.409" height="28.1251" fill="white" transform="translate(32.4203 34.375)"/>
</clipPath>
</defs>
</svg>