<svg xmlns="http://www.w3.org/2000/svg" viewBox="0 0 152 153">
<path d="M0 0 C50.16 0 100.32 0 152 0 C152 50.49 152 100.98 152 153 C101.84 153 51.68 153 0 153 C0 102.51 0 52.02 0 0 Z" fill="#242526" transform="translate(0,0)"/>
<path d="M0 0 C4.29 0 8.58 0 13 0 C18.941 11.413 23.915 23.181 29 35 C33.62 23.45 38.24 11.9 43 0 C47.29 0 51.58 0 56 0 C56 0.66 56 1.32 56 2 C54.35 2 52.7 2 51 2 C51.495 22.295 51.495 22.295 52 43 C53.65 43.66 55.3 44.32 57 45 C57 45.99 57 46.98 57 48 C50.73 48 44.46 48 38 48 C38 47.01 38 46.02 38 45 C39.65 44.34 41.3 43.68 43 43 C43 32.11 43 21.22 43 10 C38.05 22.21 33.1 34.42 28 47 C27.01 47 26.02 47 25 47 C19.72 34.79 14.44 22.58 9 10 C9 21.55 9 33.1 9 45 C10.32 45 11.64 45 13 45 C13 45.99 13 46.98 13 48 C8.71 48 4.42 48 0 48 C0 47.01 0 46.02 0 45 C1.98 44.505 1.98 44.505 4 44 C4.33 30.14 4.66 16.28 5 2 C3.35 2 1.7 2 0 2 C0 1.34 0 0.68 0 0 Z" fill="#F5F5F5" transform="translate(86,52)"/>
<path d="M0 0 C4.375 -0.087 8.75 -0.141 13.125 -0.188 C14.362 -0.213 15.6 -0.238 16.875 -0.264 C18.074 -0.273 19.273 -0.283 20.508 -0.293 C21.608 -0.309 22.707 -0.324 23.84 -0.341 C28.556 0.168 31.825 1.98 35.375 5.062 C37.757 9.369 37.764 13.186 37 18 C34.801 22.48 32.499 24.863 28 27 C24.706 28.045 21.694 28.103 18.25 28.062 C17.265 28.053 16.28 28.044 15.266 28.035 C14.518 28.024 13.77 28.012 13 28 C13.006 30.442 13.053 32.872 13.125 35.312 C13.122 36.003 13.12 36.693 13.117 37.404 C13.145 39.707 13.145 39.707 14 43 C16.917 45.065 16.917 45.065 20 46 C20 46.33 20 46.66 20 47 C13.07 47 6.14 47 -1 47 C-1 46.34 -1 45.68 -1 45 C0.98 44.34 2.96 43.68 5 43 C5.33 29.47 5.66 15.94 6 2 C4.02 2 2.04 2 0 2 C0 1.34 0 0.68 0 0 Z" fill="#FAFAFA" transform="translate(47,52)"/>
<path d="M0 0 C6.6 0 13.2 0 20 0 C20 0.66 20 1.32 20 2 C17.69 2 15.38 2 13 2 C13.016 3.054 13.031 4.108 13.048 5.194 C13.102 9.128 13.136 13.062 13.165 16.996 C13.18 18.695 13.2 20.393 13.226 22.091 C13.263 24.541 13.28 26.991 13.293 29.441 C13.308 30.193 13.324 30.944 13.34 31.718 C13.342 36.873 12.406 40.419 10 45 C6.084 48.377 2.494 48.432 -2.562 48.438 C-4.513 48.467 -4.513 48.467 -6.504 48.496 C-10 48 -10 48 -12.441 46.168 C-14.516 43.283 -14.453 41.476 -14 38 C-13.34 37.34 -12.68 36.68 -12 36 C-9.375 36.375 -9.375 36.375 -7 37 C-6.856 38.134 -6.711 39.269 -6.562 40.438 C-6.388 43.808 -6.388 43.808 -5 45 C-0.807 45.44 -0.807 45.44 2.812 43.625 C5.589 39.825 5.224 36.03 5.316 31.492 C5.337 30.652 5.358 29.811 5.379 28.945 C5.445 26.255 5.504 23.565 5.562 20.875 C5.606 19.053 5.649 17.232 5.693 15.41 C5.801 10.94 5.902 6.47 6 2 C4.02 2 2.04 2 0 2 C0 1.34 0 0.68 0 0 Z" fill="#FBFBFB" transform="translate(24,52)"/>
<path d="M0 0 C9.643 0 9.643 0 15 3 C17.649 7.128 17.552 11.248 17 16 C15.185 20.265 14.284 20.858 10 23 C6.7 23 3.4 23 0 23 C0 15.41 0 7.82 0 0 Z" fill="#262728" transform="translate(60,54)"/>
<path d="M0 0 C0.33 0 0.66 0 1 0 C1 12.87 1 25.74 1 39 C1.66 39 2.32 39 3 39 C3.33 40.32 3.66 41.64 4 43 C5.32 43 6.64 43 8 43 C8 43.99 8 44.98 8 46 C3.71 46 -0.58 46 -5 46 C-5 45.01 -5 44.02 -5 43 C-3.02 42.505 -3.02 42.505 -1 42 C-0.67 28.14 -0.34 14.28 0 0 Z" fill="#BBBBBB" transform="translate(91,54)"/>
<path d="M0 0 C2.625 0.375 2.625 0.375 5 1 C5.33 3.31 5.66 5.62 6 8 C8.31 8.66 10.62 9.32 13 10 C12.67 10.66 12.34 11.32 12 12 C2.999 12.618 2.999 12.618 -0.625 10.375 C-2.378 7.347 -2.449 5.445 -2 2 C-1.34 1.34 -0.68 0.68 0 0 Z" fill="#F3F3F3" transform="translate(12,88)"/>
<path d="M0 0 C1.147 3.44 0.871 4.003 -0.434 7.23 C-0.912 8.434 -0.912 8.434 -1.4 9.662 C-1.743 10.495 -2.085 11.329 -2.438 12.188 C-2.776 13.032 -3.114 13.877 -3.463 14.748 C-4.3 16.836 -5.146 18.919 -6 21 C-6.99 20.67 -7.98 20.34 -9 20 C-7.443 15.117 -5.778 10.284 -3.938 5.5 C-3.456 4.247 -3.456 4.247 -2.965 2.969 C-2 1 -2 1 0 0 Z" fill="#EBEBEB" transform="translate(127,61)"/>
<path d="M0 0 C-0.99 1.485 -0.99 1.485 -2 3 C-4.602 3.293 -4.602 3.293 -7.625 3.188 C-9.129 3.147 -9.129 3.147 -10.664 3.105 C-11.82 3.053 -11.82 3.053 -13 3 C-13 2.01 -13 1.02 -13 0 C-11.397 -0.196 -9.792 -0.381 -8.188 -0.562 C-7.294 -0.667 -6.401 -0.771 -5.48 -0.879 C-3 -1 -3 -1 0 0 Z" fill="#B7B7B7" transform="translate(73,77)"/>
<path d="M0 0 C0.99 0 1.98 0 3 0 C3 0.99 3 1.98 3 3 C-3.27 3 -9.54 3 -16 3 C-16 2.67 -16 2.34 -16 2 C-10.72 2 -5.44 2 0 2 C0 1.34 0 0.68 0 0 Z" fill="#9B9B9C" transform="translate(140,97)"/>
<path d="M0 0 C1.033 2.788 1.045 3.868 0.062 6.75 C-0.288 7.493 -0.639 8.235 -1 9 C-1.99 8.67 -2.98 8.34 -4 8 C-3.401 5.648 -2.731 3.314 -2 1 C-1.34 0.67 -0.68 0.34 0 0 Z" fill="#E5E5E5" transform="translate(122,73)"/>
<path d="M0 0 C0.625 1.875 0.625 1.875 1 4 C0.34 4.66 -0.32 5.32 -1 6 C-1.66 6 -2.32 6 -3 6 C-1.125 1.125 -1.125 1.125 0 0 Z" fill="#EEEEEE" transform="translate(119,80)"/>
</svg>
