<svg xmlns="http://www.w3.org/2000/svg" viewBox="0 0 131.11 118.8">
  <defs>
    <linearGradient id="left" x1="0" y1="0" x2="0" y2="1">
      <stop offset="0" stop-color="#ff691e"/>
      <stop offset="1" stop-color="#fb9d20"/>
    </linearGradient>
    <linearGradient id="right" x1="0" y1="0" x2="0" y2="1">
      <stop offset="0" stop-color="#fb9d20"/>
      <stop offset="1" stop-color="#ff691e"/>
    </linearGradient>
  </defs>
  <path fill="#ffb81c" d="M5.14 72.6l9.08-47.88a7.9 7.9 0 0 1 5.26-6.1L67.25 2.02a1.62 1.62 0 0 1 2.11 1.82l-4.69 24.76a1.62 1.62 0 0 1-1.05 1.22l-26.51 9.26z"/>
  <path fill="url(#left)" d="M32.71 40.61C18.46 45.58 7.95 57.77 5.13 72.6a7.9 7.9 0 0 0 2.64 7.58l38.35 33.23a1.62 1.62 0 0 0 2.63-.92l4.75-25.06a1.62 1.62 0 0 0-.53-1.52L31.69 67.58l5.41-28.5z"/>
  <path fill="#ffb81c" d="m125.98 46.2-9.08 47.88a7.9 7.9 0 0 1-5.26 6.1l-47.76 16.59a1.62 1.62 0 0 1-2.11-1.82l4.69-24.76a1.62 1.62 0 0 1 1.05-1.22l26.51-9.26z"/>
  <path fill="url(#right)" d="M98.4 78.19c14.25-4.97 24.77-17.16 27.58-31.99a7.9 7.9 0 0 0-2.64-7.58L84.99 5.39a1.62 1.62 0 0 0-2.63.92l-4.75 25.06a1.62 1.62 0 0 0 .53 1.52l21.28 18.33-5.4 28.5z"/>
</svg>
