<svg viewBox="21.5 0 13.5 15" xmlns="http://www.w3.org/2000/svg">
  <path fill="#659AD2" d="M27.615 8.917c.144 0 .402.125.752.509 1.812 1.983 3.84 3.55 5.55 4.495.247.135.38.239.38.363 0 .094-.01.198-.226.198-.381 0-2.543-.426-3.11-.696-.566-.27-1.801-1.277-3.274-3.831-.165-.29-.34-.54-.34-.768s.206-.27.268-.27Z"/>
  <path fill="#632C00" d="M32.495 1.62s.361.716-3.12 1.204c.381-1.08.629-1.796.629-1.796.226-.644-.279-1.028-.639-1.028s-.618.28-.772.633l-1.03 2.388c-1.359.094-2.368.042-2.821 0-.628-.062-.793.291-.793.644 0 .623 1.092 1.266 1.792 1.194.442-.042.7-.063 1.06-.094l-3.851 8.866c-.144.333-.267.862.392.862s2.152-.612 2.399-1.318c.103-.302.875-2.482 1.73-4.932.422-.083 1.977-.322 2.419-.322.412 0 .618.187.618.405 0 .509-1.215 1.973-3.573 3.779-.258.198-.041.353.093.353.36 0 1.987-1.121 2.79-1.733.885-.675 2.42-2.419 2.42-3.655 0-.488-.217-.934-1.174-.934-.958 0-2.585.207-2.945.259.227-.654.453-1.297.67-1.9 1.822-.259 2.903-.415 3.541-.55.886-.187 1.586-.695 1.586-1.225 0-1.121-1.421-1.11-1.421-1.11Z"/>
</svg>
