<svg xmlns="http://www.w3.org/2000/svg" viewBox="0 0 210 184" role="img">
  <title>Kotak Neo</title>
  <path fill="#003974" d="M6.08 91.82C6.08 44.92 50.2 6.91 104.68 6.91s98.59 38 98.59 84.91-44.11 84.91-98.59 84.91S6.08 138.72 6.08 91.82"/>
  <path fill="#eb2027" d="m92.72 34.15 22.92-7.57.06 123.97-23.05 7.77.07-124.17"/>
  <path fill="#fff" d="M106.34 111.49c-9.97 12.02-19.6 24.32-37.6 24.32-25.45 0-37.54-24.65-37.54-45.24s9.43-43.25 34.21-43.25c10.76 0 21.13 6.58 27.24 13.55v16.81c-5.18-3.45-16.74-6.91-24.25-7.04-15.75-.27-29.56 6.58-29.36 22.12.2 10.7 10.76 18 21.26 18 16.14 0 25.91-14.75 34.08-25.98 2.26-2.92 8.7-11.56 9.7-12.89 9.1-12.69 19.6-24.32 37.6-24.32 21.19 0 33.15 17.14 36.54 34.75h-9.57c-3.85-5.71-11.23-9.23-18.6-9.23-16.68 0-26.64 15.35-34.95 26.71 0 0-6.51 8.84-8.84 11.69m68.49-11.17c-2.13 17.74-12.09 35.68-33.75 35.68-12.69 0-22.52-8.64-29.43-19.27v-12.29c8.57 4.25 16.61 8.84 26.31 8.97 11.96.2 22.79-4.45 27.31-13.09h9.57-.01Z"/>
</svg>
