<svg viewBox="0 0 146.5 146.5" xmlns="http://www.w3.org/2000/svg"><circle cx="73.25" cy="73.25" fill="#0080ca" r="73.25"/><g fill="#fff"><ellipse cx="92.63" cy="72.54" rx="10.21" ry="10.33"/><path d="m120.54 87.8-.3-.47-.08-.13c-1.12-1.76-1.46-2.13-2-2.94-7.47-11.5-3.2-18.89.16-22.66.41-.46.79-1 1.14-1.42a9.86 9.86 0 0 0 1.31-1.94l.06-.1a9.46 9.46 0 0 0 1-4.37 10 10 0 0 0 -19.92 0 9.81 9.81 0 0 0 1.22 4.74c.12.24.69 1 .75 1.13a3.31 3.31 0 0 0 .42.53 13 13 0 0 0 1.12 1.22 19.92 19.92 0 0 1 2.58 3.61 17.76 17.76 0 0 1 -1.75 18.44l-2.48 3.56a3.62 3.62 0 0 0 -.22.32l-.06.08a9.66 9.66 0 0 0 -1.49 5.33 10 10 0 0 0 19.92 0 9.72 9.72 0 0 0 -1.35-4.93z"/><path d="m81.87 87.8-.29-.47-.09-.13c-1.12-1.76-1.46-2.13-2-2.94-7.47-11.5-3.2-18.89.16-22.66.41-.46.79-1 1.14-1.42a9.86 9.86 0 0 0 1.31-1.94l.06-.1a9.75 9.75 0 0 0 1-4.37 10 10 0 1 0 -18.7 4.74c.12.24.69 1 .75 1.13a3.31 3.31 0 0 0 .42.53 13 13 0 0 0 1.12 1.22 20 20 0 0 1 2.61 3.61 17.77 17.77 0 0 1 -1.7 18.44 20 20 0 0 1 -2 2.41l-.17.17a20 20 0 0 1 -3.64 2.61c-10.42 4.97-18.85-1.9-18.85-1.9l-.85-.7a6.72 6.72 0 0 1 -1.59-1.77c-7.47-11.5-3.2-18.89.16-22.66.41-.46.79-1 1.14-1.42a9.86 9.86 0 0 0 1.31-1.94l.06-.1a9.61 9.61 0 0 0 1.05-4.37 10 10 0 0 0 -19.92 0 9.81 9.81 0 0 0 1.22 4.74c.12.24.69 1 .75 1.13a3.31 3.31 0 0 0 .42.53 13 13 0 0 0 1.12 1.22 19.92 19.92 0 0 1 2.56 3.61 17.76 17.76 0 0 1 -1.75 18.44l-1.27 1.8a10 10 0 0 0 -3.09 7.23v.23a10 10 0 0 0 17.06 6.9c.49-.34.81-.58 1.26-.87 11.5-7.47 18.89-3.2 22.67.16.3.27.62.53.94.77a10 10 0 0 0 17-7 9.72 9.72 0 0 0 -1.35-4.93z"/></g></svg>