<svg width="256" height="256" viewBox="0 0 986 932" fill="none" xmlns="http://www.w3.org/2000/svg">
  <title>Lime Trader</title>
  <path d="M0 718C310 638 580 390 790 25C635 403 364 654 58 734C260 948 652 946 851 700C960 564 998 368 931 181C1004 355 982 572 861 727C649 997 241 995 0 718Z" fill="#309423"/>
  <path d="M115 750C190 721 260 683 334 635V811C251 802 175 782 115 750Z" fill="#86CB24"/>
  <path d="M385 600C456 548 521 488 585 425V831C517 849 451 858 385 852V600Z" fill="#86CB24"/>
  <path d="M637 367C712 276 779 170 837 45V669C782 738 715 786 637 814V367Z" fill="#86CB24"/>
</svg>
