<svg viewBox="0 0 396.69 394.67" xmlns="http://www.w3.org/2000/svg"><path d="m126.05 0a13.87 13.87 0 0 0 -13.91 13.84v58.1a21.34 21.34 0 0 0 21.4 21.29h41.75a21.36 21.36 0 0 1 21.42 21.3v63.14a21.36 21.36 0 0 0 21.41 21.33h63.48a21.35 21.35 0 0 1 21.4 21.28v41.52a21.34 21.34 0 0 0 21.41 21.31h58.35a13.88 13.88 0 0 0 13.92-13.85v-255.39a13.88 13.88 0 0 0 -13.9-13.87zm-15.35 269.82v-132.49a21.34 21.34 0 0 0 -21.37-21.33h-75.41a13.88 13.88 0 0 0 -13.92 13.87v251a13.9 13.9 0 0 0 13.92 13.85h256.72a13.87 13.87 0 0 0 13.91-13.85v-68.44a21.35 21.35 0 0 0 -21.41-21.3h-131a21.36 21.36 0 0 1 -21.41-21.3" fill="#0090ff"/></svg>