<svg version="1.1" id="Layer_1" xmlns:x="ns_extend;" xmlns:i="ns_ai;" xmlns:graph="ns_graphs;" xmlns="http://www.w3.org/2000/svg" xmlns:xlink="http://www.w3.org/1999/xlink" x="0px" y="0px" viewBox="0 0 162.6 151.4" style="enable-background:new 0 0 162.6 151.4;" xml:space="preserve">
 <style type="text/css">
  .st0{fill:#001EFF;}
 </style>
 <metadata>
  <sfw xmlns="ns_sfw;">
   <slices>
   </slices>
   <sliceSourceBounds bottomLeftOrigin="true" height="151.4" width="162.6" x="0" y="38.2">
   </sliceSourceBounds>
  </sfw>
 </metadata>
 <path class="st0" d="M148.9,128.4v9.7c-4.6-1-8.9-1.6-13.1-1.6c-4.6,0-8.9,0.7-13.2,2c-3.7,1.2-6.8,2.6-9.5,3.9
	c-3.5,1.7-6.3,3-8.9,3c-0.7,0-1.3-0.1-1.9-0.3v-9.7c0.6,0.1,1.3,0.2,1.9,0.2c2.9,0,5.9-1.4,9.4-3.1c3.9-1.8,8.4-4,14.4-5.1l-0.2-1.1
	c-1.7,0.3-3.4,0.7-5.1,1.3c-3.7,1.2-6.8,2.6-9.5,3.9c-3.1,1.5-5.7,2.7-8.1,2.9v-1.3c0-0.8-0.3-2.1-3.4-2.1s-6.5,2-6.5,4.3v2.8
	c-3.8,1.1-10,1.7-13.8,1.7c-2,0-5.3-0.3-8.6-0.7c-2.1-0.3-3.9-0.6-5.2-1v-2.8c0-2.3-3.4-4.3-6.5-4.3c-3.1,0-3.4,1.3-3.4,2.1v1.3
	c-2.4-0.2-5-1.5-8.1-2.9c-4-1.9-8.6-4.1-14.7-5.2l-0.1,1.1c5.9,1.1,10.4,3.2,14.3,5.1c3.5,1.7,6.5,3.1,9.4,3.1
	c0.7,0,1.3-0.1,1.9-0.2v9.7c-0.6,0.2-1.3,0.3-1.9,0.3c-2.6,0-5.4-1.3-8.9-3c-5.5-2.6-12.4-5.9-22.7-5.9c-4.1,0-8.5,0.6-13,1.6v-9.7
	c2.5-0.6,5.1-1,7.7-1.3c0.7,0.7,1.3,0.9,1.3,0.9c0-0.3,0-3.2,0.1-2.8c0.1,0.4,0.7,1.4,0.7,1.4c0.2,0.3,1.4,2.1,2.5,2
	c0.8-0.1,1-0.5,1.1-0.7l0-0.1c-0.4-0.7-0.4-1.2-0.4-1.2c-0.2-2,1.4-2.2,2.6-1.2c1.3,1.1,1.7,0.4,1.7,0.4c-1.5-2.6,0.5-2.7,0.5-2.7
	c0-2.2,1.1-1.8,1.1-1.8c-0.1-0.6-0.6-1-1.6-1.1c-1,0-2.9,1.3-3.2,1.4s-0.9-0.5-0.9-0.5c-1.5-1.9-1.2-4.4-1.2-4.4
	c1.4-1.8,2.1-3.8,2.1-3.8c-1.2-1.7-0.9-3.6-0.9-3.6c1.7,4.4,3.8,3.9,3.8,3.9c-0.9-4.1,0.9-7.4,1.6-8.6c0.4-0.8-0.2-2.4-0.6-3.6
	c0,0-0.9-2-1-2.8s-0.3-2,0.9-3.5l0,0.1c-0.1,0.5-0.1,1,0,1.9s0.6,2.2,1,2.9c0.2,0.4,0.4,0.8,0.7,1.1c4,1.8,7.2,2.1,7.2,2.1
	c0.5,1.5,0,4.8-0.2,5.6c-0.1,0.8-0.2,1.9-0.2,1.9c-0.1,0.6,0,2.3,1,2.4s1.8,0.8,2.2,2.1s1.5,1.8,1.5,1.8c-0.3-0.7,0-1.4,0-1.4
	c1,2.8,5.8,2.6,5.8,2.6c-0.9-0.8-1.3-1.9-1.3-1.9c2.7,2.6,5.5,0.4,5.5,0.4c-1.1-0.6-1.4-1.8-1.4-1.8c3.7,2.1,4.8-1.3,4.8-1.3
	c-1-0.2-1.2-1-1.2-1c1.3,0.4,1.6-0.2,1.6-0.2c-0.6-1.5,0.4-2.2,0.4-2.2c1.8-1.6,0.8-2.9,0.8-2.9c-2.1,0.2-2.1-2.1-2.1-2.1
	c-0.8-0.3-1.9,0.5-1.9,0.5c1-1.4,0.4-2,0.4-2c-2.3,0.3-2.3-1.4-2.3-1.4c-1-0.1-1.3,0.6-1.4,1.2s-0.1,2.2,0.4,3.3s0,2.5,0,2.5
	c-3.6-1.9-6.7-1.6-6.7-1.6l0.5-1.9c-1.4-2.1-1.2-2.8-1.2-2.8c2.1,2.9,4.3,2.7,4.3,2.7l0.2,0h0c-1.9-0.8-2.1-5.8-4.2-8
	c-1.1-1.2-3.3-2-4.9-2.3c-5.5-1-5.8-4.1-5.8-4.1l0,0c2-2.9,6.6-6.1,6.6-6.1c-0.4-0.4-1-2-1-2c-1.9,0.1-2.8-0.5-2.8-0.5
	c-2.7-1.7-1.7-3.8-1.7-3.8c0,0.3,0.5,2.3,2.3,3c1.8,0.7,2.9-0.1,2.9-0.1s-0.2,0.2,0.3,1.5c0.5,1.3,2.5,3.7,2.5,3.7
	c1.8-1.8,1.2-4.8,1.2-4.8c0.7,0.7,5,4.4,5,4.4c-0.3,0-2.2,0.2-2.2,0.2c-1.6,0.3-1.1,1.3-1.1,1.3c0.4-0.2,1-0.2,1.3,0.4
	c0.3,0.6,0,1.5,0,1.5c0.4,0.6,0.8,0.4,1.6-0.2s2-0.4,2.3-0.3s0.3,0.4,0.4,0.6c0.2,0.3,0.9,0.8,0.6,1.2C53,91.8,53,92.4,53,92.4
	s-0.4,0.4-0.5,0.9s0.2,0.9,0.7,1.5s1.1,0.2,1.1,0.2c0.1-0.1,0.7-0.5,1.1,0c0.5,0.6,0.1,1.6,0.1,1.6c0.4,0.3,1-0.1,1.1-0.2
	s0.7-0.5,1.2-0.4s0.6,1.2,0.6,1.2c0.8-0.4,1.1-1,1.1-1c0.7-1.3-0.3-3.2-0.6-3.6s-0.5-0.6-0.7-1s-0.4-1.3-0.7-2.1
	c-0.1-0.3-0.3-0.6-0.5-0.9v-3.4h20v17.1h-20c-1,1-0.4,1.6-0.7,2.4c0.4-0.1,0.6-0.2,1.1-0.2c1.4-0.8,4.4-2.2,6.3,1.1
	c-1.1,0.2-2.5,0.3-3.5,1.1c0.3,0.7,0.3,1.8,0.2,2.5h16.7v23.8c-5.3-1.9-9.8-5.3-13.2-9.9c-2.2-3-3.8-6.4-4.9-10.3
	c-0.3,0.3-0.6,0.5-1,0.5c1.2,3.9,2.9,7.3,5,10.3c4.4,6,10.6,10,18.1,11.6l0.1,0l0.1,0c7.5-1.5,13.8-5.5,18.1-11.6
	c2.2-3,3.9-6.5,5-10.3c-0.3,0-0.7-0.3-1-0.5c-1.1,3.8-2.8,7.3-5,10.3c-3.3,4.6-7.9,8-13.2,9.9V109h16.7c-0.1-0.7-0.1-1.8,0.2-2.5
	c-1-0.8-2.4-0.9-3.5-1.1c1.8-3.3,4.9-1.9,6.3-1.1c0.5,0,0.7,0.1,1.1,0.2c-0.3-0.8,0.3-1.4-0.7-2.4h-20V85.1h20v3.4
	c-0.2,0.3-0.4,0.7-0.5,1l-0.7,2.1c-0.2,0.4-0.4,0.6-0.7,1s-1.3,2.3-0.6,3.6c0,0,0.3,0.7,1.1,1c0,0,0.1-1,0.6-1.2s1.1,0.3,1.2,0.4
	s0.7,0.5,1.1,0.2c0,0-0.5-1,0.1-1.6c0.4-0.5,1-0.1,1.1,0c0,0,0.6,0.4,1.1-0.2s0.7-1,0.7-1.5s-0.5-0.9-0.5-0.9c0-1.2-0.6-1.3-0.1-2
	c0.8-0.9,0.4-1,0.9-1.2c0.3-0.1,1.6-0.3,2.3,0.3s1.1,0.8,1.6,0.2c0,0-0.3-0.9,0-1.5c0.3-0.7,0.9-0.6,1.3-0.4c0,0,0.5-1-1.1-1.3
	c0,0-1.9-0.2-2.2-0.2l5-4.4c0,0-0.6,3,1.2,4.8c0,0,2-2.4,2.5-3.7c0.5-1.3,0.3-1.5,0.3-1.5s1.1,0.8,2.9,0.1c1.8-0.7,2.3-2.7,2.3-3
	c0,0,0.9,2.2-1.7,3.8c0,0-0.9,0.6-2.8,0.5c0,0-0.6,1.6-1,2c0,0,4.7,3.2,6.6,6.1l0,0c0,0-0.3,3.1-5.8,4.1c-1.6,0.3-3.8,1.1-4.9,2.3
	c-2,2.2-2.3,7.2-4.2,8h0l0.2,0c0,0,2.2,0.2,4.3-2.7c0,0,0.2,0.8-1.2,2.8l0.5,1.9c0,0-3.1-0.3-6.7,1.6c0,0-0.6-1.4-0.1-2.5
	s0.5-2.7,0.4-3.3s-0.4-1.3-1.4-1.2c0,0,0,1.7-2.3,1.4c0,0-0.6,0.6,0.4,2c0,0-1.1-0.8-1.9-0.5c0,0,0,2.4-2.1,2.1c0,0-1,1.2,0.8,2.9
	c0,0,1,0.7,0.4,2.2c0,0,0.3,0.6,1.6,0.2c0,0-0.2,0.8-1.2,1c0,0,1.1,3.4,4.8,1.3c0,0-0.3,1.2-1.4,1.8c0,0,2.8,2.2,5.5-0.4
	c0,0-0.4,1.1-1.3,1.9c0,0,4.8,0.2,5.8-2.6c0,0,0.3,0.8,0,1.4c0,0,1.1-0.5,1.5-1.8s1.2-2,2.2-2.1s1.1-1.8,1-2.4c0,0-0.1-1.1-0.2-1.9
	s-0.6-4.1-0.2-5.6c0,0,3.2-0.3,7.2-2.1c0,0,0.3-0.5,0.7-1.1s0.9-1.9,1-2.9s0.1-1.5,0.1-1.9l0-0.1c1.2,1.5,1,2.7,0.9,3.5
	s-1,2.8-1,2.8c-0.4,1.1-1.1,2.8-0.6,3.6c0.7,1.2,2.4,4.5,1.6,8.6c0,0,2.1,0.5,3.8-3.9c0,0,0.3,1.9-0.9,3.6c0,0,0.7,2,2.1,3.8
	c0,0,0.2,2.5-1.2,4.4c0,0-0.5,0.6-0.9,0.5s-2.3-1.4-3.2-1.4c-1,0-1.5,0.5-1.6,1.1c0,0,1.1-0.3,1.1,1.8c0,0,1.9,0.1,0.4,2.7
	c0,0,0.4,0.7,1.7-0.4c1.2-1,2.8-0.8,2.6,1.2c0,0,0,0.5-0.4,1.2l0,0.1c0.1,0.2,0.3,0.6,1.1,0.7c1.1,0.2,2.3-1.7,2.5-2
	c0,0,0.6-1,0.7-1.4c0.1-0.4,0.1,2.5,0.1,2.8c0,0,0.7-0.2,1.3-0.9C143.8,127.4,146.4,127.8,148.9,128.4L148.9,128.4z M97.2,143.9v4.1
	c-1.4,0.7-3.9,1.3-7.3,1.8c-3.3,0.4-6.6,0.6-8.6,0.6s-5.3-0.2-8.6-0.6c-3.4-0.5-5.9-1.1-7.3-1.8v-9.3c3.9,1.7,12.2,2.2,15.9,2.2
	s12-0.5,15.9-2.2V143.9z M29.8,79.8c-0.8,0.3-1.6-0.2-2.1-0.8c-0.2,0.1-0.8,0.4-1.4,0.4c-1,0-1.6-0.7-2-1.6c-1.4,0.7-3-0.7-2.7-2.2
	c-1.4,0.1-2.3-1.5-1.8-2.7c-0.3,0-1-0.2-1.3-1.2c-0.3-0.6-0.1-1.4,0.3-1.9c-0.3-0.2-1.1-0.7-1.2-1.7c0-1,0.4-1.8,0.9-2.2
	c-0.5-0.4-3.1-2.8-3.3-6.4c0,0,0-0.2,0-0.3c0,0,0.1-0.5,0.1-0.5c0.6,2.7,2,5.5,4.3,7.1c-0.7,0.4-1.1,1.1-1.1,2c0,1,0.6,1.5,1.2,1.6
	c-0.6,1.1-0.3,2-0.3,2.1c0.2,0.6,0.6,0.9,1.2,0.7c-0.4,1.1,0.1,2,0.2,2.1c0.3,0.6,0.7,0.7,1,0.7c0.1,0,0.3,0,0.4-0.1
	c-0.1,1.1,0.8,2.2,1.8,2.2c0.2,0,0.5-0.1,0.7-0.2c0.2,0.6,0.7,1.2,1.2,1.3c0.1,0,1.2,0.4,1.9-0.5c0.4,0.6,0.9,1,1.4,1
	c0.5,0,1.3,0.2,2.1-1.3C31.7,78.8,30.5,79.5,29.8,79.8L29.8,79.8z M31.5,70.6l-2.5-2.4c0.1-0.2,0.3-0.4,0.5-0.7l-0.4-0.3
	c-0.2,0.2-0.3,0.4-0.5,0.6l-1-1c0.3-0.4,0.7-0.9,1.2-1.5l1.3,1.4c0.6-0.6,1.2-1.2,1.8-1.8c0.3-0.3,0.6-0.5,0.8-0.8l-0.4-0.4
	c-0.3,0.3-0.6,0.5-0.8,0.8l-0.9-1.1c0.7-0.6,1.3-1.2,2-1.8l1.2,1.6c1-0.8,2-1.6,3.1-2.4l-0.3-0.4c-0.4,0.3-0.7,0.5-1.1,0.8l-0.8-1.2
	c0.7-0.5,1.4-1,2.2-1.5l1.1,1.7c1.2-0.8,1.9-1.2,3.1-1.8L40.8,58c-0.3,0.1-0.6,0.3-0.9,0.5l-0.6-1.3c0.7-0.4,1.3-0.7,1.9-0.9
	l2.5,5.1C38.6,63.7,34.3,67.6,31.5,70.6L31.5,70.6z M62.6,78.8l4-6.3c-0.9-0.7-1-2-0.3-2.9c0.7-0.9,2-1,2.9-0.3
	c0.3,0.2,0.5,0.6,0.6,0.9h10.4v0c0-0.6,0.5-1.1,1.1-1.1c0.6,0,1.1,0.5,1.1,1.1v0h10.4c0.3-0.8,1.1-1.4,1.9-1.4c1.1,0,2,0.9,2,2
	c0,0.6-0.3,1.2-0.7,1.6l4,6.3c0.2,0.3,0.3,0.6,0.3,0.9c0,1.8-2.5,3.2-5.6,3.2s-5.6-1.4-5.6-3.2c0-0.4,0.1-0.7,0.3-0.9l4-6.3
	c-0.3-0.3-0.6-0.6-0.7-1c-2.7,0-3.9,0.3-5.4,1.5c-1.5-1.1-2.7-1.4-5.2-1.5c0.3,1.1,0.8,2.3,1.4,3c-0.9,1.2-1.5,1.9-2.3,3.6
	c-0.8-1.7-1.4-2.4-2.3-3.6c0.6-0.8,1.1-1.9,1.4-3c-2.5,0-3.7,0.4-5.2,1.5c-1.6-1.2-2.8-1.4-5.4-1.5c-0.1,0.4-0.3,0.8-0.7,1l4,6.3
	c0.2,0.3,0.3,0.6,0.3,0.9c0,1.8-2.5,3.2-5.6,3.2s-5.6-1.4-5.6-3.2C62.3,79.3,62.4,79,62.6,78.8L62.6,78.8z M121.5,56.3
	c0.6,0.2,1.2,0.5,1.9,0.9l-0.6,1.3c-0.3-0.2-0.6-0.3-0.9-0.5l-0.2,0.5c1.2,0.6,1.9,1,3.1,1.8l1.1-1.7c0.7,0.5,1.5,1,2.2,1.5
	l-0.8,1.2l-1.1-0.8l-0.3,0.4c1.1,0.8,2,1.5,3.1,2.4l1.2-1.6c0.7,0.6,1.3,1.2,2,1.8l-0.9,1.1c-0.3-0.3-0.6-0.5-0.8-0.8l-0.4,0.4
	c0.9,0.8,1.8,1.7,2.6,2.6l1.3-1.4c0.5,0.6,0.9,1.1,1.2,1.5l-1,1c-0.1-0.2-0.3-0.4-0.5-0.6l-0.4,0.3c0.2,0.2,0.4,0.4,0.5,0.7
	l-2.5,2.4c-2.7-3-7-6.9-12.2-9.2L121.5,56.3z M131.4,77.6c0.4,0.8,0.7,1.3,2.1,1.3c0.4,0,1-0.2,1.4-1c0.1,0.1,0.6,0.8,1.9,0.5
	c0.4-0.1,0.9-0.4,1.2-1.3c0.2,0.1,0.4,0.2,0.7,0.2s0.7-0.1,1.2-0.5c0.6-0.6,0.7-1.3,0.7-1.7c0.2,0.1,0.2,0.1,0.4,0.1
	c0.3,0,0.7-0.1,1-0.7c0.4-0.6,0.4-1.4,0.2-2.1c0.6,0.2,1-0.1,1.2-0.7c0.2-0.6,0.2-1.3-0.3-2.1c1.1-0.1,1.2-1.2,1.2-1.6
	c0-0.1,0.1-1.4-1.1-2c2.3-1.7,3.7-4.4,4.3-7.1c0,0,0.1,0.5,0.1,0.5c0.3,1.1-0.9,4.6-3.3,6.7c0.4,0.4,0.9,1.2,0.9,2.2
	c0,0.9-0.9,1.5-1.2,1.7c0.5,0.5,0.6,1.3,0.3,1.9c-0.3,1-1.1,1.1-1.3,1.2c0.3,0.7,0.2,1.4-0.2,2c-0.3,0.5-0.9,0.8-1.5,0.7
	c0.2,1.1-0.6,2.4-1.9,2.4c-0.3,0-0.5-0.1-0.8-0.2c-0.7,1.7-2.1,2-3.4,1.2C133.3,81,130.9,79,131.4,77.6L131.4,77.6z M33.2,46.8
	c0.2-0.1,0.4-0.2,0.6-0.2c-0.1,0.1-0.2,0.3-0.2,0.4c0,0.4,0.3,0.7,0.7,0.7c0.4,0,0.7-0.3,0.7-0.7c0-0.1,0-0.2-0.1-0.4
	c0.2,0.1,0.4,0.1,0.7,0.3c0.3,0.2,1,0,1,0l0,0c0,0-1.9,3.1-4,0.3C32.5,47.2,33.2,46.8,33.2,46.8z M126.2,47L126.2,47
	c0,0,0.6,0.1,0.9-0.1c0.2-0.1,0.5-0.2,0.7-0.3c-0.2,0.3-0.1,0.7,0.2,0.9c0.1,0.1,0.2,0.1,0.4,0.1c0.4,0,0.7-0.3,0.7-0.7
	c0-0.2-0.1-0.3-0.2-0.4c0.3,0.1,0.5,0.2,0.6,0.2l0.7,0.5C128.1,50,126.2,47,126.2,47L126.2,47z M162.6,87.3
	c-1.5,0.7-2.4-1.9-4.1-2.8c-0.8-0.4-1.7-0.6-2.7-0.6c0,0-3.1-0.1-5.1,2.3c0,0-2.2,2.5-1.3,5.9c0,0,0.4,2,1.8,5.3
	c0,0,1.3,2.9,1.2,5.4s-0.7,4.7-2.9,5.1c0,0-1.7,0.3-3.4-2.2c0,0-1.8-2.8-2.7-6.2c0,0-1.3-5.2-2.2-7c0,0-0.7-1.6-1.2-2.3
	c0,0-1.2-0.1-2.2-0.6s-1.5-1-1.5-1s-0.3,1.5-1.6,2.4c0,0-4.4-1.2-3.4-5.7c0,0,0.2,3.5,3.4,4.5c0,0,1-1.5,1.3-3c0,0,1.7,2.3,4.4,2.6
	c0,0,0.8-1,0.9-3.2c0,0,1.9,1.3,4.4,0.8c0,0,0.9-1.6,0.2-4.8c0,0,2.3,0.7,4.4-0.4c0,0,0.8-0.4,1.3-0.9c0,0-0.3-0.5-1.3-1.4
	c-0.9-1-1.6-1.6-2.2-1.9c0,0,3.1,0.9,5.6,0.2c2.5-0.7,3.6-2.8,3.8-3.3c0,0-3.3-0.3-6.3-2.1c0,0,4.6-0.4,7.8-4.8c0,0,1.3-1.9,1.8-3.3
	c0,0-3.3,0.9-7.1,0.3c0,0,7.6-1.5,7.3-8.3c0,0-1.2,1.5-5,1.9c0,0,6.4-7,3.3-12.7c0,0-0.3,3.3-4.1,6.4c0,0,2.8-6.1,1-11.9
	c0,0-0.6-2.2-1.8-3.3c0,0,0.1,2.2-1.1,4.9s-2.5,4.8-2.7,5c0,0,0.3-3.6-0.8-6c0,0-0.5-1.3-1.8-2.1c0,0,0.4,7.7-6,17.8
	c0,0-2.6,4.2-2.9,5.4c-0.3,1.3-0.8,2.9,0.7,5.6s-1.6,5.6-2.7,6.1s-4.3,1.8-5.9-2.1l-0.1-0.2l0.1,0.1l4.7-4.4c-0.6-0.9-1-1.4-1.8-2.3
	c0.9-1.9,1.1-3.6,1.1-3.6s0.4,1.3,1.4,1.9c0,0,1.1-1.9,0.8-4.8c0,0-0.2-1.7-0.6-2.5c0,0,0.9,0.2,1.6-0.3c0,0-0.4-3-1.3-4.4
	s-2.2-2.2-2.2-2.2s2.8,0.2,4.7-2.2c0,0,0.9-1.2,0.8-2c0,0-0.7,0.5-2.4,0.5c0,0,2.1-0.6,3.1-2.3s0.6-3.9,0.5-4.3c0,0-3.4,4.2-8.7,4.9
	c0,0,1.4-0.6,2.2-1.3c0,0-0.1-3.7-2.1-4.4c0,0,0.4,1.1-0.4,2.4c0,0-0.6,1.2-2.2,2.9c0,0-0.4,0.4-0.5,0.7c0,0-1.5,0-2.3-0.2
	s-1.9-0.6-2.7-0.4c0,0-1,0.3-1.4,1.2c0,0-2.9-1.2-4.3,1c-1,1.6-0.2,3.3-0.2,3.3s0.2-1.1,1.8-1.4c0,0,1-0.2,1.8,0.7c0,0,1,1.4,2,1.8
	c0.7,0.3,1.5,0.4,2.3,1c0,0,0.8,0.6,1.2,1.2c0.1,0.1,0.1,0.2,0.2,0.3c0,0-0.7-0.2-2.1,0s-1.6,0.4-2.2,0.5s-1.2,0.2-1.7,0
	c0,0-0.7-0.2-1.4-0.8c0,0-0.3,2.4,1.6,3.2c0,0,1,0.5,3,0c0,0,0.9-0.3,1-0.3c0,0,1.6,0.7,2.6,0.7c1,0,1.8-0.2,2.7-1.2
	c0,0,0.6-0.9,0.4-1.8c0,0-0.1-0.5-0.1-0.6c0,0,1,1,0.4,2.9c0,0-0.6,1.9-3.2,1.7c0,0-0.6,0-1.5-0.2c0,0-2,0.7-4,1.7L124,57
	c-1-0.6-1.6-0.9-2.8-1.4l-2.9,5.9c-0.5,0.1-1.5,0.4-2.1,0.6c-0.6,0.2-3.8,1.4-5.6,4c0,0,1.2-0.4,2.7-0.1c0,0-3.8,1-4.6,3.3
	s0.5,4.5,0.5,4.5s0.4-3.1,2.7-3.8c0,0-2.5,3.2-0.9,7.6c0,0,1.4-2,4.7-1.7c0,0-2.6,2.6-4,5.3c-1.3,2.7-3.7,4.4-4.2,4.9
	c-0.2,0.2-0.6,0.6-1,1.1V63.8h-14c-2.7,0-4.9,0.7-6.3,1.2c-1.7,0.6-2.7,1.6-5.1,2.7s-4.5,1-4.5,1c-3.7-0.3-5.5-3.2-5.5-3.2
	s-0.8-1.1-1-1.6H56.1v23.4c-0.5-0.5-0.9-0.9-1-1.1c-0.4-0.4-2.8-2.2-4.2-4.9c-1.3-2.7-4-5.3-4-5.3c3.3-0.3,4.7,1.7,4.7,1.7
	c1.6-4.4-0.8-7.6-0.8-7.6c2.3,0.7,2.7,3.8,2.7,3.8s1.3-2.2,0.5-4.5S49.3,66,49.3,66c1.5-0.3,2.7,0.1,2.7,0.1c-1.7-2.6-5-3.8-5.6-4
	c-0.6-0.2-1.6-0.5-2.1-0.6l-2.9-5.9c-1.1,0.5-1.7,0.7-2.8,1.4l0.6,1.3c-1.3-0.7-2.6-1.2-4-1.7c-0.9,0.2-1.5,0.2-1.5,0.2
	c-2.6,0.1-3.2-1.7-3.2-1.7c-0.6-1.9,0.4-2.9,0.4-2.9c-0.1,0.1-0.1,0.6-0.1,0.6c-0.2,0.9,0.4,1.8,0.4,1.8c0.8,1.1,1.7,1.2,2.7,1.2
	s2.6-0.7,2.6-0.7c0.2,0.1,1,0.3,1,0.3c2,0.5,3,0,3,0c1.9-0.8,1.6-3.2,1.6-3.2c-1.2,1.1-2.1,0.9-3.1,0.8c-0.5-0.1-3-0.9-4.2-0.5
	c0-0.1,0.2-0.3,0.2-0.3c1-1.6,2.8-2,3.4-2.2c1-0.4,2-1.8,2-1.8c0.7-0.9,1.8-0.7,1.8-0.7c1.7,0.2,1.8,1.4,1.8,1.4s0.8-1.7-0.2-3.3
	c-1.3-2.2-4.3-1-4.3-1c-0.4-1-1.4-1.2-1.4-1.2c-0.8-0.2-1.9,0.2-2.7,0.4s-2.3,0.2-2.3,0.2c-0.1-0.3-0.5-0.7-0.5-0.7
	c-1.6-1.7-2.2-2.9-2.2-2.9c-0.8-1.3-0.4-2.4-0.4-2.4c-2,0.7-2.1,4.4-2.1,4.4c0.8,0.8,2.2,1.3,2.2,1.3c-5.3-0.7-8.7-4.9-8.7-4.9
	c-0.2,0.4-0.5,2.6,0.5,4.3s3.1,2.3,3.1,2.3c-1.8,0-2.4-0.5-2.4-0.5c0,0.8,0.8,2,0.8,2c1.9,2.4,4.7,2.2,4.7,2.2s-1.3,0.7-2.2,2.2
	s-1.3,4.4-1.3,4.4c0.6,0.5,1.6,0.3,1.6,0.3c-0.4,0.8-0.6,2.5-0.6,2.5c-0.4,2.9,0.8,4.8,0.8,4.8c1-0.7,1.4-1.9,1.4-1.9
	s0.2,1.6,1.1,3.6c-0.8,0.8-1.2,1.3-1.8,2.3l4.7,4.4l0.1-0.1l-0.1,0.2c-1.6,3.9-4.7,2.5-5.9,2.1s-4.2-3.4-2.7-6.1s1-4.4,0.7-5.6
	c-0.3-1.2-2.9-5.4-2.9-5.4c-6.4-10.1-6-17.8-6-17.8c-1.3,0.8-1.8,2.1-1.8,2.1c-1.1,2.3-0.8,6-0.8,6c-0.2-0.3-1.6-2.3-2.7-5
	s-1.1-4.9-1.1-4.9C7.3,37.9,6.7,40,6.7,40c-1.8,5.7,1,11.9,1,11.9c-3.9-3.1-4.1-6.4-4.1-6.4c-3.1,5.6,3.3,12.7,3.3,12.7
	c-3.9-0.4-5-1.9-5-1.9c-0.2,6.8,7.3,8.3,7.3,8.3C5.3,65.2,2,64.3,2,64.3c0.5,1.4,1.8,3.3,1.8,3.3c3.2,4.4,7.8,4.8,7.8,4.8
	c-3,1.8-6.3,2.1-6.3,2.1c0.1,0.4,1.3,2.5,3.8,3.3c2.5,0.7,5.6-0.2,5.6-0.2c-0.6,0.4-1.3,1-2.2,1.9C11.4,80.5,11,81,11,81
	c0.4,0.5,1.3,0.9,1.3,0.9c2.2,1.1,4.4,0.4,4.4,0.4c-0.8,3.2,0.2,4.8,0.2,4.8c2.5,0.5,4.4-0.8,4.4-0.8c0,2.2,0.9,3.2,0.9,3.2
	c2.7-0.3,4.4-2.6,4.4-2.6c0.3,1.5,1.3,3,1.3,3c3.1-1,3.4-4.5,3.4-4.5c0.9,4.5-3.5,5.7-3.5,5.7c-1.3-0.9-1.6-2.4-1.6-2.4
	s-0.5,0.5-1.5,1s-2.2,0.6-2.2,0.6c-0.4,0.7-1.2,2.3-1.2,2.3c-0.9,1.9-2.2,7-2.2,7c-0.9,3.4-2.7,6.2-2.7,6.2
	c-1.7,2.5-3.4,2.2-3.4,2.2c-2.2-0.4-2.8-2.6-2.9-5.1c-0.1-2.5,1.2-5.4,1.2-5.4c1.5-3.3,1.8-5.3,1.8-5.3c0.8-3.4-1.3-5.9-1.3-5.9
	c-2-2.4-5.1-2.3-5.1-2.3c-1,0-1.9,0.2-2.7,0.6c-1.9,1-2.6,3.5-4.1,2.8c0.2,0.5,0.6,0.9,0.6,0.9c0.6,0.6,1.8,0.9,1.8,0.9
	s-0.3,0.5-0.5,1.1c-0.2,0.5-0.2,1,0,1.5c0.3,0.9,1.3,1,1,2.2s-1.3,1.3-1.3,1.3C2.1,95.9,3,96,3,96c0,0.4,0,0.9,0.1,1.3
	c0.3,2.6,1.7,3.1,1.7,3.1c-0.1-0.4-0.1-1.2,0.2-1.9S5.7,96,5.7,96c0.7-1.9,0.5-3.8,0.5-3.8l0.3,0.5c0.6,1,0.5,1.7,0.5,1.7
	c1.3-0.6,1.5-2.3,1.5-2.3c0.5-3.3-1.5-4-1.5-4c0-0.7,1-1.7,2.2-0.8c1.5,1.2,1.5,2.4,1.4,3.7c-0.1,1.5-2.3,7-2.3,7
	c-1.5,4.3-1.1,6.6-1.1,6.6c0.2,2,1.8,5.4,4.3,6.3s4.9,0.1,6.7-1.6s3.2-5.4,3.3-5.7s0.3-0.8,0.3-0.8c-0.3,1.3,0.2,3.9,0.3,5
	c0.1,1.1-0.7,2.5-1.6,3s-1.8,0.3-1.8,0.3c0.3,0.5,0.3,1.1,0.3,1.1c0.3,1.7-0.6,3-1,3.4c-0.1,0.1-0.4,0.4-0.4,0.4
	c-0.2,0.2-0.9,0.8-1.2,2.3c-0.3,1.6,0.7,2.9,0.7,2.9c-0.1-1.8,0.9-3.3,0.9-3.3c0.3,1-0.1,0.9-0.1,3.2c0,2.3,1.2,3.4,1.2,3.4
	c-0.1-2.9,1.3-3.1,1.3-3.1c-0.1,0.5-0.4,2.4,0.3,4.2c0,0.1,0.1,0.2,0.2,0.3c-2.6,0.3-5.1,0.8-7.7,1.4l-0.4,0.1v12l0.7-0.2
	c4.7-1.2,9.2-1.7,13.5-1.7c10,0,16.8,3.2,22.2,5.8c3.5,1.7,6.5,3.1,9.4,3.1c1.2,0,2-0.2,3-0.6v-3.4c1,0.1,2,0.3,2.9,0.7v5.2l0.3,0.2
	c3.4,2,12.7,2.7,16.7,2.7s13.3-0.7,16.7-2.7l0.3-0.2v-5.2c0.9-0.4,1.9-0.7,2.9-0.7v3.4c0.9,0.3,1.8,0.6,3,0.6c2.9,0,5.9-1.4,9.4-3.1
	c5.4-2.6,12.2-5.8,22.2-5.8c4.2,0,8.8,0.6,13.5,1.7l0.7,0.2v-12l-0.4-0.1c-2.5-0.6-5.1-1.1-7.7-1.4c0.1-0.1,0.1-0.2,0.1-0.3
	c0.7-1.8,0.4-3.7,0.3-4.2c0,0,1.4,0.2,1.3,3.1c0,0,1.2-1.1,1.2-3.4c0-2.4-0.4-2.2-0.1-3.2c0,0,1,1.5,0.9,3.3c0,0,1-1.3,0.7-2.9
	c-0.3-1.5-1-2.1-1.2-2.3c0,0-0.3-0.3-0.4-0.4c-0.4-0.5-1.3-1.8-1-3.4c0,0,0.1-0.6,0.3-1.1c0,0-1,0.2-1.8-0.3s-1.7-1.9-1.6-3
	c0.1-1.1,0.6-3.7,0.3-5l0.3,0.8c0.1,0.3,1.5,4.1,3.3,5.7s4.2,2.4,6.7,1.6s4-4.3,4.3-6.3c0,0,0.5-2.4-1.1-6.6c0,0-2.2-5.5-2.3-7
	c-0.1-1.3-0.1-2.6,1.4-3.7c1.1-0.9,2.2,0.1,2.2,0.8c0,0-2,0.7-1.5,4c0,0,0.2,1.8,1.5,2.3c0,0-0.1-0.7,0.5-1.7l0.3-0.5
	c0,0-0.1,1.9,0.5,3.8l0.8,2.4c0.2,0.7,0.3,1.5,0.2,1.9c0,0,1.4-0.5,1.7-3.1c0,0,0.1-0.7,0.1-1.3c0,0,0.9-0.1,1.5-0.8
	c0,0-0.9-0.2-1.3-1.3c-0.5-1.4,1.7-1.7,0.9-3.7c-0.2-0.6-0.5-1.1-0.5-1.1s1.1-0.3,1.8-0.9C162,88.2,162.5,87.8,162.6,87.3
	L162.6,87.3z M131.7,69l0.4-0.4c-0.2-0.2-0.4-0.4-0.6-0.6l0.5-0.5l-0.4-0.4l-0.5,0.5c-0.5-0.5-1-1-1.5-1.5l0.7-0.7l-0.4-0.4
	l-0.7,0.7c-0.6-0.5-1.2-1.1-1.8-1.6l0.5-0.7l-0.4-0.3l-0.5,0.7c-0.6-0.5-1.2-0.9-1.9-1.4l0.5-0.7l-0.5-0.3l-0.5,0.7
	c-0.7-0.4-1.3-0.9-2-1.2l0.5-0.8l-0.5-0.3l-0.5,0.8c-0.4-0.2-0.9-0.4-1.3-0.6l-0.2,0.5c0.8,0.4,1.7,0.8,2.5,1.3l-0.4,0.7l0.5,0.3
	l0.4-0.7c1.4,0.9,2.8,1.9,4.2,3.1l-0.5,0.7l0.4,0.3l0.5-0.6c0.6,0.5,1.1,1,1.6,1.5l-0.6,0.6l0.4,0.4l0.5-0.6
	C130.7,68,131.2,68.5,131.7,69L131.7,69z M117.1,51.9c0,0,0.7,0.1,2-0.2s2.8-0.8,4.8-0.1l0.3,0.1c0,0-0.9-2.7-4.6-1.9s-4-1.6-4-1.6
	S114.3,51.2,117.1,51.9L117.1,51.9z M134.6,127.9c0.8-0.4,1.1-1.1,1.2-1.4c0.1-0.5-0.4-1.6-1.9-0.8s-1.4,3.9-1.4,3.9l0.1-0.2
	C133,128.9,133.7,128.3,134.6,127.9z M131,123.5c-2.5,0.8-2.4,4-2.4,4l0.2-0.2c0.8-1.1,2-1.3,2.4-1.4
	C131.7,125.6,131.9,123.2,131,123.5z M130.6,122.2c-0.4-1-1-0.4-1-0.4c-2.1,1.5-2,3.2-2,3.2l0.2-0.2c0.7-0.8,2.5-1.3,2.7-1.4
	S131,123.1,130.6,122.2L130.6,122.2z M103,109.9c-2.1-0.2-3.2,2.3-3.2,2.3l0.2-0.1c1.9-0.6,3.2-0.3,3.5-0.3c0.3,0.1,0.3-0.1,0.3-0.1
	c0-0.5,0-0.9-0.2-1.4C103.3,109.9,103,109.9,103,109.9z M103.2,106.5c0.2,0.2,0.4,0,0.4,0c0.5-0.3,0.8-0.7,1-1.2
	c0.1-0.5-0.4-0.8-0.4-0.8c-2.6-1.7-4.4,0.5-4.4,0.5l0.2,0C101.8,105,103,106.3,103.2,106.5z M107.1,102.9c0.8-0.2,1.1-0.5,1.4-0.9
	s-0.1-0.8-0.1-0.8c-2.1-2.3-4.2-0.5-4.2-0.5l0.2,0.1c1.8,0.6,2.4,1.9,2.5,2S107.1,102.9,107.1,102.9z M107.4,99.4
	c-1-1-1-1.8-1.1-2.2c-0.1-0.3-0.3-0.3-0.6-0.4c-0.5-0.2-0.8-0.1-0.8-0.1c-0.9,0.4-0.4,1.2-0.4,1.2C105.5,99.9,107.4,99.4,107.4,99.4
	z M116,92l0.1-0.4c0-0.1,0.7-2.7-0.2-3.4c-0.9-0.7-1.4,0.2-1.4,0.8c0,0.6,0.5,1.1,0.5,1.1C115.6,90.6,115.9,91.3,116,92L116,92z
	 M107.6,97c1.7,1.8,3.6,0.5,3.6,0.5s-1.5-0.4-2.3-1.6c-0.5-0.8-1.2-0.4-1.2-0.4c-0.5,0.3-0.3,1.1-0.3,1.1
	C107.5,96.9,107.6,97,107.6,97z M108.9,66.8c0.9-1.3,2.2-2.8,2.2-2.8s-0.4-0.3-1.1-0.7s-1.5-1-3.1-1.6c-1.6-0.5-2.9-0.5-2.9-0.5
	l-3.9,0.2c-1.2,0.1-1.1,0.1-1.5,0.4c-0.2,0.1-0.8,0.7-1.4,1.3h10.1v2.2C108.7,66,108.9,66.8,108.9,66.8z M33.4,67.7l-0.6-0.6
	c0.5-0.5,1.1-1,1.7-1.5l0.5,0.6l0.4-0.3l-0.5-0.7c1.3-1.1,2.8-2.2,4.2-3.1l0.4,0.7l0.5-0.3l-0.4-0.7c0.8-0.5,1.6-0.9,2.5-1.3
	l-0.2-0.5c-0.4,0.2-0.9,0.4-1.3,0.6l-0.5-0.8l-0.5,0.3l0.5,0.8c-0.7,0.4-1.4,0.8-2,1.2l-0.5-0.7l-0.5,0.3l0.5,0.7
	c-0.6,0.4-1.3,0.9-1.9,1.4l-0.5-0.7l-0.4,0.3l0.5,0.7c-0.6,0.5-1.2,1-1.8,1.6l-0.7-0.7l-0.4,0.4l0.7,0.7c-0.5,0.5-1,1-1.5,1.5
	L31,67.1l-0.4,0.4l0.5,0.5l-0.6,0.6L31,69c0.5-0.5,1-1,1.5-1.5l0.5,0.6L33.4,67.7z M43,49.9c-3.7-0.8-4.6,1.9-4.6,1.9l0.3-0.1
	c2-0.7,3.6-0.2,4.8,0.1s2,0.2,2,0.2c2.8-0.7,1.5-3.7,1.5-3.7S46.7,50.7,43,49.9z M30.1,129.4l0.1,0.2c0,0,0-3.2-1.4-3.9
	s-2,0.3-1.9,0.8c0.1,0.3,0.3,1,1.2,1.4C28.9,128.3,29.6,128.9,30.1,129.4z M31.7,123.5c-0.9-0.3-0.7,2.1-0.1,2.3
	c0.4,0.1,1.5,0.4,2.4,1.4l0.2,0.2C34.1,127.5,34.1,124.3,31.7,123.5L31.7,123.5z M33.1,121.7c0,0-0.6-0.5-1,0.4s-0.1,1.1,0.2,1.2
	s2,0.5,2.7,1.4l0.2,0.2C35.1,124.9,35.2,123.3,33.1,121.7L33.1,121.7z M59.2,111.8c0.2-0.1,1.5-0.4,3.5,0.3l0.2,0.1
	c0,0-1.1-2.4-3.2-2.3c0,0-0.4,0-0.5,0.5c-0.2,0.4-0.2,0.9-0.2,1.4C59,111.7,59,111.9,59.2,111.8z M62.9,105.1c0,0-1.8-2.2-4.4-0.5
	c0,0-0.5,0.3-0.4,0.8c0.2,0.6,1,1.6,1.4,1.2C60.5,105.4,61.9,104.9,62.9,105.1z M58.4,100.9l0.2-0.1c0,0-2.2-1.8-4.2,0.5
	c0,0-0.4,0.4-0.1,0.8s0.6,0.7,1.4,0.9c0,0,0.3,0.1,0.3-0.1S56.6,101.5,58.4,100.9z M58.1,98c0.3-0.7-0.2-1.6-1.2-1.2
	c-0.3,0.1-0.4,0.2-0.6,0.4c-0.2,0.4-0.1,1.2-1.1,2.2C55.2,99.4,57.1,99.9,58.1,98z M46.7,88.2c-0.9,0.7-0.3,3.3-0.2,3.4l0.1,0.4
	c0,0,0.1-1.1,1-1.9c0,0,0.5-0.5,0.5-1.1C48.1,88.4,47.6,87.5,46.7,88.2z M55.2,96.6c0,0,0.2-0.8-0.3-1.1c0,0-0.7-0.4-1.2,0.4
	c-0.8,1.2-2.3,1.6-2.3,1.6s1.9,1.2,3.6-0.5C55.1,97,55.2,96.9,55.2,96.6L55.2,96.6z M58.5,61.2c0,0-1.3,0-2.9,0.5
	c-1.6,0.6-2.5,1.2-3.1,1.6S51.5,64,51.5,64s1.4,1.4,2.2,2.8c0,0,0.2-0.8,1.6-1.5v-2.2h10.1c-0.6-0.6-1.2-1.1-1.4-1.3
	c-0.5-0.3-0.3-0.4-1.5-0.4C62.4,61.4,58.5,61.2,58.5,61.2z M77.7,15.5c-1.3-0.3-1.7,0.7-1.7,1.1C76.6,16.1,77.3,16.9,77.7,15.5z
	 M66.9,15c0.1,1.8,1,1.1,1.4,1.6C68.4,16.1,68.3,15,66.9,15L66.9,15z M71,17.8l0.2,0.2v-1.3h-2l0.9,0.4C70.2,17.9,71,17.8,71,17.8z
	 M74.3,17.1l1-0.4h-2V18l0.2-0.2C73.4,17.8,74.3,17.9,74.3,17.1L74.3,17.1z M25.2,27.9c1.4,0.9,3.2,1.4,5,1.4c0.3,0,0.7,0,1-0.1
	l2-0.2l-0.7-1.9c-0.9-2.4-0.6-6.3,0.6-8.1c0,0,0-0.1,0.1-0.1c0.3,0.8,0.8,1.5,1.5,2.3c1.8,2.1,4.5,3.4,7.2,3.8
	c-1.3,1.6-2.2,4.2-2.8,5.3c-1.2,2.4-2.4,4.6-7.2,4.6c-1.8,0-3.9-1.3-5.3-3.4C25.8,30.3,25.3,29.1,25.2,27.9z M89.9,40.2
	c-0.4-0.5-1.4-2-1.4-2s0.6-0.1,1.3-0.2c0,0,2,0,2.7,1.3l0,0c0.1,0.3,0.1,0.6,0,1.1C92.1,41.9,90.3,40.7,89.9,40.2L89.9,40.2z
	 M88.2,40.8c-0.7,0.3-2-0.3-2.6-1.5s-1.3-1.9-1.3-1.9s0.1-0.1,0.2-0.2c0.5-0.2,0.8-0.3,1.5,0c0.8,0.3,1.4,1.6,1.7,2.2
	c0.2,0.4,0.4,0.8,0.7,1.2L88.2,40.8z M84.3,40.3c-0.7,0.4-2.1-0.1-2.8-1.3S80,37.3,80,37.3s0.1-0.1,0.2-0.2l0,0
	c0.4,0,0.8-0.1,1.2-0.3c0.1,0,0.2,0,0.3,0c0.8,0.2,1.6,1.5,2,2.1s0.8,1.1,0.8,1.1L84.3,40.3z M80.5,40.1c-0.6,0.4-2.1,0.1-2.9-1
	s-1.7-1.6-1.7-1.6s0.1-0.1,0.2-0.2c0.2-0.2,0.5-0.3,0.7-0.3c0.4,0.1,0.8,0.1,1.3,0.2c0.7,0.4,1.4,1.3,1.7,1.7c0.4,0.5,0.9,1,0.9,1
	L80.5,40.1z M76.6,40.5c-0.6,0.5-2.2,0.1-3-1.1s-1.8-1.6-1.8-1.6s0.1-0.1,0.2-0.2c0.4-0.3,0.8-0.5,1.6-0.4c0.9,0.1,1.8,1.4,2.3,2
	c0.3,0.4,0.6,0.7,1,1.1L76.6,40.5z M72.4,40.7c-1.3,0.6-3.8,0.1-4-1.2c0.1-0.1,0.2-0.2,0.2-0.3c0.5,0.3,0.9,0,1.2-0.1
	c-0.1-0.3-0.2-0.7,0-1c0.1,0,0.1,0,0.2-0.1c1.3,0.5,2.8,2.3,2.8,2.3L72.4,40.7z M68.1,37c0.1-0.4,0.6-0.4,0.8-0.4
	c0.2,0.1,0.5,0.3,0.4,0.7c-0.2,0.3-0.1,0.3-0.2,0.4c0,0.1-0.1,0.2-0.1,0.3c0,0.2,0,0.5,0.1,0.6C68.6,38.7,68,37.8,68.1,37z
	 M66.9,37.7c0-0.2,0.1-0.4,0.3-0.5c0.2,0,0.4,0.1,0.5,0.3v0c0,0,0,0,0,0.1c-0.1,0.7,0.1,1.2,0.2,1.4l0,0C67.3,39,67,38.3,66.9,37.7z
	 M67.2,39.3c-0.4,0-1-0.3-1.2-0.8c-0.2-0.4,0-0.9,0.1-1c0.2-0.1,0.4,0,0.6,0.3c0,0.4,0.2,1,0.4,1.3l0,0
	C67.1,39.2,67.1,39.2,67.2,39.3z M89.4,32c0.4,0,0.8,0,1.2,0c0.4,0,0.9,0,1.3-0.1c0.1,0.4,0.2,0.8,0.5,1.2c0.1,0.4,0.2,0.5,0.1,1
	c0,0.1,0,0.2,0,0.2c-0.1-0.1-0.3-0.2-0.4-0.3c-0.3-0.3-0.6-0.7-1.3-0.7c-0.5,0-0.9,0.3-1.2,0.6L89.4,32z M65.6,38.3
	c-0.2-0.2-0.4-0.7-0.4-1.2c0-0.8,0.7-1.4,1.5-1.4c0.6-1.1,1.6-1.1,2.2-0.9c1.1-0.5,1.8-2.1,2.5-2.5c0-0.2,0-0.5,0-0.8
	c0.6,0.2,1.1,0.3,1.5,0.3c-0.5-1.3-0.2-1.7,0.3-2.4c1.3,0.2,2.4-0.5,3.1-1.3c1.4-0.9,2.2-2.6,2.4-4c3.3-0.7,7.9,0.2,10.7,0.6
	c3.2,0.4,4.8-0.9,4.8-2.3c0-0.8-0.8-1.8-1.9-1.8s-2,0.9-1.6,2.3c-2,0-2.1-1.5-1.3-2.1c0.5-0.1,1-0.4,1.4-0.7l0.4-0.3
	c0.8,0,1.4-0.3,1.9-0.6c1.7,0.3,3.1,1.1,3.1,3c0,2.8-3,3.9-4.3,3.9c-1,0-1.9-0.3-2.8-0.7c0.9,0.6,1.5,1.8,1.7,2.9
	c1.1,0.5,2.1,0.6,2.8,0.7c1.6-0.5,2.5,1.3,2.6,2.3c-0.2-0.3-1-0.6-1.5-0.6c1.2,0.7,1.7,2,1.6,3.2c-0.2-0.4-0.7-1-1.1-0.9
	c1,1.2,0.5,3.1-0.3,3.6c0-0.5-0.1-1-0.2-1.4c0.2,0.9-0.8,2.8-1.9,2.4c-0.8-0.4-1.5-0.5-2.2-0.6c0,0-0.1,0-0.1,0
	c-0.3,0-0.6,0-0.7,0.4c-0.3-0.5-0.1-1.2,0.2-1.6c0-0.1,0-0.2,0-0.3c0.1-0.6,0.7-1.1,1-1.1c0.7,0,0.8,1,1.9,1c0.2,0,0.4-0.1,0.5-0.9
	c0.1-0.6,0-0.9-0.2-1.5c-0.4-0.5-0.5-1.2-0.5-1.7c-1.3,0.3-4.2,0.1-5.2-0.2l0,0c-0.4-0.7-0.9-2.6-1.9-3.4c-1.3,1.7-0.6,3.2,0.5,4.6
	c0.3,0.1,0.8,1.1-0.4,1.5c0,0,0-0.1-0.1-0.1c-0.1-0.1-0.2-0.1-0.3-0.1c-0.4,0-0.9,0.3-0.9,0.8c-0.2,0-0.3,0-0.5,0
	c-0.9,0.1-1,1-1.6,1.5l0,0c-0.3,0-0.6,0-0.8-0.1c-1.2-0.1-1.9,0.2-2.5,0.5c-0.9-0.5-2-0.5-2.9-0.3c0.1-0.7,0.7-2.1,1.4-2.1
	c0.7,0,1.9,0.4,2.1,0.4l0,0c1.1-0.1,0.7-0.4,2-1.6c0.6-0.5,1.2-1,1.7-1c-1.8,0-2.1-1.6-2.1-2.4c0-1.1,1.3-2.4,2.1-2.6
	c-0.2-0.1-0.4-0.1-0.6-0.1c-1.3,0-2.1,1.1-2.5,1.8c-0.1,0.1-0.1,0.2-0.2,0.2c-0.2,0.2-0.6,0.5-1.1,0.7c-0.7,0.3-1.5,0.7-2.4,1.1
	c0,0,0,0,0,0c0,0.3-0.1,0.7-0.2,1s-0.3,0.5-0.5,0.7c-0.1-0.2-0.3-0.7-0.6-0.9c0.5,1.5-0.5,3.1-1.3,3.6c0.2-0.3,0.2-1.1-0.1-1.5
	c-0.1,0.5-0.2,1-0.5,1.5c-0.5,0.8-1.2,1.4-2,1.8c-0.3,0.5-0.9,1.1-1.4,1.1c0.3-0.8-0.3-1.3-0.8-1.5c-0.4-0.1-1,0.2-1.1,0.9
	c-0.5-0.6-1.1-0.2-1.1,0.3c-0.1-0.1-0.5-0.3-0.7-0.2C65.6,37.2,65.4,37.6,65.6,38.3z M70.5,30.2C70.5,30.2,70.4,30.2,70.5,30.2
	c-1.4-1.3-1.2-3.4-0.3-4.5c-1.1,0.3-1.4,1.7-1.4,2.9c-2.3-2.8-0.5-4.6,0.3-5.4c-0.8,0.1-1.7,1.2-2.1,2.1c-1-1.7-0.6-3.2,0.5-4
	c-0.7,0.3-1.4,0.2-1.6,0c0,0,1.1-1.3,1.3-2.2c0,0,0,0,0.1-0.4l0-0.1c-0.6,0.1-0.9-0.3-1.1-0.7c0.1,0,0.2-0.1,0.3-0.1
	c0.4-0.1,0.7-0.2,0.9,0l1,1.4c0,0-0.2,1.2,1,1.8c0.3,0.3,0.8,0.8,1,1.4c0.3,1,1.2,1.4,1.7,1.4c0.7,0,1.5-0.4,1.7-1.4
	c0.2-0.6,0.6-1.1,1-1.4c1.3-0.5,1.1-1.8,1.1-1.8l1.2-1.5c0.1-0.1,0.2,0,0.3,0c0.4,0.5,0.6,0.6,1,0.9c-0.2,0.4-0.8,0.4-1.4,0.3
	c0.1,0.7,0.4,1.9,0.8,2.6c0,0,0,0,0,0c0,0,0,0,0,0.1c0.1,0.1,0.2,0.4,0.4,0.5c-0.2,0.2-0.7,0.2-1.2-0.1l0,0c0.3,0.2,0.5,0.5,0.6,1
	c0.3,1.2-0.1,2.8-0.7,3.6c0-0.9-0.2-2.3-1.2-2.7c1.3,1.8-0.1,4.7-2.1,5c0.3-0.5,1.1-2.2-0.2-3.9c1.9,3.2-2.4,3.6-1.3,6.2
	c-0.6-0.2-0.9-0.4-1-0.5c-0.9-2.6,0.5-5.3,0.5-5.3S69.6,27.7,70.5,30.2L70.5,30.2z M68.9,29.7c-0.1,0.3-0.3,0.6-0.9,0
	s-0.6-0.6-1.4-1c-0.5-0.2-0.8-0.5-1.2-1c0.3,0.1,0.5,0.1,0.9-0.1c-0.6,0-1.4-0.8-1.7-1.5c0.2,0.1,0.5,0.1,0.7,0
	c-0.9-0.6-0.9-1.5-1.1-2.4c-1.4-0.3-1.8-1.4-1.7-2.1c0.6,0.1,1.1-0.1,1.3-0.3c0.1-0.2,0.1-0.5,0-0.8c0.5,0.1,0.9-0.2,1-0.7
	c0,0,0,0,0,0c0.4,0.2,1.1,0.1,1.3-0.8c0.1,0.1,0.2,0.4,0.3,0.6c-0.3,0.6-1,1.5-1.3,2l0.5,0.5c0.1,0.1,0.3,0.2,0.5,0.3
	c-0.4,0.9-0.3,3.1,1.1,4.3c0.2,0.9,0.6,2.4,2.1,3l0,0C69,29.5,68.9,29.6,68.9,29.7z M61.3,21.1c0.2-1.1,1.3-1,1.9-0.7
	c0.2,0.2,0.2,0.4,0,0.6c-0.1,0.1-0.5,0.2-0.7,0.1C62.2,20.8,61.7,20.9,61.3,21.1z M64.1,19.3c0.2,0.2,0.2,0.4,0.1,0.5
	c-0.2,0.2-0.4,0.3-0.7,0.3c-0.2-0.4-0.8-0.5-1.5-0.4C62.6,18.9,63.6,19,64.1,19.3z M65.5,18.5c0,0.4-0.3,0.8-0.7,0.7l0-0.1
	c-0.1-0.3-0.7-0.8-1-0.9C64.5,17.9,65.2,18.2,65.5,18.5z M72.2,21.2c0.2,0,1,0.1,0.8,0.6c-0.2,0.7-0.8,0.7-0.8,0.7s-0.6,0.1-0.8-0.7
	C71.2,21.2,72.1,21.2,72.2,21.2z M72.2,22.8c1.3,0,1.3-1.8,1.3-2l0.1,0.1c0.2,0,0.4,0.1,0.5,0c-0.7,0.6-0.3,1.2-1.1,1.8l0,0
	c-0.3,0.2-0.6,0.3-0.9,0.3c-0.2,0-0.4,0-0.6-0.1c-0.8-0.2-0.7-1.4-1.6-1.9c0.3,0,0.5,0,0.7,0l0.1,0C70.8,21,71,22.8,72.2,22.8
	L72.2,22.8z M66.7,14.6c0.2-0.2,1,0.2,1.7,0.7c0.2-0.3,0.2-0.6,0.2-0.6c0.1-0.8-0.3-1.2-0.3-1.2s0.6-0.1,1.3,0.4
	c0.2,0.1,0.5,0.5,0.5,0.5s0.1-0.3-0.1-1c-0.2-0.7-0.8-1-1.1-1c0,0,0.5-1.2,1.7-0.2c0.3,0.2,0.8,1.2,0.8,1.2s-0.2-1,0.2-1.5
	c0.2-0.3,0.3-0.4,0.3-0.4s0,0.5,0.4,1s1,0.7,1,0.7s0.2-0.9,0.9-0.9c0.4,0,0.7,0.2,0.7,0.2s-0.4,0.6,0.2,1.9c0,0,0.8-1.3,1.6-1.2
	c0,0-0.4,0.2-0.4,1.3l0,0.6l0,0.2c0.6-0.1,1.3-0.1,1.6,0.2c0,0.2-0.2,1.1-0.4,1.4l-2.4,2.1c0,0,0.5,0.9-0.2,1.6
	c-0.3,0.2-1.2,0.6-2-0.5c0-0.1-0.1-0.1-0.2-0.2c0.2,0,0.4-0.1,0.5-0.3c0.2-0.3,0.6-0.4,0.6-0.4l-0.5-0.3c0,0-0.4,0.5-0.8,0.5h-0.7
	c-0.4,0-0.8-0.5-0.8-0.5L70.6,19c0,0,0.6,0.1,0.8,0.4c0.2,0.3,0.5,0.3,0.5,0.3l-0.1,0.2c-0.6,0.8-1.3,1.2-2.2,0.7
	c-0.8-0.7-0.3-1.8-0.3-1.8l-1.5-1.3C66.4,16.3,66.6,14.8,66.7,14.6L66.7,14.6z M91.4,21.8c0.2-0.2,0.4-0.3,0.7-0.3
	c0.8,0,1.1,0.8,1.1,1c0,0.7-0.9,1.6-3,1.6c-0.3,0-0.6,0-0.8-0.1l-1-0.1l-0.1-1.1c0.4,0.6,1.2,1.3,3,0.8C91.1,22.6,91.3,22,91.4,21.8
	z M83.9,16.9L83.9,16.9c1.6,0,2.3,0.6,3.4,0.6c2,0,1.1-2.1,0.6-2.3c1.7-0.9,2.6,1.3,2.2,1.9c2.6-1.8,5.4,0.9,5.3,2.3
	c-0.6-0.6-1.8-0.9-2.4-0.8c-1.1,0.1-1.4,1-3.2,0.4c-0.4-0.1-0.6-0.2-1.2-0.5c0.1,0,0.3,0.5,0.5,0.7c0.2,0.3,0.6,0.4,0.9,0.4
	c-0.7,0.7-1.6,0.6-2.2,0.5c-1.4-0.4-1.4-1.3-2.8-1.6c-1.3-0.2-3.5-0.2-3.5,1.2c0,0.8,0.9,1.2,2.2,1.2c0.7,0,1.9-0.4,2.6-0.7
	c0.5,0.4,1.1,0.6,1.7,0.7l-0.1,0c-1.5,0.5-2.5,1.7-5,1.7c-1.7,0-3.4-1-3.4-2.8C79.6,17.9,81.8,16.9,83.9,16.9L83.9,16.9z M80,11.7
	c0-0.8,0.5-1.9,1.4-1.9s1.4,1.2,1.4,1.9v1.8H80L80,11.7z M126.9,21.2c0.6-0.7,1.1-1.5,1.5-2.3l0.1,0.1c1.2,1.9,1.5,5.8,0.6,8.1
	l-0.7,1.9l2,0.2c0.3,0,0.7,0.1,1,0.1c1.8,0,3.6-0.5,5-1.4c-0.1,1.2-0.6,2.4-1.4,3.6c-1.4,2.1-3.5,3.4-5.3,3.4
	c-4.8,0-5.9-2.2-7.2-4.6c-0.6-1.1-1.5-3.7-2.8-5.3C122.4,24.6,125.1,23.3,126.9,21.2L126.9,21.2z M31.9,36.4c9.5,0,7.7-9,12.7-9
	c2.2,0,6.5,3.4,8.2,9.1c-6-3.9-13,1.1-13.4,4.5c10.2-3.4,17.8,3.4,19.1,4.7c2.7,2.6,1.5,11.3-3.3,12.4c5.2,2.7,10.2,0.2,13-3.4
	c0.7,0.7,1.7,1.2,2.8,1.3c0.9,0.8,1.6,2,1.7,4.3c-1.3,0.4-2.4,1.7-1.7,3.3c0.8,1.8,3.9,3.4,5.5,3.4c3.9,0,5.1-1.3,8.4-3
	c3.6-1.9,7.7-2.1,10.1-1.6c-1.2-0.9-2.1-2.6-2.6-4.4c-0.5-1.8-0.6-3.7-0.4-5.2c0.9,2.9,6.9,9.2,14.2,5.5c-4.8-1.1-5.7-9.6-3.5-12.6
	c1.3-1.8,4.4-4.3,8.2-4c1.3,0.1,2.6,1.6,2,3.4c1.6-0.6,4.9-2.9,4.9-6.2s-4.3-6.7-7.9-5c1.7-5.7,5.6-5.8,7.8-5.8
	c4.4,0,2.4,8.4,11.9,8.4c5,0,9.8-6.8,7.7-11.8c-1.2,2.1-4.1,3.4-6.9,3.1c1.4-3.7,0.4-10.9-3.2-11.2c0.2,2.7-3.4,6.7-8.3,7
	c-2.2-2.3-5.5-3.3-7.3-3.3c-2.3,0-6.5,3.3-6,9.4c-0.8-2.5-5.5-3.3-6.9-2.2c2.9,1.9,3.6,17.5-2.4,17.5c-1.5,0-3.1-0.4-5-2.7
	c1.1,0.1,2.2-0.2,2.5-2.1c0.1-0.8-0.1-1.4-0.4-1.9c0.2-0.1,0.4-0.1,0.5-0.2l0,0l1.2-0.8c0.5-0.3,0.9-1,1.1-1.7c0.6-0.7,0.6-2,0.4-3
	c0.4-2.5-1.1-4.4-2.8-4.4c-0.2,0-0.4,0-0.6,0.1c-0.6-0.1-1.3-0.1-2-0.4c-0.1-0.3-0.2-0.6-0.3-0.9c0.2,0,0.5,0,0.7,0
	c1.7,0,5.1-1.4,5.1-4.7c0-1-0.3-1.8-0.9-2.5c0.5-0.8-0.1-2.4-1.1-3.2c-1-0.8-2.4-1.4-4-0.8c-0.1-0.3-0.3-0.7-0.5-1
	c-0.7-0.8-1.8-1-2.8-0.5l-0.2,0.1L86.6,9l0-0.1c-2.4-1-7.3-1.3-10.4,0L76.3,9l-0.5,3.9c-0.3,0.2-0.5,0.5-0.5,0.5
	c-0.1-1.1,0.4-1.3,0.4-1.3c-1.5-1-2.5,0.1-2.5,0.1c-1.1-0.7-0.8-1.6-0.8-1.6c-1.2,0.2-1.4,1-1.4,1c-2.1-1.5-2.7,1-2.7,1
	c0.2,0.1,0.4,0.2,0.6,0.3c-0.4-0.1-0.8-0.1-1.3,0.2c0,0,0.8,0.7,0.7,1.6l-0.1-0.1c-0.3-0.2-0.8-0.5-0.8-0.5s-1.3-0.7-1.3,0.4
	c0,1.1,0.3,2.4,0.3,2.4c-0.2,0.2-0.4,0.3-1.1,0.6c-0.3-0.1-0.6-0.2-0.9-0.2c-0.3,0-0.8,0-1.1,0.2c-0.3,0.1-0.6,0.4-1,0.7
	c0.3,0.1,0.4,0.2,0.4,0.3c-0.7,0.1-1.1,0.4-1.3,0.7c-0.8,0.8-1,2.2-0.6,3.1c0.2-0.3,0.5-0.6,0.8-0.7c0,0.6,0.2,1.2,0.6,1.7
	c0.3,0.5,0.8,0.8,1.3,0.8c0.2,1.2,0.8,3.1,1.3,3.8c0.5,0.6,0.8,1,1.5,1.3c0.6,0.3,0.6,0.3,1.2,0.9c0.3,0.3,0.6,0.5,1.1,0.5
	c0.5,0,0.7-0.3,0.9-0.5c0.3,0.4,0.7,0.7,1.1,1c0,0.3,0,0.5,0,0.8c-0.2,0.2-0.5,0.5-0.7,0.8c-0.3,0.4-0.7,0.9-1.1,1.2
	c-0.2-0.1-0.4-0.1-0.6-0.1c-0.5,0-1.3,0.1-1.9,1.1c-1,0.2-1.8,1-1.8,2.1c0,0.7,0.2,1.4,0.6,1.8c0.1,0.1,0.2,0.2,0.4,0.3
	c0.4,0.5,1,0.9,1.6,0.9c0,0,0,0.1,0,0.1c0.5,1.7,2,2.2,3.4,2.2c-0.7,2.4,0.7,4.2,2.1,4.6c0.5-1.8,2.7-4.2,4.6-4.6
	c-1,1.1-2.3,2.8-2.5,4.6c6.5-0.3,11.4-2.5,14.6-5.1l0.8,0.9c2.4,3,4.4,3.3,6.1,3.3c1.3,0,2.7-0.1,4.2-0.7l0.4-0.2l-0.2,0.4
	c-1.3,2.1-1.6,8.6,1.4,11.7l0.2,0.2h-0.3c-3.6,0-9.8-4.6-10.3-9.3c-0.7,0.9-1.6,4.3-1.6,6.4l0,0.4L90,54.7c-3.1-4-2.1-8.7-0.9-11
	c-6.7,4.7-21.8,8.5-20.2,0c-1.2,0.9-2.4,2.8-2.4,4.7c0,4.2,6.3,5.8,18.9,0.8c-2.3,1.8-5.8,3.9-9.7,4.5c1.1,2.2,1.4,6.7,0.9,9.1
	c-0.3-1.3-1.1-7-3.5-8.9c-1.9,0-3.8-0.4-5.7-1.3l0,0l0,0c-1.4,2.7-4.9,4.7-7.7,4.7c2.9-3,2.8-9.7,1.4-11.8c1.2,0.5,2.6,0.7,3.9,0.7
	l0.4,0c0.2,0,0.5,0,0.7,0c0.2-0.6,0.4-1.1,0.8-1.7c-0.7,0.1-1.3,0.1-1.8,0.1c-6.1,0-5.9-14.3-1.5-14.9c-0.9-2.3-5.7-3.9-6.6,2.7
	c0.5-6.2-2-12.2-6.8-12.2c-1.8,0-5.1,1-7.3,3.3c-4.9-0.3-8.5-4.3-8.3-7c-3.6,0.4-4.6,7.5-3.2,11.2c-2.8,0.3-5.7-0.9-6.9-3.1
	C22,29.6,26.9,36.4,31.9,36.4L31.9,36.4z M75.4,8.1c3.4-1.6,9.2-1.3,12,0L89,6.4l1.6-5.1c-1.4-0.5-2.8-0.8-4.2-1l-0.5,2.3
	c-0.7-0.1-1.4-0.2-2.1-0.2V0.1C82.2,0,80.6,0,79.1,0.1v2.4c-0.7,0.1-1.5,0.1-2.2,0.2l-0.5-2.3c-1.4,0.2-2.7,0.5-4.1,0.9l1.6,5.1
	L75.4,8.1z M91.1,77.8c0.9-0.2,2-0.3,3.2-0.4v-4.5c0,0,0,0-0.1,0L91.1,77.8z M94.8,71.8c0.5,0,0.9-0.4,0.9-0.9c0,0,0,0,0,0
	c0-0.5-0.4-0.9-0.8-0.9c-0.5,0-0.9,0.4-0.9,0.8c0,0,0,0.1,0,0.1C93.9,71.4,94.3,71.8,94.8,71.8z M90.3,79.1c0,0.4,1.8,0.8,4,0.8
	v-1.6c-1.9,0-3.4,0.3-3.9,0.6L90.3,79.1z M95.2,79.9c2.2,0,4-0.4,4-0.8l0,0l-0.1-0.2c-0.4-0.3-2-0.6-3.9-0.6L95.2,79.9z M68.3,72.9
	v4.5c1.2,0,2.3,0.1,3.2,0.4L68.3,72.9C68.4,72.9,68.4,72.9,68.3,72.9z M95.2,72.9v4.5c1.2,0,2.3,0.1,3.2,0.4L95.2,72.9L95.2,72.9z
	 M67.4,79.9v-1.6c-1.9,0-3.4,0.3-3.9,0.6l-0.1,0.2C63.5,79.5,65.2,79.8,67.4,79.9z M67.4,72.9C67.4,72.9,67.4,72.9,67.4,72.9
	l-3.2,4.9c0.9-0.2,2-0.3,3.2-0.4V72.9z M67.9,71.8c0.5,0,0.9-0.4,0.9-0.9s-0.4-0.9-0.9-0.9c-0.5,0-0.9,0.4-0.9,0.9
	C67,71.4,67.4,71.8,67.9,71.8L67.9,71.8z M68.3,79.9c2.2,0,4-0.4,4-0.8l0,0l-0.1-0.2c-0.4-0.3-2-0.6-3.9-0.6V79.9z M66.7,96.8
	c0.1,0.5,0.2,1.1,0.2,1.6c-0.5,0.5-0.4,1.3,0.1,1.7c0.2,0.2,0.5,0.3,0.8,0.3c0.7,0,1.2-0.5,1.2-1.2c0-0.3-0.1-0.6-0.3-0.8
	c0.1-0.5,0.2-1,0.3-1.5c0.8-0.1,1.6-0.3,2.3-0.7v-2.3c-0.8,0.5-1.5,0.7-2.2,0.8v-3.7c0-1.7-0.3-4-1.2-4.5c-1,0.5-1.2,2.8-1.2,4.5
	v3.7c-0.8-0.1-1.4-0.3-2.2-0.8v2.3C65.1,96.5,65.9,96.7,66.7,96.8L66.7,96.8z M114.1,137.7l0.2-0.5l0.3-1l0.1-0.4
	c0.1,0.2,0.2,0.3,0.3,0.5c0.1,0.1,0.2,0.3,0.3,0.4l0.2,0.4L114.1,137.7z M116.8,137c-0.3-0.4-0.6-0.8-0.8-1.2l-1.4-2l-0.1,0.1
	l-0.1,0l-1.6,4.9c-0.3,1.1-0.5,1.3-0.6,1.5l-0.2,0.4c1.7-0.9,1.3-0.5,1.7-0.7l0-0.1c0-0.3,0-0.6,0.1-0.9l2.2-1l0,0
	c0.2,0.3,0.3,0.5,0.3,0.8l0,0.2c0.4-0.2,1.2-0.5,1.6-0.6l-0.2-0.1C117.6,137.9,117.3,137.6,116.8,137L116.8,137z M139.9,129.5
	l-0.3,0c0.4,0.5,0.3,0.3,0.7,0.8v3.3c0,0.8-0.1,1.1-0.2,1.3l-0.1,0.2l1.7,0.1l-0.1-0.2c-0.2-0.4-0.2-1-0.2-1.1v-2.2l1.6,2.2l1.6-1.9
	v2.1c0,0.6-0.1,0.9-0.2,1.3l-0.1,0.1l1.7,0.2l-0.1-0.2c-0.2-0.5-0.2-1-0.2-1.4v-2.6c0-0.7,0.2-0.9,0.4-1.1l0.2-0.2l-1.4-0.2l0,0.1
	c-0.2,0.3-0.2,0.3-0.4,0.5l-1.4,1.6l-1.3-1.8c-0.3-0.4-0.3-0.5-0.4-0.7l0-0.1L139.9,129.5L139.9,129.5z M137.4,129.6l0.1-0.2
	c-0.6,0-0.9,0-1.5,0l0.1,0.2c0.2,0.4,0.2,0.9,0.2,1.1v2.1c0,0.3,0,0.4,0,0.5c-0.1,0.5-0.6,0.8-1.1,0.9h0c-0.1,0-0.8,0-1.1-0.7
	c-0.1-0.2-0.1-0.4-0.1-0.7v-1.9c0-0.7,0-0.9,0.2-1.2l0.1-0.2l-1.5,0.1l0.1,0.2c0.1,0.2,0.2,0.4,0.2,1.1v2.1c0,1.2,0.6,2.1,1.9,2.1
	c0.7,0,1.2-0.3,1.5-0.5l0,0.4h1.3l0-0.2c-0.1-0.7-0.1-1-0.1-1.3v-2.8C137.2,130,137.3,129.8,137.4,129.6L137.4,129.6z M126.1,130.5
	l-0.4,1.3l0.3-0.2c0.9-0.5,1.2-0.6,1.5-0.6v3.3c0,0.4,0,0.9-0.2,1.3l0,0.2c0.7-0.1,1.1-0.2,1.5-0.2l0-0.1c-0.1-0.3-0.1-0.7-0.1-1.2
	v-3.4c0.1,0,0.3,0,0.4,0c0.2,0,0.4,0,0.8,0.1l0.1,0l0.5-1.2C128.6,130,127.6,130.2,126.1,130.5L126.1,130.5z M123.6,135.3l0-0.4
	l-0.2,0.3c-0.3,0.3-0.7,0.7-1.4,0.9c-0.2,0.1-0.4,0.1-0.6,0.1c-0.8,0-1.3-0.6-1.4-1.4c-0.1-1.1,0.6-2.2,1.7-2.5
	c0.2-0.1,0.4-0.1,0.6-0.1c0.3,0,0.4,0,0.9,0.2l-0.1-1.2c-0.2,0-0.3,0-0.5,0c-0.3,0-0.6,0-0.8,0.1c-0.9,0.2-1.7,0.8-2.2,1.6
	c-0.5,0.7-0.7,1.6-0.7,2.3c0.1,1,0.8,2,2.1,2c0.3,0,0.6,0,0.9-0.1c0.9-0.3,1.3-0.6,1.7-0.9l0.1,0L123.6,135.3L123.6,135.3z
	 M108.5,139.1v-1.5c0-0.2,0-0.4,0-0.5c0.6-0.3,1-0.4,1.2-0.1c0.2,0.1,0.3,0.4,0.3,0.6C110.1,138.3,109,139,108.5,139.1z
	 M109.7,136.1c-0.3,0-0.5,0.1-0.8,0.2c-0.3,0.1-0.7,0.2-1.1,0.4l-0.6,0.3l0.1,0.1c0.1,0.1,0.2,0.3,0.2,1.2v2.2
	c0,0.8-0.1,1.3-0.2,1.7l-0.1,0.3c0.5-0.2,0.5-0.2,1.6-0.6l0-0.1c-0.1-0.4-0.2-0.9-0.2-1.3v-0.5c1.3-0.4,2.6-1.5,2.6-2.7
	C111.1,136.5,110.6,136.1,109.7,136.1L109.7,136.1z M88.7,143.2v3.2c0,0.8-0.1,1.1-0.2,1.4l-0.1,0.2c0.9-0.1,1.2-0.2,1.7-0.2
	l-0.1-0.2c-0.2-0.4-0.2-0.9-0.2-1.1v-2.3c0.5,0.6,1.1,1.1,1.6,1.7l0.1,0.1l1.6-2.4v2.1c0,0.5-0.1,0.9-0.2,1.3l-0.1,0.2l1.7-0.4
	l-0.1-0.2c-0.2-0.4-0.2-0.9-0.2-1.3V143c0-0.7,0.2-1,0.4-1.3l0.2-0.3l-0.3,0.1c-0.3,0.1-0.7,0.1-1,0.2l-0.1,0l0,0
	c-0.1,0.3-0.2,0.4-0.3,0.6l0,0c-0.5,0.6-0.7,0.9-1.5,2.1c-0.5-0.5-0.9-1-1.3-1.4c-0.3-0.3-0.4-0.5-0.4-0.6l0-0.1l-0.1,0
	c-0.7,0.1-1,0.1-1.5,0.2l0.2,0.2C88.3,142.9,88.5,143.1,88.7,143.2L88.7,143.2z M81.8,144.3v2.1c0,1.3,0.7,2.1,1.8,2.1l0.1,0
	c0.6,0,1.2-0.3,1.5-0.5c0,0.1,0,0.2,0,0.2l0,0.2l1.3-0.1l0-0.1c-0.1-0.7-0.1-1-0.1-1.4V144c0-0.7,0.1-0.8,0.1-1.1l0.1-0.2
	c-0.7,0.1-0.4,0.1-1.6,0.1L85,143c0.2,0.4,0.2,0.9,0.2,1.1v2.1c0,0.3,0,0.4,0,0.5c-0.1,0.4-0.6,0.9-1.1,0.9h0c-0.1,0-0.8,0-1.1-0.7
	c-0.1-0.2-0.1-0.4-0.1-0.7v-1.9c0-0.7,0-0.9,0.2-1.2l0.1-0.2c-0.5,0-0.6,0-1.5,0l0.1,0.2C81.7,143.4,81.8,143.5,81.8,144.3
	L81.8,144.3z M77.7,147.6V146c0.4,0.1,0.7,0.2,1.1,0.3c0.3-0.5,0.4-0.6,0.6-1l-1.8-0.1v-1.6c0.5,0,0.7,0.1,1.3,0.4l0.1,0.1
	c0.4-0.8,0.3-0.6,0.6-1.1c-1.4,0-2.9-0.2-3.3-0.2l0.1,0.2c0.1,0.4,0.2,0.9,0.2,1.3v2.6c0,0.7-0.1,1-0.2,1.3l-0.1,0.1l0.2,0
	c0.9,0.1,1.8,0.1,2.8,0.2l0.1,0l0.6-1.2l-0.3,0.1C78.6,147.7,78.3,147.6,77.7,147.6z M73.5,142.4L73.5,142.4l-0.1,0.1
	c-0.2,0.2-0.2,0.3-0.4,0.5c-0.5,0.5-1,1.1-1.5,1.6c-0.5-0.6-0.9-1.3-1.3-1.9c-0.3-0.4-0.4-0.6-0.4-0.8l0-0.1l-0.1,0
	c-0.8-0.1-1-0.2-1.6-0.3l0.2,0.3c0.1,0.1,0.2,0.2,0.2,0.3l0.3,0.4v3.2c0,0.8-0.1,1.1-0.2,1.3l-0.1,0.1l0.2,0
	c0.4,0.1,0.8,0.2,1.2,0.3l0.2,0.1l-0.1-0.2c-0.2-0.5-0.2-1-0.2-1.2v-2.2l1.6,2.3l0.1-0.1l1.5-1.7v2.2c0,0.5-0.1,0.9-0.2,1.2
	l-0.1,0.2l1.7,0.2l-0.1-0.2c-0.2-0.5-0.2-1-0.2-1.4v-2.6c0-0.7,0.2-0.9,0.4-1.2l0.2-0.2L73.5,142.4L73.5,142.4z M49.6,135.7v3.3
	c0,0.9-0.1,1.1-0.2,1.3l-0.1,0.2l0.1,0.1c0.4,0.2,0.9,0.3,1.2,0.4L51,141l-0.1-0.2c-0.1-0.4-0.2-0.8-0.2-1.2v-2.2l1.5,2.6l0.1,0.1
	l0.1,0c0.5-0.5,1-0.9,1.5-1.4v2.2c0,0.5-0.1,0.9-0.2,1.1l-0.1,0.1l0.1,0.1c0.5,0.2,0.9,0.4,1.2,0.5l0.3,0.1l-0.1-0.3
	c-0.2-0.6-0.2-1-0.2-1.5v-2.6c0-0.7,0.2-0.8,0.4-1l0.2-0.1l-0.2-0.1c-0.4-0.1-0.7-0.3-1-0.5l-0.1,0l-0.1,0.1
	c-0.1,0.2-0.2,0.3-0.3,0.4c-0.4,0.3-0.9,0.7-1.3,1.1l-0.1,0.1l-0.3-0.5c-0.3-0.6-0.7-1.1-1-1.6c-0.2-0.3-0.3-0.6-0.4-0.9l0-0.1
	l-0.1,0c-0.4-0.2-0.8-0.3-1.2-0.4l-0.4-0.1l0.2,0.3C49.2,135.2,49.4,135.5,49.6,135.7L49.6,135.7z M42.1,133.4v2.1
	c0,1.3,0.7,2.4,1.8,2.7c0.3,0.1,0.6,0.2,1,0.2c0.3,0,0.5,0,0.6-0.1c0,0.1,0,0.2,0,0.3l0,0.1l0.1,0c0.3,0.1,0.6,0.2,0.9,0.3l0.2,0.1
	l0-0.3c-0.1-0.8-0.1-1-0.1-1.4v-2.8c0-0.7,0.1-0.8,0.1-1l0.1-0.1l-0.3-0.1l-1-0.4l-0.3-0.1l0.1,0.3c0.2,0.4,0.2,1,0.2,1.2v2.1
	c0,0.4,0,0.4,0,0.5c-0.1,0.3-0.4,0.4-0.7,0.4c-0.1,0-0.3,0-0.4-0.1c-0.3-0.1-0.9-0.5-1.1-1.2c-0.1-0.2-0.1-0.4-0.1-0.7v-1.9
	c0-0.7,0-0.9,0.2-1.2l0.1-0.1l-1.5-0.5l0.1,0.3C42.1,132.4,42.1,132.6,42.1,133.4z M36.4,131.2c0.2,0,0.3,0,0.5,0.1v3.3
	c0,0.6-0.1,1-0.1,1.3l0,0.2l1.5,0.3l-0.1-0.2c-0.1-0.4-0.2-0.8-0.1-1.3v-3.3c0.5,0.1,0.7,0.2,1.2,0.5l0.1,0.1l0.1-0.1
	c0.1-0.3,0.3-0.5,0.4-0.7l0.1-0.2l-0.2,0c-1.3-0.3-2.7-0.6-4-0.8l-0.1,0l-0.4,1.2l0.2,0C35.8,131.2,36.1,131.2,36.4,131.2
	L36.4,131.2z M31.6,134.2c-0.1,0-0.2,0-0.2,0c-1.3-0.1-1.9-1.1-1.9-2c0-1.1,0.7-1.8,1.7-1.8c0.1,0,0.1,0,0.2,0
	c0.6,0.1,1,0.3,1.3,0.5l0.2,0.1v-1.2l-0.1,0c-0.3-0.1-0.6-0.3-1.2-0.3c-0.1,0-0.2,0-0.3,0c-1.4,0-2.9,1-2.9,2.8c0,0.3,0.1,1,0.6,1.7
	c0.5,0.7,1.3,1.1,2.2,1.1c0.1,0,0.3,0,0.4,0c0.6,0,1-0.2,1.3-0.3l0.1,0l0.1-1.2l-0.2,0.1C32.6,134,32.3,134.2,31.6,134.2z M26,129.5
	l0.1-0.2l-1.6,0l0.1,0.2c0.1,0.3,0.2,0.6,0.2,1.2v2.5c0,0.8-0.1,1.2-0.2,1.5l-0.1,0.2l1.6,0l0-0.2c-0.2-0.5-0.2-0.8-0.2-1.4v-2.4
	C25.8,130.1,25.9,129.8,26,129.5z M19.2,134.6c0-0.3,0-0.5,0-1v-2.1c0-0.2,0-0.5,0-0.8c1.6,0.1,1.8,1.3,1.8,1.8
	C21,133.6,20.1,134.4,19.2,134.6L19.2,134.6z M19.5,129.8c-0.5,0-1,0.1-1.5,0.2l-0.1,0l0,0.1c0,0,0,0.1,0,0.1
	c0.1,0.3,0.2,0.6,0.2,1.3v2.2c0,1-0.1,1.3-0.2,1.6l-0.1,0.2l1.5-0.2c1.6-0.2,2.8-1.5,2.8-3.1c0-0.6-0.2-1.2-0.6-1.6
	C21.1,130.1,20.4,129.8,19.5,129.8L19.5,129.8z">
 </path>
</svg>