<svg xmlns="http://www.w3.org/2000/svg" viewBox="0 0 143.2 64.4" role="img" aria-label="LS Securities mark">
  <title>LS Securities mark</title>
  <path fill="#003378" d="M84 41.3c3.8 0 5.8.5 5.9 3 0 1.4-.9 3-1.9 3.8-2.3 1.8-4.3 2-15.1 2H19.7L29.9 7.1H12.2c-1.2 0-1.6.3-2 1.8L.4 49.1c-1.8 8 2.3 15.3 11.5 15.3h24.4c6.2 0 14.5-6.7 17.8-13 .2-.3.3-.6.4-.8 0 0 .1-.1.1 0 0 0 0 0 0 0-.5 2.2-2.4 10.2-2.7 11.4-.4 1.7.5 2.3 1.3 2.3h26.3c22.3 0 31-10.6 31.7-23.3.4-7.1-4.1-11.8-16.9-11.8h-9.8c-3.5 0-7.1-1.1-7.1-4 0-2.8 3.9-5.3 9.2-5.3h23.9s2.1-8.4 2.5-10.1c.5-2.2-.1-2.8-1.8-2.8H81.7c-17.2 0-24.9 11.5-24.9 19.7 0 8.2 6.6 14.5 23.6 14.5H84z"/>
  <path fill="#E6003E" d="M95.6 0h47.6l-24.5 12.6s1-4.1 1.3-5.3c.3-1.3-.1-2.3-1.9-2.7C116.2 4.2 95.6 0 95.6 0z"/>
</svg>
