<?xml version="1.0" encoding="UTF-8" standalone="no"?>
<!-- Created with Inkscape (http://www.inkscape.org/) -->

<svg
   width="400"
   height="400"
   viewBox="0 0 400 400"
   version="1.1"
   id="SVGRoot"
   xml:space="preserve"
   xmlns:xlink="http://www.w3.org/1999/xlink"
   xmlns="http://www.w3.org/2000/svg"
   xmlns:svg="http://www.w3.org/2000/svg"><defs
     id="defs132"><linearGradient
       id="linearGradient4208"><stop
         style="stop-color:#eeb267;stop-opacity:1;"
         offset="0.50136834"
         id="stop4204" /><stop
         style="stop-color:#e5ad61;stop-opacity:1;"
         offset="0.94851613"
         id="stop4206" /></linearGradient><radialGradient
       xlink:href="#linearGradient4208"
       id="radialGradient4210"
       cx="877.3103"
       cy="102.66908"
       fx="877.3103"
       fy="102.66908"
       r="187.4995"
       gradientTransform="matrix(1,0,0,0.92423968,0,7.7782431)"
       gradientUnits="userSpaceOnUse" /><radialGradient
       xlink:href="#linearGradient4208"
       id="radialGradient23153"
       gradientUnits="userSpaceOnUse"
       gradientTransform="matrix(1,0,0,0.92423968,0,7.7782431)"
       cx="877.3103"
       cy="102.66908"
       fx="877.3103"
       fy="102.66908"
       r="187.4995" /></defs><g
     id="layer1"><g
       id="g8347"
       transform="matrix(-1,0,0,1,1079.6675,95.572563)"
       style="fill:url(#radialGradient4210);fill-opacity:1"><path
         id="path1771"
         style="fill:url(#radialGradient23153);fill-opacity:1;stroke-width:2.20249"
         d="m 888.84328,-70.613579 a 136.55569,79.38302 38.932858 0 1 155.61722,96.234375 136.55569,79.38302 38.932858 0 1 -30.961,114.773434 136.55569,79.38302 38.932858 0 1 -27.66012,-1.29296 127.43382,65.748709 45.966387 0 0 7.60546,-108.496099 127.43382,65.748709 45.966387 0 0 -125.61328,-93.767578 155.42046,79.173102 86.029999 0 1 6.67188,2.69336 155.42046,79.173102 86.029999 0 1 64.35742,191.751957 155.42046,79.173102 86.029999 0 1 -25.06445,82.07812 29.648651,161.34844 86.205419 0 1 128.41799,20.35938 29.648651,161.34844 86.205419 0 1 -158.40823,40.33398 29.648651,161.34844 86.205419 0 1 -163.56445,-18.75195 29.648651,161.34844 86.205419 0 1 133.66797,-38.31446 148.59723,64.004365 89.542716 0 0 43.68945,-108.08593 148.59723,64.004365 89.542716 0 0 -38.32617,-169.806644 72.913778,39.989764 88.705081 0 0 -23.20508,77.074218 72.913778,39.989764 88.705081 0 0 42.91016,62.732422 49.943344,75.534665 1.954172 0 1 -12.67383,5.890625 49.943344,75.534665 1.954172 0 1 -56.2793,-62.115234 49.943344,75.534665 1.954172 0 1 27.98047,-79.478516 55.954117,108.61502 47.287252 0 0 -85.37891,70.59961 55.954117,108.61502 47.287252 0 0 6.69336,89.410159 67.005613,117.34814 54.689787 0 1 -24.34765,1.06445 67.005613,117.34814 54.689787 0 1 -27.25,-94.5820311 67.005613,117.34814 54.689787 0 1 135.85351,-79.3144529 67.005613,117.34814 54.689787 0 1 7.66407,0.349609 67.005613,117.34814 54.689787 0 1 13.77539,2.902344 136.55569,79.38302 38.932858 0 1 16.39453,-3.830078 136.55569,79.38302 38.932858 0 1 7.43359,-0.41211 z" /></g></g></svg>
