<svg xmlns="http://www.w3.org/2000/svg" viewBox="-2457.7 882.5 64 65">
  <rect x="-2457.7" y="882.5" width="64" height="65" fill="#02283E"/>
  <path fill="#FFFFFF" d="M-2395,945.9c0-0.4,0.1-0.7,0.1-0.9c0-1.7,0-3.5,0-5.2c0-18.4,0-36.9,0-55.3c0-1,0-1-1-1c-7.4,0-14.8,0-22.2,0c-0.7,0-0.9,0.2-0.9,0.9c0,3.5,0,6.9,0,10.4c0,0.7,0.3,0.9,0.9,0.9c3.4,0,6.8,0,10.1,0c1,0,1,0,1,1c0,6.8,0,13.6,0,20.4c0,7.6,0,15.1,0,22.7c0,0.5,0,0.9,0.6,1.2c3,1.3,6,2.7,8.9,4C-2396.7,945.2-2395.9,945.5-2395,945.9z M-2412.9,923.6c0-7.1,0-14.2,0-21.3c0-0.9,0-0.9-0.9-0.9c-7.5,0-14.9,0-22.4,0c-0.7,0-0.9,0.2-0.9,0.9c0,3.5,0,6.9,0,10.4c0,0.7,0.3,0.9,0.9,0.9c3.3,0,6.6,0,9.9,0c1.3,0,1.3-0.2,1.3,1.3c0,8.3,0,16.5,0,24.8c0,0.7,0.2,1.1,0.9,1.3c1.5,0.6,2.9,1.3,4.4,2c2.1,0.9,4.1,1.8,6.2,2.8c0.5,0.2,0.7,0.1,0.7-0.4c0-0.2,0-0.4,0-0.6C-2412.9,937.6-2412.9,930.6-2412.9,923.6z M-2430.9,932.7c0-4.1,0-8.3,0-12.4c0-0.6-0.2-0.9-0.9-0.9c-7.4,0-14.9,0-22.3,0c-0.9,0-0.9,0-0.9,0.9c0,5.4,0,10.9,0,16.3c0,0.7,0.2,1,0.8,1.2c2.2,0.7,4.3,1.5,6.5,2.3c5.3,1.8,10.6,3.7,15.9,5.5c0.9,0.3,0.9,0.3,0.9-0.7C-2430.9,940.9-2430.9,936.8-2430.9,932.7z"/>
</svg>
