<svg xmlns="http://www.w3.org/2000/svg" viewBox="0 0 370 354">
<path d="M0 0 C7.019 4.04 12.434 10.139 14.625 18 C15.577 25.224 15.266 30.028 11.613 36.379 C7.582 44.06 7.95 51.352 8.25 59.75 C8.28 61.237 8.308 62.724 8.332 64.211 C8.397 67.809 8.5 71.404 8.625 75 C9.238 74.668 9.851 74.336 10.482 73.994 C47.571 54 47.571 54 61.625 54 C61.866 53.261 62.107 52.523 62.355 51.762 C63.797 48.626 65.344 47.066 67.938 44.812 C68.697 44.138 69.456 43.464 70.238 42.77 C75.488 38.877 81.196 37.925 87.625 38 C96.137 39.5 102.816 43.237 108.301 49.945 C111.898 55.527 113.43 62.449 112.625 69 C110.458 76.946 107.836 83.062 100.938 87.875 C98.625 89 98.625 89 96.625 89 C96.55 89.597 96.475 90.194 96.398 90.809 C94.529 103.142 89.873 114.685 84.625 125.938 C84.317 126.598 84.01 127.259 83.693 127.94 C81.02 133.504 77.858 138.746 74.625 144 C79.358 143.956 84.09 143.886 88.822 143.792 C90.43 143.764 92.038 143.743 93.646 143.729 C95.965 143.707 98.283 143.661 100.602 143.609 C101.671 143.608 101.671 143.608 102.761 143.606 C107.844 143.458 110.631 142.055 114.625 139 C121.662 135.727 129.652 135.997 136.875 138.562 C143.912 141.746 148.761 146.867 151.906 153.902 C154.222 160.661 154.121 167.31 151.625 174 C148.244 180.888 143.652 185.814 136.625 189 C128.711 191.346 122.115 191.723 114.617 188.004 C110.173 185.548 110.173 185.548 108.625 184 C106.249 183.912 103.903 183.885 101.527 183.902 C100.818 183.904 100.11 183.905 99.379 183.907 C97.107 183.912 94.835 183.925 92.562 183.938 C91.025 183.943 89.488 183.947 87.951 183.951 C84.176 183.962 80.4 183.979 76.625 184 C76.625 187.932 78.058 189.594 80.125 192.938 C87.476 205.31 96.625 223.362 96.625 238 C97.306 238.186 97.986 238.371 98.688 238.562 C104.902 241.604 108.551 246.025 111.062 252.438 C113.978 261.714 112.633 268.164 108.625 277 C105.116 282.765 99.214 286.416 92.812 288.375 C85.417 289.886 77.908 288.879 71.34 285.172 C67.402 282.481 64.231 278.978 61.625 275 C61.625 274.34 61.625 273.68 61.625 273 C60.476 272.887 59.328 272.773 58.145 272.656 C53.672 272.091 49.574 270.943 45.312 269.5 C44.546 269.242 43.78 268.985 42.991 268.719 C30.922 264.51 19.332 258.982 8.625 252 C8.501 256.553 8.41 261.105 8.35 265.66 C8.325 267.206 8.291 268.752 8.248 270.297 C7.913 282.494 7.913 282.494 13.625 293 C15.824 299.598 15.651 307.516 12.938 313.938 C8.77 321.826 3.779 325.672 -4.375 329 C-12.329 331.319 -19.071 329.475 -26.375 326 C-32.011 322.398 -35.915 317.615 -37.953 311.172 C-39.777 301.782 -38.587 293.998 -33.375 286 C-33.045 285.67 -32.715 285.34 -32.375 285 C-32.287 282.552 -32.26 280.132 -32.277 277.684 C-32.279 276.953 -32.28 276.221 -32.282 275.468 C-32.287 273.125 -32.3 270.781 -32.312 268.438 C-32.318 266.852 -32.322 265.267 -32.326 263.682 C-32.337 259.788 -32.354 255.894 -32.375 252 C-33.007 252.352 -33.638 252.704 -34.289 253.066 C-46.091 259.579 -57.793 265.591 -70.625 269.812 C-71.629 270.143 -72.633 270.474 -73.668 270.814 C-78.073 272.195 -81.725 273.171 -86.375 273 C-86.54 273.846 -86.705 274.691 -86.875 275.562 C-89.431 281.42 -94.353 285.387 -100.188 287.938 C-109.071 290.719 -117.267 289.238 -125.375 285 C-131.155 281.404 -134.799 275.594 -136.75 269.125 C-138.339 261.225 -136.692 254.272 -132.906 247.262 C-130.961 244.388 -128.778 242.341 -126.023 240.254 C-125.479 239.84 -124.935 239.426 -124.375 239 C-123.856 238.618 -123.336 238.237 -122.801 237.844 C-120.543 234.925 -120.031 231.463 -119.188 227.938 C-115.216 212.619 -108.016 198.779 -100.375 185 C-104.645 182.865 -110.207 183.691 -114.904 183.65 C-116.291 183.633 -117.678 183.606 -119.064 183.568 C-129.632 183.172 -129.632 183.172 -138.787 187.785 C-142.961 190.978 -148.177 191.199 -153.25 190.938 C-160.466 189.972 -166.873 187.04 -171.812 181.625 C-177.694 173.811 -178.498 166.696 -177.375 157 C-174.988 148.846 -169.769 143.095 -162.469 138.906 C-156.301 136.176 -149.197 135.776 -142.777 137.832 C-139.398 139.299 -136.444 140.954 -133.375 143 C-130.767 143.24 -128.256 143.373 -125.645 143.414 C-124.894 143.433 -124.144 143.453 -123.371 143.473 C-120.976 143.532 -118.582 143.579 -116.188 143.625 C-114.563 143.663 -112.939 143.702 -111.314 143.742 C-107.335 143.838 -103.355 143.922 -99.375 144 C-100.016 142.898 -100.656 141.796 -101.316 140.66 C-121.375 105.681 -121.375 105.681 -121.375 89 C-122.097 88.752 -122.819 88.505 -123.562 88.25 C-130.777 85.043 -133.437 80.051 -136.375 73 C-138.704 65.046 -136.839 58.306 -133.375 51 C-129.25 44.373 -123.615 41.413 -116.375 39 C-108.463 38.265 -101.212 38.667 -94.375 43 C-91.368 45.757 -88.697 48.64 -86.375 52 C-86.375 52.66 -86.375 53.32 -86.375 54 C-84.865 54.294 -84.865 54.294 -83.324 54.594 C-67.678 57.84 -43.996 64.379 -32.375 76 C-32.225 71.52 -32.117 67.042 -32.045 62.56 C-32.016 61.041 -31.975 59.523 -31.922 58.004 C-31.608 48.68 -31.936 41.86 -37.009 33.666 C-39.984 27.862 -39.384 21.298 -37.52 15.203 C-34.215 7.761 -29.038 3.227 -22.188 -0.938 C-14.696 -3.025 -7.181 -3.245 0 0 Z M-21.188 18.75 C-22.946 22.082 -22.888 24.283 -22.375 28 C-20.585 30.97 -18.525 33.425 -15.375 35 C-10.816 35.53 -10.816 35.53 -6.617 33.953 C-3.049 31.023 -1.528 29.329 -1 24.75 C-1.485 19.896 -2.722 18.197 -6.375 15 C-12.562 12.767 -16.543 14.265 -21.188 18.75 Z M-14.375 51 C-15.457 54.247 -15.548 56.735 -15.621 60.152 C-15.668 62.015 -15.668 62.015 -15.716 63.916 C-15.732 64.573 -15.747 65.229 -15.763 65.906 C-16.17 82.581 -16.879 99.071 -20.789 115.348 C-21.483 118.036 -21.483 118.036 -21.375 121 C-15.435 121 -9.495 121 -3.375 121 C-4.312 115.571 -4.312 115.571 -5.26 110.143 C-7.308 98.065 -7.627 85.965 -7.927 73.747 C-8.119 66.119 -8.363 58.57 -9.375 51 C-11.025 51 -12.675 51 -14.375 51 Z M-119.375 59 C-121.119 62.489 -120.94 66.193 -120.375 70 C-118.374 73.001 -116.903 74.47 -113.473 75.66 C-109.539 76.438 -107.69 76.152 -104 74.375 C-101.235 71.873 -100.15 70.618 -99.375 67 C-99.579 62.114 -101.045 59.531 -104.375 56 C-110.09 53.142 -114.752 55.258 -119.375 59 Z M76.625 59 C74.714 63.22 74.425 65.252 75.625 69.75 C77.979 73.576 79.351 74.685 83.625 76 C87.899 76 90.026 75.408 93.562 73 C96.007 69.445 96.291 67.382 96.059 63.156 C95.418 59.97 93.959 58.197 91.625 56 C86.068 53.222 80.566 54.479 76.625 59 Z M-84.375 72 C-83.011 75.255 -81.745 76.722 -78.727 78.523 C-77.978 78.98 -77.229 79.437 -76.458 79.908 C-75.241 80.634 -75.241 80.634 -74 81.375 C-66.71 85.844 -59.612 90.508 -52.625 95.438 C-51.805 96.016 -50.984 96.595 -50.139 97.191 C-44.076 101.483 -44.076 101.483 -41.314 103.52 C-38.175 106.113 -38.175 106.113 -34.375 107 C-33.391 102.895 -32.861 99.209 -33.375 95 C-36.031 91.552 -39.535 89.934 -43.375 88 C-44.61 87.339 -45.844 86.676 -47.078 86.012 C-64.989 76.164 -64.989 76.164 -84.375 72 Z M10.625 93 C9.965 93.66 9.305 94.32 8.625 95 C8.603 97.678 8.603 97.678 9 100.625 C9.111 101.628 9.222 102.631 9.336 103.664 C9.431 104.435 9.527 105.206 9.625 106 C13.11 106 13.835 105.392 16.59 103.395 C17.38 102.829 18.171 102.264 18.985 101.681 C19.836 101.065 20.686 100.448 21.562 99.812 C28.737 94.696 35.974 89.721 43.375 84.938 C44.183 84.415 44.991 83.892 45.824 83.353 C50.73 80.191 55.667 77.08 60.625 74 C60.13 73.01 60.13 73.01 59.625 72 C43.019 72 24.35 84.526 10.625 93 Z M-104.375 91 C-99.668 109.902 -91.49 127.026 -80.375 143 C-76.415 142.34 -72.455 141.68 -68.375 141 C-69.885 137.979 -71.31 135.544 -73.246 132.832 C-73.815 132.029 -74.384 131.227 -74.971 130.4 C-75.578 129.546 -76.186 128.692 -76.812 127.812 C-81.465 121.227 -86.018 114.598 -90.375 107.812 C-90.824 107.116 -91.272 106.419 -91.734 105.701 C-93.601 102.793 -95.452 99.877 -97.281 96.945 C-97.807 96.118 -98.333 95.29 -98.875 94.438 C-99.298 93.756 -99.721 93.074 -100.156 92.371 C-100.558 91.919 -100.961 91.466 -101.375 91 C-102.365 91 -103.355 91 -104.375 91 Z M76.625 91 C74.675 93.303 74.675 93.303 72.781 96.344 C72.415 96.9 72.05 97.457 71.673 98.03 C70.481 99.848 69.303 101.674 68.125 103.5 C67.312 104.744 66.497 105.987 65.681 107.229 C64.066 109.689 62.455 112.151 60.847 114.614 C58.038 118.907 55.161 123.151 52.25 127.375 C51.829 127.991 51.408 128.606 50.975 129.24 C49.181 131.844 47.343 134.344 45.336 136.789 C43.421 138.798 43.421 138.798 43.625 141 C47.879 142.064 52.286 142.895 56.625 142 C58.681 139.793 59.733 138.297 61.062 135.688 C61.43 135.02 61.797 134.352 62.175 133.664 C63.364 131.461 64.498 129.235 65.625 127 C66.019 126.241 66.413 125.481 66.819 124.699 C72.45 113.783 76.594 102.897 79.625 91 C78.635 91 77.645 91 76.625 91 Z M-76.375 99 C-74.789 103.677 -72.247 107.37 -69.438 111.375 C-68.958 112.065 -68.479 112.756 -67.985 113.467 C-62.91 120.738 -57.662 127.882 -52.375 135 C-47.957 134.253 -45.599 133.224 -42.375 130 C-41.654 128.019 -40.98 126.02 -40.375 124 C-47.932 117.578 -55.707 111.879 -64 106.438 C-65.087 105.715 -66.173 104.992 -67.293 104.248 C-71.543 100.847 -71.543 100.847 -76.375 99 Z M50.625 99 C41.452 104.976 32.36 111.043 23.562 117.562 C22.879 118.062 22.195 118.562 21.49 119.077 C17.682 121.859 17.682 121.859 15.625 126 C17.017 129.93 18.058 131.645 21.625 133.875 C24.559 135.176 24.559 135.176 27.625 135 C29.191 133.465 29.191 133.465 30.629 131.371 C31.2 130.59 31.772 129.808 32.361 129.003 C32.964 128.157 33.566 127.31 34.188 126.438 C35.115 125.157 35.115 125.157 36.061 123.85 C41.448 116.365 46.606 108.736 51.625 101 C51.13 100.01 51.13 100.01 50.625 99 Z M-32.461 144.805 C-37.894 151.036 -39.735 157.901 -39.66 166.012 C-38.944 173.521 -35.585 180.479 -29.777 185.336 C-22.243 191.065 -14.673 191.913 -5.375 191 C3.69 188.425 8.687 183.389 13.391 175.438 C16.463 169.37 16.717 162.103 14.977 155.562 C11.728 147.565 6.444 141.153 -1.535 137.676 C-12.966 133.477 -23.896 136.603 -32.461 144.805 Z M-160.188 157.75 C-161.904 161.002 -161.757 163.375 -161.375 167 C-159.724 170.539 -158.659 171.811 -155.375 174 C-150.246 174.654 -150.246 174.654 -145.555 172.949 C-142.281 170.268 -140.541 168.464 -140.062 164.25 C-140.457 160.142 -141.781 158.171 -144.375 155 C-150.188 150.874 -155.453 153.179 -160.188 157.75 Z M116.188 158.75 C115.291 162.335 115.465 165.534 116.625 169 C119.078 171.871 120.891 173.587 124.625 174.477 C128.683 174.769 130.441 174.153 133.562 171.562 C134.583 170.294 134.583 170.294 135.625 169 C135.955 168.67 136.285 168.34 136.625 168 C137.128 163.051 137.16 160.92 134.625 156.562 C131.418 153.823 129.737 152.987 125.621 152.762 C121.461 153.258 118.766 155.611 116.188 158.75 Z M-63.225 155.321 C-76.688 158.35 -90.198 159.103 -103.948 159.821 C-107.807 160.023 -111.664 160.254 -115.521 160.49 C-118.472 160.669 -121.423 160.836 -124.375 161 C-124.375 162.98 -124.375 164.96 -124.375 167 C-123.606 167.02 -122.838 167.04 -122.046 167.06 C-99.023 167.681 -76.945 169.129 -54.375 174 C-54.375 167.4 -54.375 160.8 -54.375 154 C-57.495 154 -60.199 154.623 -63.225 155.321 Z M30.625 154 C30.955 160.27 31.285 166.54 31.625 173 C33.131 172.711 34.636 172.423 36.188 172.125 C52.708 169.135 69.173 167.955 85.938 167.438 C87.275 167.394 88.613 167.351 89.951 167.307 C93.176 167.202 96.4 167.1 99.625 167 C99.625 165.02 99.625 163.04 99.625 161 C98.655 160.955 97.685 160.91 96.685 160.864 C74.442 159.817 52.484 158.52 30.625 154 Z M-80.375 185 C-89.896 197.377 -104.939 220.841 -103.375 237 C-99.018 235.548 -97.872 232.174 -95.688 228.375 C-87.403 214.374 -77.843 201.216 -68.375 188 C-68.87 187.01 -68.87 187.01 -69.375 186 C-71.961 185.532 -71.961 185.532 -74.938 185.375 C-76.455 185.263 -76.455 185.263 -78.004 185.148 C-79.178 185.075 -79.178 185.075 -80.375 185 Z M43.625 187 C46.737 191.7 49.875 196.38 53.07 201.023 C61.205 212.848 69.061 224.802 76.625 237 C77.615 236.34 78.605 235.68 79.625 235 C71.419 208.003 71.419 208.003 55.625 185 C51.316 184.62 47.716 185.717 43.625 187 Z M-51.375 192 C-60.522 203.692 -69.116 215.664 -77.375 228 C-73.345 228 -71.085 226.076 -67.875 223.875 C-66.912 223.225 -66.912 223.225 -65.929 222.561 C-57.233 216.626 -48.805 210.305 -40.375 204 C-41.124 199.138 -42.568 197.202 -46.375 194 C-48.025 193.293 -49.69 192.619 -51.375 192 Z M25.625 192 C20.704 193.874 20.704 193.874 17.734 197.946 C16.981 199.951 16.278 201.96 15.625 204 C24.569 210.516 33.534 217.002 42.625 223.312 C43.638 224.023 43.638 224.023 44.672 224.747 C47.853 227.18 47.853 227.18 51.625 228 C50 223.048 47.136 219.186 44.125 215 C43.33 213.885 43.33 213.885 42.518 212.748 C35.252 200.996 35.252 200.996 25.625 192 Z M-21.375 207 C-21.098 208.449 -20.821 209.898 -20.535 211.391 C-20.169 213.344 -19.803 215.297 -19.438 217.25 C-19.255 218.199 -19.073 219.148 -18.885 220.125 C-16.483 233.052 -16.147 246.007 -15.823 259.113 C-15.771 261.159 -15.714 263.204 -15.656 265.25 C-15.626 266.451 -15.596 267.653 -15.564 268.891 C-15.409 271.435 -15.116 273.576 -14.375 276 C-12.725 276 -11.075 276 -9.375 276 C-8.241 272.598 -8.216 269.919 -8.164 266.332 C-8.138 264.961 -8.111 263.59 -8.084 262.219 C-8.071 261.499 -8.057 260.78 -8.044 260.039 C-7.769 246.029 -6.776 232.337 -4.723 218.461 C-4.184 214.649 -3.78 210.828 -3.375 207 C-9.315 207 -15.255 207 -21.375 207 Z M10.625 220 C10.059 222.153 10.059 222.153 9.625 225 C9.398 226.279 9.171 227.558 8.938 228.875 C8.864 230.991 8.864 230.991 9.625 233 C15.624 238.596 23.448 242.182 30.812 245.625 C31.81 246.097 32.808 246.569 33.837 247.056 C46.253 253.276 46.253 253.276 59.625 256 C59.257 253.491 58.974 252.301 57.021 250.619 C56.332 250.207 55.643 249.795 54.934 249.371 C54.162 248.899 53.389 248.427 52.594 247.941 C51.759 247.445 50.923 246.949 50.062 246.438 C48.319 245.37 46.577 244.299 44.836 243.227 C43.959 242.688 43.082 242.15 42.179 241.595 C38.447 239.264 34.807 236.813 31.188 234.312 C30.541 233.866 29.894 233.42 29.228 232.959 C23.977 229.301 18.859 225.481 13.785 221.582 C11.937 219.902 11.937 219.902 10.625 220 Z M-42.625 225.125 C-49.426 229.969 -56.301 234.685 -63.25 239.312 C-64.141 239.907 -65.031 240.501 -65.949 241.113 C-71.456 244.771 -77.006 248.318 -82.707 251.668 C-83.257 252.108 -83.808 252.547 -84.375 253 C-84.375 253.99 -84.375 254.98 -84.375 256 C-67.814 252.65 -45.809 244.919 -33.375 233 C-33.007 228.433 -33.261 224.457 -34.375 220 C-37.001 220 -40.452 223.564 -42.625 225.125 Z M-119.375 256 C-120.995 259.24 -120.94 262.498 -120.375 266 C-119.035 268.807 -117.828 269.861 -115.375 272 C-111.316 273.255 -109.158 273.256 -105.125 271.938 C-101.75 269.559 -100.656 267.919 -99.375 264 C-99.293 259.35 -99.863 257.586 -102.938 254.062 C-108.622 249.936 -114.54 251.018 -119.375 256 Z M75.625 257 C74.509 260.349 74.422 262.224 75.312 265.625 C77.462 269.514 79.235 271.586 83.562 272.875 C87.973 273.055 90.338 271.87 93.938 269.438 C96.139 266.258 96.186 263.995 96.023 260.191 C95.437 256.967 93.976 255.213 91.625 253 C85.116 249.746 80.045 252.041 75.625 257 Z M-19.375 295 C-21.608 297.754 -22.31 299.483 -22.75 303 C-22.322 306.424 -21.436 308.252 -19.375 311 C-15.372 313.668 -12.082 313.834 -7.375 313 C-4.619 310.818 -2.939 309.128 -1.375 306 C-1.251 301.423 -1.497 298.004 -4.562 294.5 C-10.284 291.449 -13.904 291.353 -19.375 295 Z" fill="#3FC5E9" transform="translate(198.375,14)"/>
<path d="M0 0 C6.95 5.868 9.314 12.61 10.438 21.438 C9.464 29.365 6.743 36.397 1 42 C-3.3 45 -3.3 45 -6 45 C-6.075 45.597 -6.15 46.194 -6.227 46.809 C-8.096 59.142 -12.752 70.685 -18 81.938 C-18.308 82.598 -18.615 83.259 -18.932 83.94 C-21.605 89.504 -24.767 94.746 -28 100 C-23.267 99.956 -18.535 99.886 -13.803 99.792 C-12.195 99.764 -10.587 99.743 -8.979 99.729 C-6.66 99.707 -4.342 99.661 -2.023 99.609 C-0.954 99.608 -0.954 99.608 0.136 99.606 C5.219 99.458 8.006 98.055 12 95 C19.037 91.727 27.027 91.997 34.25 94.562 C41.287 97.746 46.136 102.867 49.281 109.902 C51.597 116.661 51.496 123.31 49 130 C45.619 136.888 41.027 141.814 34 145 C26.086 147.346 19.49 147.723 11.992 144.004 C7.548 141.548 7.548 141.548 6 140 C3.624 139.912 1.278 139.885 -1.098 139.902 C-1.807 139.904 -2.515 139.905 -3.246 139.907 C-5.518 139.912 -7.79 139.925 -10.062 139.938 C-11.6 139.943 -13.137 139.947 -14.674 139.951 C-18.449 139.962 -22.225 139.979 -26 140 C-26 143.932 -24.567 145.594 -22.5 148.938 C-15.149 161.31 -6 179.362 -6 194 C-5.319 194.186 -4.639 194.371 -3.938 194.562 C2.277 197.604 5.926 202.025 8.438 208.438 C11.353 217.714 10.008 224.164 6 233 C2.491 238.765 -3.411 242.416 -9.812 244.375 C-17.208 245.886 -24.717 244.879 -31.285 241.172 C-35.223 238.481 -38.394 234.978 -41 231 C-41 230.34 -41 229.68 -41 229 C-42.723 228.83 -42.723 228.83 -44.48 228.656 C-48.953 228.091 -53.051 226.944 -57.312 225.5 C-58.079 225.242 -58.846 224.983 -59.636 224.717 C-68.059 221.775 -76.069 218.072 -83.995 213.992 C-86.172 212.88 -86.172 212.88 -89.23 211.723 C-92.119 210.393 -93.41 209.775 -95 207 C-95.732 200.985 -94.856 194.958 -94 189 C-89.922 190.493 -86.356 192.474 -82.625 194.688 C-69.956 202.035 -56.874 207.364 -43 212 C-44.15 208.55 -44.702 208.278 -47.691 206.469 C-48.463 205.993 -49.236 205.518 -50.031 205.029 C-50.866 204.524 -51.702 204.02 -52.562 203.5 C-54.306 202.423 -56.048 201.344 -57.789 200.262 C-58.666 199.717 -59.543 199.172 -60.446 198.611 C-66.774 194.619 -72.903 190.333 -79 186 C-79.606 185.57 -80.212 185.14 -80.836 184.697 C-82.545 183.475 -84.243 182.241 -85.938 181 C-86.895 180.299 -87.853 179.597 -88.84 178.875 C-91 177 -91 177 -92 174 C-91.223 170.863 -91.223 170.863 -90.062 167.312 C-89.682 166.133 -89.302 164.954 -88.91 163.738 C-88.46 162.383 -88.46 162.383 -88 161 C-83.698 161 -83.156 161.269 -79.945 163.746 C-79.172 164.332 -78.398 164.919 -77.601 165.523 C-76.784 166.155 -75.967 166.787 -75.125 167.438 C-67.302 173.357 -59.348 178.852 -51 184 C-56.115 176.178 -61.312 168.431 -66.812 160.875 C-67.256 160.261 -67.699 159.646 -68.156 159.013 C-70.851 155.345 -73.701 152.139 -77 149 C-79.97 149.99 -79.97 149.99 -83 151 C-82.464 150.093 -81.928 149.185 -81.375 148.25 C-77.861 142.104 -74.242 135.726 -72 129 C-55.416 122.361 -34.235 122.822 -16.688 122.938 C-15.35 122.943 -14.012 122.947 -12.674 122.951 C-9.449 122.963 -6.225 122.979 -3 123 C-3 121.02 -3 119.04 -3 117 C-4.357 117.014 -4.357 117.014 -5.741 117.029 C-14.982 117.083 -24.15 116.789 -33.375 116.188 C-34.382 116.123 -34.382 116.123 -35.409 116.057 C-62.262 114.295 -62.262 114.295 -72 110 C-73.18 108.004 -73.18 108.004 -73.875 105.562 C-76.06 99.166 -79.865 94.28 -84 89 C-83.01 88.505 -83.01 88.505 -82 88 C-79.64 88.936 -77.304 89.933 -75 91 C-74.59 90.131 -74.59 90.131 -74.172 89.244 C-73.013 87.025 -71.725 85.109 -70.242 83.094 C-69.702 82.355 -69.162 81.616 -68.606 80.855 C-67.749 79.689 -67.749 79.689 -66.875 78.5 C-61.73 71.446 -56.754 64.325 -52 57 C-55.643 58.214 -58.527 60.19 -61.688 62.312 C-62.664 62.964 -62.664 62.964 -63.661 63.628 C-69.57 67.616 -75.262 71.873 -80.895 76.24 C-85.793 80 -85.793 80 -88 80 C-88.679 78.297 -89.343 76.587 -90 74.875 C-90.557 73.448 -90.557 73.448 -91.125 71.992 C-92.102 68.651 -92.448 66.462 -92 63 C-90.143 61.057 -88.601 59.739 -86.43 58.238 C-85.847 57.814 -85.265 57.39 -84.665 56.953 C-82.794 55.608 -80.903 54.299 -79 53 C-78.085 52.375 -78.085 52.375 -77.152 51.738 C-72.851 48.824 -68.494 45.998 -64.125 43.188 C-61.605 41.558 -59.087 39.926 -56.57 38.293 C-55.689 37.722 -55.689 37.722 -54.789 37.139 C-50.776 34.531 -46.854 31.836 -43 29 C-49.309 29.527 -54.53 31.044 -60.375 33.438 C-61.236 33.785 -62.096 34.133 -62.983 34.491 C-73.853 39.013 -83.943 44.919 -94 51 C-95.009 46.844 -95.102 42.956 -95.062 38.688 C-95.053 37.433 -95.044 36.179 -95.035 34.887 C-95.024 33.934 -95.012 32.981 -95 32 C-82.602 24.645 -70.186 18.244 -56.5 13.625 C-55.758 13.374 -55.017 13.123 -54.253 12.865 C-49.835 11.431 -45.617 10.522 -41 10 C-40.759 9.261 -40.518 8.523 -40.27 7.762 C-38.828 4.626 -37.281 3.066 -34.688 0.812 C-33.928 0.138 -33.169 -0.536 -32.387 -1.23 C-22.304 -8.706 -9.879 -6.564 0 0 Z M-26 15 C-27.911 19.22 -28.2 21.252 -27 25.75 C-24.646 29.576 -23.274 30.685 -19 32 C-14.726 32 -12.599 31.408 -9.062 29 C-6.618 25.445 -6.334 23.382 -6.566 19.156 C-7.207 15.97 -8.666 14.197 -11 12 C-16.557 9.222 -22.059 10.479 -26 15 Z M-26 47 C-27.95 49.303 -27.95 49.303 -29.844 52.344 C-30.21 52.9 -30.575 53.457 -30.952 54.03 C-32.144 55.848 -33.322 57.674 -34.5 59.5 C-35.313 60.744 -36.128 61.987 -36.944 63.229 C-38.559 65.689 -40.17 68.151 -41.778 70.614 C-44.587 74.907 -47.464 79.151 -50.375 83.375 C-50.796 83.991 -51.217 84.606 -51.65 85.24 C-53.444 87.844 -55.282 90.344 -57.289 92.789 C-59.204 94.798 -59.204 94.798 -59 97 C-54.746 98.064 -50.339 98.895 -46 98 C-43.944 95.793 -42.892 94.297 -41.562 91.688 C-41.195 91.02 -40.828 90.352 -40.45 89.664 C-39.261 87.461 -38.127 85.235 -37 83 C-36.606 82.241 -36.212 81.481 -35.806 80.699 C-30.175 69.783 -26.031 58.897 -23 47 C-23.99 47 -24.98 47 -26 47 Z M13.562 114.75 C12.666 118.335 12.84 121.534 14 125 C16.453 127.871 18.266 129.587 22 130.477 C26.058 130.769 27.816 130.153 30.938 127.562 C31.958 126.294 31.958 126.294 33 125 C33.33 124.67 33.66 124.34 34 124 C34.503 119.051 34.535 116.92 32 112.562 C28.793 109.823 27.112 108.987 22.996 108.762 C18.836 109.258 16.141 111.611 13.562 114.75 Z M-59 143 C-55.888 147.7 -52.75 152.38 -49.555 157.023 C-41.42 168.848 -33.564 180.802 -26 193 C-25.01 192.34 -24.02 191.68 -23 191 C-31.206 164.003 -31.206 164.003 -47 141 C-51.309 140.62 -54.909 141.717 -59 143 Z M-27 213 C-28.116 216.349 -28.203 218.224 -27.312 221.625 C-25.163 225.514 -23.39 227.586 -19.062 228.875 C-14.652 229.055 -12.287 227.87 -8.688 225.438 C-6.486 222.258 -6.439 219.995 -6.602 216.191 C-7.188 212.967 -8.649 211.213 -11 209 C-17.509 205.746 -22.58 208.041 -27 213 Z" fill="#A0DBEE" transform="translate(301,58)"/>
</svg>
