<svg xmlns="http://www.w3.org/2000/svg" viewBox="0 0 22 22">
<path d="M0 0 C7.26 0 14.52 0 22 0 C22 7.26 22 14.52 22 22 C14.74 22 7.48 22 0 22 C0 14.74 0 7.48 0 0 Z" fill="#0B0B0B" transform="translate(0,0)"/>
<path d="M0 0 C7.26 0 14.52 0 22 0 C21.67 0.66 21.34 1.32 21 2 C20.408 1.954 19.817 1.907 19.207 1.859 C14.876 1.662 12.668 1.563 8.938 4 C8.298 4.66 7.659 5.32 7 6 C8.671 8.55 9.871 9.928 12.562 11.438 C15.476 13.305 16.032 14.743 17 18 C15.68 18 14.36 18 13 18 C13 17.34 13 16.68 13 16 C11.35 15.67 9.7 15.34 8 15 C7.67 13.68 7.34 12.36 7 11 C5.35 11 3.7 11 2 11 C1.67 14.3 1.34 17.6 1 21 C11.395 20.505 11.395 20.505 22 20 C22 20.66 22 21.32 22 22 C14.74 22 7.48 22 0 22 C0 14.74 0 7.48 0 0 Z" fill="#424E50" transform="translate(0,0)"/>
<path d="M0 0 C0.99 0.33 1.98 0.66 3 1 C3.33 4.3 3.66 7.6 4 11 C0.401 11 -1.095 10.042 -4 8 C-4 7.34 -4 6.68 -4 6 C-4.66 5.67 -5.32 5.34 -6 5 C-1.605 0.996 -1.605 0.996 0 0 Z" fill="#1E1E1E" transform="translate(12,1)"/>
<path d="M0 0 C0.66 0.66 1.32 1.32 2 2 C2.742 1.959 3.485 1.918 4.25 1.875 C8.145 2.052 10.024 3.553 13 6 C14.375 8.75 14.375 8.75 15 11 C13.68 11 12.36 11 11 11 C11 10.34 11 9.68 11 9 C9.35 8.67 7.7 8.34 6 8 C5.67 6.68 5.34 5.36 5 4 C3.35 3.67 1.7 3.34 0 3 C0 2.01 0 1.02 0 0 Z" fill="#E2E2E2" transform="translate(2,7)"/>
<path d="M0 0 C0.99 0 1.98 0 3 0 C3 0.99 3 1.98 3 3 C1.68 3 0.36 3 -1 3 C-0.67 2.01 -0.34 1.02 0 0 Z" fill="#3F4040" transform="translate(5,7)"/>
</svg>
