<?xml version="1.0" encoding="UTF-8"?>
<svg xmlns="http://www.w3.org/2000/svg" viewBox="0 0 46 51" role="img" aria-label="Mercado Bitcoin">
  <path fill="#F58220" d="M0 15v20.8a4.5 4.5 0 0 0 2.3 3.9l18 10.4a4.5 4.5 0 0 0 4.5 0l18-10.4a4.5 4.5 0 0 0 2.2-4V15a4.5 4.5 0 0 0-2.2-3.8L24.8.6a4.5 4.5 0 0 0-4.5 0l-18 10.5A4.5 4.5 0 0 0 0 15Z"/>
  <circle cx="22.6" cy="25.4" r="14.9" fill="#273338"/>
  <path fill="#fff" d="M24.5 26.8h-4.2v4h4.1c1.4 0 2.2-.8 2.2-2s-.9-2-2-2Zm-.2-6.8h-4v3.8h3.9c1.2 0 2.1-.8 2.1-2 0-1-.9-1.8-2-1.8Zm6.3 1.3c0 1.4-.6 2.5-1.4 3.1-.6.4-1 .6-1.5.7 1.3.2 2.6 1.2 3 2.3.3.6.4 1.2.4 1.9 0 3.3-2.4 5-5.9 5H16V16.4h9.2c3.1 0 5.4 1.9 5.4 4.9Z"/>
</svg>
