<!-- Official MetaApi wordmark: https://metaapi.cloud -->
<svg width="177" height="33" viewBox="0 0 177 33" fill="none" xmlns="http://www.w3.org/2000/svg">
<path d="M7.42064 28.9365C2.92548 29.6632 0 27.694 0 27.694L13.2999 4.56698C14.7689 2.01898 18.0593 1.1382 20.6042 2.61037C23.1521 4.0794 24.0329 7.68434 22.5608 10.2292L14.6085 24.0544C13.0042 26.8069 10.085 28.5055 7.42064 28.9365Z" fill="url(#paint0_linear)"/>
<path d="M22.0889 25.7501C24.1871 29.1758 29.5001 31.4941 32.9132 25.1588C34.4294 22.3434 37.0497 17.2002 38.2986 15.6054C42.4131 10.3489 46.4553 14.0199 46.4553 14.0199C46.4553 14.0199 42.7277 6.85095 41.3247 4.80626C40.3495 3.38442 35.8481 -0.947172 31.721 5.12083C28.9433 9.20391 27.2856 13.504 25.3919 15.7595C21.7051 20.1571 17.103 16.7221 17.103 16.7221C17.103 16.7221 20.7929 23.6331 22.0889 25.7501Z" fill="url(#paint1_linear)"/>
<path d="M32.844 25.7501C30.9094 29.3142 25.1183 31.4973 21.7052 25.1588C20.189 22.3434 17.5686 17.2002 16.3198 15.6054C12.2053 10.3489 8.16309 14.0199 8.16309 14.0199C8.16309 14.0199 11.8907 6.85095 13.2937 4.80626C14.2688 3.38442 18.7703 -0.947172 22.8974 5.12083C25.675 9.20391 27.3328 13.504 29.2265 15.7595C32.9132 20.1603 37.5154 16.7221 37.5154 16.7221C37.5154 16.7221 34.0299 23.567 32.844 25.7501Z" fill="url(#paint2_linear)"/>
<path d="M45.8671 29.1443C48.9334 29.1443 51.4192 26.6585 51.4192 23.5921C51.4192 20.5258 48.9334 18.04 45.8671 18.04C42.8007 18.04 40.3149 20.5258 40.3149 23.5921C40.3149 26.6585 42.8007 29.1443 45.8671 29.1443Z" fill="url(#paint3_linear)"/>
<path d="M76.6725 14.9162C76.6725 14.9508 76.6725 14.9854 76.6725 15.02V23.1736C76.6725 24.1708 75.8484 24.9981 74.8481 24.9981C73.8855 24.9981 72.989 24.1708 72.989 23.1736V15.02C72.989 14.9854 72.989 14.9508 72.989 14.9162C72.9544 13.0257 71.3721 11.4749 69.4469 11.4749C67.5532 11.4749 65.971 13.0571 65.971 15.0169V23.1705C65.971 23.2397 65.9364 23.3435 65.9364 23.4095C65.9364 23.4442 65.9364 23.5134 65.9364 23.5134C65.9018 23.5826 65.9018 23.6518 65.8326 23.721C65.8326 23.7556 65.8326 23.8248 65.8326 23.894C65.5243 24.5137 64.8354 24.995 64.1119 24.995C63.9735 24.995 63.8697 24.9604 63.769 24.9604C62.9417 24.7528 62.2905 24.067 62.2905 23.1705V15.02C62.2905 14.9854 62.2905 14.9854 62.2905 14.9854V9.65353C62.2905 8.58714 63.1147 7.79443 64.115 7.79443C64.8385 7.79443 65.4897 8.17191 65.7665 8.82621C66.8675 8.17191 68.1415 7.79443 69.4469 7.79443C71.6143 7.79443 73.5395 8.6878 74.8481 10.1694C76.122 8.69095 78.0818 7.79443 80.2492 7.79443C84.2064 7.79443 87.4056 11.0282 87.4056 15.02V23.1736C87.4056 24.1708 86.5814 24.9981 85.5811 24.9981C84.5808 24.9981 83.722 24.1708 83.722 23.1736V15.02C83.722 13.0603 82.1397 11.478 80.246 11.478C78.2894 11.4749 76.7417 13.0225 76.6725 14.9162Z" fill="#001021"/>
<path d="M90.8123 16.3947C90.8469 11.7171 94.4927 7.79443 99.2049 7.79443C103.678 7.79443 107.22 11.132 107.497 15.775C107.497 15.8096 107.497 15.8788 107.497 15.948C107.497 16.0172 107.497 16.1902 107.462 16.2563C107.358 17.0805 106.635 17.6309 105.672 17.6309H94.7318C94.9048 18.4237 95.2823 19.317 95.902 19.9021C96.6255 20.7294 98.0001 21.346 99.2049 21.4498C100.444 21.5536 101.923 21.2422 102.782 20.591C103.505 19.8329 104.914 19.9367 105.361 20.4872C105.808 20.9685 106.154 22.0003 105.361 22.7238C103.675 24.2715 101.646 24.995 99.2018 24.995C94.4927 24.9604 90.8469 21.0755 90.8123 16.3947ZM94.5619 14.7086H104.298C103.955 13.334 102.2 11.3019 99.2049 11.0628C96.2826 11.2012 94.8387 13.2994 94.5619 14.7086Z" fill="#001021"/>
<path d="M116.339 9.68832C116.339 10.7201 115.446 11.5789 114.414 11.5789H113.555V21.1763C114.622 21.1763 115.446 22.0351 115.446 23.1046C115.446 24.171 114.622 24.9952 113.555 24.9952C111.457 24.9952 109.737 23.2745 109.737 21.1763V11.5789H108.739C107.673 11.5789 106.849 10.7201 106.849 9.68832C106.849 8.62194 107.676 7.79777 108.739 7.79777H109.737V2.80559C109.737 1.73921 110.595 0.915039 111.662 0.915039C112.728 0.915039 113.552 1.73921 113.552 2.80559V7.79462H114.411C115.446 7.79462 116.339 8.62194 116.339 9.68832Z" fill="#001021"/>
<path d="M132.886 16.4296V23.1739C132.886 24.1711 132.058 24.9984 131.061 24.9984C130.168 24.9984 129.479 24.3441 129.271 23.5199C127.963 24.4479 126.415 24.9984 124.697 24.9984C122.357 24.9984 120.328 24.0358 118.85 22.4881C117.371 20.9059 116.509 18.7731 116.509 16.4327C116.509 14.0577 117.368 11.925 118.85 10.3773C120.328 8.79503 122.36 7.79785 124.697 7.79785C126.418 7.79785 127.966 8.38295 129.271 9.31092C129.479 8.45215 130.165 7.79785 131.061 7.79785C132.058 7.79785 132.886 8.62202 132.886 9.65694V16.4296ZM129.24 16.4296C129.24 14.9857 128.724 13.7463 127.897 12.8875C127.072 11.9596 125.902 11.4783 124.697 11.4783C123.458 11.4783 122.288 11.9596 121.498 12.8875C120.671 13.7463 120.19 14.9857 120.19 16.4296C120.19 17.8388 120.671 19.0782 121.498 19.9716C122.291 20.8304 123.458 21.3117 124.697 21.3117C125.902 21.3117 127.072 20.8304 127.897 19.9716C128.724 19.0782 129.24 17.8388 129.24 16.4296Z" fill="#001021"/>
<path d="M150.19 18.7701H139.215L137.082 24.4449C136.944 24.7877 136.635 24.9954 136.292 24.9954C136.223 24.9954 136.085 24.9608 135.984 24.9608C135.572 24.7877 135.33 24.2719 135.503 23.8598L143.861 1.53493C143.999 1.22666 144.342 1.01904 144.688 1.01904C145.066 1.01904 145.412 1.22666 145.515 1.53493L153.874 23.8598C154.047 24.2719 153.839 24.7877 153.427 24.9608C153.288 24.9608 153.219 24.9954 153.119 24.9954C152.81 24.9954 152.464 24.7877 152.326 24.4449L150.19 18.7701ZM139.834 17.084H149.57L144.72 4.14899L139.834 17.084Z" fill="#001021"/>
<path d="M155.868 16.8418V16.4989V16.156V8.96501C155.868 8.51832 156.245 8.1377 156.692 8.1377C157.173 8.1377 157.551 8.51518 157.551 8.96501V11.406C158.995 9.44629 161.335 8.1377 163.949 8.1377C168.492 8.1377 172.103 11.8873 172.103 16.4957C172.103 21.0727 168.492 24.8884 163.949 24.8884C161.335 24.8884 158.995 23.5798 157.551 21.5854V31.2175C157.551 31.6642 157.173 32.0448 156.692 32.0448C156.245 32.0448 155.868 31.6673 155.868 31.2175V16.8418ZM157.554 16.4989C157.554 20.2139 160.476 23.2086 163.952 23.2432C167.529 23.2086 170.42 20.2171 170.42 16.4989C170.42 12.7807 167.529 9.82378 163.952 9.82378C160.546 9.82378 157.692 12.6454 157.554 16.2221V16.4989Z" fill="#001021"/>
<path d="M174.547 3.46012C174.547 3.01344 174.924 2.63281 175.371 2.63281C175.852 2.63281 176.23 3.01029 176.23 3.46012V4.25283C176.23 4.73412 175.852 5.1462 175.371 5.1462C174.924 5.1462 174.547 4.73412 174.547 4.25283V3.46012ZM174.547 8.96505C174.547 8.48376 174.924 8.13774 175.371 8.13774C175.852 8.13774 176.23 8.48062 176.23 8.96505V24.1712C176.23 24.6179 175.852 24.9985 175.371 24.9985C174.924 24.9985 174.547 24.6211 174.547 24.1712V8.96505Z" fill="#001021"/>
<defs>
<linearGradient id="paint0_linear" x1="14.6295" y1="13.1873" x2="7.25014" y2="25.4483" gradientUnits="userSpaceOnUse">
<stop stop-color="#BE1E2B"/>
<stop offset="1" stop-color="#EE3333"/>
</linearGradient>
<linearGradient id="paint1_linear" x1="38.4094" y1="4.26571" x2="25.9838" y2="25.0733" gradientUnits="userSpaceOnUse">
<stop offset="0.00763373" stop-color="#EE552B"/>
<stop offset="0.6435" stop-color="#C71E2B"/>
</linearGradient>
<linearGradient id="paint2_linear" x1="28.5067" y1="21.7827" x2="14.864" y2="6.34245" gradientUnits="userSpaceOnUse">
<stop stop-color="#EA7445"/>
<stop offset="1" stop-color="#C61E2D"/>
</linearGradient>
<linearGradient id="paint3_linear" x1="42.1641" y1="20.2638" x2="50.4219" y2="27.687" gradientUnits="userSpaceOnUse">
<stop stop-color="#EC532F"/>
<stop offset="1" stop-color="#CE1419"/>
</linearGradient>
</defs>
</svg>
