<?xml version="1.0" encoding="utf-8"?>
<svg width="70" height="40" fill="none" xmlns="http://www.w3.org/2000/svg" xmlns:bx="https://boxy-svg.com">
  <g bx:origin="0.576 0.5">
    <path d="M 64.804 23.669 L 64.804 16.052 L 64.804 23.669 Z M 0 40 L 0 15.009 L 24.959 15.009 L 24.959 0 L 64.872 0 L 64.872 40 L 0 40 Z" fill="#FF0508"/>
    <path d="M 13.291 31.719 L 12.733 31.719 L 10.166 20.248 L 5.442 20.248 L 5.442 34.178 L 7.897 34.178 L 7.897 22.632 L 8.418 22.632 L 10.91 34.103 L 15.113 34.103 L 17.643 22.632 L 18.164 22.632 L 18.164 34.103 L 20.656 34.103 L 20.656 20.211 L 15.895 20.211 L 13.291 31.719 Z M 38.436 34.14 L 47.14 34.14 L 47.14 31.719 L 40.966 31.719 L 40.966 28.256 L 46.285 28.256 L 46.285 25.947 L 40.966 25.947 L 40.966 22.669 L 47.14 22.669 L 47.14 20.248 L 38.436 20.248 L 38.436 34.14 Z M 29.546 32.055 C 26.719 32.055 25.38 29.932 25.38 27.176 C 25.38 24.42 26.682 22.297 29.546 22.297 C 32.373 22.297 33.712 24.42 33.712 27.176 C 33.712 29.932 32.373 32.055 29.546 32.055 Z M 29.546 19.876 C 25.306 19.876 22.813 22.818 22.813 27.138 C 22.813 31.459 25.306 34.513 29.546 34.513 C 33.787 34.513 36.279 31.459 36.279 27.138 C 36.279 22.818 33.824 19.876 29.546 19.876 Z M 48.889 34.14 L 51.567 34.14 L 54.58 28.628 L 57.816 34.14 L 60.494 34.14 L 56.179 26.84 L 60.234 20.211 L 57.556 20.211 L 54.729 25.165 L 51.864 20.211 L 49.186 20.211 L 53.055 26.766 L 48.889 34.14 Z" fill="white"/>
  </g>
</svg>