<svg xmlns="http://www.w3.org/2000/svg" viewBox="0 0 44 29">
  <path d="M0.502524 29H2.7127C2.91363 29 3.11455 28.8983 3.21502 28.6947L3.41594 28.3895C4.21964 26.8632 5.62612 25.8456 7.33399 25.6421L7.8363 25.5404C8.13769 25.5404 8.43907 25.3369 8.64 25.0316L16.2752 6.7158C16.3756 6.51229 16.1747 6.20703 15.9738 6.30879L15.5719 6.41054C11.0511 7.52984 7.93676 10.379 5.92751 14.2456L5.82705 14.4491L0.000210676 28.2877C-0.100252 28.593 0.100673 29 0.502524 29Z" fill="#FF6900"/>
  <path d="M9.44344 28.9993H14.9689C15.0694 28.8976 15.1698 28.8976 15.2703 28.7958L16.1744 27.2695C20.8962 19.7397 31.9471 20.5537 35.4633 28.6941C35.5637 28.8976 35.6642 28.9993 35.8651 28.9993H39.7832C40.0846 28.9993 40.2855 28.7958 40.2855 28.4906L39.2808 17.7046C39.2808 17.5011 38.9795 17.5011 38.879 17.7046L37.9748 21.0625C37.8744 21.266 37.6734 21.4695 37.4725 21.3678L31.3443 20.5537C30.9425 20.452 30.5406 20.1467 30.3397 19.8414L28.23 14.7537C28.029 14.3467 28.3304 13.9397 28.7323 14.0414L32.3489 14.5502C32.5499 14.5502 32.7508 14.7537 32.7508 14.8555L33.3536 16.5853C33.454 16.7888 33.6549 16.7888 33.6549 16.5853L34.2577 14.3467C34.3582 14.0414 34.1573 13.7362 33.8559 13.7362L26.723 12.7186C21.5994 12.0063 20.6953 4.88354 25.417 2.95021L26.8235 2.33968C27.0244 2.23793 27.1249 2.44143 27.0244 2.64494L25.8189 4.68003C24.9147 6.3081 25.8189 8.34319 27.7276 8.64845L35.7647 9.76775C37.4725 9.97126 38.6781 8.24143 37.8744 6.71512L37.7739 6.10459C33.5545 -2.34102 21.5994 -1.934 17.9828 6.71512L17.7818 7.22389L8.94113 28.287C8.84067 28.5923 9.04159 28.9993 9.44344 28.9993Z" fill="#FF6900"/>
  <path d="M39.7832 14.4489L40.4864 14.3472C43.8017 13.8384 45.1077 9.76821 42.8975 7.3261L41.5915 6.0033C41.4911 5.90154 41.1897 6.0033 41.2901 6.20681L41.8929 7.93663C42.1943 8.85242 41.7925 9.86996 40.9888 10.3787L39.7832 14.4489Z" fill="#FF6900"/>
</svg>
