<svg version="1.2" xmlns="http://www.w3.org/2000/svg" viewBox="0 0 1550 1409" width="1550" height="1409">
	<defs>
		<clipPath clipPathUnits="userSpaceOnUse" id="cp1">
			<path d="m1.77 703.71c0 387.69 315.66 703.06 703.64 703.06 247.49 0 479.66-132.34 605.89-345.38 8.05-13.59 3.54-31.11-10.03-39.16-13.59-8.05-31.16-3.54-39.21 10.03-115.97 195.75-329.28 317.34-556.65 317.34-356.45 0-646.42-289.73-646.42-645.89 0-356.11 289.97-645.84 646.42-645.84 227.37 0 440.68 121.59 556.63 317.32 8.07 13.62 25.61 18.1 39.21 10.05 13.59-8.05 18.1-25.59 10.05-39.19-126.23-213.03-358.4-345.37-605.89-345.37-387.98 0-703.64 315.39-703.64 703.03z"/>
		</clipPath>
		<clipPath clipPathUnits="userSpaceOnUse" id="cp2">
			<path d="m925.2-602.11l1038.52 1588.26-1567.77 1023.43-1038.53-1588.26z"/>
		</clipPath>
		<linearGradient id="g1" x2="1" gradientUnits="userSpaceOnUse" gradientTransform="matrix(763.652,1168.853,-1169.478,764.06,282.643,125.229)">
			<stop offset="0" stop-color="#f8d50d"/>
			<stop offset="1" stop-color="#f5a310"/>
		</linearGradient>
	</defs>
	<style>
		.s0 { fill: #2b2e8c } 
		.s1 { fill: url(#g1) } 
	</style>
	<path class="s0" d="m1549.6 702.1c0 137.8-101.4 230.3-236.2 228.7-131.7-1.4-228.5-94.4-228.5-228.7 0-133.1 94.9-228 230.4-228.7 137.1-0.9 234.3 93.9 234.3 228.7zm-295.6 133.3q5.1 43.5 19.2 61.3c19.1 24.2 69.1 24.2 88.1 0q14.1-17.8 19.2-61.3 5.2-43.4 5.2-133.3 0-89.9-5.2-133.4-5.1-43.4-19.2-61.2c-19-24.2-69-24.2-88.1 0q-14.1 17.8-19.2 61.2-5.2 43.5-5.2 133.4 0 89.9 5.2 133.3z"/>
	<path class="s0" d="m1041.7 876.1q8 24.4 30.3 30v12.2h-213.4v-12.2q24.4-6.6 31-30.5 6.6-23.7 6.6-67.9v-185.2q0-77.5-55.5-77.7-20.4 0.2-40.1 18.3-19.7 18.3-24.4 41.8l0.9 16.7v186.1q0 44.2 8 68.4 8 24.4 30.5 30v12.2h-213.6v-12.2q24.4-6.6 30.9-30.5 6.6-23.7 6.6-67.9v-185.2q0-39.2-13.1-58.5-13.2-19-41.3-19.2-20.5 0.2-39.3 17.8-18.7 17.9-23.4 38.5v207.6q0 44.1 7.5 67.4 7.5 23.4 31 30v12.2h-213.7v-12.2q24.4-6.6 30.5-29.6 6.1-22.7 6.1-67.8v-216q0-25.4-9.8-39-9.9-13.4-37.8-26.5v-11.3l186.2-38.3v92.5c57-122.5 232.2-129.1 252.8 4.7q16-42 52.4-69.7c97.7-73.7 206.1-14.3 206.1 114.6v188q0 44.2 8 68.4z"/>
	<g id="Clip-Path" clip-path="url(#cp1)">
		<g>
			<g id="Clip-Path" clip-path="url(#cp2)">
				<g>
					<path class="s1" d="m690.7 1408.1v-1.4h-30.3v-1.5h-20.2v-1.4h-14.5v-1.4h-9.9v-1.6h-11.7v-1.4h-10.1v-1.4h-8.5v-1.4h-7.3v-1.5h-8.6v-1.4h-7.3v-1.4h-7.1v-1.4h-5.8v-1.6h-5.7v-1.4h-5.8v-1.4h-7.3v-1.4h-5.7v-1.5h-4.2v-1.4h-5.9v-1.4h-4.2v-1.6h-5.8v-1.4h-4.3v-1.4h-5.8v-1.4h-4.3v-1.5h-3v-1.4h-4.3v-1.4h-4.2v-1.4h-4.4v-1.6h-4.3v-1.4h-4.4v-1.4h-4.3v-1.4h-4.4v-1.5h-2.8v-1.4h-4.3v-1.4h-2.8v-1.6h-4.4v-1.4h-2.9v-1.4h-4.4v-1.4h-2.8v-1.5h-4.3v-1.4h-2.8v-1.4h-3v-1.4h-2.8v-1.6h-2.9v-1.4h-4.4v-1.4h-2.8v-1.4h-2.9v-1.5h-3v-1.4h-2.8v-1.4h-2.8v-1.6h-2.9v-1.4h-3v-1.4h-2.8v-1.4h-2.9v-1.4h-2.8v-1.5h-3v-1.4h-2.8v-1.4h-2.9v-1.6h-3v-1.4h-2.8v-1.4h-2.8v-1.4h-1.5v-1.5h-3v-1.4h-2.8v-1.4h-2.8v-1.6h-1.4v-1.4h-2.9v-1.4h-3v-1.4h-2.8v-1.4h-1.4v-1.5h-2.9v-1.4h-3v-1.4h-1.4v-1.6h-2.8v-1.4h-1.5v-1.4h-3v-1.4h-2.8v-1.5h-1.4v-1.4h-2.8v-1.4h-1.5v-1.4h-3v-1.6h-1.4v-1.4h-2.8v-1.4h-1.4v-1.4h-2.9v-1.5h-1.6v-1.4h-2.8v-1.4h-1.4v-1.6h-2.8v-1.4h-1.5v-1.4h-1.6v-1.4h-2.8v-1.5h-1.4v-1.4h-2.8v-1.4h-1.5v-1.4h-1.4v-1.6h-3v-1.4h-1.4v-1.4h-1.4v-1.4h-2.8v-1.5h-1.5v-1.4h-1.6v-1.4h-2.8v-1.6h-1.4v-1.4h-1.4v-1.4h-1.4v-1.4h-3.1v-1.5h-1.4v-1.4h-1.4v-1.4h-1.4v-1.4h-2.8v-1.6h-1.5v-1.4h-1.4v-1.4h-1.6v-1.4h-1.4v-1.5h-2.8v-1.4h-1.4v-1.4h-1.4v-1.4h-1.5v-1.6h-1.6v-1.4h-1.4v-1.4h-2.8v-1.5h-1.4v-1.4h-1.4v-1.4h-1.5v-1.4h-1.6v-1.6h-1.4v-1.4h-1.4v-1.4h-2.8v-1.4h-1.4v-1.5h-1.4v-1.4h-1.5v-1.4h-1.6v-1.4h-1.4v-1.6h-1.4v-1.4h-1.4v-1.4h-1.4v-1.5h-1.4v-1.4h-1.5v-1.4h-1.6v-1.4h-1.4v-1.6h-1.4v-1.4h-1.4v-1.4h-1.4v-1.4h-1.4v-1.5h-1.4v-1.4h-1.7v-1.4h-1.4v-1.4h-1.4v-1.6h-1.4v-1.4h-1.4v-1.4h-1.4v-1.4h-1.4v-1.5h-1.5v-1.4h-1.6v-1.4h-1.4v-1.6h-1.4v-1.4h-1.4v-1.4h-1.4v-1.4h-1.4v-2.9h-1.5v-1.4h-1.6v-1.4h-1.4v-1.6h-1.4v-1.4h-1.4v-1.4h-1.4v-1.4h-1.4v-2.9h-1.4v-1.4h-1.7v-1.4h-1.4v-1.6h-1.4v-1.4h-1.4v-1.4h-1.4v-2.9h-1.4v-1.4h-1.4v-1.4h-1.5v-1.6h-1.6v-1.4h-1.4v-2.8h-1.4v-1.5h-1.4v-1.4h-1.4v-1.4h-1.4v-3h-1.4v-1.4h-1.7v-1.4h-1.4v-1.5h-1.4v-2.8h-1.4v-1.4h-1.4v-1.6h-1.4v-2.8h-1.4v-1.4h-1.7v-1.5h-1.4v-2.8h-1.4v-1.4h-1.4v-1.6h-1.4v-2.8h-1.4v-1.5h-1.4v-2.8h-1.7v-1.4h-1.4v-3h-1.4v-1.4h-1.4v-1.4h-1.4v-2.9h-1.4v-1.4h-1.4v-3h-1.4v-1.4h-1.7v-2.9h-1.4v-1.4h-1.4v-2.8h-1.4v-1.4h-1.4v-3h-1.4v-2.9h-1.4v-1.4h-1.7v-2.8h-1.4v-1.6h-1.4v-2.8h-1.4v-1.5h-1.4v-2.8h-1.4v-2.8h-1.4v-1.6h-1.7v-2.8h-1.4v-2.9h-1.4v-2.8h-1.4v-1.6h-1.4v-2.8h-1.4v-2.9h-1.4v-2.8h-1.4v-1.4h-1.7v-3h-1.4v-2.9h-1.4v-2.8h-1.4v-3h-1.4v-2.8h-1.4v-2.9h-1.4v-2.8h-1.7v-3h-1.4v-2.8h-1.4v-2.9h-1.4v-2.8h-1.4v-3h-1.4v-2.8h-1.4v-2.9h-1.7v-2.8h-1.4v-3h-1.4v-4.3h-1.4v-2.8h-1.4v-3h-1.4v-2.8h-1.4v-2.9h-1.4v-4.4h-1.7v-2.8h-1.4v-4.3h-1.4v-2.8h-1.4v-4.4h-1.4v-2.9h-1.4v-4.4h-1.4v-4.3h-1.7v-2.8h-1.4v-4.4h-1.4v-4.3h-1.4v-4.2h-1.4v-4.4h-1.4v-4.3h-1.4v-4.4h-1.7v-4.3h-1.4v-2.8h-1.4v-5.8h-1.4v-4.3h-1.4v-5.8h-1.4v-5.7h-1.4v-4.4h-1.4v-5.7h-1.7v-4.4h-1.4v-7.1h-1.4v-5.8h-1.4v-5.7h-1.4v-7.3h-1.4v-5.6h-1.4v-7.3h-1.7v-8.7h-1.4v-8.6h-1.4v-7.1h-1.4v-10.1h-1.4v-11.5h-1.4v-11.5h-1.4v-14.5h-1.7v-18.6h-1.4v-33.1h-1.4v-24.6h1.4v-31.7h1.4v-18.6h1.7v-15.9h1.4v-11.6h1.4v-10h1.4v-10.1h1.4v-8.5h1.4v-8.7h1.4v-7.3h1.7v-8.6h1.4v-5.7h1.4v-5.9h1.4v-7h1.4v-5.9h1.4v-5.6h1.4v-5.9h1.7v-4.2h1.4v-5.9h1.4v-4.2h1.4v-5.9h1.4v-5.6h1.4v-4.5h1.4v-4.2h1.4v-4.4h1.7v-4.3h1.4v-4.2h1.4v-4.5h1.4v-4.2h1.4v-4.4h1.4v-2.9h1.4v-4.2h1.7v-2.8h1.4v-4.5h1.4v-4.2h1.4v-3h1.4v-4.3h1.4v-2.8h1.4v-4.4h1.7v-2.9h1.4v-2.8h1.4v-2.8h1.4v-4.5h1.4v-2.8h1.4v-2.8h1.4v-3h1.4v-2.9h1.7v-4.2h1.4v-2.8h1.4v-3.1h1.4v-2.8h1.4v-2.8h1.4v-3h1.4v-2.9h1.7v-2.8h1.4v-2.8h1.4v-3h1.4v-1.5h1.4v-2.8h1.4v-2.8h1.4v-3h1.7v-2.9h1.4v-2.8h1.4v-1.4h1.4v-2.8h1.4v-3.1h1.4v-2.8h1.4v-1.4h1.4v-2.8h1.7v-3h1.4v-1.5h1.4v-2.8h1.4v-2.8h1.4v-1.4h1.4v-3.1h1.4v-1.4h1.7v-2.8h1.4v-2.8h1.4v-1.4h1.4v-3.1h1.4v-1.4h1.4v-2.8h1.4v-1.4h1.7v-3h1.4v-1.5h1.4v-2.8h1.4v-1.4h1.4v-2.8h1.4v-1.4h1.4v-1.6h1.4v-2.9h1.7v-1.4h1.4v-2.8h1.4v-1.4h1.4v-1.6h1.4v-2.9h1.4v-1.4h1.4v-2.8h1.7v-1.4h1.4v-1.4h1.4v-1.6h1.4v-2.9h1.4v-1.4h1.4v-1.4h1.4v-2.8h1.7v-1.6h1.4v-1.5h1.4v-1.4h1.4v-2.8h1.4v-1.4h1.4v-1.4h1.4v-1.4h1.6v-3.1h1.5v-1.4h1.4v-1.4h1.4v-1.4h1.4v-1.4h1.4v-1.4h1.4v-3.1h1.4v-1.4h1.7v-1.4h1.4v-1.4h1.4v-1.4h1.4v-1.4h1.4v-3h1.4v-1.5h1.4v-1.4h1.6v-1.4h1.5v-1.4h1.4v-1.4h1.4v-1.4h1.4v-1.4h1.4v-1.7h1.4v-1.4h1.6v-1.4h1.5v-1.4h1.4v-1.4h1.4v-1.4h1.4v-3h1.4v-1.5h1.4v-1.4h1.4v-1.4h1.7v-1.4h1.4v-1.4h1.4v-1.4h1.4v-1.4h1.4v-1.6h1.4v-1.5h1.4v-1.4h3.1v-1.4h1.4v-1.4h1.4v-1.4h1.4v-1.4h1.4v-1.6h1.4v-1.5h1.6v-1.4h1.5v-1.4h1.4v-1.4h1.4v-1.4h1.4v-1.4h1.4v-1.4h1.4v-1.6h1.4v-1.5h3.1v-1.4h1.4v-1.4h1.4v-1.4h1.4v-1.4h1.4v-1.4h1.4v-1.4h1.6v-1.7h2.9v-1.4h1.4v-1.4h1.4v-1.4h1.4v-1.4h1.4v-1.4h1.6v-1.4h2.9v-1.6h1.4v-1.5h1.4v-1.4h2.8v-1.4h1.4v-1.4h1.6v-1.4h1.5v-1.4h2.8v-1.4h1.4v-1.7h1.4v-1.4h1.4v-1.4h3.1v-1.4h1.4v-1.4h1.4v-1.4h2.8v-1.4h1.4v-1.6h1.6v-1.5h2.9v-1.4h1.4v-1.4h2.8v-1.4h1.4v-1.4h1.4v-1.4h3.1v-1.4h1.4v-1.7h2.8v-1.4h1.4v-1.4h1.4v-1.4h3v-1.4h1.5v-1.4h2.8v-1.4h1.4v-1.6h3v-1.5h2.9v-1.4h1.4v-1.4h2.8v-1.4h1.4v-1.4h3v-1.4h1.4v-1.4h2.9v-1.7h2.8v-1.4h1.4v-1.4h3v-1.4h2.9v-1.4h1.4v-1.4h2.8v-1.4h3v-1.4h2.9v-1.7h1.4v-1.4h2.8v-1.4h3v-1.4h1.4v-1.4h2.9v-1.4h2.8v-1.4h3v-1.7h2.9v-1.4h2.8v-1.4h2.8v-1.4h3v-1.4h2.9v-1.4h2.8v-1.4h2.8v-1.4h3v-1.7h2.9v-1.4h2.8v-1.4h3v-1.4h2.8v-1.4h2.9v-1.4h4.4v-1.4h2.8v-1.6h2.9v-1.5h2.8v-1.4h3v-1.4h4.3v-1.4h2.8v-1.4h4.4v-1.4h2.9v-1.4h4.2v-1.7h3v-1.4h4.3v-1.4h2.8v-1.4h4.4v-1.4h2.9v-1.4h4.2v-1.4h4.4v-1.6h4.3v-1.5h4.4v-1.4h4.3v-1.4h4.4v-1.4h4.2v-1.4h4.3v-1.4h5.8v-1.4h4.3v-1.7h5.8v-1.4h4.3v-1.4h5.8v-1.4h4.3v-1.4h5.8v-1.4h7.1v-1.4h5.8v-1.4h5.9v-1.7h7.1v-1.4h5.8v-1.4h8.7v-1.4h8.5v-1.4h7.2v-1.4h8.7v-1.4h11.5v-1.7h11.5v-1.4h10.1v-1.4h18.8v-1.4h20.2v-1.4h66.2v1.4h23v1.4h14.6v1.4h14.3v1.4h12.9v1.7h8.7v1.4h8.7v1.4h8.7v1.4h8.4v1.4h7.3v1.4h7.3v1.4h5.6v1.7h5.9v1.4h5.6v1.4h7.3v1.4h5.9v1.4h5.6v1.4h5.9v1.4h4.2v1.4h4.5v1.7h5.6v1.4h4.5v1.4h4.2v1.4h4.2v1.4h5.9v1.4h4.2v1.4h4.5v1.5h2.8v1.6h4.2v1.4h4.5v1.4h2.8v1.4h4.2v1.4h4.5v1.4h2.8v1.4h4.5v1.7h4.2v1.4h2.8v1.4h4.5v1.4h2.8v1.4h2.8v1.4h2.8v1.4h4.5v1.5h2.8v1.6h2.8v1.4h3.1v1.4h4.2v1.4h2.8v1.4h3.1v1.4h2.8v1.4h2.8v1.7h3.1v1.4h2.8v1.4h2.8v1.4h2.8v1.4h3.1v1.4h2.8v1.4h2.8v1.4h2.8v1.7h1.7v1.4h2.8v1.4h2.8v1.4h2.8v1.4h3.1v1.4h2.8v1.4h2.8v1.7h1.4v1.4h3.1v1.4h2.8v1.4h1.4v1.4h2.8v1.4h3.1v1.4h1.4v1.4h2.8v1.7h1.4v1.4h2.8v1.4h3.1v1.4h1.4v1.4h2.8v1.4h2.8v1.4h1.4v1.5h3.1v1.6h1.4v1.4h2.8v1.4h1.4v1.4h3.1v1.4h1.4v1.4h1.4v1.4h2.8v1.7h1.4v1.4h3.1v1.4h1.4v1.4h2.8v1.4h1.4v1.4h1.4v1.4h2.8v1.5h1.7v1.6h2.8v1.4h1.4v1.4h1.4v1.4h2.8v1.4h1.7v1.4h1.4v1.4h2.8v1.7h1.4v1.4h1.4v1.4h1.4v1.4h1.7v1.4h2.8v1.4h1.4v1.4h1.4v1.5h1.4v1.6h2.8v1.4h1.7v1.4h1.4v1.4h1.4v1.4h2.8v1.4h1.4v1.4h1.4v1.7h1.7v1.4h2.8v1.4h1.4v1.4h1.4v1.4h1.4v1.4h1.4v1.4h1.7v1.5h1.4v1.6h1.4v1.4h1.4v1.4h1.4v1.4h1.4v1.4h2.8v1.4h1.7v1.4h1.4v1.5h1.4v1.6h1.4v1.4h1.4v1.4h1.4v1.4h1.4v1.4h1.7v1.4h1.4v1.5h1.4v1.6h1.4v1.4h1.4v1.4h1.4v1.4h1.4v1.4h1.7v1.4h1.4v1.4h1.4v1.5h1.4v1.6h1.4v1.4h1.4v1.4h1.4v1.4h1.4v1.4h1.7v1.4h1.4v1.4h1.4v1.7h1.4v1.4h1.4v1.4h1.4v1.4h1.4v1.4h1.7v2.8h1.4v1.5h1.4v1.6h1.4v1.4h1.4v1.4h1.4v1.4h1.4v1.4h1.7v2.8h1.4v1.7h1.4v1.4h1.4v1.4h1.4v1.4h1.4v2.8h1.4v1.4h1.4v1.5h1.7v1.6h1.4v1.4h1.4v2.8h1.4v1.4h1.4v1.4h1.4v1.4h1.4v1.5h1.7v3h1.4v1.4h1.4v1.4h1.4v2.8h1.4v1.5h1.4v1.6h1.4v2.8h1.6v1.4h1.5v1.4h1.4v2.8h1.4v1.5h1.4v3h1.4v1.4h1.4v1.4h1.4v2.8h1.7v1.5h1.4v1.6h1.4v2.8h1.4v1.4h1.4v1.4h1.4v2.8h1.4v3.1h1.7v1.4h1.4v2.8h1.4v1.4h1.4v2.9h1.4v1.6h1.4v2.8h1.4v1.4h1.6v2.8h1.5v1.4h1.4v3.1h1.4v1.4h1.4v2.8h1.4v2.8h1.4v1.5h1.6v3h1.5v2.8h1.4v5.7h1.4v13.1h-1.4v4.2h-1.4v2.8h-1.5v3.1h-1.6v1.4h-1.4v1.4h-1.4v1.4h-1.4v2.8h-2.8v1.4h-1.5v1.5h-4.4v1.6h-5.6v1.4h-4.5v-1.4h-10.1v-1.6h-2.8v-1.5h-2.8v-1.4h-3.1v-1.4h-1.4v-1.4h-1.4v-1.4h-1.4v-1.4h-1.4v-1.4h-1.4v-3.1h-1.4v-2.8h-1.7v-1.4h-1.4v-2.8h-1.4v-3.1h-1.4v-1.4h-1.4v-2.8h-1.4v-1.4h-1.4v-2.8h-1.7v-1.6h-1.4v-2.9h-1.4v-1.4h-1.4v-2.8h-1.4v-1.4h-1.4v-3h-1.4v-1.5h-1.4v-2.8h-1.7v-1.4h-1.4v-2.8h-1.4v-1.6h-1.4v-1.5h-1.4v-2.8h-1.4v-1.4h-1.4v-1.4h-1.7v-2.8h-1.4v-1.6h-1.4v-1.5h-1.4v-2.8h-1.4v-1.4h-1.4v-2.8h-1.4v-1.6h-1.7v-1.5h-1.4v-2.8h-1.4v-1.4h-1.4v-1.4h-1.4v-1.4h-1.4v-1.4h-1.4v-3.1h-1.4v-1.4h-1.7v-1.4h-1.4v-1.4h-1.4v-1.4h-1.4v-3h-1.4v-1.5h-1.4v-1.4h-1.4v-1.4h-1.7v-1.4h-1.4v-2.8h-1.4v-1.4h-1.4v-1.6h-1.4v-1.5h-1.4v-1.4h-1.4v-1.4h-1.7v-1.4h-1.4v-1.4h-1.4v-3h-1.4v-1.5h-1.4v-1.4h-1.4v-1.4h-1.4v-1.4h-1.4v-1.4h-1.7v-1.4h-1.4v-1.4h-1.4v-1.6h-1.4v-1.5h-1.4v-1.4h-1.4v-1.4h-1.4v-1.4h-1.7v-1.4h-1.4v-1.4h-1.4v-1.4h-1.4v-1.7h-1.4v-1.4h-1.4v-1.4h-1.4v-1.4h-1.7v-1.4h-1.4v-1.4h-1.4v-1.4h-1.4v-1.6h-1.4v-1.5h-1.4v-1.4h-2.8v-1.4h-1.7v-1.4h-1.4v-1.4h-1.4v-1.4h-1.4v-1.4h-1.4v-1.7h-1.4v-1.4h-1.4v-1.4h-1.7v-1.4h-1.4v-1.4h-1.4v-1.4h-2.8v-1.4h-1.4v-1.6h-1.4v-1.5h-1.7v-1.4h-2.8v-1.4h-1.4v-1.4h-1.4v-1.4h-1.4v-1.4h-2.8v-1.4h-1.7v-1.6h-1.4v-1.5h-1.4v-1.4h-2.8v-1.4h-1.4v-1.4h-1.4v-1.4h-1.7v-1.4h-1.4v-1.6h-2.8v-1.5h-1.4v-1.4h-1.4v-1.4h-3.1v-1.4h-1.4v-1.4h-2.8v-1.4h-1.4v-1.4h-1.4v-1.6h-2.8v-1.5h-1.7v-1.4h-2.8v-1.4h-1.4v-1.4h-2.8v-1.4h-1.4v-1.4h-1.7v-1.4h-2.8v-1.7h-1.4v-1.4h-2.8v-1.4h-1.4v-1.4h-3.1v-1.4h-1.4v-1.4h-2.8v-1.4h-2.8v-1.6h-1.4v-1.5h-3.1v-1.4h-2.8v-1.4h-1.4v-1.4h-2.8v-1.4h-1.7v-1.4h-2.8v-1.4h-2.8v-1.7h-1.4v-1.4h-3.1v-1.4h-2.8v-1.4h-2.8v-1.4h-2.8v-1.4h-1.4v-1.4h-3.1v-1.6h-2.8v-1.5h-2.8v-1.4h-3.1v-1.4h-2.8v-1.4h-2.8v-1.4h-2.8v-1.4h-3.1v-1.4h-1.4v-1.7h-2.8v-1.4h-2.8v-1.4h-4.5v-1.4h-2.8v-1.4h-2.8v-1.4h-3.1v-1.4h-4.2v-1.6h-2.8v-1.5h-3.1v-1.4h-2.8v-1.4h-2.8v-1.4h-4.5v-1.4h-2.8v-1.4h-4.2v-1.4h-2.8v-1.7h-4.5v-1.4h-4.2v-1.4h-3.1v-1.4h-4.2v-1.4h-4.2v-1.4h-3.1v-1.4h-4.2v-1.4h-4.2v-1.7h-4.5v-1.4h-4.2v-1.4h-4.5v-1.4h-5.6v-1.4h-4.5v-1.4h-4.2v-1.4h-4.2v-1.7h-5.9v-1.4h-5.9v-1.4h-5.6v-1.4h-5.9v-1.4h-5.6v-1.4h-7.3v-1.4h-5.6v-1.4h-5.9v-1.7h-8.7v-1.4h-8.7v-1.4h-8.4v-1.4h-8.7v-1.4h-8.7v-1.4h-14.3v-1.4h-14.6v-1.6h-15.7v-1.5h-76.5v1.5h-18.6v1.6h-14.5v1.4h-11.5v1.4h-11.6v1.4h-8.6v1.4h-8.7v1.4h-7.1v1.4h-8.7v1.7h-7.2v1.4h-5.7v1.4h-5.8v1.4h-7.1v1.4h-5.9v1.4h-5.8v1.4h-4.3v1.4h-5.8v1.7h-4.2v1.4h-5.7v1.4h-4.4v1.4h-4.3v1.4h-4.4v1.4h-4.3v1.4h-4.4v1.7h-4.2v1.4h-4.3v1.4h-4.4v1.4h-4.3v1.4h-2.8v1.4h-4.4v1.4h-2.9v1.4h-4.4v1.7h-4.2v1.4h-2.9v1.4h-4.4v1.4h-2.8v1.4h-2.9v1.4h-2.8v1.4h-4.4v1.5h-2.9v1.6h-2.8v1.4h-3v1.4h-2.8v1.4h-4.3v1.4h-3v1.4h-2.8v1.4h-2.9v1.7h-2.8v1.4h-1.6v1.4h-2.8v1.4h-2.9v1.4h-2.8v1.4h-3v1.4h-2.8v1.5h-2.9v1.6h-3v1.4h-1.4v1.4h-2.8v1.4h-2.9v1.4h-2.8v1.4h-1.6v1.4h-2.8v1.7h-2.8v1.4h-2.9v1.4h-1.6v1.4h-2.8v1.4h-2.8v1.4h-1.5v1.4h-3v1.5h-1.4v1.6h-2.8v1.4h-1.4v1.4h-2.9v1.4h-1.4v1.4h-3v1.4h-2.8v1.4h-1.4v1.7h-1.5v1.4h-3v1.4h-1.4v1.4h-2.8v1.4h-1.4v1.4h-2.9v1.4h-1.6v1.5h-1.4v1.6h-2.8v1.4h-1.4v1.4h-2.9v1.4h-1.4v1.4h-1.6v1.4h-2.8v1.4h-1.4v1.5h-1.4v1.6h-1.5v1.4h-3v1.4h-1.4v1.4h-1.4v1.4h-1.4v1.4h-2.8v1.5h-1.5v1.6h-1.6v1.4h-2.8v1.4h-1.4v1.4h-1.4v1.4h-1.4v1.4h-1.5v1.4h-1.4v1.5h-3v1.6h-1.4v1.4h-1.4v1.4h-1.4v1.4h-1.4v1.4h-1.5v1.4h-1.6v1.4h-2.8v1.7h-1.4v1.4h-1.4v1.4h-1.4v1.4h-1.5v1.4h-1.6v1.4h-1.4v1.4h-1.4v1.5h-1.4v1.6h-1.4v1.4h-1.4v1.4h-1.5v1.4h-1.4v1.4h-1.6v1.4h-1.4v1.4h-2.8v1.7h-1.4v1.4h-1.4v1.4h-1.5v1.4h-1.6v2.8h-1.4v1.4h-1.4v1.5h-1.4v1.6h-1.4v1.4h-1.4v1.4h-1.5v1.4h-1.6v1.4h-1.4v1.4h-1.4v1.4h-1.4v1.5h-1.4v1.6h-1.4v1.4h-1.4v1.4h-1.5v1.4h-1.6v2.8h-1.4v1.5h-1.4v1.6h-1.4v1.4h-1.4v1.4h-1.4v1.4h-1.5v2.8h-1.6v1.4h-1.4v1.5h-1.4v1.6h-1.4v1.4h-1.4v1.4h-1.4v2.8h-1.4v1.4h-1.7v1.5h-1.4v1.6h-1.4v2.8h-1.4v1.4h-1.4v1.4h-1.4v2.8h-1.4v1.5h-1.5v1.6h-1.6v1.4h-1.4v2.8h-1.4v1.4h-1.4v1.4h-1.4v3.1h-1.4v1.4h-1.5v1.4h-1.6v2.8h-1.4v1.4h-1.4v2.9h-1.4v1.6h-1.4v1.4h-1.4v2.8h-1.4v1.4h-1.7v2.9h-1.4v1.4h-1.4v3h-1.4v1.4h-1.4v2.8h-1.4v1.4h-1.4v3.1h-1.5v2.8h-1.6v1.4h-1.4v2.8h-1.4v1.4h-1.4v3.1h-1.4v1.4h-1.4v2.8h-1.4v2.8h-1.7v1.5h-1.4v3h-1.4v2.8h-1.4v2.8h-1.4v1.4h-1.4v3.1h-1.4v2.8h-1.7v2.8h-1.4v1.4h-1.4v3.1h-1.4v2.8h-1.4v2.8h-1.4v2.8h-1.4v3.1h-1.7v2.8h-1.4v2.8h-1.4v2.9h-1.4v3h-1.4v2.8h-1.4v2.8h-1.4v2.9h-1.4v3h-1.7v4.2h-1.4v2.9h-1.4v3h-1.4v2.8h-1.4v2.8h-1.4v4.5h-1.4v2.8h-1.7v4.2h-1.4v2.9h-1.4v4.4h-1.4v2.8h-1.4v4.3h-1.4v3h-1.4v4.2h-1.7v4.5h-1.4v4.2h-1.4v4.3h-1.4v4.4h-1.4v4.2h-1.4v4.5h-1.4v4.2h-1.4v4.3h-1.7v4.4h-1.4v5.6h-1.4v5.9h-1.4v4.2h-1.4v5.9h-1.4v5.6h-1.4v5.9h-1.7v5.7h-1.4v7.2h-1.4v5.7h-1.4v7.2h-1.4v8.7h-1.4v7.3h-1.4v8.5h-1.7v10.1h-1.4v11.5h-1.4v11.5h-1.4v18.7h-1.4v24.5h-1.4v46.2h1.4v23h1.4v18.6h1.4v11.5h1.4v11.7h1.4v9.9h1.7v8.7h1.4v8.6h1.4v7.3h1.4v8.7h1.4v5.6h1.4v5.9h1.4v5.6h1.7v7.3h1.4v5.7h1.4v4.4h1.4v5.7h1.4v5.8h1.4v4.3h1.4v5.8h1.7v4.2h1.4v4.3h1.4v4.4h1.4v4.3h1.4v4.4h1.4v4.2h1.4v4.3h1.4v4.4h1.7v2.8h1.4v4.5h1.4v2.8h1.4v4.3h1.4v2.8h1.4v4.4h1.4v2.8h1.7v4.3h1.4v3h1.4v2.8h1.4v2.9h1.4v4.4h1.4v2.8h1.4v2.9h1.7v2.8h1.4v3h1.4v4.3h1.4v2.8h1.4v3h1.4v2.8h1.4v1.4h1.4v2.9h1.7v3h1.4v2.8h1.4v2.9h1.4v2.8h1.4v3h1.4v2.8h1.4v2.9h1.7v1.4h1.4v3h1.4v2.8h1.4v2.9h1.4v1.4h1.4v2.8h1.4v3h1.7v2.8h1.4v1.5h1.4v2.8h1.4v1.6h1.4v2.8h1.4v1.4h1.4v2.9h1.6v2.8h1.5v1.6h1.4v2.8h1.4v1.4h1.4v2.9h1.4v1.4h1.4v3h1.4v1.4h1.7v2.8h1.4v1.5h1.4v1.4h1.4v3h1.4v1.4h1.4v2.8h1.4v1.5h1.6v1.4h1.5v3h1.4v1.4h1.4v2.8h1.4v1.4h1.4v1.5h1.4v1.4h1.6v3h1.5v1.4h1.4v1.4h1.4v2.9h1.4v1.4h1.4v1.4h1.4v1.4h1.4v3h1.7v1.4h1.4v1.4h1.4v1.5h1.4v2.8h1.4v1.6h1.4v1.4h1.4v1.4h1.6v1.4h1.5v1.5h1.4v1.4h1.4v2.8h1.4v1.6h1.4v1.4h1.4v1.4h1.6v1.4h1.5v1.5h1.4v1.4h1.4v1.4h1.4v3h1.4v1.4h1.4v1.4h1.4v1.5h1.6v1.4h1.5v1.4h1.4v1.4h1.4v1.6h1.4v1.4h1.4v1.4h1.4v1.4h1.6v1.5h1.5v1.4h1.4v1.4h1.4v1.6h1.4v1.4h1.4v1.4h1.4v1.4h1.6v1.5h1.4v1.4h1.5v1.4h1.4v1.4h1.4v1.6h1.4v1.4h1.4v1.4h1.4v1.4h3.1v1.5h1.4v1.4h1.4v1.4h1.4v1.4h1.4v1.6h1.4v1.4h1.6v1.4h1.5v1.5h2.8v1.4h1.4v1.4h1.4v1.4h1.4v1.6h1.6v1.4h1.4v1.4h1.5v1.4h2.8v1.5h1.4v1.4h1.4v1.4h1.4v1.4h3.1v1.6h1.4v1.4h1.4v1.4h1.4v1.4h2.8v1.5h1.6v1.4h1.4v1.4h2.9v1.6h1.4v1.4h1.4v1.4h1.4v1.4h3v1.5h1.5v1.4h2.8v1.4h1.4v1.4h1.4v1.6h3v1.4h1.4v1.4h2.9v1.4h1.4v1.5h1.4v1.4h3v1.4h1.4v1.6h2.9v1.4h1.4v1.4h2.8v1.4h1.6v1.5h2.9v1.4h1.4v1.4h2.8v1.4h2.8v1.6h1.6v1.4h2.9v1.4h1.4v1.4h2.8v1.5h1.4v1.4h3v1.4h2.9v1.4h2.8v1.6h1.4v1.4h3v1.4h2.9v1.5h2.8v1.4h1.4v1.4h3v1.4h2.9v1.6h2.8v1.4h2.8v1.4h3v1.4h2.9v1.5h2.8v1.4h3v1.4h1.4v1.4h2.9v1.6h2.8v1.4h3v1.4h2.8v1.5h4.3v1.4h2.8v1.4h3v1.4h2.9v1.6h4.2v1.4h3v1.4h2.9v1.4h2.8v1.5h4.4v1.4h2.8v1.4h4.3v1.4h3v1.6h4.3v1.4h2.8v1.4h4.4v1.5h2.8v1.4h4.3v1.4h4.4v1.4h4.3v1.4h4.4v1.6h4.3v1.4h4.2v1.4h4.4v1.5h4.3v1.4h5.8v1.4h4.3v1.4h5.8v1.6h4.3v1.4h5.8v1.4h5.7v1.5h5.8v1.4h7.1v1.4h5.8v1.4h5.9v1.4h8.5v1.6h7.2v1.4h8.7v1.4h7.3v1.5h11.5v1.4h11.5v1.4h11.5v1.4h17.2v1.6h24.6v1.4h46v-1.4h24.7v-1.6h14.3v-1.4h14.3v-1.4h11.5v-1.4h8.7v-1.5h8.7v-1.4h8.7v-1.4h8.7v-1.6h7v-1.4h5.9v-1.4h7.3v-1.4h5.6v-1.4h5.9v-1.5h5.6v-1.4h7.3v-1.4h4.2v-1.6h4.5v-1.4h4.2v-1.4h5.9v-1.4h4.2v-1.5h4.2v-1.4h5.9v-1.4h4.2v-1.6h4.5v-1.4h2.8v-1.4h4.2v-1.4h4.5v-1.4h2.8v-1.5h4.5v-1.4h4.2v-1.4h2.8v-1.6h4.5v-1.4h4.2v-1.4h2.8v-1.4h3.1v-1.5h4.2v-1.4h2.8v-1.4h3.1v-1.4h2.8v-1.6h4.2v-1.4h3.1v-1.4h2.8v-1.4h2.8v-1.5h2.8v-1.4h4.5v-1.4h2.8v-1.6h2.8v-1.4h1.4v-1.4h3.1v-1.4h2.8v-1.5h2.8v-1.4h3.1v-1.4h2.8v-1.4h2.8v-1.6h2.8v-1.4h3.1v-1.4h1.4v-1.4h2.8v-1.5h2.8v-1.4h3.1v-1.4h1.4v-1.6h2.8v-1.4h2.8v-1.4h1.4v-1.4h3.1v-1.5h2.8v-1.4h1.4v-1.4h2.8v-1.4h1.7v-1.6h2.8v-1.4h2.8v-1.4h1.4v-1.4h2.8v-1.5h3.1v-1.4h1.4v-1.4h1.4v-1.4h2.8v-1.6h1.4v-1.4h3.1v-1.4h1.4v-1.5h2.8v-1.4h1.4v-1.4h1.4v-1.4h3.1v-1.6h1.4v-1.4h2.8v-1.4h1.4v-1.4h2.8v-1.5h1.7v-1.4h1.4v-1.4h2.8v-1.4h1.4v-1.6h1.4v-1.4h1.4v-1.4h3.1v-1.5h1.4v-1.4h1.4v-1.4h1.4v-1.4h2.8v-1.6h1.7v-1.4h1.4v-1.4h1.4v-1.4h2.8v-1.5h1.4v-1.4h1.4v-1.4h1.4v-1.4h3.1v-1.6h1.4v-1.4h1.4v-1.4h1.4v-1.4h1.4v-1.5h1.4v-1.4h1.7v-1.4h1.4v-1.6h2.8v-1.4h1.4v-1.4h1.4v-1.4h1.4v-1.5h1.7v-1.4h1.4v-1.4h1.4v-1.4h1.4v-1.6h1.4v-1.4h1.4v-1.4h1.4v-1.4h3.1v-1.5h1.4v-1.4h1.4v-1.4h1.4v-1.4h1.4v-1.6h1.4v-1.4h1.4v-1.4h1.7v-1.5h1.4v-2.8h1.4v-1.4h1.4v-1.6h1.4v-1.4h1.4v-1.4h1.4v-1.4h1.7v-1.5h1.4v-1.4h1.4v-1.4h1.4v-1.4h1.4v-1.6h1.4v-1.4h1.4v-1.4h1.4v-1.5h1.7v-1.4h1.4v-1.4h1.4v-3h1.4v-1.4h1.4v-1.4h1.4v-1.4h1.4v-1.5h1.7v-2.8h1.4v-1.4h1.4v-1.6h1.4v-1.4h1.4v-1.4h1.4v-1.5h1.4v-2.8h1.7v-1.4h1.4v-1.6h1.4v-1.4h1.4v-1.4h1.4v-2.9h1.4v-1.4h1.4v-1.4h1.4v-3h1.7v-1.4h1.4v-1.4h1.4v-2.9h1.4v-1.4h1.4v-1.4h1.4v-3h1.4v-1.4h1.7v-1.4h1.4v-2.9h1.4v-1.4h1.4v-3h1.4v-1.4h1.4v-1.4h1.4v-2.9h1.7v-1.4h1.4v-2.8h1.4v-1.6h1.4v-2.8h1.4v-1.5h1.4v-2.8h1.4v-1.4h1.4v-3h1.7v-1.4h1.4v-2.9h1.4v-1.4h1.4v-2.8h1.4v-1.6h1.4v-2.8h1.4v-2.9h1.7v-1.4h1.4v-3h1.4v-2.8h1.4v-1.4h1.4v-1.5h1.4v-1.4h3v-1.4h2.9v-1.4h2.8v-1.6h2.8v-1.4h16v1.4h5.6v1.6h1.6v1.4h2.9v1.4h1.4v1.4h1.4v1.5h1.4v1.4h1.4v1.4h1.6v4.4h1.5v2.8h1.4v4.3h1.4v13.1h-1.4v4.2h-1.4v2.9h-1.5v3h-1.6v2.8h-1.4v1.4h-1.4v2.9h-1.4v2.8h-1.4v1.6h-1.4v2.8h-1.5v1.4h-1.6v2.9h-1.4v1.4h-1.4v3h-1.4v1.4h-1.4v2.8h-1.4v1.5h-1.4v2.8h-1.7v3h-1.4v1.4h-1.4v1.4h-1.4v2.9h-1.4v1.4h-1.4v3h-1.4v1.4h-1.7v1.4h-1.4v2.9h-1.4v1.4h-1.4v1.4h-1.4v3h-1.4v1.4h-1.4v1.4h-1.5v2.9h-1.6v1.4h-1.4v3h-1.4v1.4h-1.4v1.4h-1.4v2.9h-1.4v1.4h-1.4v1.4h-1.7v1.6h-1.4v2.8h-1.4v1.4h-1.4v1.5h-1.4v1.4h-1.4v1.4h-1.4v3h-1.7v1.4h-1.4v1.4h-1.4v1.4h-1.4v1.5h-1.4v1.4h-1.4v3h-1.4v1.4h-1.4v1.4h-1.7v1.4h-1.4v1.5h-1.4v2.8h-1.4v1.4h-1.4v1.6h-1.4v1.4h-1.4v1.4h-1.7v1.4h-1.4v1.5h-1.4v1.4h-1.4v1.4h-1.4v1.4h-1.4v1.6h-1.4v1.4h-1.7v1.4h-1.4v1.5h-1.4v1.4h-1.4v2.8h-1.4v1.6h-1.4v1.4h-1.4v1.4h-1.4v1.4h-1.7v1.5h-1.4v1.4h-1.4v1.4h-1.4v1.4h-1.4v1.6h-1.4v1.4h-1.4v1.4h-1.7v1.4h-1.4v1.5h-2.8v1.4h-1.4v1.4h-1.4v1.6h-1.4v1.4h-1.7v1.4h-1.4v1.4h-1.4v1.5h-1.4v1.4h-1.4v1.4h-1.4v1.4h-1.4v1.6h-3.1v1.4h-1.4v1.4h-1.4v1.4h-1.4v1.5h-1.4v1.4h-1.4v1.4h-1.4v1.6h-1.7v1.4h-2.8v1.4h-1.4v1.4h-1.4v1.5h-1.4v1.4h-3.1v1.4h-1.4v1.4h-1.4v1.6h-1.4v1.4h-2.8v1.4h-1.4v1.4h-1.4v1.5h-1.7v1.4h-2.8v1.4h-1.4v1.4h-1.4v1.6h-1.4v1.4h-3.1v1.4h-1.4v1.5h-1.4v1.4h-2.8v1.4h-1.4v1.4h-1.4v1.6h-3.1v1.4h-1.4v1.4h-2.8v1.4h-1.4v1.5h-2.8v1.4h-1.7v1.4h-1.4v1.4h-2.8v1.6h-1.4v1.4h-2.8v1.4h-1.7v1.5h-1.4v1.4h-2.8v1.4h-1.4v1.4h-2.8v1.6h-3.1v1.4h-1.4v1.4h-2.8v1.4h-1.4v1.5h-2.8v1.4h-3.1v1.4h-1.4v1.4h-2.8v1.6h-2.8v1.4h-1.7v1.4h-2.8v1.5h-1.4v1.4h-2.8v1.4h-3.1v1.4h-1.4v1.4h-2.8v1.6h-2.8v1.4h-2.8v1.4h-3.1v1.5h-2.8v1.4h-2.8v1.4h-1.4v1.4h-3.1v1.6h-2.8v1.4h-2.8v1.4h-3.1v1.5h-2.8v1.4h-2.8v1.4h-2.8v1.4h-3.1v1.4h-2.8v1.6h-2.8v1.4h-2.8v1.4h-3.1v1.5h-4.2v1.4h-2.8v1.4h-3.1v1.4h-2.8v1.6h-2.8v1.4h-4.5v1.4h-2.8v1.4h-2.8v1.5h-2.8v1.4h-4.5v1.4h-4.2v1.4h-3.1v1.6h-4.2v1.4h-4.2v1.4h-3.1v1.5h-4.2v1.4h-4.2v1.4h-3.1v1.4h-4.2v1.6h-4.5v1.4h-4.2v1.4h-4.2v1.4h-4.5v1.5h-5.6v1.4h-4.5v1.4h-4.2v1.4h-4.5v1.6h-5.6v1.4h-4.5v1.4h-5.6v1.5h-5.9v1.4h-5.6v1.4h-7.3v1.4h-5.6v1.6h-5.9v1.4h-5.6v1.4h-7.3v1.4h-8.7v1.5h-8.7v1.4h-8.7v1.4h-8.4v1.4h-10.1v1.6h-14.6v1.4h-14.3v1.4h-14.3v1.5h-31.7v1.4"/>
				</g>
			</g>
		</g>
	</g>
</svg>
