<svg xmlns="http://www.w3.org/2000/svg" viewBox="0 0 1200 1200">
<path d="M0 0 C396 0 792 0 1200 0 C1200 396 1200 792 1200 1200 C804 1200 408 1200 0 1200 C0 804 0 408 0 0 Z" fill="#000000" transform="translate(0,0)"/>
<path d="M0 0 C2.701 0.665 2.701 0.665 5.961 0.375 C10.46 0.487 13.914 0.909 17.59 3.531 C23.149 10.244 26.855 18.326 30.788 26.061 C33.455 31.197 36.422 36.135 39.402 41.094 C39.929 42.004 40.456 42.914 40.999 43.851 C43.365 47.929 45.753 51.842 48.621 55.586 C57.78 67.972 58.069 82.482 55.976 97.344 C54.053 108.244 49.849 118.723 45.978 129.048 C43.352 136.065 41.127 143.169 38.965 150.344 C38.245 152.692 37.524 155.04 36.801 157.387 C36.442 158.551 36.083 159.716 35.714 160.916 C33.716 167.343 31.658 173.751 29.59 180.156 C29.274 181.136 29.274 181.136 28.951 182.135 C26.115 190.911 23.216 199.664 20.277 208.406 C16.111 220.801 12.171 233.264 8.237 245.735 C4.607 257.237 0.9 268.704 -2.957 280.133 C-6.402 290.392 -9.655 300.71 -12.91 311.031 C-16.494 322.394 -20.1 333.742 -23.91 345.031 C-27.691 356.239 -31.284 367.503 -34.848 378.781 C-35.126 379.663 -35.405 380.545 -35.692 381.454 C-36.252 383.225 -36.812 384.996 -37.371 386.767 C-37.646 387.635 -37.92 388.504 -38.203 389.398 C-38.476 390.263 -38.749 391.127 -39.031 392.017 C-41.551 399.987 -44.095 407.95 -46.66 415.906 C-46.966 416.854 -46.966 416.854 -47.278 417.822 C-50.016 426.306 -52.819 434.768 -55.66 443.219 C-59.651 455.093 -63.443 467.026 -67.223 478.969 C-72.835 496.698 -78.582 514.378 -84.551 531.99 C-85.571 535.003 -86.564 538.02 -87.515 541.056 C-87.853 542.125 -88.191 543.195 -88.539 544.297 C-88.823 545.223 -89.108 546.149 -89.401 547.103 C-90.799 550.466 -92.839 552.506 -95.543 554.879 C-98.209 557.238 -100.427 559.933 -102.734 562.637 C-103.287 563.262 -103.84 563.887 -104.41 564.531 C-104.991 565.2 -105.573 565.869 -106.171 566.559 C-108.8 568.875 -110.488 569.332 -113.906 569.988 C-115.008 570.21 -116.11 570.432 -117.245 570.661 C-118.434 570.886 -119.623 571.111 -120.848 571.344 C-123.386 571.855 -125.924 572.369 -128.461 572.887 C-129.114 573.019 -129.767 573.151 -130.44 573.287 C-138.659 574.962 -146.793 576.986 -154.935 578.995 C-163.628 581.131 -172.351 583.099 -181.094 585.021 C-184.867 585.852 -188.639 586.692 -192.41 587.531 C-193.91 587.865 -195.41 588.198 -196.91 588.531 C-197.653 588.696 -198.395 588.861 -199.16 589.031 C-201.41 589.531 -203.66 590.031 -205.91 590.531 C-206.654 590.697 -207.397 590.862 -208.164 591.032 C-209.652 591.363 -211.141 591.693 -212.629 592.022 C-216.557 592.893 -220.481 593.774 -224.402 594.672 C-225.22 594.857 -226.037 595.043 -226.879 595.234 C-228.445 595.59 -230.01 595.949 -231.574 596.312 C-234.973 597.082 -237.903 597.531 -241.41 597.531 C-236.75 603.376 -232.002 609.062 -226.91 614.531 C-223.478 618.219 -220.185 621.972 -217.035 625.906 C-212.983 630.945 -208.637 635.636 -204.208 640.339 C-200.965 643.802 -197.876 647.324 -194.91 651.031 C-190.35 656.728 -185.393 662.004 -180.406 667.324 C-176.029 671.995 -171.859 676.829 -167.711 681.703 C-161.88 688.546 -155.956 695.271 -149.855 701.875 C-146.638 705.37 -143.508 708.93 -140.41 712.531 C-139.955 713.06 -139.499 713.59 -139.03 714.135 C-136.443 717.142 -133.858 720.151 -131.277 723.164 C-130.845 723.668 -130.413 724.172 -129.968 724.692 C-129.454 725.299 -128.94 725.906 -128.41 726.531 C-127.286 727.748 -127.286 727.748 -126.139 728.988 C-112.75 745.199 -111.847 766.154 -111.906 786.129 C-111.895 788.201 -111.877 790.274 -111.859 792.347 C-111.804 798.824 -111.801 805.3 -111.832 811.778 C-111.862 818.409 -111.8 825.035 -111.694 831.666 C-111.605 837.42 -111.576 843.173 -111.592 848.929 C-111.601 852.34 -111.589 855.748 -111.519 859.159 C-111.14 882.24 -111.14 882.24 -118.015 890.724 C-124.082 896.935 -130.312 900.127 -138.992 900.546 C-141.289 900.565 -143.578 900.513 -145.875 900.453 C-147.522 900.458 -149.17 900.468 -150.817 900.482 C-154.254 900.495 -157.685 900.456 -161.121 900.377 C-165.451 900.281 -169.77 900.31 -174.1 900.374 C-196.997 900.658 -215.925 898.427 -233.398 881.903 C-236.341 878.967 -238.875 875.824 -241.41 872.531 C-242.587 871.168 -243.773 869.812 -244.973 868.469 C-245.5 867.859 -246.027 867.249 -246.57 866.621 C-248.977 863.888 -251.443 861.21 -253.91 858.531 C-257.51 854.621 -261.054 850.673 -264.535 846.656 C-266.956 843.913 -269.432 841.222 -271.91 838.531 C-275.51 834.621 -279.054 830.673 -282.535 826.656 C-284.956 823.913 -287.432 821.222 -289.91 818.531 C-293.51 814.621 -297.054 810.673 -300.535 806.656 C-302.956 803.913 -305.432 801.222 -307.91 798.531 C-311.554 794.573 -315.149 790.579 -318.676 786.516 C-322.205 782.478 -325.816 778.512 -329.41 774.531 C-330.91 772.865 -332.41 771.198 -333.91 769.531 C-334.653 768.706 -335.395 767.881 -336.16 767.031 C-504.91 579.531 -504.91 579.531 -507.152 577.039 C-508.677 575.345 -510.203 573.653 -511.73 571.961 C-515.109 568.216 -518.479 564.466 -521.785 560.656 C-524.769 557.228 -527.833 553.876 -530.91 550.531 C-531.859 549.494 -532.809 548.456 -533.758 547.418 C-535.336 545.7 -536.924 543.991 -538.531 542.301 C-542.777 537.726 -545.317 533.402 -547.41 527.531 C-547.63 526.932 -547.849 526.332 -548.076 525.715 C-553.656 510.269 -553.656 510.269 -551.41 502.531 C-551.096 501.423 -550.781 500.314 -550.457 499.172 C-548.704 493.253 -546.711 487.413 -544.734 481.566 C-544.147 479.826 -543.559 478.085 -542.973 476.344 C-542.527 475.022 -542.527 475.022 -542.072 473.674 C-539.686 466.525 -537.575 459.316 -535.539 452.06 C-533.518 444.86 -531.337 437.722 -529.066 430.597 C-528.352 428.349 -527.646 426.099 -526.941 423.848 C-524.621 416.448 -522.269 409.065 -519.785 401.719 C-517.428 394.715 -515.375 387.654 -513.41 380.531 C-514.054 380.671 -514.698 380.811 -515.362 380.955 C-531.501 384.453 -547.663 387.821 -563.846 391.115 C-573.226 393.026 -582.589 394.972 -591.91 397.156 C-601.465 399.39 -611.08 401.244 -620.717 403.082 C-631.945 405.227 -643.149 407.486 -654.348 409.781 C-655.193 409.954 -656.039 410.126 -656.91 410.304 C-659.336 410.8 -661.762 411.298 -664.188 411.797 C-665.258 412.015 -665.258 412.015 -666.349 412.238 C-669.847 412.961 -673.316 413.744 -676.778 414.623 C-684.331 416.512 -691.867 415.486 -699.535 414.719 C-700.663 414.614 -700.663 414.614 -701.814 414.507 C-711.577 413.433 -718.94 409.274 -727.285 404.281 C-729.428 403.015 -731.571 401.749 -733.715 400.484 C-734.818 399.831 -735.921 399.179 -737.058 398.506 C-742.486 395.309 -747.949 392.171 -753.41 389.031 C-762.736 383.661 -772.044 378.262 -781.329 372.821 C-786.704 369.675 -792.097 366.566 -797.516 363.496 C-799.298 362.482 -801.079 361.468 -802.861 360.454 C-804.553 359.494 -806.25 358.543 -807.947 357.592 C-816.936 352.472 -821.669 348.501 -824.848 338.594 C-825.128 337.808 -825.408 337.022 -825.697 336.213 C-827.339 331.247 -827.809 328.392 -825.41 323.531 C-823.592 320.089 -821.673 316.713 -819.723 313.344 C-818.548 311.292 -817.375 309.24 -816.203 307.188 C-815.586 306.109 -814.969 305.03 -814.333 303.918 C-810.396 296.985 -806.554 290 -802.7 283.021 C-801.523 280.893 -800.337 278.77 -799.142 276.652 C-797.986 274.569 -796.87 272.464 -795.794 270.339 C-791.654 262.488 -787.118 258.163 -779.473 253.719 C-778.398 253.083 -777.323 252.448 -776.216 251.794 C-763.875 244.992 -750.769 242.491 -736.999 240.144 C-732.239 239.331 -727.515 238.373 -722.785 237.406 C-721.238 237.103 -719.691 236.799 -718.145 236.496 C-711.883 235.244 -705.663 233.809 -699.443 232.369 C-687.312 229.562 -675.127 227.06 -662.91 224.656 C-652.077 222.513 -641.29 220.217 -630.535 217.707 C-619.479 215.144 -608.358 212.909 -597.223 210.719 C-586.202 208.535 -575.226 206.193 -564.267 203.716 C-555.585 201.764 -546.872 200.002 -538.14 198.289 C-531.488 196.975 -524.893 195.512 -518.306 193.91 C-513.043 192.642 -507.755 191.632 -502.427 190.675 C-497.546 189.784 -492.732 188.699 -487.91 187.531 C-481.777 186.045 -475.64 184.79 -469.43 183.676 C-464.548 182.784 -459.733 181.7 -454.91 180.531 C-448.777 179.045 -442.64 177.79 -436.43 176.676 C-431.548 175.784 -426.733 174.7 -421.91 173.531 C-415.777 172.045 -409.64 170.79 -403.43 169.676 C-398.548 168.784 -393.733 167.7 -388.91 166.531 C-383.432 165.204 -377.958 164.027 -372.41 163.031 C-366.825 162.026 -361.304 160.853 -355.785 159.531 C-355.066 159.359 -354.346 159.187 -353.605 159.01 C-352.898 158.84 -352.19 158.671 -351.461 158.496 C-346.223 157.243 -340.97 156.08 -335.693 155.002 C-333.943 154.641 -332.195 154.272 -330.447 153.9 C-327.042 153.178 -323.633 152.478 -320.223 151.781 C-318.583 151.428 -318.583 151.428 -316.91 151.069 C-309.772 149.64 -303.599 149.412 -296.41 150.531 C-295.644 150.643 -294.877 150.754 -294.088 150.869 C-284.341 152.445 -277.573 154.379 -271.41 162.531 C-270.231 163.892 -269.043 165.247 -267.848 166.594 C-266.995 167.586 -266.995 167.586 -266.125 168.598 C-263.91 171.096 -261.541 173.411 -259.16 175.75 C-256.704 178.25 -254.447 180.908 -252.16 183.562 C-250.472 185.461 -248.722 187.251 -246.91 189.031 C-243.817 192.07 -240.989 195.279 -238.16 198.562 C-236.472 200.461 -234.722 202.251 -232.91 204.031 C-229.817 207.07 -226.989 210.279 -224.16 213.562 C-222.472 215.461 -220.722 217.251 -218.91 219.031 C-215.817 222.07 -212.989 225.279 -210.16 228.562 C-207.932 231.069 -205.556 233.397 -203.164 235.746 C-200.693 238.261 -198.417 240.931 -196.121 243.605 C-194.474 245.459 -192.757 247.185 -190.973 248.906 C-188.41 251.531 -188.41 251.531 -188.41 253.531 C-187.75 253.531 -187.09 253.531 -186.41 253.531 C-186.196 252.664 -186.196 252.664 -185.978 251.78 C-183.308 241.473 -179.68 231.49 -176.177 221.445 C-173.291 213.155 -170.446 204.878 -168.031 196.438 C-165.006 185.875 -161.481 175.479 -157.99 165.063 C-156.843 161.642 -155.701 158.22 -154.561 154.797 C-153.822 152.586 -153.083 150.375 -152.344 148.164 C-151.84 146.656 -151.84 146.656 -151.327 145.117 C-149.392 139.35 -147.375 133.62 -145.264 127.914 C-144.073 124.591 -143.112 121.244 -142.16 117.844 C-141.501 115.593 -140.834 113.345 -140.167 111.098 C-139.632 109.282 -139.104 107.464 -138.583 105.645 C-134.844 92.738 -131.174 82.072 -121.849 72.176 C-120.33 70.496 -120.33 70.496 -118.879 68.373 C-114.422 62.093 -109.757 58.864 -102.973 55.344 C-100.907 54.225 -98.841 53.103 -96.777 51.98 C-95.721 51.412 -94.665 50.844 -93.577 50.259 C-88.52 47.5 -83.561 44.579 -78.598 41.656 C-76.592 40.481 -74.585 39.307 -72.578 38.133 C-71.569 37.543 -70.56 36.953 -69.521 36.345 C-64.162 33.221 -58.786 30.127 -53.41 27.031 C-44.731 22.031 -36.063 17.014 -27.41 11.969 C-26.45 11.409 -25.489 10.85 -24.5 10.273 C-23.583 9.738 -22.667 9.204 -21.723 8.652 C-20.841 8.139 -19.959 7.626 -19.05 7.097 C-17.236 6.021 -15.437 4.921 -13.651 3.8 C-12.771 3.25 -11.891 2.7 -10.984 2.133 C-10.204 1.635 -9.424 1.137 -8.62 0.624 C-5.499 -0.919 -3.329 -0.796 0 0 Z" fill="#FEFEFE" transform="translate(956.41015625,165.46875)"/>
<path d="M0 0 C4.807 2.011 7.881 5.656 11.438 9.355 C13.899 11.963 13.899 11.963 16.312 14.051 C18.347 15.97 19.691 17.532 21 20 C20.85 22.069 20.85 22.069 20.102 24.449 C19.803 25.42 19.504 26.39 19.196 27.39 C18.604 29.177 18.604 29.177 18 31 C17.498 32.54 16.996 34.08 16.494 35.62 C14.711 41.048 12.888 46.462 11.062 51.875 C9.822 55.559 8.584 59.244 7.348 62.93 C7.049 63.82 6.751 64.71 6.443 65.627 C4.544 71.309 2.744 77.015 1.009 82.75 C-0.918 88.96 -3.016 95.115 -5.087 101.279 C-7.186 107.53 -9.266 113.787 -11.348 120.043 C-11.907 121.722 -12.467 123.4 -13.027 125.078 C-27.725 169.36 -39.802 221.587 -22.562 267.1 C-22 269 -22 269 -22 273 C-25.122 273.825 -28.248 274.632 -31.375 275.438 C-32.68 275.783 -32.68 275.783 -34.012 276.135 C-36.665 276.813 -39.322 277.425 -42 278 C-43.326 278.293 -43.326 278.293 -44.678 278.592 C-50.872 279.639 -50.872 279.639 -53.796 277.983 C-55.452 276.446 -56.807 274.85 -58.188 273.062 C-58.697 272.458 -59.206 271.853 -59.73 271.23 C-60.735 270.034 -61.727 268.827 -62.705 267.609 C-64.24 265.701 -65.861 263.881 -67.5 262.062 C-69.582 259.662 -71.644 257.244 -73.703 254.824 C-79.532 247.982 -85.455 241.259 -91.555 234.656 C-95.715 230.137 -99.727 225.498 -103.707 220.82 C-109.461 214.065 -115.291 207.414 -121.332 200.914 C-123.374 198.684 -125.373 196.434 -127.355 194.152 C-130.98 189.994 -134.72 185.955 -138.5 181.938 C-139.125 181.269 -139.75 180.601 -140.395 179.912 C-146.965 172.913 -153.655 166.189 -161 160 C-161.543 159.538 -162.085 159.076 -162.645 158.601 C-188.337 136.828 -215.826 124.401 -248 115 C-247.359 109.556 -246.133 104.497 -244.562 99.25 C-244.237 98.119 -244.237 98.119 -243.904 96.965 C-242.908 93.597 -241.961 90.942 -240 88 C-237.384 87.218 -234.9 86.617 -232.23 86.098 C-231.447 85.935 -230.663 85.773 -229.856 85.605 C-227.302 85.079 -224.745 84.571 -222.188 84.062 C-220.428 83.704 -218.668 83.344 -216.909 82.983 C-207.461 81.054 -198.001 79.191 -188.52 77.44 C-179.977 75.849 -171.494 73.98 -163.003 72.138 C-157.076 70.857 -151.157 69.623 -145.188 68.562 C-127.397 65.312 -109.156 61.684 -92.068 55.713 C-89.613 54.867 -87.145 54.068 -84.676 53.266 C-53.742 43.061 -20.295 26.594 0 0 Z" fill="#000000" transform="translate(733,447)"/>
</svg>
