<svg version="1.2" xmlns="http://www.w3.org/2000/svg" viewBox="0 0 1514 1290" width="1514" height="1290">
	<title>NASDAQ_Logo-svg</title>
	<defs>
		<clipPath clipPathUnits="userSpaceOnUse" id="cp1">
			<path d="m737.8 0.47h795.82v971.44h-795.82z"/>
		</clipPath>
		<clipPath clipPathUnits="userSpaceOnUse" id="cp2">
			<path d="m-28.54 294.52h795.82v995.38h-795.82z"/>
		</clipPath>
	</defs>
	<style>
		.s0 { fill: #0996c7 } 
	</style>
	<g id="Layer">
		<g id="Layer">
			<g id="Clip-Path" clip-path="url(#cp1)">
				<path id="Layer" class="s0" d="m1513.1 0.5l-336.6 923.9c-8.9 24.7-32.7 42.4-60.6 42.4h-355.8v-0.4c6-0.6 11.9-2.1 17.5-4.3c5.6-2.2 10.9-5.2 15.6-8.9c4.8-3.7 9-8.1 12.6-13c3.5-4.8 6.4-10.2 8.5-15.8l336.5-923.9z"/>
			</g>
		</g>
		<path id="Layer" class="s0" d="m713.6 950.3c-5.6-1.7-11-4.3-16-7.5c-4.9-3.3-9.4-7.2-13.2-11.8c-3.8-4.5-6.9-9.6-9.2-15l-72.6-198.8l123.5-338.9c2-6.1 6.8-13.4 8-15c6.3-8.8 14.9-15.9 24.8-20.3c9.9-4.5 20.9-6.2 31.7-5c10.8 1.2 21.1 5.3 29.8 11.8c8.7 6.5 15.5 15.2 19.7 25.2l72.3 198l-123.5 339.1c-2.8 7.7-6.9 13.3-8 15c-11.1 15.5-29.2 25.7-49.8 25.7c-5.9 0-11.8-0.8-17.5-2.5z"/>
		<g id="Layer">
			<g id="Clip-Path" clip-path="url(#cp2)">
				<path id="Layer" class="s0" d="m757.5 323.6c-6.4 0.3-12.7 1.5-18.7 3.6c-6 2.1-11.6 5-16.8 8.8c-5.1 3.7-9.7 8.2-13.5 13.3c-3.8 5.1-6.8 10.7-9 16.7l-336.6 923.9h-362.3l336.5-923.9c9-24.9 32.9-42.5 60.7-42.5h359.7z"/>
			</g>
		</g>
	</g>
</svg>