<?xml version="1.0" encoding="utf-8"?>
<svg version="1.0" width="180" height="180" viewBox="0 -10 180 180" xmlns="http://www.w3.org/2000/svg">
  <g transform="matrix(0.034249, 0, 0, -0.034265, 0.986262, 163.614883)" stroke="none" style="">
    <path fill="#00214A" d="M969 5100 c-92 -16 -206 -52 -295 -94 -313 -148 -537 -415 -631 -752 l-28 -99 0 -1595 0 -1595 28 -99 c113 -405 418 -710 823 -823 l99 -28 1595 0 1595 0 99 28 c405 113 710 418 823 823 l28 99 0 1595 0 1595 -28 99 c-112 402 -412 704 -817 823 l-95 28 -1575 1 c-866 1 -1596 -2 -1621 -6z m3146 -1017 c-10 -42 -344 -1290 -361 -1350 l-15 -53 -235 0 -236 0 6 28 c14 56 357 1338 367 1370 l11 32 235 0 235 0 -7 -27z m-855 -695 c-1 -2 -144 -536 -319 -1188 l-318 -1185 -238 -3 c-131 -1 -242 1 -246 5 -4 5 -92 325 -194 713 -103 387 -189 710 -192 717 -4 11 41 13 237 11 l243 -3 72 -265 c39 -146 73 -271 76 -279 3 -7 95 323 204 733 l200 746 238 0 c130 0 237 -1 237 -2z m-1666 -1030 c65 -249 121 -459 124 -466 3 -10 -46 -12 -238 -10 l-243 3 -118 450 c-65 248 -119 456 -119 463 0 9 54 12 238 12 l237 0 119 -452z"/>
  </g>
</svg>