<svg viewBox="0 0 400.66 400.67" xmlns="http://www.w3.org/2000/svg"><path d="m0 400.67v-400.67" fill="#dbd9d9"/><path d="m178.77 178.77a90.69 90.69 0 0 0 43.14 0 90.84 90.84 0 0 1 66.52-66.52 90.69 90.69 0 1 0 -176.19 0 90.81 90.81 0 0 1 66.53 66.52z" fill="#7abdf7"/><path d="m221.91 221.89a90.69 90.69 0 0 0 -43.14 0 90.84 90.84 0 0 1 -66.52 66.52 90.69 90.69 0 1 0 176.19 0 90.81 90.81 0 0 1 -66.53-66.52z" fill="#0d74f5"/><path d="m310 109.64a90.59 90.59 0 0 0 -21.56 2.6 90.79 90.79 0 0 1 -66.51 66.51 90.69 90.69 0 0 0 0 43.14 90.81 90.81 0 0 1 66.51 66.52 90.69 90.69 0 1 0 21.56-178.79z" fill="#4494f7"/><path d="m178.77 221.89a90.69 90.69 0 0 0 0-43.14 90.81 90.81 0 0 1 -66.52-66.51 90.69 90.69 0 1 0 0 176.19 90.82 90.82 0 0 1 66.52-66.54z" fill="#005cf4"/><path d="m221.91 178.77a90.84 90.84 0 0 0 66.52-66.52 90.84 90.84 0 0 0 -66.52 66.52z" fill="#186ef9"/><path d="m221.91 221.89a90.81 90.81 0 0 0 66.52 66.52 90.84 90.84 0 0 0 -66.52-66.52z" fill="#0246f2"/><path d="m178.77 178.77a90.84 90.84 0 0 0 -66.52-66.52 90.84 90.84 0 0 0 66.52 66.52z" fill="#0046f8"/><path d="m178.77 221.89a90.84 90.84 0 0 0 -66.52 66.52 90.84 90.84 0 0 0 66.52-66.52z" fill="#0729f1"/><path d="m178.77 178.77a90.69 90.69 0 0 0 43.14 0 90.84 90.84 0 0 1 66.52-66.52 90.69 90.69 0 1 0 -176.19 0 90.81 90.81 0 0 1 66.53 66.52z" fill="#7abdf7"/><path d="m221.91 221.89a90.69 90.69 0 0 0 -43.14 0 90.84 90.84 0 0 1 -66.52 66.52 90.69 90.69 0 1 0 176.19 0 90.81 90.81 0 0 1 -66.53-66.52z" fill="#0d74f5"/><path d="m310 109.64a90.59 90.59 0 0 0 -21.56 2.6 90.79 90.79 0 0 1 -66.51 66.51 90.69 90.69 0 0 0 0 43.14 90.81 90.81 0 0 1 66.51 66.52 90.69 90.69 0 1 0 21.56-178.79z" fill="#4494f7"/><path d="m178.77 221.89a90.69 90.69 0 0 0 0-43.14 90.81 90.81 0 0 1 -66.52-66.51 90.69 90.69 0 1 0 0 176.19 90.82 90.82 0 0 1 66.52-66.54z" fill="#005cf4"/><path d="m221.91 178.77a90.84 90.84 0 0 0 66.52-66.52 90.84 90.84 0 0 0 -66.52 66.52z" fill="#186ef9"/><path d="m221.91 221.89a90.81 90.81 0 0 0 66.52 66.52 90.84 90.84 0 0 0 -66.52-66.52z" fill="#0246f2"/><path d="m178.77 178.77a90.84 90.84 0 0 0 -66.52-66.52 90.84 90.84 0 0 0 66.52 66.52z" fill="#0046f8"/><path d="m178.77 221.89a90.84 90.84 0 0 0 -66.52 66.52 90.84 90.84 0 0 0 66.52-66.52z" fill="#0729f1"/></svg>