<svg xmlns="http://www.w3.org/2000/svg" viewBox="0 0 22 22">
<path d="M0 0 C7.26 0 14.52 0 22 0 C22 7.26 22 14.52 22 22 C14.74 22 7.48 22 0 22 C0 14.74 0 7.48 0 0 Z" fill="#EAF0F4" transform="translate(0,0)"/>
<path d="M0 0 C7.26 0 14.52 0 22 0 C22 7.26 22 14.52 22 22 C14.74 22 7.48 22 0 22 C0 14.74 0 7.48 0 0 Z M3 6 C1.851 9.949 1.569 12.03 3.25 15.812 C5.546 18.683 7.22 19.881 10.875 20.438 C15.008 19.859 16.344 18.111 19 15 C19.33 14.67 19.66 14.34 20 14 C20.438 10.147 20.306 8.459 18.125 5.188 C15.619 2.607 14.745 2.083 11.188 1.688 C7.148 2.084 5.703 2.988 3 6 Z" fill="#FCFDFD" transform="translate(0,0)"/>
<path d="M0 0 C3.161 1.37 3.993 1.989 6 5 C6.496 8.801 6.268 10.543 4.312 13.875 C2 16 2 16 -0.75 16.312 C-1.492 16.209 -2.235 16.106 -3 16 C-3 13.36 -3 10.72 -3 8 C-3.66 8 -4.32 8 -5 8 C-4.67 7.01 -4.34 6.02 -4 5 C-3.34 5 -2.68 5 -2 5 C-2 7.97 -2 10.94 -2 14 C2 12.5 2 12.5 3 10 C3.303 6.51 3.395 4.625 1.5 1.625 C1.005 1.089 0.51 0.553 0 0 Z" fill="#5B89AD" transform="translate(14,3)"/>
<path d="M0 0 C0.66 0.33 1.32 0.66 2 1 C1.505 1.371 1.01 1.742 0.5 2.125 C-1.265 3.996 -1.265 3.996 -1.375 7 C-1.258 9.975 -1.258 9.975 0.375 11.812 C2.001 13.07 2.001 13.07 4 14 C4 14.66 4 15.32 4 16 C0.687 15.731 -0.639 15.409 -2.875 12.875 C-4.341 9.128 -4.002 6.865 -3 3 C-1.438 1.062 -1.438 1.062 0 0 Z" fill="#739AB7" transform="translate(6,3)"/>
<path d="M0 0 C1.98 0.99 3.96 1.98 6 3 C6 3.66 6 4.32 6 5 C4.35 4.67 2.7 4.34 1 4 C0.67 2.68 0.34 1.36 0 0 Z" fill="#4377A1" transform="translate(4,14)"/>
<path d="M0 0 C0.66 0.33 1.32 0.66 2 1 C0.625 3 0.625 3 -1 5 C-1.66 5 -2.32 5 -3 5 C-3 4.01 -3 3.02 -3 2 C-2.01 1.34 -1.02 0.68 0 0 Z" fill="#467AA2" transform="translate(17,14)"/>
</svg>
