<svg xmlns="http://www.w3.org/2000/svg" width="24" height="24" viewBox="199 0 22 24" fill="none">
  <title>OpenMarkets</title>
  <path d="M213.11 10.3766H218.51C219.887 10.3766 221 9.26376 221 7.88622C221 6.50869 219.887 5.39588 218.51 5.39588H215.79C214.198 5.39588 213.066 6.61654 211.963 8.28331C211.306 9.27356 210.694 10.1413 210.218 10.754C209.919 9.68045 209.973 9.01374 210.321 8.41567L213.022 3.73891C213.708 2.54767 213.301 1.02306 212.11 0.336748C210.919 -0.349568 209.395 0.0573188 208.709 1.24857L207.346 3.60655C206.548 4.98899 207.043 6.57732 207.935 8.36664C208.464 9.43043 208.91 10.3962 209.204 11.1119C208.126 10.8325 207.572 10.4501 207.229 9.85693L204.528 5.18018C203.842 3.98893 202.318 3.58204 201.127 4.26836C199.936 4.95467 199.53 6.47928 200.216 7.67052L201.578 10.0285C202.377 11.4109 203.999 11.7786 205.994 11.9012C207.18 11.9747 208.238 12.0728 209.008 12.1757C208.229 12.9699 207.621 13.2591 206.935 13.2591H201.534C200.157 13.2591 199.045 14.3719 199.045 15.7494C199.045 17.127 200.157 18.2398 201.534 18.2398H204.254C205.847 18.2398 206.979 17.0191 208.082 15.3524C208.738 14.3621 209.351 13.4944 209.826 12.8816C210.125 13.9552 210.071 14.6219 209.723 15.22L207.023 19.8968C206.337 21.088 206.744 22.6126 207.935 23.2989C209.125 23.9852 210.65 23.5783 211.336 22.3871L212.698 20.0291C213.497 18.6467 213.002 17.0583 212.11 15.269C211.581 14.2052 211.135 13.2395 210.841 12.5238C211.919 12.8032 212.473 13.1856 212.816 13.7787L215.516 18.4555C216.202 19.6467 217.726 20.0536 218.917 19.3673C220.108 18.681 220.515 17.1564 219.829 15.9651L218.466 13.6072C217.667 12.2247 216.045 11.8571 214.051 11.7345C212.865 11.661 211.806 11.5629 211.037 11.46C211.816 10.6658 212.424 10.3766 213.11 10.3766Z" fill="#B60065"/>
</svg>
