<?xml version="1.0" encoding="UTF-8"?>
<svg xmlns="http://www.w3.org/2000/svg" viewBox="0 0 346 354" role="img" aria-label="ORATS">
  <path fill="#F97316" d="M14 103c0-7 5-12 12-12h18c6 0 10-3 13-8l34-59c4-7 10-10 18-10h134c8 0 14 4 18 11l34 59c3 6 7 9 14 9h11c7 0 12 5 12 12v58h-63c-7 0-12-3-16-10l-34-58c-3-5-8-7-14-7h-64c-7 0-12 3-16 9l-34 59c-3 6-8 8-15 8H14v-61z"/>
  <path fill="#F97316" d="M14 183h62c7 0 12 3 16 10l34 59c3 7 9 11 17 11h63c8 0 13-4 17-11l34-59c3-7 9-10 16-10h59v63c0 7-5 12-12 12h-14c-6 0-10 3-13 8l-34 60c-4 8-11 12-20 12H108c-9 0-16-4-21-12l-34-60c-3-5-7-8-13-8H26c-7 0-12-5-12-12v-63z"/>
</svg>
