<svg xmlns="http://www.w3.org/2000/svg" viewBox="0 0 30 30">
  <path d="M30 15c0 8.284-6.716 15-15 15S0 23.284 0 15 6.716 0 15 0s15 6.716 15 15Z" fill="#FFC83D"/>
  <path d="M26.039 12.703c-.759-1.063-1.564-1.62-2.068-1.89a13.99 13.99 0 0 0-.589-.961 14.72 14.72 0 0 0-1.921-2.338 9.627 9.627 0 0 0-1.898-1.477c-1.127-.658-2.295-.979-3.572-.981h-.014c-1.17 0-2.237.266-3.128.526-.256.075-.515.156-.767.234-.643.2-1.25.39-1.763.474-.349.057-.623.189-.813.391-.18.191-.287.446-.318.759-.059.585.148 1.368.599 2.265.902 1.794 2.629 3.77 4.4 5.033.182.13.354.273.517.427l-.008.002c-1.377.196-2.095 1.676-2.385 2.476-.076.209.13.396.34.325.835-.282 2.517-.732 3.502-.195.184.88.106 1.742-.226 2.417-.203.413-.493.743-.862.982-.397.257-.877.401-1.427.427-.596.029-1.271-.081-2.007-.326-.801-.266-1.68-.695-2.614-1.276L9 19.987l-.018-.01-.033-.018c1.336-1.61.521-4.042.195-4.844-.043-.107-.19-.106-.249-.007-.764 1.293-2.33 1.197-2.302 2.737l-.002-.004c-1.197-.974-2.086.322-3.575.127-.115-.015-.206.101-.149.201.43.748 1.837 2.876 3.918 2.829.082.09.178.194.252.276l.251.277c1.02 1.125 2.136 2.018 3.319 2.654 1.102.592 2.262.963 3.447 1.102.355.041.711.062 1.067.062 2.064 0 4.116-.694 5.873-2.003a10.88 10.88 0 0 0 2.505-2.634 9.62 9.62 0 0 0 1.439-3.336c.176-.784.249-1.574.219-2.363.652-.194 1.373.381 1.726.719.086.082.228.031.224-.088-.018-.54-.173-1.708-1.068-2.961Z" fill="#0B0A0F"/>
  <path d="M11.336 8.925c-.518.074-.353.461-.291.578l.011.02.008.013v.001c.376.667.878 1.368 1.467 2.048.729.841 1.544 1.592 2.356 2.172 1.097.782 1.92 1.94 2.317 3.262.19.63.273 1.264.249 1.884a4.42 4.42 0 0 1-.444 1.822 3.503 3.503 0 0 1-1.29 1.463c-.578.374-1.26.583-2.025.62-.081.004-.164.006-.248.006-1.411 0-3.057-.566-4.9-1.685.825.841 1.708 1.517 2.632 2.014.967.52 1.981.845 3.015.966 2.038.239 4.123-.321 5.897-1.578 6.072-5.022-3.869-14.303-8.754-13.605Z" fill="#FFFEFC"/>
  <path d="M16.42 8.587c-.17-.238-.509-.882.543-.882 1.051 0 2.659 1.19 2.986 1.631-.102.269-.781.329-1.12.303-.339-.026-.916-.082-1.357-.303-.441-.22-.882-.511-1.052-.749Z" fill="#FFFEFC"/>
</svg>
