<svg width="100" height="100" viewBox="0 0 100 100" fill="none" xmlns="http://www.w3.org/2000/svg">
<path fill-rule="evenodd" clip-rule="evenodd" d="M49.8862 0.0414734L50.1239 0.0414734C62.6601 0.0706021 74.1125 4.70768 82.8732 12.3468C83.4939 12.888 83.1008 13.8815 82.2767 13.8815L17.7334 13.8814C16.9094 13.8814 16.5162 12.888 17.137 12.3467C25.8977 4.70767 37.3501 0.0706002 49.8862 0.0414734Z" fill="#5D00BA"/>
<path fill-rule="evenodd" clip-rule="evenodd" d="M30.549 63.577C30.1912 63.0675 29.6152 62.7473 28.9921 62.7473L3.13017 62.7473C2.38096 62.7473 1.83471 63.4569 2.04731 64.1744C8.17043 84.8408 27.3215 99.9192 49.9986 99.9192C72.6757 99.9192 91.8268 84.8408 97.9499 64.1744C98.1625 63.4569 97.6163 62.7474 96.8671 62.7474L71.0056 62.7473C70.3825 62.7473 69.8065 63.0675 69.4487 63.577C65.1552 69.692 58.0445 73.6895 49.9989 73.6895C41.9533 73.6895 34.8425 69.692 30.549 63.577Z" fill="#5D00BA"/>
<path fill-rule="evenodd" clip-rule="evenodd" d="M68.8284 35.5368C69.2855 36.1306 69.9818 36.5029 70.7317 36.5029L96.6513 36.5029C97.4075 36.5029 97.9551 35.782 97.7295 35.0611C95.7707 28.8025 92.6121 23.0733 88.5227 18.1422C88.1823 17.7318 87.6738 17.5 87.1402 17.5L12.8564 17.5C12.3228 17.5 11.8143 17.7318 11.4739 18.1422C7.38444 23.0733 4.22582 28.8025 2.26711 35.0611C2.04149 35.782 2.58904 36.5029 3.34527 36.5029L29.265 36.5029C30.0149 36.5029 30.7111 36.1306 31.1682 35.5368C35.5082 29.8999 42.3285 26.267 49.9983 26.267C57.6682 26.267 64.4885 29.8999 68.8284 35.5368Z" fill="#5D00BA"/>
<path fill-rule="evenodd" clip-rule="evenodd" d="M72.9381 59.1358C72.4485 59.1358 72.1159 58.6375 72.285 58.1786C73.2258 55.6259 73.7394 52.8669 73.7394 49.988C73.7394 46.8496 73.129 43.8536 72.0201 41.112C71.8331 40.6497 72.1662 40.1329 72.6655 40.1329L98.0902 40.1329C98.6346 40.1329 99.1048 40.5165 99.2016 41.0516C99.7261 43.9513 100 46.9381 100 49.9888C100 52.7859 99.7698 55.5292 99.3272 58.201C99.2373 58.7436 98.7636 59.1358 98.2129 59.1358L72.9381 59.1358ZM27.715 58.1786C27.8841 58.6375 27.5515 59.1358 27.0619 59.1358L1.78709 59.1358C1.23639 59.1358 0.762676 58.7436 0.67279 58.201C0.230228 55.5292 0 52.7859 0 49.9888C0 46.9381 0.273875 43.9513 0.798407 41.0516C0.895206 40.5165 1.3654 40.1329 1.90984 40.1329L27.3345 40.1329C27.8338 40.1329 28.1669 40.6497 27.9799 41.112C26.871 43.8536 26.2606 46.8496 26.2606 49.988C26.2606 52.8669 26.7742 55.6259 27.715 58.1786Z" fill="#5D00BA"/>
</svg>
