<svg width="200" height="200" viewBox="0 0 200 200" fill="none" xmlns="http://www.w3.org/2000/svg">
<path d="M191.136 35.3519C189.1 27.5124 182.556 19.6728 170.777 10.9458C161.323 3.99371 151.289 0 143.291 0C141.691 0 140.237 0.14791 138.783 0.44374C135.147 1.1833 131.947 3.84581 129.912 7.83954C127.44 12.5728 126.858 18.9333 128.458 22.779C129.039 23.9623 129.766 25.4415 130.639 26.7727C122.931 31.5061 118.568 32.8373 117.986 32.9852C138.056 39.7893 154.78 53.9892 165.25 72.4788L165.396 70.7038C165.832 65.8225 167.286 60.2017 169.323 54.433C171.358 55.0247 173.394 55.3205 175.43 55.3205C180.811 55.3205 185.464 53.1018 188.373 49.1081C191.282 45.1143 192.444 39.7893 191.136 35.3519Z" fill="#5E12A0"/>
<path d="M170.197 50.1475C183.43 53.8454 188.811 43.4913 187.065 36.5393C185.175 29.5872 179.067 22.4872 168.305 14.4998C157.544 6.51235 146.638 3.25818 139.657 4.73728C132.677 6.21647 130.641 17.0143 132.385 21.1559C133.113 22.783 134.712 25.1497 136.894 27.8122C134.131 29.7351 131.513 31.2142 129.332 32.5454C142.711 38.61 154.345 48.0767 163.07 59.9099C164.088 55.9162 165.543 52.3662 166.852 49.26C167.869 49.4079 169.033 49.7038 170.197 50.1475Z" fill="url(#paint0_radial_914_48)"/>
<path d="M94.4238 195.112C139.32 195.112 175.717 158.092 175.717 112.427C175.717 66.7615 139.32 29.7422 94.4238 29.7422C49.527 29.7422 13.1309 66.7615 13.1309 112.427C13.1309 158.092 49.527 195.112 94.4238 195.112Z" fill="url(#paint1_radial_914_48)"/>
<path opacity="0.6" d="M180.377 29.7307C169.324 17.8975 160.017 14.7912 148.819 12.2767C140.094 10.2058 142.42 5.17666 153.037 6.21209C147.947 4.43711 143.148 3.99334 139.657 4.73289C132.677 6.21209 130.641 17.0099 132.386 21.1516C133.113 22.7786 134.713 25.1453 136.895 27.8078C132.968 30.4703 129.623 32.3932 126.859 33.8724C128.169 34.464 129.768 35.2036 131.658 36.239C136.603 38.9015 141.984 43.3389 141.984 43.3389C133.84 36.239 135.585 32.9848 146.783 24.9974C150.274 22.4829 156.672 22.7786 162.635 25.8849C168.597 28.9911 175.577 36.8307 175.577 36.8307L168.888 49.8473C169.324 49.9952 169.76 50.143 170.197 50.291C174.414 51.4743 177.758 51.1785 180.377 50.1431C183.431 48.2202 191.429 41.7119 180.377 29.7307Z" fill="#A98698"/>
<path d="M148.673 19.3852C151.582 20.5685 155.363 22.6393 160.017 25.7456C165.543 29.4435 170.342 33.5852 173.396 36.8392C168.306 43.6434 164.961 52.9621 162.926 59.4704C163.944 60.9496 165.107 62.4287 166.125 63.9079C167.143 60.21 168.887 54.7371 171.214 49.2642C171.796 49.4121 172.524 49.4121 173.25 49.4121C174.995 49.4121 177.031 49.1163 178.631 47.785C179.794 46.8975 181.104 45.2705 180.958 42.3122C180.958 39.5018 178.777 35.9518 174.268 31.6622C171.069 28.556 166.707 25.1539 162.344 22.0477C149.837 13.6165 141.111 11.2498 137.185 15.2435C134.567 17.9061 134.858 21.1602 135.73 23.5269C131.077 26.6331 127.15 28.8518 124.533 30.331C126.278 30.9227 127.878 31.6622 129.623 32.4018C134.276 29.8872 140.966 25.5976 148.673 19.3852ZM176.159 40.5372C176.595 41.2767 176.741 42.0163 176.741 42.46C176.741 43.7914 176.305 44.235 176.013 44.5309C175.432 44.9747 174.268 45.2705 173.25 45.2705C174.123 43.4955 175.141 42.0163 176.159 40.5372ZM140.239 18.4977C140.675 18.0539 141.839 17.7581 143.729 18.0539C142.275 19.2373 140.821 20.2727 139.367 21.3081C139.221 20.2727 139.367 19.2373 140.239 18.4977Z" fill="#5E12A0"/>
<path d="M94.4241 24.8672C46.8698 24.8672 8.33203 64.0649 8.33203 112.434C8.33203 160.801 46.8698 200 94.4241 200C141.978 200 180.516 160.801 180.516 112.434C180.516 64.0649 141.833 24.8672 94.4241 24.8672ZM94.4241 195.118C49.4875 195.118 13.1311 158.14 13.1311 112.434C13.1311 66.7274 49.4875 29.7484 94.4241 29.7484C139.36 29.7484 175.718 66.7274 175.718 112.434C175.718 158.14 139.216 195.118 94.4241 195.118Z" fill="#5E12A0"/>
<path opacity="0.6" d="M94.4238 195.112C139.32 195.112 175.717 158.092 175.717 112.427C175.717 66.7615 139.32 29.7422 94.4238 29.7422C49.527 29.7422 13.1309 66.7615 13.1309 112.427C13.1309 158.092 49.527 195.112 94.4238 195.112Z" fill="url(#paint2_linear_914_48)"/>
<path opacity="0.6" d="M93.8508 185.062C49.4959 177.814 19.3928 135.362 26.664 90.2483C29.8635 70.2795 39.7524 53.2691 53.7133 40.9922C33.3537 52.9734 18.2294 73.8295 14.1575 99.2712C7.0316 144.385 37.1347 186.837 81.3441 194.085C106.066 198.227 129.916 190.387 147.513 175.004C131.952 184.175 113.047 188.169 93.8508 185.062Z" fill="#A98698"/>
<path opacity="0.6" d="M107.365 30.9237C86.8602 27.5216 66.9368 32.2549 50.6491 42.757C50.3582 43.0527 50.0674 43.3486 50.0674 43.3486C56.3207 39.5028 65.4825 36.1007 65.4825 36.1007C41.9236 50.0048 34.6523 65.8318 34.6523 65.8318C43.8142 47.786 70.7179 35.0653 91.8046 34.1778C112.891 33.2903 126.706 39.6507 143.576 53.4068C160.445 67.311 170.625 95.7104 169.607 118.194C168.735 140.678 157.101 158.871 157.101 158.871C165.099 148.368 169.898 140.678 172.952 132.837C173.534 130.471 174.116 128.105 174.406 125.59C181.678 80.6233 151.72 38.1715 107.365 30.9237Z" fill="url(#paint3_linear_914_48)"/>
<path d="M171.644 111.689C171.644 155.028 137.032 190.233 94.4231 190.233C51.8134 190.233 17.0566 155.028 17.0566 111.689H171.644Z" fill="url(#paint4_linear_914_48)"/>
<g opacity="0.6">
<path opacity="0.6" d="M165.534 111.689C165.534 153.993 132.668 188.605 91.3672 190.233C92.3852 190.233 93.4032 190.233 94.4212 190.233C137.031 190.233 171.643 155.028 171.643 111.689H165.534Z" fill="url(#paint5_linear_914_48)"/>
</g>
<g opacity="0.7">
<path opacity="0.7" d="M27.9636 111.689H17.0566C17.0566 155.028 51.668 190.233 94.2777 190.233C96.1682 190.233 97.9133 190.233 99.6585 190.084C59.6664 187.126 27.9636 153.106 27.9636 111.689Z" fill="url(#paint6_linear_914_48)"/>
</g>
<path d="M171.499 112.422C171.499 103.399 156.084 98.2211 135.578 96.447C120.745 95.2633 105.767 96.7422 88.6061 102.067C73.7726 106.505 60.3935 105.765 50.65 104.581C28.9815 102.067 17.0566 101.771 17.0566 112.422C17.0566 127.805 47.8868 147.034 94.1323 140.377C117.546 136.976 129.616 130.024 143.432 125.29C158.411 120.261 171.499 120.409 171.499 112.422Z" fill="url(#paint7_linear_914_48)"/>
<path d="M119.727 75.1522C126.956 75.1522 132.815 69.192 132.815 61.8397C132.815 54.4875 126.956 48.5273 119.727 48.5273C112.499 48.5273 106.639 54.4875 106.639 61.8397C106.639 69.192 112.499 75.1522 119.727 75.1522Z" fill="white"/>
<path d="M141.108 85.0619C144.16 85.0619 146.634 82.5454 146.634 79.4411C146.634 76.3368 144.16 73.8203 141.108 73.8203C138.056 73.8203 135.582 76.3368 135.582 79.4411C135.582 82.5454 138.056 85.0619 141.108 85.0619Z" fill="white"/>
<g opacity="0.6">
<path opacity="0.6" d="M160.884 51.203C160.738 51.203 160.593 51.203 160.593 51.203C159.72 51.0551 159.139 50.1676 159.284 49.1322C160.593 42.328 166.119 35.8198 166.41 35.5239C166.991 34.7844 168.155 34.7844 168.737 35.376C169.464 35.9677 169.464 37.151 168.882 37.7427C168.737 37.8906 163.647 43.9551 162.484 49.8718C162.338 50.7593 161.611 51.203 160.884 51.203Z" fill="url(#paint8_linear_914_48)"/>
</g>
<path opacity="0.2" d="M89.0603 174.098C91.3091 174.098 93.1322 172.244 93.1322 169.956C93.1322 167.669 91.3091 165.814 89.0603 165.814C86.8114 165.814 84.9883 167.669 84.9883 169.956C84.9883 172.244 86.8114 174.098 89.0603 174.098Z" fill="white"/>
<g opacity="0.4">
<path opacity="0.6" d="M86.7131 172.657C85.1134 171.03 85.1134 168.368 86.7131 166.74C87.0039 166.444 87.2948 166.296 87.5856 166C87.0039 166.149 86.5676 166.444 86.1314 166.888C84.5317 168.515 84.5317 171.178 86.1314 172.805C87.4402 174.136 89.4761 174.432 91.0758 173.545C89.6215 174.136 87.8765 173.841 86.7131 172.657Z" fill="url(#paint9_linear_914_48)"/>
</g>
<path opacity="0.3" d="M90.4917 168.779C90.9736 168.779 91.3643 168.382 91.3643 167.892C91.3643 167.401 90.9736 167.004 90.4917 167.004C90.0098 167.004 89.6191 167.401 89.6191 167.892C89.6191 168.382 90.0098 168.779 90.4917 168.779Z" fill="white"/>
<path opacity="0.2" d="M110.302 172.035C112.551 172.035 114.374 170.18 114.374 167.892C114.374 165.604 112.551 163.75 110.302 163.75C108.053 163.75 106.23 165.604 106.23 167.892C106.23 170.18 108.053 172.035 110.302 172.035Z" fill="white"/>
<g opacity="0.4">
<path opacity="0.6" d="M107.955 170.593C106.355 168.965 106.355 166.302 107.955 164.675C108.245 164.379 108.537 164.231 108.827 163.936C108.245 164.083 107.809 164.379 107.373 164.823C105.774 166.45 105.774 169.113 107.373 170.74C108.683 172.072 110.718 172.367 112.318 171.479C110.864 172.072 109.119 171.776 107.955 170.593Z" fill="url(#paint10_linear_914_48)"/>
</g>
<path opacity="0.3" d="M111.734 166.714C112.216 166.714 112.606 166.317 112.606 165.826C112.606 165.337 112.216 164.939 111.734 164.939C111.252 164.939 110.861 165.337 110.861 165.826C110.861 166.317 111.252 166.714 111.734 166.714Z" fill="white"/>
<path opacity="0.2" d="M99.798 181.662C101.485 181.662 102.852 180.271 102.852 178.556C102.852 176.84 101.485 175.449 99.798 175.449C98.1114 175.449 96.7441 176.84 96.7441 178.556C96.7441 180.271 98.1114 181.662 99.798 181.662Z" fill="white"/>
<g opacity="0.4">
<path opacity="0.6" d="M98.0529 180.497C96.8896 179.313 96.8896 177.243 98.0529 176.059C98.1984 175.911 98.4892 175.764 98.6346 175.615C98.1984 175.764 97.9075 176.059 97.6166 176.355C96.4533 177.538 96.4533 179.61 97.6166 180.793C98.6346 181.829 100.089 181.976 101.398 181.237C100.234 181.681 98.9255 181.385 98.0529 180.497Z" fill="url(#paint11_linear_914_48)"/>
</g>
<path opacity="0.3" d="M100.822 177.508C101.143 177.508 101.403 177.243 101.403 176.917C101.403 176.59 101.143 176.324 100.822 176.324C100.501 176.324 100.24 176.59 100.24 176.917C100.24 177.243 100.501 177.508 100.822 177.508Z" fill="white"/>
<path opacity="0.2" d="M118.565 179.429C120.252 179.429 121.619 178.039 121.619 176.323C121.619 174.607 120.252 173.217 118.565 173.217C116.879 173.217 115.512 174.607 115.512 176.323C115.512 178.039 116.879 179.429 118.565 179.429Z" fill="white"/>
<g opacity="0.4">
<path opacity="0.6" d="M116.821 178.265C115.658 177.081 115.658 175.01 116.821 173.827C116.966 173.679 117.257 173.531 117.403 173.383C116.966 173.531 116.675 173.827 116.385 174.123C115.221 175.306 115.221 177.377 116.385 178.561C117.403 179.596 118.857 179.744 120.166 179.005C119.003 179.449 117.693 179.152 116.821 178.265Z" fill="url(#paint12_linear_914_48)"/>
</g>
<path opacity="0.3" d="M119.592 175.293C119.914 175.293 120.174 175.028 120.174 174.701C120.174 174.374 119.914 174.109 119.592 174.109C119.271 174.109 119.01 174.374 119.01 174.701C119.01 175.028 119.271 175.293 119.592 175.293Z" fill="white"/>
<path opacity="0.2" d="M71.7365 172.634C75.4311 172.634 78.426 169.587 78.426 165.83C78.426 162.072 75.4311 159.025 71.7365 159.025C68.0419 159.025 65.0469 162.072 65.0469 165.83C65.0469 169.587 68.0419 172.634 71.7365 172.634Z" fill="white"/>
<g opacity="0.4">
<path opacity="0.6" d="M67.957 170.104C65.3392 167.441 65.3392 163.151 67.957 160.489C68.3932 160.045 68.8295 159.749 69.4111 159.453C68.5387 159.749 67.8115 160.341 67.0844 160.933C64.4667 163.595 64.4667 167.885 67.0844 170.547C69.2657 172.766 72.6106 173.21 75.2282 171.582C72.756 172.618 69.8474 172.174 67.957 170.104Z" fill="url(#paint13_linear_914_48)"/>
</g>
<path opacity="0.3" d="M74.0715 163.749C74.8746 163.749 75.5257 163.087 75.5257 162.27C75.5257 161.453 74.8746 160.791 74.0715 160.791C73.2682 160.791 72.6172 161.453 72.6172 162.27C72.6172 163.087 73.2682 163.749 74.0715 163.749Z" fill="white"/>
<path opacity="0.2" d="M131.539 155.913C135.234 155.913 138.229 152.867 138.229 149.109C138.229 145.351 135.234 142.305 131.539 142.305C127.845 142.305 124.85 145.351 124.85 149.109C124.85 152.867 127.845 155.913 131.539 155.913Z" fill="white"/>
<g opacity="0.4">
<path opacity="0.6" d="M127.574 153.4C124.956 150.738 124.956 146.449 127.574 143.786C128.01 143.342 128.447 143.046 129.029 142.75C128.155 143.046 127.429 143.638 126.702 144.23C124.084 146.892 124.084 151.182 126.702 153.844C128.883 156.063 132.228 156.507 134.846 154.879C132.373 155.915 129.609 155.472 127.574 153.4Z" fill="url(#paint14_linear_914_48)"/>
</g>
<path opacity="0.3" d="M133.837 147.049C134.641 147.049 135.291 146.386 135.291 145.569C135.291 144.752 134.641 144.09 133.837 144.09C133.034 144.09 132.383 144.752 132.383 145.569C132.383 146.386 133.034 147.049 133.837 147.049Z" fill="white"/>
<defs>
<radialGradient id="paint0_radial_914_48" cx="0" cy="0" r="1" gradientUnits="userSpaceOnUse" gradientTransform="translate(184.413 27.2204) scale(64.9971 66.1101)">
<stop stop-color="#FFEAFF" stop-opacity="0.6"/>
<stop offset="0.6807" stop-color="#A087C9"/>
<stop offset="1" stop-color="#10002F"/>
</radialGradient>
<radialGradient id="paint1_radial_914_48" cx="0" cy="0" r="1" gradientUnits="userSpaceOnUse" gradientTransform="translate(167.394 97.7429) scale(182.033 196.916)">
<stop stop-color="#FFEAFF" stop-opacity="0.6"/>
<stop offset="0.6807" stop-color="#A087C9"/>
<stop offset="1" stop-color="#10002F"/>
</radialGradient>
<linearGradient id="paint2_linear_914_48" x1="81.3838" y1="193.94" x2="108.26" y2="30.9222" gradientUnits="userSpaceOnUse">
<stop stop-color="#81FFFF"/>
<stop offset="0.6202" stop-color="white" stop-opacity="0"/>
</linearGradient>
<linearGradient id="paint3_linear_914_48" x1="151.713" y1="56.2714" x2="83.4495" y2="117.851" gradientUnits="userSpaceOnUse">
<stop offset="0.2888" stop-color="white"/>
<stop offset="0.7796" stop-color="white" stop-opacity="0"/>
</linearGradient>
<linearGradient id="paint4_linear_914_48" x1="17.1221" y1="150.914" x2="171.607" y2="150.914" gradientUnits="userSpaceOnUse">
<stop stop-color="#0002E9"/>
<stop offset="0.9952" stop-color="#FF00C7"/>
</linearGradient>
<linearGradient id="paint5_linear_914_48" x1="178.918" y1="118.581" x2="93.4867" y2="197.959" gradientUnits="userSpaceOnUse">
<stop offset="0.2888" stop-color="white"/>
<stop offset="0.7796" stop-color="white" stop-opacity="0"/>
</linearGradient>
<linearGradient id="paint6_linear_914_48" x1="17.1221" y1="150.914" x2="99.7705" y2="150.914" gradientUnits="userSpaceOnUse">
<stop stop-color="#000292"/>
<stop offset="0.9952" stop-color="#7D00C7"/>
</linearGradient>
<linearGradient id="paint7_linear_914_48" x1="17.2258" y1="118.947" x2="171.503" y2="118.947" gradientUnits="userSpaceOnUse">
<stop stop-color="#000292"/>
<stop offset="0.9952" stop-color="#BE00C7"/>
</linearGradient>
<linearGradient id="paint8_linear_914_48" x1="168.973" y1="34.8036" x2="157.609" y2="52.9581" gradientUnits="userSpaceOnUse">
<stop offset="0.2888" stop-color="white"/>
<stop offset="0.7796" stop-color="white" stop-opacity="0"/>
</linearGradient>
<linearGradient id="paint9_linear_914_48" x1="84.9275" y1="170.121" x2="91.0803" y2="170.121" gradientUnits="userSpaceOnUse">
<stop offset="0.2888" stop-color="white"/>
<stop offset="0.7796" stop-color="white" stop-opacity="0"/>
</linearGradient>
<linearGradient id="paint10_linear_914_48" x1="106.155" y1="168.028" x2="112.307" y2="168.028" gradientUnits="userSpaceOnUse">
<stop offset="0.2888" stop-color="white"/>
<stop offset="0.7796" stop-color="white" stop-opacity="0"/>
</linearGradient>
<linearGradient id="paint11_linear_914_48" x1="96.6623" y1="178.604" x2="101.282" y2="178.604" gradientUnits="userSpaceOnUse">
<stop offset="0.2888" stop-color="white"/>
<stop offset="0.7796" stop-color="white" stop-opacity="0"/>
</linearGradient>
<linearGradient id="paint12_linear_914_48" x1="115.43" y1="176.371" x2="120.049" y2="176.371" gradientUnits="userSpaceOnUse">
<stop offset="0.2888" stop-color="white"/>
<stop offset="0.7796" stop-color="white" stop-opacity="0"/>
</linearGradient>
<linearGradient id="paint13_linear_914_48" x1="65.0544" y1="165.988" x2="75.1024" y2="165.988" gradientUnits="userSpaceOnUse">
<stop offset="0.2888" stop-color="white"/>
<stop offset="0.7796" stop-color="white" stop-opacity="0"/>
</linearGradient>
<linearGradient id="paint14_linear_914_48" x1="124.728" y1="149.279" x2="134.775" y2="149.279" gradientUnits="userSpaceOnUse">
<stop offset="0.2888" stop-color="white"/>
<stop offset="0.7796" stop-color="white" stop-opacity="0"/>
</linearGradient>
</defs>
</svg>
