<svg width="120" height="120" viewBox="0 0 120 120" fill="none" xmlns="http://www.w3.org/2000/svg">
<path d="M0 33.6C0 15.0432 15.0432 0 33.6 0H86.4C104.957 0 120 15.0432 120 33.6V86.4C120 104.957 104.957 120 86.4 120H33.6C15.0432 120 0 104.957 0 86.4V33.6Z" fill="#FF5A19"/>
<path fill-rule="evenodd" clip-rule="evenodd" d="M24 90L24.0333 96H57V24H24.0333L24 30C38.9133 30 51 42.0867 51 57V63C51 77.9133 38.9133 90 24 90Z" fill="#111111"/>
<path fill-rule="evenodd" clip-rule="evenodd" d="M24 60C24 69.2567 27.4933 77.6967 33.2333 84.0767C34.15 83.61 35.0367 83.0933 35.8867 82.5233C30.3733 76.6267 27 68.7067 27 60C27 51.29 30.3733 43.37 35.89 37.4733C35.0367 36.9067 34.15 36.39 33.2333 35.9233C27.4933 42.3033 24 50.7433 24 60Z" fill="#111111"/>
<path fill-rule="evenodd" clip-rule="evenodd" d="M96 90L95.9667 96H63V24H95.9667L96 30C81.0867 30 69 42.0867 69 57V63C69 77.9133 81.0867 90 96 90Z" fill="#111111"/>
<path fill-rule="evenodd" clip-rule="evenodd" d="M96 60C96 69.2567 92.5067 77.6967 86.7667 84.0767C85.85 83.61 84.9633 83.0933 84.1133 82.5233C89.6267 76.6267 93 68.7067 93 60C93 51.2933 89.6267 43.37 84.11 37.4733C84.9633 36.9067 85.85 36.39 86.7667 35.9233C92.5067 42.3033 96 50.7433 96 60Z" fill="#111111"/>
</svg>
