<svg width="2000" height="2000" viewBox="0 0 2000 2000" fill="none" xmlns="http://www.w3.org/2000/svg">
<path d="M2000 0H0V2000H2000V0Z" fill="#09111B"/>
<path d="M1000.32 860.22C1017.75 933.726 1065.22 980.106 1140.55 1003.11C1141.93 1003.54 1143.14 1004.4 1144 1005.57C1144.86 1006.73 1145.32 1008.14 1145.32 1009.59C1145.32 1011.04 1144.86 1012.45 1144 1013.62C1143.14 1014.78 1141.93 1015.64 1140.55 1016.07C1106.66 1024.11 1075.64 1041.33 1050.88 1065.83C1026.12 1090.33 1008.59 1121.17 1000.19 1154.97C999.801 1156.4 998.949 1157.67 997.768 1158.57C996.586 1159.47 995.141 1159.96 993.655 1159.96C992.17 1159.96 990.726 1159.47 989.544 1158.57C988.363 1157.67 987.51 1156.4 987.117 1154.97C978.638 1121.95 961.594 1091.75 937.708 1067.42C913.331 1042.57 882.711 1024.75 849.066 1015.83C847.682 1015.4 846.471 1014.54 845.611 1013.38C844.751 1012.21 844.288 1010.8 844.288 1009.35C844.288 1007.9 844.751 1006.49 845.611 1005.33C846.471 1004.16 847.682 1003.3 849.066 1002.87C923.541 981.075 969.314 933.726 987.358 860.22C987.786 858.836 988.646 857.625 989.812 856.766C990.978 855.906 992.388 855.442 993.837 855.442C995.286 855.442 996.696 855.906 997.862 856.766C999.028 857.625 999.888 858.836 1000.32 860.22Z" fill="#55C3E9"/>
<path d="M1413.38 1137.77C1413.38 1280.28 1358.15 1417.24 1259.29 1519.88C1160.42 1622.52 1025.62 1682.84 883.214 1688.16C880.577 1688.28 877.944 1687.86 875.474 1686.93C873.003 1686 870.746 1684.59 868.835 1682.77C866.924 1680.95 865.4 1678.76 864.354 1676.34C863.309 1673.91 862.763 1671.3 862.749 1668.67V1413.15C926.283 1413.14 987.86 1391.17 1037.05 1350.96C1086.24 1310.75 1120.02 1254.77 1132.67 1192.51C1135.53 1177.27 1143.59 1163.5 1155.47 1153.54C1167.35 1143.58 1182.32 1138.05 1197.82 1137.9L1413.38 1137.77Z" fill="#55C3E9"/>
<path d="M862.387 1197.48V1413.15C719.88 1413.15 582.918 1357.92 480.282 1259.06C377.646 1160.19 317.328 1025.39 312.001 882.986C311.887 880.349 312.305 877.717 313.232 875.246C314.159 872.775 315.576 870.517 317.396 868.606C319.217 866.696 321.402 865.172 323.825 864.126C326.248 863.08 328.858 862.534 331.497 862.521H587.012C587.113 926.051 609.188 987.591 649.491 1036.7C689.795 1085.81 745.846 1119.47 808.136 1131.96C823.357 1134.93 837.08 1143.08 846.971 1155.02C856.862 1166.97 862.31 1181.97 862.387 1197.48Z" fill="#55C3E9"/>
<path d="M803.049 862.401H587.376C587.372 719.873 642.62 582.894 741.51 480.255C840.401 377.615 975.231 317.31 1117.66 312.013C1120.29 311.916 1122.92 312.347 1125.38 313.28C1127.84 314.213 1130.1 315.63 1132 317.447C1133.91 319.264 1135.44 321.445 1136.49 323.86C1137.54 326.275 1138.1 328.877 1138.13 331.511V587.026C1074.57 587.021 1012.97 609.001 963.769 649.238C914.571 689.475 880.805 745.491 868.2 807.786C865.363 823.034 857.312 836.821 845.426 846.784C833.54 856.748 818.559 862.269 803.049 862.401Z" fill="#55C3E9"/>
<path d="M1138.01 802.821V587.026C1280.52 586.99 1417.5 642.213 1520.15 741.084C1622.79 839.955 1683.1 974.772 1688.39 1117.19C1688.53 1119.82 1688.12 1122.45 1687.21 1124.92C1686.3 1127.39 1684.89 1129.65 1683.08 1131.56C1681.27 1133.48 1679.09 1135 1676.67 1136.05C1674.26 1137.1 1671.65 1137.64 1669.02 1137.65H1413.38C1413.38 1074.11 1391.4 1012.53 1351.16 963.35C1310.92 914.172 1254.91 880.43 1192.62 867.85C1177.41 864.996 1163.65 856.956 1153.69 845.1C1143.73 833.243 1138.19 818.303 1138.01 802.821Z" fill="#55C3E9"/>
</svg>
