<svg xmlns="http://www.w3.org/2000/svg" width="96" height="96" viewBox="0 0 199 199">
  <path fill="#633001" fill-rule="evenodd" d="M97.556 198.607c-29.192-.022-52.708-7.027-69.138-19.609C11.791 166.265 2.97 148.195 2.97 127.748c0-19.701 8.801-33.907 18.76-43.51 7.805-7.525 16.417-12.344 22.414-15.117-1.356-4.162-3.048-9.61-4.562-15.238-2.025-7.53-4.012-16.366-4.012-22.84 0-7.663 1.67-15.36 6.175-21.34C46.505 3.385 53.671 0 62.291 0c6.737 0 12.457 2.499 16.934 6.81 4.28 4.12 7.13 9.593 9.097 15.298 3.456 10.024 4.802 22.618 5.179 35.187h8.257c.378-12.569 1.723-25.163 5.18-35.187 1.967-5.705 4.815-11.177 9.096-15.298C120.512 2.5 126.231 0 132.968 0c8.621 0 15.786 3.385 20.546 9.703 4.505 5.98 6.176 13.677 6.176 21.34 0 6.474-1.988 15.31-4.013 22.84-1.514 5.628-3.206 11.076-4.562 15.238 5.997 2.773 14.61 7.592 22.414 15.118 9.959 9.602 18.76 23.808 18.76 43.509 0 20.447-8.82 38.517-25.448 51.25-16.43 12.582-39.946 19.587-69.138 19.609h-.147Z"/>
  <path fill="#D1884F" d="M62.29 7.288c-12.625 0-18.437 9.516-18.437 22.675 0 10.46 6.753 31.408 9.523 39.563.624 1.835-.356 3.844-2.142 4.555-10.119 4.031-39.981 18.789-39.981 52.588 0 35.603 30.347 62.448 86.31 62.491l.066-.001.067.001c55.962-.043 86.309-26.888 86.309-62.491 0-33.799-29.862-48.557-39.981-52.588-1.786-.71-2.765-2.72-2.142-4.555 2.771-8.154 9.524-29.103 9.524-39.563 0-13.16-5.812-22.675-18.438-22.675-18.174 0-22.705 26.007-23.028 53.92-.021 1.863-1.513 3.375-3.357 3.375H88.676c-1.845 0-3.336-1.512-3.358-3.375-.323-27.913-4.853-53.92-23.028-53.92Z"/>
  <path fill="#FEDC90" d="M97.696 177.755c-41.118 0-86.372-22.235-86.443-51.018v.134c0 35.632 30.395 62.491 86.443 62.491s86.443-26.859 86.443-62.491v-.134c-.071 28.783-45.325 51.018-86.443 51.018Z"/>
  <path fill="#633001" d="M74.85 117.896c0 9.718-4.546 14.779-10.154 14.779s-10.154-5.061-10.154-14.779 4.546-14.779 10.154-14.779 10.154 5.061 10.154 14.779Zm66.001 0c0 9.718-4.546 14.779-10.154 14.779s-10.154-5.061-10.154-14.779 4.546-14.779 10.154-14.779 10.154 5.061 10.154 14.779Z"/>
</svg>
