<svg xmlns="http://www.w3.org/2000/svg" viewBox="0 0 32 32" fill="none">
  <rect width="32" height="32" rx="8" fill="#52DDE7"/>
  <path fill="#0B0E12" fill-rule="evenodd" clip-rule="evenodd" d="M23.1056 9.38634C22.8822 9.06907 22.6243 8.77692 22.3367 8.51509C21.308 7.57811 19.8896 7 18.3201 7H8L9.25903 9.16859C9.39552 9.40367 9.59225 9.59896 9.82936 9.73477C10.0665 9.87058 10.3356 9.94211 10.6095 9.94213H13.631L18.3203 9.93742C18.9997 9.93742 19.6132 10.1879 20.056 10.5932C20.5013 10.9967 20.776 11.5554 20.776 12.1722C20.776 13.4081 19.6771 14.409 18.3203 14.409L16.8338 14.4043H9.93541L11.1944 16.5729C11.3309 16.808 11.5277 17.0033 11.7648 17.1391C12.0019 17.2749 12.271 17.3464 12.5449 17.3464H13.1567C13.4185 17.3464 13.6308 17.5565 13.6308 17.8157V25L15.9236 23.2481C16.1521 23.0734 16.3372 22.8492 16.4645 22.5927C16.5919 22.3362 16.6581 22.0542 16.6581 21.7684V17.8157C16.6581 17.5565 16.8703 17.3464 17.1322 17.3464H18.3203C20.5778 17.3464 22.5262 16.1473 23.4422 14.409C23.7998 13.732 24 12.9735 24 12.1722C24 11.146 23.672 10.1914 23.1056 9.38634Z"/>
</svg>
