<svg xmlns="http://www.w3.org/2000/svg" viewBox="0 0 40 40">
<path d="M0 0 C13.2 0 26.4 0 40 0 C40 13.2 40 26.4 40 40 C26.8 40 13.6 40 0 40 C0 26.8 0 13.6 0 0 Z" fill="#0248CE" transform="translate(0,0)"/>
<path d="M0 0 C3.86 0.05 5.044 0.239 8.375 2.438 C10.752 6.161 11.025 8.033 10.25 12.375 C8.188 15.375 8.188 15.375 5.25 17.375 C1.438 17.188 1.438 17.188 -1.75 16.375 C-1.75 18.355 -1.75 20.335 -1.75 22.375 C-3.07 22.375 -4.39 22.375 -5.75 22.375 C-5.779 18.896 -5.797 15.417 -5.812 11.938 C-5.821 10.944 -5.829 9.951 -5.838 8.928 C-5.841 7.983 -5.844 7.039 -5.848 6.066 C-5.853 5.192 -5.858 4.317 -5.864 3.416 C-5.648 -0.457 -3.393 0.131 0 0 Z" fill="#EEF2FB" transform="translate(19.75,3.625)"/>
<path d="M0 0 C0 0.33 0 0.66 0 1 C-1.883 1.039 -1.883 1.039 -3.805 1.078 C-15.798 1.341 -15.798 1.341 -27.09 5.062 C-29.044 6.022 -30.877 6.544 -33 7 C-24.828 -2.49 -11.543 -5.424 0 0 Z" fill="#D98535" transform="translate(36,29)"/>
<path d="M0 0 C2.5 0.188 2.5 0.188 5 1 C7 4 7 4 6.688 6.625 C6 9 6 9 5 10 C2 10.125 2 10.125 -1 10 C-2 9 -2 9 -2.188 5.562 C-2 2 -2 2 0 0 Z" fill="#1250D1" transform="translate(20,7)"/>
<path d="M0 0 C0.99 0.33 1.98 0.66 3 1 C1.515 2.485 1.515 2.485 0 4 C-0.99 3.67 -1.98 3.34 -3 3 C-2.01 2.01 -1.02 1.02 0 0 Z" fill="#CB813F" transform="translate(6,32)"/>
</svg>
