<svg xmlns="http://www.w3.org/2000/svg" viewBox="0 0 249 249">
<path d="M0 0 C19.298 -0.094 38.597 -0.164 57.896 -0.207 C66.858 -0.228 75.82 -0.256 84.781 -0.302 C92.599 -0.342 100.416 -0.367 108.234 -0.376 C112.368 -0.382 116.501 -0.394 120.635 -0.423 C124.538 -0.45 128.44 -0.458 132.343 -0.452 C133.764 -0.454 135.185 -0.461 136.606 -0.477 C156.569 -0.684 174.143 5.576 188.634 19.438 C202.362 33.171 209.18 50.581 209.438 69.875 C209.29 89.029 202.212 105.885 188.711 119.418 C170.028 137.213 148.892 140.076 124.046 140.26 C121.201 140.282 118.357 140.309 115.512 140.337 C108.459 140.406 101.405 140.466 94.352 140.526 C88.366 140.577 82.379 140.632 76.393 140.692 C73.585 140.718 70.777 140.739 67.969 140.76 C66.262 140.776 64.556 140.793 62.849 140.811 C61.672 140.817 61.672 140.817 60.471 140.823 C56.941 140.542 56.941 140.542 54 142 C53.833 145.5 53.833 145.5 54 149 C56.082 151.082 60.534 150.258 63.41 150.316 C64.252 150.337 65.094 150.358 65.962 150.379 C68.662 150.445 71.362 150.504 74.062 150.562 C75.889 150.606 77.715 150.649 79.541 150.693 C84.027 150.801 88.514 150.902 93 151 C92.411 154.968 91.186 157.799 89.156 161.246 C88.574 162.242 87.991 163.238 87.391 164.264 C86.455 165.835 86.455 165.835 85.5 167.438 C84.864 168.512 84.227 169.586 83.572 170.693 C81.723 173.801 79.863 176.901 78 180 C77.539 180.779 77.078 181.558 76.603 182.36 C69.151 194.921 60.729 203.907 46.361 208.049 C42.048 209.103 37.988 209.27 33.564 209.227 C32.363 209.227 32.363 209.227 31.137 209.228 C28.519 209.227 25.9 209.211 23.281 209.195 C21.454 209.192 19.627 209.189 17.8 209.187 C13.013 209.179 8.226 209.16 3.439 209.137 C-1.455 209.117 -6.349 209.108 -11.242 209.098 C-20.828 209.076 -30.414 209.042 -40 209 C-38.521 205.209 -36.825 201.763 -34.797 198.23 C-34.154 197.107 -33.51 195.984 -32.848 194.826 C-32.149 193.613 -31.449 192.4 -30.75 191.188 C-30.025 189.924 -29.299 188.66 -28.574 187.396 C-23.521 178.599 -18.415 169.834 -13.29 161.078 C-9.176 154.043 -5.113 146.979 -1.075 139.9 C-0.068 138.134 0.94 136.369 1.949 134.604 C5.001 129.261 8.049 123.916 11.081 118.562 C12.091 116.781 13.103 115.002 14.117 113.224 C15.372 111.023 16.622 108.819 17.865 106.612 C26.305 91.853 35.107 81.35 51.886 76.449 C54.17 75.964 56.226 75.872 58.561 75.869 C59.471 75.865 60.381 75.861 61.318 75.857 C62.309 75.857 63.3 75.858 64.321 75.858 C65.894 75.853 65.894 75.853 67.5 75.848 C69.777 75.84 72.055 75.835 74.332 75.831 C77.934 75.824 81.535 75.809 85.136 75.79 C95.374 75.738 105.612 75.69 115.851 75.674 C122.113 75.664 128.374 75.635 134.635 75.593 C137.025 75.58 139.414 75.575 141.804 75.578 C145.139 75.58 148.474 75.558 151.809 75.53 C152.802 75.537 153.794 75.543 154.817 75.55 C155.724 75.538 156.631 75.525 157.566 75.512 C158.355 75.51 159.143 75.507 159.955 75.505 C162.175 75.15 162.175 75.15 163.793 73.136 C165.259 71.016 165.259 71.016 164.75 68.312 C164.214 66.062 164.214 66.062 163 65 C161.661 64.899 160.317 64.866 158.974 64.862 C158.107 64.857 157.239 64.851 156.345 64.845 C154.906 64.844 154.906 64.844 153.438 64.842 C152.433 64.837 151.428 64.832 150.393 64.827 C148.2 64.816 146.008 64.808 143.815 64.801 C140.338 64.789 136.861 64.77 133.384 64.748 C123.493 64.686 113.602 64.632 103.711 64.599 C97.667 64.578 91.623 64.542 85.579 64.498 C83.28 64.484 80.982 64.475 78.684 64.472 C61.344 64.445 44.997 64.277 31.25 52.188 C23.829 44.371 18.99 34.537 13.781 25.185 C12.024 22.043 10.237 18.922 8.438 15.805 C3.916 7.967 3.916 7.967 2.133 4.848 C1.719 4.126 1.306 3.404 0.879 2.66 C0 1 0 1 0 0 Z" fill="#FF4F29" transform="translate(40,20)"/>
</svg>
