<svg viewBox="30 80 340 230" width="340" height="230" xmlns="http://www.w3.org/2000/svg" xmlns:xlink="http://www.w3.org/1999/xlink">
<linearGradient id="b" gradientTransform="matrix(.07 0 0 -.07 -558.85 -306.25)" gradientUnits="userSpaceOnUse" x1="8961.3" x2="9830.01" y1="-5570.53" y2="-7205.55"><stop offset="0" stop-color="#73a2a8"/><stop offset="1" stop-color="#71b5bf"/></linearGradient>
<linearGradient id="c" gradientTransform="matrix(.07 0 0 -.07 -558.85 -306.25)" gradientUnits="userSpaceOnUse" x1="8922.29" x2="9779.7" y1="-8599.76" y2="-7019.01"><stop offset="0" stop-color="#699699"/><stop offset="1" stop-color="#73a4a6"/></linearGradient>
<linearGradient id="d" gradientTransform="matrix(.07 0 0 -.07 -558.85 -306.25)" gradientUnits="userSpaceOnUse" x1="10252.87" x2="11062.68" y1="-5630.79" y2="-7149.18"><stop offset="0" stop-color="#005661"/><stop offset="1" stop-color="#048293"/></linearGradient>
<linearGradient id="e" gradientTransform="matrix(.07 0 0 -.07 -558.85 -306.25)" gradientUnits="userSpaceOnUse" x1="11928.51" x2="11928.51" y1="-6794.86" y2="-5614.86"><stop offset="0" stop-color="#676f74"/><stop offset="1" stop-color="#3b444a"/></linearGradient>
<linearGradient id="f" gradientTransform="matrix(.07 0 0 -.07 -558.85 -306.25)" gradientUnits="userSpaceOnUse" x1="11118.51" x2="11118.51" y1="-5614.86" y2="-5860.86"><stop offset="0" stop-color="#93989c"/><stop offset="1" stop-color="#aaafb2"/></linearGradient>
<linearGradient id="g" gradientTransform="matrix(.07 0 0 -.07 -558.85 -306.25)" gradientUnits="userSpaceOnUse" x1="12054.58" x2="11569.43" y1="-8405.9" y2="-7668.89"><stop offset="0" stop-color="#3b444a"/><stop offset="1" stop-color="#3b444a"/></linearGradient>
<linearGradient id="h" gradientTransform="matrix(.07 0 0 -.07 -558.85 -306.25)" gradientUnits="userSpaceOnUse" x1="11117.51" x2="11117.51" y1="-8540.86" y2="-8237.86"><stop offset="0" stop-color="#858b8f"/><stop offset="1" stop-color="#868d90"/></linearGradient>
<linearGradient id="i" gradientTransform="matrix(.07 0 0 -.07 -558.85 -306.25)" gradientUnits="userSpaceOnUse" x1="10205.53" x2="11018.27" y1="-8561.49" y2="-7057.63"><stop offset="0" stop-color="#08575c"/><stop offset="1" stop-color="#096166"/></linearGradient>
<path d="m49.19 98.02h61.84l71.86 105.34-34.63 7.7-28.8-7.7z" fill="url(#b)"/>
<path d="m45.95 308.69h61.84l75.1-105.33h-63.43z" fill="url(#c)"/>
<path d="m139.98 98.02h61.85l71.85 105.34-33.98 8.13-29.52-8.13z" fill="url(#d)"/>
<path d="m282.18 98.02h61.85l-56.31 84.96-31.75-46.51z" fill="url(#e)"/>
<path d="m229.76 98.02h23.83l-11.73 17.71z" fill="url(#f)"/>
<path d="m285.78 308.69h61.85l-59.69-85.96-31.97 44.42z" fill="url(#g)"/>
<path d="m226.09 308.69h31.03l-15.33-21.81z" fill="url(#h)"/>
<path d="m136.74 308.69h61.2l75.74-105.33h-63.5z" fill="url(#i)"/>
</svg>