<svg xmlns="http://www.w3.org/2000/svg" width="2000" height="1653.49" viewBox="0 0 2000 1653.49"><path d="M.19.45C67.76-.27,135.28.11,202.84.26q321.77,565.8,642.89,1132c180.19-308.35,358.67-617.65,538.38-926.29,6.74-11.56,13.33-23.18,19.64-35q-358.45-1.08-716.85.05c30.53,57.39,65.94,112.05,96.57,169.39-72.49,1.25-145,.15-217.56.58Q466.42,171.09,368.18.45q664.29-.93,1328.58,0c-86.92,159.45-176.22,317.62-263.14,477,90.55,67.08,182.77,131.88,272.6,199.92-33,45.45-65.79,91.08-98.91,136.43C1521,752.71,1436.53,689,1350.42,627.57c-22.55,40-45.34,79.94-66.42,120.79q126.74,91.47,252.59,184c-33,45.87-65.7,92-99.68,137.19-78.79-57-157.06-114.78-235.91-171.79-118.55,211-233.8,423.8-352.55,634.67C730.81,1323.25,616,1112.43,499,902.85c-77,55-152.81,111.58-229.6,166.86-34-45.25-66.76-91.36-99.78-137.33,81.57-60.83,165.14-118.89,245.9-180.72-22.6-39.56-43-80.37-67.09-119.08C265.34,693.08,182.82,754.43,99,813.92,65.8,768.53,33.07,722.85,0,677.4,87.64,611,177.66,547.77,266,482.25,178.09,321.27,87.92,161.53.19.45Z" fill="#9a33cc"/><path d="M1987.19,1653.49c0-8.22,6-14.24,12.81-17.87v17.87Z" fill="#fff"/></svg>