<svg width="200" height="200" viewBox="0 0 200 200" fill="none" xmlns="http://www.w3.org/2000/svg">
<path d="M21.8855 184.247C-2.01603 162.076 -3.41853 124.726 18.753 100.824L94.7609 18.8855C116.932 -5.01605 154.282 -6.41855 178.184 15.7529C202.085 37.9244 203.488 75.274 181.316 99.1756L105.308 181.115C83.1367 205.016 45.7871 206.419 21.8855 184.247Z" fill="white"/>
<path fill-rule="evenodd" clip-rule="evenodd" d="M18.753 100.824C-3.41853 124.726 -2.01603 162.076 21.8855 184.247C45.7871 206.419 83.1367 205.016 105.308 181.115L145.81 137.452L59.2549 57.1621L18.753 100.824ZM40.6908 123.847C41.4209 122.946 41.2828 121.625 40.3824 120.895C39.482 120.165 38.1603 120.303 37.4302 121.203L34.9463 124.267C34.2162 125.167 34.3543 126.489 35.2547 127.219C36.1551 127.949 37.4768 127.811 38.2068 126.91L40.6908 123.847ZM34.5525 135.781C34.7653 134.641 34.014 133.545 32.8745 133.332C31.735 133.12 30.6388 133.871 30.4261 135.01C29.2814 141.142 29.7013 147.239 31.4916 152.718C31.8516 153.82 33.0367 154.421 34.1385 154.061C35.2404 153.701 35.8417 152.516 35.4816 151.414C33.9159 146.623 33.5335 141.24 34.5525 135.781ZM39.6257 160.27C38.8184 159.438 37.4897 159.418 36.6578 160.225C35.8259 161.032 35.8059 162.361 36.6131 163.193L40.0892 166.775C40.8964 167.607 42.2252 167.627 43.0571 166.82C43.889 166.013 43.909 164.684 43.1018 163.852L39.6257 160.27Z" fill="#5FCB88"/>
<path fill-rule="evenodd" clip-rule="evenodd" d="M3.06623 138.152C5.76813 147.035 10.7861 155.343 18.084 162.112C40.0735 182.51 74.4351 181.22 94.8329 159.23L161.563 87.2934C181.961 65.304 180.67 30.9424 158.681 10.5446C153.808 6.02469 148.328 2.56968 142.527 0.168847C155.378 1.14043 168.001 6.30744 178.184 15.7529C202.085 37.9244 203.488 75.274 181.316 99.1756L105.308 181.115C83.1367 205.016 45.7871 206.419 21.8855 184.247C8.6076 171.93 2.27306 154.929 3.06623 138.152Z" fill="#629393" fill-opacity="0.4"/>
<path fill-rule="evenodd" clip-rule="evenodd" d="M140.341 130.232L174.776 93.1092C193.598 72.8194 192.407 41.1138 172.117 22.2927C151.827 3.47151 120.122 4.66206 101.301 24.9518L66.8651 62.0744L140.341 130.232ZM181.316 99.1756C203.488 75.274 202.085 37.9244 178.184 15.7529C154.282 -6.41855 116.932 -5.01605 94.7609 18.8855L54.259 62.5478L140.814 142.838L181.316 99.1756Z" fill="#1D3934"/>
<path fill-rule="evenodd" clip-rule="evenodd" d="M25.2927 106.891L60.7988 68.6141L54.259 62.5478L18.753 100.824C-3.41853 124.726 -2.01603 162.076 21.8855 184.247C45.7871 206.419 83.1367 205.016 105.308 181.115L140.814 142.838L134.275 136.771L98.7685 175.048C79.9473 195.338 48.2417 196.528 27.9519 177.707C7.66214 158.886 6.47158 127.181 25.2927 106.891Z" fill="#1D3934"/>
</svg>
