<svg xmlns="http://www.w3.org/2000/svg" viewBox="0 0 180 180">
<path d="M0 0 C59.4 0 118.8 0 180 0 C180 59.4 180 118.8 180 180 C120.6 180 61.2 180 0 180 C0 120.6 0 61.2 0 0 Z" fill="#242236" transform="translate(0,0)"/>
<path d="M0 0 C10.16 8.125 19.119 18.445 21.75 31.629 C23.372 47.011 20.993 61.03 12 74 C2.816 84.771 -7.886 91.686 -22 94 C-24.333 94.038 -26.667 94.046 -29 94 C-29 89.71 -29 85.42 -29 81 C-27.556 80.752 -26.112 80.505 -24.625 80.25 C-14.058 78.062 -6.156 74.339 1 66 C7.653 55.244 10.032 44.357 7.316 31.852 C3.629 20.928 -3.319 13.075 -13.496 7.676 C-22.84 3.719 -33.309 3.447 -42.938 6.625 C-51.404 10.205 -59.199 16.129 -63.223 24.562 C-65.444 30.041 -67.117 34.81 -67.205 40.757 C-67.225 41.938 -67.245 43.119 -67.266 44.335 C-67.291 46.248 -67.291 46.248 -67.316 48.199 C-67.337 49.505 -67.358 50.81 -67.379 52.155 C-67.435 55.622 -67.484 59.089 -67.532 62.556 C-67.582 66.095 -67.638 69.635 -67.693 73.174 C-67.801 80.116 -67.902 87.058 -68 94 C-69.699 92.582 -71.381 91.151 -73.046 89.693 C-74.26 88.641 -75.5 87.617 -76.775 86.639 C-79.303 84.529 -80.772 82.971 -81.536 79.713 C-81.761 76.913 -81.779 74.18 -81.727 71.371 C-81.728 69.832 -81.728 69.832 -81.73 68.262 C-81.725 66.092 -81.706 63.923 -81.672 61.754 C-81.625 58.472 -81.631 55.194 -81.645 51.912 C-81.595 33.422 -78.86 19.243 -65.812 5.25 C-47.527 -12.073 -20.871 -14.107 0 0 Z" fill="#E0D4F8" transform="translate(120,35)"/>
<path d="M0 0 C1.995 0.948 3.726 1.994 5.523 3.273 C6.575 3.995 7.627 4.717 8.711 5.461 C14.401 11.151 16.83 16.076 17.148 24.211 C16.848 31.743 14.961 37.508 9.844 43.113 C5.308 47.236 0.899 50.158 -5.352 50.461 C-6.383 50.399 -7.414 50.337 -8.477 50.273 C-8.477 45.983 -8.477 41.693 -8.477 37.273 C-6.589 36.686 -6.589 36.686 -4.664 36.086 C-1.915 35.025 -0.561 34.36 1.523 32.211 C3.005 27.86 3.35 23.811 2.523 19.273 C0.273 16.185 0.273 16.185 -2.477 14.273 C-2.807 13.943 -3.137 13.613 -3.477 13.273 C-8.977 12.627 -13.129 12.222 -17.602 15.711 C-18.22 16.557 -18.839 17.402 -19.477 18.273 C-19.807 18.603 -20.137 18.933 -20.477 19.273 C-20.602 21.859 -20.663 24.419 -20.682 27.006 C-20.697 28.221 -20.697 28.221 -20.712 29.46 C-20.744 32.149 -20.768 34.838 -20.793 37.527 C-20.814 39.387 -20.835 41.246 -20.856 43.106 C-20.911 48.01 -20.961 52.914 -21.009 57.818 C-21.059 62.818 -21.115 67.818 -21.17 72.818 C-21.278 82.637 -21.379 92.455 -21.477 102.273 C-23.18 100.852 -24.863 99.417 -26.523 97.944 C-28.387 96.279 -28.387 96.279 -30.251 95.11 C-33.444 92.745 -34.365 90.95 -35.02 86.989 C-35.258 82.658 -35.285 78.37 -35.238 74.035 C-35.24 72.429 -35.243 70.822 -35.248 69.216 C-35.253 65.852 -35.236 62.49 -35.204 59.126 C-35.164 54.835 -35.173 50.547 -35.198 46.256 C-35.212 42.938 -35.202 39.621 -35.185 36.303 C-35.179 34.722 -35.18 33.142 -35.189 31.561 C-35.224 21.812 -34.85 13.794 -27.692 6.44 C-19.878 -0.846 -10.383 -3.046 0 0 Z" fill="#DFD3F7" transform="translate(99.4765625,52.7265625)"/>
</svg>
