<svg width="1993" height="1995" viewBox="0 0 1993 1995" fill="none" xmlns="http://www.w3.org/2000/svg">
<path d="M997.177 1492.53V1992.71C873.53 1994.82 756.446 1972.74 643.542 1928.53C435.669 1847.12 272.232 1711.03 151.802 1523.59C-90.5269 1146.47 -29.9771 660.848 242.906 342.822C525.974 12.9283 985.301 -90.9006 1393.78 84.0485C1829.92 270.848 1998.16 672.308 1992.79 993.397C1988.44 994.177 1983.82 995.756 1979.19 995.756C1823.28 995.812 1667.37 995.756 1511.47 995.552C1506.8 995.552 1502.13 993.806 1497.45 992.877L1497.84 993.379C1496.24 979.504 1494.36 965.648 1493.1 951.754C1481.9 829.5 1434.05 724.928 1343.86 640.379C1178.32 485.211 953.744 450.087 766.24 552.672C470.014 714.75 445.538 1078.63 586.673 1276.2C687.477 1417.32 822.961 1492.52 997.864 1493.26L997.214 1492.52L997.177 1492.53Z" fill="#38a5a0"/>
<path d="M1496.72 996.442C1496.31 1064.03 1495.7 1131.61 1495.56 1199.2C1495.35 1297.28 1495.5 1395.37 1495.5 1497.69H1991.89V1994.96H1495.64V1497.65C1483.28 1497.65 1473.7 1497.65 1464.13 1497.65C1316.43 1497.65 1168.74 1497.69 1021.04 1497.59C1012.85 1497.59 1004.65 1496.6 996.456 1496.08L997.106 1496.82V999.34H1023.13C1171.34 999.34 1319.55 999.377 1467.77 999.228C1477.55 999.228 1487.32 997.724 1497.1 996.926L1496.71 996.424L1496.72 996.442Z" fill="#38a5a0"/>
</svg>
