<?xml version="1.0" encoding="UTF-8"?>
<svg id="Layer_2" data-name="Layer 2" xmlns="http://www.w3.org/2000/svg" viewBox="0 0 142.4347826 142.4347826">
  <defs>
    <style>
      .cls-1 {
        opacity: 0;
      }
    </style>
  </defs>
  <g id="Layer_1-2" data-name="Layer 1">
    <g>
      <rect class="cls-1" width="142.4347826" height="142.4347826"/>
      <g>
        <path id="Path_2263" data-name="Path 2263" d="M64.2732908,125.9308416l-27.0407061-15.5628248h-.44287c-20.0886968,0-32.1182391-9.9336309-32.1182391-25.0574685v-31.5626954c0-15.1218888,11.9207365-25.0574648,32.009463-25.0574648s32.009463,9.9316933,32.009463,25.0574648v31.5665782c.2334093,7.6354316-3.4239877,14.8675394-9.7121959,19.2048983l13.2474495,7.6163068-7.9523643,13.7952054ZM36.6809386,94.9159095c10.3745743,0,14.898505-4.0791193,14.898505-10.3745669v-30.0203938c0-6.2915612-4.5258869-10.3745669-14.7897289-10.3745669-10.3745743,0-15.0092373,4.079123-15.0092373,10.3745669v30.0203938c0,6.2915574,4.6365895,10.3745669,14.898505,10.3745669"/>
        <path id="Path_2268" data-name="Path 2268" d="M139.3485913,30.0734046v78.6513074h-17.1711553v-30.4632712h-27.6933925v30.4632712h-17.1691991V30.0734046h17.1691991v32.6795995h27.6952894V30.0734046h17.1691991v32.6795995h27.6952894V30.0734046h17.1692584Z"/>
      </g>
    </g>
  </g>
</svg>
