<?xml version="1.0" encoding="utf-8"?>
<svg version="1.1" xmlns="http://www.w3.org/2000/svg" xmlns:xlink="http://www.w3.org/1999/xlink" xml:space="preserve" viewBox="0 0 70 70" width="70" height="70">
<g>
	<path fill="#F37321" d="M45.515,50.076c-0.533-0.556-1.551-0.777-2.279-0.488c0,0-4.858,1.96-8.399,1.96
		c-10.794,0-19.548-8.407-19.548-18.779c0-10.367,8.753-18.771,19.548-18.771c10.798,0,19.548,8.404,19.548,18.771
		c0,3.983-2.857,9.481-2.857,9.481c-0.357,0.675-0.186,1.667,0.365,2.203l8.805,8.51c0.555,0.536,1.074,0.357,1.074-0.392V8.397
		c0-0.749-0.771-1.48-1.561-1.48H9.467c-0.783,0-1.29,0.731-1.29,1.48v48.748c0,0.754,0.507,1.253,1.29,1.253h42.675
		c0.781,0,0.994-0.397,0.467-0.95L45.515,50.076z"/>

	<path fill="#F37321" d="M23.877,32.769c0,5.821,4.905,10.536,10.959,10.536s10.968-4.715,10.968-10.536
		c0-5.811-4.914-10.531-10.968-10.531S23.877,26.958,23.877,32.769z"/>
</g>
</svg>
