<svg xmlns="http://www.w3.org/2000/svg" viewBox="43 -3 70 49">
  <path fill="#3EA448" d="M66.6335 23.5104C70.6277 16.1554 75.8885 10.5881 80.6693 8.00365L75.8681.444363C75.4901-.148121 74.8874-.148121 74.5299.444363L48.2563 41.857C47.8783 42.4495 48.195 42.6231 48.8794 42.6231H61.4135C61.2194 37.2703 62.8232 30.4874 66.6335 23.5104Z"/>
  <path fill="#3EA448" d="M82.3033 12.7103C79.7291 11.3006 74.172 16.5206 69.8918 24.3761C65.6218 32.2215 64.2428 39.7297 66.817 41.1496C68.6864 42.1609 71.8327 39.4947 75.1935 35.1124V25.081C75.1935 24.039 75.8473 23.467 76.3376 24.3761L79.1366 29.6676C79.1775 29.6064 79.1979 29.5553 79.2387 29.494C83.5189 21.6385 84.8878 14.1302 82.3033 12.7103Z"/>
  <path fill="#3EA448" d="M102.162 41.8552 91.5582 25.1328C90.6388 28.2791 89.2802 31.6093 87.4823 34.9088C86.5425 36.625 85.5414 38.239 84.4893 39.761L86.4914 42.6213H101.539C102.223 42.6213 102.54 42.4477 102.162 41.8552Z"/>
</svg>
