<svg data-name="Group 21126" xmlns="http://www.w3.org/2000/svg" width="24" height="24" viewBox="0 0 24 24">
    <defs>
        <linearGradient id="0tsq2hcoba" x1=".5" x2=".5" y2="1" gradientUnits="objectBoundingBox">
            <stop offset="0" stop-color="#2464f4"/>
            <stop offset="1" stop-color="#1db2d5"/>
        </linearGradient>
    </defs>
    <circle data-name="Ellipse 528" cx="12" cy="12" r="12" style="fill:#fff"/>
    <path data-name="Path 11312" d="M766.125 725.606z" transform="translate(-753.615 -721.683)" style="fill:url(#0tsq2hcoba);opacity:.3"/>
    <path data-name="Path 11314" d="M765.979 725.607z" transform="translate(-753.483 -721.683)" style="opacity:.4;fill:url(#0tsq2hcoba)"/>
    <g data-name="Group 15189">
        <path data-name="Path 11311" d="M587.236 578.9a9.765 9.765 0 0 0-2.9-2.021 2.732 2.732 0 0 0 .273-.943l-.047-.021a7.679 7.679 0 0 1-.514.844 10.51 10.51 0 0 1-.673.873l.555.006a5.03 5.03 0 0 1-2.705 2.119c-.005.456-.7 1.262-.7 1.262a7.338 7.338 0 0 0 2.228-1.085c4.791.22 5.96 3.026 6.288 3.556.047.076.01.146 0 .134a4.392 4.392 0 0 0-2.727-2.105l.507.625a11.37 11.37 0 0 0-4.034-1.089 9.192 9.192 0 0 1 5.148 2.963 9.063 9.063 0 0 1 1.767 4.044c.011.08.018.143.021.186a9.767 9.767 0 0 0 .328-2.457 9.649 9.649 0 0 0-2.815-6.891zm-5.2-2.734-.139-.024-.12-.019h-.017l-.214-.03h-.014l-.118-.014a9.026 9.026 0 0 0-.231-.023h-.028l-.087-.007q-.137-.011-.276-.018c-.08 0-.161-.007-.241-.009h-.382c-.124 0-.248.005-.371.012l-.122.007a9.756 9.756 0 0 0-8.8 7.183 9.86 9.86 0 0 0-.325 2.535 3.657 3.657 0 0 0 .03.562 1.689 1.689 0 0 0 .056.245l.008.027a6.713 6.713 0 0 0 .661 1.413 7.562 7.562 0 0 0 .552.836 3.839 3.839 0 0 0 .271.331l.029.033.036.039.1.109.022.023a6.242 6.242 0 0 0 1.713 1.22 8.255 8.255 0 0 0 3.119.813 7.505 7.505 0 0 0 1.13-.008h.056a4.636 4.636 0 0 0 1.19-.251 2.844 2.844 0 0 0 .894-.465 3.482 3.482 0 0 0 .856-.912 3.26 3.26 0 0 0 .54-1.716 3.605 3.605 0 0 0-3.45-3.2 4.184 4.184 0 0 0-.2-.014h-.378l-.111.005-.095.007-.083.008a3.13 3.13 0 0 0-.166.02q-.213.029-.431.078c-1.335.306-.871 1.376-.855 1.412a4.356 4.356 0 0 1-.928-.187h-.014l-.059-.021a2.538 2.538 0 0 1-.872-.514l-.024-.023a2.377 2.377 0 0 1-.418-.552 6.3 6.3 0 0 0-.534.376 6.971 6.971 0 0 1-.079-2.077c.162-.784 1.411-1.728 1.411-1.728s-.156.805.56.813 1.551-1.119 1.583-1.021.685.106.685.106-.294 0-.549-.528.538-1.3 1.851-1.77a6.744 6.744 0 0 0 2.34-1.6c.326.037.414.95.414.95a10.085 10.085 0 0 0 2.313-1.942 9.66 9.66 0 0 0-1.688-.492zm-3.392 4.14c-.668.26-.584.72-.584.72a1.8 1.8 0 0 0 1.09-.216 2.086 2.086 0 0 0 .819-1.126 12.562 12.562 0 0 1-1.324.616zm.844 2.435zm-5.133.118c-.2-.067-.462.168-.584.527a1.033 1.033 0 0 0-.054.473 1.186 1.186 0 0 1 .051-.21c.123-.359.384-.595.584-.527a.343.343 0 0 1 .195.3c.042-.276-.031-.51-.191-.564zm4.288-2.553c-.668.26-.584.72-.584.72a1.8 1.8 0 0 0 1.09-.216 2.086 2.086 0 0 0 .819-1.126 12.562 12.562 0 0 1-1.323.616zm-4.288 2.553c-.2-.067-.462.168-.584.527a1.033 1.033 0 0 0-.054.473 1.186 1.186 0 0 1 .051-.21c.123-.359.384-.595.584-.527a.343.343 0 0 1 .195.3c.042-.276-.031-.51-.191-.564zm4.288-2.553c-.668.26-.584.72-.584.72a1.8 1.8 0 0 0 1.09-.216 2.086 2.086 0 0 0 .819-1.126 12.562 12.562 0 0 1-1.323.616zm.844 2.435zm-5.133.118c-.2-.067-.462.168-.584.527a1.033 1.033 0 0 0-.054.473 1.186 1.186 0 0 1 .051-.21c.123-.359.384-.595.584-.527a.343.343 0 0 1 .195.3c.043-.276-.03-.51-.19-.564z" transform="translate(-568.301 -573.665)" style="fill:#8045ff"/>
        <g data-name="Group 15188">
            <path data-name="Path 11313" d="M586.881 735.552a6.055 6.055 0 0 1-3.519 2.241q-.369.078-.743.124l-.1.012-.1.01h-.029a11.349 11.349 0 0 1-5.116-.708 8.4 8.4 0 0 1-1.623-.837 9.907 9.907 0 0 1-1.509-1.249 10.837 10.837 0 0 1-2.788-6.261 1.766 1.766 0 0 0 .056.245 6.6 6.6 0 0 0 .669 1.44 7.626 7.626 0 0 0 .551.836 3.954 3.954 0 0 0 .271.331l.029.032.036.04.1.109.022.023a6.235 6.235 0 0 0 1.713 1.219 8.249 8.249 0 0 0 3.118.814 7.537 7.537 0 0 0 1.13-.008h.056a4.652 4.652 0 0 0 1.19-.251 2.823 2.823 0 0 0 .894-.465 3.482 3.482 0 0 0 .856-.912 3.263 3.263 0 0 0 .54-1.716c.018-1.519-1.61-3.245-3.893-3.223h-.264l-.107.009c-.059 0-.118.011-.177.019h-.013c-.149.02-.3.047-.454.082-.78.179-.946.619-.946.961a1.206 1.206 0 0 0 .091.453h-.007a4.389 4.389 0 0 1-.928-.187h-.014l-.059-.021a2.526 2.526 0 0 1-.871-.514l-.024-.023a2.226 2.226 0 0 1-.24-.274 2.7 2.7 0 0 1-.178-.278 8.208 8.208 0 0 1 4.075-1.259l.148-.006q.3-.01.611 0 .482.015.967.077a8.051 8.051 0 0 1 1.442.3h.005a3.336 3.336 0 0 0-.418-.587c-.2-.231-.72-.838-1.065-.832l.1-.006q.317-.015.639 0a7.341 7.341 0 0 1 5.426 2.63l.026.028.032.041a7.759 7.759 0 0 1 .952 1.644 9.3 9.3 0 0 1 .482 2.149 5.215 5.215 0 0 1-1.042 3.748z" transform="translate(-569.072 -716.243)" style="fill:#522f9e"/>
            <path data-name="Path 11315" d="M652.45 735.552a6.055 6.055 0 0 1-3.519 2.241q-.369.078-.743.124l-.1.012-.1.01h-.029l-.2.018a10.85 10.85 0 0 1-1.988-.027 8.594 8.594 0 0 1-2.926-.7l-.076-.04c.124-.006.253 0 .379 0a6.765 6.765 0 0 0 4.5-1.778 6.107 6.107 0 0 0 2.142-4.448c0-.173-.008-.349-.024-.522l-.008-.08-.033.074a3.422 3.422 0 0 1-2.107 1.894l-.022.007a3.011 3.011 0 0 0 .42-.886 3.248 3.248 0 0 0 .135-.837 3.628 3.628 0 0 0-3.585-3.214H643.999l-.107.009q-.088.007-.177.019h-.013c-.151.02-.3.047-.46.083-1.334.305-.87 1.376-.855 1.412a2.643 2.643 0 0 1-2.325-1.306 8.21 8.21 0 0 1 4.081-1.259l.149-.006q.3-.01.611 0 .479.016.961.077a7.9 7.9 0 0 1 1.447.3 3.407 3.407 0 0 0-.418-.587c-.2-.229-.714-.83-1.059-.832h-.009l.108-.006q.318-.015.639 0a7.342 7.342 0 0 1 5.42 2.63l.026.028.038.041a4.856 4.856 0 0 1 .952 1.644 9.3 9.3 0 0 1 .482 2.149 5.215 5.215 0 0 1-1.04 3.756z" transform="translate(-634.641 -716.243)" style="fill:#391a7d;opacity:.7"/>
        </g>
    </g>
</svg>
