<svg version="1.1" id="Layer_1" xmlns="http://www.w3.org/2000/svg" xmlns:xlink="http://www.w3.org/1999/xlink" x="0px" y="0px"
	 width="100%" viewBox="0 0 500 500" enable-background="new 0 0 500 500" xml:space="preserve">
<path fill="#5EB28E" opacity="1.000000" stroke="none" 
	d="
M350.000000,513.000000 
	C233.361679,513.000000 117.223351,513.000000 1.042510,513.000000 
	C1.042510,342.403320 1.042510,171.806625 1.042510,1.104965 
	C171.554993,1.104965 342.110077,1.104965 512.832581,1.104965 
	C512.832581,171.666534 512.832581,342.333252 512.832581,513.000000 
	C458.806549,513.000000 404.653290,513.000000 350.000000,513.000000 
M363.065277,446.261963 
	C364.122498,446.871307 365.179718,447.480652 366.775085,448.400177 
	C366.775085,445.834930 366.775116,444.017151 366.775116,442.199371 
	C366.775238,417.872955 366.825714,393.546295 366.715363,369.220367 
	C366.700623,365.967682 367.662567,363.744263 370.091431,361.483887 
	C445.397766,291.400909 440.944275,175.949158 370.724243,110.407600 
	C319.709167,62.791470 244.310730,51.351543 183.179871,81.955078 
	C114.072121,116.552032 77.325508,190.105652 90.874725,266.717133 
	C108.087471,364.043304 204.229309,425.828033 299.467590,400.657501 
	C302.610535,399.826904 304.760468,400.298065 307.189301,402.223602 
	C325.593079,416.813599 344.070801,431.310303 363.065277,446.261963 
z"/>
<path fill="#FEFFFF" opacity="1.000000" stroke="none" 
	d="
M362.795380,446.049011 
	C344.070801,431.310303 325.593079,416.813599 307.189301,402.223602 
	C304.760468,400.298065 302.610535,399.826904 299.467590,400.657501 
	C204.229309,425.828033 108.087471,364.043304 90.874725,266.717133 
	C77.325508,190.105652 114.072121,116.552032 183.179871,81.955078 
	C244.310730,51.351543 319.709167,62.791470 370.724243,110.407600 
	C440.944275,175.949158 445.397766,291.400909 370.091431,361.483887 
	C367.662567,363.744263 366.700623,365.967682 366.715363,369.220367 
	C366.825714,393.546295 366.775238,417.872955 366.775116,442.199371 
	C366.775116,444.017151 366.775085,445.834930 366.775085,448.400177 
	C365.179718,447.480652 364.122498,446.871307 362.795380,446.049011 
M211.279266,151.674957 
	C175.058517,173.826080 157.823837,205.925781 163.096512,248.283737 
	C167.669907,285.023926 188.089050,311.392944 222.463562,324.813690 
	C256.051422,337.927338 288.190216,332.729797 316.274628,309.611847 
	C370.001709,265.385895 359.602448,179.449768 296.968933,149.341125 
	C268.476349,135.644394 239.949097,136.944427 211.279266,151.674957 
z"/>
<path fill="#5EB28E" opacity="1.000000" stroke="none" 
	d="
M211.592346,151.475952 
	C239.949097,136.944427 268.476349,135.644394 296.968933,149.341125 
	C359.602448,179.449768 370.001709,265.385895 316.274628,309.611847 
	C288.190216,332.729797 256.051422,337.927338 222.463562,324.813690 
	C188.089050,311.392944 167.669907,285.023926 163.096512,248.283737 
	C157.823837,205.925781 175.058517,173.826080 211.592346,151.475952 
z"/>
</svg>