<svg xmlns="http://www.w3.org/2000/svg" fill="none" viewBox="0 0 500 500"><g clip-path="url(#a)"><path fill="#E57B73" d="M499.887 344.457c-.999-34.484-14.493-68.469-36.983-94.457 24.989-27.987 38.482-65.97 36.983-103.453-25.488-27.488-61.972-44.48-99.455-46.979-28.487-2-57.474 4.498-82.463 17.992-5.997 3.498-11.994 7.496-17.992 11.495-3.998-28.987-16.492-55.975-35.983-77.965 22.49-18.992 51.476-29.987 81.463-30.986 15.993 16.492 26.988 37.483 32.485 59.973 6.497-.5 13.494-.5 20.491-.5-3.998-20.49-12.994-40.482-24.989-57.474A133.4 133.4 0 0 0 354.453.113C315.97-.887 277.987 12.607 250 37.096 222.013 12.108 184.03-1.386 146.547.113c-27.488 25.488-44.48 61.972-46.979 99.455-2 28.487 4.498 57.474 17.992 82.463 3.498 5.997 7.496 11.994 11.495 17.992-28.987 3.998-55.975 16.492-77.965 35.983-18.992-22.49-29.987-51.476-30.986-80.963 16.492-15.993 37.483-26.988 59.973-32.485-.5-6.497-.5-13.494-.5-20.491-20.49 3.998-40.482 12.994-57.474 24.989a133.4 133.4 0 0 0-21.99 18.991c-1 37.983 12.494 75.966 36.983 103.953C12.108 277.987-1.386 315.97.113 353.453c25.488 27.488 61.972 44.48 99.455 46.979 28.487 1.999 57.474-4.498 82.463-17.992 5.997-3.498 11.994-7.496 17.992-11.495 3.998 28.987 16.492 55.975 35.983 77.965-22.49 18.992-51.476 29.987-80.963 30.986-15.993-16.492-26.988-37.483-32.485-59.973-6.497.5-13.494.5-20.491.5 3.998 20.491 12.994 40.482 24.989 57.474a133.5 133.5 0 0 0 18.991 21.99c37.483 1 75.466-11.994 103.453-36.983 27.988 24.989 65.97 38.482 103.453 36.983 27.488-25.488 44.48-61.972 46.979-99.455 1.999-28.487-4.498-57.474-17.992-82.463-3.498-5.997-7.496-11.994-11.494-17.992 28.986-3.998 55.974-16.492 77.964-35.983 19.492 22.49 30.487 51.476 31.486 80.963-16.492 15.993-37.483 26.988-59.973 32.485.5 6.497.5 13.494.5 20.491 20.491-3.998 40.482-12.994 57.474-24.989a133.5 133.5 0 0 0 21.99-18.991zM362.449 177.033c-4.498 7.497-9.995 14.993-15.993 21.49-8.496 9.496-18.491 17.492-29.486 23.989-10.495 6.497-21.99 10.995-33.985 13.994-7.996 1.499-15.493 3.499-22.99 3.499-.499-7.497 1.5-14.994 2.999-21.991 2.999-11.994 7.997-23.489 13.994-33.984 6.497-10.995 14.493-20.991 23.989-29.487 21.49-19.991 49.977-32.485 78.964-34.484-.999 19.491-6.997 39.482-17.492 56.974m-49.977 98.455c1.499.5 2.499 1.5 3.998 2.499 10.995 6.497 20.99 14.494 29.487 23.99 19.991 21.49 32.485 49.977 34.484 78.964-19.991-1.499-39.982-7.997-57.474-17.992-7.497-4.498-14.993-9.996-21.49-16.493-9.496-8.496-17.492-18.491-23.989-29.486-6.497-10.495-10.995-21.99-13.994-33.985-1.499-7.996-3.499-15.493-3.499-22.99 7.497-.499 14.994 1.5 21.991 2.999 10.995 2.999 20.99 6.997 30.486 12.494m-79.964 19.991c-2.999 7.497-5.997 14.494-9.996 21.491-6.497 10.995-14.493 20.99-23.989 29.486-21.49 19.991-49.977 32.486-78.964 34.485 1.499-19.991 7.996-39.982 17.992-57.474 4.498-7.497 9.995-14.993 16.492-21.49 8.496-9.496 18.492-17.493 29.487-23.99 10.495-6.497 21.99-10.995 33.985-13.993 7.496-1.999 14.993-3.999 22.49-3.999.499 7.497-1.5 14.994-2.999 21.991zm-44.98-70.967c-1.499-.5-2.499-1.5-3.998-2.499-10.995-6.497-20.991-14.494-29.487-23.99-19.991-21.49-32.485-49.977-34.484-78.964 19.991 1.499 39.982 7.997 57.474 17.992 7.497 4.498 14.993 9.996 21.49 16.493 9.496 8.496 17.492 18.491 23.989 29.486 6.497 10.495 10.995 21.99 13.994 33.985 1.499 7.996 3.499 15.493 3.499 22.99-7.497.499-14.994-1.5-21.991-2.999-10.995-2.999-20.99-6.997-30.486-12.494M120.059 93.071c3.498-27.488 15.992-52.976 34.484-72.967 66.97.5 125.443 58.473 126.943 125.443-13.494 13.994-24.489 30.986-31.486 48.978-19.991-51.477-69.968-89.46-124.944-94.457-1.999 0-3.998-.5-5.497-.5 0-2.499.5-4.498.5-6.497M99.568 380.44c-29.487-1.999-57.974-14.993-79.464-34.984.5-66.97 58.473-125.443 125.443-126.943 13.994 13.494 30.986 24.489 48.978 31.486-53.476 20.491-91.958 73.467-94.957 130.441m280.373 26.488c-3.498 27.488-15.992 52.976-34.484 72.967-66.97-.5-125.443-58.473-126.943-125.443 13.494-13.994 24.489-30.986 31.486-48.978 20.491 53.476 73.467 91.958 130.441 94.957 0 2.499-.5 4.498-.5 6.497m78.965-184.916c-22.49 34.984-62.472 57.973-104.453 59.473-13.994-13.494-30.986-24.489-48.978-31.486 53.476-20.491 91.958-73.467 94.957-130.441 29.487 1.999 57.974 14.993 79.464 35.484-.5 23.489-7.996 46.979-20.99 66.97"/></g><defs><clipPath id="a"><path fill="#fff" d="M0 0h500v500H0z"/></clipPath></defs></svg>
