<svg xmlns="http://www.w3.org/2000/svg" width="64" height="64" viewBox="0 0 6.416 6.418"><linearGradient id="A" gradientUnits="userSpaceOnUse" x1="2.555" y1="2.762" x2="1.619" y2="3.268"><stop offset="0" stop-color="#ff9100"/><stop offset=".05" stop-color="#ff8d00"/><stop offset=".25" stop-color="#ff8300"/><stop offset=".5" stop-color="#ff8000"/><stop offset=".75" stop-color="#ff8300"/><stop offset=".95" stop-color="#ff8d00"/><stop offset="1" stop-color="#ff9100"/></linearGradient><linearGradient id="B" gradientUnits="userSpaceOnUse" x1="2.812" y1="3.21" x2="1.438" y2="2.806"><stop offset="0" stop-color="#ff9100"/><stop offset=".05" stop-color="#ff8d00"/><stop offset=".25" stop-color="#ff8300"/><stop offset=".5" stop-color="#ff8000"/><stop offset=".75" stop-color="#ff8300"/><stop offset=".95" stop-color="#ff8d00"/><stop offset="1" stop-color="#ff9100"/></linearGradient><linearGradient id="C" gradientUnits="userSpaceOnUse" x1="2.799" y1="3.682" x2="1.452" y2="2.334"><stop offset="0" stop-color="#ff9100"/><stop offset=".05" stop-color="#ff8d00"/><stop offset=".25" stop-color="#ff8300"/><stop offset=".5" stop-color="#ff8000"/><stop offset=".75" stop-color="#ff8300"/><stop offset=".95" stop-color="#ff8d00"/><stop offset="1" stop-color="#ff9100"/></linearGradient><linearGradient id="D" gradientUnits="userSpaceOnUse" x1="2.623" y1="4.162" x2="1.627" y2="1.855"><stop offset="0" stop-color="#ff9100"/><stop offset=".05" stop-color="#ff8d00"/><stop offset=".25" stop-color="#ff8300"/><stop offset=".5" stop-color="#ff8000"/><stop offset=".75" stop-color="#ff8300"/><stop offset=".95" stop-color="#ff8d00"/><stop offset="1" stop-color="#ff9100"/></linearGradient><linearGradient id="E" gradientUnits="userSpaceOnUse" x1="2.125" y1="4.618" x2="2.125" y2="1.399"><stop offset="0" stop-color="#ff9100"/><stop offset=".05" stop-color="#ff8d00"/><stop offset=".25" stop-color="#ff8300"/><stop offset=".5" stop-color="#ff8000"/><stop offset=".75" stop-color="#ff8300"/><stop offset=".95" stop-color="#ff8d00"/><stop offset="1" stop-color="#ff9100"/></linearGradient><g transform="matrix(1.873506 0 0 1.873506 -.773768 -2.42726)"><path d="M1.948 2.537c.017.033.006.073-.027.09a.067.067 0 0 1-.091-.027c-.018-.032-.006-.073.027-.09a.067.067 0 0 1 .091.027zm-.332.526a.04.04 0 0 0-.016.054.039.039 0 0 0 .07-.038.04.04 0 0 0-.054-.016zM1.61 2.9a.046.046 0 0 0-.018.062c.012.023.04.03.063.02s.03-.04.02-.063a.046.046 0 0 0-.063-.018zm.042-.156a.053.053 0 0 0-.022.071c.014.025.046.035.072.02a.053.053 0 0 0 .022-.072.053.053 0 0 0-.071-.021zm.086-.135a.059.059 0 0 0-.024.081c.016.03.05.04.08.024a.059.059 0 1 0-.056-.105zm-.065.605a.033.033 0 1 0 .032.058.034.034 0 0 0 .013-.045.033.033 0 0 0-.045-.013zm.764-.55a.04.04 0 0 0 .054.016.04.04 0 0 0 .016-.054.039.039 0 1 0-.07.038zM2.3 2.58c.012.022.04.03.062.018s.03-.04.02-.062a.046.046 0 1 0-.081.044zm-.155-.042a.052.052 0 1 0 .093-.05.052.052 0 1 0-.093.05zm-.162.006a.059.059 0 0 0 .081.024.06.06 0 0 0 .024-.081.059.059 0 0 0-.104.056zm.552.242c.008.016.03.022.044.013a.032.032 0 0 0 .013-.044.033.033 0 0 0-.045-.014c-.015.01-.022.03-.013.045zm-.114.63a.067.067 0 1 0-.118.064c.018.033.06.044.09.027s.045-.06.027-.09zm-.606-.065a.04.04 0 0 0-.053-.016.039.039 0 0 0-.016.053.039.039 0 1 0 .069-.037zm.134.085a.046.046 0 0 0-.062-.018.046.046 0 0 0-.019.062c.012.022.04.03.062.02a.047.047 0 0 0 .019-.063zm.155.042c-.014-.026-.046-.035-.072-.02a.053.053 0 0 0-.021.071c.014.026.046.035.072.022a.052.052 0 0 0 .022-.072zm.162-.006a.06.06 0 0 0-.081-.024c-.03.015-.04.05-.023.08a.058.058 0 0 0 .08.024c.03-.015.04-.05.024-.08zm.368-.517c.02-.01.027-.035.017-.054a.039.039 0 1 0-.07.038.04.04 0 0 0 .053.016zm.007.16c.022-.012.03-.04.018-.063a.046.046 0 0 0-.062-.019.047.047 0 0 0-.019.063c.012.022.04.03.063.018zM2.6 3.27c.026-.014.035-.046.022-.072a.053.053 0 0 0-.072-.021.053.053 0 0 0-.022.072.053.053 0 0 0 .071.021zm-.085.134c.03-.015.04-.052.024-.08s-.052-.04-.08-.024a.059.059 0 0 0-.024.08.059.059 0 0 0 .08.024z" fill="url(#A)"/><path d="M2.4 2.377a.086.086 0 1 1-.166-.049.087.087 0 1 1 .166.049zm-.83.204a.043.043 0 0 0-.053.029.043.043 0 0 0 .082.024c.007-.022-.006-.046-.03-.053zm.15-.165a.052.052 0 1 0-.03.101.053.053 0 0 0 .065-.036.053.053 0 0 0-.036-.065zm.192-.116a.068.068 0 0 0-.083.045.067.067 0 0 0 .046.083.067.067 0 0 0 .038-.128zm.213-.048a.075.075 0 0 0-.043.144.075.075 0 0 0 .093-.051.075.075 0 0 0-.051-.094zm-.65.533a.032.032 0 0 0-.018.061c.017.005.035-.005.04-.022a.032.032 0 0 0-.022-.04zm1.29.192a.042.042 0 1 0 .053-.029.043.043 0 0 0-.053.029zm-.05-.213a.053.053 0 0 0 .036.066c.028.008.057-.008.065-.036s-.008-.057-.036-.065a.053.053 0 0 0-.066.035zm-.116-.192a.067.067 0 1 0 .083-.045.067.067 0 0 0-.083.045zm-.164-.15a.075.075 0 1 0 .094-.051.076.076 0 0 0-.094.051zm.312.77a.032.032 0 0 0 .021.04.032.032 0 1 0 .018-.061.032.032 0 0 0-.039.022zm-.736.497a.087.087 0 1 0-.166-.049.087.087 0 0 0 .059.108c.046.013.094-.013.107-.06zm-.534-.65a.043.043 0 1 0-.082-.024.043.043 0 1 0 .082.024zm.05.213a.052.052 0 1 0-.101-.029.053.053 0 1 0 .101.029zm.116.192a.068.068 0 0 0-.046-.084.067.067 0 0 0-.083.046.067.067 0 0 0 .129.038zm.164.15a.076.076 0 0 0-.051-.094.075.075 0 0 0-.042.145.076.076 0 0 0 .094-.051zm.867-.16a.043.043 0 0 0 .053-.029.043.043 0 0 0-.029-.053.043.043 0 0 0-.053.029.043.043 0 0 0 .029.053zm-.15.165a.052.052 0 1 0 .03-.101.053.053 0 0 0-.066.036.053.053 0 0 0 .036.065zm-.192.116a.067.067 0 0 0 .038-.128.067.067 0 1 0-.038.128zm-.213.047a.075.075 0 0 0 .093-.051.075.075 0 1 0-.093.051z" fill="url(#B)"/><path d="M2.832 2.42a.111.111 0 0 1-.157.004.111.111 0 1 1 .153-.162.112.112 0 0 1 .005.158zm-1.107-.253a.055.055 0 0 0-.078.002.055.055 0 0 0 .002.077.055.055 0 0 0 .078-.002.055.055 0 0 0-.002-.077zm.278-.106a.068.068 0 0 0-.096.003.068.068 0 0 0 .003.096.068.068 0 0 0 .096-.003.068.068 0 0 0-.003-.096zM2.3 2.04a.086.086 0 0 0-.121.004.086.086 0 0 0 .125.118.086.086 0 0 0-.004-.122zm.282.072a.096.096 0 1 0-.133.141.097.097 0 0 0 .137-.004.097.097 0 0 0-.004-.137zm-1.092.24a.041.041 0 0 0-.058.002.041.041 0 1 0 .059.056.041.041 0 0 0-.002-.058zM2.91 3.36a.055.055 0 0 0 .002.078.055.055 0 0 0 .075-.08.055.055 0 0 0-.078.002zm.07-.283a.068.068 0 0 0 .003.095.067.067 0 1 0 .093-.098.068.068 0 0 0-.096.003zM2.96 2.78a.086.086 0 1 0 .125.118.086.086 0 0 0-.125-.118zm-.104-.276a.097.097 0 1 0 .136-.004c-.04-.037-.1-.034-.136.004zM2.76 3.606a.041.041 0 0 0 .002.058.041.041 0 1 0 .056-.059.04.04 0 0 0-.058.002zm-1.18.143a.111.111 0 0 0-.162-.153.111.111 0 0 0 .162.153zm-.24-1.093a.055.055 0 1 0-.08-.075c-.02.022-.02.056.002.077s.056.02.077-.002zm-.07.283a.068.068 0 0 0-.003-.096.068.068 0 0 0-.093.098.068.068 0 0 0 .096-.003zm.022.298a.086.086 0 0 0-.004-.122.086.086 0 0 0-.122.004.086.086 0 0 0 .004.121c.035.033.09.03.12-.003zm.104.276a.097.097 0 0 0-.004-.137.096.096 0 1 0-.133.141.097.097 0 0 0 .137-.004zm1.13.335a.055.055 0 1 0 .075-.08.055.055 0 0 0-.075.08zm-.278.105c.027.026.07.024.096-.003a.067.067 0 1 0-.099-.092.068.068 0 0 0 .003.095zm-.298.022c.035.033.09.03.12-.003a.086.086 0 1 0-.125-.118.086.086 0 0 0 .004.121zm-.28-.072a.096.096 0 1 0-.004-.136.096.096 0 0 0 .004.136z" fill="url(#C)"/><path d="M3.283 2.656a.135.135 0 0 1-.177-.07.134.134 0 1 1 .177.07zM2.338 1.8a.074.074 0 0 0-.146.029.074.074 0 0 0 .146-.029zm.32.07a.09.09 0 1 0-.174.045.09.09 0 1 0 .174-.045zM2.95 2a.112.112 0 0 0-.214.067.112.112 0 0 0 .214-.067zm.234.21a.123.123 0 0 0-.232.086.124.124 0 1 0 .232-.086zM1.7 1.883a.054.054 0 1 0-.028.071c.027-.012.04-.044.028-.07zm1.348 1.784a.074.074 0 1 0 .104.018.074.074 0 0 0-.104-.018zm.148-.3a.09.09 0 1 0 .096.152.09.09 0 0 0-.096-.152zm.07-.326a.112.112 0 0 0-.043.153.112.112 0 1 0 .196-.11.112.112 0 0 0-.153-.043zm-.004-.327a.124.124 0 0 0-.056.166.123.123 0 0 0 .222-.11.124.124 0 0 0-.166-.056zm-.68 1.34a.054.054 0 1 0 .043.099c.027-.012.04-.044.028-.07a.054.054 0 0 0-.071-.028zm-1.506-.455a.135.135 0 0 0 .07-.177.134.134 0 0 0-.247.107.135.135 0 0 0 .177.07zm.13-1.258a.074.074 0 1 0-.086-.121.074.074 0 1 0 .086.121zm-.148.3a.09.09 0 1 0-.124-.028.09.09 0 0 0 .124.028zm-.07.326a.112.112 0 1 0-.11-.196.112.112 0 0 0 .11.196zM1 3.294a.124.124 0 1 0-.11-.222.124.124 0 0 0 .11.222zm.923.924A.074.074 0 0 0 2 4.276a.075.075 0 0 0 .058-.088.074.074 0 0 0-.087-.058.074.074 0 0 0-.058.087zm-.32-.07a.09.09 0 1 0 .065-.109.09.09 0 0 0-.065.109zM1.3 4.006a.112.112 0 1 0 .214-.067.112.112 0 0 0-.141-.074.112.112 0 0 0-.074.14zm-.235-.21a.123.123 0 0 0 .159.073.124.124 0 0 0-.086-.232.124.124 0 0 0-.073.159zm1.77.11a.058.058 0 0 0 .072.091.058.058 0 1 0-.072-.091zm-.544.235a.058.058 0 0 0-.049.066.058.058 0 1 0 .115-.017.058.058 0 0 0-.066-.049zM2.01 1.8a.058.058 0 1 0-.049.066.058.058 0 0 0 .049-.066zm-.584.22a.058.058 0 0 0-.082-.01.058.058 0 1 0 .082.01z" fill="url(#D)"/><path d="M3.665 3.18a.172.172 0 0 1-.172-.173.172.172 0 1 1 .345 0 .172.172 0 0 1-.173.172zM2.99 1.694a.095.095 0 1 0-.186-.04.095.095 0 0 0 .186.04zm.34.243a.115.115 0 1 0-.132.096.115.115 0 0 0 .132-.096zm.274.316zm.17.365a.158.158 0 1 0-.316-.017.158.158 0 1 0 .316.017zm-1.577-1.15c0-.038-.03-.07-.07-.07a.069.069 0 0 0 0 .138c.038 0 .07-.03.07-.07zm.68 2.782a.095.095 0 1 0 .04.186.095.095 0 0 0-.04-.186zm.32-.266a.115.115 0 1 0 .036.228.115.115 0 0 0-.036-.228zm.248-.348a.144.144 0 1 0 .158.128.144.144 0 0 0-.158-.128zm.16-.387a.159.159 0 0 0-.15.166.158.158 0 1 0 .316-.017.159.159 0 0 0-.167-.15zm-1.48 1.23a.069.069 0 0 0 0 .138.069.069 0 1 0 0-.138zm-1.54-1.3a.172.172 0 0 0 .172-.173.172.172 0 1 0-.345 0 .173.173 0 0 0 .173.172zm.8-1.414a.095.095 0 0 0 .073-.113.095.095 0 1 0-.073.113zm-.32.266a.115.115 0 0 0 .096-.132.115.115 0 1 0-.228.036.115.115 0 0 0 .132.096zm-.248.348a.144.144 0 0 0-.03-.286.143.143 0 1 0 .03.286zm-.16.387a.159.159 0 0 0 .15-.167.158.158 0 0 0-.167-.15.158.158 0 1 0 .017.316zm.616 1.555a.095.095 0 1 0 .113-.073.095.095 0 0 0-.113.073zm-.34-.243a.115.115 0 0 0 .096.132.115.115 0 1 0-.096-.132zm-.274-.316a.143.143 0 1 0 .286.03.144.144 0 0 0-.128-.158.143.143 0 0 0-.158.128zM.48 3.4a.158.158 0 0 0 .15.166.158.158 0 1 0 .017-.316.159.159 0 0 0-.167.15zm2.026 1.026a.074.074 0 0 0-.053.091.074.074 0 1 0 .144-.039.074.074 0 0 0-.091-.053zm-.76 0a.074.074 0 0 0-.038.144.074.074 0 1 0 .038-.144zm.85-2.885a.074.074 0 0 0-.053-.091.074.074 0 0 0-.038.144.074.074 0 0 0 .091-.053zM1.8 1.5a.074.074 0 1 0-.144.038.074.074 0 0 0 .144-.038z" fill="url(#E)"/></g></svg>