<?xml version="1.0" encoding="utf-8"?>
<svg xmlns="http://www.w3.org/2000/svg" x="0px" y="0px" width="250px" height="250px" viewBox="0 0 250 250">
<rect fill="#00A0DF" width="250" height="250"/>
<path fill="#FFFFFF" d="M217.2,113.3c0,6-7.3,11.4-13,11.4c-3.8,0-7.1-2.7-7.1-4.3c0-1,0.3-3.9,1.7-3.9c1,0,1.9,0.8,2.9,1.7
	c1.4,1.3,3.1,2.8,5.6,2.8c2.5,0,5.1-1.7,5.1-4.5c0-1.7-1.3-3.3-2.7-5.2c-1.8-2.3-3.9-5-3.9-8.4c0-6.2,6.2-14.2,13.2-14.2
	c3.1,0,4.9,1.8,4.9,3.5c0,1.4-1.5,3.2-3.2,3.2c-1.3,0-2.3-0.5-3.3-0.9c-1-0.4-2-0.9-3.2-0.9c-2.4,0-4,1.8-4,4.6
	c0,2.1,1.5,4.1,3.1,6.2C215.1,107,217.2,109.9,217.2,113.3 M64.7,69.3c-0.1,0-0.3,0.2-0.3,0.3v1.7c0,0.1,0.1,0.2,0.2,0.3
	c0,0,1,0.1,1,0.1l1.3,0.1c1.7,0.3,2.1,0.6,2.1,1.4c0,1.4-1.6,5.9-3.8,12.1l-2,5.6c-1.7,5-4.4,11.9-6.7,18c-2.8,7.3-5,13-5,13.8
	c0,0.9,0.5,1.2,2.6,1.2c2.3,0,3.3-0.4,3.5-1.2c3.9-12.9,14.7-27.6,20.3-27.6c1.8,0,2.4,0.6,2.4,2.4c0,2.9-2.4,8.3-4.8,13.5
	c-2.1,4.6-4,8.9-4,11c0,1.9,0.9,2.9,2.5,2.9c5.5,0,9.7-5,13.1-9l0.5-0.6c0,0,0.1-0.2,0.1-0.2l-0.1-0.2c0,0-1.1-1.4-1.1-1.4
	c0,0-0.1-0.1-0.2-0.1c-0.1,0-0.2,0-0.2,0.1c-1.9,2-5.1,5-6,5.1c-0.3,0-0.4,0-0.5-0.1c-0.1-0.1-0.1-0.4-0.1-0.9
	c0.1-0.4,0.6-1.8,1.5-3.8c2.1-5.1,5.6-13.5,5.6-18.6c0-4-1.9-6.3-5.3-6.3c-6.8,0-12.2,7.7-14.8,11.4c-0.6,0.9-1.2,1.7-1.3,1.7
	c0,0-0.1,0-0.1,0c-0.1-0.2,0.3-1,1-2.6c0.7-1.7,1.8-4.3,3.4-8.2c5.1-13.2,7.2-20.3,7.2-20.9c0-0.8-0.7-0.9-1.5-0.9H64.7z
	 M49.8,116.6c0-0.1,0-0.2,0-0.3c0,0-1.2-1.2-1.2-1.2c0-0.1-0.1-0.1-0.2-0.1c-0.1,0-0.1,0-0.2,0.1c0,0-0.1,0.1-0.1,0.1
	c-2.1,1.9-6.2,5.2-9.8,5.5c-1.4,0.1-2.7-0.3-3.7-1.2c-1.2-1.1-1.9-2.7-2-4.8c-0.2-5.5,4.4-13.7,9-18.6c2.5-2.6,4.8-4,6.4-4
	c1.9,0,3.1,1.4,4.3,2.8c1,1.2,2,2.4,3.4,2.4c0.5,0,1.1-0.3,1.6-0.7c0.5-0.5,0.7-1.2,0.7-1.9C58,92.4,56,89,51.1,88.9
	c-5.6-0.1-12.5,3.3-17.7,8.6c-4.9,5.1-7.5,11.1-7.2,17c0.2,4.9,2.9,10.2,9.7,10.2C42.8,124.7,48.8,118.5,49.8,116.6 M139.8,104
	c-0.1,0.3-0.5,1.1-0.6,1c0,0-0.1,0-0.1,0c0,0,0-0.3,0-0.3c0-0.3,0.4-1.8,0.8-3.6c0.8-3.4,1.9-8.1,1.9-9.5c0-1.8-1-2.7-2.7-2.7
	c-3.7,0-9.3,6.1-11.2,9.3c0,0-0.1,0.1-0.1,0.1c0,0,0,0,0,0c0,0.1,0,0.1,0.1,0.2l1.1,1.1c0,0.1,0.1,0.1,0.2,0.1
	c0.1,0,0.2-0.1,0.2-0.1c0,0,0.3-0.4,0.3-0.4c0,0,0.3-0.4,0.3-0.4c1.2-1.6,3.8-4.8,5.2-4.8c0.7,0,1.1,0.7,1.1,2
	c0,3.3-3.6,13.2-6,19.8c-1.3,3.7-2.3,6.4-2.3,6.9c0,0.7,0.3,1,0.9,1h3.1c0.6,0,0.9-0.4,1.3-1.4c0,0,1.5-3.6,2.4-5.4
	c6.1-12.5,9.5-18.9,12.1-21.4c1.7-1.7,2.9-2.4,3.8-2.4c0.7,0,1.1,0.6,1.6,1.1c0.5,0.6,1,1.2,1.9,1.3c0.6,0,1.2-0.2,1.7-0.6
	c0.8-0.7,1.2-2,1.2-3.3c0-2.3-1.6-3.1-3-3.1C149.5,88.8,145.4,93,139.8,104 M120.6,88.2c0.2-0.1,0.5,0,0.8,0.2c0,0,0.1,0,0.1,0.1
	l2.1,1.4h0c0.5,0.2,0.5,0.8,0.5,0.9c-0.1,0.7-1.7,5.1-3.7,10.2c-2.6,6.9-5.9,15.5-6,17.1c0,0.6,0,0.9,0.2,1c0.1,0.1,0.3,0.2,0.6,0.2
	c1.2,0,3.2-2.5,4.8-4.4l1.2-1.5c0.1-0.1,0.3-0.1,0.4,0l1.2,1.4l0.1,0.2c0,0-0.1,0.2-0.1,0.1c-1.7,2.6-6.4,9.5-11.8,9.6
	c-1,0-1.7-0.2-2.2-0.8c-0.6-0.6-0.9-1.5-0.9-2.8c0-2.6,1.3-5.5,2-7l0.4-1c0.1-0.2,0.1-0.3,0-0.4c0,0-0.1,0-0.1,0
	c-0.2,0-1.4,2.1-1.4,2.1c-5.7,8.7-10.2,9.8-13.5,9.8c-2.7,0-5.3-2.2-5.3-7.1c0-7.2,8.1-28,23.6-28c1.4,0,2.4,0.2,3.2,0.4
	c0.6,0.1,1.1,0.2,1.6,0.2c0.6,0,0.9-0.5,1.2-1C119.8,88.8,120.1,88.4,120.6,88.2 M96,115.9c0,2.9,0.8,3.4,2.3,3.4
	c6.8,0,17.8-19.2,17.8-23.3c0-2.7-1.5-4.2-4.1-4.2C104,91.8,96,105.8,96,115.9 M170.9,114.9c0-12.6,14.1-26,24-26
	c4.7,0,7.2,2.9,7.2,5.6c0,6.6-10.8,9.4-16.6,9.4l-3.3-0.1c0,0-0.5,0-0.6,0c0,0.1-0.2,0.3-0.2,0.3c-1.6,2.4-3.7,5.7-3.7,10.1
	c0,3.6,2.2,5.9,5.7,5.9c2.9,0,6.8-2.9,8.9-4.5l0.9-0.6c0.1-0.1,0.3-0.1,0.4,0l1,1.3l0,0c0.1,0.1,0.1,0.2,0,0.3
	c-1.6,2.1-8.3,8.1-14.6,8.1C174.7,124.7,170.9,120.7,170.9,114.9 M193.8,91.1c-4.3,0-8.9,7-10.5,9.9c8.6-0.1,13.5-2.7,13.5-6.9
	C196.8,92.4,195.5,91.1,193.8,91.1 M168,115.3c0.1-0.1,0-0.3,0-0.3c0-0.1-1.2-1.5-1.2-1.5c-0.1-0.1-0.1-0.1-0.2-0.1
	c-0.1,0-0.2,0-0.2,0.1l-0.4,0.4c-3,3.3-4.7,5.2-6.1,5.2c-0.2,0-0.4,0-0.6-0.2c-0.2-0.2-0.3-0.6-0.3-1c0.1-1.9,3.1-10.6,9.2-26.6
	l4.4-11.5c2.3-6,3.5-9,3.5-9.4c0-0.3-0.1-0.5-0.2-0.6c-0.2-0.2-0.6-0.3-1.2-0.3h-10.4c-0.2,0-0.3,0.1-0.3,0.3c0,0-0.1,1.7-0.1,1.7
	c0,0.1,0.1,0.3,0.2,0.3c0,0,2.3,0.2,2.3,0.2c1.5,0.3,2.1,0.7,2,1.7c-0.1,1.5-6.8,18.1-6.8,18.1c-3.6,9-9.7,24.5-9.8,28.2
	c-0.1,1.6,0.3,2.9,1.1,3.8c0.7,0.8,1.8,1.1,3.1,1.1c4.2,0,8.4-5.3,11.2-8.8L168,115.3L168,115.3z M26.2,146.6c0,4.9,3.9,7.5,7.6,9.5
	l1.6,0.8c3.8,1.9,5.3,3.8,5.3,6.7c0,3.3-2.1,5.7-5.2,5.7c-4.9,0-7.7-5.1-8.9-8.2l0-0.1l-1.7,0.6l0,0.1c0.5,3.1,1.1,6.5,1.5,7.8l0,0
	l0.8,0.3l2.2,0.8c1.5,0.5,3.3,0.9,5.1,0.9c6.9,0,11.6-4.2,11.6-10.3c0-5.7-4.4-8.3-7.6-9.8l-1.3-0.6c-4.2-1.9-5.9-3.8-5.9-6.4
	c0-2.6,1.6-5.2,5.1-5.2c4.1,0,5.7,3.2,6.7,6.4l0,0.1l1.8-0.3l0-0.1c-0.4-2.5-0.8-4.7-1-6.8l0-0.1l-1.2-0.4l-1-0.3
	c-1.3-0.5-3-0.7-4.6-0.7C30.7,136.9,26.2,140.9,26.2,146.6 M49.9,154.7c0,8.3,5.8,16.7,18.7,16.7c3.3,0,7.7-1,9.5-1.5
	c0.9-2,2.1-6.3,2.6-8.5l0-0.1l-1.6-0.3l0,0.1c-2.6,5.3-5.1,8.2-10.6,8.2c-7.1,0-11.9-6.4-11.9-15.8c0-6.6,3.1-14.3,11.9-14.3
	c5.2,0,8,2.2,9.4,7.4l0,0.1l1.6-0.2l-0.2-2.3l-0.7-5.9h-0.1l-0.9-0.2c-1.7-0.4-4.6-1.1-8.2-1.1C58,136.9,49.9,144.2,49.9,154.7
	 M118.5,137.6h-14.4v1.6l0.1,0c3.7,0.3,4.2,0.5,4.2,6.1v6.7H93.1v-6.7c0-5.5,0.5-5.8,4.1-6.1l0.1,0v-1.6H82.7v1.6l0.1,0
	c4.3,0.3,4.6,0.7,4.6,6.1V163c0,5.3-0.3,5.8-4.4,6.1l-0.1,0v1.6h14.6v-1.6l-0.1,0c-3.8-0.3-4.3-0.6-4.3-6.1v-8.5h15.2v8.5
	c0,5.4-0.3,5.8-4.6,6.1l-0.1,0v1.6h14.8v-1.6l-0.1,0c-3.8-0.3-4.3-0.5-4.3-6.1v-17.7c0-5.4,0.3-5.8,4.3-6.1l0.1,0L118.5,137.6
	L118.5,137.6z M169.2,137.6h-11.7v1.6l1.8,0.1c1,0.1,1.5,0.3,1.8,0.7c0.2,0.2,0.2,0.5,0.2,1c0,0.5-0.1,1.3-0.4,2.3
	c-0.1,0.5-2.9,11.4-5.1,18.8c-0.4-1-8.8-23.9-8.8-23.9l0-0.1H145c0,0-7.5,23.6-7.6,24c-0.3-1.1-5.9-19.6-5.9-19.6
	c-0.2-0.7-0.3-1.3-0.3-1.7c0-0.3,0.1-0.6,0.2-0.7c0.3-0.4,0.8-0.6,1.7-0.7c0,0,1.6-0.1,1.6-0.1v-0.1v-1.5h-13.8v1.6l0.1,0
	c2.7,0.3,3.5,0.6,4.9,4.9l8.3,27h2.4c0,0,7.8-23.3,7.8-23.6c0.4,1,8.6,23.5,8.6,23.5l0,0.1h2.4l0-0.1c4.7-15.6,8.5-26.6,8.5-26.7
	c1.7-4.6,2.1-4.8,5.2-5.1l0.1,0L169.2,137.6L169.2,137.6z M177.8,145.6c0,0.1-3.8,10.7-3.9,10.9h7.8
	C181.6,156.3,177.9,145.7,177.8,145.6L177.8,145.6z M190.6,164c1.7,4.6,2.5,4.8,5.3,5.1l0.1,0v1.6h-13.5v-1.6l1.5-0.2
	c0.9-0.1,1.4-0.3,1.6-0.6c0.1-0.1,0.1-0.3,0.1-0.5c0-0.4-0.1-0.8-0.3-1.5c-0.5-1.5-1.7-4.5-2.7-7.2h-9.3c-0.6,1.3-1.3,3.6-2,5.6
	l-0.3,0.8c-0.3,0.9-0.4,1.5-0.4,2c0,0.3,0.1,0.5,0.2,0.7c0.3,0.4,0.8,0.6,1.9,0.7l1.5,0.2v1.6h-11.4v-1.6l0.1,0
	c3.1-0.4,3.6-0.6,5.4-5.1l10.3-26.5l2.1-0.2l0.1,0l3.4,9.2L190.6,164z M208.1,152h1.9c4.5,0,7-2.2,7-6.2c0-5.6-4.8-6.1-6.3-6.1
	c-1.6,0-2.2,0.2-2.3,0.2c-0.4,0.2-0.4,1.1-0.4,2.2V152z M212.4,137.6c3.8,0,5.9,0.4,7.8,1.7c1.9,1.3,2.9,3.2,2.9,5.8
	c0,4.6-4.5,6.8-7,7.3c5.6,0.8,8.9,3.9,8.9,8.5c0,3.3-1.5,5.8-4.6,7.7c-2.2,1.3-5.7,2-9.7,2H198v-1.6l0.1,0c3.8-0.3,4.3-0.6,4.3-6.1
	v-17.7c0-5.5-0.4-5.8-4-6.1l-0.1,0v-1.6h0.1H212.4z M208.1,154v8.9c0,2.5,0.2,4.1,1,4.9c0.5,0.5,1.3,0.7,2.8,0.7
	c3.2,0,6.7-1.8,6.7-7c0-4.8-3.2-7.5-8.8-7.5H208.1z"/>
</svg>
