<svg xmlns="http://www.w3.org/2000/svg" viewBox="0 0 300 300">
<path d="M0 0 C99 0 198 0 300 0 C300 99 300 198 300 300 C201 300 102 300 0 300 C0 201 0 102 0 0 Z" fill="#FEFEFE" transform="translate(0,0)"/>
<path d="M0 0 C8.771 1.357 16.892 11.689 23.228 17.622 C27.178 21.301 31.286 24.69 35.543 28.012 C39.245 31.007 42.703 34.252 46.184 37.5 C49.813 40.722 53.706 43.536 57.688 46.309 C61.196 50.392 61.889 54.812 63 60 C63.245 61.112 63.49 62.224 63.742 63.37 C64.778 68.171 65.766 72.981 66.75 77.793 C67.838 83 68.928 88.051 70.75 93.055 C72.475 97.998 71.64 100.541 69.547 105.312 C68.952 106.544 68.353 107.773 67.75 109 C64.962 114.804 62.514 120.641 60.336 126.707 C59.231 129.43 58.032 131.978 56.703 134.594 C53.693 140.525 51.031 146.592 48.375 152.688 C47.898 153.776 47.421 154.865 46.93 155.986 C43.361 164.14 39.857 172.313 36.477 180.547 C35.312 183.271 34.109 185.964 32.875 188.656 C28.927 197.303 25.167 206.034 21.375 214.75 C20.604 216.52 19.833 218.289 19.062 220.059 C18.32 221.763 17.578 223.467 16.836 225.172 C16.325 226.346 16.325 226.346 15.804 227.543 C13.855 232.023 11.92 236.508 10 241 C7 248 7 248 4 255 C3.34 255 2.68 255 2 255 C0.546 253.362 -0.838 251.663 -2.188 249.938 C-5.393 245.927 -8.656 242.219 -12.34 238.652 C-14.667 236.336 -16.776 233.853 -18.918 231.367 C-21.56 228.363 -24.278 225.433 -27 222.5 C-30.793 218.409 -34.575 214.319 -38.171 210.052 C-39.991 207.948 -39.991 207.948 -42.143 205.992 C-49.354 198.935 -51.299 191.824 -53.25 182.312 C-53.847 179.577 -54.461 176.845 -55.078 174.113 C-55.227 173.442 -55.375 172.77 -55.528 172.078 C-56.9 166.044 -58.8 160.261 -60.855 154.428 C-62.48 149.564 -63.645 144.618 -64.836 139.633 C-66.248 133.883 -67.887 128.196 -69.5 122.5 C-73.766 107.346 -73.766 107.346 -75.5 100.688 C-75.82 99.474 -76.139 98.261 -76.469 97.012 C-77.231 92.689 -77.231 92.689 -76 90 C-74.468 87.974 -72.925 86.087 -71.25 84.188 C-70.765 83.626 -70.28 83.064 -69.78 82.485 C-68.193 80.651 -66.597 78.825 -65 77 C-62.79 74.46 -60.582 71.918 -58.375 69.375 C-57.822 68.74 -57.27 68.105 -56.7 67.45 C-52.814 62.973 -49.04 58.416 -45.309 53.809 C-42.084 49.885 -38.764 46.046 -35.448 42.2 C-32.345 38.594 -29.305 34.948 -26.312 31.25 C-22.768 26.882 -19.056 22.709 -15.27 18.551 C-9.945 12.566 -4.999 6.257 0 0 Z" fill="#878787" transform="translate(154,25)"/>
<path d="M0 0 C3.662 0.812 7.105 2.087 10.625 3.375 C14.821 4.9 19.016 6.342 23.312 7.562 C27.253 8.703 30.849 10.226 34.562 11.957 C38.415 13.606 42.401 14.821 46.398 16.07 C49 17 49 17 52 19 C53.297 19.501 54.612 19.955 55.938 20.375 C56.719 20.626 57.5 20.878 58.305 21.137 C59.639 21.564 59.639 21.564 61 22 C63.188 22.727 65.376 23.456 67.562 24.188 C69.375 24.792 71.187 25.396 73 26 C73.222 36.251 72.529 46.304 71.625 56.5 C71.486 58.118 71.347 59.736 71.209 61.355 C70.445 70.248 69.602 79.132 68.702 88.012 C67.752 97.864 67.245 107.753 66.697 117.634 C66.333 124.124 65.941 130.564 65 137 C61.723 135.908 61.077 135.201 58.938 132.625 C56.023 129.186 53.043 125.826 50 122.5 C46.607 118.781 43.256 115.037 39.988 111.207 C38.385 109.427 36.75 107.752 35.043 106.074 C27.89 98.928 24.025 93.165 22 83 C21.781 82.117 21.562 81.234 21.336 80.324 C20.446 76.7 20 73.774 20 70 C19.34 70 18.68 70 18 70 C17.879 69.336 17.758 68.672 17.633 67.988 C17.465 67.105 17.298 66.222 17.125 65.312 C16.963 64.442 16.8 63.572 16.633 62.676 C16.075 60.012 16.075 60.012 15.041 57.642 C13.354 53.361 12.428 48.909 11.375 44.438 C11.146 43.492 10.916 42.546 10.68 41.572 C10.463 40.66 10.247 39.748 10.023 38.809 C9.827 37.982 9.63 37.155 9.427 36.302 C9 34 9 34 9 30 C8.34 30 7.68 30 7 30 C6.019 25.938 5.041 21.875 4.062 17.812 C3.785 16.662 3.507 15.512 3.221 14.326 C2.953 13.214 2.686 12.103 2.41 10.957 C2.164 9.936 1.918 8.915 1.664 7.863 C1.058 5.249 0.51 2.633 0 0 Z" fill="#FDFDFD" transform="translate(88,124)"/>
<path d="M0 0 C3.361 1.475 5.696 3.379 8.375 5.875 C12.46 9.618 16.6 13.276 20.812 16.875 C21.399 17.377 21.986 17.879 22.591 18.396 C25.612 20.975 28.642 23.545 31.68 26.105 C32.269 26.603 32.858 27.1 33.466 27.612 C34.584 28.554 35.704 29.495 36.825 30.435 C39.319 32.534 41.749 34.64 44 37 C42.603 41.191 39.702 42.099 36 44.062 C34.529 44.866 33.059 45.67 31.59 46.477 C30.829 46.892 30.068 47.307 29.285 47.735 C25.671 49.736 22.116 51.833 18.562 53.938 C17.862 54.352 17.161 54.766 16.438 55.193 C15.012 56.037 13.585 56.881 12.159 57.725 C9.977 59.013 7.792 60.295 5.605 61.574 C4.154 62.424 2.702 63.275 1.25 64.125 C0.549 64.535 -0.151 64.946 -0.873 65.368 C-6.5 68.677 -12.044 72.109 -17.559 75.602 C-20 77 -20 77 -22 77 C-20.615 69.397 -18.725 61.997 -16.625 54.562 C-16.334 53.507 -16.042 52.452 -15.742 51.365 C-14.029 45.261 -12.073 39.322 -9.857 33.383 C-8.864 30.623 -8.132 27.863 -7.5 25 C-6.32 20.021 -4.729 15.339 -2.918 10.559 C-1.671 7.084 -0.815 3.598 0 0 Z" fill="#FCFCFC" transform="translate(158,39)"/>
<path d="M0 0 C-1.494 3.784 -3.07 7.526 -4.68 11.262 C-5.197 12.464 -5.714 13.666 -6.246 14.904 C-7.057 16.789 -7.869 18.673 -8.681 20.557 C-11.594 27.315 -14.479 34.074 -17.151 40.931 C-18.27 43.658 -19.589 46.258 -20.934 48.879 C-24.313 55.601 -27.233 62.506 -29.984 69.504 C-31.007 72.017 -32.112 74.475 -33.25 76.938 C-36.013 82.925 -38.543 89.005 -41.058 95.099 C-43.172 100.183 -45.486 105.101 -48 110 C-48.33 110 -48.66 110 -49 110 C-49.025 105.553 -49.043 101.105 -49.055 96.658 C-49.06 95.147 -49.067 93.636 -49.075 92.125 C-49.088 89.945 -49.093 87.766 -49.098 85.586 C-49.103 84.277 -49.108 82.968 -49.114 81.619 C-49.009 78.293 -48.568 75.271 -48 72 C-47.79 69.281 -47.611 66.574 -47.473 63.852 C-47.431 63.071 -47.39 62.291 -47.347 61.487 C-46.89 52.454 -46.657 43.416 -46.438 34.375 C-46.394 32.674 -46.351 30.974 -46.307 29.273 C-46.202 25.182 -46.1 21.091 -46 17 C-45.13 16.668 -44.261 16.336 -43.365 15.994 C-42.212 15.553 -41.059 15.111 -39.871 14.656 C-38.165 14.004 -38.165 14.004 -36.424 13.338 C-33.279 12.109 -30.168 10.825 -27.062 9.5 C-21.463 7.136 -15.773 5.098 -10.031 3.113 C-7.088 2.103 -7.088 2.103 -4.781 0.855 C-3 0 -3 0 0 0 Z" fill="#FCFCFC" transform="translate(212,133)"/>
<path d="M0 0 C0.66 0 1.32 0 2 0 C-0.581 11.938 -3.396 23.798 -6.402 35.635 C-6.963 37.853 -7.517 40.072 -8.066 42.293 C-10.278 51.223 -12.601 60.118 -15 69 C-41.958 67.025 -41.958 67.025 -54 65 C-52.5 61.552 -50.496 59.176 -47.938 56.438 C-44.67 52.877 -41.535 49.261 -38.5 45.5 C-35.592 41.905 -32.615 38.417 -29.5 35 C-25.665 30.787 -22.051 26.436 -18.469 22.008 C-15.098 17.901 -11.634 13.878 -8.161 9.858 C-7.679 9.299 -7.196 8.74 -6.699 8.164 C-6.238 7.631 -5.777 7.097 -5.302 6.548 C-4.081 5.096 -2.923 3.592 -1.77 2.086 C-1.186 1.398 -0.602 0.709 0 0 Z" fill="#FAFAFA" transform="translate(144,51)"/>
<path d="M0 0 C-1.393 2.89 -2.945 5.601 -4.652 8.316 C-5.176 9.154 -5.7 9.991 -6.24 10.854 C-6.8 11.747 -7.36 12.641 -7.938 13.562 C-12.83 21.41 -17.563 29.33 -22.161 37.353 C-25.971 43.99 -29.937 50.515 -34 57 C-39.6 54.021 -44.325 50.496 -49.188 46.438 C-50.576 45.29 -51.966 44.143 -53.355 42.996 C-53.96 42.493 -54.565 41.989 -55.188 41.47 C-56.496 40.409 -57.849 39.404 -59.228 38.438 C-59.813 37.963 -60.397 37.489 -61 37 C-61 36.34 -61 35.68 -61 35 C-59.25 33.738 -59.25 33.738 -56.785 32.312 C-55.88 31.784 -54.975 31.255 -54.042 30.711 C-52.567 29.864 -52.567 29.864 -51.062 29 C-50.058 28.415 -49.054 27.831 -48.02 27.229 C-45.974 26.038 -43.926 24.85 -41.876 23.665 C-38.032 21.44 -34.203 19.191 -30.375 16.938 C-29.713 16.55 -29.051 16.162 -28.369 15.762 C-24.419 13.443 -20.49 11.091 -16.574 8.715 C-15.658 8.16 -14.741 7.605 -13.797 7.033 C-12.003 5.945 -10.211 4.854 -8.421 3.758 C-7.613 3.268 -6.805 2.778 -5.973 2.273 C-4.894 1.615 -4.894 1.615 -3.793 0.943 C-2 0 -2 0 0 0 Z" fill="#FAFAFA" transform="translate(197,87)"/>
<path d="M0 0 C0.66 0 1.32 0 2 0 C2.182 0.834 2.364 1.668 2.551 2.527 C4.228 10.107 4.228 10.107 6.562 17.5 C8.571 23.156 9.221 29.072 10 35 C5.822 36.808 1.628 38.572 -2.582 40.305 C-4.105 40.933 -4.105 40.933 -5.658 41.574 C-7.748 42.436 -9.839 43.296 -11.932 44.152 C-17.773 46.569 -23.449 49.145 -29.046 52.086 C-31 53 -31 53 -33 53 C-31.714 49.52 -30.211 46.582 -28.129 43.516 C-27.56 42.671 -26.991 41.826 -26.404 40.956 C-25.797 40.063 -25.189 39.17 -24.562 38.25 C-23.292 36.364 -22.023 34.477 -20.754 32.59 C-19.805 31.18 -19.805 31.18 -18.836 29.742 C-16.188 25.788 -13.585 21.807 -11 17.812 C-10.552 17.122 -10.104 16.431 -9.643 15.72 C-6.658 11.091 -3.816 6.395 -1.121 1.59 C-0.751 1.065 -0.381 0.541 0 0 Z" fill="#F9F9F9" transform="translate(206,88)"/>
<path d="M0 0 C3.125 0.139 6.25 0.287 9.375 0.438 C10.264 0.477 11.154 0.516 12.07 0.557 C13.346 0.619 13.346 0.619 14.648 0.684 C15.434 0.72 16.219 0.757 17.029 0.795 C19 1 19 1 21 2 C21 2.66 21 3.32 21 4 C22.011 4.336 22.011 4.336 23.043 4.68 C26.842 6.376 29.972 8.668 33.312 11.125 C33.958 11.593 34.603 12.061 35.268 12.543 C36.848 13.691 38.425 14.845 40 16 C37 17 37 17 35.039 16.285 C34.242 15.882 33.446 15.478 32.625 15.062 C26.025 11.896 19.218 9.379 12.35 6.856 C3.755 3.655 3.755 3.655 0 1 C0 0.67 0 0.34 0 0 Z" fill="#F0F0F0" transform="translate(110,123)"/>
<path d="M0 0 C1.65 0.99 3.3 1.98 5 3 C1.377 4.208 0.359 3.543 -3 2 C-2.01 1.34 -1.02 0.68 0 0 Z" fill="#DADADA" transform="translate(145,136)"/>
<path d="M0 0 C0.66 0 1.32 0 2 0 C1.67 1.65 1.34 3.3 1 5 C0.01 5 -0.98 5 -2 5 C-2 2 -2 2 0 0 Z" fill="#DEDEDE" transform="translate(144,51)"/>
<path d="M0 0 C-0.33 0.99 -0.66 1.98 -1 3 C-2.98 3 -4.96 3 -7 3 C-5.404 -0.191 -3.359 0 0 0 Z" fill="#CECECE" transform="translate(212,133)"/>
<path d="M0 0 C1.32 0.66 2.64 1.32 4 2 C2.68 2.33 1.36 2.66 0 3 C0 2.01 0 1.02 0 0 Z" fill="#9D9D9D" transform="translate(150,139)"/>
<path d="M0 0 C0.66 0 1.32 0 2 0 C1.67 0.99 1.34 1.98 1 3 C0.34 2.34 -0.32 1.68 -1 1 C-0.67 0.67 -0.34 0.34 0 0 Z" fill="#C6C6C6" transform="translate(195,87)"/>
</svg>
