<svg xmlns="http://www.w3.org/2000/svg" viewBox="0 0 32 32">
<path d="M0 0 C4.9 2.085 7.632 5.271 10 10 C10.915 15.595 11.075 21.236 7.812 26.062 C4.977 29.6 1.621 31.735 -2.867 32.469 C-8.762 32.53 -12.91 32.339 -17.598 28.582 C-22.035 23.576 -22.586 19.468 -22.418 12.949 C-21.81 8.662 -20.226 5.86 -17 3 C-11.575 -0.883 -6.471 -0.917 0 0 Z" fill="#EB9D44" transform="translate(22,0)"/>
<path d="M0 0 C1.875 1.5 1.875 1.5 3 3 C3.351 2.484 3.701 1.969 4.062 1.438 C6 0 6 0 9.562 0.188 C13 1 13 1 15 3 C14.538 9.462 14.538 9.462 12 12 C6.704 12.563 6.704 12.563 4.125 10.5 C3.754 10.005 3.383 9.51 3 9 C2.629 9.495 2.258 9.99 1.875 10.5 C-0 12 -0 12 -3 12.438 C-6 12 -6 12 -7.875 10.312 C-9.206 7.576 -9.462 6.005 -9 3 C-6.735 -0.649 -4.032 -0.504 0 0 Z" fill="#544B42" transform="translate(13,10)"/>
<path d="M0 0 C0.66 1.32 1.32 2.64 2 4 C-1.133 5.044 -1.99 4.934 -5 4 C-5 5.32 -5 6.64 -5 8 C-3.02 7.67 -1.04 7.34 1 7 C1 8.32 1 9.64 1 11 C0 12 0 12 -2.875 12.312 C-6 12 -6 12 -7.875 10.312 C-9.206 7.576 -9.462 6.005 -9 3 C-6.716 -0.679 -4.044 -0.27 0 0 Z" fill="#564D42" transform="translate(13,10)"/>
<path d="M0 0 C0.722 0.082 1.444 0.165 2.188 0.25 C1.321 0.59 1.321 0.59 0.438 0.938 C-2.379 2.58 -3.893 4.645 -5.812 7.25 C-5.152 7.58 -4.492 7.91 -3.812 8.25 C-6.812 9.25 -6.812 9.25 -9.812 8.25 C-11.133 8.25 -12.453 8.25 -13.812 8.25 C-13.812 6.93 -13.812 5.61 -13.812 4.25 C-12.482 4.374 -12.482 4.374 -11.125 4.5 C-6.296 4.136 -4.675 0.416 0 0 Z" fill="#6C5942" transform="translate(21.8125,9.75)"/>
<path d="M0 0 C1.32 0 2.64 0 4 0 C4 1.32 4 2.64 4 4 C1.03 3.505 1.03 3.505 -2 3 C-1.34 2.01 -0.68 1.02 0 0 Z" fill="#E09844" transform="translate(20,14)"/>
<path d="M0 0 C2.97 0.495 2.97 0.495 6 1 C5.01 2.485 5.01 2.485 4 4 C2.68 4 1.36 4 0 4 C0 2.68 0 1.36 0 0 Z" fill="#E19844" transform="translate(8,14)"/>
</svg>
