<svg xmlns="http://www.w3.org/2000/svg" viewBox="0 0 22 22.4" role="img" aria-label="SnapTrade">
  <path d="M21.3535 7.9766L21.0765 7.49829L17.5295 1.36054C17.0728 0.571325 16.2297 0.0844727 15.3164 0.0844727H8.64653C7.73327 0.0844727 6.89012 0.571325 6.43349 1.36054L2.88477 7.49829L6.43349 13.636C6.89012 14.4253 7.73327 14.9121 8.64653 14.9121H11.9849L7.69906 7.49829L11.9815 0.0913057L16.2622 7.49829L19.6826 13.4174L21.3518 10.5287C21.8085 9.73952 21.8085 8.76582 21.3518 7.9766H21.3535Z" fill="url(#a)"/>
  <path d="M18.8172 14.9119L15.2702 8.77411C14.8135 7.9849 13.9704 7.49805 13.0571 7.49805H9.71875L14.0046 14.9119L9.71875 22.3257H13.0571C13.9704 22.3257 14.8135 21.8388 15.2702 21.0496L18.8172 14.9119Z" fill="url(#b)"/>
  <path d="M5.43383 14.9118L2.01166 8.99268L0.342474 11.8813C-0.114158 12.6705-0.114158 13.6443 0.342474 14.4335L0.619531 14.9118L4.16655 21.0495C4.62318 21.8387 5.46632 22.3256 6.37959 22.3256H9.71796L5.43212 14.9118H5.43383Z" fill="url(#c)"/>
  <defs>
    <linearGradient id="a" x1="10.8838" y1="-26.5941" x2="30.6018" y2="7.64053" gradientUnits="userSpaceOnUse"><stop stop-color="#045856"/><stop offset="1" stop-color="#52C4C2"/></linearGradient>
    <linearGradient id="b" x1="11.1402" y1="25.9468" x2="-19.1241" y2="-4.16208" gradientUnits="userSpaceOnUse"><stop stop-color="#E6960D"/><stop offset="0.269327" stop-color="#F2CA86"/></linearGradient>
    <linearGradient id="c" x1="1.51826" y1="25.5817" x2="-25.3205" y2="-6.1346" gradientUnits="userSpaceOnUse"><stop stop-color="#E6960D"/><stop offset="0.269327" stop-color="#F2CA86"/></linearGradient>
  </defs>
</svg>
