<svg xmlns="http://www.w3.org/2000/svg" viewBox="0 0 71 22">
<path d="M0 0 C3.623 3.422 5.212 7.441 7 12 C4.333 12 1.667 12 -1 12 C-2.733 12.093 -2.733 12.093 -4.5 12.188 C-8 12 -8 12 -9.938 10.938 C-11.633 7.845 -11.431 5.445 -11 2 C-7.892 -1.978 -4.545 -1.298 0 0 Z M-6 4 C-6 5.32 -6 6.64 -6 8 C-4.68 7.67 -3.36 7.34 -2 7 C-2 6.01 -2 5.02 -2 4 C-3.32 4 -4.64 4 -6 4 Z" fill="#272525" transform="translate(64,4)"/>
<path d="M0 0 C2.062 2.188 2.062 2.188 3 5 C2.312 8.25 2.312 8.25 1 11 C-2.092 12.546 -4.594 12.294 -8 12 C-10.5 10.375 -10.5 10.375 -12 8 C-12 4.523 -11.619 2.738 -9.375 0.062 C-5.854 -1.513 -3.658 -1.064 0 0 Z M-7 4 C-6.67 5.32 -6.34 6.64 -6 8 C-4.68 7.67 -3.36 7.34 -2 7 C-2.33 6.01 -2.66 5.02 -3 4 C-4.32 4 -5.64 4 -7 4 Z" fill="#282525" transform="translate(34,4)"/>
<path d="M0 0 C3 0.625 3 0.625 5.375 3.125 C5.911 3.95 6.448 4.775 7 5.625 C6.67 6.285 6.34 6.945 6 7.625 C4.68 7.625 3.36 7.625 2 7.625 C2 6.965 2 6.305 2 5.625 C0.68 5.625 -0.64 5.625 -2 5.625 C-2.268 6.574 -2.536 7.523 -2.812 8.5 C-4 11.625 -4 11.625 -7 13.625 C-12.189 14.166 -12.189 14.166 -14.875 12.375 C-16 10.625 -16 10.625 -16 6.625 C-13.525 7.12 -13.525 7.12 -11 7.625 C-11 8.285 -11 8.945 -11 9.625 C-8.761 7.466 -6.884 5.456 -5.125 2.875 C-3 0.625 -3 0.625 0 0 Z" fill="#282525" transform="translate(16,8.375)"/>
<path d="M0 0 C4.75 0.75 4.75 0.75 7 3 C7.66 2.01 8.32 1.02 9 0 C11.625 -0.188 11.625 -0.188 14 0 C12.358 4.776 9.735 8.794 7 13 C3.788 9.981 2.025 6.909 0 3 C0 2.01 0 1.02 0 0 Z" fill="#2A2727" transform="translate(38,9)"/>
</svg>
