<?xml version="1.0" encoding="utf-8"?>
<svg version="1.0" width="2548.000000pt" height="764.000000pt" viewBox="0 0 2548.000000 764.000000" preserveAspectRatio="xMidYMid meet" xmlns="http://www.w3.org/2000/svg">
  <g style="">
    <path d="M 270.647 100.294 C 244.047 102.173 233.547 103.063 220.647 104.744 C 126.347 117.007 62.647 151.125 36.247 203.341 C 27.347 220.944 22.947 241.02 22.947 263.864 C 22.947 293.038 29.747 317.564 43.347 337.343 C 69.547 375.615 119.447 398.855 194.147 407.755 C 201.047 408.546 241.347 411.414 283.647 414.183 C 364.247 419.326 379.247 420.71 400.647 424.567 C 428.047 429.611 441.647 436.335 447.947 448.203 C 450.447 452.752 450.647 454.235 450.647 464.125 C 450.647 476.486 449.747 479.058 442.747 486.178 C 432.447 496.859 411.547 503.88 379.547 507.638 C 346.247 511.495 292.447 511.989 264.747 508.627 C 205.147 501.507 171.247 480.244 158.647 442.071 C 157.747 439.302 156.447 436.929 155.847 436.929 C 154.347 436.83 8.747 457.004 8.347 457.301 C 8.147 457.4 8.947 461.059 10.047 465.41 C 30.447 544.13 91.447 591.006 196.647 608.411 C 231.347 614.246 260.347 616.224 307.147 616.224 C 398.747 616.224 463.647 604.851 514.647 579.831 C 535.347 569.645 547.347 561.337 561.147 547.69 C 582.447 526.725 594.247 503.287 598.747 473.322 C 600.947 458.587 600.147 432.874 597.147 418.93 C 583.547 355.539 530.147 319.542 430.147 306.389 C 421.647 305.301 379.747 302.136 337.147 299.466 C 242.047 293.434 225.047 291.555 203.747 284.929 C 187.847 279.984 178.347 273.16 174.047 263.568 C 170.847 256.546 170.847 244.58 173.847 237.954 C 181.047 222.23 203.147 212.736 244.147 207.791 C 265.047 205.319 332.147 205.22 349.647 207.693 C 398.647 214.714 424.047 231.032 435.947 263.073 L 438.647 270.391 L 512.647 260.106 C 553.347 254.469 586.747 249.624 586.947 249.525 C 587.747 248.832 581.647 228.856 577.647 219.164 C 572.447 206.803 568.947 200.374 560.747 188.21 C 553.047 176.838 533.647 157.553 521.347 149.147 C 483.947 123.336 435.347 108.403 367.947 102.074 C 352.747 100.689 283.347 99.404 270.647 100.294 Z" fill="#000000" stroke="none" style=""/>
    <path d="M 651 362.262 L 651 624.42 L 724 624.42 L 797 624.42 L 797 552.65 L 797 480.776 L 905.8 480.362 C 998.9 480.052 1016.3 479.742 1027 478.294 C 1103.1 467.953 1156.2 432.998 1182.5 375.809 C 1194.6 349.749 1200 323.481 1200 291.422 C 1200 194.729 1145.3 125.44 1053.4 105.791 C 1028.4 100.414 1039.5 100.724 838.3 100.414 L 651 100 L 651 362.262 Z M 994 219.445 C 1015 224.616 1027.8 232.165 1037.2 244.989 C 1042.4 252.021 1045.4 258.846 1048.1 269.291 C 1050.9 280.15 1051.1 302.177 1048.6 312.105 C 1043 334.546 1029.3 349.645 1007.8 357.091 C 991.7 362.572 988.3 362.779 888.8 362.779 L 797 362.779 L 797 289.768 L 797 216.86 L 891.8 217.273 C 978.1 217.583 987.2 217.79 994 219.445 Z" fill="#000000" stroke="none" style=""/>
    <path d="M 1255.701 363.824 L 1255.701 634.64 L 1455.001 634.64 C 1573.801 634.64 1660.001 634.213 1668.701 633.572 C 1738.001 628.551 1786.001 604.407 1812.401 561.354 C 1823.801 542.552 1829.701 523.002 1831.701 497.149 C 1836.701 431.234 1802.801 381.558 1736.901 358.375 L 1725.601 354.423 L 1739.401 346.838 C 1757.601 336.795 1767.101 329.745 1779.301 316.818 C 1790.601 304.853 1795.801 297.268 1802.301 282.846 C 1813.501 257.847 1815.701 225.691 1808.101 195.565 C 1796.701 149.841 1761.101 116.51 1708.101 102.087 C 1700.801 100.058 1688.701 97.387 1681.101 95.998 L 1667.201 93.648 L 1461.501 93.327 L 1255.701 92.9 L 1255.701 363.824 Z M 1626.301 206.248 C 1635.101 207.957 1645.601 212.23 1650.901 216.397 C 1663.601 226.332 1669.701 245.027 1666.801 264.898 C 1663.801 285.196 1652.801 297.482 1631.901 303.785 C 1624.201 306.028 1623.601 306.135 1511.501 306.455 L 1398.701 306.776 L 1398.701 255.924 L 1398.701 205.179 L 1509.501 205.179 C 1581.101 205.179 1622.401 205.607 1626.301 206.248 Z M 1648.401 422.367 C 1670.501 430.379 1680.901 445.87 1680.901 471.189 C 1681.001 500.033 1667.901 515.203 1637.901 520.972 C 1631.701 522.147 1608.301 522.361 1514.501 522.468 L 1398.701 522.468 L 1398.701 470.655 L 1398.701 418.735 L 1519.501 419.055 L 1640.201 419.376 L 1648.401 422.367 Z" fill="#000000" stroke="none" style=""/>
    <rect x="2000" y="-1.925" width="548" height="765.94" style="stroke: rgb(0, 0, 0); fill: rgb(255, 122, 85);"/>
    <path d="M 2001.924 578.094 L 2001.924 633.094 L 2201.98 632.894 L 2401.924 632.594 L 2401.924 578.094 L 2401.924 523.594 L 2201.98 523.294 L 2001.924 523.094 L 2001.924 578.094 Z" fill="#000000" stroke="none" style=""/>
    <path d="M 2000 372.82 L 2000 428.32 L 2200 428.32 L 2400 428.32 L 2400 372.82 L 2400 317.32 L 2200 317.32 L 2000 317.32 L 2000 372.82 Z" fill="#000000" stroke="none" style=""/>
    <path d="M 2000 156 L 2000 212 L 2200 212 L 2400 212 L 2400 156 L 2400 100 L 2200 100 L 2000 100 L 2000 156 Z" fill="#000000" stroke="none" style=""/>
  </g>
</svg>