<svg width="312" height="312" viewBox="0 0 312 312" fill="none" xmlns="http://www.w3.org/2000/svg">
<rect width="312" height="312" fill="black"/>
<path d="M239 188.055C239 238.487 206.452 268 156.215 268C130.148 268 109.762 261.283 95.0569 247.849C80.3523 234.328 73 216.065 73 193.06C73 181.646 74.8142 171.549 78.4426 162.768C82.1665 153.9 87.1795 146.349 93.4815 140.115C99.5925 134.145 106.658 129.447 114.679 126.023C122.7 122.511 139.959 120.096 148.743 118.252C128.38 94.6072 101.61 90.5943 73 90.5943V52H239V90.5943H170.514C204.15 110.291 239 146.235 239 188.055ZM180.017 165.647C167.242 140.115 145.404 147.294 135.162 165.647C124.219 185.254 128.098 204.471 131.983 214C135.868 223.529 146.986 231.402 156.215 231.402C166.243 231.402 175.046 223.176 178.957 214C184.916 200.021 186.163 177.931 180.017 165.647Z" fill="white"/>
</svg>
