<svg width="45" height="45" viewBox="0 0 45 45" fill="none" xmlns="http://www.w3.org/2000/svg">
<path d="M22.5 45C34.9264 45 45 34.9264 45 22.5C45 10.0736 34.9264 0 22.5 0C10.0736 0 0 10.0736 0 22.5C0 34.9264 10.0736 45 22.5 45Z" fill="url(#sunio-gradient)"/>
<mask id="sunio-rays" style="mask-type:luminance" maskUnits="userSpaceOnUse" x="0" y="0" width="45" height="45">
<path d="M22.5 45C34.9264 45 45 34.9264 45 22.5C45 10.0736 34.9264 0 22.5 0C10.0736 0 0 10.0736 0 22.5C0 34.9264 10.0736 45 22.5 45Z" fill="white"/>
</mask>
<g mask="url(#sunio-rays)" stroke="white" stroke-width="0.789865">
<path d="M22.0254 -5.37085V10.3066"/><path d="M19.7031 -5.37085V10.3066"/><path d="M25.0742 -5.37085V10.3066"/>
<path d="M12.1934 -2.31694L17.2767 7.16423V-3.62891"/><path d="M32.5187 -2.60723L27.4355 6.87395V-3.91919"/>
<path d="M22.8301 52.4035V36.7261"/><path d="M25.1523 52.403V36.7256"/><path d="M19.7812 52.403V36.7256"/>
<path d="M32.8098 49.5457L27.7266 40.0645V50.8577"/><path d="M12.1934 49.6912L17.2767 40.21V51.0032"/>
<path d="M-6.45898 23.9189H9.21844"/><path d="M-6.45898 26.2417H9.21844"/><path d="M-6.45898 20.8706H9.21844"/>
<path d="M-3.76811 33.8254L5.71306 28.7422H-5.08008"/><path d="M-2.75054 13.7903L6.73063 18.8735H-4.0625"/>
<path d="M51.3141 23.1138H35.6367"/><path d="M51.3141 20.791H35.6367"/><path d="M51.3141 26.1621H35.6367"/>
<path d="M48.0945 13.2102L38.6133 18.2935H49.4064"/><path d="M48.6745 33.6805L39.1934 28.5972H49.9865"/>
<path d="M2.28516 44.2272L13.3708 33.1416"/><path d="M3.92773 45.8693L15.0134 34.7837"/><path d="M0.128906 42.0719L11.2145 30.9863"/>
<path d="M11.7798 49.3469L14.8897 39.0483L7.25781 46.6802"/><path d="M-3.28125 34.4301L7.01733 31.3203L-0.614569 38.9522"/>
<path d="M42.57 2.80493L31.4844 13.8906"/><path d="M40.9274 1.16284L29.8418 12.2485"/><path d="M44.7262 4.96069L33.6406 16.0463"/>
<path d="M33.4145 -1.97534L30.3047 8.32324L37.9366 0.69134"/><path d="M48.0407 12.3607L37.7422 15.4705L45.3741 7.83862"/>
<path d="M43.1383 43.6579L32.0527 32.5723"/><path d="M44.7809 42.0153L33.6953 30.9297"/><path d="M40.9821 45.8131L29.8965 34.7275"/>
<path d="M48.3298 34.4302L38.0312 31.3203L45.6631 38.9522"/><path d="M33.559 49.2019L30.4492 38.9033L38.0811 46.5352"/>
<path d="M1.7168 3.37476L12.8024 14.4604"/><path d="M0.0742188 5.01685L11.1598 16.1024"/><path d="M3.87305 1.21899L14.9586 12.3047"/>
<path d="M-2.55664 13.0868L7.74195 16.1966L0.110046 8.5647"/><path d="M11.6353 -1.53979L14.7451 8.75879L7.11328 1.12689"/>
</g>
<path d="M22.4272 37.9351C30.9117 37.9351 37.7899 31.057 37.7899 22.5724C37.7899 14.0878 30.9117 7.20972 22.4272 7.20972C13.9426 7.20972 7.06445 14.0878 7.06445 22.5724C7.06445 31.057 13.9426 37.9351 22.4272 37.9351Z" fill="#F8BA3A" stroke="white" stroke-width="0.677027"/>
<mask id="sunio-face" style="mask-type:luminance" maskUnits="userSpaceOnUse" x="7" y="7" width="31" height="31">
<path d="M22.5736 37.9354C31.0582 37.9354 37.9363 31.0572 37.9363 22.5727C37.9363 14.0881 31.0582 7.20996 22.5736 7.20996C14.0891 7.20996 7.21094 14.0881 7.21094 22.5727C7.21094 31.0572 14.0891 37.9354 22.5736 37.9354Z" fill="white"/>
</mask>
<g mask="url(#sunio-face)"><path fill-rule="evenodd" clip-rule="evenodd" d="M23.2999 6.53223L21.2676 22.8629H23.2999L22.5015 37.9257L37.3124 35.2742L39.9998 14.5946L33.4723 8.85481L23.2999 6.53223Z" fill="white"/></g>
<path d="M8.20815 20.5279C8.5578 23.3756 10.4103 26.3384 13.2572 25.9888C22.9195 24.8024 21.5619 18.5934 21.4317 16.5824C22.131 22.2778 26.4566 24.3681 33.7033 23.4783C35.86 23.2135 36.7436 18.9983 36.5048 17.0535C36.2063 14.6226 29.77 14.2672 21.7469 15.2523C13.7237 16.2374 7.77108 16.9683 8.20815 20.5279Z" fill="#01C1AE" stroke="#01C1AE" stroke-width="1.24122" stroke-linecap="round" stroke-linejoin="round"/>
<path d="M22.6632 32.3439C26.0295 32.0693 28.5548 29.3516 28.3037 26.2739L16.1133 27.2685C16.3644 30.3462 19.2969 32.6186 22.6632 32.3439Z" fill="white" stroke="#FE9D51" stroke-width="0.564189" stroke-linejoin="round"/>
<path d="M24.2422 29.0322H27.5809" stroke="#FE9A54" stroke-width="0.451351" stroke-linecap="round" stroke-linejoin="round"/>
<path d="M26.0576 22.1368C23.4447 21.1497 22.4044 18.532 22.2109 17.3465C22.2109 15.7497 24.0254 15.532 28.4528 15.532C32.8802 15.532 35.5657 15.8949 35.7834 17.0562C36.0012 19.0885 35.2754 22.1368 34.2593 22.6449C33.2431 23.153 29.3238 23.3707 26.0576 22.1368Z" fill="black" stroke="black" stroke-width="0.112838"/>
<path d="M18.3717 23.4979C20.4685 22.116 21.5573 19.4512 20.9041 17.2012C20.532 15.9197 18.4893 16.234 14.6621 16.8383C11.2508 17.3769 8.63797 18.8705 8.9283 20.177C9.07338 22.3176 10.7246 24.5783 11.6863 24.9673C12.648 25.3563 15.7508 25.2253 18.3717 23.4979Z" fill="black" stroke="black" stroke-width="0.112838"/>
<path d="M36.5069 10.4512L37.7811 13.8948L41.2246 15.169L37.7811 16.4432L36.5069 19.8867L35.2327 16.4432L31.7891 15.169L35.2327 13.8948L36.5069 10.4512Z" fill="white"/>
<defs><linearGradient id="sunio-gradient" x1="22.5" y1="0" x2="22.5" y2="45" gradientUnits="userSpaceOnUse"><stop stop-color="#F5B745"/><stop offset="1" stop-color="#FC8B47"/></linearGradient></defs>
</svg>
