<svg xmlns="http://www.w3.org/2000/svg" viewBox="0 0 108 22">
<path d="M0 0 C0.99 0 1.98 0 3 0 C3 5.61 3 11.22 3 17 C-5.405 17.487 -5.405 17.487 -8.062 15.312 C-9.122 12.699 -9.233 10.795 -9 8 C-9.66 8.33 -10.32 8.66 -11 9 C-11.465 10.895 -11.465 10.895 -11.625 13.062 C-11.749 14.362 -11.873 15.661 -12 17 C-13.65 17 -15.3 17 -17 17 C-17.33 16.34 -17.66 15.68 -18 15 C-18.66 15.66 -19.32 16.32 -20 17 C-26.264 17.569 -26.264 17.569 -28.938 15.5 C-29.288 15.005 -29.639 14.51 -30 14 C-30.392 14.495 -30.784 14.99 -31.188 15.5 C-33.551 17.456 -35.014 17.242 -38 17 C-38 17.99 -38 18.98 -38 20 C-39.65 20 -41.3 20 -43 20 C-43 14.72 -43 9.44 -43 4 C-41.433 3.959 -39.865 3.918 -38.25 3.875 C-37.368 3.852 -36.487 3.829 -35.578 3.805 C-32.886 4.009 -31.301 4.634 -29 6 C-28.34 5.34 -27.68 4.68 -27 4 C-22.947 3.655 -21.452 3.698 -18 6 C-17.67 5.34 -17.34 4.68 -17 4 C-11.333 4 -5.667 4 0 4 C0 2.68 0 1.36 0 0 Z M-4 7 C-5.296 8.066 -5.296 8.066 -5.062 10.562 C-5.042 11.367 -5.021 12.171 -5 13 C-3.054 13.591 -3.054 13.591 -1 14 C0.296 12.934 0.296 12.934 0.062 10.438 C0.042 9.633 0.021 8.829 0 8 C-1.946 7.409 -1.946 7.409 -4 7 Z M-38 8 C-38 9.65 -38 11.3 -38 13 C-37.01 13 -36.02 13 -35 13 C-35 11.35 -35 9.7 -35 8 C-35.99 8 -36.98 8 -38 8 Z" fill="#689AC9" transform="translate(70,1)"/>
<path d="M0 0 C2.64 0 5.28 0 8 0 C8.33 1.65 8.66 3.3 9 5 C9.33 3.35 9.66 1.7 10 0 C11.65 0 13.3 0 15 0 C15 2.97 15 5.94 15 9 C15.66 8.67 16.32 8.34 17 8 C17.465 6.105 17.465 6.105 17.625 3.938 C17.749 2.638 17.872 1.339 18 0 C19.32 0 20.64 0 22 0 C22 4.29 22 8.58 22 13 C20.391 13.041 18.782 13.082 17.125 13.125 C15.768 13.16 15.768 13.16 14.383 13.195 C12 13 12 13 10 11 C9.34 11.66 8.68 12.32 8 13 C5.312 13.27 2.709 13.087 0 13 C-1.749 8.956 -2.59 6.585 -1 2.312 C-0.505 1.168 -0.505 1.168 0 0 Z" fill="#6B9BCA" transform="translate(4,5)"/>
<path d="M0 0 C0.99 0 1.98 0 3 0 C3 5.61 3 11.22 3 17 C-5.405 17.487 -5.405 17.487 -8.062 15.312 C-9.122 12.699 -9.233 10.795 -9 8 C-9.99 8.495 -9.99 8.495 -11 9 C-11.465 10.895 -11.465 10.895 -11.625 13.062 C-11.811 15.012 -11.811 15.012 -12 17 C-13.65 17 -15.3 17 -17 17 C-18.286 8.571 -18.286 8.571 -17 4 C-11.333 4 -5.667 4 0 4 C0 2.68 0 1.36 0 0 Z M-4 7 C-5.296 8.066 -5.296 8.066 -5.062 10.562 C-5.042 11.367 -5.021 12.171 -5 13 C-3.054 13.591 -3.054 13.591 -1 14 C0.296 12.934 0.296 12.934 0.062 10.438 C0.042 9.633 0.021 8.829 0 8 C-1.946 7.409 -1.946 7.409 -4 7 Z" fill="#BBC8D5" transform="translate(70,1)"/>
<path d="M0 0 C2.463 3.695 2.39 5.633 2 10 C0.938 12 0.938 12 -1 13 C-4.625 12.812 -4.625 12.812 -8 12 C-9.525 8.95 -9.236 6.358 -9 3 C-6.848 -0.706 -4.004 -0.511 0 0 Z M-6 8 C-5.67 8.66 -5.34 9.32 -5 10 C-3.68 9.67 -2.36 9.34 -1 9 C-1 8.67 -1 8.34 -1 8 C-2.65 8 -4.3 8 -6 8 Z" fill="#B5B6B8" transform="translate(83,5)"/>
<path d="M0 0 C0.99 0 1.98 0 3 0 C3 5.61 3 11.22 3 17 C2.01 16.67 1.02 16.34 0 16 C0 13.03 0 10.06 0 7 C-3.126 8.605 -3.126 8.605 -3.512 10.945 C-3.599 12.024 -3.599 12.024 -3.688 13.125 C-3.791 14.404 -3.894 15.683 -4 17 C-4.99 17 -5.98 17 -7 17 C-7 12.71 -7 8.42 -7 4 C-3.535 3.505 -3.535 3.505 0 3 C0 2.01 0 1.02 0 0 Z" fill="#C2C3C5" transform="translate(93,1)"/>
<path d="M0 0 C1.32 0.33 2.64 0.66 4 1 C4.33 2.65 4.66 4.3 5 6 C5.66 6 6.32 6 7 6 C7.33 4.02 7.66 2.04 8 0 C8.99 0 9.98 0 11 0 C10.451 4.571 9.583 8.674 8 13 C6.141 12.809 6.141 12.809 4 12 C2.734 9.785 2.734 9.785 1.75 7.062 C1.415 6.167 1.08 5.271 0.734 4.348 C0 2 0 2 0 0 Z" fill="#C3C4C6" transform="translate(97,5)"/>
<path d="M0 0 C3.125 0.188 3.125 0.188 6.125 2.188 C6.418 4.352 6.418 4.352 6.312 6.812 C6.285 7.63 6.258 8.447 6.23 9.289 C6.196 9.916 6.161 10.542 6.125 11.188 C5.795 10.527 5.465 9.867 5.125 9.188 C2.815 9.518 0.505 9.848 -1.875 10.188 C-3.083 6.564 -2.418 5.546 -0.875 2.188 C-1.865 1.857 -2.855 1.527 -3.875 1.188 C-2.875 0.188 -2.875 0.188 0 0 Z" fill="#6497C7" transform="translate(45.875,4.8125)"/>
<path d="M0 0 C0.99 0.33 1.98 0.66 3 1 C2.01 1.495 2.01 1.495 1 2 C0.67 2.99 0.34 3.98 0 5 C2.31 5 4.62 5 7 5 C7 5.33 7 5.66 7 6 C4.69 6.33 2.38 6.66 0 7 C0 7.66 0 8.32 0 9 C3.465 8.505 3.465 8.505 7 8 C6.67 9.32 6.34 10.64 6 12 C2.625 12.125 2.625 12.125 -1 12 C-3 10 -3 10 -3.312 6.562 C-3 3 -3 3 -1.5 1.062 C-1.005 0.712 -0.51 0.361 0 0 Z" fill="#558DC2" transform="translate(44,6)"/>
<path d="M0 0 C1.32 0 2.64 0 4 0 C4 2.97 4 5.94 4 9 C4.99 9.33 5.98 9.66 7 10 C6.01 10.33 5.02 10.66 4 11 C3.267 13.015 3.267 13.015 3 15 C2.01 15 1.02 15 0 15 C0 10.05 0 5.1 0 0 Z" fill="#1E68AE" transform="translate(28,6)"/>
<path d="M0 0 C0.66 0 1.32 0 2 0 C1.935 2.018 1.87 4.036 1.805 6.055 C1.817 8.239 1.817 8.239 4 10 C1.03 10 -1.94 10 -5 10 C-7 6 -7 6 -6.125 3.25 C-5.754 2.508 -5.383 1.765 -5 1 C-4.67 1 -4.34 1 -4 1 C-3.67 2.65 -3.34 4.3 -3 6 C-2.01 6 -1.02 6 0 6 C0 4.02 0 2.04 0 0 Z" fill="#CBCCCD" transform="translate(69,8)"/>
<path d="M0 0 C0 0.99 0 1.98 0 3 C-0.99 3.33 -1.98 3.66 -3 4 C-3.33 6.64 -3.66 9.28 -4 12 C-4.99 12 -5.98 12 -7 12 C-7 8.37 -7 4.74 -7 1 C-2 0 -2 0 0 0 Z" fill="#0A5BA7" transform="translate(61,5)"/>
<path d="M0 0 C2.64 0 5.28 0 8 0 C8.33 1.32 8.66 2.64 9 4 C6.69 3.67 4.38 3.34 2 3 C2.33 3.99 2.66 4.98 3 6 C1.35 5.67 -0.3 5.34 -2 5 C-1.34 3.35 -0.68 1.7 0 0 Z" fill="#286FB2" transform="translate(4,5)"/>
<path d="M0 0 C0.66 0 1.32 0 2 0 C2 5.28 2 10.56 2 16 C1.01 15.67 0.02 15.34 -1 15 C-0.67 12.36 -0.34 9.72 0 7 C-2.97 6.505 -2.97 6.505 -6 6 C-6 5.67 -6 5.34 -6 5 C-4.35 5 -2.7 5 -1 5 C-0.67 3.35 -0.34 1.7 0 0 Z" fill="#A0A1A4" transform="translate(71,1)"/>
<path d="M0 0 C2.31 0.33 4.62 0.66 7 1 C6.505 1.433 6.01 1.866 5.5 2.312 C3.668 3.997 3.668 3.997 4 7 C1.36 7 -1.28 7 -4 7 C-2.25 3.125 -2.25 3.125 0 2 C0 1.34 0 0.68 0 0 Z" fill="#7FA9D0" transform="translate(6,8)"/>
<path d="M0 0 C0.99 0 1.98 0 3 0 C3 3.63 3 7.26 3 11 C2.34 11 1.68 11 1 11 C-0.203 8.595 -0.101 7.05 -0.062 4.375 C-0.053 3.558 -0.044 2.74 -0.035 1.898 C-0.024 1.272 -0.012 0.645 0 0 Z" fill="#0C5CA8" transform="translate(22,6)"/>
<path d="M0 0 C0.99 0.33 1.98 0.66 3 1 C2.01 1.495 2.01 1.495 1 2 C0.67 2.99 0.34 3.98 0 5 C2.31 5 4.62 5 7 5 C7 5.33 7 5.66 7 6 C5.907 6.124 4.814 6.247 3.688 6.375 C-0.074 6.755 -0.074 6.755 -3 9 C-3.369 3.462 -3.369 3.462 -1.5 1.125 C-1.005 0.754 -0.51 0.383 0 0 Z" fill="#0859A7" transform="translate(44,6)"/>
<path d="M0 0 C1.562 1.188 1.562 1.188 3 3 C2.688 5.688 2.688 5.688 2 8 C0.35 8 -1.3 8 -3 8 C-3.33 8.99 -3.66 9.98 -4 11 C-4 9.35 -4 7.7 -4 6 C-3.01 6 -2.02 6 -1 6 C-1.66 5.34 -2.32 4.68 -3 4 C-2.01 4 -1.02 4 0 4 C0 2.68 0 1.36 0 0 Z" fill="#84ACD3" transform="translate(35,10)"/>
<path d="M0 0 C1.98 0 3.96 0 6 0 C6.33 2.31 6.66 4.62 7 7 C4.36 7 1.72 7 -1 7 C-1 6.67 -1 6.34 -1 6 C0.98 5.67 2.96 5.34 5 5 C4.67 4.34 4.34 3.68 4 3 C1.975 2.348 1.975 2.348 0 2 C0 1.34 0 0.68 0 0 Z" fill="#A8A9AC" transform="translate(77,5)"/>
<path d="M0 0 C2.352 0.599 4.686 1.269 7 2 C7.33 2.66 7.66 3.32 8 4 C5.69 4 3.38 4 1 4 C0.67 5.65 0.34 7.3 0 9 C-0.33 9 -0.66 9 -1 9 C-1.125 2.25 -1.125 2.25 0 0 Z" fill="#CDCECF" transform="translate(75,6)"/>
<path d="M0 0 C0.99 0 1.98 0 3 0 C2.688 3.375 2.688 3.375 2 7 C0.515 7.99 0.515 7.99 -1 9 C-0.67 6.03 -0.34 3.06 0 0 Z" fill="#BCBDBF" transform="translate(105,5)"/>
<path d="M0 0 C0.33 0 0.66 0 1 0 C1.125 3.375 1.125 3.375 1 7 C0.34 7.66 -0.32 8.32 -1 9 C-1 8.34 -1 7.68 -1 7 C-3.31 6.67 -5.62 6.34 -8 6 C-8 5.34 -8 4.68 -8 4 C-5.36 4 -2.72 4 0 4 C0 2.68 0 1.36 0 0 Z" fill="#D8D9DB" transform="translate(84,8)"/>
<path d="M0 0 C2.64 0 5.28 0 8 0 C8.33 1.32 8.66 2.64 9 4 C3.462 3.385 3.462 3.385 1.125 1.438 C0.754 0.963 0.383 0.489 0 0 Z" fill="#4D88BF" transform="translate(4,5)"/>
<path d="M0 0 C0.66 0 1.32 0 2 0 C3.062 1.812 3.062 1.812 4 4 C3.67 4.99 3.34 5.98 3 7 C2.01 7 1.02 7 0 7 C0 4.69 0 2.38 0 0 Z" fill="#CBCBCD" transform="translate(102,11)"/>
<path d="M0 0 C2.962 0.613 4.381 1.254 7 3 C4.69 2.67 2.38 2.34 0 2 C0 1.34 0 0.68 0 0 Z" fill="#0C5CA8" transform="translate(3,14)"/>
<path d="M0 0 C0.66 0 1.32 0 2 0 C0.25 3.875 0.25 3.875 -2 5 C-1.125 1.125 -1.125 1.125 0 0 Z" fill="#BCBEC0" transform="translate(91,5)"/>
<path d="M0 0 C0 0.99 0 1.98 0 3 C-1.65 3 -3.3 3 -5 3 C-3.712 0.425 -2.859 0 0 0 Z" fill="#1A65AD" transform="translate(61,5)"/>
<path d="M0 0 C0.66 0.33 1.32 0.66 2 1 C2 1.66 2 2.32 2 3 C-0.97 2.505 -0.97 2.505 -4 2 C-2.125 0.938 -2.125 0.938 0 0 Z" fill="#3678B7" transform="translate(11,14)"/>
<path d="M0 0 C0.99 0 1.98 0 3 0 C2.67 1.32 2.34 2.64 2 4 C1.34 2.68 0.68 1.36 0 0 Z" fill="#BABCBE" transform="translate(97,5)"/>
<path d="M0 0 C0.99 0 1.98 0 3 0 C3 0.99 3 1.98 3 3 C2.01 3 1.02 3 0 3 C0 2.01 0 1.02 0 0 Z" fill="#C3C4C6" transform="translate(93,1)"/>
<path d="M0 0 C-0.66 1.32 -1.32 2.64 -2 4 C-2 3.34 -2 2.68 -2 2 C-2.66 1.67 -3.32 1.34 -4 1 C-2 0 -2 0 0 0 Z" fill="#CACBCC" transform="translate(85,13)"/>
<path d="M0 0 C0.99 0 1.98 0 3 0 C3 0.99 3 1.98 3 3 C2.01 2.67 1.02 2.34 0 2 C0 1.34 0 0.68 0 0 Z" fill="#3A7BB8" transform="translate(48,14)"/>
</svg>
