<?xml version="1.0" encoding="utf-8"?>
<svg version="1.1" id="layer" xmlns="http://www.w3.org/2000/svg" xmlns:xlink="http://www.w3.org/1999/xlink">
<style type="text/css">
	.st0{fill:#EB6037;}
</style>
<g>
	<path class="st0" d="M66.2,271.7c28.2,0,50.6,22.4,50.6,50.6c0,28.2-22.4,50.6-50.6,50.6c-28.2,0-50.6-22.4-50.6-50.6
		C15.6,294.2,38,271.7,66.2,271.7 M40.9,309.6h50.5v-8.4H40.9V309.6z M91.5,343.5v-25.4H40.9v25.4h8.4v-9.6c0-2.7,0.7-4.2,1.6-5.3
		c1.1-1.3,2.7-2.1,4.7-2.1c2,0,3.6,0.8,4.7,2.1c1,1.1,1.6,2.6,1.6,5.3v9.6h8.5v-9.6c0-2.7,0.7-4.2,1.6-5.3c1.1-1.3,2.7-2.1,4.7-2.1
		c2,0,3.6,0.8,4.7,2.1c1,1.1,1.6,2.6,1.6,5.3v9.6H91.5z"/>
</g>
</svg>
