<svg xmlns="http://www.w3.org/2000/svg" viewBox="0 0 192 254">
<path d="M0 0 C0 0.66 0 1.32 0 2 C-0.919 2.301 -0.919 2.301 -1.857 2.607 C-17.314 7.697 -17.314 7.697 -32.188 14.25 C-32.827 14.566 -33.466 14.883 -34.125 15.209 C-37.654 17.043 -40.353 19.031 -43 22 C-41.113 22.311 -41.113 22.311 -39.188 22.629 C-27.608 24.663 -17.458 27.629 -7 33 C-5.933 33.535 -4.865 34.07 -3.766 34.621 C18.599 46.702 33.448 68.371 41 92.148 C48.453 118.304 44.81 145.17 32.188 168.882 C21.106 188.642 1.087 205.513 -20.812 211.809 C-22.861 212.273 -24.929 212.649 -27 213 C-25 210 -23 207 -21 204 C-20.43 202.98 -19.86 201.961 -19.273 200.91 C-16.371 197.195 -13.694 196.171 -9.375 194.562 C8.985 187.017 18.335 173.745 26.191 155.977 C35.359 133.575 32.838 110.011 24 88 C14.937 67.274 -2.505 51.482 -23.16 42.648 C-31.619 39.483 -41.248 36.75 -50 40.375 C-53.012 41.822 -53.012 41.822 -55 44 C-55.882 51.204 -53.516 56.766 -49.152 62.375 C-46.839 64.995 -44.448 67.505 -42 70 C-41.279 70.742 -41.279 70.742 -40.542 71.499 C-35.893 76.273 -31.227 80.968 -26.184 85.328 C-11.097 98.424 3.978 112.865 11 132 C11.244 132.66 11.487 133.32 11.738 134 C15.682 146.876 12.226 159.867 6.438 171.562 C2.24 178.881 -3.958 186.305 -11 191 C-10.121 188.217 -9.223 185.49 -8.012 182.832 C-3.745 173.321 -2.701 163.683 -5.934 153.68 C-13.974 133.477 -31.808 117.861 -48 104 C-73.655 81.67 -73.655 81.67 -80 69 C-80.354 68.303 -80.709 67.605 -81.074 66.887 C-84.655 58.282 -84.306 46.781 -81.375 38.062 C-75.399 24.126 -64.937 14.957 -50.974 9.159 C-34.693 2.898 -17.451 -0.159 0 0 Z" fill="#E3002A" transform="translate(148,15)"/>
<path d="M0 0 C-0.488 0.286 -0.975 0.572 -1.478 0.867 C-11.271 6.644 -20.479 12.431 -29 20 C-29.848 20.717 -30.696 21.433 -31.57 22.172 C-43.786 32.707 -54.417 45.728 -56.25 62.254 C-56.941 75.716 -50.761 87.833 -41.994 97.625 C-39.704 100.124 -37.367 102.574 -35 105 C-34.188 105.852 -34.188 105.852 -33.359 106.72 C-29.342 110.861 -25.115 114.325 -20.438 117.688 C0.407 133.037 22.082 152.177 27 179 C28.607 195.169 25.555 207.732 16 221 C15.55 221.636 15.1 222.271 14.637 222.926 C1.44 239.859 -23.419 249.755 -44 253 C-40.935 249.668 -37.333 248.223 -33.25 246.438 C-15.845 238.498 0.877 227.28 10 210 C10.432 209.247 10.864 208.494 11.309 207.719 C15.682 198.881 15.386 187.754 13.117 178.336 C6.119 158.917 -9.164 144.406 -25.25 132.188 C-42.122 119.354 -56.037 106.529 -65 87 C-65.382 86.174 -65.763 85.347 -66.156 84.496 C-70.5 72.933 -69.268 58.333 -64.594 47.129 C-56.523 31.285 -20.436 -6.812 0 0 Z" fill="#E3002A" transform="translate(106,1)"/>
<path d="M0 0 C0.134 6.814 -2.454 10.445 -6.417 15.87 C-19.693 34.277 -23.555 58.029 -20.504 80.25 C-16.258 103.279 -3.815 124.738 15.395 138.52 C33.075 150.564 52.065 154.385 73 156 C72.605 156.458 72.211 156.916 71.804 157.388 C71.277 158.001 70.75 158.614 70.207 159.246 C69.381 160.205 69.381 160.205 68.538 161.183 C67.407 162.519 66.321 163.892 65.262 165.285 C63.279 167.523 61.738 168.753 59 170 C53.14 170.266 47.703 169.272 42 168 C40.929 167.767 40.929 167.767 39.835 167.529 C24.796 164.083 10.629 157.196 -1 147 C-2.081 146.132 -2.081 146.132 -3.184 145.246 C-18.781 132.298 -27.593 114.196 -33 95 C-33.246 94.127 -33.492 93.255 -33.746 92.355 C-39.232 68.33 -33.29 42.135 -20.68 21.387 C-16.525 14.908 -11.423 9.44 -6 4 C-5.274 3.23 -4.549 2.461 -3.801 1.668 C-2 0 -2 0 0 0 Z" fill="#E4002B" transform="translate(35,62)"/>
<path d="M0 0 C0 0.66 0 1.32 0 2 C-3.057 3.019 -5.857 3.284 -9.053 3.543 C-31.004 5.397 -52.769 11.152 -68 28 C-70.037 30.55 -71.61 33.051 -73 36 C-73.316 36.638 -73.632 37.276 -73.957 37.934 C-77.648 46.849 -77.485 58.203 -74.125 67.188 C-67.815 80.308 -57.068 90.76 -46.164 100.121 C-42.6 103.215 -39.136 106.419 -35.652 109.602 C-33.483 111.563 -31.288 113.478 -29.062 115.375 C-16.411 126.474 -0.136 141.645 3 159 C3.953 175.071 3.953 175.071 0 181 C-3.204 184.478 -6.542 187.775 -10 191 C-10.33 190.34 -10.66 189.68 -11 189 C-10.074 186.715 -10.074 186.715 -8.688 183.938 C-3.371 172.64 -2.777 162.837 -7 151 C-15.309 132.144 -32.62 117.166 -48 104 C-73.655 81.67 -73.655 81.67 -80 69 C-80.354 68.303 -80.709 67.605 -81.074 66.887 C-84.655 58.282 -84.306 46.781 -81.375 38.062 C-75.399 24.126 -64.937 14.957 -50.974 9.159 C-34.693 2.898 -17.451 -0.159 0 0 Z" fill="#D41E23" transform="translate(148,15)"/>
<path d="M0 0 C-1.494 0.946 -2.996 1.882 -4.5 2.812 C-5.753 3.596 -5.753 3.596 -7.031 4.395 C-9.354 5.651 -11.388 6.541 -13.852 7.406 C-18.219 8.983 -21.976 11.19 -25.875 13.688 C-26.57 14.128 -27.264 14.569 -27.98 15.023 C-33.63 18.657 -38.955 22.555 -44 27 C-44.632 27.549 -45.263 28.098 -45.914 28.664 C-53.669 35.873 -58.576 45.084 -62 55 C-62.357 55.951 -62.714 56.903 -63.082 57.883 C-66.84 70.643 -62.575 84.129 -56.523 95.48 C-47.913 109.721 -36.479 120.371 -23.295 130.208 C-16.777 135.089 -10.867 140.354 -5 146 C-4.129 146.797 -3.257 147.593 -2.359 148.414 C9.002 159.113 17.954 173.066 19.238 188.945 C19.422 196.817 18.376 202.885 15 210 C14.451 211.195 14.451 211.195 13.891 212.414 C6.737 225.971 -6.002 235.562 -19.083 242.921 C-20.921 243.956 -22.736 245.023 -24.551 246.098 C-30.932 249.749 -36.661 252.188 -44 253 C-40.935 249.668 -37.333 248.223 -33.25 246.438 C-15.845 238.498 0.877 227.28 10 210 C10.432 209.247 10.864 208.494 11.309 207.719 C15.682 198.881 15.386 187.754 13.117 178.336 C6.119 158.917 -9.164 144.406 -25.25 132.188 C-42.122 119.354 -56.037 106.529 -65 87 C-65.382 86.174 -65.763 85.347 -66.156 84.496 C-70.5 72.933 -69.268 58.333 -64.594 47.129 C-56.523 31.285 -20.436 -6.812 0 0 Z" fill="#E71D24" transform="translate(106,1)"/>
<path d="M0 0 C16.291 0 33.321 13.025 44.375 23.938 C62.101 42.069 70.409 65.9 70.371 90.948 C69.955 110.524 62.27 125.906 49 140 C46.735 142.152 44.468 144.08 42 146 C41.34 145.67 40.68 145.34 40 145 C40.629 144.175 41.258 143.35 41.906 142.5 C56.338 123.189 65.794 101.565 62.504 76.906 C58.712 52.057 48.002 30.571 27.914 15.027 C19.2 8.965 10.182 4.159 0 1 C0 0.67 0 0.34 0 0 Z" fill="#D21E23" transform="translate(117,54)"/>
<path d="M0 0 C12.189 4.84 22.284 20.647 27.402 32.152 C31.664 43.45 33.021 55.022 28.234 66.398 C27.827 67.257 27.42 68.115 27 69 C26.634 69.797 26.268 70.593 25.891 71.414 C18.737 84.971 5.998 94.562 -7.083 101.921 C-8.921 102.956 -10.736 104.023 -12.551 105.098 C-18.932 108.749 -24.661 111.188 -32 112 C-28.935 108.668 -25.333 107.223 -21.25 105.438 C-3.845 97.498 12.877 86.28 22 69 C22.432 68.247 22.864 67.494 23.309 66.719 C27.682 57.881 27.386 46.754 25.117 37.336 C20.259 23.856 11.502 12.993 1.172 3.281 C0 2 0 2 0 0 Z" fill="#BB1A22" transform="translate(94,142)"/>
<path d="M0 0 C0.66 0.33 1.32 0.66 2 1 C0.125 6.624 -7.005 9.11 -12 12 C-13.684 12.994 -13.684 12.994 -15.402 14.008 C-21.849 17.672 -27.596 20.181 -35 21 C-31.936 17.668 -28.334 16.22 -24.25 14.438 C-15.517 10.501 -7.793 5.536 0 0 Z" fill="#8C0E17" transform="translate(97,233)"/>
<path d="M0 0 C1.468 1.282 1.468 1.282 2.965 2.59 C7.04 6.083 11.279 9.33 15.562 12.562 C20.47 16.273 25.308 20.019 30 24 C29.34 24.66 28.68 25.32 28 26 C4.481 7.631 4.481 7.631 -2 1 C-1.34 0.67 -0.68 0.34 0 0 Z" fill="#D31A24" transform="translate(65,117)"/>
<path d="M0 0 C0 0.66 0 1.32 0 2 C-2.592 2.864 -4.588 3.241 -7.273 3.5 C-8.098 3.582 -8.923 3.665 -9.773 3.75 C-10.632 3.832 -11.49 3.915 -12.375 4 C-19.734 4.682 -19.734 4.682 -27 6 C-26.275 4.052 -26.275 4.052 -25 2 C-23.016 1.362 -23.016 1.362 -20.605 1.172 C-19.732 1.095 -18.859 1.017 -17.959 0.938 C-17.044 0.876 -16.13 0.814 -15.188 0.75 C-14.285 0.673 -13.382 0.595 -12.451 0.516 C-8.288 0.173 -4.179 -0.035 0 0 Z" fill="#EA1C25" transform="translate(148,15)"/>
<path d="M0 0 C0.66 0.33 1.32 0.66 2 1 C0.684 4.949 -1.054 5.55 -4.562 7.688 C-6.08 8.621 -6.08 8.621 -7.629 9.574 C-8.411 10.045 -9.194 10.515 -10 11 C-10.66 10.01 -11.32 9.02 -12 8 C-8.04 5.36 -4.08 2.72 0 0 Z" fill="#9E151E" transform="translate(97,233)"/>
<path d="M0 0 C5.664 0.365 10.007 1.055 15 4 C15 4.66 15 5.32 15 6 C10 4.333 5 2.667 0 1 C0 0.67 0 0.34 0 0 Z" fill="#E91825" transform="translate(117,54)"/>
<path d="M0 0 C0.99 0.66 1.98 1.32 3 2 C1.35 3.32 -0.3 4.64 -2 6 C-1.34 4.02 -0.68 2.04 0 0 Z" fill="#B11623" transform="translate(139,200)"/>
<path d="M0 0 C0.99 0.33 1.98 0.66 3 1 C2.01 1.99 1.02 2.98 0 4 C-0.66 3.67 -1.32 3.34 -2 3 C-1.34 2.01 -0.68 1.02 0 0 Z" fill="#BA1424" transform="translate(159,196)"/>
</svg>
