<svg width="64" height="64" viewBox="0 0 64 64" fill="none" xmlns="http://www.w3.org/2000/svg">
  <path transform="translate(10 16.65)" d="M10.631 7.15429C10.3233 6.80637 9.94455 6.632 9.49384 6.632H0.276215C0.194343 6.632 0.127356 6.60638 0.0769101 6.55514C0.0256367 6.50473 0 6.4477 0 6.38655V0.245446C0 0.184291 0.0256367 0.128095 0.0769101 0.0768568C0.127356 0.0256189 0.194343 0 0.276215 0H10.0165C12.4743 0 14.5947 0.993353 16.3769 2.97841L18.7429 5.83368L14.1341 11.3913L10.631 7.15429ZM27.6537 2.94783C29.4359 0.982609 31.5662 0 34.0447 0H43.7544C43.8363 0 43.8975 0.0206604 43.9388 0.0611548C43.9793 0.102476 44 0.163631 44 0.245446V6.38655C44 6.4477 43.9793 6.50473 43.9388 6.55514C43.8975 6.60638 43.8363 6.632 43.7544 6.632H34.5368C34.086 6.632 33.7073 6.80637 33.3996 7.15429L26.6092 15.3218L33.4302 23.5504C33.7379 23.8785 34.1059 24.0421 34.5368 24.0421H43.7544C43.8363 24.0421 43.8975 24.0677 43.9388 24.119C43.9793 24.1702 44 24.2372 44 24.3181V30.4592C44 30.5204 43.9793 30.5774 43.9388 30.6278C43.8975 30.6791 43.8363 30.7047 43.7544 30.7047H34.0447C31.5662 30.7047 29.4458 29.7122 27.6843 27.7263L22.031 20.91L16.3769 27.7263C14.5947 29.7122 12.4644 30.7047 9.9859 30.7047H0.276215C0.194343 30.7047 0.132318 30.6791 0.0917959 30.6278C0.0504464 30.5766 0.0305986 30.5105 0.0305986 30.4278V24.2867C0.0305986 24.2256 0.0504464 24.1694 0.0917959 24.1181C0.132318 24.0669 0.194343 24.0413 0.276215 24.0413H9.49384C9.92388 24.0413 10.3026 23.8677 10.631 23.519L17.2981 15.4747L27.6537 2.94783Z" fill="#00D1FF"/>
</svg>
