<svg xmlns="http://www.w3.org/2000/svg" viewBox="0 0 771 771">
<path d="M0 0 C254.43 0 508.86 0 771 0 C771 254.43 771 508.86 771 771 C516.57 771 262.14 771 0 771 C0 516.57 0 262.14 0 0 Z" fill="#FEFEFE" transform="translate(0,0)"/>
<path d="M0 0 C1.168 0.716 2.317 1.463 3.438 2.25 C4.324 2.827 5.211 3.405 6.125 4 C10.613 8.367 14.288 13.855 14.569 20.231 C14.571 21.466 14.574 22.701 14.577 23.973 C14.582 25.009 14.582 25.009 14.586 26.065 C14.595 28.396 14.597 30.727 14.598 33.057 C14.603 34.738 14.608 36.419 14.614 38.1 C14.627 42.734 14.635 47.367 14.642 52 C14.648 55.971 14.658 59.942 14.668 63.913 C14.701 76.998 14.723 90.084 14.741 103.169 C14.746 106.576 14.751 109.983 14.756 113.391 C14.787 134.546 14.814 155.701 14.831 176.856 C14.834 181.757 14.838 186.659 14.843 191.561 C14.844 192.779 14.845 193.997 14.846 195.253 C14.863 214.983 14.904 234.714 14.955 254.445 C15.006 274.699 15.035 294.954 15.043 315.208 C15.047 326.582 15.062 337.955 15.102 349.328 C15.137 359.015 15.151 368.702 15.138 378.39 C15.132 383.331 15.136 388.272 15.166 393.213 C15.194 397.742 15.193 402.27 15.171 406.799 C15.167 408.432 15.174 410.066 15.192 411.699 C15.296 421.632 14.374 429.848 8.438 438.25 C1.705 444.8 -5.077 446.809 -14.341 446.813 C-21.586 446.561 -26.036 443.878 -31.562 439.25 C-32.09 438.81 -32.618 438.371 -33.162 437.918 C-36.127 435.436 -39.051 432.911 -41.957 430.359 C-45.396 427.36 -48.952 424.539 -52.562 421.75 C-58.049 417.501 -63.341 413.068 -68.587 408.526 C-72.703 404.968 -76.897 401.529 -81.164 398.152 C-89.304 391.696 -97.272 385.021 -105.29 378.415 C-111.037 373.68 -116.796 368.961 -122.562 364.25 C-124.396 362.75 -126.229 361.25 -128.062 359.75 C-129.424 358.636 -129.424 358.636 -130.812 357.5 C-140.896 349.25 -150.979 341 -161.062 332.75 C-161.976 332.002 -162.89 331.255 -163.832 330.484 C-165.601 329.037 -167.369 327.589 -169.137 326.141 C-174.602 321.664 -180.079 317.203 -185.562 312.75 C-191.908 307.598 -198.24 302.431 -204.562 297.25 C-206.396 295.75 -208.229 294.25 -210.062 292.75 C-217.396 286.75 -224.729 280.75 -232.062 274.75 C-232.976 274.002 -233.89 273.255 -234.832 272.484 C-236.601 271.037 -238.369 269.589 -240.137 268.141 C-240.999 267.434 -241.861 266.728 -242.75 266 C-243.65 265.263 -244.55 264.525 -245.477 263.766 C-247.799 261.873 -250.127 259.988 -252.461 258.109 C-278.364 237.241 -278.364 237.241 -280.562 225.25 C-280.688 215.973 -278.57 209.189 -272.188 202.438 C-268.07 198.526 -263.621 195.069 -259.128 191.605 C-254.742 188.215 -250.501 184.693 -246.312 181.062 C-241.614 176.994 -236.86 173.028 -231.984 169.172 C-227.466 165.586 -223.022 161.909 -218.562 158.25 C-216.729 156.75 -214.896 155.25 -213.062 153.75 C-212.155 153.007 -211.248 152.265 -210.312 151.5 C-147.063 99.75 -147.063 99.75 -144.293 97.484 C-142.524 96.037 -140.756 94.589 -138.988 93.141 C-132.831 88.097 -126.656 83.074 -120.477 78.057 C-114.828 73.468 -109.192 68.863 -103.562 64.25 C-101.729 62.75 -99.896 61.25 -98.062 59.75 C-97.155 59.007 -96.248 58.265 -95.312 57.5 C-54.062 23.75 -54.062 23.75 -51.305 21.496 C-49.494 20.013 -47.687 18.526 -45.883 17.035 C-43.121 14.758 -40.347 12.499 -37.562 10.25 C-36.745 9.589 -36.745 9.589 -35.911 8.914 C-34.198 7.537 -32.476 6.173 -30.75 4.812 C-30.223 4.387 -29.696 3.962 -29.153 3.524 C-21.219 -2.667 -9.276 -4.488 0 0 Z" fill="#5558BE" transform="translate(377.5625,171.75)"/>
<path d="M0 0 C1.168 0.716 2.317 1.463 3.438 2.25 C4.324 2.827 5.211 3.405 6.125 4 C10.614 8.368 14.293 13.858 14.565 20.237 C14.566 21.475 14.568 22.712 14.569 23.987 C14.571 24.679 14.573 25.371 14.575 26.084 C14.581 28.42 14.579 30.755 14.578 33.091 C14.581 34.776 14.584 36.46 14.587 38.145 C14.595 42.788 14.597 47.431 14.598 52.074 C14.599 57.076 14.607 62.078 14.614 67.08 C14.627 78.024 14.633 88.968 14.638 99.913 C14.64 106.743 14.645 113.574 14.649 120.405 C14.661 139.308 14.672 158.211 14.675 177.115 C14.675 178.93 14.675 178.93 14.676 180.782 C14.676 181.996 14.676 183.209 14.676 184.459 C14.677 186.918 14.677 189.377 14.678 191.835 C14.678 193.665 14.678 193.665 14.678 195.531 C14.682 215.298 14.7 235.064 14.723 254.831 C14.747 275.113 14.759 295.396 14.76 315.679 C14.761 327.071 14.767 338.464 14.785 349.856 C14.801 359.557 14.806 369.257 14.798 378.957 C14.794 383.908 14.795 388.859 14.809 393.809 C14.821 398.341 14.82 402.872 14.808 407.403 C14.806 409.043 14.809 410.683 14.818 412.323 C14.829 414.552 14.821 416.781 14.809 419.01 C14.81 420.248 14.811 421.486 14.811 422.762 C14.143 428.996 11.372 434.383 7.438 439.25 C1.251 444.056 -3.391 446.398 -11.312 446.5 C-12.504 446.526 -13.695 446.552 -14.922 446.578 C-21.708 445.966 -26.432 442.89 -31.688 438.75 C-32.517 438.1 -32.517 438.1 -33.363 437.436 C-38.514 433.363 -43.513 429.11 -48.504 424.844 C-51.982 421.878 -55.549 419.029 -59.129 416.188 C-67.27 409.706 -75.259 403.032 -83.29 396.415 C-89.037 391.68 -94.796 386.961 -100.562 382.25 C-102.396 380.75 -104.229 379.25 -106.062 377.75 C-107.424 376.636 -107.424 376.636 -108.812 375.5 C-126.229 361.25 -143.646 347 -161.062 332.75 C-161.965 332.013 -162.867 331.275 -163.797 330.516 C-165.686 328.968 -167.571 327.416 -169.453 325.859 C-170.397 325.081 -171.34 324.302 -172.312 323.5 C-173.573 322.456 -173.573 322.456 -174.859 321.391 C-178.008 318.898 -181.295 316.584 -184.562 314.25 C-184.562 350.22 -184.562 386.19 -184.562 423.25 C-184.892 423.25 -185.223 423.25 -185.562 423.25 C-185.562 290.92 -185.562 158.59 -185.562 22.25 C-185.233 22.25 -184.902 22.25 -184.562 22.25 C-184.562 57.89 -184.562 93.53 -184.562 130.25 C-176.499 123.914 -168.619 117.643 -160.844 111 C-156.916 107.677 -152.855 104.531 -148.793 101.375 C-144.243 97.824 -139.838 94.127 -135.455 90.373 C-131.591 87.079 -127.637 83.924 -123.625 80.812 C-118.12 76.54 -112.806 72.087 -107.538 67.526 C-103.429 63.975 -99.245 60.541 -94.984 57.172 C-90.466 53.586 -86.022 49.909 -81.562 46.25 C-79.729 44.75 -77.896 43.25 -76.062 41.75 C-75.155 41.007 -74.248 40.265 -73.312 39.5 C-54.063 23.75 -54.063 23.75 -51.305 21.496 C-49.494 20.013 -47.687 18.526 -45.883 17.035 C-43.121 14.758 -40.347 12.499 -37.562 10.25 C-36.745 9.589 -36.745 9.589 -35.911 8.914 C-34.198 7.537 -32.476 6.173 -30.75 4.812 C-30.223 4.387 -29.696 3.962 -29.153 3.524 C-21.219 -2.667 -9.276 -4.488 0 0 Z" fill="#B3B4E2" transform="translate(577.5625,171.75)"/>
</svg>
