<svg xmlns="http://www.w3.org/2000/svg" viewBox="0 0 30 43">
  <path d="M28.4,34.4c-2.5,6.9-10.8,10.3-18.4,7.5C2.3,39.1-1.8,31.2,0.8,24.3c2.5-6.9,10.8-10.3,18.4-7.5S30.9,27.5,28.4,34.4" fill="#E21F26"/>
  <path d="M4,26c-2.3,3.3,0,8.3,2,10.2c1.7,1.7,5.6,3.8,9.2,3.1c-4.5-2.1-10.7-5.9-11-13.2"/>
  <path d="M23,31.4c-0.5,0.9-1.9,1-3,0.4c-1.1-0.7-1.6-1.9-1.1-2.8c0.5-0.9,1.9-1,3-0.4C23.1,29.3,23.6,30.5,23,31.4" fill="#FFF"/>
  <path d="M26.5,0.5c-0.1-0.1-0.1-0.2-0.2-0.3c0-0.1-0.1-0.2-0.2-0.1C26,0,26,0.1,25.9,0.2c-0.1,0.1-0.2,0.2-0.3,0.2c-0.1,0-0.1,0-0.2-0.1c0-0.1-0.1-0.1-0.2-0.1c-0.1,0-0.2,0-0.6,0.9c-0.8,1-1.6,2-2.4,3c0,0,0,0-0.1,0.1c-0.7,1-1.5,2.1-2.1,3.1c-0.7,1.1-1.3,2.2-1.9,3.4c-0.6,1.1-1.1,2.3-1.5,3.5c-0.2,0.6-0.4,1.3-0.5,1.9c-0.1,0.6-0.2,1.3-0.3,1.9c-0.1,0.3-0.1,0.6-0.1,0.9c0,0.2-0.1,0.5-0.1,0.7c-0.1,0.5-0.1,1,0,1.5c0,0.4,0.1,0.7,0.1,1c-1-0.6-1.1-1.1-1.3-1.7c-0.1-0.5-0.3-1.2-0.8-1.1c-0.5,0.1-0.8,0.6-0.7,1.1c0.3,1.2,1.4,2.2,2.9,2.7c0.2,0.1,0.4,0.1,0.7,0.2c1.3,0.3,2.9,0.2,4-0.6c0.4-0.3,0.5-0.9,0.1-1.3c-0.3-0.4-1.3,0.8-2.4,1c-0.2,0-0.3,0.1-0.6,0.1c-0.2-1.2-0.1-2.5,0.1-3.7c0.2-1.3,0.5-2.6,1-3.9c0.4-1.2,0.9-2.4,1.4-3.5c0.2-0.4,0.4-0.8,0.6-1.2c0.9-1.7,2-3.4,3.2-4.9c0.6-0.7,1.6-1.7,2.3-2.3l0.1-0.1c0.1-0.1,0.4-0.3,0.8-0.7l0.1,0l0-0.1C27.2,1.7,26.9,1.1,26.5,0.5L26.5,0.5z"/>
</svg>
