<?xml version="1.0" encoding="UTF-8"?>
<svg xmlns="http://www.w3.org/2000/svg" viewBox="50 45 155 175" role="img" aria-label="ThetaData">
  <path fill="#1074FF" d="M110.385170,192.705872 C99.029945,184.001221 88.120712,175.305801 76.874977,167.069855 C71.873283,163.406799 68.648346,159.964493 68.805252,152.898209 C69.348488,128.433884 69.078758,103.949753 68.958084,79.473946 C68.935379,74.869186 69.769478,72.702530 75.235489,71.669579 C83.623909,70.084366 91.623512,66.462914 99.807594,63.764648 C103.043922,62.697639 106.345016,61.828556 109.593979,60.797974 C113.434776,59.579659 117.238190,58.243248 121.080978,57.031521 C127.083183,55.138882 132.545654,56.724327 138.269928,58.913628 C145.856033,61.814995 153.840607,63.669167 161.639893,66.020012 C168.810196,68.181274 176.021942,70.235878 183.068512,72.749390 C184.398499,73.223793 185.864624,75.627319 185.874161,77.149437 C186.043274,104.122360 186.194717,131.100266 185.700241,158.065186 C185.648819,160.869354 181.905304,164.133255 179.162918,166.270126 C166.717010,175.968018 154.009674,185.330154 141.413147,194.835266 C139.537842,196.250336 137.645554,197.671310 135.942886,199.281738 C129.255112,205.607178 126.106613,205.659180 119.312218,199.683899 C116.571342,197.273438 113.574524,195.153992 110.385170,192.705872 M117.395134,71.986855 C112.986214,73.129417 108.518494,74.086197 104.182274,75.458496 C97.824951,77.470436 91.642410,80.073402 85.223938,81.836853 C82.075989,82.701744 80.921089,83.859550 80.939964,87.139969 C81.062599,108.449509 80.917061,129.761002 81.143158,151.068832 C81.164413,153.072250 82.669510,155.669067 84.302193,156.948105 C95.485703,165.709305 106.891029,174.187195 118.215881,182.768265 C121.022285,184.894760 123.754906,188.690903 126.595352,188.761871 C129.487228,188.834152 132.561996,185.381790 135.397324,183.259827 C147.370056,174.299591 159.352188,165.348068 171.134567,156.142075 C172.672394,154.940521 173.858841,152.289078 173.877243,150.296921 C174.072464,129.154968 173.946762,108.010254 174.054932,86.867058 C174.070740,83.777542 172.886810,82.725235 169.996292,81.885452 C160.458328,79.114388 151.123917,75.631042 141.559357,72.966904 C133.948608,70.846992 126.256325,65.921791 117.395134,71.986855z"/>
  <path fill="#1074FF" d="M151.212067,120.032364 C156.084564,119.540382 160.559540,119.355614 164.892563,118.473526 C167.536514,117.935280 168.883163,118.455048 168.932419,121.027596 C169.055786,127.471962 168.973160,133.920273 168.973160,141.532700 C141.220581,136.639725 114.023933,136.191315 86.425484,141.605408 C86.425484,133.317383 86.425484,125.940430 86.425484,118.253609 C96.229240,119.436760 105.920830,120.953918 115.671272,121.672905 C123.441849,122.245895 131.290695,122.045097 139.092010,121.792381 C142.994339,121.665970 146.868027,120.655884 151.212067,120.032364z"/>
</svg>
