<svg width="685" height="680" viewBox="0 0 685 680" fill="none" xmlns="http://www.w3.org/2000/svg">
<path d="M607.233 225.89L614.296 203.418L590.929 204.146C588.955 204.146 574.605 203.741 560.683 193.709C561.721 193.81 562.758 193.952 563.817 193.952C578.146 193.952 592.008 185.375 597.564 173.119L607.619 150.971C595.02 151.132 583.5 149.554 583.5 149.554C583.398 149.535 574.32 148.381 563.817 137.722C556.286 130.077 546.964 126.032 536.868 126.032C532.451 126.032 528.503 126.82 525.103 127.892C525.632 126.092 526.141 124.272 526.426 122.391C529.642 101.659 516.209 85.842 516.209 85.8617L498.642 64.2398L487.754 89.6439C487.713 89.725 484.964 95.6712 480.039 98.584C478.553 91.1206 474.909 82.7264 467.114 74.6972C452.418 59.5674 434.526 57.3223 425.164 57.3223C420.829 57.3223 417.735 57.7871 416.981 57.9088L395.772 62.0549C396.994 57.342 399.599 49.1506 404.362 41.7682L416.066 23.6456L386.612 26.9827L377.229 7.18062L359.073 16.4847L342.281 0L325.53 16.4847L307.312 7.18062L297.949 26.9827L268.517 23.6456L280.241 41.7682C285.004 49.1506 287.609 57.3223 288.81 62.0352L268.579 58.071L267.886 57.9493C266.868 57.7871 263.795 57.3223 259.439 57.3223C250.077 57.3223 232.185 59.5872 217.529 74.6972C209.713 82.7066 206.07 91.1206 204.564 98.584C199.679 95.7118 196.951 89.8467 196.951 89.8467L186.042 64.3001L168.19 86.0635C166.013 88.8754 155.246 103.742 158.176 122.431C158.482 124.292 158.971 126.113 159.5 127.913C156.121 126.841 152.172 126.051 147.755 126.051C137.66 126.051 128.337 130.097 120.786 137.742C110.323 148.362 101.286 149.554 101.368 149.554C101.368 149.554 91.8211 151.254 77.0439 150.991L87.0385 173.139C92.5948 185.416 106.477 193.972 120.786 193.972C121.864 193.972 122.902 193.831 123.961 193.729C110.079 203.762 95.7301 204.167 93.9997 204.186L70.1846 203.418L77.3901 225.87C81.0132 237.439 93.1241 256.614 116.328 258.677C113.804 269.195 108.207 280.967 95.9131 286.043L78.1847 293.304L87.8527 310.031C93.3071 319.052 106.111 329.611 124.348 329.611C128.296 329.591 132.102 329.206 135.767 328.438C136.703 332.564 137.883 336.69 139.267 340.776C144.702 356.836 140.02 368.041 139.96 368.163L131.207 386.386L150.747 391.503C150.991 391.585 156.894 393.183 164.282 393.183C167.641 393.183 170.837 392.839 173.85 392.13C176.129 391.605 178.307 390.897 180.403 390.048C182.927 394.558 186.001 398.664 189.584 402.346C202.101 415.108 219.83 421.581 242.301 421.581H242.382L258.422 421.378L225.285 435.051L250.443 447.126C259.581 451.557 270.431 456.795 281.462 460.799L278.328 469.335L286.999 473.26C287.772 473.603 304.442 481.026 332.165 482.604C332.165 482.604 338.861 482.907 342.546 482.907C346.23 482.907 352.845 482.583 352.845 482.583C380.384 480.965 396.932 473.623 397.706 473.26L406.397 469.315L403.222 460.759C414.58 456.633 425.815 451.193 434.567 446.944L459.257 435.031L426.222 421.338L442.323 421.54C464.814 421.54 482.563 415.068 495.06 402.284C498.623 398.624 501.696 394.517 504.24 390.007C506.337 390.857 508.535 391.565 510.815 392.09C513.806 392.798 517.002 393.142 520.361 393.142C527.627 393.142 533.591 391.544 533.754 391.503L553.375 386.346L544.826 368.466C544.623 368 539.942 356.815 545.376 340.736C546.76 336.629 547.92 332.503 548.857 328.397C552.541 329.166 556.388 329.57 560.357 329.57C583.581 329.57 594.715 313.329 596.873 309.809L606.439 293.264L588.711 286.023C576.396 280.946 570.819 269.154 568.316 258.656C591.194 256.715 603.488 237.54 607.233 225.89ZM290.358 69.7815L290.113 69.8428L290.316 69.5797L290.358 69.7815Z" fill="white"/>
<path d="M342.304 68.7903C323.536 68.81 309.471 74.9185 306.398 82.0991L342.304 96.1765L378.209 82.0991C375.156 74.9185 361.091 68.81 342.304 68.7903Z" fill="white"/>
<path d="M342.669 441.463H342.629H342.323H341.978H341.957C330.579 441.544 314.926 439.218 307.374 437.033L298.297 461.446C304.281 463.57 324.554 467.616 342.323 467.616C360.051 467.616 380.345 463.55 386.309 461.446L377.252 437.033C369.679 439.237 354.047 441.544 342.669 441.463Z" fill="white"/>
<path d="M411.367 417.192C404.609 420.995 389.527 426.699 380.754 429.349L388.122 449.514C401.699 445.833 412.894 441.525 422.154 436.913L406.868 431.856L411.367 417.192Z" fill="white"/>
<path d="M273.264 417.192L277.783 431.856L262.477 436.913C271.717 441.525 282.973 445.833 296.488 449.514L303.857 429.349C295.125 426.699 280.022 420.975 273.264 417.192Z" fill="white"/>
<path d="M342.304 45.4487C356.45 45.4487 370.332 48.8066 380.998 54.7134C381.975 51.4563 383.338 47.5119 385.192 43.3866L381.161 43.8712L376.927 44.3163L375.136 40.4935L369.743 29.1668L359.911 34.2644L356.084 36.206L353.031 33.2121L342.345 22.6943L331.68 33.2121L328.626 36.206L324.799 34.2644L314.908 29.1668L309.575 40.4935L307.743 44.3163L303.509 43.8712L299.479 43.3866C301.332 47.5327 302.675 51.4563 303.672 54.7134C314.358 48.8066 328.199 45.4487 342.304 45.4487Z" fill="white"/>
<path d="M558.285 176.357C560.116 176.984 561.989 177.267 563.841 177.267C571.841 177.267 579.575 172.129 582.242 166.243C582.242 166.243 567.566 165.353 551.792 149.435C546.764 144.277 541.452 142.74 536.892 142.74C529.809 142.74 524.496 146.461 524.496 146.461C543.548 156.535 547.436 172.716 558.285 176.357Z" fill="white"/>
<path d="M120.772 177.267C122.624 177.267 124.497 176.984 126.288 176.357C137.178 172.716 141.086 156.535 160.137 146.461C160.137 146.461 154.804 142.74 147.761 142.74C143.182 142.74 137.869 144.277 132.822 149.435C117.067 165.353 102.392 166.243 102.392 166.243C105.017 172.129 112.772 177.267 120.772 177.267Z" fill="white"/>
<path d="M563.455 242.111C563.782 242.13 564.067 242.13 564.412 242.13C584.38 242.13 591.158 220.873 591.158 220.873H590.771C587.107 220.873 557.41 220.023 536.425 193.506C522.604 176.071 511.288 160.739 488.918 154.712L486.72 154.327L486.231 152.103C485.621 148.704 487.961 145.529 493.274 142.091C524.131 122.006 503.187 96.3987 503.187 96.3987C503.187 96.3987 494.374 116.888 474.649 116.888C474.182 116.888 473.673 116.868 473.184 116.868C470.945 116.747 468.787 116.666 466.61 116.201L462.966 115.493C462.966 115.493 468.585 100.303 455.028 86.3459C444.81 75.8084 432.374 74.0281 425.189 74.0281C421.566 74.0281 419.266 74.494 419.266 74.494C426.084 83.353 431.01 98.0376 423.133 107.098C416.335 114.886 399.726 115.27 399.726 126.88C399.726 131.795 404.346 137.54 412.651 142.697C437.625 158.332 462.417 179.065 472.716 206.855C485.601 241.524 471.088 264.521 450.367 277.709C450.367 277.709 456.861 283.655 466.284 284.404C468.198 284.586 470.07 284.667 471.821 284.667C491.707 284.667 501.986 275.403 501.986 275.403C501.986 275.403 500.296 288.206 489.936 300.1C480.39 311.082 467.852 317.535 448.739 317.818C448.739 317.818 448.128 326.637 456.595 334.262C462.01 339.076 474.528 340.654 474.528 340.654C474.528 340.654 451.1 345.366 448.515 379.752C447.11 398.38 442.327 404.852 442.327 404.852H442.754C497.121 404.852 495.716 358.514 495.716 358.514C495.716 358.514 499.502 372.227 514.667 375.807C516.498 376.293 518.452 376.475 520.325 376.475C525.21 376.475 529.444 375.342 529.444 375.342C529.444 375.342 521.505 358.696 529.382 335.415C535.916 316.099 534.857 301.778 534.857 301.778C534.857 301.778 542.186 312.781 560.342 312.883H560.525C575.648 312.883 582.242 301.495 582.242 301.495C545.992 286.548 549.574 238.288 549.574 238.288C549.574 238.288 554.276 241.767 563.455 242.111ZM552.545 292.514C537.809 285.294 528.487 266.119 526.227 259.202C523.786 297.227 505.1 323.623 483.26 349.028C471.923 362.195 467.973 374.998 467.973 374.998C467.973 374.998 470.152 360.496 479.962 348.683C500.338 324.351 519.693 294.072 521.139 259.06C522.136 234.626 515.806 214.805 505.934 198.482C511.45 215.492 510.677 236.326 491.931 255.763C491.931 255.763 529.24 211.326 477.073 165.776C456.189 148.441 433.351 137.742 421.587 130.156C464.086 143.931 484.827 128.761 484.827 128.761C471.251 140.452 453.685 140.25 442.796 138.571C445.747 140.008 448.82 141.504 452.138 143.264C487.961 162.6 520.162 194.416 525.657 238.49V238.146C534.003 281.41 552.545 292.514 552.545 292.514Z" fill="white"/>
<path d="M210.084 340.654C210.084 340.654 222.601 339.096 228.016 334.262C236.462 326.637 235.873 317.818 235.873 317.818C216.739 317.556 204.222 311.082 194.614 300.12C184.336 288.227 182.626 275.423 182.626 275.423C182.626 275.423 192.904 284.687 212.77 284.687C214.562 284.687 216.414 284.606 218.327 284.424C227.751 283.676 234.264 277.729 234.264 277.729C213.544 264.542 199.011 241.524 211.875 206.855C222.195 179.085 246.966 158.332 271.94 142.697C280.245 137.54 284.865 131.815 284.865 126.88C284.865 115.27 268.277 114.886 261.479 107.098C253.601 98.0376 258.547 83.3322 265.345 74.494C265.345 74.494 263.086 74.0281 259.442 74.0281C252.278 74.0281 239.841 75.8084 229.624 86.3459C216.027 100.303 221.665 115.493 221.665 115.493L218.022 116.201C215.844 116.666 213.666 116.747 211.447 116.868C210.939 116.868 210.49 116.888 210.002 116.888C190.238 116.888 181.465 96.4195 181.465 96.4195C181.465 96.4195 160.52 122.025 191.358 142.11C196.67 145.549 198.99 148.725 198.38 152.123L197.891 154.348L195.652 154.732C173.324 160.759 161.987 176.092 148.166 193.527C127.221 220.003 97.565 220.873 93.8608 220.873H93.4531C93.4531 220.873 100.231 242.13 120.199 242.13C120.524 242.13 120.809 242.13 121.155 242.111C130.336 241.786 135.058 238.288 135.058 238.288C135.058 238.288 138.599 286.528 102.389 301.495C102.389 301.495 108.984 312.883 124.107 312.883H124.29C142.466 312.781 149.774 301.778 149.774 301.778C149.774 301.778 148.715 316.099 155.228 335.415C163.106 358.696 155.209 375.342 155.209 375.342C155.209 375.342 159.442 376.475 164.307 376.475C166.199 376.475 168.134 376.293 169.945 375.807C185.088 372.227 188.895 358.514 188.895 358.514C188.895 358.514 187.51 404.852 241.877 404.852H242.264C242.264 404.852 237.501 398.38 236.117 379.752C233.511 345.366 210.084 340.654 210.084 340.654ZM201.352 349.028C179.511 323.623 160.847 297.227 158.383 259.202C156.125 266.098 146.842 285.294 132.107 292.514C132.107 292.514 150.629 281.41 158.953 238.146V238.49C164.47 194.437 196.65 162.6 232.494 143.264C235.771 141.483 238.884 139.987 241.816 138.571C230.926 140.25 213.361 140.452 199.785 128.761C199.785 128.761 220.526 143.931 263.004 130.156C251.24 137.742 228.423 148.441 207.539 165.776C155.351 211.326 192.681 255.763 192.681 255.763C173.914 236.305 173.161 215.492 178.677 198.482C168.785 214.824 162.474 234.626 163.493 259.06C164.917 294.072 184.274 324.351 204.609 348.683C214.439 360.476 216.658 374.998 216.658 374.998C216.658 374.998 212.668 362.195 201.352 349.028Z" fill="white"/>
<path d="M302.107 171.237C303.002 172.187 303.877 173.219 304.712 174.251C304.916 174.494 305.099 174.716 305.301 174.999C306.075 176.031 306.87 177.123 307.622 178.236C307.785 178.458 307.948 178.721 308.131 178.984C309.047 180.359 309.902 181.775 310.757 183.231C318.594 196.683 331.152 204.712 342.286 204.733C353.44 204.712 365.958 196.683 373.835 183.231C374.71 181.735 375.585 180.279 376.501 178.923C376.644 178.721 376.786 178.539 376.908 178.336C377.682 177.184 378.496 176.051 379.351 174.959C379.534 174.716 379.697 174.514 379.859 174.312C380.735 173.24 381.63 172.187 382.546 171.217C382.71 171.055 382.831 170.914 382.974 170.792C386.963 166.727 391.727 163.632 397.955 161.913L395.187 160.315H395.023L383.992 153.943L372.655 147.491L342.367 163.874L342.286 163.814L342.225 163.874L311.917 147.491L300.6 153.923L289.548 160.295H289.426L286.616 161.892C292.865 163.612 297.608 166.666 301.618 170.732C301.801 170.894 301.923 171.076 302.107 171.237ZM330.033 169.922H342.856H355.658V178.66C352.646 174.999 346.784 175.748 346.784 175.748V188.349C346.784 188.349 347.008 194.538 349.186 197.229H342.856H336.505C338.723 194.558 338.927 188.349 338.927 188.349V175.748C338.927 175.748 333.086 174.999 330.033 178.66V169.922Z" fill="white"/>
<path d="M339.68 152.972V101.82L306.909 90.7756L315.56 140.352L339.68 152.972ZM332.637 114.381V122.592L331.05 121.864C330.968 121.804 328.647 121.277 324.577 118.082C317.859 112.904 317.738 108.131 317.738 108.131L332.637 114.381Z" fill="white"/>
<path d="M369.073 140.352L377.684 90.7756L344.934 101.82V152.972L369.073 140.352ZM351.976 114.381L366.875 108.151C366.875 108.151 366.753 112.924 360.016 118.102C355.965 121.298 353.624 121.823 353.543 121.885L351.955 122.613V114.381H351.976Z" fill="white"/>
<path d="M293.333 271.561C296.528 272.714 300.396 272.958 302.371 272.958C302.452 272.714 302.554 272.411 302.656 272.047C302.839 271.46 303.001 270.894 303.124 270.247C303.673 267.415 303.877 264.199 303.917 262.136C302.574 261.306 300.681 259.83 299.622 257.625C298.401 255.077 296.671 253.904 294.126 253.904C290.83 253.904 287.288 255.866 285.782 256.796C284.581 263.855 289.812 270.267 293.333 271.561Z" fill="white"/>
<path d="M365.819 244.415C359.733 250.988 347.826 262.437 347.235 263.023L346.523 263.751L308.888 263.164C308.867 266.867 308.257 270.022 307.666 272.327C307.565 272.712 307.463 273.117 307.361 273.521L352.14 281.511C356.802 278.273 369.625 268.969 374.591 265.329C370.968 260.07 370.623 253.841 371.437 249.451C369.075 247.934 367.264 246.236 365.819 244.415Z" fill="white"/>
<path d="M370.92 199.435C362.249 207.992 353.924 211.147 346.495 211.875C345.152 212.016 343.788 212.097 342.404 212.097H342.302H342.22C340.836 212.097 339.452 212.016 338.109 211.875C336.806 211.754 335.443 211.551 334.078 211.248C333.59 213.17 332.979 217.195 334.731 220.997C336.298 224.456 339.493 227.024 344.154 228.724L345.721 229.331L345.742 231.009C345.742 231.515 346.108 242.396 358.056 245.41C360.01 243.408 361.781 241.608 363.084 240.112C360.641 234.408 361.923 228.582 365.465 225.731C365.302 226.337 363.756 240.617 375.276 245.916L377.168 246.807L376.599 248.808C376.416 249.416 372.569 263.23 386.511 268.367L388.975 269.298L387.875 271.685C387.631 272.211 382.156 284.751 395.039 291.87H422.986V269.824C413.054 268.611 408.84 260.681 407.762 255.058C403.14 254.27 399.559 252.288 397.116 249.051C391.254 241.386 396.302 234.367 396.363 233.982C396.342 234.044 396.363 241.527 401.003 246.139C403.304 248.363 406.031 250.082 410.163 250.467L412.198 250.649L412.382 252.712C412.423 253.157 413.542 263.271 423.007 264.868L422.986 219.845C422.986 212.866 425.042 205.847 427.505 199.375H370.92V199.435Z" fill="white"/>
<path d="M295.716 220.061L294.963 248.742L298.24 249.228L306.259 221.72L302.188 213.265L295.716 220.061Z" fill="white"/>
<path d="M384.132 351.598C384.377 351.598 384.662 351.638 384.927 351.699C389.913 353.115 391.176 370.994 399.928 372.593C400.782 372.775 401.576 372.815 402.268 372.815C404.792 372.815 406.298 371.743 407.927 369.842C407.927 369.842 403.53 362.965 400.233 358.333C395.856 352.265 392.458 344.923 384.315 344.923C384.132 344.923 383.888 344.923 383.685 344.943C380.998 345.085 379.35 346.38 379.35 346.38C376.052 344.316 372.978 343.608 370.19 343.608C365.081 343.608 361.112 345.934 359.138 345.934H359.056L340.859 344.154C338.01 343.891 335.771 341.04 334.957 339.927C334.753 339.623 334.651 339.441 334.651 339.441C334.651 338.956 334.651 338.45 334.611 338.005C334 323.22 322.48 316.889 318.388 316.788C318.388 316.788 318.877 313.977 317.758 312.905L313.748 317.738L300.578 311.165L309.961 322.067L302.003 330.946C301.006 331.958 301.128 333.333 301.535 333.899L304.975 336.913L309.33 334.283C309.555 334.122 309.942 334.081 310.429 334.081C311.63 334.081 313.442 334.385 315.07 334.385C316.841 334.385 318.388 334 318.572 332.342C318.022 337.823 312.913 347.35 316.272 354.834L318.755 360.477L302.675 358.171L295.144 370.812C292.824 375.02 292.456 379.571 294.695 382.038L297.505 385.538C297.505 385.538 301.454 381.371 302.349 378.641L301.067 377.245C299.988 376.071 300.049 375.02 300.701 373.746L305.422 365.958L324.413 370.408L325.41 368.71C326.693 366.585 328.545 365.938 330.581 365.938C331.415 365.938 332.27 366.039 333.165 366.181C336.687 366.869 342.488 367.799 348.289 367.799C354.66 367.799 360.969 366.666 364.328 362.925C371.207 373.058 385.15 374.676 384.051 379.814L380.388 397.168C382.81 397.067 385.15 396.905 387.369 396.601L390.849 378.539C391.236 376.578 391.603 373.928 391.603 373.928C390.26 372.573 387.003 369.701 385.17 366.221C382.708 361.529 384.051 359.081 381.751 352.973C381.833 353.013 382.525 351.598 384.132 351.598ZM313.096 326.233C312.16 326.213 311.488 325.424 311.529 324.494C311.611 323.604 312.364 322.896 313.28 322.977C314.216 323.018 314.887 323.827 314.847 324.717C314.765 325.606 313.992 326.295 313.096 326.233Z" fill="white"/>
<path d="M287.169 368.019C287.169 368.019 293.459 365.45 294.029 363.609L293.195 361.526C292.604 360.171 292.686 358.695 293.826 357.885L300.624 353.213L311.982 355.377C311.982 355.377 309.926 352.829 310.13 349.41L299.301 347.125L289.083 353.314C284.707 356.571 284.381 361.89 285.826 365.045L287.169 368.019Z" fill="white"/>
<path d="M367.446 397.428C369.481 397.348 371.72 397.307 374.184 397.307C374.184 397.307 380.025 380.337 380.351 379.791C377.074 378.355 370.276 374.775 367.65 373.137C369.381 375.705 373.593 378.659 372.759 380.924L367.446 397.428Z" fill="white"/>
<path d="M423.052 296.784H261.581V357.14C261.581 381.816 279.554 397.269 306.076 397.269C328.242 397.269 334.083 398.119 342.327 406.25C348.005 400.627 352.708 398.524 362.355 397.734L362.58 396.805L367.668 381.169C367.383 380.825 359.059 371.42 359.059 371.42C355.761 372.512 352.993 372.694 348.332 372.694C343.548 372.694 338.154 372.148 332.313 371.056C331.722 370.915 331.173 370.874 330.623 370.874C329.911 370.874 329.849 370.935 329.666 371.279L328.648 372.937L326.796 375.971L323.316 375.182L307.826 371.562L305.71 375.04L306.035 375.404L307.928 377.467L307.094 380.158C305.954 383.678 302.249 387.783 301.13 388.916L297.263 393.042L293.741 388.612L291.095 385.316C288.307 382.221 287.655 377.467 289.223 372.492C289.181 372.533 289.121 372.553 289.06 372.553L284.684 374.353L282.709 370.106L281.325 367.091C278.943 361.793 279.819 354.045 286.23 349.373L298.708 342.374L310.575 344.701C310.86 343.568 311.287 339.523 311.632 338.491C311.409 338.472 311.185 338.41 310.961 338.41L304.122 340.938L297.527 336.408C297.527 336.408 294.943 333.941 297.282 331.473L303.674 321.865L287.493 301.679L312.365 311.833L314.014 309.79L317.373 305.806L321.179 309.406C322.258 310.437 322.868 311.711 323.173 312.985C330.032 315.635 342.307 323.463 343.385 336.186L339.538 337.723V337.824C340.414 338.855 341.146 339.281 341.371 339.32L359.119 341.06C359.567 340.979 360.137 340.777 360.768 340.595C362.967 339.846 366.284 338.774 370.213 338.774C373.408 338.774 376.502 339.503 379.473 340.878C380.572 340.473 381.916 340.17 383.463 340.069L384.318 340.049C393.823 340.049 398.545 347.108 402.332 352.731C402.963 353.701 403.593 354.632 404.245 355.542C407.562 360.194 411.898 367.011 412.081 367.294L414.035 370.327L411.634 373.099C409.782 375.222 407.013 377.711 402.25 377.711C401.273 377.711 400.195 377.609 399.034 377.387C398.016 377.204 397.101 376.902 396.204 376.538C396.062 377.467 395.879 378.58 395.696 379.531L392.581 395.671C411.206 391.12 423.032 377.144 423.032 357.16L423.052 296.784Z" fill="#FFDD2D"/>
<path d="M261.583 291.93H387.149C380.879 285.499 380.961 277.348 382.569 272.048C380.737 271.178 379.231 270.127 377.888 268.994C372.982 272.594 358.001 283.435 354.093 286.146L353.259 286.712L303.981 277.853H302.983C301.803 277.853 300.073 277.813 298.18 277.59C297.651 279.795 295.737 281.312 293.539 281.312C293.295 281.312 293.01 281.292 292.745 281.231C291.463 281.008 290.343 280.361 289.59 279.289C288.817 278.238 288.512 276.984 288.736 275.689L288.919 274.637C283.83 271.077 279.149 263.128 281.225 254.754L281.428 253.864L282.14 253.359C282.242 253.278 283.097 252.712 284.36 251.983L280.777 251.437C279.434 251.195 278.538 249.96 278.742 248.646C278.966 247.311 280.228 246.36 281.551 246.623L290.079 247.959L290.853 218.104L303.553 204.754L311.471 221.32L303.106 250.042L310.637 251.215C311.96 251.417 312.876 252.651 312.672 254.006C312.469 255.2 311.451 256.028 310.25 256.028C310.128 256.028 309.985 256.028 309.864 256.009L303.736 255.018C303.818 255.2 303.94 255.3 304.021 255.503C304.673 256.837 306.118 257.809 306.974 258.213L344.547 258.8C346.135 257.263 350.083 253.419 354.134 249.354C344.893 245.875 341.535 237.946 340.964 232.687C335.795 230.503 332.233 227.226 330.258 222.958C327.856 217.679 328.712 212.4 329.342 209.831C324.335 208.011 319.064 204.694 313.69 199.395H257.105C259.527 205.867 261.583 212.885 261.583 219.864V291.93Z" fill="#FFDD2D"/>
<path d="M313.299 322.977C312.383 322.895 311.609 323.604 311.549 324.493C311.487 325.424 312.179 326.212 313.116 326.233C314.011 326.313 314.805 325.625 314.886 324.715C314.886 323.825 314.235 322.996 313.299 322.977Z" fill="black"/>
<path d="M422.824 432.419L413.522 428.88L416.086 419.333L418.916 408.916C418.916 408.916 402.429 417.796 379.205 424.47C372.609 426.352 367.623 427.201 367.623 427.201V434.28C367.623 434.28 355.206 436.424 342.648 436.424H342.506H342.323H342.078H341.936C329.377 436.424 316.961 434.28 316.961 434.28V427.201C316.961 427.201 311.954 426.352 305.38 424.47C282.155 417.796 265.688 408.916 265.688 408.916L268.477 419.333L271.103 428.88L261.78 432.419L251.44 436.263C263.307 441.946 279.733 450.239 294.775 454.324L291.234 463.953C291.234 463.953 310.305 472.589 342.078 472.67V472.69H342.18H342.323H342.445H342.527V472.67C374.34 472.589 393.391 463.953 393.391 463.953L389.829 454.324C404.872 450.239 421.338 441.946 433.144 436.263L422.824 432.419ZM262.473 436.91L277.779 431.853L273.261 417.189C279.998 420.992 295.121 426.696 303.873 429.345L296.484 449.51C282.97 445.809 271.714 441.501 262.473 436.91ZM342.323 467.613C324.554 467.613 304.26 463.548 298.296 461.445L307.374 437.031C314.905 439.215 330.578 441.542 341.956 441.461H341.977H342.323H342.628H342.669C354.047 441.542 369.679 439.215 377.251 437.031L386.308 461.445C380.344 463.568 360.071 467.613 342.323 467.613ZM388.12 449.51L380.752 429.345C389.525 426.696 404.607 420.992 411.364 417.189L406.866 431.853L422.152 436.91C412.891 441.501 401.696 445.809 388.12 449.51Z" fill="black"/>
<path d="M342.302 51.356C361.232 51.356 376.376 57.5861 384.741 64.2406C384.741 64.2406 387.224 49.3739 395.712 36.2471L380.467 37.9661L372.488 21.1174L357.161 28.9656L342.302 14.3621L327.484 28.9656L312.137 21.1174L304.179 37.9661L288.934 36.2471C297.421 49.3739 299.905 64.2406 299.905 64.2406C308.291 57.5861 323.393 51.356 342.302 51.356ZM303.487 43.8728L307.721 44.3179L309.552 40.4941L314.886 29.1673L324.777 34.2442L328.604 36.1868L331.658 33.1929L342.323 22.6751L353.009 33.1929L356.062 36.1868L359.888 34.2442L369.719 29.1673L375.114 40.4941L376.905 44.3179L381.139 43.8728L385.168 43.3871C383.316 47.5333 381.953 51.4569 380.976 54.7139C370.31 48.8072 356.428 45.4503 342.282 45.4503C328.197 45.4503 314.336 48.8072 303.63 54.7139C302.632 51.4569 301.289 47.5135 299.437 43.3871L303.487 43.8728Z" fill="black"/>
<path d="M564.391 248.622C588.878 248.622 597.06 223.865 597.406 222.813L600.134 214.096L590.953 214.379H590.913C587.676 214.379 560.667 213.671 541.512 189.48L539.701 187.235C527.183 171.418 515.317 156.39 494.108 149.533C494.718 148.987 495.594 148.299 496.795 147.53C508.05 140.168 514.605 131.228 516.253 120.852C518.655 105.236 508.641 92.7969 508.193 92.2915L501.374 83.9181L497.121 93.8493C496.836 94.4764 489.671 110.375 474.608 110.375H473.489C472.451 110.313 471.474 110.273 470.497 110.193C471.026 103.093 469.723 92.1095 459.71 81.8144C447.68 69.4155 432.903 67.5551 425.168 67.5551C421.036 67.5551 418.288 68.0604 418.003 68.101L407.703 70.1236L414.054 78.4367C419.042 84.8488 423.56 96.681 418.207 102.871C416.497 104.832 412.976 106.43 409.597 108.028C402.656 111.203 393.191 115.613 393.191 126.858C393.191 134.14 398.87 141.746 409.17 148.218C439.66 167.272 458.468 187.154 466.589 209.1C479.148 242.858 462.762 262.113 446.845 272.247L439.701 276.817L445.949 282.521C446.784 283.25 454.437 289.945 465.734 290.916C467.871 291.057 469.927 291.179 471.84 291.179C479.086 291.179 485.254 290.046 490.261 288.529C488.877 290.936 487.187 293.383 485.05 295.851C475.952 306.328 464.757 311.101 448.656 311.345L442.673 311.446L442.205 317.413C442.143 318.605 441.695 329.67 452.239 339.075C453.847 340.531 455.801 341.725 457.837 342.716C450.692 349.107 443.426 360.232 442.022 379.305C440.84 395.223 437.015 401.109 436.973 401.171L430.358 411.203L442.307 411.364C462.049 411.364 477.173 405.944 487.655 395.223C493.843 388.873 497.385 381.713 499.481 375.361C502.921 378.274 507.359 380.823 513.139 382.178C515.338 382.683 517.739 382.967 520.324 382.967C525.901 382.967 530.562 381.793 531.091 381.672L538.724 379.649L535.346 372.57C535.101 372.004 528.731 357.805 535.59 337.538C538.541 328.78 540.047 320.932 540.78 314.823C545.584 317.312 552.016 319.374 560.34 319.395C579.229 319.395 587.555 305.378 587.941 304.791L591.666 298.359L584.766 295.528C562.254 286.243 557.267 261.304 556.27 247.793C558.305 248.177 560.625 248.541 563.251 248.622H564.391ZM582.242 301.495C582.242 301.495 575.647 312.882 560.524 312.882H560.34C542.184 312.781 534.857 301.777 534.857 301.777C534.857 301.777 535.916 316.098 529.361 335.414C521.485 358.694 529.422 375.341 529.422 375.341C529.422 375.341 525.189 376.474 520.303 376.474C518.432 376.474 516.478 376.292 514.645 375.806C499.481 372.227 495.696 358.512 495.696 358.512C495.696 358.512 497.1 404.852 442.734 404.852H442.307C442.307 404.852 447.089 398.379 448.514 379.75C451.099 345.366 474.527 340.653 474.527 340.653C474.527 340.653 462.03 339.095 456.615 334.261C448.148 326.636 448.738 317.817 448.738 317.817C467.871 317.554 480.389 311.082 489.935 300.098C500.276 288.205 501.985 275.402 501.985 275.402C501.985 275.402 491.706 284.666 471.819 284.666C470.069 284.666 468.196 284.585 466.284 284.403C456.88 283.655 450.367 277.708 450.367 277.708C471.067 264.52 485.599 241.503 472.716 206.834C462.396 179.063 437.604 158.311 412.65 142.675C404.346 137.519 399.725 131.794 399.725 126.858C399.725 115.249 416.334 114.885 423.152 107.077C431.01 98.0163 426.084 83.3108 419.265 74.4726C419.265 74.4726 421.565 74.0067 425.189 74.0067C432.373 74.0067 444.81 75.8068 455.028 86.3245C468.604 100.281 462.966 115.471 462.966 115.471L466.609 116.179C468.787 116.644 470.945 116.725 473.184 116.826C473.673 116.826 474.16 116.847 474.649 116.847C494.372 116.847 503.185 96.3576 503.185 96.3576C503.185 96.3576 524.151 121.984 493.294 142.048C487.981 145.487 485.641 148.663 486.251 152.061L486.739 154.286L488.937 154.67C511.307 160.697 522.625 176.03 536.445 193.465C557.43 219.982 587.127 220.831 590.791 220.831H591.178C591.178 220.831 584.4 242.089 564.432 242.089C564.106 242.089 563.821 242.089 563.475 242.069C554.295 241.745 549.594 238.246 549.594 238.246C549.594 238.246 545.99 286.526 582.242 301.495Z" fill="black"/>
<path d="M521.382 152.205C530.521 157.04 535.834 163.512 540.495 169.256C545.075 174.859 549.431 180.259 556.229 182.504C558.651 183.334 561.216 183.718 563.821 183.718C574.04 183.718 584.297 177.508 588.186 168.912L592.094 160.296L582.628 159.729C582.181 159.709 570.009 158.617 556.453 144.843C550.875 139.2 544.139 136.226 536.872 136.226C527.997 136.226 521.423 140.636 520.691 141.08L511.979 147.169L521.382 152.205ZM536.893 142.739C541.452 142.739 546.765 144.277 551.792 149.434C567.566 165.353 582.241 166.242 582.241 166.242C579.575 172.108 571.841 177.266 563.841 177.266C561.989 177.266 560.137 176.982 558.285 176.355C547.436 172.714 543.548 156.533 524.476 146.461C524.476 146.461 529.809 142.739 536.893 142.739Z" fill="black"/>
<path d="M525.658 238.148V238.471C520.163 194.418 487.962 162.602 452.139 143.245C448.82 141.485 445.767 139.989 442.796 138.553C453.706 140.231 471.271 140.434 484.827 128.743C484.827 128.743 464.086 143.913 421.587 130.139C433.351 137.723 456.209 148.424 477.073 165.757C529.24 211.308 491.91 255.745 491.91 255.745C510.657 236.307 511.43 215.474 505.914 198.464C515.786 214.786 522.096 234.608 521.118 259.042C519.674 294.054 500.317 324.333 479.942 348.665C470.152 360.477 467.954 374.98 467.954 374.98C467.954 374.98 471.902 362.176 483.239 349.009C505.08 323.605 523.744 297.209 526.187 259.183C528.447 266.081 537.749 285.276 552.505 292.497C552.546 292.517 534.003 281.412 525.658 238.148Z" fill="black"/>
<path d="M247.636 401.15C247.615 401.089 243.83 395.203 242.609 379.285C241.183 360.211 233.937 349.087 226.773 342.696C228.849 341.725 230.762 340.532 232.37 339.055C242.894 329.649 242.446 318.585 242.385 317.393L241.978 311.426L235.953 311.325C219.893 311.062 208.678 306.288 199.579 295.831C197.463 293.363 195.753 290.915 194.368 288.509C199.376 290.026 205.503 291.159 212.769 291.159C214.723 291.159 216.738 291.037 218.875 290.896C230.172 289.924 237.826 283.25 238.68 282.501L244.929 276.797L237.785 272.227C221.807 262.073 205.482 242.817 218.02 209.079C226.142 187.134 244.929 167.252 275.46 148.198C285.759 141.726 291.398 134.12 291.398 126.838C291.398 115.593 281.953 111.164 275.013 108.008C271.634 106.41 268.113 104.812 266.402 102.851C261.029 96.6809 265.568 84.829 270.535 78.4168L276.926 70.1038L266.586 68.0811C266.281 68.0405 263.574 67.5352 259.421 67.5352C251.687 67.5352 236.95 69.3956 224.9 81.7945C214.866 92.1105 213.542 103.093 214.052 110.173C213.074 110.253 212.098 110.293 211.08 110.355H209.981C194.878 110.355 187.734 94.4565 187.449 93.8294L183.195 83.8982L176.314 92.2716C175.928 92.777 165.873 105.237 168.315 120.832C169.944 131.208 176.498 140.148 187.754 147.51C188.975 148.278 189.83 148.967 190.441 149.513C169.251 156.37 157.406 171.418 144.887 187.235L143.076 189.48C123.943 213.671 96.8722 214.379 93.636 214.379L84.415 214.096L87.2239 222.813C87.5493 223.865 95.7116 248.622 120.218 248.622L121.399 248.581C123.984 248.501 126.304 248.157 128.381 247.753C127.363 261.243 122.376 286.183 99.8432 295.487L92.9642 298.319L96.6892 304.75C97.0552 305.337 105.401 319.354 124.33 319.354C132.593 319.334 139.025 317.271 143.849 314.784C144.582 320.892 146.088 328.739 149.04 337.497C155.899 357.764 149.509 371.963 149.264 372.53L145.886 379.609L153.538 381.631C154.047 381.753 158.749 382.926 164.306 382.926C166.911 382.926 169.313 382.643 171.471 382.137C177.271 380.782 181.749 378.234 185.149 375.321C187.224 381.672 190.787 388.832 196.954 395.184C207.457 405.903 222.56 411.324 242.303 411.324L254.272 411.162L247.636 401.15ZM241.855 404.852C187.489 404.852 188.874 358.513 188.874 358.513C188.874 358.513 185.087 372.226 169.923 375.807C168.112 376.291 166.178 376.473 164.286 376.473C159.4 376.473 155.187 375.341 155.187 375.341C155.187 375.341 163.085 358.695 155.207 335.414C148.694 316.098 149.752 301.777 149.752 301.777C149.752 301.777 142.445 312.781 124.269 312.881H124.086C108.962 312.881 102.367 301.494 102.367 301.494C138.598 286.547 135.036 238.286 135.036 238.286C135.036 238.286 130.335 241.766 121.134 242.109C120.809 242.13 120.503 242.13 120.178 242.13C100.19 242.13 93.4322 220.872 93.4322 220.872H93.8388C97.5232 220.872 127.18 220.022 148.165 193.505C161.985 176.07 173.323 160.758 195.652 154.711L197.891 154.327L198.378 152.102C198.99 148.704 196.669 145.528 191.357 142.09C160.499 122.005 181.464 96.398 181.464 96.398C181.464 96.398 190.237 116.867 210.002 116.867C210.489 116.867 210.937 116.847 211.446 116.847C213.665 116.725 215.864 116.645 218.02 116.179L221.664 115.471C221.664 115.471 216.026 100.281 229.623 86.3254C239.841 75.7869 252.277 74.0076 259.441 74.0076C263.085 74.0076 265.345 74.4724 265.345 74.4724C258.546 83.3315 253.621 98.0161 261.477 107.078C268.275 114.865 284.864 115.249 284.864 126.859C284.864 131.774 280.244 137.518 271.939 142.676C246.964 158.312 222.173 179.064 211.873 206.834C199.01 241.503 213.523 264.5 234.264 277.708C234.264 277.708 227.75 283.655 218.326 284.403C216.413 284.585 214.561 284.665 212.769 284.665C192.903 284.665 182.625 275.402 182.625 275.402C182.625 275.402 184.334 288.205 194.613 300.099C204.221 311.081 216.738 317.554 235.872 317.817C235.872 317.817 236.482 326.635 228.015 334.261C222.58 339.075 210.083 340.652 210.083 340.652C210.083 340.652 233.531 345.365 236.095 379.75C237.5 398.379 242.242 404.852 242.242 404.852H241.855Z" fill="black"/>
<path d="M120.768 183.739C123.393 183.739 125.958 183.355 128.381 182.525C135.219 180.28 139.555 174.879 144.135 169.277C148.816 163.533 154.088 157.06 163.227 152.226L172.63 147.209L163.899 141.122C163.166 140.657 156.612 136.267 147.758 136.267C140.471 136.267 133.714 139.221 128.156 144.884C114.601 158.638 102.45 159.751 102.001 159.771L92.5371 160.316L96.4243 168.953C100.332 177.509 110.57 183.739 120.768 183.739ZM132.818 149.455C137.866 144.298 143.178 142.76 147.758 142.76C154.8 142.76 160.134 146.481 160.134 146.481C141.081 156.575 137.173 172.735 126.284 176.377C124.493 177.003 122.62 177.287 120.768 177.287C112.769 177.287 105.034 172.149 102.388 166.263C102.388 166.243 117.043 165.353 132.818 149.455Z" fill="black"/>
<path d="M163.489 259.062C162.47 234.628 168.781 214.806 178.672 198.484C173.157 215.494 173.91 236.327 192.677 255.765C192.677 255.765 155.347 211.328 207.535 165.777C228.419 148.444 251.256 137.743 263 130.159C220.522 143.933 199.781 128.763 199.781 128.763C213.336 140.454 230.902 140.251 241.812 138.552C238.861 139.988 235.767 141.486 232.489 143.245C196.625 162.602 164.445 194.419 158.93 238.471V238.127C150.604 281.392 132.082 292.496 132.082 292.496C146.819 285.275 156.1 266.101 158.36 259.183C160.822 297.209 179.487 323.604 201.327 349.009C212.664 362.177 216.654 374.979 216.654 374.979C216.654 374.979 214.435 360.478 204.604 348.665C184.27 324.373 164.913 294.074 163.489 259.062Z" fill="black"/>
<path d="M330.032 169.924V178.662C333.066 175 338.928 175.749 338.928 175.749V188.35C338.928 188.35 338.724 194.539 336.506 197.23H342.855H349.186C347.008 194.559 346.784 188.35 346.784 188.35V175.749C346.784 175.749 352.646 175 355.659 178.662V169.924H342.855H330.032Z" fill="black"/>
<path d="M324.574 118.103C328.624 121.299 330.965 121.825 331.046 121.885L332.634 122.613V114.381L317.734 108.151C317.734 108.172 317.877 112.925 324.574 118.103Z" fill="black"/>
<path d="M360.019 118.103C366.757 112.925 366.878 108.151 366.878 108.151L351.979 114.381V122.613L353.547 121.885C353.649 121.825 355.969 121.299 360.019 118.103Z" fill="black"/>
<path d="M386.857 84.5878C386.857 72.1088 365.708 60.8829 342.362 60.8829H342.342H342.281H342.219C318.873 60.8829 297.726 72.1088 297.726 84.5878L298.194 87.6629L307.515 140.838L298.153 146.238L273.931 160.296H274.012C274.012 160.296 268.558 163.067 266.034 164.786C256.813 171.158 254.859 180.441 260.213 184.285C261.536 176.719 267.56 168.791 278.837 168.791C286.958 168.791 293.146 172.958 298.153 179.208C299.435 180.785 300.656 182.464 301.796 184.285C303.201 186.57 304.605 188.572 306.01 190.514H243.624C248.204 199.676 252.559 209.385 252.559 219.924V357.139C252.559 390.351 278.267 406.209 306.071 406.209C327.565 406.209 330.455 405.239 342.321 416.97C354.126 405.218 357.017 406.209 378.531 406.209C406.356 406.209 432.022 390.351 432.022 357.139V219.924C432.022 209.385 436.379 199.676 440.978 190.514H378.573C379.957 188.593 381.361 186.57 382.766 184.285C383.925 182.464 385.126 180.785 386.389 179.208C391.437 172.937 397.603 168.791 405.725 168.791C417.001 168.791 423.005 176.699 424.349 184.285C429.702 180.441 427.769 171.158 418.487 164.786C416.004 163.067 410.549 160.296 410.549 160.296H410.63L386.409 146.238L377.087 140.838L386.409 87.6629L386.857 84.5878ZM306.905 90.7774L339.676 101.821V152.974L315.556 140.333L306.905 90.7774ZM313.683 199.434C319.056 204.753 324.329 208.051 329.336 209.871C328.684 212.439 327.829 217.739 330.251 223.018C332.226 227.265 335.808 230.542 340.958 232.727C341.528 237.986 344.866 245.894 354.126 249.394C350.076 253.459 346.127 257.281 344.52 258.839L306.966 258.253C306.112 257.827 304.666 256.877 304.015 255.522C303.933 255.34 303.811 255.239 303.75 255.036L309.877 256.027C310.02 256.048 310.141 256.048 310.264 256.048C311.444 256.048 312.482 255.239 312.686 254.026C312.89 252.67 311.974 251.436 310.651 251.234L303.12 250.061L311.485 221.36L303.567 204.794L290.866 218.143L290.093 247.998L281.564 246.663C280.24 246.4 278.979 247.371 278.756 248.686C278.552 250 279.447 251.234 280.791 251.477L284.373 252.023C283.091 252.751 282.256 253.317 282.154 253.398L281.422 253.904L281.218 254.794C279.142 263.167 283.844 271.117 288.912 274.676L288.728 275.729C288.526 277.022 288.81 278.276 289.583 279.329C290.316 280.401 291.456 281.048 292.718 281.27C292.983 281.311 293.268 281.331 293.512 281.331C295.71 281.331 297.624 279.814 298.173 277.61C300.066 277.831 301.796 277.872 302.976 277.872H303.974L353.252 286.711L354.086 286.165C358.015 283.434 372.975 272.593 377.88 269.013C379.224 270.166 380.73 271.217 382.562 272.088C380.974 277.387 380.872 285.538 387.161 291.97H261.576V219.943C261.576 212.965 259.52 205.947 257.098 199.475H313.683V199.434ZM374.583 265.331C369.596 268.972 356.773 278.276 352.132 281.513L307.353 273.524C307.455 273.119 307.556 272.735 307.658 272.33C308.249 270.025 308.839 266.869 308.88 263.167L346.514 263.775L347.227 263.046C347.797 262.48 359.724 251.032 365.81 244.437C367.255 246.238 369.067 247.958 371.429 249.474C370.614 253.844 370.96 260.073 374.583 265.331ZM299.618 257.626C300.677 259.83 302.59 261.307 303.913 262.136C303.873 264.199 303.669 267.415 303.12 270.247C302.997 270.874 302.834 271.461 302.651 272.047C302.549 272.411 302.448 272.715 302.366 272.957C300.392 272.957 296.504 272.715 293.329 271.562C289.808 270.267 284.556 263.855 285.777 256.796C287.304 255.866 290.825 253.904 294.122 253.904C296.667 253.884 298.397 255.077 299.618 257.626ZM294.957 248.746L295.71 220.085L302.183 213.269L306.254 221.724L298.234 249.231L294.957 248.746ZM374.176 397.33C371.733 397.33 369.475 397.371 367.438 397.451L372.771 380.967C373.606 378.681 369.392 375.748 367.663 373.179C370.288 374.818 377.087 378.397 380.364 379.834C380.017 380.36 374.176 397.33 374.176 397.33ZM390.907 378.6L387.427 396.642C385.207 396.945 382.847 397.108 380.425 397.208L384.089 379.854C385.188 374.696 371.245 373.098 364.365 362.965C361.007 366.727 354.677 367.839 348.326 367.839C342.525 367.839 336.725 366.909 333.202 366.221C332.307 366.08 331.452 365.979 330.618 365.979C328.582 365.979 326.73 366.606 325.448 368.75L324.43 370.448L305.44 365.998L300.717 373.766C300.046 375.02 300.005 376.092 301.084 377.265L302.366 378.66C301.491 381.411 297.543 385.558 297.543 385.558L294.713 382.059C292.474 379.57 292.84 375.041 295.181 370.833L302.712 358.192L318.792 360.497L316.288 354.834C312.93 347.35 318.039 337.823 318.588 332.342C318.405 334 316.879 334.365 315.087 334.365C313.46 334.365 311.648 334.062 310.447 334.062C309.979 334.062 309.571 334.102 309.348 334.263L304.992 336.893L301.551 333.88C301.145 333.293 301.002 331.937 302.02 330.926L309.979 322.067L300.575 311.165L313.744 317.739L317.754 312.904C318.853 313.977 318.385 316.788 318.385 316.788C322.496 316.889 334.017 323.22 334.628 337.985C334.669 338.43 334.669 338.936 334.669 339.421C334.669 339.421 334.771 339.603 334.973 339.907C335.788 341.02 338.027 343.871 340.876 344.134L359.073 345.915H359.154C361.149 345.915 365.118 343.588 370.207 343.588C372.975 343.588 376.069 344.296 379.366 346.359C379.366 346.359 381.015 345.065 383.702 344.922C383.906 344.903 384.129 344.903 384.333 344.903C392.495 344.903 395.874 352.225 400.25 358.312C403.547 362.944 407.943 369.822 407.943 369.822C406.316 371.743 404.809 372.795 402.285 372.795C401.593 372.795 400.799 372.734 399.944 372.573C391.192 370.974 389.93 353.094 384.943 351.679C384.679 351.598 384.394 351.578 384.15 351.578C382.541 351.578 381.829 352.993 381.829 352.993C384.108 359.082 382.786 361.549 385.228 366.242C387.061 369.72 390.317 372.593 391.66 373.948C391.66 373.988 391.294 376.618 390.907 378.6ZM293.186 361.529L294.02 363.612C293.471 365.433 287.161 368.021 287.161 368.021L285.798 365.069C284.352 361.914 284.658 356.593 289.055 353.337L299.272 347.148L310.101 349.434C309.897 352.852 311.953 355.401 311.953 355.401L300.595 353.236L293.797 357.908C292.657 358.697 292.576 360.174 293.186 361.529ZM392.617 395.651L395.731 379.51C395.894 378.56 396.097 377.447 396.24 376.517C397.116 376.881 398.051 377.184 399.07 377.366C400.229 377.588 401.308 377.69 402.285 377.69C407.048 377.69 409.816 375.202 411.668 373.078L414.07 370.307L412.116 367.273C411.933 366.97 407.618 360.174 404.28 355.521C403.629 354.611 402.997 353.701 402.366 352.71C398.581 347.088 393.838 340.029 384.333 340.029L383.478 340.048C381.911 340.149 380.567 340.453 379.488 340.857C376.496 339.462 373.423 338.754 370.228 338.754C366.299 338.754 362.981 339.826 360.783 340.575C360.152 340.757 359.582 340.958 359.134 341.039L341.365 339.3C341.141 339.259 340.408 338.835 339.533 337.783V337.702L343.38 336.165C342.302 323.442 330.007 315.615 323.147 312.965C322.843 311.691 322.232 310.417 321.153 309.385L317.326 305.785L313.968 309.79L312.32 311.832L287.446 301.679L303.628 321.864L297.237 331.472C294.896 333.94 297.481 336.408 297.481 336.408L304.075 340.918L310.915 338.39C311.159 338.39 311.363 338.45 311.587 338.471C311.261 339.502 310.834 343.548 310.549 344.68L298.682 342.354L286.204 349.353C279.793 354.025 278.918 361.771 281.299 367.071L282.683 370.084L284.658 374.332L289.013 372.532C289.075 372.511 289.136 372.492 289.176 372.451C287.609 377.427 288.241 382.16 291.049 385.274L293.695 388.592L297.216 393.022L301.084 388.895C302.223 387.763 305.908 383.656 307.047 380.137L307.883 377.447L305.989 375.384L305.684 375.02L307.8 371.541L323.29 375.161L326.77 375.95L328.623 372.916L329.641 371.257C329.824 370.914 329.885 370.853 330.597 370.853C331.147 370.853 331.697 370.914 332.287 371.036C338.128 372.128 343.522 372.674 348.306 372.674C352.946 372.674 355.714 372.492 359.033 371.4C359.033 371.4 367.357 380.784 367.642 381.149L362.554 396.763L362.329 397.714C352.682 398.482 347.98 400.586 342.302 406.23C334.057 398.099 328.216 397.249 306.05 397.249C279.528 397.249 261.555 381.796 261.555 357.12V296.784H423.005L423.047 357.12C423.067 377.143 411.241 391.1 392.617 395.651ZM427.525 199.434C425.061 205.907 423.005 212.925 423.005 219.903L423.026 264.927C413.562 263.349 412.442 253.216 412.401 252.771L412.218 250.708L410.183 250.526C406.071 250.141 403.344 248.403 401.043 246.177C396.403 241.565 396.382 234.082 396.403 234.022C396.342 234.405 391.294 241.424 397.156 249.09C399.619 252.326 403.18 254.308 407.801 255.098C408.88 260.72 413.093 268.649 423.026 269.862V291.91H395.1C382.216 284.789 387.671 272.249 387.935 271.724L389.034 269.336L386.572 268.407C372.629 263.268 376.456 249.434 376.659 248.848L377.229 246.825L375.337 245.935C363.815 240.636 365.383 226.336 365.525 225.748C361.984 228.601 360.702 234.426 363.144 240.13C361.821 241.627 360.05 243.446 358.117 245.429C346.189 242.415 345.823 231.513 345.823 231.008L345.802 229.329L344.235 228.722C339.574 227.002 336.378 224.434 334.811 220.975C333.04 217.152 333.671 213.147 334.159 211.226C335.523 211.529 336.887 211.752 338.19 211.853C339.533 211.994 340.917 212.075 342.302 212.075H342.383H342.485C343.869 212.075 345.232 211.994 346.576 211.853C354.005 211.125 362.329 207.949 371 199.413H427.525V199.434ZM384.007 153.924L395.039 160.296H395.202L397.97 161.894C391.741 163.613 386.978 166.708 382.989 170.773C382.847 170.895 382.704 171.056 382.562 171.198C381.646 172.169 380.73 173.221 379.875 174.292C379.713 174.495 379.549 174.717 379.366 174.94C378.511 176.032 377.718 177.145 376.944 178.318C376.822 178.52 376.679 178.722 376.537 178.904C375.622 180.259 374.746 181.716 373.87 183.212C366.014 196.663 353.475 204.693 342.321 204.713C331.188 204.693 318.65 196.663 310.793 183.212C309.937 181.757 309.083 180.34 308.167 178.964C307.983 178.702 307.821 178.439 307.658 178.217C306.885 177.104 306.112 176.012 305.317 174.98C305.114 174.697 304.931 174.475 304.727 174.232C303.873 173.2 302.997 172.169 302.121 171.218C301.938 171.077 301.817 170.895 301.634 170.732C297.624 166.667 292.881 163.592 286.632 161.894L289.441 160.296H289.563L300.595 153.924L311.933 147.473L342.219 163.855L342.281 163.795L342.362 163.855L372.649 147.473L384.007 153.924ZM369.067 140.352L344.926 152.993V101.821L377.676 90.7774L369.067 140.352ZM342.302 96.1985L306.396 82.1003C309.45 74.9197 323.534 68.8113 342.302 68.7915C361.088 68.8113 375.173 74.9197 378.206 82.1003L342.302 96.1985Z" fill="black"/>
<path d="M64.5861 677.28V613.962H101.96V590.922H0V613.962H37.3725V677.28H64.5861ZM140.064 590.922H112.851V677.28H140.064V590.922ZM159.979 590.922V677.28H185.015V629.565L231.64 677.28H254.863V590.922H229.826V638.273L184.289 590.922H159.979ZM308.349 644.623L339.734 677.28H374.749L331.026 632.287L373.117 590.922H340.097L308.349 623.396H301.091V590.922H274.785V677.28H301.091V644.623H308.349ZM428.878 588.563C393.501 588.563 372.274 608.519 372.274 634.282C372.274 660.044 393.501 680 428.878 680C464.074 680 485.301 660.044 485.301 634.282C485.301 608.519 464.074 588.563 428.878 588.563ZM428.878 658.955C411.281 658.955 400.032 648.433 400.032 634.282C400.032 620.131 411.281 609.79 428.878 609.79C446.295 609.79 457.724 620.131 457.724 634.282C457.724 648.433 446.295 658.955 428.878 658.955ZM585.065 590.922H497.801V677.28H524.107V647.163H581.255V628.113H524.107V612.873H585.065V590.922ZM684.104 590.922H596.839V677.28H623.146V647.163H680.294V628.113H623.146V612.873H684.104V590.922Z" fill="black"/>
</svg>
