<?xml version="1.0" encoding="utf-8"?>
<svg version="1.1" width="500" height="500" viewBox="0 0 1080 1080" xmlns="http://www.w3.org/2000/svg">
  <g transform="matrix(1 0 0 1 540 540)" />
  <g transform="matrix(1 0 0 1 540 540)" >
    <rect style="stroke: none; stroke-width: 1; stroke-dasharray: none; stroke-linecap: butt; stroke-dashoffset: 0; stroke-linejoin: miter; stroke-miterlimit: 4; fill: transparent; fill-rule: nonzero; opacity: 1; visibility: hidden;" x="-540" y="-540" rx="0" ry="0" width="1080" height="1080"/>
  </g>
  <g transform="matrix(1, 0, 0, 1, 90.664246, 95.328629)">
    <path style="stroke: none; stroke-width: 0; stroke-dasharray: none; stroke-linecap: butt; stroke-dashoffset: 0; stroke-linejoin: miter; stroke-miterlimit: 4; fill: rgb(255, 221, 45); fill-rule: nonzero; opacity: 1;" d="M -65.939 -65.939 L 933.522 -65.939 L 933.522 455.484 C 933.522 589.154 864.78 712.674 753.191 779.516 L 433.792 970.836 L 114.393 779.516 C 2.803 712.674 -65.939 589.154 -65.939 455.484 L -65.939 -65.939 Z" stroke-linecap="round"/>
  </g>
  <g transform="matrix(10.617054, 0, 0, 10.877397, 515.074463, 479.32782)" style="">
    <path style="stroke: none; stroke-width: 0; stroke-dasharray: none; stroke-linecap: butt; stroke-dashoffset: 0; stroke-linejoin: miter; stroke-miterlimit: 4; fill: rgb(51,51,51); fill-rule: evenodd; opacity: 1;" transform=" translate(-145.07, -119.21)" d="M 115.3266532 92.0611474 L 115.3266532 112.69074699999999 C 118.1476704 109.50515669999999 123.27675389999999 107.34914919999999 129.1412133 107.34914919999999 L 135.5142344 107.34914919999999 L 135.5142344 131.33083919999999 C 135.5142344 137.71108099999998 133.78070699999998 143.2956332 131.20859059999998 146.36739169999998 L 158.92988049999997 146.36739169999998 C 156.36314419999997 143.29251839999998 154.63358109999996 137.71504529999999 154.63358109999996 131.3430152 L 154.63358109999996 107.34914909999999 L 161.00688539999996 107.34914909999999 C 166.87134479999995 107.34914909999999 172.00028669999995 109.50515659999999 174.82144549999995 112.6907469 L 174.82144549999995 92.06114729999999 L 115.32665329999995 92.06114729999999 Z" stroke-linecap="round"/>
  </g>
</svg>