<svg width="64" height="64" viewBox="0 0 18 18" fill="none" xmlns="http://www.w3.org/2000/svg">
  <path d="M13.5184 4.25728C13.3795 4.25365 13.2405 4.26097 13.1027 4.27916C12.8418 3.86585 12.5169 3.49661 12.1401 3.18527C12.0142 3.08335 11.8827 2.9884 11.7463 2.90086C11.8338 2.7696 12.3589 2.00388 12.7527 1.7851C12.8775 1.72417 12.9729 1.61619 13.018 1.4849C13.0632 1.3536 13.0543 1.20976 12.9934 1.08501C12.9632 1.02324 12.9212 0.968018 12.8696 0.922494C12.8181 0.876971 12.7582 0.842038 12.6932 0.819691C12.5619 0.77456 12.418 0.783432 12.2933 0.844357C11.6151 1.1944 10.8493 2.31016 10.8493 2.31016C10.8324 2.34939 10.8104 2.38618 10.7837 2.41955C10.2927 2.24224 9.77425 2.15335 9.25227 2.15702C8.82339 2.15857 8.39664 2.21743 7.98336 2.33204C7.98336 2.31016 7.23952 1.21628 6.51755 0.888112C6.3928 0.827188 6.24896 0.818316 6.11767 0.863447C5.98638 0.908579 5.87839 1.00402 5.81746 1.12877C5.75654 1.25352 5.74767 1.39736 5.7928 1.52865C5.83793 1.65994 5.93337 1.76793 6.05812 1.82885C6.38629 1.982 6.78009 2.48519 6.97698 2.7696C6.78009 2.90086 6.58319 3.03213 6.38629 3.18527C5.99714 3.49002 5.664 3.86017 5.40179 4.27916C5.31428 4.27916 5.20489 4.25728 5.0955 4.25728H5.05174C4.50361 4.25787 3.96129 4.36956 3.45753 4.58559C2.95376 4.80162 2.49901 5.11751 2.12073 5.51419C1.74246 5.91087 1.4485 6.3801 1.25663 6.89355C1.06476 7.407 0.97894 7.95402 1.00437 8.50156C1.03018 9.0607 1.1722 9.60834 1.42136 10.1096C1.67053 10.6108 2.02138 11.0546 2.45155 11.4127C2.88172 11.7709 3.38178 12.0355 3.91986 12.1896C4.45795 12.3438 5.02225 12.3842 5.57681 12.3083C6.08556 13.4376 6.85842 14.4281 7.83021 15.1961C7.92913 15.3705 8.03872 15.5385 8.15838 15.6993C8.48775 16.2382 8.86876 16.7438 9.29602 17.2089C9.70977 16.7327 10.0899 16.2283 10.4337 15.6993C10.5649 15.5243 10.6524 15.3493 10.74 15.218C11.7231 14.438 12.5036 13.4323 13.0152 12.2864C13.0152 12.2645 13.0152 12.2645 13.0371 12.2427C13.2036 12.269 13.3718 12.2837 13.5403 12.2864C14.6099 12.2797 15.6345 11.8548 16.3949 11.1026C17.1553 10.3503 17.5913 9.33039 17.6096 8.2609C17.5779 7.19399 17.134 6.18085 16.3711 5.4343C15.6083 4.68774 14.5858 4.26587 13.5184 4.25728ZM7.17388 4.12602C7.76769 3.64409 8.50938 3.38141 9.27414 3.38217C10.0383 3.3851 10.7788 3.64736 11.3744 4.12602C11.5633 4.27115 11.7325 4.44031 11.8776 4.6292C10.74 5.15427 9.84297 6.11689 9.29602 6.88261C8.7272 6.11689 7.83022 5.13239 6.6707 4.60732C6.82384 4.45418 6.97698 4.30104 7.17388 4.12602ZM10.2586 14.0366H8.26777C7.64418 13.4566 7.1325 12.767 6.75821 12.002C7.43091 11.6685 8.03268 11.2078 8.5303 10.6456L8.85847 10.3174L7.96148 9.09226L7.45829 9.61732C6.64882 10.4706 5.83934 10.9081 5.07362 10.9081C4.40055 10.9081 3.75505 10.6407 3.27912 10.1648C2.80318 9.68887 2.53581 9.04336 2.53581 8.37029C2.53581 7.69722 2.80318 7.05172 3.27912 6.57579C3.75505 6.09985 4.40055 5.83248 5.07362 5.83248C5.65897 5.85088 6.22436 6.04953 6.69257 6.4013C7.41452 6.97049 8.01677 7.67683 8.46467 8.47968L8.59593 8.69846C8.66157 8.78597 9.84297 11.0394 11.7901 11.9801C11.4084 12.7527 10.8895 13.4496 10.2586 14.0366ZM13.4747 10.8644C13.1026 10.8551 12.7369 10.7656 12.4027 10.6018C11.8933 10.3144 11.435 9.94483 11.0462 9.50794C10.7117 9.1346 10.4115 8.73188 10.1493 8.30466C10.6524 7.49518 11.9213 5.76684 13.4965 5.78872C13.8298 5.79016 14.1595 5.85722 14.4669 5.98609C14.7742 6.11495 15.0532 6.30309 15.2878 6.53977C15.5225 6.77644 15.7082 7.05701 15.8344 7.36546C15.9606 7.67392 16.0249 8.00421 16.0234 8.33748C16.022 8.67075 15.9549 9.00047 15.8261 9.30783C15.6972 9.61518 15.5091 9.89414 15.2724 10.1288C15.0357 10.3634 14.7551 10.5492 14.4467 10.6754C14.1382 10.8016 13.8079 10.8658 13.4747 10.8644Z" fill="#2A64FB" stroke="#2A64FB" stroke-width="0.3"/>
</svg>
