<svg width="20" height="21" xmlns="http://www.w3.org/2000/svg">
 <defs>
  <clipPath id="a">
   <rect width="80" height="34.758" fill="#a8afbf" id="svg_1"/>
  </clipPath>
  <clipPath id="b">
   <path d="m5.84713,0.91094l-5.3,5.272l9.485,0l-9.3,9.292l4.17,4.136l9.291,-9.292l0,9.466l5.3,-5.269l0,-13.605l-13.646,0z" fill="#a8afbf" id="svg_2"/>
  </clipPath>
 </defs>
 <g>
  <title>Layer 1</title>
  <g clip-path="url(#b)" id="svg_12">
   <path d="m0.54813,19.18594l17.1,-16.455l-7.986,18.748l-9.114,-2.293z" fill="#FAD375" id="svg_13"/>
   <path d="m2.80618,17.59566l-2.244,-2.3l8.96,-9.055l8.333,-3.658l-15.049,15.013z" fill="#EEAD53" id="svg_14"/>
   <path d="m-0.31285,6.67494l1.307,-1.254l16.662,-2.688l-7.621,3.448l-10.348,0.494z" fill="#D8898C" id="svg_15"/>
   <path d="m14.19314,10.31694l3.461,-7.583l-2.924,17.046l-0.385,0.372l-0.605,-0.372l0.453,-9.463z" fill="#96B6D6" id="svg_16"/>
   <path d="m17.65113,2.73194l-17.1,3.448l5.125,-5.588l11.975,2.14z" fill="#B33E58" id="svg_17"/>
   <path d="m5.84712,0.90794l2.137,-0.737l11.813,0.56l-2.056,2.015l-11.894,-1.838z" fill="#8C2B49" id="svg_18"/>
   <path d="m14.19313,19.77894l3.461,-17.047l2.642,12.533l-6.103,4.514z" fill="#498CBE" id="svg_19"/>
   <path d="m19.49014,14.50994l-1.839,-11.778l1.839,-1.822l0.936,11.988l-0.936,1.612z" fill="#1E679B" id="svg_20"/>
  </g>
 </g>
</svg>