<svg xmlns="http://www.w3.org/2000/svg" width="180" height="180" style="shape-rendering:geometricPrecision;text-rendering:geometricPrecision;image-rendering:optimizeQuality;fill-rule:evenodd;clip-rule:evenodd"><path style="opacity:.932" fill="#34a769" d="M166.5 4.5c1.431.38 2.264 1.38 2.5 3 8.179 27.027 9.513 54.36 4 82a63.391 63.391 0 0 1-4 12 4.933 4.933 0 0 1-2.5 1 82.084 82.084 0 0 0-16-3.5 128.117 128.117 0 0 1 12 15c-8.5 15.167-20.333 27-35.5 35.5a103.253 103.253 0 0 1-16-18 127.532 127.532 0 0 0 4.5 23c-2.848 2.593-6.181 4.426-10 5.5-25.384 8.843-51.384 13.009-78 12.5 14.202-5.691 26.702-14.024 37.5-25 7.915-9.827 13.748-20.827 17.5-33 22.805-4.317 38.972-16.983 48.5-38a98.442 98.442 0 0 0 4.5-26c18.291-9.9 28.624-25.234 31-46Z"/><path style="opacity:.931" fill="#34a769" d="M1.5 6.5c17.957-1.51 34.623 2.324 50 11.5a348.458 348.458 0 0 0 37 25c13.038 5.843 26.704 9.01 41 9.5-.411 31.415-16.077 50.081-47 56-1.036-14.904-7.036-27.404-18-37.5A210.613 210.613 0 0 0 44 57.5C42.482 37.982 32.982 23.815 15.5 15a51.527 51.527 0 0 0-14-5.5v-3Z"/><path style="opacity:.837" fill="#34a769" d="M76.5 16.5c8.521 1.014 15.355 5.014 20.5 12-.29 4.42-2.124 8.254-5.5 11.5-7.829-2.335-14.996-6.168-21.5-11.5 1.333-4.325 3.5-8.325 6.5-12Z"/><path style="opacity:.922" fill="#34a769" d="M-.5 174.5v-45a58069.989 58069.989 0 0 0 45-66c.865-1.083 1.865-1.25 3-.5 6.938 3.943 12.938 8.943 18 15a3266.392 3266.392 0 0 1-66 96.5Z"/></svg>