<svg width="57px" height="84px" viewBox="0 -2 57 84" version="1.1" xmlns="http://www.w3.org/2000/svg">
  <title>TradeZero</title>
  <path fill="#7A9D96" d="M47.9769 1.4822L28.7129 20.8896C28.3467 21.26 28.127 21.7785 28.127 22.297V34.4452C28.127 34.8155 28.5664 35.0378 28.8594 34.7415L54.8621 8.44516C55.741 7.55627 56.327 6.29701 56.327 4.96368C56.327 0.519233 51.0532 -1.62892 47.9769 1.4822Z" />
  <path fill="#A8C208" d="M47.9769 24.3709L28.7129 43.7783C28.3467 44.1486 28.127 44.6672 28.127 45.1857V57.3338C28.127 57.7042 28.5664 57.9264 28.8594 57.6301L54.8621 31.3338C55.741 30.4449 56.327 29.1116 56.327 27.8523C56.327 23.4079 51.0532 21.2598 47.9769 24.3709Z" />
  <path fill="#023737" d="M25.4167 78.8159L1.17195 54.2974C0.439481 53.5566 0 52.5937 0 51.4826V15.4826C0 13.3344 1.75793 11.5566 3.88208 11.5566H23.2193C23.732 11.5566 24.0982 11.927 24.0982 12.4455V20.5937C24.0982 21.0381 23.732 21.4826 23.2193 21.4826H10.6208C10.1813 21.4826 9.74183 21.8529 9.74183 22.3715V48.6677C9.74183 48.89 9.81508 49.1122 10.0348 49.2603L27.5408 66.9641C27.9071 67.3344 28.4198 67.3344 28.786 66.9641L47.9767 47.5566C51.0531 44.4455 56.3269 46.6678 56.3269 51.1122C56.3269 52.4455 55.8141 53.7048 54.8619 54.5937L30.9102 78.8159C29.372 80.3715 26.8816 80.3715 25.4167 78.8159Z" />
</svg>
