<?xml version="1.0" encoding="UTF-8" standalone="no" ?>
<!DOCTYPE svg PUBLIC "-//W3C//DTD SVG 1.1//EN" "http://www.w3.org/Graphics/SVG/1.1/DTD/svg11.dtd">
<svg xmlns="http://www.w3.org/2000/svg" xmlns:xlink="http://www.w3.org/1999/xlink" version="1.1" width="1000" height="1000" viewBox="500 500 1000 1000" xml:space="preserve">
<g transform="matrix(1 0 0 1 540 540)" id="d89bd8d7-a94b-4a05-bdfa-2923a78df13a"  >
<rect style="stroke: none; stroke-width: 1; stroke-dasharray: none; stroke-linecap: butt; stroke-dashoffset: 0; stroke-linejoin: miter; stroke-miterlimit: 4; fill: rgb(255,255,255); fill-rule: nonzero; opacity: 1; visibility: hidden;" vector-effect="non-scaling-stroke"  x="-540" y="-540" rx="0" ry="0" width="1080" height="1080" />
</g>
<g transform="matrix(1 0 0 1 540 540)">
</g>
<g transform="matrix(1 0 0 1 526.6 526.55)"  >
<polygon style="stroke: none; stroke-width: 1; stroke-dasharray: none; stroke-linecap: butt; stroke-dashoffset: 0; stroke-linejoin: miter; stroke-miterlimit: 4; fill: rgb(145,213,228); fill-rule: nonzero; opacity: 1;" vector-effect="non-scaling-stroke"  points="18.85,-13.45 13.45,-18.85 -18.85,13.45 -13.45,18.85 " />
</g>
<g transform="matrix(1 0 0 1 535.35 560.8)"  >
<polygon style="stroke: none; stroke-width: 1; stroke-dasharray: none; stroke-linecap: butt; stroke-dashoffset: 0; stroke-linejoin: miter; stroke-miterlimit: 4; fill: rgb(0,73,100); fill-rule: nonzero; opacity: 1;" vector-effect="non-scaling-stroke"  points="-11.5,-4.7 4.7,11.5 11.5,4.7 -4.7,-11.5 " />
</g>
<g transform="matrix(1 0 0 1 552.7 535.35)"  >
<polygon style="stroke: none; stroke-width: 1; stroke-dasharray: none; stroke-linecap: butt; stroke-dashoffset: 0; stroke-linejoin: miter; stroke-miterlimit: 4; fill: rgb(0,149,214); fill-rule: nonzero; opacity: 1;" vector-effect="non-scaling-stroke"  points="4.65,19.55 19.55,4.65 -4.65,-19.55 -19.55,-4.65 " />
</g>
<g transform="matrix(1 0 0 1 535.3 548.05)"  >
<polygon style="stroke: none; stroke-width: 1; stroke-dasharray: none; stroke-linecap: butt; stroke-dashoffset: 0; stroke-linejoin: miter; stroke-miterlimit: 4; fill: rgb(56,146,154); fill-rule: nonzero; opacity: 1;" vector-effect="non-scaling-stroke"  points="-4.65,-14.85 -19.55,0.05 -14.15,5.45 -4.75,-3.95 14.05,14.85 19.55,9.45 " />
</g>
</svg>