<svg xmlns="http://www.w3.org/2000/svg" viewBox="0 0 192 192">
<path d="M0 0 C1.313 0.006 2.626 0.013 3.979 0.02 C31.394 0.532 53.142 12.621 72.465 31.547 C88.905 48.866 96.997 72.559 96.875 96.125 C96.865 98.095 96.865 98.095 96.855 100.104 C96.343 127.519 84.254 149.267 65.328 168.59 C48.009 185.03 24.316 193.122 0.75 193 C-0.563 192.994 -1.876 192.987 -3.229 192.98 C-30.644 192.468 -52.392 180.379 -71.715 161.453 C-88.155 144.134 -96.247 120.441 -96.125 96.875 C-96.119 95.562 -96.112 94.249 -96.105 92.896 C-95.593 65.481 -83.504 43.733 -64.578 24.41 C-47.259 7.97 -23.566 -0.122 0 0 Z" fill="#000000" transform="translate(95.625,-0.5)"/>
<path d="M0 0 C29.04 0 58.08 0 88 0 C88 6.6 88 13.2 88 20 C83.38 20 78.76 20 74 20 C74 17.69 74 15.38 74 13 C53.87 13 33.74 13 13 13 C13 15.31 13 17.62 13 20 C8.71 20 4.42 20 0 20 C0 13.4 0 6.8 0 0 Z" fill="#F4F4F4" transform="translate(52,52)"/>
<path d="M0 0 C4.29 0 8.58 0 13 0 C13 1.98 13 3.96 13 6 C33.13 6 53.26 6 74 6 C74 4.02 74 2.04 74 0 C78.29 0 82.58 0 87 0 C87 6.27 87 12.54 87 19 C58.29 19 29.58 19 0 19 C0 12.73 0 6.46 0 0 Z" fill="#F7F7F7" transform="translate(52,120)"/>
</svg>
