<svg xmlns="http://www.w3.org/2000/svg" viewBox="0 0 248 248">
<path d="M0 0 C10.454 8.94 18.067 21.386 19.34 35.298 C19.798 45.626 20.103 55.54 15.117 64.863 C14.62 65.843 14.122 66.823 13.609 67.832 C4.933 83.813 -8.355 93.823 -23.47 103.204 C-49.849 118.958 -49.849 118.958 -63.883 144.863 C-36.823 144.863 -9.763 144.863 18.117 144.863 C18.117 156.743 18.117 168.623 18.117 180.863 C-25.773 180.863 -69.663 180.863 -114.883 180.863 C-114.883 150.53 -110.102 122.332 -88.527 99.489 C-79.291 90.355 -67.864 83.908 -56.702 77.455 C-50.086 73.625 -43.886 69.611 -37.883 64.863 C-37.287 64.43 -36.692 63.997 -36.078 63.551 C-31.114 59.797 -27.836 54.722 -25.883 48.863 C-24.958 37.704 -24.958 37.704 -28.504 27.379 C-33.134 22.29 -39.444 21.143 -46.074 20.766 C-52.019 20.972 -57.515 22.539 -62.32 26.113 C-68.395 32.633 -68.38 38.846 -69.883 47.863 C-84.403 47.863 -98.923 47.863 -113.883 47.863 C-113.883 30.001 -109.266 16.421 -96.668 3.367 C-71.511 -19.249 -26.93 -19.961 0 0 Z" fill="#2368EF" transform="translate(228.8828125,40.13671875)"/>
<path d="M0 0 C12.87 0 25.74 0 39 0 C39 62.7 39 125.4 39 190 C24.15 190 9.3 190 -6 190 C-6 148.75 -6 107.5 -6 65 C-18.87 65 -31.74 65 -45 65 C-45 54.44 -45 43.88 -45 33 C-41.782 32.752 -38.565 32.505 -35.25 32.25 C-24.581 31.297 -13.651 30.24 -6 22 C-1.993 14.672 -1.993 14.672 0 0 Z" fill="#2368EF" transform="translate(45,31)"/>
</svg>
