<svg xmlns="http://www.w3.org/2000/svg" width="96" height="96" fill="none" viewBox="0 0 96 96">
  <path fill="#FF007A" d="M32.13 9.558c-1.183-.181-1.233-.202-.676-.287 1.067-.161 3.587.059 5.324.466 4.054.949 7.743 3.38 11.681 7.7l1.046 1.147 1.497-.237c6.305-.998 12.719-.205 18.083 2.236 1.476.672 3.803 2.009 4.094 2.352.093.11.263.815.378 1.567.398 2.601.199 4.596-.609 6.085-.44.81-.464 1.068-.169 1.762.236.553.894.963 1.546.962 1.333-.002 2.768-2.125 3.432-5.078l.265-1.174.523.584c2.87 3.203 5.124 7.57 5.51 10.68l.102.81-.483-.737c-.83-1.268-1.664-2.131-2.732-2.827-1.926-1.255-3.961-1.682-9.353-1.962-4.87-.253-7.626-.663-10.359-1.54-4.65-1.494-6.993-3.483-12.516-10.62-2.453-3.17-3.97-4.925-5.478-6.338-3.427-3.21-6.795-4.893-11.106-5.551Z"/>
  <path fill="#FF007A" d="M74.277 16.636c.123-2.124.415-3.525 1.003-4.805.233-.507.451-.921.485-.921.034 0-.068.374-.225.83-.428 1.243-.498 2.941-.203 4.918.374 2.507.586 2.87 3.277 5.578 1.262 1.27 2.73 2.873 3.262 3.56l.968 1.252-.968-.894c-1.183-1.093-3.905-3.226-4.506-3.53-.403-.205-.463-.201-.711.043-.23.224-.278.562-.31 2.157-.049 2.487-.393 4.083-1.224 5.679-.449.863-.52.679-.113-.295.303-.728.334-1.048.332-3.455-.005-4.837-.588-6-4.006-7.991a37.732 37.732 0 0 0-3.171-1.618c-.878-.385-1.576-.72-1.55-.745.096-.095 3.43.863 4.772 1.372 1.996.756 2.326.854 2.568.763.163-.061.241-.527.32-1.898ZM34.43 24.91c-2.403-3.257-3.89-8.253-3.568-11.987l.1-1.155.546.098c1.027.184 2.798.834 3.627 1.33 2.276 1.36 3.26 3.153 4.263 7.755.293 1.348.678 2.873.856 3.39.285.83 1.363 2.772 2.24 4.033.63.908.212 1.339-1.184 1.215-2.131-.19-5.018-2.152-6.88-4.678ZM71.363 49.16c-11.227-4.454-15.182-8.319-15.182-14.84 0-.96.034-1.745.075-1.745.04 0 .475.316.965.703 2.277 1.8 4.826 2.568 11.884 3.582 4.153.597 6.49 1.079 8.647 1.783 6.853 2.239 11.093 6.782 12.104 12.97.293 1.798.121 5.17-.355 6.947-.376 1.404-1.524 3.934-1.828 4.03-.085.027-.167-.291-.19-.725-.115-2.323-1.306-4.585-3.308-6.28-2.276-1.926-5.335-3.46-12.812-6.426ZM63.481 51.01c-.14-.825-.385-1.878-.542-2.34l-.287-.842.532.589c.737.814 1.319 1.856 1.812 3.243.376 1.06.419 1.374.416 3.095-.003 1.69-.05 2.044-.398 2.997-.548 1.503-1.228 2.57-2.37 3.713-2.05 2.056-4.687 3.195-8.492 3.667-.662.082-2.59.22-4.284.307-4.271.219-7.082.67-9.608 1.544-.363.126-.688.202-.72.17-.103-.1 1.617-1.11 3.038-1.784 2.002-.95 3.996-1.47 8.464-2.202 2.206-.362 4.485-.801 5.064-.976 5.465-1.65 8.274-5.91 7.375-11.182Z"/>
  <path fill="#FF007A" d="M68.628 60.013c-1.492-3.159-1.834-6.209-1.017-9.053.087-.304.228-.553.313-.553.084 0 .436.188.782.417.687.456 2.066 1.224 5.739 3.196 4.583 2.462 7.197 4.368 8.974 6.545 1.556 1.908 2.52 4.08 2.983 6.728.262 1.5.108 5.11-.282 6.621-1.233 4.764-4.097 8.506-8.182 10.69-.599.319-1.136.582-1.194.583-.058.001.16-.545.485-1.214 1.374-2.83 1.53-5.582.491-8.646-.636-1.876-1.933-4.165-4.552-8.033-3.044-4.498-3.791-5.695-4.54-7.281ZM26.456 77.056c4.166-3.465 9.35-5.927 14.073-6.682 2.035-.326 5.425-.197 7.31.278 3.02.762 5.723 2.467 7.128 4.5 1.373 1.986 1.963 3.716 2.576 7.567.242 1.519.505 3.044.585 3.39.46 1.995 1.357 3.59 2.468 4.392 1.765 1.272 4.803 1.351 7.792.203.508-.195.948-.33.98-.3.107.106-1.398 1.099-2.46 1.621-1.428.703-2.564.975-4.074.975-2.738 0-5.01-1.372-6.907-4.169-.373-.55-1.212-2.2-1.864-3.664-2.002-4.499-2.991-5.87-5.316-7.369-2.023-1.305-4.633-1.539-6.596-.59-2.578 1.245-3.298 4.49-1.451 6.547.734.818 2.103 1.523 3.222 1.66 2.094.257 3.893-1.312 3.893-3.395 0-1.352-.527-2.123-1.855-2.714-1.814-.806-3.764.136-3.755 1.815.004.716.32 1.165 1.049 1.49.467.208.478.225.097.147-1.664-.34-2.054-2.317-.716-3.629 1.607-1.575 4.93-.88 6.07 1.27.48.903.535 2.702.117 3.788-.935 2.431-3.662 3.71-6.429 3.014-1.883-.474-2.65-.987-4.92-3.29-3.947-4.005-5.479-4.78-11.168-5.655l-1.09-.168 1.24-1.032Z"/>
  <path fill="#FF007A" fill-rule="evenodd" d="M7.94 5.395C21.12 21.149 30.196 27.65 31.204 29.023c.833 1.134.52 2.153-.907 2.952-.793.444-2.424.894-3.241.894-.924 0-1.241-.35-1.241-.35-.536-.501-.837-.413-3.588-5.222-3.818-5.837-7.013-10.678-7.1-10.76-.202-.187-.199-.18 6.711 11.998 1.116 2.538.222 3.47.222 3.832 0 .735-.204 1.122-1.125 2.134-1.535 1.687-2.221 3.583-2.717 7.506-.555 4.398-2.117 7.505-6.445 12.822-2.534 3.112-2.948 3.683-3.588 4.937-.805 1.58-1.026 2.465-1.116 4.46-.095 2.109.09 3.472.744 5.488.573 1.766 1.17 2.931 2.699 5.263 1.319 2.012 2.078 3.507 2.078 4.092 0 .466.09.466 2.134.012 4.89-1.088 8.862-3.001 11.096-5.346 1.382-1.452 1.707-2.253 1.717-4.242.007-1.3-.04-1.573-.396-2.322-.581-1.218-1.64-2.23-3.971-3.8-3.055-2.058-4.36-3.714-4.72-5.992-.296-1.869.047-3.187 1.737-6.677 1.75-3.612 2.183-5.15 2.476-8.791.19-2.352.452-3.28 1.138-4.024.715-.777 1.36-1.04 3.13-1.278 2.887-.389 4.725-1.124 6.236-2.496 1.311-1.19 1.86-2.336 1.944-4.062l.064-1.308-.733-.841C31.788 24.855 6.164 3 6.001 3c-.035 0 .838 1.078 1.94 2.395Zm6.138 61.217a2.293 2.293 0 0 0-.722-3.048c-.948-.62-2.42-.328-2.42.48 0 .248.138.427.45.585.527.267.565.567.15 1.18-.418.62-.384 1.166.096 1.536.775.598 1.872.27 2.446-.733ZM36.995 37.295c-1.355.41-2.672 1.825-3.08 3.308-.249.906-.108 2.493.265 2.983.602.792 1.184 1.001 2.76.99 3.087-.021 5.77-1.325 6.082-2.955.256-1.336-.923-3.188-2.546-4-.837-.42-2.619-.586-3.48-.326Zm3.608 2.78c.476-.667.268-1.387-.541-1.874-1.542-.927-3.873-.16-3.873 1.275 0 .714 1.216 1.493 2.33 1.493.742 0 1.757-.436 2.084-.895Z" clip-rule="evenodd"/>
</svg>
