<svg xmlns="http://www.w3.org/2000/svg" viewBox="0 0 32 32">
<path d="M0 0 C10.56 0 21.12 0 32 0 C32 10.56 32 21.12 32 32 C21.44 32 10.88 32 0 32 C0 21.44 0 10.88 0 0 Z" fill="#FBFDFE" transform="translate(0,0)"/>
<path d="M0 0 C1.212 0.041 1.212 0.041 2.449 0.082 C3.064 0.117 3.679 0.152 4.312 0.188 C3.209 7.344 -0.279 13.886 -5.5 18.875 C-9.704 20.606 -13.212 21.127 -17.688 20.188 C-21.413 17.626 -22.461 15.949 -23.75 11.625 C-23.688 8.188 -23.688 8.188 -22.125 5.75 C-19.108 3.816 -17.207 3.868 -13.688 4.188 C-13.688 4.848 -13.688 5.508 -13.688 6.188 C-9.621 4.406 -9.621 4.406 -6.281 1.594 C-4.13 -0.305 -2.821 -0.123 0 0 Z" fill="#0B8FFE" transform="translate(25.6875,5.8125)"/>
<path d="M0 0 C-0.66 1.65 -1.32 3.3 -2 5 C-2.99 5 -3.98 5 -5 5 C-5 6.65 -5 8.3 -5 10 C-5.99 10.495 -5.99 10.495 -7 11 C-7.99 10.34 -8.98 9.68 -10 9 C-10.438 6.625 -10.438 6.625 -10 4 C-7.116 -0.104 -4.871 -0.443 0 0 Z" fill="#056AEC" transform="translate(12,10)"/>
<path d="M0 0 C0.33 0.66 0.66 1.32 1 2 C1.66 2 2.32 2 3 2 C2.688 4.375 2.688 4.375 2 7 C-1 9 -1 9 -4 9 C-4 7.02 -4 5.04 -4 3 C-3.01 2.67 -2.02 2.34 -1 2 C-0.67 1.34 -0.34 0.68 0 0 Z" fill="#E6F0FD" transform="translate(11,12)"/>
<path d="M0 0 C2.475 0.495 2.475 0.495 5 1 C5 2.65 5 4.3 5 6 C4.01 6.495 4.01 6.495 3 7 C2.01 6.34 1.02 5.68 0 5 C-0.188 2.375 -0.188 2.375 0 0 Z" fill="#115ADF" transform="translate(2,14)"/>
<path d="M0 0 C2.31 0.33 4.62 0.66 7 1 C6.34 2.32 5.68 3.64 5 5 C3.063 4.188 3.063 4.188 1 3 C0.67 2.01 0.34 1.02 0 0 Z" fill="#1A8BFA" transform="translate(3,20)"/>
<path d="M0 0 C1.98 0 3.96 0 6 0 C5.34 1.65 4.68 3.3 4 5 C3.897 4.361 3.794 3.721 3.688 3.062 C3.461 2.382 3.234 1.701 3 1 C2.01 0.67 1.02 0.34 0 0 Z" fill="#2D92FA" transform="translate(6,10)"/>
<path d="M0 0 C0 0.66 0 1.32 0 2 C-0.66 2 -1.32 2 -2 2 C-2.33 2.99 -2.66 3.98 -3 5 C-3 4.34 -3 3.68 -3 3 C-3.66 3 -4.32 3 -5 3 C-5 2.34 -5 1.68 -5 1 C-3 0 -3 0 0 0 Z" fill="#369EFE" transform="translate(17,11)"/>
<path d="M0 0 C0.66 0.33 1.32 0.66 2 1 C0.68 2.32 -0.64 3.64 -2 5 C-2 2 -2 2 0 0 Z" fill="#2A9FFE" transform="translate(23,18)"/>
<path d="M0 0 C0.66 0 1.32 0 2 0 C2 0.99 2 1.98 2 3 C1.01 2.67 0.02 2.34 -1 2 C-0.67 1.34 -0.34 0.68 0 0 Z" fill="#067CF4" transform="translate(7,11)"/>
</svg>
