<svg width="600" height="600" viewBox="0 0 600 600" fill="none" xmlns="http://www.w3.org/2000/svg">
<path d="M468.711 414.351C456.76 414.351 445.835 406.657 441.509 395.191L374.127 216.499C362.249 185.196 332.408 164.151 299.78 164.151C267.152 164.151 237.311 185.196 225.506 216.499L158.124 395.191C153.798 406.657 142.873 414.351 130.922 414.351H101.887V433.962H285.776C305.499 433.962 323.609 421.215 330.795 402.282L350.005 351.292C354.404 339.675 365.109 332.132 377.207 332.132C389.305 332.132 400.083 339.826 404.409 351.292L423.619 402.282C430.731 421.215 448.841 433.962 468.638 433.962H498.113V414.351H468.638H468.711ZM169.195 414.351C171.908 410.73 174.254 406.657 175.868 402.282L243.25 223.589C252.195 199.754 274.924 183.763 299.78 183.763C324.636 183.763 347.292 199.754 356.31 223.589L364.009 244.031C356.09 240.41 347.439 238.298 338.493 238.298C311.878 238.298 288.489 254.817 278.81 280.312L235.551 395.116C231.225 406.581 220.3 414.275 208.349 414.275H169.195V414.351ZM332.261 344.201L313.051 395.191C308.725 406.657 297.8 414.351 285.849 414.351H246.696C249.408 410.73 251.755 406.657 253.368 402.282L296.7 287.478C303.446 269.526 319.943 257.985 338.567 257.985C357.19 257.985 373.834 269.828 380.433 287.478L390.625 314.557C386.299 313.275 381.826 312.521 377.207 312.521C357.117 312.521 339.447 324.967 332.188 344.201H332.261Z" fill="#4C9AF8"/>
</svg>
