<svg xmlns="http://www.w3.org/2000/svg" viewBox="0 0 64 64">
<path d="M0 0 C1.65 0 3.3 0 5 0 C5.99 2.31 6.98 4.62 8 7 C9.32 4.69 10.64 2.38 12 0 C13.65 0 15.3 0 17 0 C16.213 2.106 15.42 4.21 14.625 6.312 C14.184 7.484 13.743 8.656 13.289 9.863 C12 13 12 13 10 16 C8.68 16 7.36 16 6 16 C4.993 13.899 3.995 11.794 3 9.688 C2.443 8.516 1.886 7.344 1.312 6.137 C0 3 0 3 0 0 Z" fill="#0C0C0C" transform="translate(24,24)"/>
<path d="M0 0 C5.467 1.748 10.758 3.658 16 6 C16 7.32 16 8.64 16 10 C13.899 11.007 11.794 12.005 9.688 13 C8.516 13.557 7.344 14.114 6.137 14.688 C3 16 3 16 0 16 C0.25 13.625 0.25 13.625 1 11 C3.563 9.206 4.831 9 8 9 C8 8.34 8 7.68 8 7 C6.855 6.814 6.855 6.814 5.688 6.625 C3 6 3 6 0 4 C0 2.68 0 1.36 0 0 Z" fill="#0C0C0C" transform="translate(47,24)"/>
<path d="M0 0 C0 1.65 0 3.3 0 5 C-3.465 6.485 -3.465 6.485 -7 8 C-3.535 9.485 -3.535 9.485 0 11 C0 12.65 0 14.3 0 16 C-5.233 14.36 -10.152 12.61 -15 10 C-15 8.68 -15 7.36 -15 6 C-12.877 4.995 -10.752 3.996 -8.625 3 C-7.442 2.443 -6.258 1.886 -5.039 1.312 C-2 0 -2 0 0 0 Z" fill="#0C0C0C" transform="translate(17,24)"/>
</svg>
