<svg width="38px" height="38px" viewBox="0 0 38 38" version="1.1" xmlns="http://www.w3.org/2000/svg">
  <title>Webull</title>
  <path transform="translate(0 8)" d="M35.4668166,0 C35.6052489,0 35.7263922,0.0737757176 35.7928238,0.184029547 C37.2036171,2.25640643 38,4.62285884 38,7.13483744 C38,15.34464 29.4934102,22 19,22 C8.50658975,22 0,15.34464 0,7.13483744 C0,4.62648829 0.794083255,2.26324509 2.19629896,0.190591474 C2.26773483,0.0772572838 2.39129097,0 2.53295201,0 C2.74282021,0 2.91295201,0.169563311 2.91295201,0.378730256 L2.90523176,0.455057613 L2.90523176,0.455057613 L2.90133521,0.466019208 C2.86732846,0.729427366 2.85,0.995727198 2.85,1.26451847 C2.85,6.75515077 9.5181071,10.6397335 19,10.6397335 C28.4818929,10.6397335 35.15,6.75515077 35.15,1.26451847 C35.15,0.995045852 35.1325836,0.72807732 35.0984059,0.464016159 C35.0901916,0.436864892 35.0868166,0.408190389 35.0868166,0.378730256 C35.0868166,0.169563311 35.2569484,0 35.4668166,0 Z" fill="#003EFC" />
</svg>
