<svg width="177" height="144" viewBox="0 0 177 144" fill="none" xmlns="http://www.w3.org/2000/svg">
  <path d="M145.493 31.8276L176.746 0.574191L138.367 0.581882C123.447 0.574189 112.747 8.25917 108.754 20.9098C107.816 23.8811 107.564 27.8005 107.808 31.8257H69.4428L100.694 0.572266L62.7771 0.57996C45.5244 0.583806 31.5391 14.571 31.5391 31.8238V31.8334H31.3083C14.0556 31.8372 0.0703125 45.8244 0.0703125 63.0772H31.5391V86.6283C31.5391 117.836 56.873 143.116 88.0803 143.052H145.496V31.8276M102.564 86.5033C95.6056 79.5453 95.6056 68.2659 102.564 61.3079L127.759 86.5033C120.801 93.4594 109.522 93.4594 102.564 86.5033Z" fill="#181834"/>
</svg>
