<svg width="298" height="298" viewBox="0 0 298 298" fill="none" xmlns="http://www.w3.org/2000/svg">
<rect x="0.5" y="0.5" width="297" height="297" fill="#20252F"/>
<rect x="0.5" y="0.5" width="297" height="297" stroke="#626469"/>
<path d="M198.904 204.231C198.904 202.089 198.437 200.046 197.624 198.2C195.828 194.212 188.049 173.658 188.049 173.658L170.818 131C168.554 125.412 163.138 121.769 157.132 121.769H144.874C138.843 121.769 133.428 125.412 131.188 131L113.957 173.658L88.6523 91H56.48L92.4184 208.538C94.3138 214.741 100.049 219 106.548 219H117.821C123.852 219 129.268 215.357 131.508 209.769L150.978 161.597L170.572 210.114C172.837 215.701 178.104 217.301 184.135 217.301C192.283 217.301 198.904 212.403 198.904 204.231Z" fill="white"/>
<path d="M170.597 210.114C172.936 215.455 178.277 219 184.16 219H195.434C201.932 219 207.668 214.766 209.563 208.538L229.699 142.692H197.526L188.049 173.658L177.046 209.695C176.111 212.723 171.926 212.92 170.597 210.114Z" fill="#00E26E"/>
<path d="M213.304 91L203.901 121.769H236.073L245.501 91H213.304Z" fill="#00E26E"/>
</svg>
