<svg xmlns="http://www.w3.org/2000/svg" viewBox="0 0 192 192">
<path d="M0 0 C63.36 0 126.72 0 192 0 C192 63.36 192 126.72 192 192 C128.64 192 65.28 192 0 192 C0 128.64 0 65.28 0 0 Z" fill="#FEFDFD" transform="translate(0,0)"/>
<path d="M0 0 C3.172 2.8 4.935 6.345 7 10 C8.227 11.936 9.483 13.851 10.742 15.767 C12.169 17.942 13.578 20.128 14.984 22.316 C18.099 27.159 21.235 31.987 24.375 36.812 C25.474 38.503 26.573 40.193 27.672 41.883 C28.781 43.589 29.891 45.294 31 47 C36.342 55.214 41.684 63.428 47.016 71.648 C47.495 72.387 47.974 73.126 48.468 73.887 C49.391 75.314 50.312 76.743 51.23 78.174 C53.21 81.259 55.206 84.321 57.309 87.324 C57.97 88.29 58.631 89.255 59.312 90.25 C59.886 91.06 60.46 91.869 61.051 92.703 C62 95 62 95 61.275 97.302 C59.901 100.209 58.317 102.79 56.543 105.473 C55.849 106.527 55.156 107.581 54.441 108.667 C53.69 109.799 52.939 110.931 52.188 112.062 C51.412 113.238 50.638 114.413 49.864 115.589 C48.306 117.955 46.747 120.319 45.186 122.683 C42.228 127.171 39.299 131.677 36.375 136.188 C31.718 143.361 27.049 150.526 22.375 157.688 C17.825 164.661 13.279 171.638 8.75 178.625 C8.308 179.305 7.867 179.985 7.412 180.686 C6.798 181.634 6.798 181.634 6.172 182.602 C5.789 183.184 5.406 183.766 5.011 184.366 C3.853 186.169 3.853 186.169 2.617 188.926 C1 191 1 191 -2.039 191.629 C-14.24 191.403 -20.837 188.838 -29.699 180.43 C-39 170.608 -40.301 161.366 -40.291 148.241 C-40.297 146.98 -40.304 145.719 -40.311 144.419 C-40.328 140.979 -40.333 137.539 -40.335 134.098 C-40.336 131.943 -40.34 129.788 -40.346 127.633 C-40.364 120.099 -40.372 112.566 -40.371 105.031 C-40.369 98.034 -40.39 91.037 -40.422 84.04 C-40.448 78.011 -40.459 71.982 -40.458 65.953 C-40.457 62.362 -40.463 58.77 -40.484 55.179 C-40.507 51.168 -40.498 47.158 -40.486 43.147 C-40.497 41.974 -40.508 40.802 -40.52 39.593 C-40.431 27.869 -37.158 18.542 -29 10 C-21.609 3.116 -10.307 -3.02 0 0 Z" fill="#E20613" transform="translate(45,1)"/>
<path d="M0 0 C6.529 -0.076 13.057 -0.129 19.586 -0.165 C21.804 -0.18 24.022 -0.2 26.24 -0.226 C29.44 -0.263 32.64 -0.28 35.84 -0.293 C36.821 -0.308 37.803 -0.324 38.814 -0.34 C47.017 -0.342 54.083 1.265 60.938 5.938 C61.668 6.421 62.399 6.904 63.152 7.402 C65.157 9.136 65.895 10.625 67 13 C66.319 14.009 65.639 15.019 64.938 16.059 C63.958 17.518 62.979 18.978 62 20.438 C61.213 21.61 61.213 21.61 60.41 22.806 C57.12 27.738 53.903 32.709 50.746 37.727 C50.388 38.293 50.03 38.86 49.662 39.445 C47.88 42.268 46.106 45.096 44.346 47.933 C43.368 49.484 43.368 49.484 42.371 51.066 C41.793 51.994 41.215 52.922 40.619 53.877 C39 56 39 56 36 57 C35.622 56.403 35.245 55.806 34.855 55.191 C29.293 46.425 23.647 37.713 18 29 C14.329 23.336 10.661 17.67 7 12 C6.617 11.408 6.235 10.816 5.84 10.206 C4.829 8.639 3.82 7.07 2.812 5.5 C2.262 4.644 1.712 3.788 1.145 2.906 C0 1 0 1 0 0 Z" fill="#E20814" transform="translate(120,1)"/>
<path d="M0 0 C0.66 0 1.32 0 2 0 C3.49 1.978 3.49 1.978 5.238 4.766 C6.213 6.306 6.213 6.306 7.207 7.877 C7.902 8.99 8.597 10.103 9.312 11.25 C10.028 12.385 10.744 13.519 11.461 14.652 C12.558 16.386 13.654 18.12 14.747 19.856 C18.279 25.459 21.881 31.015 25.5 36.562 C26.057 37.418 26.615 38.274 27.189 39.155 C28.458 41.104 29.729 43.052 31 45 C27.898 49.02 25.573 51.665 20.875 53.812 C20.027 54.211 19.179 54.609 18.305 55.02 C14.734 56.539 12.013 57.123 8.161 57.114 C6.69 57.113 6.69 57.113 5.189 57.113 C4.133 57.108 3.077 57.103 1.988 57.098 C0.363 57.096 0.363 57.096 -1.295 57.093 C-4.759 57.088 -8.223 57.075 -11.688 57.062 C-14.035 57.057 -16.382 57.053 -18.729 57.049 C-24.486 57.038 -30.243 57.021 -36 57 C-32.252 50.483 -28.496 44.018 -24.25 37.812 C-23.392 36.541 -22.536 35.269 -21.68 33.996 C-21.242 33.346 -20.805 32.696 -20.354 32.027 C-17.996 28.497 -15.683 24.938 -13.375 21.375 C-12.916 20.668 -12.458 19.962 -11.986 19.234 C-9.808 15.862 -7.666 12.475 -5.598 9.035 C-5.23 8.426 -4.863 7.816 -4.485 7.188 C-3.502 5.545 -2.53 3.896 -1.559 2.246 C-1.044 1.505 -0.53 0.764 0 0 Z" fill="#E20814" transform="translate(156,135)"/>
<path d="M0 0 C0.66 0 1.32 0 2 0 C2.33 0.99 2.66 1.98 3 3 C1.35 3.66 -0.3 4.32 -2 5 C-1.34 3.35 -0.68 1.7 0 0 Z" fill="#E52630" transform="translate(156,135)"/>
</svg>
