<svg xmlns="http://www.w3.org/2000/svg" viewBox="0 0 256 256">
<path d="M0 0 C5.964 3.331 10.479 8.19 15.266 13 C16.14 13.873 17.015 14.745 17.916 15.645 C19.757 17.485 21.596 19.327 23.433 21.172 C25.315 23.061 27.199 24.947 29.089 26.828 C31.82 29.547 34.544 32.272 37.266 35 C38.534 36.263 38.534 36.263 39.829 37.551 C40.61 38.338 41.391 39.126 42.196 39.938 C43.228 40.972 43.228 40.972 44.281 42.027 C47.188 45.364 47.988 47.276 48.062 51.75 C46.402 61.719 33.335 70.792 26.41 77.688 C25.097 78.999 23.784 80.31 22.472 81.622 C19.04 85.05 15.605 88.475 12.169 91.899 C8.655 95.404 5.143 98.911 1.631 102.418 C-5.243 109.281 -12.121 116.142 -19 123 C-17.355 127.239 -14.198 130.054 -11.021 133.174 C-10.41 133.782 -9.798 134.391 -9.168 135.018 C-7.842 136.337 -6.513 137.654 -5.182 138.968 C-3.077 141.048 -0.977 143.135 1.121 145.223 C5.575 149.654 10.037 154.078 14.5 158.5 C19.672 163.625 24.84 168.752 30.001 173.889 C32.07 175.945 34.144 177.994 36.219 180.044 C37.487 181.304 38.754 182.565 40.021 183.826 C40.6 184.395 41.179 184.963 41.775 185.549 C45.409 189.182 47.707 191.754 48.375 196.875 C47.448 204.597 40.231 210.06 35 215.266 C34.127 216.14 33.255 217.015 32.355 217.916 C30.515 219.757 28.673 221.596 26.828 223.433 C24.939 225.315 23.053 227.199 21.172 229.089 C18.453 231.82 15.728 234.544 13 237.266 C12.158 238.111 11.316 238.957 10.449 239.829 C9.268 241.001 9.268 241.001 8.062 242.196 C7.373 242.884 6.683 243.572 5.973 244.281 C3.104 246.781 0.897 247.883 -2.875 248.375 C-9.472 247.583 -13.99 242.294 -18.464 237.763 C-19.08 237.148 -19.695 236.533 -20.329 235.899 C-22.347 233.88 -24.357 231.854 -26.367 229.828 C-27.771 228.421 -29.175 227.014 -30.579 225.608 C-34.263 221.917 -37.94 218.219 -41.616 214.521 C-45.373 210.743 -49.136 206.972 -52.898 203.199 C-60.271 195.805 -67.638 188.405 -75 181 C-79.237 182.643 -82.044 185.799 -85.158 188.979 C-86.069 189.896 -86.069 189.896 -86.997 190.832 C-88.313 192.158 -89.626 193.487 -90.937 194.818 C-93.013 196.924 -95.096 199.023 -97.18 201.121 C-103.105 207.085 -109.017 213.062 -114.926 219.042 C-118.542 222.702 -122.166 226.353 -125.794 230.001 C-127.174 231.392 -128.552 232.786 -129.926 234.182 C-131.848 236.136 -133.779 238.079 -135.713 240.021 C-136.277 240.6 -136.842 241.179 -137.424 241.775 C-141.521 245.862 -144.489 247.953 -150.312 248.062 C-158.459 245.715 -164.703 237.456 -170.586 231.582 C-171.369 230.802 -172.152 230.023 -172.959 229.219 C-174.599 227.585 -176.237 225.948 -177.875 224.311 C-180.384 221.804 -182.901 219.305 -185.418 216.807 C-187.016 215.211 -188.614 213.616 -190.211 212.02 C-190.963 211.275 -191.715 210.53 -192.49 209.762 C-193.185 209.065 -193.879 208.367 -194.595 207.648 C-195.206 207.038 -195.817 206.429 -196.447 205.801 C-198.85 203.015 -199.899 200.772 -200.375 197.125 C-199.52 190 -193.341 185.057 -188.485 180.231 C-187.344 179.086 -187.344 179.086 -186.181 177.918 C-183.637 175.366 -181.086 172.821 -178.535 170.276 C-176.708 168.447 -174.882 166.617 -173.055 164.786 C-168.612 160.334 -164.164 155.888 -159.714 151.443 C-156.098 147.832 -152.483 144.218 -148.87 140.603 C-148.099 139.831 -148.099 139.831 -147.311 139.043 C-146.266 137.997 -145.221 136.951 -144.175 135.905 C-134.38 126.104 -124.578 116.309 -114.775 106.516 C-106.362 98.112 -97.954 89.702 -89.55 81.289 C-79.788 71.517 -70.024 61.748 -60.254 51.984 C-59.212 50.944 -58.171 49.903 -57.13 48.862 C-56.361 48.094 -56.361 48.094 -55.577 47.31 C-51.965 43.7 -48.356 40.088 -44.747 36.475 C-39.893 31.614 -35.033 26.759 -30.17 21.907 C-28.383 20.123 -26.598 18.337 -24.815 16.549 C-22.386 14.115 -19.952 11.688 -17.515 9.261 C-16.806 8.548 -16.097 7.834 -15.366 7.098 C-14.712 6.45 -14.059 5.802 -13.386 5.134 C-12.825 4.573 -12.263 4.012 -11.685 3.434 C-7.972 0.274 -4.856 -0.583 0 0 Z" fill="#A6E214" transform="translate(204,4)"/>
<path d="M0 0 C5.918 3.325 10.47 8.112 15.266 12.859 C16.14 13.723 17.015 14.586 17.916 15.475 C19.758 17.298 21.596 19.124 23.433 20.952 C26.241 23.741 29.069 26.507 31.898 29.273 C33.689 31.051 35.478 32.829 37.266 34.609 C38.534 35.841 38.534 35.841 39.829 37.098 C44.554 41.859 47.527 45.175 48 52 C46.302 59.03 41.219 63.361 36.203 68.328 C35.336 69.199 34.469 70.07 33.576 70.967 C31.745 72.801 29.909 74.629 28.068 76.453 C25.26 79.24 22.473 82.049 19.688 84.859 C17.902 86.642 16.116 88.423 14.328 90.203 C13.499 91.041 12.669 91.878 11.815 92.741 C3.839 100.59 3.839 100.59 -2 102 C-10.198 101.496 -14.392 96.42 -19.898 90.758 C-20.815 89.838 -21.731 88.918 -22.675 87.97 C-24.605 86.031 -26.525 84.082 -28.438 82.125 C-30.886 79.62 -33.35 77.134 -35.822 74.653 C-38.187 72.278 -40.543 69.893 -42.898 67.508 C-44.223 66.17 -44.223 66.17 -45.575 64.805 C-46.39 63.971 -47.205 63.137 -48.044 62.278 C-49.121 61.181 -49.121 61.181 -50.219 60.062 C-52.739 57.144 -53.876 54.948 -54.375 51.125 C-53.448 43.403 -46.231 37.94 -41 32.734 C-40.127 31.86 -39.255 30.985 -38.355 30.084 C-36.515 28.243 -34.673 26.404 -32.828 24.567 C-30.939 22.685 -29.053 20.801 -27.172 18.911 C-24.453 16.18 -21.728 13.456 -19 10.734 C-18.158 9.889 -17.316 9.043 -16.449 8.171 C-15.662 7.39 -14.874 6.609 -14.062 5.804 C-13.373 5.116 -12.683 4.428 -11.973 3.719 C-8.139 0.379 -5.09 -0.611 0 0 Z" fill="#A6E214" transform="translate(58,4)"/>
</svg>
