<svg version="1.2" xmlns="http://www.w3.org/2000/svg" viewBox="0 0 1550 1550" width="1550" height="1550">
	<title>Zhongtai XTP</title>
	<path fill="#be002e" d="m775.2 0.2c-428.2 0-774.8 347-774.8 774.8 0 427.8 346.6 774.5 774.8 774.5 427.8 0 774.4-346.7 774.4-774.5 0-427.8-346.6-774.8-774.4-774.8zm-639.3 774.8c0-176.9 71.3-336 187.1-452.2 100.8-100.5 234.8-167.8 384.1-183.2v280.1c0 18.1 1.1 45.3-1.6 56.7 0 0-3.6 21.7-23.6 32.3-23.7 13-41.4 3.6-48.1 0.4-36.6-16.5-77.6-26-120.5-26-161.1 0-291.5 130.8-291.9 291.9 0.4 161.5 130.8 291.9 291.9 291.9h0.8c41.7 0 81.1-9.9 115.4-26.8 52-24.8 91.7-63.4 124.4-105.2 32.7-41.3 58.7-86.6 81.6-129.2q1.2-1.9 1.9-3.9c27.6-50.8 58-99.3 90.6-132q25.3-25.6 51.7-38.6c17.7-8.3 35.4-13 57.1-13 86.2 0.4 156 70.1 156.3 156.4-0.3 86.3-70.1 156.4-156.3 156.4-20.5 0-39.8-3.6-57.5-10.6-7.9-3.2-61.9-29.2-136.7-5.6-15 4.8-57.1 22.1-87.9 58.3 0 0-40.5 43.4-46.8 109.9-1.2 17-0.4 27.2-0.4 46.9v280.5c-149.7-15.8-283.7-82.7-384.5-183.6-115.8-115.8-187.1-275.3-187.1-451.8zm1091.1 451.8c-100.8 100.9-234.4 167.8-384 183.6v-280.5c0-18.1-0.8-45.3 1.5-56.3 0 0 3.6-21.7 23.7-32.7 23.6-12.6 41.3-3.2 48 0 37.1 16.5 77.6 25.6 120.6 25.6 161.1 0 291.9-130.4 291.9-291.9 0-161.1-130.8-291.9-291.9-291.9h-0.4c-42.2 0-81.6 9.9-115.8 26.8-51.6 25.2-91.8 63.8-124.1 105.2-32.7 41.7-58.7 87-81.9 129.2q-0.8 1.9-2 4.3c-27.6 50.4-57.9 98.9-90.2 131.6q-25.6 26-52 38.6c-17.4 8.3-35.1 13-57.1 13-86.3 0-156-70.1-156.4-156.4 0.4-86.3 70.1-156 156.4-156.4 20.8 0 39.7 4 57.5 11 7.9 3.2 61.8 28.8 136.7 5.6 14.9-4.8 57.5-22.1 87.8-58.7 0 0 40.6-43.4 46.9-109.9 1.2-17 0.4-27.2 0.4-46.9v-280.5c149.7 15.8 283.6 83.1 384.4 183.6 115.8 116.2 187.1 275.3 187.1 452.2 0 176.5-71.3 336-187.1 451.8z"/>
</svg>
