<svg viewBox="0 0 446.4 446.4" xmlns="http://www.w3.org/2000/svg"><circle cx="223.2" cy="223.2" fill="#2c5976" r="223.2"/><path d="m72.36 177.55c7.27 0 14.47-.07 21.74.22 5.69 14.76 15.7 27.93 18.22 43.85 2.74-15.84 12.1-29.45 18.29-44.07 6.33 0 12.67 0 19-.07-8.79 17.21-17.72 34.27-26.72 51.34-1.22 2.52-2.73 5-2.59 8-.14 10.44.07 20.88 0 31.39h-17.77c-.29-11.09.5-22.18-.36-33.19-9.36-19.38-19.8-38.39-29.81-57.47zm103.46 25.27c10.88-2.23 23.69-.36 31.11 8.57s8.35 21.1 7.13 32.11c-1 10.08-7 20.09-16.71 23.91-12.17 4.75-28.08 3.09-36.72-7.49-7.85-10.37-8.42-24.62-5.47-36.79 2.3-10.01 10.51-18.43 20.66-20.31zm3.89 14.12c-6.62 2-8.21 9.64-8.64 15.62-.36 6.84.07 14.76 5 19.94 5.4 5.76 16.2 3.53 18.94-3.81a36.93 36.93 0 0 0 -.15-25.49c-2.04-5.98-9.46-8.71-15.15-6.26z" fill="#fff"/><path d="m226.44 178.27c12.6-1.44 25.42-2.52 38.16-1 6.55.87 13.46 3 18 8.28 5.47 6 5.62 15.12 3 22.47-2.16 6.05-8.06 9.21-13.1 12.45 5.11 2 10.87 4 14 9 7.42 11.52 3 28.88-9.5 34.78-15.63 7.78-33.77 5-50.48 3.46-.44-29.82-.08-59.63-.08-89.44zm17.5 13.61c-.44 7.92-.44 15.91-.22 23.83 7.34-.14 15.77.58 21.6-4.89 5.69-4.11 5.18-14.33-1.51-17.14-6.19-2.95-13.25-1.68-19.87-1.8zm-.29 37.87q-.1 12 0 24c7.92.36 17 1.8 23.76-3.31 5.83-4.18 5.83-14.48-.65-18-7.06-3.84-15.41-2.44-23.11-2.69zm63.14-52.13c6.12-3 15.84-.28 16.63 7.35.22 10-15.26 12.89-20.3 5.11-2.88-4.08-.86-10.44 3.67-12.46zm32.19 14c5.68-1.51 11.3-3.09 17-4.68 0 5.62.07 11.16.07 16.71 5.26 0 10.58.07 15.84.28-.07 4.61-.14 9.22-.22 13.76-5.18.07-10.44.07-15.62.07.36 11.09-1 22.25.79 33.26 2 6.19 9.72 2.67 14.19 2.09 1 4.32 2 8.64 3 12.89-8.35 2.95-17.78 5.76-26.42 2.3-6-2.23-8.21-8.93-8.5-14.69-.79-11.88-.14-23.83-.29-35.78-2.95 0-5.76 0-8.71.07-.22-4.75-.22-9.43-.22-14.18 3-.07 5.91-.07 8.86-.15.08-3.99.08-8.02.25-11.98zm-35 12.1c5.76-.07 11.45-.07 17.21 0v64.48h-17.19z" fill="#00a9d2"/></svg>