<svg xmlns="http://www.w3.org/2000/svg" viewBox="0 0 512 512">
<path d="M0 0 C6.05 3.813 9.568 8.478 12.672 14.852 C13.012 15.541 13.351 16.231 13.701 16.942 C18.448 26.773 22.43 36.938 26.5 47.062 C27.383 49.245 28.267 51.428 29.152 53.61 C30.933 58.004 32.711 62.399 34.487 66.795 C37.685 74.699 40.92 82.588 44.163 90.474 C45.78 94.405 47.394 98.337 49.008 102.27 C49.491 103.446 49.491 103.446 49.984 104.646 C53.616 113.496 57.236 122.351 60.857 131.205 C66.898 145.978 72.941 160.75 78.994 175.518 C79.702 177.245 80.41 178.973 81.117 180.7 C82.089 183.074 83.062 185.447 84.035 187.82 C84.467 188.875 84.467 188.875 84.907 189.95 C86.366 193.514 86.366 193.514 88 197 C88.753 202.106 88.753 202.106 88 205 C82.819 209.939 74.846 212.363 68.312 214.938 C67.213 215.372 66.113 215.807 64.979 216.254 C35.953 227.503 4.205 233.507 -27 232 C-27.859 231.959 -28.719 231.918 -29.604 231.875 C-61.997 230.177 -97.578 223.45 -126 207 C-128.379 203.432 -128.4 202.212 -128 198 C-127.085 195.3 -126.115 192.773 -124.984 190.168 C-124.662 189.4 -124.339 188.633 -124.007 187.842 C-123.302 186.169 -122.593 184.498 -121.879 182.829 C-120.325 179.194 -118.796 175.55 -117.264 171.906 C-116.446 169.96 -115.627 168.015 -114.807 166.071 C-110.525 155.908 -106.358 145.699 -102.202 135.484 C-100.089 130.29 -97.972 125.098 -95.855 119.906 C-95.443 118.895 -95.031 117.883 -94.606 116.841 C-90.668 107.18 -86.712 97.526 -82.75 87.875 C-82.43 87.096 -82.111 86.317 -81.781 85.515 C-78.808 78.27 -75.832 71.026 -72.856 63.782 C-71.044 59.37 -69.231 54.957 -67.42 50.544 C-66.414 48.095 -65.408 45.647 -64.401 43.199 C-63.775 41.674 -63.149 40.15 -62.523 38.625 C-62.223 37.895 -61.923 37.165 -61.613 36.413 C-60.161 32.872 -58.728 29.324 -57.338 25.758 C-57.073 25.082 -56.808 24.405 -56.534 23.708 C-55.823 21.886 -55.118 20.06 -54.413 18.234 C-50.113 8.393 -43.699 1.627 -34 -3 C-22.338 -6.977 -10.657 -6.219 0 0 Z" fill="#008CD8" transform="translate(275,267)"/>
<path d="M0 0 C2.671 2.606 3.883 4.278 4.486 7.988 C4.478 9.085 4.469 10.182 4.461 11.312 C4.459 12.542 4.456 13.772 4.454 15.039 C4.428 16.346 4.402 17.653 4.375 19 C4.359 20.363 4.343 21.727 4.327 23.09 C4.164 34.134 3.497 45.055 2 56 C1.876 56.918 1.753 57.837 1.625 58.783 C-2.768 90.291 -12.364 120.597 -24.312 150 C-24.567 150.635 -24.822 151.271 -25.084 151.925 C-25.81 153.727 -26.555 155.52 -27.301 157.312 C-27.938 158.854 -27.938 158.854 -28.587 160.426 C-30.159 163.29 -31.211 164.34 -34 166 C-36.79 166.383 -36.79 166.383 -40.066 166.394 C-41.931 166.411 -41.931 166.411 -43.834 166.429 C-45.21 166.426 -46.585 166.423 -47.961 166.42 C-49.411 166.427 -50.862 166.436 -52.312 166.446 C-56.25 166.468 -60.188 166.471 -64.126 166.469 C-67.414 166.469 -70.702 166.477 -73.99 166.486 C-81.746 166.505 -89.503 166.508 -97.26 166.501 C-105.261 166.494 -113.262 166.517 -121.264 166.554 C-128.134 166.585 -135.005 166.596 -141.875 166.592 C-145.979 166.59 -150.081 166.596 -154.185 166.62 C-158.043 166.643 -161.901 166.641 -165.76 166.62 C-167.176 166.617 -168.591 166.622 -170.006 166.636 C-182.036 166.749 -182.036 166.749 -185.382 163.671 C-187 161 -187 161 -186.973 157.648 C-185.971 153.891 -184.84 150.248 -183.438 146.625 C-183.173 145.936 -182.908 145.247 -182.635 144.537 C-163.446 95.53 -126.112 52.454 -80 27 C-79.301 26.605 -78.603 26.21 -77.883 25.803 C-56.823 13.939 -24.819 -2.758 0 0 Z" fill="#0053A8" transform="translate(218,29)"/>
<path d="M0 0 C21.146 7.812 40.987 18.209 59.157 31.563 C59.827 32.054 60.498 32.545 61.188 33.051 C70.057 39.62 78.203 46.924 86.157 54.563 C87.054 55.419 87.951 56.275 88.875 57.157 C94.795 62.93 100.048 69.068 105.157 75.563 C105.948 76.538 106.74 77.512 107.555 78.516 C114.604 87.366 120.513 96.766 126.157 106.563 C126.758 107.607 126.758 107.607 127.372 108.672 C132.25 117.254 136.4 126.087 140.219 135.188 C140.614 136.113 141.008 137.037 141.415 137.99 C143.432 142.942 145.025 147.133 144.157 152.563 C142.026 155.356 140.843 156.44 137.349 157.066 C136.259 157.068 135.169 157.069 134.046 157.071 C132.793 157.082 131.539 157.093 130.248 157.105 C128.861 157.097 127.475 157.089 126.088 157.081 C124.626 157.086 123.164 157.093 121.702 157.102 C117.733 157.12 113.765 157.113 109.795 157.1 C105.643 157.09 101.49 157.1 97.337 157.106 C90.363 157.113 83.389 157.104 76.415 157.084 C68.351 157.063 60.287 157.07 52.223 157.092 C45.301 157.11 38.379 157.112 31.456 157.102 C27.321 157.096 23.187 157.095 19.052 157.108 C15.164 157.12 11.277 157.112 7.39 157.089 C5.963 157.083 4.536 157.085 3.109 157.094 C1.162 157.105 -0.786 157.088 -2.733 157.071 C-3.822 157.069 -4.912 157.068 -6.035 157.066 C-9.528 156.44 -10.66 155.303 -12.843 152.563 C-14.256 149.783 -14.256 149.783 -15.542 146.559 C-16.025 145.358 -16.508 144.156 -17.005 142.918 C-17.514 141.613 -18.023 140.307 -18.531 139 C-18.793 138.334 -19.055 137.668 -19.325 136.982 C-31.482 106.045 -40.814 74.638 -44.843 41.563 C-44.946 40.732 -45.048 39.9 -45.154 39.044 C-46.041 30.748 -46.099 22.425 -46.138 14.09 C-46.15 12.391 -46.171 10.692 -46.2 8.993 C-46.242 6.516 -46.259 4.04 -46.269 1.563 C-46.287 0.804 -46.304 0.044 -46.322 -0.738 C-46.301 -5.942 -46.301 -5.942 -44.014 -8.417 C-32.64 -13.76 -11.037 -3.88 0 0 Z" fill="#0053A8" transform="translate(334.84326171875,38.43701171875)"/>
<path d="M0 0 C1.085 -0.007 2.17 -0.014 3.289 -0.021 C5.075 -0.018 5.075 -0.018 6.897 -0.014 C8.778 -0.022 8.778 -0.022 10.696 -0.029 C14.136 -0.041 17.576 -0.043 21.016 -0.041 C23.887 -0.04 26.757 -0.045 29.628 -0.049 C36.398 -0.061 43.168 -0.061 49.938 -0.055 C56.927 -0.049 63.915 -0.061 70.904 -0.083 C76.902 -0.1 82.899 -0.106 88.897 -0.103 C92.48 -0.101 96.063 -0.104 99.646 -0.118 C103.64 -0.133 107.634 -0.123 111.627 -0.112 C112.818 -0.119 114.009 -0.127 115.236 -0.135 C116.863 -0.124 116.863 -0.124 118.524 -0.114 C119.469 -0.114 120.413 -0.114 121.387 -0.114 C123.762 0.261 123.762 0.261 125.562 1.565 C127.623 4.478 127.245 7.823 127.2 11.261 C127.191 12.089 127.183 12.917 127.174 13.77 C125.797 67.443 101.625 124.018 63.762 162.261 C60.887 163.698 58.943 163.642 55.762 163.261 C51.801 159.266 49.978 154.559 47.918 149.433 C47.557 148.552 47.195 147.672 46.823 146.765 C45.628 143.85 44.445 140.93 43.262 138.011 C42.42 135.95 41.577 133.889 40.734 131.829 C38.513 126.401 36.303 120.97 34.095 115.537 C31.944 110.251 29.785 104.969 27.625 99.686 C24.687 92.498 21.752 85.308 18.822 78.117 C12.921 63.638 6.989 49.172 1.039 34.713 C0.168 32.59 -0.697 30.464 -1.561 28.338 C-2.688 25.575 -3.854 22.832 -5.047 20.098 C-5.334 19.426 -5.62 18.755 -5.914 18.063 C-6.69 16.243 -7.481 14.428 -8.274 12.615 C-9.4 8.696 -9.274 6.189 -8.238 2.261 C-4.911 0.043 -3.876 0.008 0 0 Z" fill="#007CCA" transform="translate(364.2379150390625,261.7393035888672)"/>
<path d="M0 0 C1.087 -0.01 2.173 -0.02 3.293 -0.03 C4.48 -0.02 5.667 -0.01 6.89 -0.001 C8.144 -0.006 9.398 -0.011 10.69 -0.017 C14.126 -0.027 17.561 -0.02 20.997 -0.003 C24.593 0.011 28.188 0.004 31.784 0.001 C37.82 -0.002 43.857 0.011 49.894 0.035 C56.875 0.061 63.856 0.063 70.837 0.051 C77.552 0.04 84.267 0.047 90.981 0.061 C93.84 0.067 96.698 0.066 99.557 0.062 C103.546 0.056 107.534 0.075 111.523 0.097 C112.712 0.093 113.901 0.088 115.126 0.084 C116.752 0.098 116.752 0.098 118.411 0.114 C119.826 0.117 119.826 0.117 121.269 0.121 C123.642 0.501 123.642 0.501 125.441 1.838 C126.989 3.982 127.125 5.766 127.003 8.375 C126.223 12.968 124.264 17.18 122.462 21.45 C122.023 22.519 121.584 23.588 121.131 24.689 C119.688 28.194 118.227 31.691 116.767 35.189 C115.756 37.636 114.745 40.084 113.737 42.532 C111.689 47.498 109.634 52.462 107.574 57.424 C103.84 66.425 100.156 75.448 96.476 84.472 C95.032 88.007 93.585 91.54 92.137 95.073 C89.064 102.57 86.001 110.071 82.952 117.577 C81.309 121.621 79.663 125.663 78.017 129.705 C77.237 131.625 76.458 133.544 75.68 135.464 C65.472 160.671 65.472 160.671 62.642 163.501 C59.753 164.103 58.424 164.262 55.642 163.501 C29.027 144.809 11.539 102.868 1.642 73.501 C1.246 72.33 1.246 72.33 0.842 71.135 C-5.46 52.107 -13.298 24.566 -9.358 4.501 C-6.44 0.857 -4.63 0.001 0 0 Z" fill="#007CCA" transform="translate(28.358169555664063,261.49879455566406)"/>
</svg>
