<svg viewBox="0 0 69.12 56.62" xmlns="http://www.w3.org/2000/svg"><g fill="#015eac"><path d="m15.37 0h35.83l-39.44 56.62h-7.76a1 1 0 0 1 -1-1 1.07 1.07 0 0 1 .14-.46l34-48.86a.29.29 0 0 0 -.07-.4.27.27 0 0 0 -.07-.09h-14.07a13.21 13.21 0 0 0 -4.93 1c-4.64 1.87-13.12 7.56-17.67 24.44 0 0-3.88-17.13 15.04-31.25z"/><path d="m53.75 56.62h-35.83l39.43-56.62h7.81a1 1 0 0 1 .9 1.09.93.93 0 0 1 -.12.4l-34 48.85a.3.3 0 0 0 .08.42.28.28 0 0 0 .16.05l14.07-.06a13.14 13.14 0 0 0 4.84-.93c4.67-1.89 13.16-7.57 17.71-24.45-.01 0 3.87 17.13-15.05 31.25z"/></g></svg>