<svg viewBox="0 0 94 94" xmlns="http://www.w3.org/2000/svg"><g fill="#e6201a"><path d="m47 0a47 47 0 1 0 47 47 47 47 0 0 0 -47-47zm0 86.44a39.44 39.44 0 1 1 39.44-39.44 39.44 39.44 0 0 1 -39.44 39.44z"/><path d="m51.9 45.34 5.1-4.94-2.42-2.4a10.79 10.79 0 0 0 -15.47.2l-11.71 12.27a11.49 11.49 0 0 0 8.31 19.43h25.29a9.44 9.44 0 0 0 7.39-4 9.76 9.76 0 0 0 1.2-2.64s2.59-6.71-4.25-13.84l-5.52 4.9 1.28 1.56a4 4 0 0 1 .46 4.38 4.48 4.48 0 0 1 -4.06 2.48h-20.88s-7.75-.69-2.62-7.94l11.37-11.63a3.28 3.28 0 0 1 4.06 0z"/><path d="m42.23 48.52-5.06 4.94 2.38 2.38a10.8 10.8 0 0 0 15.45-.21l11.73-12.24a11.49 11.49 0 0 0 -8.31-19.39h-25.28a9.43 9.43 0 0 0 -7.39 4 9.76 9.76 0 0 0 -1.2 2.64s-2.55 6.67 4.25 13.8l5.52-4.9-1.32-1.54a4 4 0 0 1 -.46-4.38 4.48 4.48 0 0 1 4.06-2.48h20.9s7.75.68 2.67 7.93l-11.42 11.62a3.26 3.26 0 0 1 -4 0z"/></g></svg>