<?xml version="1.0" encoding="UTF-8"?>
<svg xmlns="http://www.w3.org/2000/svg" viewBox="0 44 100 100">
  <path fill="#85f382" d="M77.14 98.473c-9.6 0-17.82 5.94-21.18 14.34v-.02c-.95 2.28-3.28 3.89-6 3.89s-5.03-1.61-5.98-3.89l-.19-.47c-.87-2.36-.17-5.41 1.74-7.33l15.33-15.33c1.92-1.92 4.98-2.62 7.33-1.75 2.75 1.17 5.78 1.83 8.95 1.83 12.6 0 22.81-10.21 22.81-22.81s-10.21-22.81-22.81-22.81c-9.59 0-17.8 5.92-21.16 14.31-.95 2.28-3.3 3.87-6.01 3.87s-5.05-1.61-5.99-3.89c-3.38-8.38-11.57-14.3-21.16-14.3C10.21 44.123 0 54.343 0 66.933s10.21 22.81 22.81 22.81c9.62 0 17.84-5.96 21.2-14.39v.03c.95-2.28 3.24-3.89 5.96-3.89s5.04 1.61 5.99 3.89l.2.49c.87 2.36.18 5.42-1.74 7.34l-15.33 15.33c-1.92 1.92-4.98 2.62-7.33 1.74-2.75-1.17-5.78-1.82-8.95-1.82C10.21 98.463 0 108.673 0 121.273s10.21 22.81 22.81 22.81c9.6 0 17.82-5.94 21.18-14.34v.02c.95-2.28 3.26-3.89 5.98-3.89s5.05 1.61 6 3.89c3.36 8.4 11.58 14.33 21.18 14.33 12.6 0 22.81-10.21 22.81-22.81s-10.21-22.81-22.81-22.81l-.01-.02v.02Z"/>
</svg>
