<svg xmlns="http://www.w3.org/2000/svg" viewBox="0 0 200 200" fill="none">
  <defs>
    <linearGradient id="a" x1="0" y1="0.5" x2="1" y2="0.5">
      <stop stop-color="#3ef2c9"/>
      <stop offset="1" stop-color="#1cdfd7"/>
    </linearGradient>
  </defs>
  <path fill="url(#a)" d="M104.262 193.894c-2.832-2.503-4.918-6.064-5.705-10.284L74.695 55.354 53.071 81.144h.414c8.935 0 16.177 7.957 16.177 17.775 0 9.817-7.25 17.765-16.177 17.765h-37.15c-.055.001-.11.001-.165.001-3.506 0-7.019-1.243-9.945-3.76a17.238 17.238 0 0 1-2.3-2.406 18.343 18.343 0 0 1-2.001-3.192A19.235 19.235 0 0 1 0 98.918v-.006c-.001-4.307 1.413-8.625 4.277-12.041L72.102 5.997C74.345 3.21 77.401 1.168 80.975.364c8.746-1.969 17.294 4.236 19.087 13.855l23.862 128.26 21.629-25.795h-.425c-8.936 0-16.177-7.957-16.177-17.774 0-9.818 7.241-17.775 16.177-17.775h37.309c8.934 0 16.176 7.957 16.176 17.775 0 1.966-.29 3.858-.827 5.627a18.568 18.568 0 0 1-3.452 6.422l-67.787 80.837a17.606 17.606 0 0 1-2.941 2.878c-2.75 2.097-5.973 3.152-9.2 3.152-.125 0-.25-.001-.375-.005a16.224 16.224 0 0 1-1.674-.137 15.453 15.453 0 0 1-8.095-3.791Z"/>
</svg>
