<svg version="1.1" id="Layer_1" xmlns="http://www.w3.org/2000/svg" xmlns:xlink="http://www.w3.org/1999/xlink" x="0px" y="0px"
	 viewBox="0 0 28 28" style="enable-background:new 0 0 28 28;" xml:space="preserve">
<style type="text/css">
	.st0{fill:#FF7200;}
</style>
<path class="st0" d="M3.2,16C3.1,15.3,3,14.7,3,14C3,7.9,7.9,3,14,3c5.6,0,10.3,4.2,10.9,9.7l-2.3-1.4C21.4,7.6,18,5,14,5
	c-5,0-9,4-9,9c0,0.3,0,0.5,0,0.8L3.2,16z M14,23c-3.2,0-6.1-1.7-7.7-4.3l-1.7,1.1C6.6,22.9,10,25,14,25c5,0,9.2-3.3,10.5-7.8
	l-1.8-1.1C21.8,20,18.3,23,14,23z M27,15.2l-9.6-5.9l-4.5,5.7l-4-1.5l-7.1,4.6c-0.5,0.3-0.6,0.9-0.3,1.4l0,0
	c0.3,0.5,0.9,0.6,1.4,0.3l6.2-4.1l4.4,1.6l4.3-5.4l8.1,5c0.5,0.3,1.1,0.1,1.4-0.3l0,0C27.6,16.1,27.5,15.5,27,15.2z"/>
</svg>
